<?xml version="1.0" encoding="UTF-8" standalone="no"?>
<!DOCTYPE svg PUBLIC "-//W3C//DTD SVG 1.1//EN"
 "http://www.w3.org/Graphics/SVG/1.1/DTD/svg11.dtd">
<!-- Generated by graphviz version 3.0.0 (20220413.0242)
 -->
<!-- Title: embed::percent::raw_max Pages: 1 -->
<svg width="444pt" height="203pt"
 viewBox="0.00 0.00 444.00 203.00" xmlns="http://www.w3.org/2000/svg" xmlns:xlink="http://www.w3.org/1999/xlink">
<g id="graph0" class="graph" transform="scale(1 1) rotate(0) translate(4 199)">
<title>embed::percent::raw_max</title>
<polygon fill="white" stroke="transparent" points="-4,4 -4,-199 440,-199 440,4 -4,4"/>
<!-- Node1 -->
<g id="node1" class="node">
<title>Node1</title>
<g id="a_node1"><a xlink:title="Get the 100% value in its raw representation.">
<polygon fill="#bfbfbf" stroke="black" points="310,-88 310,-107 436,-107 436,-88 310,-88"/>
<text text-anchor="middle" x="373" y="-95" font-family="Helvetica,sans-Serif" font-size="10.00">embed::percent::raw_max</text>
</a>
</g>
</g>
<!-- Node2 -->
<g id="node2" class="node">
<title>Node2</title>
<g id="a_node2"><a xlink:href="classembed_1_1percent.html#a3031fcd41ebdbc14fe77114d239c0b27" target="_top" xlink:title="Generate a percentage based on input relative to the maximum possible value.">
<polygon fill="white" stroke="black" points="156.5,-164.5 156.5,-194.5 263.5,-194.5 263.5,-164.5 156.5,-164.5"/>
<text text-anchor="start" x="164.5" y="-182.5" font-family="Helvetica,sans-Serif" font-size="10.00">embed::percent::from</text>
<text text-anchor="middle" x="210" y="-171.5" font-family="Helvetica,sans-Serif" font-size="10.00">_ratio</text>
</a>
</g>
</g>
<!-- Node1&#45;&gt;Node2 -->
<g id="edge1" class="edge">
<title>Node1&#45;&gt;Node2</title>
<path fill="none" stroke="midnightblue" d="M345.46,-111.98C325.83,-122.6 298.4,-137.23 274,-149.5 264.15,-154.45 253.34,-159.68 243.5,-164.35"/>
<polygon fill="midnightblue" stroke="midnightblue" points="347.29,-114.97 354.42,-107.13 343.96,-108.82 347.29,-114.97"/>
</g>
<!-- Node4 -->
<g id="node4" class="node">
<title>Node4</title>
<g id="a_node4"><a xlink:href="classembed_1_1percent.html#afa379fbbb92bc5dc22f0dce8bcf7ea1b" target="_top" xlink:title="Get the percent after it is scaled to a range. The output percent is bound within the given range....">
<polygon fill="white" stroke="black" points="0,-126 0,-145 110,-145 110,-126 0,-126"/>
<text text-anchor="middle" x="55" y="-133" font-family="Helvetica,sans-Serif" font-size="10.00">embed::percent::scale</text>
</a>
</g>
</g>
<!-- Node1&#45;&gt;Node4 -->
<g id="edge5" class="edge">
<title>Node1&#45;&gt;Node4</title>
<path fill="none" stroke="midnightblue" d="M317.68,-109.08C303.51,-111.81 288.23,-114.51 274,-116.5 218.51,-124.28 154.59,-129.4 110.38,-132.34"/>
<polygon fill="midnightblue" stroke="midnightblue" points="318.64,-112.46 327.77,-107.09 317.28,-105.59 318.64,-112.46"/>
</g>
<!-- Node5 -->
<g id="node5" class="node">
<title>Node5</title>
<g id="a_node5"><a xlink:href="classembed_1_1percent.html#af2a395e77ca5d840fc8ee29c4354dacb" target="_top" xlink:title="Assignment operator for a percent object based on a floating point value.">
<polygon fill="white" stroke="black" points="146,-88 146,-107 274,-107 274,-88 146,-88"/>
<text text-anchor="middle" x="210" y="-95" font-family="Helvetica,sans-Serif" font-size="10.00">embed::percent::operator=</text>
</a>
</g>
</g>
<!-- Node1&#45;&gt;Node5 -->
<g id="edge4" class="edge">
<title>Node1&#45;&gt;Node5</title>
<path fill="none" stroke="midnightblue" d="M299.51,-97.5C291.05,-97.5 282.47,-97.5 274.14,-97.5"/>
<polygon fill="midnightblue" stroke="midnightblue" points="299.75,-101 309.75,-97.5 299.75,-94 299.75,-101"/>
</g>
<!-- Node6 -->
<g id="node6" class="node">
<title>Node6</title>
<g id="a_node6"><a xlink:href="classembed_1_1percent.html#a642dbcdfc12e1844ab286d524f4c45d7" target="_top" xlink:title="Convert percent to a floating point representation.">
<polygon fill="white" stroke="black" points="162.5,-50 162.5,-69 257.5,-69 257.5,-50 162.5,-50"/>
<text text-anchor="middle" x="210" y="-57" font-family="Helvetica,sans-Serif" font-size="10.00">embed::percent::to</text>
</a>
</g>
</g>
<!-- Node1&#45;&gt;Node6 -->
<g id="edge6" class="edge">
<title>Node1&#45;&gt;Node6</title>
<path fill="none" stroke="midnightblue" d="M321.6,-85.6C298.97,-80.26 272.63,-74.05 251.33,-69.02"/>
<polygon fill="midnightblue" stroke="midnightblue" points="320.84,-89.02 331.37,-87.91 322.44,-82.21 320.84,-89.02"/>
</g>
<!-- Node7 -->
<g id="node7" class="node">
<title>Node7</title>
<g id="a_node7"><a xlink:href="classembed_1_1percent.html#a5e98c88a9266480216893984aa65affb" target="_top" xlink:title="convert this percentage value into a string from &#45;1.0 to +1.0">
<polygon fill="white" stroke="black" points="162.5,-0.5 162.5,-30.5 257.5,-30.5 257.5,-0.5 162.5,-0.5"/>
<text text-anchor="start" x="170.5" y="-18.5" font-family="Helvetica,sans-Serif" font-size="10.00">embed::percent::to</text>
<text text-anchor="middle" x="210" y="-7.5" font-family="Helvetica,sans-Serif" font-size="10.00">_string</text>
</a>
</g>
</g>
<!-- Node1&#45;&gt;Node7 -->
<g id="edge7" class="edge">
<title>Node1&#45;&gt;Node7</title>
<path fill="none" stroke="midnightblue" d="M348.57,-82.54C329.05,-70.4 300.29,-53.27 274,-40.5 266.91,-37.05 259.21,-33.7 251.72,-30.63"/>
<polygon fill="midnightblue" stroke="midnightblue" points="346.77,-85.55 357.11,-87.9 350.49,-79.62 346.77,-85.55"/>
</g>
<!-- Node3 -->
<g id="node3" class="node">
<title>Node3</title>
<g id="a_node3"><a xlink:href="structembed_1_1duty__cycle.html#ae3211da17ad871387109a5d901a18183" target="_top" xlink:title="Conversion from duty cycle to percentage.">
<polygon fill="white" stroke="black" points="4.5,-164.5 4.5,-194.5 105.5,-194.5 105.5,-164.5 4.5,-164.5"/>
<text text-anchor="start" x="12.5" y="-182.5" font-family="Helvetica,sans-Serif" font-size="10.00">embed::duty_cycle::</text>
<text text-anchor="middle" x="55" y="-171.5" font-family="Helvetica,sans-Serif" font-size="10.00">operator percent</text>
</a>
</g>
</g>
<!-- Node2&#45;&gt;Node3 -->
<g id="edge2" class="edge">
<title>Node2&#45;&gt;Node3</title>
<path fill="none" stroke="midnightblue" d="M146.17,-179.5C132.66,-179.5 118.58,-179.5 105.66,-179.5"/>
<polygon fill="midnightblue" stroke="midnightblue" points="146.35,-183 156.35,-179.5 146.35,-176 146.35,-183"/>
</g>
<!-- Node2&#45;&gt;Node4 -->
<g id="edge3" class="edge">
<title>Node2&#45;&gt;Node4</title>
<path fill="none" stroke="midnightblue" d="M146.92,-161.65C127.21,-155.98 106.18,-149.93 89.31,-145.08"/>
<polygon fill="midnightblue" stroke="midnightblue" points="146.2,-165.08 156.77,-164.48 148.13,-158.35 146.2,-165.08"/>
</g>
</g>
</svg>
