<?xml version="1.0" encoding="UTF-8" standalone="no"?>
<!DOCTYPE svg PUBLIC "-//W3C//DTD SVG 1.1//EN"
 "http://www.w3.org/Graphics/SVG/1.1/DTD/svg11.dtd">
<!-- Generated by graphviz version 3.0.0 (20220413.0242)
 -->
<!-- Title: embed::frequency::duration_from_cycles Pages: 1 -->
<svg width="452pt" height="78pt"
 viewBox="0.00 0.00 452.00 77.50" xmlns="http://www.w3.org/2000/svg" xmlns:xlink="http://www.w3.org/1999/xlink">
<g id="graph0" class="graph" transform="scale(1 1) rotate(0) translate(4 73.5)">
<title>embed::frequency::duration_from_cycles</title>
<polygon fill="white" stroke="transparent" points="-4,4 -4,-73.5 448,-73.5 448,4 -4,4"/>
<!-- Node1 -->
<g id="node1" class="node">
<title>Node1</title>
<g id="a_node1"><a xlink:title="Calculate time duration based on the frequency and a number of cycles.">
<polygon fill="#bfbfbf" stroke="black" points="0,-17 0,-47 131,-47 131,-17 0,-17"/>
<text text-anchor="start" x="8" y="-35" font-family="Helvetica,sans-Serif" font-size="10.00">embed::frequency::duration</text>
<text text-anchor="middle" x="65.5" y="-24" font-family="Helvetica,sans-Serif" font-size="10.00">_from_cycles</text>
</a>
</g>
</g>
<!-- Node2 -->
<g id="node2" class="node">
<title>Node2</title>
<g id="a_node2"><a xlink:href="classembed_1_1frequency.html#ae253d42390060843082b1ef6c2b300ec" target="_top" xlink:title="Get the frequency as an integer.">
<polygon fill="white" stroke="black" points="167,-39 167,-69 292,-69 292,-39 167,-39"/>
<text text-anchor="start" x="175" y="-57" font-family="Helvetica,sans-Serif" font-size="10.00">embed::frequency::cycles</text>
<text text-anchor="middle" x="229.5" y="-46" font-family="Helvetica,sans-Serif" font-size="10.00">_per_second</text>
</a>
</g>
</g>
<!-- Node1&#45;&gt;Node2 -->
<g id="edge1" class="edge">
<title>Node1&#45;&gt;Node2</title>
<path fill="none" stroke="midnightblue" d="M131.46,-40.82C139.78,-41.95 148.34,-43.11 156.76,-44.26"/>
<polygon fill="midnightblue" stroke="midnightblue" points="156.57,-47.76 166.95,-45.64 157.51,-40.83 156.57,-47.76"/>
</g>
<!-- Node3 -->
<g id="node3" class="node">
<title>Node3</title>
<g id="a_node3"><a xlink:href="namespaceembed.html#a84ea33bb969785c47247cfe0da9aa98e" target="_top" xlink:title="Perform integer division and round the value up if the next decimal place is greater than or equal to...">
<polygon fill="white" stroke="black" points="167,-0.5 167,-19.5 292,-19.5 292,-0.5 167,-0.5"/>
<text text-anchor="middle" x="229.5" y="-7.5" font-family="Helvetica,sans-Serif" font-size="10.00">embed::rounding_division</text>
</a>
</g>
</g>
<!-- Node1&#45;&gt;Node3 -->
<g id="edge2" class="edge">
<title>Node1&#45;&gt;Node3</title>
<path fill="none" stroke="midnightblue" d="M131.46,-23.18C139.78,-22.05 148.34,-20.89 156.76,-19.74"/>
<polygon fill="midnightblue" stroke="midnightblue" points="157.51,-23.17 166.95,-18.36 156.57,-16.24 157.51,-23.17"/>
</g>
<!-- Node4 -->
<g id="node4" class="node">
<title>Node4</title>
<g id="a_node4"><a xlink:href="namespaceembed.html#a6f0922a28ac81378eb689b2ab4bc299a" target="_top" xlink:title="Generic absolute value function that works for integer types.">
<polygon fill="white" stroke="black" points="328,-0.5 328,-19.5 444,-19.5 444,-0.5 328,-0.5"/>
<text text-anchor="middle" x="386" y="-7.5" font-family="Helvetica,sans-Serif" font-size="10.00">embed::absolute_value</text>
</a>
</g>
</g>
<!-- Node3&#45;&gt;Node4 -->
<g id="edge3" class="edge">
<title>Node3&#45;&gt;Node4</title>
<path fill="none" stroke="midnightblue" d="M292.01,-10C300.38,-10 309.02,-10 317.49,-10"/>
<polygon fill="midnightblue" stroke="midnightblue" points="317.72,-13.5 327.72,-10 317.72,-6.5 317.72,-13.5"/>
</g>
</g>
</svg>
