<?xml version="1.0" encoding="UTF-8" standalone="no"?>
<!DOCTYPE svg PUBLIC "-//W3C//DTD SVG 1.1//EN"
 "http://www.w3.org/Graphics/SVG/1.1/DTD/svg11.dtd">
<!-- Generated by graphviz version 3.0.0 (20220413.0242)
 -->
<!-- Title: embed::percent::scale Pages: 1 -->
<svg width="280pt" height="66pt"
 viewBox="0.00 0.00 280.00 66.00" xmlns="http://www.w3.org/2000/svg" xmlns:xlink="http://www.w3.org/1999/xlink">
<g id="graph0" class="graph" transform="scale(1 1) rotate(0) translate(4 62)">
<title>embed::percent::scale</title>
<polygon fill="white" stroke="transparent" points="-4,4 -4,-62 276,-62 276,4 -4,4"/>
<!-- Node1 -->
<g id="node1" class="node">
<title>Node1</title>
<g id="a_node1"><a xlink:title="Get the value of the percent after it is scaled to a range. The output value is bound within the give...">
<polygon fill="#bfbfbf" stroke="black" points="0,-19.5 0,-38.5 110,-38.5 110,-19.5 0,-19.5"/>
<text text-anchor="middle" x="55" y="-26.5" font-family="Helvetica,sans-Serif" font-size="10.00">embed::percent::scale</text>
</a>
</g>
</g>
<!-- Node2 -->
<g id="node2" class="node">
<title>Node2</title>
<g id="a_node2"><a xlink:href="classembed_1_1percent.html#a18867853ebb7f7101932f298ef9ac059" target="_top" xlink:title="Get the 100% value in its raw representation.">
<polygon fill="white" stroke="black" points="146,-38.5 146,-57.5 272,-57.5 272,-38.5 146,-38.5"/>
<text text-anchor="middle" x="209" y="-45.5" font-family="Helvetica,sans-Serif" font-size="10.00">embed::percent::raw_max</text>
</a>
</g>
</g>
<!-- Node1&#45;&gt;Node2 -->
<g id="edge1" class="edge">
<title>Node1&#45;&gt;Node2</title>
<path fill="none" stroke="midnightblue" d="M110.02,-35.75C118.36,-36.79 127.09,-37.89 135.75,-38.97"/>
<polygon fill="midnightblue" stroke="midnightblue" points="135.5,-42.47 145.86,-40.23 136.37,-35.52 135.5,-42.47"/>
</g>
<!-- Node3 -->
<g id="node3" class="node">
<title>Node3</title>
<g id="a_node3"><a xlink:href="classembed_1_1percent.html#ad205fdaffa0fc8a9b7c227b704571b74" target="_top" xlink:title="Get the 0% value in its raw representation.">
<polygon fill="white" stroke="black" points="146,-0.5 146,-19.5 272,-19.5 272,-0.5 146,-0.5"/>
<text text-anchor="middle" x="209" y="-7.5" font-family="Helvetica,sans-Serif" font-size="10.00">embed::percent::raw_zero</text>
</a>
</g>
</g>
<!-- Node1&#45;&gt;Node3 -->
<g id="edge2" class="edge">
<title>Node1&#45;&gt;Node3</title>
<path fill="none" stroke="midnightblue" d="M110.02,-22.25C118.36,-21.21 127.09,-20.11 135.75,-19.03"/>
<polygon fill="midnightblue" stroke="midnightblue" points="136.37,-22.48 145.86,-17.77 135.5,-15.53 136.37,-22.48"/>
</g>
</g>
</svg>
