<?xml version="1.0" encoding="UTF-8" standalone="no"?>
<!DOCTYPE svg PUBLIC "-//W3C//DTD SVG 1.1//EN"
 "http://www.w3.org/Graphics/SVG/1.1/DTD/svg11.dtd">
<!-- Generated by graphviz version 3.0.0 (20220413.0242)
 -->
<!-- Title: embed::percent::percent Pages: 1 -->
<svg width="428pt" height="116pt"
 viewBox="0.00 0.00 428.00 116.00" xmlns="http://www.w3.org/2000/svg" xmlns:xlink="http://www.w3.org/1999/xlink">
<g id="graph0" class="graph" transform="scale(1 1) rotate(0) translate(4 112)">
<title>embed::percent::percent</title>
<polygon fill="white" stroke="transparent" points="-4,4 -4,-112 424,-112 424,4 -4,4"/>
<!-- Node1 -->
<g id="node1" class="node">
<title>Node1</title>
<g id="a_node1"><a xlink:title="Construct 0% percent object.">
<polygon fill="#bfbfbf" stroke="black" points="301,-44.5 301,-63.5 420,-63.5 420,-44.5 301,-44.5"/>
<text text-anchor="middle" x="360.5" y="-51.5" font-family="Helvetica,sans-Serif" font-size="10.00">embed::percent::percent</text>
</a>
</g>
</g>
<!-- Node2 -->
<g id="node2" class="node">
<title>Node2</title>
<g id="a_node2"><a xlink:href="classembed_1_1percent.html#ac103b96ed873d2d7500795d98e9aa666" target="_top" xlink:title="Convert a fixed width integer value into a percentage based on its distance to the end of its bit wid...">
<polygon fill="white" stroke="black" points="146,-88.5 146,-107.5 265,-107.5 265,-88.5 146,-88.5"/>
<text text-anchor="middle" x="205.5" y="-95.5" font-family="Helvetica,sans-Serif" font-size="10.00">embed::percent::convert</text>
</a>
</g>
</g>
<!-- Node1&#45;&gt;Node2 -->
<g id="edge1" class="edge">
<title>Node1&#45;&gt;Node2</title>
<path fill="none" stroke="midnightblue" d="M316.59,-66.34C292.22,-73.35 262.18,-81.99 239.63,-88.47"/>
<polygon fill="midnightblue" stroke="midnightblue" points="317.66,-69.67 326.3,-63.55 315.72,-62.95 317.66,-69.67"/>
</g>
<!-- Node3 -->
<g id="node3" class="node">
<title>Node3</title>
<g id="a_node3"><a xlink:href="classembed_1_1percent.html#a3031fcd41ebdbc14fe77114d239c0b27" target="_top" xlink:title="Generate a percentage based on input relative to the maximum possible value.">
<polygon fill="white" stroke="black" points="152,-39 152,-69 259,-69 259,-39 152,-39"/>
<text text-anchor="start" x="160" y="-57" font-family="Helvetica,sans-Serif" font-size="10.00">embed::percent::from</text>
<text text-anchor="middle" x="205.5" y="-46" font-family="Helvetica,sans-Serif" font-size="10.00">_ratio</text>
</a>
</g>
</g>
<!-- Node1&#45;&gt;Node3 -->
<g id="edge2" class="edge">
<title>Node1&#45;&gt;Node3</title>
<path fill="none" stroke="midnightblue" d="M290.75,-54C280.19,-54 269.44,-54 259.3,-54"/>
<polygon fill="midnightblue" stroke="midnightblue" points="290.78,-57.5 300.78,-54 290.78,-50.5 290.78,-57.5"/>
</g>
<!-- Node5 -->
<g id="node5" class="node">
<title>Node5</title>
<g id="a_node5"><a xlink:href="classembed_1_1percent.html#afa379fbbb92bc5dc22f0dce8bcf7ea1b" target="_top" xlink:title="Get the percent after it is scaled to a range. The output percent is bound within the given range....">
<polygon fill="white" stroke="black" points="0,-0.5 0,-19.5 110,-19.5 110,-0.5 0,-0.5"/>
<text text-anchor="middle" x="55" y="-7.5" font-family="Helvetica,sans-Serif" font-size="10.00">embed::percent::scale</text>
</a>
</g>
</g>
<!-- Node1&#45;&gt;Node5 -->
<g id="edge5" class="edge">
<title>Node1&#45;&gt;Node5</title>
<path fill="none" stroke="midnightblue" d="M318.82,-41.64C302.26,-37.02 282.85,-32.15 265,-29 212.79,-19.79 152.42,-14.91 110.02,-12.42"/>
<polygon fill="midnightblue" stroke="midnightblue" points="318.15,-45.08 328.72,-44.46 320.06,-38.35 318.15,-45.08"/>
</g>
<!-- Node4 -->
<g id="node4" class="node">
<title>Node4</title>
<g id="a_node4"><a xlink:href="structembed_1_1duty__cycle.html#ae3211da17ad871387109a5d901a18183" target="_top" xlink:title="Conversion from duty cycle to percentage.">
<polygon fill="white" stroke="black" points="4.5,-39 4.5,-69 105.5,-69 105.5,-39 4.5,-39"/>
<text text-anchor="start" x="12.5" y="-57" font-family="Helvetica,sans-Serif" font-size="10.00">embed::duty_cycle::</text>
<text text-anchor="middle" x="55" y="-46" font-family="Helvetica,sans-Serif" font-size="10.00">operator percent</text>
</a>
</g>
</g>
<!-- Node3&#45;&gt;Node4 -->
<g id="edge3" class="edge">
<title>Node3&#45;&gt;Node4</title>
<path fill="none" stroke="midnightblue" d="M141.72,-54C129.67,-54 117.19,-54 105.62,-54"/>
<polygon fill="midnightblue" stroke="midnightblue" points="141.73,-57.5 151.73,-54 141.73,-50.5 141.73,-57.5"/>
</g>
<!-- Node3&#45;&gt;Node5 -->
<g id="edge4" class="edge">
<title>Node3&#45;&gt;Node5</title>
<path fill="none" stroke="midnightblue" d="M143.99,-36.07C124.93,-30.42 104.62,-24.41 88.33,-19.58"/>
<polygon fill="midnightblue" stroke="midnightblue" points="143.23,-39.5 153.81,-38.98 145.22,-32.78 143.23,-39.5"/>
</g>
</g>
</svg>
