<?xml version="1.0" encoding="UTF-8" standalone="no"?>
<!DOCTYPE svg PUBLIC "-//W3C//DTD SVG 1.1//EN"
 "http://www.w3.org/Graphics/SVG/1.1/DTD/svg11.dtd">
<!-- Generated by graphviz version 3.0.0 (20220413.0242)
 -->
<!-- Title: embed::frequency::cycles_per Pages: 1 -->
<svg width="537pt" height="78pt"
 viewBox="0.00 0.00 537.00 77.50" xmlns="http://www.w3.org/2000/svg" xmlns:xlink="http://www.w3.org/1999/xlink">
<g id="graph0" class="graph" transform="scale(1 1) rotate(0) translate(4 73.5)">
<title>embed::frequency::cycles_per</title>
<polygon fill="white" stroke="transparent" points="-4,4 -4,-73.5 533,-73.5 533,4 -4,4"/>
<!-- Node1 -->
<g id="node1" class="node">
<title>Node1</title>
<g id="a_node1"><a xlink:title="Calculate the number of cycles of this frequency within the time duration. This function is meant for...">
<polygon fill="#bfbfbf" stroke="black" points="386,-22.5 386,-41.5 529,-41.5 529,-22.5 386,-22.5"/>
<text text-anchor="middle" x="457.5" y="-29.5" font-family="Helvetica,sans-Serif" font-size="10.00">embed::frequency::cycles_per</text>
</a>
</g>
</g>
<!-- Node2 -->
<g id="node2" class="node">
<title>Node2</title>
<g id="a_node2"><a xlink:href="classembed_1_1frequency.html#a6ba09620a9c2d43071e7f486d8c7fbdf" target="_top" xlink:title="Calculate a duty cycle based on a time duration, the percent and this driving frequency....">
<polygon fill="white" stroke="black" points="214,-39 214,-69 350,-69 350,-39 214,-39"/>
<text text-anchor="start" x="222" y="-57" font-family="Helvetica,sans-Serif" font-size="10.00">embed::frequency::calculate</text>
<text text-anchor="middle" x="282" y="-46" font-family="Helvetica,sans-Serif" font-size="10.00">_duty_cycle</text>
</a>
</g>
</g>
<!-- Node1&#45;&gt;Node2 -->
<g id="edge1" class="edge">
<title>Node1&#45;&gt;Node2</title>
<path fill="none" stroke="midnightblue" d="M375.88,-42.22C367.27,-43.31 358.57,-44.42 350.14,-45.49"/>
<polygon fill="midnightblue" stroke="midnightblue" points="376.45,-45.68 385.93,-40.95 375.57,-38.73 376.45,-45.68"/>
</g>
<!-- Node3 -->
<g id="node3" class="node">
<title>Node3</title>
<g id="a_node3"><a xlink:href="group__counter.html#ga4f1edcd06bf52209d5293e54d0d1beb6" target="_top" xlink:title="Create a timeout object based on embed::counter.">
<polygon fill="white" stroke="black" points="224.5,-0.5 224.5,-19.5 339.5,-19.5 339.5,-0.5 224.5,-0.5"/>
<text text-anchor="middle" x="282" y="-7.5" font-family="Helvetica,sans-Serif" font-size="10.00">embed::create_timeout</text>
</a>
</g>
</g>
<!-- Node1&#45;&gt;Node3 -->
<g id="edge2" class="edge">
<title>Node1&#45;&gt;Node3</title>
<path fill="none" stroke="midnightblue" d="M375.75,-21.76C363.57,-20.22 351.23,-18.65 339.69,-17.19"/>
<polygon fill="midnightblue" stroke="midnightblue" points="375.57,-25.27 385.93,-23.05 376.45,-18.32 375.57,-25.27"/>
</g>
<!-- Node4 -->
<g id="node4" class="node">
<title>Node4</title>
<g id="a_node4"><a xlink:href="group__counter.html#ga53e2d568aa13881c4213fe89a2e1c42e" target="_top" xlink:title="Delay execution for a duration of time using a hardware counter.">
<polygon fill="white" stroke="black" points="105,-0.5 105,-19.5 178,-19.5 178,-0.5 105,-0.5"/>
<text text-anchor="middle" x="141.5" y="-7.5" font-family="Helvetica,sans-Serif" font-size="10.00">embed::delay</text>
</a>
</g>
</g>
<!-- Node3&#45;&gt;Node4 -->
<g id="edge3" class="edge">
<title>Node3&#45;&gt;Node4</title>
<path fill="none" stroke="midnightblue" d="M213.98,-10C201.66,-10 189.26,-10 178.31,-10"/>
<polygon fill="midnightblue" stroke="midnightblue" points="214.27,-13.5 224.27,-10 214.27,-6.5 214.27,-13.5"/>
</g>
<!-- Node4&#45;&gt;Node4 -->
<g id="edge4" class="edge">
<title>Node4&#45;&gt;Node4</title>
<path fill="none" stroke="midnightblue" d="M161.13,-29.4C159.82,-34.31 153.27,-38 141.5,-38 122.66,-38 117.21,-28.57 125.16,-19.76"/>
<polygon fill="midnightblue" stroke="midnightblue" points="164.38,-28.09 157.84,-19.76 157.76,-30.35 164.38,-28.09"/>
</g>
<!-- Node5 -->
<g id="node5" class="node">
<title>Node5</title>
<g id="a_node5"><a xlink:href="group__serial.html#ga56439487351e68f734fdf9b6330da4d2" target="_top" xlink:title="Read bytes from a serial port.">
<polygon fill="white" stroke="black" points="0,-0.5 0,-19.5 69,-19.5 69,-0.5 0,-0.5"/>
<text text-anchor="middle" x="34.5" y="-7.5" font-family="Helvetica,sans-Serif" font-size="10.00">embed::read</text>
</a>
</g>
</g>
<!-- Node4&#45;&gt;Node5 -->
<g id="edge5" class="edge">
<title>Node4&#45;&gt;Node5</title>
<path fill="none" stroke="midnightblue" d="M94.7,-10C86.14,-10 77.35,-10 69.24,-10"/>
<polygon fill="midnightblue" stroke="midnightblue" points="94.95,-13.5 104.95,-10 94.95,-6.5 94.95,-13.5"/>
</g>
</g>
</svg>
