<?xml version="1.0" encoding="UTF-8" standalone="no"?>
<!DOCTYPE svg PUBLIC "-//W3C//DTD SVG 1.1//EN"
 "http://www.w3.org/Graphics/SVG/1.1/DTD/svg11.dtd">
<!-- Generated by graphviz version 3.0.0 (20220413.0242)
 -->
<!-- Title: embed::spy_handler::reset Pages: 1 -->
<svg width="272pt" height="323pt"
 viewBox="0.00 0.00 272.00 323.00" xmlns="http://www.w3.org/2000/svg" xmlns:xlink="http://www.w3.org/1999/xlink">
<g id="graph0" class="graph" transform="scale(1 1) rotate(0) translate(4 319)">
<title>embed::spy_handler::reset</title>
<polygon fill="white" stroke="transparent" points="-4,4 -4,-319 268,-319 268,4 -4,4"/>
<!-- Node1 -->
<g id="node1" class="node">
<title>Node1</title>
<g id="a_node1"><a xlink:title="Reset call recordings and turns off error trigger.">
<polygon fill="#bfbfbf" stroke="black" points="162,-142.5 162,-172.5 264,-172.5 264,-142.5 162,-142.5"/>
<text text-anchor="start" x="170" y="-160.5" font-family="Helvetica,sans-Serif" font-size="10.00">embed::spy_handler</text>
<text text-anchor="middle" x="213" y="-149.5" font-family="Helvetica,sans-Serif" font-size="10.00">::reset</text>
</a>
</g>
</g>
<!-- Node2 -->
<g id="node2" class="node">
<title>Node2</title>
<g id="a_node2"><a xlink:href="structembed_1_1mock_1_1input__pin.html#a3e658cb2b6cb764a01dd2a8f3a53e92b" target="_top" xlink:title="Reset spy information for configure()">
<polygon fill="white" stroke="black" points="13,-284.5 13,-314.5 113,-314.5 113,-284.5 13,-284.5"/>
<text text-anchor="start" x="21" y="-302.5" font-family="Helvetica,sans-Serif" font-size="10.00">embed::mock::input</text>
<text text-anchor="middle" x="63" y="-291.5" font-family="Helvetica,sans-Serif" font-size="10.00">_pin::reset</text>
</a>
</g>
</g>
<!-- Node1&#45;&gt;Node2 -->
<g id="edge1" class="edge">
<title>Node1&#45;&gt;Node2</title>
<path fill="none" stroke="midnightblue" d="M199.87,-181.66C185.51,-208.03 159.3,-249.91 126,-275.5 121.61,-278.88 116.68,-281.83 111.58,-284.4"/>
<polygon fill="midnightblue" stroke="midnightblue" points="203.03,-183.17 204.61,-172.7 196.84,-179.9 203.03,-183.17"/>
</g>
<!-- Node3 -->
<g id="node3" class="node">
<title>Node3</title>
<g id="a_node3"><a xlink:href="structembed_1_1mock_1_1interrupt__pin.html#a758edeb276743e3cc33f10409aa9ba96" target="_top" xlink:title="Reset spy information for configure(), attach_interrupt(), and detach_interrupt()">
<polygon fill="white" stroke="black" points="6,-235.5 6,-265.5 120,-265.5 120,-235.5 6,-235.5"/>
<text text-anchor="start" x="14" y="-253.5" font-family="Helvetica,sans-Serif" font-size="10.00">embed::mock::interrupt</text>
<text text-anchor="middle" x="63" y="-242.5" font-family="Helvetica,sans-Serif" font-size="10.00">_pin::reset</text>
</a>
</g>
</g>
<!-- Node1&#45;&gt;Node3 -->
<g id="edge2" class="edge">
<title>Node1&#45;&gt;Node3</title>
<path fill="none" stroke="midnightblue" d="M188.75,-179.44C172.21,-194.19 148.95,-213.28 126,-226.5 120.3,-229.78 114.06,-232.8 107.81,-235.49"/>
<polygon fill="midnightblue" stroke="midnightblue" points="191.24,-181.91 196.29,-172.6 186.53,-176.72 191.24,-181.91"/>
</g>
<!-- Node4 -->
<g id="node4" class="node">
<title>Node4</title>
<g id="a_node4"><a xlink:href="structembed_1_1mock_1_1output__pin.html#acd5bf6f217722d71b181b94ca6da5cca" target="_top" xlink:title="Reset spy information for configure() and level()">
<polygon fill="white" stroke="black" points="10,-186.5 10,-216.5 116,-216.5 116,-186.5 10,-186.5"/>
<text text-anchor="start" x="18" y="-204.5" font-family="Helvetica,sans-Serif" font-size="10.00">embed::mock::output</text>
<text text-anchor="middle" x="63" y="-193.5" font-family="Helvetica,sans-Serif" font-size="10.00">_pin::reset</text>
</a>
</g>
</g>
<!-- Node1&#45;&gt;Node4 -->
<g id="edge3" class="edge">
<title>Node1&#45;&gt;Node4</title>
<path fill="none" stroke="midnightblue" d="M152.06,-175.32C139.62,-179.02 126.62,-182.88 114.56,-186.47"/>
<polygon fill="midnightblue" stroke="midnightblue" points="153.31,-178.6 161.89,-172.4 151.31,-171.89 153.31,-178.6"/>
</g>
<!-- Node5 -->
<g id="node5" class="node">
<title>Node5</title>
<g id="a_node5"><a xlink:href="structembed_1_1mock_1_1pwm.html#a8114258c054ca72c39bb8dcd0a695b05" target="_top" xlink:title="Reset spy information for both configure() and duty_cycle()">
<polygon fill="white" stroke="black" points="0,-148 0,-167 126,-167 126,-148 0,-148"/>
<text text-anchor="middle" x="63" y="-155" font-family="Helvetica,sans-Serif" font-size="10.00">embed::mock::pwm::reset</text>
</a>
</g>
</g>
<!-- Node1&#45;&gt;Node5 -->
<g id="edge4" class="edge">
<title>Node1&#45;&gt;Node5</title>
<path fill="none" stroke="midnightblue" d="M151.75,-157.5C143.3,-157.5 134.61,-157.5 126.13,-157.5"/>
<polygon fill="midnightblue" stroke="midnightblue" points="151.89,-161 161.89,-157.5 151.89,-154 151.89,-161"/>
</g>
<!-- Node6 -->
<g id="node6" class="node">
<title>Node6</title>
<g id="a_node6"><a xlink:href="structembed_1_1mock_1_1servo.html#a23a049f510c93c52a0f2784c0d10d7fa" target="_top" xlink:title="Reset spy information for position()">
<polygon fill="white" stroke="black" points="11.5,-98.5 11.5,-128.5 114.5,-128.5 114.5,-98.5 11.5,-98.5"/>
<text text-anchor="start" x="19.5" y="-116.5" font-family="Helvetica,sans-Serif" font-size="10.00">embed::mock::servo</text>
<text text-anchor="middle" x="63" y="-105.5" font-family="Helvetica,sans-Serif" font-size="10.00">::reset</text>
</a>
</g>
</g>
<!-- Node1&#45;&gt;Node6 -->
<g id="edge5" class="edge">
<title>Node1&#45;&gt;Node6</title>
<path fill="none" stroke="midnightblue" d="M152.06,-139.68C139.62,-135.98 126.62,-132.12 114.56,-128.53"/>
<polygon fill="midnightblue" stroke="midnightblue" points="151.31,-143.11 161.89,-142.6 153.31,-136.4 151.31,-143.11"/>
</g>
<!-- Node7 -->
<g id="node7" class="node">
<title>Node7</title>
<g id="a_node7"><a xlink:href="structembed_1_1mock_1_1write__only__spi.html#a668ae8bd2effa6d165a9c87ce89ddb3a" target="_top" xlink:title="Reset spy information for both configure() and transfer()">
<polygon fill="white" stroke="black" points="13,-49.5 13,-79.5 113,-79.5 113,-49.5 13,-49.5"/>
<text text-anchor="start" x="21" y="-67.5" font-family="Helvetica,sans-Serif" font-size="10.00">embed::mock::write</text>
<text text-anchor="middle" x="63" y="-56.5" font-family="Helvetica,sans-Serif" font-size="10.00">_only_spi::reset</text>
</a>
</g>
</g>
<!-- Node1&#45;&gt;Node7 -->
<g id="edge6" class="edge">
<title>Node1&#45;&gt;Node7</title>
<path fill="none" stroke="midnightblue" d="M188.33,-135.73C171.76,-121.29 148.63,-102.64 126,-89.5 119.78,-85.89 112.93,-82.56 106.13,-79.59"/>
<polygon fill="midnightblue" stroke="midnightblue" points="186.09,-138.43 195.9,-142.44 190.74,-133.19 186.09,-138.43"/>
</g>
<!-- Node8 -->
<g id="node8" class="node">
<title>Node8</title>
<g id="a_node8"><a xlink:href="structembed_1_1mock_1_1timer.html#a6f12fd38291d5ac3f3370aaef857d8e2" target="_top" xlink:title="Reset spy information for schedule(), clear(), and is_running()">
<polygon fill="white" stroke="black" points="12.5,-0.5 12.5,-30.5 113.5,-30.5 113.5,-0.5 12.5,-0.5"/>
<text text-anchor="start" x="20.5" y="-18.5" font-family="Helvetica,sans-Serif" font-size="10.00">embed::mock::timer</text>
<text text-anchor="middle" x="63" y="-7.5" font-family="Helvetica,sans-Serif" font-size="10.00">::reset</text>
</a>
</g>
</g>
<!-- Node1&#45;&gt;Node8 -->
<g id="edge7" class="edge">
<title>Node1&#45;&gt;Node8</title>
<path fill="none" stroke="midnightblue" d="M199.75,-133.64C185.29,-107.57 158.99,-66.11 126,-40.5 121.14,-36.73 115.64,-33.45 109.96,-30.61"/>
<polygon fill="midnightblue" stroke="midnightblue" points="196.7,-135.35 204.53,-142.49 202.86,-132.03 196.7,-135.35"/>
</g>
</g>
</svg>
