<?xml version="1.0" encoding="UTF-8" standalone="no"?>
<!DOCTYPE svg PUBLIC "-//W3C//DTD SVG 1.1//EN"
 "http://www.w3.org/Graphics/SVG/1.1/DTD/svg11.dtd">
<!-- Generated by graphviz version 3.0.0 (20220413.0242)
 -->
<!-- Title: embed::counter::uptime Pages: 1 -->
<svg width="494pt" height="145pt"
 viewBox="0.00 0.00 494.00 144.50" xmlns="http://www.w3.org/2000/svg" xmlns:xlink="http://www.w3.org/1999/xlink">
<g id="graph0" class="graph" transform="scale(1 1) rotate(0) translate(4 140.5)">
<title>embed::counter::uptime</title>
<polygon fill="white" stroke="transparent" points="-4,4 -4,-140.5 490,-140.5 490,4 -4,4"/>
<!-- Node1 -->
<g id="node1" class="node">
<title>Node1</title>
<g id="a_node1"><a xlink:title="Get the uptime of the counter since it has started.">
<polygon fill="#bfbfbf" stroke="black" points="370,-55 370,-74 486,-74 486,-55 370,-55"/>
<text text-anchor="middle" x="428" y="-62" font-family="Helvetica,sans-Serif" font-size="10.00">embed::counter::uptime</text>
</a>
</g>
</g>
<!-- Node2 -->
<g id="node2" class="node">
<title>Node2</title>
<g id="a_node2"><a xlink:href="group__counter.html#ga4f1edcd06bf52209d5293e54d0d1beb6" target="_top" xlink:title="Create a timeout object based on embed::counter.">
<polygon fill="white" stroke="black" points="216.5,-99 216.5,-118 331.5,-118 331.5,-99 216.5,-99"/>
<text text-anchor="middle" x="274" y="-106" font-family="Helvetica,sans-Serif" font-size="10.00">embed::create_timeout</text>
</a>
</g>
</g>
<!-- Node1&#45;&gt;Node2 -->
<g id="edge1" class="edge">
<title>Node1&#45;&gt;Node2</title>
<path fill="none" stroke="midnightblue" d="M384.37,-76.84C360.16,-83.85 330.31,-92.49 307.92,-98.97"/>
<polygon fill="midnightblue" stroke="midnightblue" points="385.39,-80.19 394.02,-74.05 383.44,-73.47 385.39,-80.19"/>
</g>
<!-- Node5 -->
<g id="node5" class="node">
<title>Node5</title>
<g id="a_node5"><a xlink:href="classembed_1_1counter__timeout.html#a0e0ca951312cdae3cd016e8984eff74b" target="_top" xlink:title="Call this object to check if it has timed out.">
<polygon fill="white" stroke="black" points="214,-49.5 214,-79.5 334,-79.5 334,-49.5 214,-49.5"/>
<text text-anchor="start" x="222" y="-67.5" font-family="Helvetica,sans-Serif" font-size="10.00">embed::counter_timeout</text>
<text text-anchor="middle" x="274" y="-56.5" font-family="Helvetica,sans-Serif" font-size="10.00">::operator()</text>
</a>
</g>
</g>
<!-- Node1&#45;&gt;Node5 -->
<g id="edge5" class="edge">
<title>Node1&#45;&gt;Node5</title>
<path fill="none" stroke="midnightblue" d="M359.96,-64.5C351.36,-64.5 342.59,-64.5 334.13,-64.5"/>
<polygon fill="midnightblue" stroke="midnightblue" points="359.97,-68 369.97,-64.5 359.97,-61 359.97,-68"/>
</g>
<!-- Node6 -->
<g id="node6" class="node">
<title>Node6</title>
<g id="a_node6"><a xlink:href="classembed_1_1uptime__counter.html#a2681752c4655bc02bd0f4446d120623e" target="_top" xlink:title="Calculates the number of nanoseconds since the counter has started.">
<polygon fill="white" stroke="black" points="215.5,-0.5 215.5,-30.5 332.5,-30.5 332.5,-0.5 215.5,-0.5"/>
<text text-anchor="start" x="223.5" y="-18.5" font-family="Helvetica,sans-Serif" font-size="10.00">embed::uptime_counter</text>
<text text-anchor="middle" x="274" y="-7.5" font-family="Helvetica,sans-Serif" font-size="10.00">::uptime</text>
</a>
</g>
</g>
<!-- Node1&#45;&gt;Node6 -->
<g id="edge6" class="edge">
<title>Node1&#45;&gt;Node6</title>
<path fill="none" stroke="midnightblue" d="M387.54,-51.78C367.39,-45.28 342.73,-37.34 321.65,-30.54"/>
<polygon fill="midnightblue" stroke="midnightblue" points="386.74,-55.2 397.33,-54.94 388.89,-48.54 386.74,-55.2"/>
</g>
<!-- Node3 -->
<g id="node3" class="node">
<title>Node3</title>
<g id="a_node3"><a xlink:href="group__counter.html#ga53e2d568aa13881c4213fe89a2e1c42e" target="_top" xlink:title="Delay execution for a duration of time using a hardware counter.">
<polygon fill="white" stroke="black" points="105,-99 105,-118 178,-118 178,-99 105,-99"/>
<text text-anchor="middle" x="141.5" y="-106" font-family="Helvetica,sans-Serif" font-size="10.00">embed::delay</text>
</a>
</g>
</g>
<!-- Node2&#45;&gt;Node3 -->
<g id="edge2" class="edge">
<title>Node2&#45;&gt;Node3</title>
<path fill="none" stroke="midnightblue" d="M206.1,-108.5C196.45,-108.5 186.84,-108.5 178.13,-108.5"/>
<polygon fill="midnightblue" stroke="midnightblue" points="206.14,-112 216.14,-108.5 206.14,-105 206.14,-112"/>
</g>
<!-- Node3&#45;&gt;Node3 -->
<g id="edge3" class="edge">
<title>Node3&#45;&gt;Node3</title>
<path fill="none" stroke="midnightblue" d="M161.13,-127.9C159.82,-132.81 153.27,-136.5 141.5,-136.5 122.66,-136.5 117.21,-127.07 125.16,-118.26"/>
<polygon fill="midnightblue" stroke="midnightblue" points="164.38,-126.59 157.84,-118.26 157.76,-128.85 164.38,-126.59"/>
</g>
<!-- Node4 -->
<g id="node4" class="node">
<title>Node4</title>
<g id="a_node4"><a xlink:href="group__serial.html#ga56439487351e68f734fdf9b6330da4d2" target="_top" xlink:title="Read bytes from a serial port.">
<polygon fill="white" stroke="black" points="0,-99 0,-118 69,-118 69,-99 0,-99"/>
<text text-anchor="middle" x="34.5" y="-106" font-family="Helvetica,sans-Serif" font-size="10.00">embed::read</text>
</a>
</g>
</g>
<!-- Node3&#45;&gt;Node4 -->
<g id="edge4" class="edge">
<title>Node3&#45;&gt;Node4</title>
<path fill="none" stroke="midnightblue" d="M94.7,-108.5C86.14,-108.5 77.35,-108.5 69.24,-108.5"/>
<polygon fill="midnightblue" stroke="midnightblue" points="94.95,-112 104.95,-108.5 94.95,-105 94.95,-112"/>
</g>
</g>
</svg>
