<?xml version="1.0" encoding="UTF-8" standalone="no"?>
<!DOCTYPE svg PUBLIC "-//W3C//DTD SVG 1.1//EN"
 "http://www.w3.org/Graphics/SVG/1.1/DTD/svg11.dtd">
<!-- Generated by graphviz version 3.0.0 (20220413.0242)
 -->
<!-- Title: embed::frequency::cycles_per_second Pages: 1 -->
<svg width="701pt" height="248pt"
 viewBox="0.00 0.00 701.00 247.50" xmlns="http://www.w3.org/2000/svg" xmlns:xlink="http://www.w3.org/1999/xlink">
<g id="graph0" class="graph" transform="scale(1 1) rotate(0) translate(4 243.5)">
<title>embed::frequency::cycles_per_second</title>
<polygon fill="white" stroke="transparent" points="-4,4 -4,-243.5 697,-243.5 697,4 -4,4"/>
<!-- Node1 -->
<g id="node1" class="node">
<title>Node1</title>
<g id="a_node1"><a xlink:title="Get the frequency as an integer.">
<polygon fill="#bfbfbf" stroke="black" points="568,-77 568,-107 693,-107 693,-77 568,-77"/>
<text text-anchor="start" x="576" y="-95" font-family="Helvetica,sans-Serif" font-size="10.00">embed::frequency::cycles</text>
<text text-anchor="middle" x="630.5" y="-84" font-family="Helvetica,sans-Serif" font-size="10.00">_per_second</text>
</a>
</g>
</g>
<!-- Node2 -->
<g id="node2" class="node">
<title>Node2</title>
<g id="a_node2"><a xlink:href="classembed_1_1frequency.html#aa67b1e2379926c43c248b98207ff95a0" target="_top" xlink:title="Calculate the number of cycles of this frequency within the time duration. This function is meant for...">
<polygon fill="white" stroke="black" points="387.5,-170.5 387.5,-189.5 530.5,-189.5 530.5,-170.5 387.5,-170.5"/>
<text text-anchor="middle" x="459" y="-177.5" font-family="Helvetica,sans-Serif" font-size="10.00">embed::frequency::cycles_per</text>
</a>
</g>
</g>
<!-- Node1&#45;&gt;Node2 -->
<g id="edge1" class="edge">
<title>Node1&#45;&gt;Node2</title>
<path fill="none" stroke="midnightblue" d="M601.25,-112.84C582.34,-126.13 556.5,-143.04 532,-155 519.63,-161.03 505.43,-166.29 492.93,-170.41"/>
<polygon fill="midnightblue" stroke="midnightblue" points="603.31,-115.67 609.43,-107.02 599.25,-109.97 603.31,-115.67"/>
</g>
<!-- Node7 -->
<g id="node7" class="node">
<title>Node7</title>
<g id="a_node7"><a xlink:href="classembed_1_1frequency.html#a7a0a49000c46f52507a958882e31d77c" target="_top" xlink:title="Calculate the frequency divide required to generate the output frequency provided.">
<polygon fill="white" stroke="black" points="398,-126.5 398,-145.5 520,-145.5 520,-126.5 398,-126.5"/>
<text text-anchor="middle" x="459" y="-133.5" font-family="Helvetica,sans-Serif" font-size="10.00">embed::frequency::divide</text>
</a>
</g>
</g>
<!-- Node1&#45;&gt;Node7 -->
<g id="edge7" class="edge">
<title>Node1&#45;&gt;Node7</title>
<path fill="none" stroke="midnightblue" d="M561.89,-109.55C539.62,-115.33 515.7,-121.54 496.64,-126.49"/>
<polygon fill="midnightblue" stroke="midnightblue" points="562.84,-112.92 571.64,-107.02 561.08,-106.14 562.84,-112.92"/>
</g>
<!-- Node9 -->
<g id="node9" class="node">
<title>Node9</title>
<g id="a_node9"><a xlink:href="classembed_1_1frequency.html#a383cdc3d72a91dedffcd92d3b0e73d8a" target="_top" xlink:title="Calculate time duration based on the frequency and a number of cycles.">
<polygon fill="white" stroke="black" points="393.5,-77 393.5,-107 524.5,-107 524.5,-77 393.5,-77"/>
<text text-anchor="start" x="401.5" y="-95" font-family="Helvetica,sans-Serif" font-size="10.00">embed::frequency::duration</text>
<text text-anchor="middle" x="459" y="-84" font-family="Helvetica,sans-Serif" font-size="10.00">_from_cycles</text>
</a>
</g>
</g>
<!-- Node1&#45;&gt;Node9 -->
<g id="edge9" class="edge">
<title>Node1&#45;&gt;Node9</title>
<path fill="none" stroke="midnightblue" d="M557.51,-92C546.64,-92 535.48,-92 524.76,-92"/>
<polygon fill="midnightblue" stroke="midnightblue" points="557.83,-95.5 567.83,-92 557.83,-88.5 557.83,-95.5"/>
</g>
<!-- Node11 -->
<g id="node11" class="node">
<title>Node11</title>
<g id="a_node11"><a xlink:href="classembed_1_1frequency.html#a8aadd42f3e1a726eed76b1aa564d5acb" target="_top" xlink:title="Scale up a frequency by an integer factor.">
<polygon fill="white" stroke="black" points="399,-38.5 399,-57.5 519,-57.5 519,-38.5 399,-38.5"/>
<text text-anchor="middle" x="459" y="-45.5" font-family="Helvetica,sans-Serif" font-size="10.00">embed::frequency::scale</text>
</a>
</g>
</g>
<!-- Node1&#45;&gt;Node11 -->
<g id="edge11" class="edge">
<title>Node1&#45;&gt;Node11</title>
<path fill="none" stroke="midnightblue" d="M561.89,-74.45C539.62,-68.67 515.7,-62.46 496.64,-57.51"/>
<polygon fill="midnightblue" stroke="midnightblue" points="561.08,-77.86 571.64,-76.98 562.84,-71.08 561.08,-77.86"/>
</g>
<!-- Node12 -->
<g id="node12" class="node">
<title>Node12</title>
<g id="a_node12"><a xlink:href="classembed_1_1frequency.html#a7c8cfde28a6f6869694c509934c764ef" target="_top" xlink:title="Calculates and returns the wavelength of the frequency in seconds.">
<polygon fill="white" stroke="black" points="386,-0.5 386,-19.5 532,-19.5 532,-0.5 386,-0.5"/>
<text text-anchor="middle" x="459" y="-7.5" font-family="Helvetica,sans-Serif" font-size="10.00">embed::frequency::wavelength</text>
</a>
</g>
</g>
<!-- Node1&#45;&gt;Node12 -->
<g id="edge12" class="edge">
<title>Node1&#45;&gt;Node12</title>
<path fill="none" stroke="midnightblue" d="M601.9,-70.79C583.08,-57.2 557.1,-40.08 532,-29 523.49,-25.24 514.06,-22.09 504.92,-19.51"/>
<polygon fill="midnightblue" stroke="midnightblue" points="599.89,-73.66 610.02,-76.76 604.03,-68.01 599.89,-73.66"/>
</g>
<!-- Node3 -->
<g id="node3" class="node">
<title>Node3</title>
<g id="a_node3"><a xlink:href="classembed_1_1frequency.html#a6ba09620a9c2d43071e7f486d8c7fbdf" target="_top" xlink:title="Calculate a duty cycle based on a time duration, the percent and this driving frequency....">
<polygon fill="white" stroke="black" points="214,-209 214,-239 350,-239 350,-209 214,-209"/>
<text text-anchor="start" x="222" y="-227" font-family="Helvetica,sans-Serif" font-size="10.00">embed::frequency::calculate</text>
<text text-anchor="middle" x="282" y="-216" font-family="Helvetica,sans-Serif" font-size="10.00">_duty_cycle</text>
</a>
</g>
</g>
<!-- Node2&#45;&gt;Node3 -->
<g id="edge2" class="edge">
<title>Node2&#45;&gt;Node3</title>
<path fill="none" stroke="midnightblue" d="M410.17,-192.03C389.41,-197.25 364.87,-203.41 342.92,-208.93"/>
<polygon fill="midnightblue" stroke="midnightblue" points="411.18,-195.38 420.03,-189.55 409.48,-188.59 411.18,-195.38"/>
</g>
<!-- Node4 -->
<g id="node4" class="node">
<title>Node4</title>
<g id="a_node4"><a xlink:href="group__counter.html#ga4f1edcd06bf52209d5293e54d0d1beb6" target="_top" xlink:title="Create a timeout object based on embed::counter.">
<polygon fill="white" stroke="black" points="224.5,-170.5 224.5,-189.5 339.5,-189.5 339.5,-170.5 224.5,-170.5"/>
<text text-anchor="middle" x="282" y="-177.5" font-family="Helvetica,sans-Serif" font-size="10.00">embed::create_timeout</text>
</a>
</g>
</g>
<!-- Node2&#45;&gt;Node4 -->
<g id="edge3" class="edge">
<title>Node2&#45;&gt;Node4</title>
<path fill="none" stroke="midnightblue" d="M377.22,-180C364.54,-180 351.67,-180 339.69,-180"/>
<polygon fill="midnightblue" stroke="midnightblue" points="377.33,-183.5 387.33,-180 377.33,-176.5 377.33,-183.5"/>
</g>
<!-- Node5 -->
<g id="node5" class="node">
<title>Node5</title>
<g id="a_node5"><a xlink:href="group__counter.html#ga53e2d568aa13881c4213fe89a2e1c42e" target="_top" xlink:title="Delay execution for a duration of time using a hardware counter.">
<polygon fill="white" stroke="black" points="105,-170.5 105,-189.5 178,-189.5 178,-170.5 105,-170.5"/>
<text text-anchor="middle" x="141.5" y="-177.5" font-family="Helvetica,sans-Serif" font-size="10.00">embed::delay</text>
</a>
</g>
</g>
<!-- Node4&#45;&gt;Node5 -->
<g id="edge4" class="edge">
<title>Node4&#45;&gt;Node5</title>
<path fill="none" stroke="midnightblue" d="M213.98,-180C201.66,-180 189.26,-180 178.31,-180"/>
<polygon fill="midnightblue" stroke="midnightblue" points="214.27,-183.5 224.27,-180 214.27,-176.5 214.27,-183.5"/>
</g>
<!-- Node5&#45;&gt;Node5 -->
<g id="edge5" class="edge">
<title>Node5&#45;&gt;Node5</title>
<path fill="none" stroke="midnightblue" d="M161.13,-199.4C159.82,-204.31 153.27,-208 141.5,-208 122.66,-208 117.21,-198.57 125.16,-189.76"/>
<polygon fill="midnightblue" stroke="midnightblue" points="164.38,-198.09 157.84,-189.76 157.76,-200.35 164.38,-198.09"/>
</g>
<!-- Node6 -->
<g id="node6" class="node">
<title>Node6</title>
<g id="a_node6"><a xlink:href="group__serial.html#ga56439487351e68f734fdf9b6330da4d2" target="_top" xlink:title="Read bytes from a serial port.">
<polygon fill="white" stroke="black" points="0,-170.5 0,-189.5 69,-189.5 69,-170.5 0,-170.5"/>
<text text-anchor="middle" x="34.5" y="-177.5" font-family="Helvetica,sans-Serif" font-size="10.00">embed::read</text>
</a>
</g>
</g>
<!-- Node5&#45;&gt;Node6 -->
<g id="edge6" class="edge">
<title>Node5&#45;&gt;Node6</title>
<path fill="none" stroke="midnightblue" d="M94.7,-180C86.14,-180 77.35,-180 69.24,-180"/>
<polygon fill="midnightblue" stroke="midnightblue" points="94.95,-183.5 104.95,-180 94.95,-176.5 94.95,-183.5"/>
</g>
<!-- Node8 -->
<g id="node8" class="node">
<title>Node8</title>
<g id="a_node8"><a xlink:href="classembed_1_1frequency.html#a2063d8976c488b5dd47ad13791b47aa0" target="_top" xlink:title="Calculate a duty cycle based on a target, the percent and this driving frequency. Typically used for ...">
<polygon fill="white" stroke="black" points="214,-121 214,-151 350,-151 350,-121 214,-121"/>
<text text-anchor="start" x="222" y="-139" font-family="Helvetica,sans-Serif" font-size="10.00">embed::frequency::calculate</text>
<text text-anchor="middle" x="282" y="-128" font-family="Helvetica,sans-Serif" font-size="10.00">_duty_cycle</text>
</a>
</g>
</g>
<!-- Node7&#45;&gt;Node8 -->
<g id="edge8" class="edge">
<title>Node7&#45;&gt;Node8</title>
<path fill="none" stroke="midnightblue" d="M387.56,-136C375.25,-136 362.46,-136 350.24,-136"/>
<polygon fill="midnightblue" stroke="midnightblue" points="387.77,-139.5 397.77,-136 387.77,-132.5 387.77,-139.5"/>
</g>
<!-- Node10 -->
<g id="node10" class="node">
<title>Node10</title>
<g id="a_node10"><a xlink:href="classembed_1_1uptime__counter.html#a2681752c4655bc02bd0f4446d120623e" target="_top" xlink:title="Calculates the number of nanoseconds since the counter has started.">
<polygon fill="white" stroke="black" points="223.5,-72 223.5,-102 340.5,-102 340.5,-72 223.5,-72"/>
<text text-anchor="start" x="231.5" y="-90" font-family="Helvetica,sans-Serif" font-size="10.00">embed::uptime_counter</text>
<text text-anchor="middle" x="282" y="-79" font-family="Helvetica,sans-Serif" font-size="10.00">::uptime</text>
</a>
</g>
</g>
<!-- Node9&#45;&gt;Node10 -->
<g id="edge10" class="edge">
<title>Node9&#45;&gt;Node10</title>
<path fill="none" stroke="midnightblue" d="M383.11,-89.86C368.94,-89.46 354.31,-89.04 340.76,-88.65"/>
<polygon fill="midnightblue" stroke="midnightblue" points="383.24,-93.37 393.33,-90.15 383.44,-86.37 383.24,-93.37"/>
</g>
</g>
</svg>
