<?xml version="1.0" encoding="UTF-8" standalone="no"?>
<!DOCTYPE svg PUBLIC "-//W3C//DTD SVG 1.1//EN"
 "http://www.w3.org/Graphics/SVG/1.1/DTD/svg11.dtd">
<!-- Generated by graphviz version 3.0.0 (20220413.0242)
 -->
<!-- Title: /github/workspace/include/libembeddedhal/experimental Pages: 1 -->
<svg width="908pt" height="111pt"
 viewBox="0.00 0.00 908.00 111.00" xmlns="http://www.w3.org/2000/svg" xmlns:xlink="http://www.w3.org/1999/xlink">
<g id="graph0" class="graph" transform="scale(1 1) rotate(0) translate(4 107)">
<title>/github/workspace/include/libembeddedhal/experimental</title>
<polygon fill="white" stroke="transparent" points="-4,4 -4,-107 904,-107 904,4 -4,4"/>
<g id="clust1" class="cluster">
<title>clusterdir_d44e2fde02e0e8a6a790ae54b19f7024</title>
<g id="a_clust1"><a xlink:href="dir_d44e2fde02e0e8a6a790ae54b19f7024.html" target="_top" xlink:title="libembeddedhal">
<polygon fill="#edf0f7" stroke="#7f7f7f" stroke-dasharray="5,2" points="8,-8 8,-95 892,-95 892,-8 8,-8"/>
<text text-anchor="middle" x="450" y="-83" font-family="Helvetica,sans-Serif" font-size="10.00">libembeddedhal</text>
</a>
</g>
</g>
<g id="clust2" class="cluster">
<title>clusterdir_179ad4e804ac1f3a911f2dd640ab6d52</title>
<g id="a_clust2"><a xlink:href="dir_179ad4e804ac1f3a911f2dd640ab6d52.html" target="_top">
<polygon fill="#edf0f7" stroke="#404040" stroke-width="2" points="16,-16 16,-68 884,-68 884,-16 16,-16"/>
</a>
</g>
</g>
<!-- dir_179ad4e804ac1f3a911f2dd640ab6d52 -->
<g id="node1" class="node">
<title>dir_179ad4e804ac1f3a911f2dd640ab6d52</title>
<text text-anchor="middle" x="840" y="-39.5" font-family="Helvetica,sans-Serif" font-size="10.00">experimental</text>
</g>
<!-- dir_88d5879e8f1abbb8231f001344050dcf -->
<g id="node2" class="node">
<title>dir_88d5879e8f1abbb8231f001344050dcf</title>
<g id="a_node2"><a xlink:href="dir_88d5879e8f1abbb8231f001344050dcf.html" target="_top" xlink:title="accelerometer">
<polygon fill="#a2b4d6" stroke="#404040" points="786,-60 708,-60 708,-24 786,-24 786,-60"/>
<text text-anchor="middle" x="747" y="-39.5" font-family="Helvetica,sans-Serif" font-size="10.00">accelerometer</text>
</a>
</g>
</g>
<!-- dir_830066cfe812dd4d5f41b2b6d710c41f -->
<g id="node3" class="node">
<title>dir_830066cfe812dd4d5f41b2b6d710c41f</title>
<g id="a_node3"><a xlink:href="dir_830066cfe812dd4d5f41b2b6d710c41f.html" target="_top" xlink:title="compass">
<polygon fill="#a2b4d6" stroke="#404040" points="690,-60 634,-60 634,-24 690,-24 690,-60"/>
<text text-anchor="middle" x="662" y="-39.5" font-family="Helvetica,sans-Serif" font-size="10.00">compass</text>
</a>
</g>
</g>
<!-- dir_338a063dbbde162b3d0138c184858ac0 -->
<g id="node4" class="node">
<title>dir_338a063dbbde162b3d0138c184858ac0</title>
<g id="a_node4"><a xlink:href="dir_338a063dbbde162b3d0138c184858ac0.html" target="_top" xlink:title="gyroscope">
<polygon fill="#a2b4d6" stroke="#404040" points="615.5,-60 554.5,-60 554.5,-24 615.5,-24 615.5,-60"/>
<text text-anchor="middle" x="585" y="-39.5" font-family="Helvetica,sans-Serif" font-size="10.00">gyroscope</text>
</a>
</g>
</g>
<!-- dir_2ff08be369c27415d03a23abfafa7421 -->
<g id="node5" class="node">
<title>dir_2ff08be369c27415d03a23abfafa7421</title>
<g id="a_node5"><a xlink:href="dir_2ff08be369c27415d03a23abfafa7421.html" target="_top" xlink:title="linear_encoder">
<polygon fill="#a2b4d6" stroke="#404040" points="536,-60 456,-60 456,-24 536,-24 536,-60"/>
<text text-anchor="middle" x="496" y="-39.5" font-family="Helvetica,sans-Serif" font-size="10.00">linear_encoder</text>
</a>
</g>
</g>
<!-- dir_c3a74a38a9d85b6ea2ae44105dbb50c2 -->
<g id="node6" class="node">
<title>dir_c3a74a38a9d85b6ea2ae44105dbb50c2</title>
<g id="a_node6"><a xlink:href="dir_c3a74a38a9d85b6ea2ae44105dbb50c2.html" target="_top" xlink:title="pixel_display">
<polygon fill="#a2b4d6" stroke="#404040" points="437.5,-60 366.5,-60 366.5,-24 437.5,-24 437.5,-60"/>
<text text-anchor="middle" x="402" y="-39.5" font-family="Helvetica,sans-Serif" font-size="10.00">pixel_display</text>
</a>
</g>
</g>
<!-- dir_983c85e19d4a546b89120be703f294c0 -->
<g id="node7" class="node">
<title>dir_983c85e19d4a546b89120be703f294c0</title>
<g id="a_node7"><a xlink:href="dir_983c85e19d4a546b89120be703f294c0.html" target="_top" xlink:title="rotary_encoder">
<polygon fill="#a2b4d6" stroke="#404040" points="348,-60 268,-60 268,-24 348,-24 348,-60"/>
<text text-anchor="middle" x="308" y="-39.5" font-family="Helvetica,sans-Serif" font-size="10.00">rotary_encoder</text>
</a>
</g>
</g>
<!-- dir_c4f40607c6d0015a11dd19a1f0656847 -->
<g id="node8" class="node">
<title>dir_c4f40607c6d0015a11dd19a1f0656847</title>
<g id="a_node8"><a xlink:href="dir_c4f40607c6d0015a11dd19a1f0656847.html" target="_top" xlink:title="rtc">
<polygon fill="#a2b4d6" stroke="#404040" points="250,-60 196,-60 196,-24 250,-24 250,-60"/>
<text text-anchor="middle" x="223" y="-39.5" font-family="Helvetica,sans-Serif" font-size="10.00">rtc</text>
</a>
</g>
</g>
<!-- dir_a9c0ea63032499151d067cd4161334ab -->
<g id="node9" class="node">
<title>dir_a9c0ea63032499151d067cd4161334ab</title>
<g id="a_node9"><a xlink:href="dir_a9c0ea63032499151d067cd4161334ab.html" target="_top" xlink:title="temperature">
<polygon fill="#a2b4d6" stroke="#404040" points="178,-60 110,-60 110,-24 178,-24 178,-60"/>
<text text-anchor="middle" x="144" y="-39.5" font-family="Helvetica,sans-Serif" font-size="10.00">temperature</text>
</a>
</g>
</g>
<!-- dir_952f9621f9f373b40329c0aec406c3cf -->
<g id="node10" class="node">
<title>dir_952f9621f9f373b40329c0aec406c3cf</title>
<g id="a_node10"><a xlink:href="dir_952f9621f9f373b40329c0aec406c3cf.html" target="_top" xlink:title="text_display">
<polygon fill="#a2b4d6" stroke="#404040" points="92,-60 24,-60 24,-24 92,-24 92,-60"/>
<text text-anchor="middle" x="58" y="-39.5" font-family="Helvetica,sans-Serif" font-size="10.00">text_display</text>
</a>
</g>
</g>
</g>
</svg>
