<?xml version="1.0" encoding="UTF-8" standalone="no"?>
<!DOCTYPE svg PUBLIC "-//W3C//DTD SVG 1.1//EN"
 "http://www.w3.org/Graphics/SVG/1.1/DTD/svg11.dtd">
<!-- Generated by graphviz version 3.0.0 (20220413.0242)
 -->
<!-- Title: /github/workspace/include/libembeddedhal/output_pin Pages: 1 -->
<svg width="108pt" height="167pt"
 viewBox="0.00 0.00 108.00 167.00" xmlns="http://www.w3.org/2000/svg" xmlns:xlink="http://www.w3.org/1999/xlink">
<g id="graph0" class="graph" transform="scale(1 1) rotate(0) translate(4 163)">
<title>/github/workspace/include/libembeddedhal/output_pin</title>
<polygon fill="white" stroke="transparent" points="-4,4 -4,-163 104,-163 104,4 -4,4"/>
<g id="clust1" class="cluster">
<title>clusterdir_d44e2fde02e0e8a6a790ae54b19f7024</title>
<g id="a_clust1"><a xlink:href="dir_d44e2fde02e0e8a6a790ae54b19f7024.html" target="_top" xlink:title="libembeddedhal">
<polygon fill="#edf0f7" stroke="#7f7f7f" stroke-dasharray="5,2" points="8,-8 8,-151 92,-151 92,-8 8,-8"/>
<text text-anchor="middle" x="50" y="-139" font-family="Helvetica,sans-Serif" font-size="10.00">libembeddedhal</text>
</a>
</g>
</g>
<!-- dir_664b7c012d50b2ad7561a69b0cbbb538 -->
<g id="node1" class="node">
<title>dir_664b7c012d50b2ad7561a69b0cbbb538</title>
<g id="a_node1"><a xlink:href="dir_664b7c012d50b2ad7561a69b0cbbb538.html" target="_top" xlink:title="input_pin">
<polygon fill="#a2b4d6" stroke="#404040" points="78,-52 22,-52 22,-16 78,-16 78,-52"/>
<text text-anchor="middle" x="50" y="-31.5" font-family="Helvetica,sans-Serif" font-size="10.00">input_pin</text>
</a>
</g>
</g>
<!-- dir_4270506bb9341b5874383f939f643f81 -->
<g id="node2" class="node">
<title>dir_4270506bb9341b5874383f939f643f81</title>
<g id="a_node2"><a xlink:href="dir_4270506bb9341b5874383f939f643f81.html" target="_top" xlink:title="output_pin">
<polygon fill="#edf0f7" stroke="#404040" stroke-width="2" points="81,-124 19,-124 19,-88 81,-88 81,-124"/>
<text text-anchor="middle" x="50" y="-103.5" font-family="Helvetica,sans-Serif" font-size="10.00">output_pin</text>
</a>
</g>
</g>
<!-- dir_4270506bb9341b5874383f939f643f81&#45;&gt;dir_664b7c012d50b2ad7561a69b0cbbb538 -->
<g id="edge1" class="edge">
<title>dir_4270506bb9341b5874383f939f643f81&#45;&gt;dir_664b7c012d50b2ad7561a69b0cbbb538</title>
<path fill="none" stroke="black" d="M50,-87.7C50,-79.98 50,-70.71 50,-62.11"/>
<polygon fill="black" stroke="black" points="53.5,-62.1 50,-52.1 46.5,-62.1 53.5,-62.1"/>
<g id="a_edge1&#45;headlabel"><a xlink:href="dir_000016_000011.html" target="_top" xlink:title="1">
<text text-anchor="middle" x="56.34" y="-63.2" font-family="Helvetica,sans-Serif" font-size="10.00">1</text>
</a>
</g>
</g>
</g>
</svg>
