<?xml version="1.0" encoding="UTF-8" standalone="no"?>
<!DOCTYPE svg PUBLIC "-//W3C//DTD SVG 1.1//EN"
 "http://www.w3.org/Graphics/SVG/1.1/DTD/svg11.dtd">
<!-- Generated by graphviz version 3.0.0 (20220413.0242)
 -->
<!-- Title: embed::create_timeout Pages: 1 -->
<svg width="337pt" height="46pt"
 viewBox="0.00 0.00 337.00 46.00" xmlns="http://www.w3.org/2000/svg" xmlns:xlink="http://www.w3.org/1999/xlink">
<g id="graph0" class="graph" transform="scale(1 1) rotate(0) translate(4 42)">
<title>embed::create_timeout</title>
<polygon fill="white" stroke="transparent" points="-4,4 -4,-42 333,-42 333,4 -4,4"/>
<!-- Node1 -->
<g id="node1" class="node">
<title>Node1</title>
<g id="a_node1"><a xlink:title="Create a timeout object based on embed::counter.">
<polygon fill="#bfbfbf" stroke="black" points="214,-0.5 214,-19.5 329,-19.5 329,-0.5 214,-0.5"/>
<text text-anchor="middle" x="271.5" y="-7.5" font-family="Helvetica,sans-Serif" font-size="10.00">embed::create_timeout</text>
</a>
</g>
</g>
<!-- Node2 -->
<g id="node2" class="node">
<title>Node2</title>
<g id="a_node2"><a xlink:href="group__counter.html#ga53e2d568aa13881c4213fe89a2e1c42e" target="_top" xlink:title="Delay execution for a duration of time using a hardware counter.">
<polygon fill="white" stroke="black" points="105,-0.5 105,-19.5 178,-19.5 178,-0.5 105,-0.5"/>
<text text-anchor="middle" x="141.5" y="-7.5" font-family="Helvetica,sans-Serif" font-size="10.00">embed::delay</text>
</a>
</g>
</g>
<!-- Node1&#45;&gt;Node2 -->
<g id="edge1" class="edge">
<title>Node1&#45;&gt;Node2</title>
<path fill="none" stroke="midnightblue" d="M203.94,-10C195.04,-10 186.2,-10 178.12,-10"/>
<polygon fill="midnightblue" stroke="midnightblue" points="203.98,-13.5 213.98,-10 203.98,-6.5 203.98,-13.5"/>
</g>
<!-- Node2&#45;&gt;Node2 -->
<g id="edge2" class="edge">
<title>Node2&#45;&gt;Node2</title>
<path fill="none" stroke="midnightblue" d="M161.13,-29.4C159.82,-34.31 153.27,-38 141.5,-38 122.66,-38 117.21,-28.57 125.16,-19.76"/>
<polygon fill="midnightblue" stroke="midnightblue" points="164.38,-28.09 157.84,-19.76 157.76,-30.35 164.38,-28.09"/>
</g>
<!-- Node3 -->
<g id="node3" class="node">
<title>Node3</title>
<g id="a_node3"><a xlink:href="group__serial.html#ga56439487351e68f734fdf9b6330da4d2" target="_top" xlink:title="Read bytes from a serial port.">
<polygon fill="white" stroke="black" points="0,-0.5 0,-19.5 69,-19.5 69,-0.5 0,-0.5"/>
<text text-anchor="middle" x="34.5" y="-7.5" font-family="Helvetica,sans-Serif" font-size="10.00">embed::read</text>
</a>
</g>
</g>
<!-- Node2&#45;&gt;Node3 -->
<g id="edge3" class="edge">
<title>Node2&#45;&gt;Node3</title>
<path fill="none" stroke="midnightblue" d="M94.7,-10C86.14,-10 77.35,-10 69.24,-10"/>
<polygon fill="midnightblue" stroke="midnightblue" points="94.95,-13.5 104.95,-10 94.95,-6.5 94.95,-13.5"/>
</g>
</g>
</svg>
