<?xml version="1.0" encoding="UTF-8" standalone="no"?>
<!DOCTYPE svg PUBLIC "-//W3C//DTD SVG 1.1//EN"
 "http://www.w3.org/Graphics/SVG/1.1/DTD/svg11.dtd">
<!-- Generated by graphviz version 3.0.0 (20220413.0242)
 -->
<!-- Title: embed::create_timeout Pages: 1 -->
<svg width="615pt" height="92pt"
 viewBox="0.00 0.00 615.00 92.23" xmlns="http://www.w3.org/2000/svg" xmlns:xlink="http://www.w3.org/1999/xlink">
<g id="graph0" class="graph" transform="scale(1 1) rotate(0) translate(4 88.23)">
<title>embed::create_timeout</title>
<polygon fill="white" stroke="transparent" points="-4,4 -4,-88.23 611,-88.23 611,4 -4,4"/>
<!-- Node1 -->
<g id="node1" class="node">
<title>Node1</title>
<g id="a_node1"><a xlink:title="Create a timeout object based on embed::counter.">
<polygon fill="#bfbfbf" stroke="black" points="0,-25.5 0,-44.5 115,-44.5 115,-25.5 0,-25.5"/>
<text text-anchor="middle" x="57.5" y="-32.5" font-family="Helvetica,sans-Serif" font-size="10.00">embed::create_timeout</text>
</a>
</g>
</g>
<!-- Node2 -->
<g id="node2" class="node">
<title>Node2</title>
<g id="a_node2"><a xlink:href="classembed_1_1frequency.html#aa67b1e2379926c43c248b98207ff95a0" target="_top" xlink:title="Calculate the number of cycles of this frequency within the time duration. This function is meant for...">
<polygon fill="white" stroke="black" points="151,-44.5 151,-63.5 294,-63.5 294,-44.5 151,-44.5"/>
<text text-anchor="middle" x="222.5" y="-51.5" font-family="Helvetica,sans-Serif" font-size="10.00">embed::frequency::cycles_per</text>
</a>
</g>
</g>
<!-- Node1&#45;&gt;Node2 -->
<g id="edge1" class="edge">
<title>Node1&#45;&gt;Node2</title>
<path fill="none" stroke="midnightblue" d="M115.05,-41.59C123.38,-42.56 132.09,-43.58 140.79,-44.59"/>
<polygon fill="midnightblue" stroke="midnightblue" points="140.64,-48.1 150.97,-45.78 141.45,-41.14 140.64,-48.1"/>
</g>
<!-- Node6 -->
<g id="node6" class="node">
<title>Node6</title>
<g id="a_node6"><a xlink:href="classembed_1_1counter.html#a02c24fbeaac81ef1030ff8e1a41b0738" target="_top" xlink:title="Get the uptime of the counter since it has started.">
<polygon fill="white" stroke="black" points="164.5,-6.5 164.5,-25.5 280.5,-25.5 280.5,-6.5 164.5,-6.5"/>
<text text-anchor="middle" x="222.5" y="-13.5" font-family="Helvetica,sans-Serif" font-size="10.00">embed::counter::uptime</text>
</a>
</g>
</g>
<!-- Node1&#45;&gt;Node6 -->
<g id="edge6" class="edge">
<title>Node1&#45;&gt;Node6</title>
<path fill="none" stroke="midnightblue" d="M115.05,-28.41C127.68,-26.94 141.18,-25.36 154.2,-23.85"/>
<polygon fill="midnightblue" stroke="midnightblue" points="154.97,-27.28 164.5,-22.64 154.16,-20.33 154.97,-27.28"/>
</g>
<!-- Node3 -->
<g id="node3" class="node">
<title>Node3</title>
<g id="a_node3"><a xlink:href="namespaceembed.html#a6f0922a28ac81378eb689b2ab4bc299a" target="_top" xlink:title="Generic absolute value function that works for integer types.">
<polygon fill="white" stroke="black" points="491,-44.5 491,-63.5 607,-63.5 607,-44.5 491,-44.5"/>
<text text-anchor="middle" x="549" y="-51.5" font-family="Helvetica,sans-Serif" font-size="10.00">embed::absolute_value</text>
</a>
</g>
</g>
<!-- Node2&#45;&gt;Node3 -->
<g id="edge2" class="edge">
<title>Node2&#45;&gt;Node3</title>
<path fill="none" stroke="midnightblue" d="M255.78,-63.63C276.72,-69.36 304.72,-76.07 330,-79 385.19,-85.39 399.92,-86.27 455,-79 473.39,-76.57 493.32,-71.55 509.98,-66.64"/>
<polygon fill="midnightblue" stroke="midnightblue" points="511.35,-69.88 519.9,-63.62 509.31,-63.19 511.35,-69.88"/>
</g>
<!-- Node4 -->
<g id="node4" class="node">
<title>Node4</title>
<g id="a_node4"><a xlink:href="classembed_1_1frequency.html#ae253d42390060843082b1ef6c2b300ec" target="_top" xlink:title="Get the frequency as an integer.">
<polygon fill="white" stroke="black" points="330,-39 330,-69 455,-69 455,-39 330,-39"/>
<text text-anchor="start" x="338" y="-57" font-family="Helvetica,sans-Serif" font-size="10.00">embed::frequency::cycles</text>
<text text-anchor="middle" x="392.5" y="-46" font-family="Helvetica,sans-Serif" font-size="10.00">_per_second</text>
</a>
</g>
</g>
<!-- Node2&#45;&gt;Node4 -->
<g id="edge3" class="edge">
<title>Node2&#45;&gt;Node4</title>
<path fill="none" stroke="midnightblue" d="M294.26,-54C302.68,-54 311.27,-54 319.7,-54"/>
<polygon fill="midnightblue" stroke="midnightblue" points="319.88,-57.5 329.88,-54 319.88,-50.5 319.88,-57.5"/>
</g>
<!-- Node5 -->
<g id="node5" class="node">
<title>Node5</title>
<g id="a_node5"><a xlink:href="namespaceembed.html#a84ea33bb969785c47247cfe0da9aa98e" target="_top" xlink:title="Perform integer division and round the value up if the next decimal place is greater than or equal to...">
<polygon fill="white" stroke="black" points="330,-0.5 330,-19.5 455,-19.5 455,-0.5 330,-0.5"/>
<text text-anchor="middle" x="392.5" y="-7.5" font-family="Helvetica,sans-Serif" font-size="10.00">embed::rounding_division</text>
</a>
</g>
</g>
<!-- Node2&#45;&gt;Node5 -->
<g id="edge4" class="edge">
<title>Node2&#45;&gt;Node5</title>
<path fill="none" stroke="midnightblue" d="M259.95,-44.45C284.94,-37.91 318.3,-29.17 345.17,-22.13"/>
<polygon fill="midnightblue" stroke="midnightblue" points="346.33,-25.45 355.12,-19.53 344.56,-18.68 346.33,-25.45"/>
</g>
<!-- Node5&#45;&gt;Node3 -->
<g id="edge5" class="edge">
<title>Node5&#45;&gt;Node3</title>
<path fill="none" stroke="midnightblue" d="M427.02,-19.55C449.8,-26.03 480.14,-34.67 504.74,-41.68"/>
<polygon fill="midnightblue" stroke="midnightblue" points="503.96,-45.1 514.54,-44.47 505.88,-38.37 503.96,-45.1"/>
</g>
</g>
</svg>
