<?xml version="1.0" encoding="UTF-8" standalone="no"?>
<!DOCTYPE svg PUBLIC "-//W3C//DTD SVG 1.1//EN"
 "http://www.w3.org/Graphics/SVG/1.1/DTD/svg11.dtd">
<!-- Generated by graphviz version 3.0.0 (20220413.0242)
 -->
<!-- Title: embed::read Pages: 1 -->
<svg width="829pt" height="92pt"
 viewBox="0.00 0.00 829.00 92.23" xmlns="http://www.w3.org/2000/svg" xmlns:xlink="http://www.w3.org/1999/xlink">
<g id="graph0" class="graph" transform="scale(1 1) rotate(0) translate(4 88.23)">
<title>embed::read</title>
<polygon fill="white" stroke="transparent" points="-4,4 -4,-88.23 825,-88.23 825,4 -4,4"/>
<!-- Node1 -->
<g id="node1" class="node">
<title>Node1</title>
<g id="a_node1"><a xlink:title="Read bytes from a serial port and return an array.">
<polygon fill="#bfbfbf" stroke="black" points="0,-25.5 0,-44.5 69,-44.5 69,-25.5 0,-25.5"/>
<text text-anchor="middle" x="34.5" y="-32.5" font-family="Helvetica,sans-Serif" font-size="10.00">embed::read</text>
</a>
</g>
</g>
<!-- Node2 -->
<g id="node2" class="node">
<title>Node2</title>
<g id="a_node2"><a xlink:href="group__counter.html#ga53e2d568aa13881c4213fe89a2e1c42e" target="_top" xlink:title="Delay execution for a duration of time using a hardware counter.">
<polygon fill="white" stroke="black" points="105,-25.5 105,-44.5 178,-44.5 178,-25.5 105,-25.5"/>
<text text-anchor="middle" x="141.5" y="-32.5" font-family="Helvetica,sans-Serif" font-size="10.00">embed::delay</text>
</a>
</g>
</g>
<!-- Node1&#45;&gt;Node2 -->
<g id="edge1" class="edge">
<title>Node1&#45;&gt;Node2</title>
<path fill="none" stroke="midnightblue" d="M69.01,-35C77.12,-35 85.92,-35 94.49,-35"/>
<polygon fill="midnightblue" stroke="midnightblue" points="94.77,-38.5 104.77,-35 94.77,-31.5 94.77,-38.5"/>
</g>
<!-- Node2&#45;&gt;Node2 -->
<g id="edge9" class="edge">
<title>Node2&#45;&gt;Node2</title>
<path fill="none" stroke="midnightblue" d="M125.16,-44.76C117.21,-53.57 122.66,-63 141.5,-63 153.27,-63 159.82,-59.31 161.13,-54.4"/>
<polygon fill="midnightblue" stroke="midnightblue" points="164.38,-53.09 157.84,-44.76 157.76,-55.35 164.38,-53.09"/>
</g>
<!-- Node3 -->
<g id="node3" class="node">
<title>Node3</title>
<g id="a_node3"><a xlink:href="group__counter.html#ga4f1edcd06bf52209d5293e54d0d1beb6" target="_top" xlink:title="Create a timeout object based on embed::counter.">
<polygon fill="white" stroke="black" points="214,-25.5 214,-44.5 329,-44.5 329,-25.5 214,-25.5"/>
<text text-anchor="middle" x="271.5" y="-32.5" font-family="Helvetica,sans-Serif" font-size="10.00">embed::create_timeout</text>
</a>
</g>
</g>
<!-- Node2&#45;&gt;Node3 -->
<g id="edge2" class="edge">
<title>Node2&#45;&gt;Node3</title>
<path fill="none" stroke="midnightblue" d="M178.16,-35C186.22,-35 195.03,-35 203.91,-35"/>
<polygon fill="midnightblue" stroke="midnightblue" points="203.93,-38.5 213.93,-35 203.93,-31.5 203.93,-38.5"/>
</g>
<!-- Node4 -->
<g id="node4" class="node">
<title>Node4</title>
<g id="a_node4"><a xlink:href="classembed_1_1frequency.html#aa67b1e2379926c43c248b98207ff95a0" target="_top" xlink:title="Calculate the number of cycles of this frequency within the time duration. This function is meant for...">
<polygon fill="white" stroke="black" points="365,-44.5 365,-63.5 508,-63.5 508,-44.5 365,-44.5"/>
<text text-anchor="middle" x="436.5" y="-51.5" font-family="Helvetica,sans-Serif" font-size="10.00">embed::frequency::cycles_per</text>
</a>
</g>
</g>
<!-- Node3&#45;&gt;Node4 -->
<g id="edge3" class="edge">
<title>Node3&#45;&gt;Node4</title>
<path fill="none" stroke="midnightblue" d="M329.05,-41.59C337.38,-42.56 346.09,-43.58 354.79,-44.59"/>
<polygon fill="midnightblue" stroke="midnightblue" points="354.64,-48.1 364.97,-45.78 355.45,-41.14 354.64,-48.1"/>
</g>
<!-- Node8 -->
<g id="node8" class="node">
<title>Node8</title>
<g id="a_node8"><a xlink:href="classembed_1_1counter.html#a02c24fbeaac81ef1030ff8e1a41b0738" target="_top" xlink:title="Get the uptime of the counter since it has started.">
<polygon fill="white" stroke="black" points="378.5,-6.5 378.5,-25.5 494.5,-25.5 494.5,-6.5 378.5,-6.5"/>
<text text-anchor="middle" x="436.5" y="-13.5" font-family="Helvetica,sans-Serif" font-size="10.00">embed::counter::uptime</text>
</a>
</g>
</g>
<!-- Node3&#45;&gt;Node8 -->
<g id="edge8" class="edge">
<title>Node3&#45;&gt;Node8</title>
<path fill="none" stroke="midnightblue" d="M329.05,-28.41C341.68,-26.94 355.18,-25.36 368.2,-23.85"/>
<polygon fill="midnightblue" stroke="midnightblue" points="368.97,-27.28 378.5,-22.64 368.16,-20.33 368.97,-27.28"/>
</g>
<!-- Node5 -->
<g id="node5" class="node">
<title>Node5</title>
<g id="a_node5"><a xlink:href="namespaceembed.html#a6f0922a28ac81378eb689b2ab4bc299a" target="_top" xlink:title="Generic absolute value function that works for integer types.">
<polygon fill="white" stroke="black" points="705,-44.5 705,-63.5 821,-63.5 821,-44.5 705,-44.5"/>
<text text-anchor="middle" x="763" y="-51.5" font-family="Helvetica,sans-Serif" font-size="10.00">embed::absolute_value</text>
</a>
</g>
</g>
<!-- Node4&#45;&gt;Node5 -->
<g id="edge4" class="edge">
<title>Node4&#45;&gt;Node5</title>
<path fill="none" stroke="midnightblue" d="M469.78,-63.63C490.72,-69.36 518.72,-76.07 544,-79 599.19,-85.39 613.92,-86.27 669,-79 687.39,-76.57 707.32,-71.55 723.98,-66.64"/>
<polygon fill="midnightblue" stroke="midnightblue" points="725.35,-69.88 733.9,-63.62 723.31,-63.19 725.35,-69.88"/>
</g>
<!-- Node6 -->
<g id="node6" class="node">
<title>Node6</title>
<g id="a_node6"><a xlink:href="classembed_1_1frequency.html#ae253d42390060843082b1ef6c2b300ec" target="_top" xlink:title="Get the frequency as an integer.">
<polygon fill="white" stroke="black" points="544,-39 544,-69 669,-69 669,-39 544,-39"/>
<text text-anchor="start" x="552" y="-57" font-family="Helvetica,sans-Serif" font-size="10.00">embed::frequency::cycles</text>
<text text-anchor="middle" x="606.5" y="-46" font-family="Helvetica,sans-Serif" font-size="10.00">_per_second</text>
</a>
</g>
</g>
<!-- Node4&#45;&gt;Node6 -->
<g id="edge5" class="edge">
<title>Node4&#45;&gt;Node6</title>
<path fill="none" stroke="midnightblue" d="M508.26,-54C516.68,-54 525.27,-54 533.7,-54"/>
<polygon fill="midnightblue" stroke="midnightblue" points="533.88,-57.5 543.88,-54 533.88,-50.5 533.88,-57.5"/>
</g>
<!-- Node7 -->
<g id="node7" class="node">
<title>Node7</title>
<g id="a_node7"><a xlink:href="namespaceembed.html#a84ea33bb969785c47247cfe0da9aa98e" target="_top" xlink:title="Perform integer division and round the value up if the next decimal place is greater than or equal to...">
<polygon fill="white" stroke="black" points="544,-0.5 544,-19.5 669,-19.5 669,-0.5 544,-0.5"/>
<text text-anchor="middle" x="606.5" y="-7.5" font-family="Helvetica,sans-Serif" font-size="10.00">embed::rounding_division</text>
</a>
</g>
</g>
<!-- Node4&#45;&gt;Node7 -->
<g id="edge6" class="edge">
<title>Node4&#45;&gt;Node7</title>
<path fill="none" stroke="midnightblue" d="M473.95,-44.45C498.94,-37.91 532.3,-29.17 559.17,-22.13"/>
<polygon fill="midnightblue" stroke="midnightblue" points="560.33,-25.45 569.12,-19.53 558.56,-18.68 560.33,-25.45"/>
</g>
<!-- Node7&#45;&gt;Node5 -->
<g id="edge7" class="edge">
<title>Node7&#45;&gt;Node5</title>
<path fill="none" stroke="midnightblue" d="M641.02,-19.55C663.8,-26.03 694.14,-34.67 718.74,-41.68"/>
<polygon fill="midnightblue" stroke="midnightblue" points="717.96,-45.1 728.54,-44.47 719.88,-38.37 717.96,-45.1"/>
</g>
</g>
</svg>
