<?xml version="1.0" encoding="UTF-8" standalone="no"?>
<!DOCTYPE svg PUBLIC "-//W3C//DTD SVG 1.1//EN"
 "http://www.w3.org/Graphics/SVG/1.1/DTD/svg11.dtd">
<!-- Generated by graphviz version 3.0.0 (20220413.0242)
 -->
<!-- Title: embed::mock::motor Pages: 1 -->
<svg width="203pt" height="106pt"
 viewBox="0.00 0.00 202.50 106.00" xmlns="http://www.w3.org/2000/svg" xmlns:xlink="http://www.w3.org/1999/xlink">
<g id="graph0" class="graph" transform="scale(1 1) rotate(0) translate(4 102)">
<title>embed::mock::motor</title>
<polygon fill="white" stroke="transparent" points="-4,4 -4,-102 198.5,-102 198.5,4 -4,4"/>
<!-- Node1 -->
<g id="node1" class="node">
<title>Node1</title>
<g id="a_node1"><a xlink:title="Mock motor implementation for use in unit tests and simulations with a spy function for power()">
<polygon fill="#bfbfbf" stroke="black" points="38.5,-0.5 38.5,-19.5 142.5,-19.5 142.5,-0.5 38.5,-0.5"/>
<text text-anchor="middle" x="90.5" y="-7.5" font-family="Helvetica,sans-Serif" font-size="10.00">embed::mock::motor</text>
</a>
</g>
</g>
<!-- Node2 -->
<g id="node2" class="node">
<title>Node2</title>
<g id="a_node2"><a xlink:href="classembed_1_1motor.html" target="_top" xlink:title="Hardware abstraction for open loop continuous rotary and linear actuators.">
<polygon fill="white" stroke="black" points="0,-73 0,-92 75,-92 75,-73 0,-73"/>
<text text-anchor="middle" x="37.5" y="-80" font-family="Helvetica,sans-Serif" font-size="10.00">embed::motor</text>
</a>
</g>
</g>
<!-- Node2&#45;&gt;Node1 -->
<g id="edge1" class="edge">
<title>Node2&#45;&gt;Node1</title>
<path fill="none" stroke="midnightblue" d="M50.28,-64.5C60.9,-50.37 75.58,-30.85 83.95,-19.72"/>
<polygon fill="midnightblue" stroke="midnightblue" points="47.21,-62.76 44,-72.86 52.81,-66.97 47.21,-62.76"/>
</g>
<!-- Node3 -->
<g id="node3" class="node">
<title>Node3</title>
<g id="a_node3"><a xlink:href="classembed_1_1spy__handler.html" target="_top" xlink:title=" ">
<polygon fill="white" stroke="black" points="92.5,-67.5 92.5,-97.5 194.5,-97.5 194.5,-67.5 92.5,-67.5"/>
<text text-anchor="start" x="100.5" y="-85.5" font-family="Helvetica,sans-Serif" font-size="10.00">embed::spy_handler</text>
<text text-anchor="middle" x="143.5" y="-74.5" font-family="Helvetica,sans-Serif" font-size="10.00">&lt; embed::percent &gt;</text>
</a>
</g>
</g>
<!-- Node3&#45;&gt;Node1 -->
<g id="edge2" class="edge">
<title>Node3&#45;&gt;Node1</title>
<path fill="none" stroke="#9a32cd" stroke-dasharray="5,2" d="M126.59,-59.01C116.61,-45.73 104.53,-29.66 97.19,-19.89"/>
<polygon fill="#9a32cd" stroke="#9a32cd" points="123.97,-61.34 132.77,-67.23 129.56,-57.14 123.97,-61.34"/>
<text text-anchor="middle" x="143" y="-41" font-family="Helvetica,sans-Serif" font-size="10.00"> spy_power</text>
</g>
</g>
</svg>
