<?xml version="1.0" encoding="UTF-8" standalone="no"?>
<!DOCTYPE svg PUBLIC "-//W3C//DTD SVG 1.1//EN"
 "http://www.w3.org/Graphics/SVG/1.1/DTD/svg11.dtd">
<!-- Generated by graphviz version 3.0.0 (20220413.0242)
 -->
<!-- Title: embed::mock::timer Pages: 1 -->
<svg width="314pt" height="149pt"
 viewBox="0.00 0.00 314.00 148.50" xmlns="http://www.w3.org/2000/svg" xmlns:xlink="http://www.w3.org/1999/xlink">
<g id="graph0" class="graph" transform="scale(1 1) rotate(0) translate(4 144.5)">
<title>embed::mock::timer</title>
<polygon fill="white" stroke="transparent" points="-4,4 -4,-144.5 310,-144.5 310,4 -4,4"/>
<!-- Node1 -->
<g id="node1" class="node">
<title>Node1</title>
<g id="a_node1"><a xlink:title="Mock timer implementation for use in unit tests and simulations with spy functions for schedule(),...">
<polygon fill="#bfbfbf" stroke="black" points="205,-66 205,-85 306,-85 306,-66 205,-66"/>
<text text-anchor="middle" x="255.5" y="-73" font-family="Helvetica,sans-Serif" font-size="10.00">embed::mock::timer</text>
</a>
</g>
</g>
<!-- Node2 -->
<g id="node2" class="node">
<title>Node2</title>
<g id="a_node2"><a xlink:href="classembed_1_1timer.html" target="_top" xlink:title="Timer hardware abstraction interface.">
<polygon fill="white" stroke="black" points="16,-121 16,-140 88,-140 88,-121 16,-121"/>
<text text-anchor="middle" x="52" y="-128" font-family="Helvetica,sans-Serif" font-size="10.00">embed::timer</text>
</a>
</g>
</g>
<!-- Node2&#45;&gt;Node1 -->
<g id="edge1" class="edge">
<title>Node2&#45;&gt;Node1</title>
<path fill="none" stroke="midnightblue" d="M98.04,-118.21C134.72,-108.19 185.79,-94.26 219.47,-85.06"/>
<polygon fill="midnightblue" stroke="midnightblue" points="96.82,-114.91 88.1,-120.92 98.67,-121.66 96.82,-114.91"/>
</g>
<!-- Node3 -->
<g id="node3" class="node">
<title>Node3</title>
<g id="a_node3"><a xlink:title=" ">
<polygon fill="white" stroke="black" points="0,-49.5 0,-101.5 104,-101.5 104,-49.5 0,-49.5"/>
<text text-anchor="start" x="8" y="-89.5" font-family="Helvetica,sans-Serif" font-size="10.00">embed::spy_handler</text>
<text text-anchor="start" x="8" y="-78.5" font-family="Helvetica,sans-Serif" font-size="10.00">&lt; std::function&lt; void</text>
<text text-anchor="start" x="8" y="-67.5" font-family="Helvetica,sans-Serif" font-size="10.00">(void)&gt;, std::chrono::</text>
<text text-anchor="middle" x="52" y="-56.5" font-family="Helvetica,sans-Serif" font-size="10.00">nanoseconds &gt;</text>
</a>
</g>
</g>
<!-- Node3&#45;&gt;Node1 -->
<g id="edge2" class="edge">
<title>Node3&#45;&gt;Node1</title>
<path fill="none" stroke="#9a32cd" stroke-dasharray="5,2" d="M114.14,-75.5C143.18,-75.5 177.44,-75.5 204.84,-75.5"/>
<polygon fill="#9a32cd" stroke="#9a32cd" points="114.11,-72 104.11,-75.5 114.11,-79 114.11,-72"/>
<text text-anchor="middle" x="154.5" y="-78.5" font-family="Helvetica,sans-Serif" font-size="10.00"> spy_schedule</text>
</g>
<!-- Node4 -->
<g id="node4" class="node">
<title>Node4</title>
<g id="a_node4"><a xlink:href="classembed_1_1spy__handler.html" target="_top" xlink:title=" ">
<polygon fill="white" stroke="black" points="1,-0.5 1,-30.5 103,-30.5 103,-0.5 1,-0.5"/>
<text text-anchor="start" x="9" y="-18.5" font-family="Helvetica,sans-Serif" font-size="10.00">embed::spy_handler</text>
<text text-anchor="middle" x="52" y="-7.5" font-family="Helvetica,sans-Serif" font-size="10.00">&lt; bool &gt;</text>
</a>
</g>
</g>
<!-- Node4&#45;&gt;Node1 -->
<g id="edge3" class="edge">
<title>Node4&#45;&gt;Node1</title>
<path fill="none" stroke="#9a32cd" stroke-dasharray="5,2" d="M112.8,-29.06C136.13,-34.77 162.99,-41.86 187,-49.5 202.08,-54.3 218.67,-60.67 231.62,-65.91"/>
<polygon fill="#9a32cd" stroke="#9a32cd" points="113.58,-25.64 103.04,-26.7 111.93,-32.45 113.58,-25.64"/>
<text text-anchor="middle" x="154.5" y="-63.5" font-family="Helvetica,sans-Serif" font-size="10.00"> spy_clear</text>
<text text-anchor="middle" x="154.5" y="-52.5" font-family="Helvetica,sans-Serif" font-size="10.00">spy_is_running</text>
</g>
</g>
</svg>
