<?xml version="1.0" encoding="UTF-8" standalone="no"?>
<!DOCTYPE svg PUBLIC "-//W3C//DTD SVG 1.1//EN"
 "http://www.w3.org/Graphics/SVG/1.1/DTD/svg11.dtd">
<!-- Generated by graphviz version 3.0.0 (20220413.0242)
 -->
<!-- Title: embed::mock::pwm Pages: 1 -->
<svg width="320pt" height="106pt"
 viewBox="0.00 0.00 319.50 106.00" xmlns="http://www.w3.org/2000/svg" xmlns:xlink="http://www.w3.org/1999/xlink">
<g id="graph0" class="graph" transform="scale(1 1) rotate(0) translate(4 102)">
<title>embed::mock::pwm</title>
<polygon fill="white" stroke="transparent" points="-4,4 -4,-102 315.5,-102 315.5,4 -4,4"/>
<!-- Node1 -->
<g id="node1" class="node">
<title>Node1</title>
<g id="a_node1"><a xlink:title="Mock pwm implementation for use in unit tests and simulations with spy functions for configure() and ...">
<polygon fill="#bfbfbf" stroke="black" points="90.5,-0.5 90.5,-19.5 190.5,-19.5 190.5,-0.5 90.5,-0.5"/>
<text text-anchor="middle" x="140.5" y="-7.5" font-family="Helvetica,sans-Serif" font-size="10.00">embed::mock::pwm</text>
</a>
</g>
</g>
<!-- Node2 -->
<g id="node2" class="node">
<title>Node2</title>
<g id="a_node2"><a xlink:href="classembed_1_1pwm.html" target="_top" xlink:title="Pulse Width Modulation (PWM) channel hardware abstraction.">
<polygon fill="white" stroke="black" points="0,-73 0,-92 71,-92 71,-73 0,-73"/>
<text text-anchor="middle" x="35.5" y="-80" font-family="Helvetica,sans-Serif" font-size="10.00">embed::pwm</text>
</a>
</g>
</g>
<!-- Node2&#45;&gt;Node1 -->
<g id="edge1" class="edge">
<title>Node2&#45;&gt;Node1</title>
<path fill="none" stroke="midnightblue" d="M56.73,-67.24C77.93,-53.01 109.83,-31.59 127.52,-19.72"/>
<polygon fill="midnightblue" stroke="midnightblue" points="54.73,-64.38 48.38,-72.86 58.63,-70.19 54.73,-64.38"/>
</g>
<!-- Node3 -->
<g id="node3" class="node">
<title>Node3</title>
<g id="a_node3"><a xlink:href="classembed_1_1spy__handler.html" target="_top" xlink:title=" ">
<polygon fill="white" stroke="black" points="89.5,-67.5 89.5,-97.5 191.5,-97.5 191.5,-67.5 89.5,-67.5"/>
<text text-anchor="start" x="97.5" y="-85.5" font-family="Helvetica,sans-Serif" font-size="10.00">embed::spy_handler</text>
<text text-anchor="middle" x="140.5" y="-74.5" font-family="Helvetica,sans-Serif" font-size="10.00">&lt; settings &gt;</text>
</a>
</g>
</g>
<!-- Node3&#45;&gt;Node1 -->
<g id="edge2" class="edge">
<title>Node3&#45;&gt;Node1</title>
<path fill="none" stroke="#9a32cd" stroke-dasharray="5,2" d="M140.5,-57.09C140.5,-44.21 140.5,-29.2 140.5,-19.89"/>
<polygon fill="#9a32cd" stroke="#9a32cd" points="137,-57.23 140.5,-67.23 144,-57.23 137,-57.23"/>
<text text-anchor="middle" x="171.5" y="-41" font-family="Helvetica,sans-Serif" font-size="10.00"> spy_configure</text>
</g>
<!-- Node4 -->
<g id="node4" class="node">
<title>Node4</title>
<g id="a_node4"><a xlink:href="classembed_1_1spy__handler.html" target="_top" xlink:title=" ">
<polygon fill="white" stroke="black" points="209.5,-67.5 209.5,-97.5 311.5,-97.5 311.5,-67.5 209.5,-67.5"/>
<text text-anchor="start" x="217.5" y="-85.5" font-family="Helvetica,sans-Serif" font-size="10.00">embed::spy_handler</text>
<text text-anchor="middle" x="260.5" y="-74.5" font-family="Helvetica,sans-Serif" font-size="10.00">&lt; embed::percent &gt;</text>
</a>
</g>
</g>
<!-- Node4&#45;&gt;Node1 -->
<g id="edge3" class="edge">
<title>Node4&#45;&gt;Node1</title>
<path fill="none" stroke="#9a32cd" stroke-dasharray="5,2" d="M237.71,-60.7C228.47,-52.93 217.41,-44.44 206.5,-38 193.92,-30.57 178.91,-24.26 166.39,-19.61"/>
<polygon fill="#9a32cd" stroke="#9a32cd" points="235.47,-63.38 245.32,-67.27 240.04,-58.09 235.47,-63.38"/>
<text text-anchor="middle" x="256" y="-41" font-family="Helvetica,sans-Serif" font-size="10.00"> spy_duty_cycle</text>
</g>
</g>
</svg>
