<?xml version="1.0" encoding="UTF-8" standalone="no"?>
<!DOCTYPE svg PUBLIC "-//W3C//DTD SVG 1.1//EN"
 "http://www.w3.org/Graphics/SVG/1.1/DTD/svg11.dtd">
<!-- Generated by graphviz version 3.0.0 (20220413.0242)
 -->
<!-- Title: embed::mock::input_pin Pages: 1 -->
<svg width="217pt" height="106pt"
 viewBox="0.00 0.00 216.50 106.00" xmlns="http://www.w3.org/2000/svg" xmlns:xlink="http://www.w3.org/1999/xlink">
<g id="graph0" class="graph" transform="scale(1 1) rotate(0) translate(4 102)">
<title>embed::mock::input_pin</title>
<polygon fill="white" stroke="transparent" points="-4,4 -4,-102 212.5,-102 212.5,4 -4,4"/>
<!-- Node1 -->
<g id="node1" class="node">
<title>Node1</title>
<g id="a_node1"><a xlink:title="mock input_pin implementation for use in unit tests and simulations.">
<polygon fill="#bfbfbf" stroke="black" points="41.5,-0.5 41.5,-19.5 159.5,-19.5 159.5,-0.5 41.5,-0.5"/>
<text text-anchor="middle" x="100.5" y="-7.5" font-family="Helvetica,sans-Serif" font-size="10.00">embed::mock::input_pin</text>
</a>
</g>
</g>
<!-- Node2 -->
<g id="node2" class="node">
<title>Node2</title>
<g id="a_node2"><a xlink:href="classembed_1_1input__pin.html" target="_top" xlink:title="Digital input pin hardware abstraction interface.">
<polygon fill="white" stroke="black" points="0,-73 0,-92 89,-92 89,-73 0,-73"/>
<text text-anchor="middle" x="44.5" y="-80" font-family="Helvetica,sans-Serif" font-size="10.00">embed::input_pin</text>
</a>
</g>
</g>
<!-- Node2&#45;&gt;Node1 -->
<g id="edge1" class="edge">
<title>Node2&#45;&gt;Node1</title>
<path fill="none" stroke="midnightblue" d="M57.69,-64.9C68.93,-50.74 84.65,-30.96 93.58,-19.72"/>
<polygon fill="midnightblue" stroke="midnightblue" points="54.85,-62.85 51.37,-72.86 60.33,-67.2 54.85,-62.85"/>
</g>
<!-- Node3 -->
<g id="node3" class="node">
<title>Node3</title>
<g id="a_node3"><a xlink:href="classembed_1_1spy__handler.html" target="_top" xlink:title=" ">
<polygon fill="white" stroke="black" points="106.5,-67.5 106.5,-97.5 208.5,-97.5 208.5,-67.5 106.5,-67.5"/>
<text text-anchor="start" x="114.5" y="-85.5" font-family="Helvetica,sans-Serif" font-size="10.00">embed::spy_handler</text>
<text text-anchor="middle" x="157.5" y="-74.5" font-family="Helvetica,sans-Serif" font-size="10.00">&lt; settings &gt;</text>
</a>
</g>
</g>
<!-- Node3&#45;&gt;Node1 -->
<g id="edge2" class="edge">
<title>Node3&#45;&gt;Node1</title>
<path fill="none" stroke="#9a32cd" stroke-dasharray="5,2" d="M139.62,-59.38C128.83,-46.04 115.66,-29.76 107.69,-19.89"/>
<polygon fill="#9a32cd" stroke="#9a32cd" points="136.96,-61.66 145.97,-67.23 142.4,-57.26 136.96,-61.66"/>
<text text-anchor="middle" x="161.5" y="-41" font-family="Helvetica,sans-Serif" font-size="10.00"> spy_configure</text>
</g>
</g>
</svg>
