<?xml version="1.0" encoding="UTF-8" standalone="no"?>
<!DOCTYPE svg PUBLIC "-//W3C//DTD SVG 1.1//EN"
 "http://www.w3.org/Graphics/SVG/1.1/DTD/svg11.dtd">
<!-- Generated by graphviz version 3.0.0 (20220413.0242)
 -->
<!-- Title: embed::mock::interrupt_pin Pages: 1 -->
<svg width="382pt" height="186pt"
 viewBox="0.00 0.00 382.00 185.50" xmlns="http://www.w3.org/2000/svg" xmlns:xlink="http://www.w3.org/1999/xlink">
<g id="graph0" class="graph" transform="scale(1 1) rotate(0) translate(4 181.5)">
<title>embed::mock::interrupt_pin</title>
<polygon fill="white" stroke="transparent" points="-4,4 -4,-181.5 378,-181.5 378,4 -4,4"/>
<!-- Node1 -->
<g id="node1" class="node">
<title>Node1</title>
<g id="a_node1"><a xlink:title="mock interrupt_pin implementation for use in unit tests and simulations.">
<polygon fill="#bfbfbf" stroke="black" points="242,-87 242,-106 374,-106 374,-87 242,-87"/>
<text text-anchor="middle" x="308" y="-94" font-family="Helvetica,sans-Serif" font-size="10.00">embed::mock::interrupt_pin</text>
</a>
</g>
</g>
<!-- Node2 -->
<g id="node2" class="node">
<title>Node2</title>
<g id="a_node2"><a xlink:href="classembed_1_1interrupt__pin.html" target="_top" xlink:title="Digital interrupt pin hardware abstraction.">
<polygon fill="white" stroke="black" points="4.5,-158 4.5,-177 108.5,-177 108.5,-158 4.5,-158"/>
<text text-anchor="middle" x="56.5" y="-165" font-family="Helvetica,sans-Serif" font-size="10.00">embed::interrupt_pin</text>
</a>
</g>
</g>
<!-- Node2&#45;&gt;Node1 -->
<g id="edge1" class="edge">
<title>Node2&#45;&gt;Node1</title>
<path fill="none" stroke="midnightblue" d="M118.76,-156.48C150.51,-150.12 189.71,-141.25 224,-130.5 245.84,-123.65 269.97,-113.46 286.55,-106.02"/>
<polygon fill="midnightblue" stroke="midnightblue" points="117.87,-153.09 108.73,-158.46 119.22,-159.96 117.87,-153.09"/>
</g>
<!-- Node3 -->
<g id="node3" class="node">
<title>Node3</title>
<g id="a_node3"><a xlink:href="classembed_1_1spy__handler.html" target="_top" xlink:title=" ">
<polygon fill="white" stroke="black" points="5.5,-108.5 5.5,-138.5 107.5,-138.5 107.5,-108.5 5.5,-108.5"/>
<text text-anchor="start" x="13.5" y="-126.5" font-family="Helvetica,sans-Serif" font-size="10.00">embed::spy_handler</text>
<text text-anchor="middle" x="56.5" y="-115.5" font-family="Helvetica,sans-Serif" font-size="10.00">&lt; settings &gt;</text>
</a>
</g>
</g>
<!-- Node3&#45;&gt;Node1 -->
<g id="edge2" class="edge">
<title>Node3&#45;&gt;Node1</title>
<path fill="none" stroke="#9a32cd" stroke-dasharray="5,2" d="M117.95,-116.96C155.38,-112.91 203.43,-107.71 241.73,-103.56"/>
<polygon fill="#9a32cd" stroke="#9a32cd" points="117.26,-113.51 107.69,-118.07 118.01,-120.47 117.26,-113.51"/>
<text text-anchor="middle" x="177.5" y="-118.5" font-family="Helvetica,sans-Serif" font-size="10.00"> spy_configure</text>
</g>
<!-- Node4 -->
<g id="node4" class="node">
<title>Node4</title>
<g id="a_node4"><a xlink:title=" ">
<polygon fill="white" stroke="black" points="0,-49 0,-90 113,-90 113,-49 0,-49"/>
<text text-anchor="start" x="8" y="-78" font-family="Helvetica,sans-Serif" font-size="10.00">embed::spy_handler</text>
<text text-anchor="start" x="8" y="-67" font-family="Helvetica,sans-Serif" font-size="10.00">&lt; std::function&lt; void</text>
<text text-anchor="middle" x="56.5" y="-56" font-family="Helvetica,sans-Serif" font-size="10.00">(void)&gt;, trigger_edge &gt;</text>
</a>
</g>
</g>
<!-- Node4&#45;&gt;Node1 -->
<g id="edge3" class="edge">
<title>Node4&#45;&gt;Node1</title>
<path fill="none" stroke="#9a32cd" stroke-dasharray="5,2" d="M123.26,-76.62C159.86,-80.58 205.26,-85.49 241.77,-89.44"/>
<polygon fill="#9a32cd" stroke="#9a32cd" points="123.5,-73.12 113.18,-75.53 122.75,-80.08 123.5,-73.12"/>
<text text-anchor="middle" x="177.5" y="-89.5" font-family="Helvetica,sans-Serif" font-size="10.00"> spy_attach_interrupt</text>
</g>
<!-- Node5 -->
<g id="node5" class="node">
<title>Node5</title>
<g id="a_node5"><a xlink:href="classembed_1_1spy__handler.html" target="_top" xlink:title=" ">
<polygon fill="white" stroke="black" points="5.5,-0.5 5.5,-30.5 107.5,-30.5 107.5,-0.5 5.5,-0.5"/>
<text text-anchor="start" x="13.5" y="-18.5" font-family="Helvetica,sans-Serif" font-size="10.00">embed::spy_handler</text>
<text text-anchor="middle" x="56.5" y="-7.5" font-family="Helvetica,sans-Serif" font-size="10.00">&lt; bool &gt;</text>
</a>
</g>
</g>
<!-- Node5&#45;&gt;Node1 -->
<g id="edge4" class="edge">
<title>Node5&#45;&gt;Node1</title>
<path fill="none" stroke="#9a32cd" stroke-dasharray="5,2" d="M117.63,-30.1C149.54,-38.36 189.24,-49.42 224,-61.5 245.72,-69.04 269.86,-79.46 286.48,-86.97"/>
<polygon fill="#9a32cd" stroke="#9a32cd" points="118.11,-26.61 107.56,-27.53 116.38,-33.4 118.11,-26.61"/>
<text text-anchor="middle" x="177.5" y="-64.5" font-family="Helvetica,sans-Serif" font-size="10.00"> spy_detach_interrupt</text>
</g>
</g>
</svg>
