<?xml version="1.0" encoding="UTF-8" standalone="no"?>
<!DOCTYPE svg PUBLIC "-//W3C//DTD SVG 1.1//EN"
 "http://www.w3.org/Graphics/SVG/1.1/DTD/svg11.dtd">
<!-- Generated by graphviz version 2.44.0 ()
 -->
<!-- Title: /github/workspace/include/libembeddedhal/adc/adc.hpp Pages: 1 -->
<svg width="559pt" height="151pt"
 viewBox="0.00 0.00 559.00 151.00" xmlns="http://www.w3.org/2000/svg" xmlns:xlink="http://www.w3.org/1999/xlink">
<g id="graph0" class="graph" transform="scale(1 1) rotate(0) translate(4 147)">
<title>/github/workspace/include/libembeddedhal/adc/adc.hpp</title>
<polygon fill="white" stroke="transparent" points="-4,4 -4,-147 555,-147 555,4 -4,4"/>
<!-- Node1 -->
<g id="node1" class="node">
<title>Node1</title>
<g id="a_node1"><a xlink:title=" ">
<polygon fill="#bfbfbf" stroke="black" points="114,-112.5 114,-142.5 257,-142.5 257,-112.5 114,-112.5"/>
<text text-anchor="start" x="122" y="-130.5" font-family="Helvetica,sans-Serif" font-size="10.00">/github/workspace/include</text>
<text text-anchor="middle" x="185.5" y="-119.5" font-family="Helvetica,sans-Serif" font-size="10.00">/libembeddedhal/adc/adc.hpp</text>
</a>
</g>
</g>
<!-- Node2 -->
<g id="node2" class="node">
<title>Node2</title>
<g id="a_node2"><a xlink:title=" ">
<polygon fill="white" stroke="#bfbfbf" points="157.5,-0.5 157.5,-19.5 213.5,-19.5 213.5,-0.5 157.5,-0.5"/>
<text text-anchor="middle" x="185.5" y="-7.5" font-family="Helvetica,sans-Serif" font-size="10.00">cinttypes</text>
</a>
</g>
</g>
<!-- Node1&#45;&gt;Node2 -->
<g id="edge1" class="edge">
<title>Node1&#45;&gt;Node2</title>
<path fill="none" stroke="midnightblue" d="M185.5,-112.34C185.5,-91.62 185.5,-53.02 185.5,-29.9"/>
<polygon fill="midnightblue" stroke="midnightblue" points="189,-29.67 185.5,-19.67 182,-29.67 189,-29.67"/>
</g>
<!-- Node3 -->
<g id="node3" class="node">
<title>Node3</title>
<g id="a_node3"><a xlink:href="driver_8hpp.html" target="_top" xlink:title=" ">
<polygon fill="white" stroke="black" points="75.5,-56.5 75.5,-75.5 141.5,-75.5 141.5,-56.5 75.5,-56.5"/>
<text text-anchor="middle" x="108.5" y="-63.5" font-family="Helvetica,sans-Serif" font-size="10.00">../driver.hpp</text>
</a>
</g>
</g>
<!-- Node1&#45;&gt;Node3 -->
<g id="edge2" class="edge">
<title>Node1&#45;&gt;Node3</title>
<path fill="none" stroke="midnightblue" d="M167.25,-112.4C155.37,-103.22 139.89,-91.26 127.81,-81.92"/>
<polygon fill="midnightblue" stroke="midnightblue" points="129.76,-79 119.7,-75.66 125.48,-84.54 129.76,-79"/>
</g>
<!-- Node6 -->
<g id="node6" class="node">
<title>Node6</title>
<g id="a_node6"><a xlink:href="full__scale_8hpp.html" target="_top" xlink:title=" ">
<polygon fill="white" stroke="black" points="245,-56.5 245,-75.5 328,-75.5 328,-56.5 245,-56.5"/>
<text text-anchor="middle" x="286.5" y="-63.5" font-family="Helvetica,sans-Serif" font-size="10.00">../full_scale.hpp</text>
</a>
</g>
</g>
<!-- Node1&#45;&gt;Node6 -->
<g id="edge5" class="edge">
<title>Node1&#45;&gt;Node6</title>
<path fill="none" stroke="midnightblue" d="M209.44,-112.4C225.63,-102.86 246.91,-90.32 263,-80.84"/>
<polygon fill="midnightblue" stroke="midnightblue" points="264.96,-83.75 271.8,-75.66 261.41,-77.72 264.96,-83.75"/>
</g>
<!-- Node4 -->
<g id="node4" class="node">
<title>Node4</title>
<g id="a_node4"><a xlink:href="enum_8hpp.html" target="_top" xlink:title=" ">
<polygon fill="white" stroke="black" points="0,-0.5 0,-19.5 59,-19.5 59,-0.5 0,-0.5"/>
<text text-anchor="middle" x="29.5" y="-7.5" font-family="Helvetica,sans-Serif" font-size="10.00">enum.hpp</text>
</a>
</g>
</g>
<!-- Node3&#45;&gt;Node4 -->
<g id="edge3" class="edge">
<title>Node3&#45;&gt;Node4</title>
<path fill="none" stroke="midnightblue" d="M95.81,-56.32C83.6,-47.98 64.92,-35.21 50.5,-25.35"/>
<polygon fill="midnightblue" stroke="midnightblue" points="52.39,-22.41 42.16,-19.65 48.44,-28.19 52.39,-22.41"/>
</g>
<!-- Node5 -->
<g id="node5" class="node">
<title>Node5</title>
<g id="a_node5"><a xlink:title=" ">
<polygon fill="white" stroke="#bfbfbf" points="77.5,-0.5 77.5,-19.5 139.5,-19.5 139.5,-0.5 77.5,-0.5"/>
<text text-anchor="middle" x="108.5" y="-7.5" font-family="Helvetica,sans-Serif" font-size="10.00">type_traits</text>
</a>
</g>
</g>
<!-- Node3&#45;&gt;Node5 -->
<g id="edge4" class="edge">
<title>Node3&#45;&gt;Node5</title>
<path fill="none" stroke="midnightblue" d="M108.5,-56.08C108.5,-49.01 108.5,-38.86 108.5,-29.99"/>
<polygon fill="midnightblue" stroke="midnightblue" points="112,-29.75 108.5,-19.75 105,-29.75 112,-29.75"/>
</g>
<!-- Node6&#45;&gt;Node2 -->
<g id="edge7" class="edge">
<title>Node6&#45;&gt;Node2</title>
<path fill="none" stroke="midnightblue" d="M270.27,-56.32C254.15,-47.7 229.2,-34.36 210.54,-24.39"/>
<polygon fill="midnightblue" stroke="midnightblue" points="212.16,-21.28 201.69,-19.65 208.86,-27.46 212.16,-21.28"/>
</g>
<!-- Node6&#45;&gt;Node5 -->
<g id="edge12" class="edge">
<title>Node6&#45;&gt;Node5</title>
<path fill="none" stroke="midnightblue" d="M258.3,-56.44C228.09,-47.28 179.99,-32.69 146.47,-22.52"/>
<polygon fill="midnightblue" stroke="midnightblue" points="147.16,-19.07 136.57,-19.52 145.13,-25.77 147.16,-19.07"/>
</g>
<!-- Node7 -->
<g id="node7" class="node">
<title>Node7</title>
<g id="a_node7"><a xlink:title=" ">
<polygon fill="white" stroke="#bfbfbf" points="289.5,-0.5 289.5,-19.5 345.5,-19.5 345.5,-0.5 289.5,-0.5"/>
<text text-anchor="middle" x="317.5" y="-7.5" font-family="Helvetica,sans-Serif" font-size="10.00">algorithm</text>
</a>
</g>
</g>
<!-- Node6&#45;&gt;Node7 -->
<g id="edge6" class="edge">
<title>Node6&#45;&gt;Node7</title>
<path fill="none" stroke="midnightblue" d="M291.62,-56.08C295.91,-48.61 302.16,-37.72 307.44,-28.52"/>
<polygon fill="midnightblue" stroke="midnightblue" points="310.53,-30.17 312.48,-19.75 304.46,-26.68 310.53,-30.17"/>
</g>
<!-- Node8 -->
<g id="node8" class="node">
<title>Node8</title>
<g id="a_node8"><a xlink:title=" ">
<polygon fill="white" stroke="#bfbfbf" points="364,-0.5 364,-19.5 409,-19.5 409,-0.5 364,-0.5"/>
<text text-anchor="middle" x="386.5" y="-7.5" font-family="Helvetica,sans-Serif" font-size="10.00">climits</text>
</a>
</g>
</g>
<!-- Node6&#45;&gt;Node8 -->
<g id="edge8" class="edge">
<title>Node6&#45;&gt;Node8</title>
<path fill="none" stroke="midnightblue" d="M302.57,-56.32C318.46,-47.74 343.01,-34.49 361.46,-24.52"/>
<polygon fill="midnightblue" stroke="midnightblue" points="363.34,-27.49 370.47,-19.65 360.01,-21.33 363.34,-27.49"/>
</g>
<!-- Node9 -->
<g id="node9" class="node">
<title>Node9</title>
<g id="a_node9"><a xlink:title=" ">
<polygon fill="white" stroke="#bfbfbf" points="427.5,-0.5 427.5,-19.5 483.5,-19.5 483.5,-0.5 427.5,-0.5"/>
<text text-anchor="middle" x="455.5" y="-7.5" font-family="Helvetica,sans-Serif" font-size="10.00">concepts</text>
</a>
</g>
</g>
<!-- Node6&#45;&gt;Node9 -->
<g id="edge9" class="edge">
<title>Node6&#45;&gt;Node9</title>
<path fill="none" stroke="midnightblue" d="M313.28,-56.44C341.83,-47.32 387.23,-32.81 419.04,-22.65"/>
<polygon fill="midnightblue" stroke="midnightblue" points="420.39,-25.89 428.85,-19.52 418.26,-19.23 420.39,-25.89"/>
</g>
<!-- Node10 -->
<g id="node10" class="node">
<title>Node10</title>
<g id="a_node10"><a xlink:title=" ">
<polygon fill="white" stroke="#bfbfbf" points="502,-0.5 502,-19.5 551,-19.5 551,-0.5 502,-0.5"/>
<text text-anchor="middle" x="526.5" y="-7.5" font-family="Helvetica,sans-Serif" font-size="10.00">cstddef</text>
</a>
</g>
</g>
<!-- Node6&#45;&gt;Node10 -->
<g id="edge10" class="edge">
<title>Node6&#45;&gt;Node10</title>
<path fill="none" stroke="midnightblue" d="M328.05,-56.48C367.63,-48.24 429.1,-35.12 491.61,-20.13"/>
<polygon fill="midnightblue" stroke="midnightblue" points="492.75,-23.46 501.65,-17.71 491.11,-16.65 492.75,-23.46"/>
</g>
<!-- Node11 -->
<g id="node11" class="node">
<title>Node11</title>
<g id="a_node11"><a xlink:title=" ">
<polygon fill="white" stroke="#bfbfbf" points="231.5,-0.5 231.5,-19.5 271.5,-19.5 271.5,-0.5 231.5,-0.5"/>
<text text-anchor="middle" x="251.5" y="-7.5" font-family="Helvetica,sans-Serif" font-size="10.00">limits</text>
</a>
</g>
</g>
<!-- Node6&#45;&gt;Node11 -->
<g id="edge11" class="edge">
<title>Node6&#45;&gt;Node11</title>
<path fill="none" stroke="midnightblue" d="M280.72,-56.08C275.83,-48.53 268.67,-37.49 262.67,-28.23"/>
<polygon fill="midnightblue" stroke="midnightblue" points="265.55,-26.24 257.17,-19.75 259.67,-30.05 265.55,-26.24"/>
</g>
</g>
</svg>
