<?xml version="1.0" encoding="UTF-8" standalone="no"?>
<!DOCTYPE svg PUBLIC "-//W3C//DTD SVG 1.1//EN"
 "http://www.w3.org/Graphics/SVG/1.1/DTD/svg11.dtd">
<!-- Generated by graphviz version 2.44.0 ()
 -->
<!-- Title: /github/workspace/include/libembeddedhal/can/can_network.hpp Pages: 1 -->
<svg width="660pt" height="162pt"
 viewBox="0.00 0.00 660.00 162.00" xmlns="http://www.w3.org/2000/svg" xmlns:xlink="http://www.w3.org/1999/xlink">
<g id="graph0" class="graph" transform="scale(1 1) rotate(0) translate(4 158)">
<title>/github/workspace/include/libembeddedhal/can/can_network.hpp</title>
<polygon fill="white" stroke="transparent" points="-4,4 -4,-158 656,-158 656,4 -4,4"/>
<!-- Node1 -->
<g id="node1" class="node">
<title>Node1</title>
<g id="a_node1"><a xlink:title=" ">
<polygon fill="#bfbfbf" stroke="black" points="237,-112.5 237,-153.5 367,-153.5 367,-112.5 237,-112.5"/>
<text text-anchor="start" x="245" y="-141.5" font-family="Helvetica,sans-Serif" font-size="10.00">/github/workspace/include</text>
<text text-anchor="start" x="245" y="-130.5" font-family="Helvetica,sans-Serif" font-size="10.00">/libembeddedhal/can/can</text>
<text text-anchor="middle" x="302" y="-119.5" font-family="Helvetica,sans-Serif" font-size="10.00">_network.hpp</text>
</a>
</g>
</g>
<!-- Node2 -->
<g id="node2" class="node">
<title>Node2</title>
<g id="a_node2"><a xlink:title=" ">
<polygon fill="white" stroke="#bfbfbf" points="0,-56.5 0,-75.5 56,-75.5 56,-56.5 0,-56.5"/>
<text text-anchor="middle" x="28" y="-63.5" font-family="Helvetica,sans-Serif" font-size="10.00">algorithm</text>
</a>
</g>
</g>
<!-- Node1&#45;&gt;Node2 -->
<g id="edge1" class="edge">
<title>Node1&#45;&gt;Node2</title>
<path fill="none" stroke="midnightblue" d="M236.84,-116.72C191.54,-106.08 129.49,-91.44 66.05,-76.24"/>
<polygon fill="midnightblue" stroke="midnightblue" points="66.82,-72.83 56.28,-73.9 65.19,-79.63 66.82,-72.83"/>
</g>
<!-- Node3 -->
<g id="node3" class="node">
<title>Node3</title>
<g id="a_node3"><a xlink:title=" ">
<polygon fill="white" stroke="#bfbfbf" points="74,-56.5 74,-75.5 120,-75.5 120,-56.5 74,-56.5"/>
<text text-anchor="middle" x="97" y="-63.5" font-family="Helvetica,sans-Serif" font-size="10.00">atomic</text>
</a>
</g>
</g>
<!-- Node1&#45;&gt;Node3 -->
<g id="edge2" class="edge">
<title>Node1&#45;&gt;Node3</title>
<path fill="none" stroke="midnightblue" d="M240.49,-112.5C204.2,-100.99 159.7,-86.88 129.97,-77.45"/>
<polygon fill="midnightblue" stroke="midnightblue" points="130.7,-74.01 120.11,-74.33 128.58,-80.68 130.7,-74.01"/>
</g>
<!-- Node4 -->
<g id="node4" class="node">
<title>Node4</title>
<g id="a_node4"><a xlink:title=" ">
<polygon fill="white" stroke="#bfbfbf" points="138,-56.5 138,-75.5 184,-75.5 184,-56.5 138,-56.5"/>
<text text-anchor="middle" x="161" y="-63.5" font-family="Helvetica,sans-Serif" font-size="10.00">cstdint</text>
</a>
</g>
</g>
<!-- Node1&#45;&gt;Node4 -->
<g id="edge3" class="edge">
<title>Node1&#45;&gt;Node4</title>
<path fill="none" stroke="midnightblue" d="M259.7,-112.5C236.83,-101.96 209.23,-89.23 189.03,-79.92"/>
<polygon fill="midnightblue" stroke="midnightblue" points="190.32,-76.66 179.77,-75.65 187.39,-83.02 190.32,-76.66"/>
</g>
<!-- Node5 -->
<g id="node5" class="node">
<title>Node5</title>
<g id="a_node5"><a xlink:title=" ">
<polygon fill="white" stroke="#bfbfbf" points="202,-56.5 202,-75.5 296,-75.5 296,-56.5 202,-56.5"/>
<text text-anchor="middle" x="249" y="-63.5" font-family="Helvetica,sans-Serif" font-size="10.00">memory_resource</text>
</a>
</g>
</g>
<!-- Node1&#45;&gt;Node5 -->
<g id="edge4" class="edge">
<title>Node1&#45;&gt;Node5</title>
<path fill="none" stroke="midnightblue" d="M286.1,-112.5C278.6,-103.3 269.74,-92.44 262.56,-83.63"/>
<polygon fill="midnightblue" stroke="midnightblue" points="265.09,-81.19 256.06,-75.65 259.66,-85.61 265.09,-81.19"/>
</g>
<!-- Node6 -->
<g id="node6" class="node">
<title>Node6</title>
<g id="a_node6"><a xlink:title=" ">
<polygon fill="white" stroke="#bfbfbf" points="314.5,-56.5 314.5,-75.5 397.5,-75.5 397.5,-56.5 314.5,-56.5"/>
<text text-anchor="middle" x="356" y="-63.5" font-family="Helvetica,sans-Serif" font-size="10.00">unordered_map</text>
</a>
</g>
</g>
<!-- Node1&#45;&gt;Node6 -->
<g id="edge5" class="edge">
<title>Node1&#45;&gt;Node6</title>
<path fill="none" stroke="midnightblue" d="M318.2,-112.5C325.92,-103.2 335.06,-92.21 342.41,-83.36"/>
<polygon fill="midnightblue" stroke="midnightblue" points="345.11,-85.58 348.81,-75.65 339.73,-81.11 345.11,-85.58"/>
</g>
<!-- Node7 -->
<g id="node7" class="node">
<title>Node7</title>
<g id="a_node7"><a xlink:title=" ">
<polygon fill="white" stroke="#bfbfbf" points="415.5,-56.5 415.5,-75.5 454.5,-75.5 454.5,-56.5 415.5,-56.5"/>
<text text-anchor="middle" x="435" y="-63.5" font-family="Helvetica,sans-Serif" font-size="10.00">utility</text>
</a>
</g>
</g>
<!-- Node1&#45;&gt;Node7 -->
<g id="edge6" class="edge">
<title>Node1&#45;&gt;Node7</title>
<path fill="none" stroke="midnightblue" d="M341.9,-112.5C363.37,-102.01 389.27,-89.35 408.3,-80.05"/>
<polygon fill="midnightblue" stroke="midnightblue" points="409.85,-83.19 417.3,-75.65 406.77,-76.9 409.85,-83.19"/>
</g>
<!-- Node8 -->
<g id="node8" class="node">
<title>Node8</title>
<g id="a_node8"><a xlink:title=" ">
<polygon fill="white" stroke="#bfbfbf" points="473,-56.5 473,-75.5 531,-75.5 531,-56.5 473,-56.5"/>
<text text-anchor="middle" x="502" y="-63.5" font-family="Helvetica,sans-Serif" font-size="10.00">../can.hpp</text>
</a>
</g>
</g>
<!-- Node1&#45;&gt;Node8 -->
<g id="edge7" class="edge">
<title>Node1&#45;&gt;Node8</title>
<path fill="none" stroke="midnightblue" d="M362.01,-112.5C395.87,-101.49 437.06,-88.11 465.96,-78.71"/>
<polygon fill="midnightblue" stroke="midnightblue" points="467.21,-81.99 475.64,-75.57 465.05,-75.33 467.21,-81.99"/>
</g>
<!-- Node9 -->
<g id="node9" class="node">
<title>Node9</title>
<g id="a_node9"><a xlink:href="driver_8hpp.html" target="_top" xlink:title=" ">
<polygon fill="white" stroke="black" points="549,-56.5 549,-75.5 615,-75.5 615,-56.5 549,-56.5"/>
<text text-anchor="middle" x="582" y="-63.5" font-family="Helvetica,sans-Serif" font-size="10.00">../driver.hpp</text>
</a>
</g>
</g>
<!-- Node1&#45;&gt;Node9 -->
<g id="edge8" class="edge">
<title>Node1&#45;&gt;Node9</title>
<path fill="none" stroke="midnightblue" d="M367.29,-116.84C420.18,-104.57 493.17,-87.62 538.96,-76.99"/>
<polygon fill="midnightblue" stroke="midnightblue" points="539.92,-80.36 548.87,-74.69 538.33,-73.54 539.92,-80.36"/>
</g>
<!-- Node10 -->
<g id="node10" class="node">
<title>Node10</title>
<g id="a_node10"><a xlink:href="enum_8hpp.html" target="_top" xlink:title=" ">
<polygon fill="white" stroke="black" points="512.5,-0.5 512.5,-19.5 571.5,-19.5 571.5,-0.5 512.5,-0.5"/>
<text text-anchor="middle" x="542" y="-7.5" font-family="Helvetica,sans-Serif" font-size="10.00">enum.hpp</text>
</a>
</g>
</g>
<!-- Node9&#45;&gt;Node10 -->
<g id="edge9" class="edge">
<title>Node9&#45;&gt;Node10</title>
<path fill="none" stroke="midnightblue" d="M575.39,-56.08C569.74,-48.46 561.46,-37.26 554.55,-27.94"/>
<polygon fill="midnightblue" stroke="midnightblue" points="557.25,-25.7 548.48,-19.75 551.62,-29.87 557.25,-25.7"/>
</g>
<!-- Node11 -->
<g id="node11" class="node">
<title>Node11</title>
<g id="a_node11"><a xlink:title=" ">
<polygon fill="white" stroke="#bfbfbf" points="590,-0.5 590,-19.5 652,-19.5 652,-0.5 590,-0.5"/>
<text text-anchor="middle" x="621" y="-7.5" font-family="Helvetica,sans-Serif" font-size="10.00">type_traits</text>
</a>
</g>
</g>
<!-- Node9&#45;&gt;Node11 -->
<g id="edge10" class="edge">
<title>Node9&#45;&gt;Node11</title>
<path fill="none" stroke="midnightblue" d="M588.44,-56.08C593.95,-48.46 602.03,-37.26 608.76,-27.94"/>
<polygon fill="midnightblue" stroke="midnightblue" points="611.66,-29.91 614.68,-19.75 605.99,-25.81 611.66,-29.91"/>
</g>
</g>
</svg>
