<?xml version="1.0" encoding="UTF-8" standalone="no"?>
<!DOCTYPE svg PUBLIC "-//W3C//DTD SVG 1.1//EN"
 "http://www.w3.org/Graphics/SVG/1.1/DTD/svg11.dtd">
<!-- Generated by graphviz version 2.44.0 ()
 -->
<!-- Title: embed::dac Pages: 1 -->
<svg width="171pt" height="163pt"
 viewBox="0.00 0.00 171.00 163.00" xmlns="http://www.w3.org/2000/svg" xmlns:xlink="http://www.w3.org/1999/xlink">
<g id="graph0" class="graph" transform="scale(1 1) rotate(0) translate(4 159)">
<title>embed::dac</title>
<polygon fill="white" stroke="transparent" points="-4,4 -4,-159 167,-159 167,4 -4,4"/>
<!-- Node1 -->
<g id="node1" class="node">
<title>Node1</title>
<g id="a_node1"><a xlink:title="Digital to Analog Converter (DAC) hardware abstraction interface. Use this interface for devices and ...">
<polygon fill="#bfbfbf" stroke="black" points="34,-0.5 34,-19.5 100,-19.5 100,-0.5 34,-0.5"/>
<text text-anchor="middle" x="67" y="-7.5" font-family="Helvetica,sans-Serif" font-size="10.00">embed::dac</text>
</a>
</g>
</g>
<!-- Node2 -->
<g id="node2" class="node">
<title>Node2</title>
<g id="a_node2"><a xlink:href="classembed_1_1driver.html" target="_top" xlink:title="The basis class for all peripheral, device and system drivers in libembeddedhal.">
<polygon fill="white" stroke="black" points="0,-57.5 0,-76.5 134,-76.5 134,-57.5 0,-57.5"/>
<text text-anchor="middle" x="67" y="-64.5" font-family="Helvetica,sans-Serif" font-size="10.00">embed::driver&lt; settings_t &gt;</text>
</a>
</g>
</g>
<!-- Node2&#45;&gt;Node1 -->
<g id="edge1" class="edge">
<title>Node2&#45;&gt;Node1</title>
<path fill="none" stroke="midnightblue" d="M67,-47.12C67,-37.82 67,-27.06 67,-19.71"/>
<polygon fill="midnightblue" stroke="midnightblue" points="63.5,-47.41 67,-57.41 70.5,-47.41 63.5,-47.41"/>
</g>
<!-- Node3 -->
<g id="node3" class="node">
<title>Node3</title>
<g id="a_node3"><a xlink:href="structembed_1_1no__settings.html" target="_top" xlink:title="An empty settings structure used to indicate that a driver or interface does not have generic setting...">
<polygon fill="white" stroke="black" points="16.5,-135.5 16.5,-154.5 117.5,-154.5 117.5,-135.5 16.5,-135.5"/>
<text text-anchor="middle" x="67" y="-142.5" font-family="Helvetica,sans-Serif" font-size="10.00">embed::no_settings</text>
</a>
</g>
</g>
<!-- Node3&#45;&gt;Node2 -->
<g id="edge2" class="edge">
<title>Node3&#45;&gt;Node2</title>
<path fill="none" stroke="#9a32cd" stroke-dasharray="5,2" d="M67,-125.22C67,-109.7 67,-88.36 67,-76.62"/>
<polygon fill="#9a32cd" stroke="#9a32cd" points="63.5,-125.28 67,-135.28 70.5,-125.28 63.5,-125.28"/>
<text text-anchor="middle" x="115" y="-109" font-family="Helvetica,sans-Serif" font-size="10.00"> m_initialized_settings</text>
<text text-anchor="middle" x="115" y="-98" font-family="Helvetica,sans-Serif" font-size="10.00">m_settings</text>
</g>
</g>
</svg>
