<?xml version="1.0" encoding="UTF-8" standalone="no"?>
<!DOCTYPE svg PUBLIC "-//W3C//DTD SVG 1.1//EN"
 "http://www.w3.org/Graphics/SVG/1.1/DTD/svg11.dtd">
<!-- Generated by graphviz version 2.44.0 ()
 -->
<!-- Title: embed::driver&lt; settings_t &gt; Pages: 1 -->
<svg width="296pt" height="218pt"
 viewBox="0.00 0.00 296.00 218.00" xmlns="http://www.w3.org/2000/svg" xmlns:xlink="http://www.w3.org/1999/xlink">
<g id="graph0" class="graph" transform="scale(1 1) rotate(0) translate(4 214)">
<title>embed::driver&lt; settings_t &gt;</title>
<polygon fill="white" stroke="transparent" points="-4,4 -4,-214 292,-214 292,4 -4,4"/>
<!-- Node1 -->
<g id="node1" class="node">
<title>Node1</title>
<g id="a_node1"><a xlink:title="The basis class for all peripheral, device and system drivers in libembeddedhal.">
<polygon fill="#bfbfbf" stroke="black" points="0,-95.5 0,-114.5 134,-114.5 134,-95.5 0,-95.5"/>
<text text-anchor="middle" x="67" y="-102.5" font-family="Helvetica,sans-Serif" font-size="10.00">embed::driver&lt; settings_t &gt;</text>
</a>
</g>
</g>
<!-- Node2 -->
<g id="node2" class="node">
<title>Node2</title>
<g id="a_node2"><a xlink:href="classembed_1_1adc.html" target="_top" xlink:title="Analog to Digital Converter (ADC) hardware abstraction interface. Use this interface for devices and ...">
<polygon fill="white" stroke="black" points="190,-190.5 190,-209.5 268,-209.5 268,-190.5 190,-190.5"/>
<text text-anchor="middle" x="229" y="-197.5" font-family="Helvetica,sans-Serif" font-size="10.00">embed::adc&lt;&gt;</text>
</a>
</g>
</g>
<!-- Node1&#45;&gt;Node2 -->
<g id="edge1" class="edge">
<title>Node1&#45;&gt;Node2</title>
<path fill="none" stroke="midnightblue" d="M86.04,-121.32C105.53,-138.23 138.1,-164.45 170,-181 177.05,-184.66 184.95,-187.8 192.6,-190.42"/>
<polygon fill="midnightblue" stroke="midnightblue" points="88.35,-118.68 78.53,-114.7 83.72,-123.94 88.35,-118.68"/>
</g>
<!-- Node3 -->
<g id="node3" class="node">
<title>Node3</title>
<g id="a_node3"><a xlink:href="classembed_1_1can__network.html" target="_top" xlink:title="can_network is a canbus message receiver handler and">
<polygon fill="white" stroke="black" points="170,-152.5 170,-171.5 288,-171.5 288,-152.5 170,-152.5"/>
<text text-anchor="middle" x="229" y="-159.5" font-family="Helvetica,sans-Serif" font-size="10.00">embed::can_network&lt;&gt;</text>
</a>
</g>
</g>
<!-- Node1&#45;&gt;Node3 -->
<g id="edge2" class="edge">
<title>Node1&#45;&gt;Node3</title>
<path fill="none" stroke="midnightblue" d="M102.52,-118.25C122.22,-125.72 147.42,-135.1 170,-143 179.1,-146.18 189.06,-149.51 198.12,-152.46"/>
<polygon fill="midnightblue" stroke="midnightblue" points="103.64,-114.93 93.05,-114.65 101.15,-121.48 103.64,-114.93"/>
</g>
<!-- Node4 -->
<g id="node4" class="node">
<title>Node4</title>
<g id="a_node4"><a xlink:href="classembed_1_1counter.html" target="_top" xlink:title="Counter hardware abstraction interface. Use this interface for devices and peripherals that have coun...">
<polygon fill="white" stroke="black" points="181.5,-114.5 181.5,-133.5 276.5,-133.5 276.5,-114.5 181.5,-114.5"/>
<text text-anchor="middle" x="229" y="-121.5" font-family="Helvetica,sans-Serif" font-size="10.00">embed::counter&lt;&gt;</text>
</a>
</g>
</g>
<!-- Node1&#45;&gt;Node4 -->
<g id="edge3" class="edge">
<title>Node1&#45;&gt;Node4</title>
<path fill="none" stroke="midnightblue" d="M144.1,-114.04C156.76,-115.54 169.55,-117.06 181.2,-118.44"/>
<polygon fill="midnightblue" stroke="midnightblue" points="144.34,-110.54 134,-112.84 143.52,-117.49 144.34,-110.54"/>
</g>
<!-- Node5 -->
<g id="node5" class="node">
<title>Node5</title>
<g id="a_node5"><a xlink:href="classembed_1_1dac.html" target="_top" xlink:title="Digital to Analog Converter (DAC) hardware abstraction interface. Use this interface for devices and ...">
<polygon fill="white" stroke="black" points="190,-76.5 190,-95.5 268,-95.5 268,-76.5 190,-76.5"/>
<text text-anchor="middle" x="229" y="-83.5" font-family="Helvetica,sans-Serif" font-size="10.00">embed::dac&lt;&gt;</text>
</a>
</g>
</g>
<!-- Node1&#45;&gt;Node5 -->
<g id="edge4" class="edge">
<title>Node1&#45;&gt;Node5</title>
<path fill="none" stroke="midnightblue" d="M144.29,-95.94C160.03,-94.07 175.95,-92.18 189.63,-90.56"/>
<polygon fill="midnightblue" stroke="midnightblue" points="143.52,-92.51 134,-97.16 144.34,-99.46 143.52,-92.51"/>
</g>
<!-- Node6 -->
<g id="node6" class="node">
<title>Node6</title>
<g id="a_node6"><a xlink:href="classembed_1_1pwm.html" target="_top" xlink:title="Pulse Width Modulation (PWM) channel hardware abstraction.">
<polygon fill="white" stroke="black" points="187.5,-38.5 187.5,-57.5 270.5,-57.5 270.5,-38.5 187.5,-38.5"/>
<text text-anchor="middle" x="229" y="-45.5" font-family="Helvetica,sans-Serif" font-size="10.00">embed::pwm&lt;&gt;</text>
</a>
</g>
</g>
<!-- Node1&#45;&gt;Node6 -->
<g id="edge5" class="edge">
<title>Node1&#45;&gt;Node6</title>
<path fill="none" stroke="midnightblue" d="M102.52,-91.75C122.22,-84.28 147.42,-74.9 170,-67 179.1,-63.82 189.06,-60.49 198.12,-57.54"/>
<polygon fill="midnightblue" stroke="midnightblue" points="101.15,-88.52 93.05,-95.35 103.64,-95.07 101.15,-88.52"/>
</g>
<!-- Node7 -->
<g id="node7" class="node">
<title>Node7</title>
<g id="a_node7"><a xlink:href="classembed_1_1timer.html" target="_top" xlink:title="Timer hardware abstraction interface. Use this interface for devices and peripherals that have timer ...">
<polygon fill="white" stroke="black" points="187,-0.5 187,-19.5 271,-19.5 271,-0.5 187,-0.5"/>
<text text-anchor="middle" x="229" y="-7.5" font-family="Helvetica,sans-Serif" font-size="10.00">embed::timer&lt;&gt;</text>
</a>
</g>
</g>
<!-- Node1&#45;&gt;Node7 -->
<g id="edge6" class="edge">
<title>Node1&#45;&gt;Node7</title>
<path fill="none" stroke="midnightblue" d="M86.04,-88.68C105.53,-71.77 138.1,-45.55 170,-29 177.05,-25.34 184.95,-22.2 192.6,-19.58"/>
<polygon fill="midnightblue" stroke="midnightblue" points="83.72,-86.06 78.53,-95.3 88.35,-91.32 83.72,-86.06"/>
</g>
</g>
</svg>
