<?xml version="1.0" encoding="UTF-8" standalone="no"?>
<!DOCTYPE svg PUBLIC "-//W3C//DTD SVG 1.1//EN"
 "http://www.w3.org/Graphics/SVG/1.1/DTD/svg11.dtd">
<!-- Generated by graphviz version 2.44.0 ()
 -->
<!-- Title: /github/workspace/include/libembeddedhal Pages: 1 -->
<svg width="1076pt" height="111pt"
 viewBox="0.00 0.00 1076.00 111.00" xmlns="http://www.w3.org/2000/svg" xmlns:xlink="http://www.w3.org/1999/xlink">
<g id="graph0" class="graph" transform="scale(1 1) rotate(0) translate(4 107)">
<title>/github/workspace/include/libembeddedhal</title>
<polygon fill="white" stroke="transparent" points="-4,4 -4,-107 1072,-107 1072,4 -4,4"/>
<g id="clust1" class="cluster">
<title>clusterdir_d44c64559bbebec7f509842c48db8b23</title>
<g id="a_clust1"><a xlink:href="dir_d44c64559bbebec7f509842c48db8b23.html" target="_top" xlink:title="include">
<polygon fill="#ddddee" stroke="black" points="8,-8 8,-95 1060,-95 1060,-8 8,-8"/>
<text text-anchor="middle" x="534" y="-83" font-family="Helvetica,sans-Serif" font-size="10.00">include</text>
</a>
</g>
</g>
<g id="clust2" class="cluster">
<title>clusterdir_d44e2fde02e0e8a6a790ae54b19f7024</title>
<g id="a_clust2"><a xlink:href="dir_d44e2fde02e0e8a6a790ae54b19f7024.html" target="_top">
<polygon fill="#eeeeff" stroke="black" points="16,-16 16,-68 1052,-68 1052,-16 16,-16"/>
</a>
</g>
</g>
<!-- dir_d44e2fde02e0e8a6a790ae54b19f7024 -->
<g id="node1" class="node">
<title>dir_d44e2fde02e0e8a6a790ae54b19f7024</title>
<text text-anchor="middle" x="1002" y="-39.5" font-family="Helvetica,sans-Serif" font-size="10.00">libembeddedhal</text>
</g>
<!-- dir_927caa68e237d360131c9e07c9afa597 -->
<g id="node2" class="node">
<title>dir_927caa68e237d360131c9e07c9afa597</title>
<g id="a_node2"><a xlink:href="dir_927caa68e237d360131c9e07c9afa597.html" target="_top" xlink:title="adc">
<polygon fill="white" stroke="black" points="942,-60 888,-60 888,-24 942,-24 942,-60"/>
<text text-anchor="middle" x="915" y="-39.5" font-family="Helvetica,sans-Serif" font-size="10.00">adc</text>
</a>
</g>
</g>
<!-- dir_e20bf4e9710363826966b0b412d4debd -->
<g id="node3" class="node">
<title>dir_e20bf4e9710363826966b0b412d4debd</title>
<g id="a_node3"><a xlink:href="dir_e20bf4e9710363826966b0b412d4debd.html" target="_top" xlink:title="can">
<polygon fill="white" stroke="black" points="870,-60 816,-60 816,-24 870,-24 870,-60"/>
<text text-anchor="middle" x="843" y="-39.5" font-family="Helvetica,sans-Serif" font-size="10.00">can</text>
</a>
</g>
</g>
<!-- dir_f25ad95c46dd226bffda6bee6443a8fb -->
<g id="node4" class="node">
<title>dir_f25ad95c46dd226bffda6bee6443a8fb</title>
<g id="a_node4"><a xlink:href="dir_f25ad95c46dd226bffda6bee6443a8fb.html" target="_top" xlink:title="clock">
<polygon fill="white" stroke="black" points="798,-60 744,-60 744,-24 798,-24 798,-60"/>
<text text-anchor="middle" x="771" y="-39.5" font-family="Helvetica,sans-Serif" font-size="10.00">clock</text>
</a>
</g>
</g>
<!-- dir_ad8ece6cee1ba925824cfdb6f5c3da75 -->
<g id="node5" class="node">
<title>dir_ad8ece6cee1ba925824cfdb6f5c3da75</title>
<g id="a_node5"><a xlink:href="dir_ad8ece6cee1ba925824cfdb6f5c3da75.html" target="_top" xlink:title="counter">
<polygon fill="white" stroke="black" points="726,-60 672,-60 672,-24 726,-24 726,-60"/>
<text text-anchor="middle" x="699" y="-39.5" font-family="Helvetica,sans-Serif" font-size="10.00">counter</text>
</a>
</g>
</g>
<!-- dir_721e551b0c5204a89226dce355491e85 -->
<g id="node6" class="node">
<title>dir_721e551b0c5204a89226dce355491e85</title>
<g id="a_node6"><a xlink:href="dir_721e551b0c5204a89226dce355491e85.html" target="_top" xlink:title="dac">
<polygon fill="white" stroke="black" points="654,-60 600,-60 600,-24 654,-24 654,-60"/>
<text text-anchor="middle" x="627" y="-39.5" font-family="Helvetica,sans-Serif" font-size="10.00">dac</text>
</a>
</g>
</g>
<!-- dir_3cee096307004f9e28c0239776a33c26 -->
<g id="node7" class="node">
<title>dir_3cee096307004f9e28c0239776a33c26</title>
<g id="a_node7"><a xlink:href="dir_3cee096307004f9e28c0239776a33c26.html" target="_top" xlink:title="display">
<polygon fill="white" stroke="black" points="582,-60 528,-60 528,-24 582,-24 582,-60"/>
<text text-anchor="middle" x="555" y="-39.5" font-family="Helvetica,sans-Serif" font-size="10.00">display</text>
</a>
</g>
</g>
<!-- dir_55a4b9528082363551010136e678bdc9 -->
<g id="node8" class="node">
<title>dir_55a4b9528082363551010136e678bdc9</title>
<g id="a_node8"><a xlink:href="dir_55a4b9528082363551010136e678bdc9.html" target="_top" xlink:title="gpio">
<polygon fill="white" stroke="black" points="510,-60 456,-60 456,-24 510,-24 510,-60"/>
<text text-anchor="middle" x="483" y="-39.5" font-family="Helvetica,sans-Serif" font-size="10.00">gpio</text>
</a>
</g>
</g>
<!-- dir_4b54f0ad81c942e33daad38b7db927e0 -->
<g id="node9" class="node">
<title>dir_4b54f0ad81c942e33daad38b7db927e0</title>
<g id="a_node9"><a xlink:href="dir_4b54f0ad81c942e33daad38b7db927e0.html" target="_top" xlink:title="i2c">
<polygon fill="white" stroke="black" points="438,-60 384,-60 384,-24 438,-24 438,-60"/>
<text text-anchor="middle" x="411" y="-39.5" font-family="Helvetica,sans-Serif" font-size="10.00">i2c</text>
</a>
</g>
</g>
<!-- dir_c3ea8e27c6da74b0e03e34338a3d15a3 -->
<g id="node10" class="node">
<title>dir_c3ea8e27c6da74b0e03e34338a3d15a3</title>
<g id="a_node10"><a xlink:href="dir_c3ea8e27c6da74b0e03e34338a3d15a3.html" target="_top" xlink:title="imu">
<polygon fill="white" stroke="black" points="366,-60 312,-60 312,-24 366,-24 366,-60"/>
<text text-anchor="middle" x="339" y="-39.5" font-family="Helvetica,sans-Serif" font-size="10.00">imu</text>
</a>
</g>
</g>
<!-- dir_7c0c2efd89501992642cef17876e123b -->
<g id="node11" class="node">
<title>dir_7c0c2efd89501992642cef17876e123b</title>
<g id="a_node11"><a xlink:href="dir_7c0c2efd89501992642cef17876e123b.html" target="_top" xlink:title="pwm">
<polygon fill="white" stroke="black" points="294,-60 240,-60 240,-24 294,-24 294,-60"/>
<text text-anchor="middle" x="267" y="-39.5" font-family="Helvetica,sans-Serif" font-size="10.00">pwm</text>
</a>
</g>
</g>
<!-- dir_9ed38be3b360acaf3dfe962d6d8e508f -->
<g id="node12" class="node">
<title>dir_9ed38be3b360acaf3dfe962d6d8e508f</title>
<g id="a_node12"><a xlink:href="dir_9ed38be3b360acaf3dfe962d6d8e508f.html" target="_top" xlink:title="serial">
<polygon fill="white" stroke="black" points="222,-60 168,-60 168,-24 222,-24 222,-60"/>
<text text-anchor="middle" x="195" y="-39.5" font-family="Helvetica,sans-Serif" font-size="10.00">serial</text>
</a>
</g>
</g>
<!-- dir_fad7e47fb7d2c086310d40fe47f863bc -->
<g id="node13" class="node">
<title>dir_fad7e47fb7d2c086310d40fe47f863bc</title>
<g id="a_node13"><a xlink:href="dir_fad7e47fb7d2c086310d40fe47f863bc.html" target="_top" xlink:title="spi">
<polygon fill="white" stroke="black" points="150,-60 96,-60 96,-24 150,-24 150,-60"/>
<text text-anchor="middle" x="123" y="-39.5" font-family="Helvetica,sans-Serif" font-size="10.00">spi</text>
</a>
</g>
</g>
<!-- dir_b9f1d506e6dc52cb20d5a67ec9072e27 -->
<g id="node14" class="node">
<title>dir_b9f1d506e6dc52cb20d5a67ec9072e27</title>
<g id="a_node14"><a xlink:href="dir_b9f1d506e6dc52cb20d5a67ec9072e27.html" target="_top" xlink:title="timer">
<polygon fill="white" stroke="black" points="78,-60 24,-60 24,-24 78,-24 78,-60"/>
<text text-anchor="middle" x="51" y="-39.5" font-family="Helvetica,sans-Serif" font-size="10.00">timer</text>
</a>
</g>
</g>
</g>
</svg>
