<?xml version="1.0" encoding="UTF-8" standalone="no"?>
<!DOCTYPE svg PUBLIC "-//W3C//DTD SVG 1.1//EN"
 "http://www.w3.org/Graphics/SVG/1.1/DTD/svg11.dtd">
<!-- Generated by graphviz version 2.44.0 ()
 -->
<!-- Title: /github/workspace/include/libembeddedhal/driver.hpp Pages: 1 -->
<svg width="1738pt" height="117pt"
 viewBox="0.00 0.00 1738.00 117.00" xmlns="http://www.w3.org/2000/svg" xmlns:xlink="http://www.w3.org/1999/xlink">
<g id="graph0" class="graph" transform="scale(1 1) rotate(0) translate(4 113)">
<title>/github/workspace/include/libembeddedhal/driver.hpp</title>
<polygon fill="white" stroke="transparent" points="-4,4 -4,-113 1734,-113 1734,4 -4,4"/>
<!-- Node1 -->
<g id="node1" class="node">
<title>Node1</title>
<g id="a_node1"><a xlink:title=" ">
<polygon fill="#bfbfbf" stroke="black" points="787.5,-78.5 787.5,-108.5 919.5,-108.5 919.5,-78.5 787.5,-78.5"/>
<text text-anchor="start" x="795.5" y="-96.5" font-family="Helvetica,sans-Serif" font-size="10.00">/github/workspace/include</text>
<text text-anchor="middle" x="853.5" y="-85.5" font-family="Helvetica,sans-Serif" font-size="10.00">/libembeddedhal/driver.hpp</text>
</a>
</g>
</g>
<!-- Node2 -->
<g id="node2" class="node">
<title>Node2</title>
<g id="a_node2"><a xlink:href="adc_8hpp.html" target="_top" xlink:title=" ">
<polygon fill="white" stroke="black" points="0,-6 0,-36 143,-36 143,-6 0,-6"/>
<text text-anchor="start" x="8" y="-24" font-family="Helvetica,sans-Serif" font-size="10.00">/github/workspace/include</text>
<text text-anchor="middle" x="71.5" y="-13" font-family="Helvetica,sans-Serif" font-size="10.00">/libembeddedhal/adc/adc.hpp</text>
</a>
</g>
</g>
<!-- Node1&#45;&gt;Node2 -->
<g id="edge1" class="edge">
<title>Node1&#45;&gt;Node2</title>
<path fill="none" stroke="midnightblue" d="M777.04,-91.32C647.53,-88.37 377.06,-78.03 151.5,-42 141.89,-40.46 131.74,-38.33 122.01,-36.03"/>
<polygon fill="midnightblue" stroke="midnightblue" points="777.18,-94.83 787.25,-91.55 777.33,-87.83 777.18,-94.83"/>
</g>
<!-- Node3 -->
<g id="node3" class="node">
<title>Node3</title>
<g id="a_node3"><a xlink:href="can_8hpp.html" target="_top" xlink:title=" ">
<polygon fill="white" stroke="black" points="161,-6 161,-36 304,-36 304,-6 161,-6"/>
<text text-anchor="start" x="169" y="-24" font-family="Helvetica,sans-Serif" font-size="10.00">/github/workspace/include</text>
<text text-anchor="middle" x="232.5" y="-13" font-family="Helvetica,sans-Serif" font-size="10.00">/libembeddedhal/can/can.hpp</text>
</a>
</g>
</g>
<!-- Node1&#45;&gt;Node3 -->
<g id="edge2" class="edge">
<title>Node1&#45;&gt;Node3</title>
<path fill="none" stroke="midnightblue" d="M777.23,-88.95C672.22,-83.25 477.47,-69.75 313.5,-42 304.07,-40.4 294.12,-38.3 284.55,-36.06"/>
<polygon fill="midnightblue" stroke="midnightblue" points="777.25,-92.46 787.42,-89.49 777.62,-85.47 777.25,-92.46"/>
</g>
<!-- Node4 -->
<g id="node4" class="node">
<title>Node4</title>
<g id="a_node4"><a xlink:href="can__network_8hpp.html" target="_top" xlink:title=" ">
<polygon fill="white" stroke="black" points="322.5,-0.5 322.5,-41.5 452.5,-41.5 452.5,-0.5 322.5,-0.5"/>
<text text-anchor="start" x="330.5" y="-29.5" font-family="Helvetica,sans-Serif" font-size="10.00">/github/workspace/include</text>
<text text-anchor="start" x="330.5" y="-18.5" font-family="Helvetica,sans-Serif" font-size="10.00">/libembeddedhal/can/can</text>
<text text-anchor="middle" x="387.5" y="-7.5" font-family="Helvetica,sans-Serif" font-size="10.00">_network.hpp</text>
</a>
</g>
</g>
<!-- Node1&#45;&gt;Node4 -->
<g id="edge3" class="edge">
<title>Node1&#45;&gt;Node4</title>
<path fill="none" stroke="midnightblue" d="M776.77,-85.73C697.38,-77.99 570.03,-63.55 461.5,-42 458.63,-41.43 455.7,-40.81 452.76,-40.15"/>
<polygon fill="midnightblue" stroke="midnightblue" points="776.88,-89.25 787.17,-86.73 777.55,-82.28 776.88,-89.25"/>
</g>
<!-- Node5 -->
<g id="node5" class="node">
<title>Node5</title>
<g id="a_node5"><a xlink:href="counter_8hpp.html" target="_top" xlink:title=" ">
<polygon fill="white" stroke="black" points="470.5,-0.5 470.5,-41.5 600.5,-41.5 600.5,-0.5 470.5,-0.5"/>
<text text-anchor="start" x="478.5" y="-29.5" font-family="Helvetica,sans-Serif" font-size="10.00">/github/workspace/include</text>
<text text-anchor="start" x="478.5" y="-18.5" font-family="Helvetica,sans-Serif" font-size="10.00">/libembeddedhal/counter</text>
<text text-anchor="middle" x="535.5" y="-7.5" font-family="Helvetica,sans-Serif" font-size="10.00">/counter.hpp</text>
</a>
</g>
</g>
<!-- Node1&#45;&gt;Node5 -->
<g id="edge4" class="edge">
<title>Node1&#45;&gt;Node5</title>
<path fill="none" stroke="midnightblue" d="M777.19,-77.93C728.95,-68.41 665.38,-55.32 609.5,-42 606.65,-41.32 603.75,-40.61 600.82,-39.88"/>
<polygon fill="midnightblue" stroke="midnightblue" points="776.76,-81.41 787.24,-79.9 778.11,-74.54 776.76,-81.41"/>
</g>
<!-- Node6 -->
<g id="node6" class="node">
<title>Node6</title>
<g id="a_node6"><a xlink:href="dac_8hpp.html" target="_top" xlink:title=" ">
<polygon fill="white" stroke="black" points="619,-6 619,-36 762,-36 762,-6 619,-6"/>
<text text-anchor="start" x="627" y="-24" font-family="Helvetica,sans-Serif" font-size="10.00">/github/workspace/include</text>
<text text-anchor="middle" x="690.5" y="-13" font-family="Helvetica,sans-Serif" font-size="10.00">/libembeddedhal/dac/dac.hpp</text>
</a>
</g>
</g>
<!-- Node1&#45;&gt;Node6 -->
<g id="edge5" class="edge">
<title>Node1&#45;&gt;Node6</title>
<path fill="none" stroke="midnightblue" d="M811.52,-74.34C783.96,-62.42 748.45,-47.07 723.04,-36.07"/>
<polygon fill="midnightblue" stroke="midnightblue" points="810.34,-77.65 820.91,-78.4 813.12,-71.22 810.34,-77.65"/>
</g>
<!-- Node7 -->
<g id="node7" class="node">
<title>Node7</title>
<g id="a_node7"><a xlink:href="gpio_8hpp.html" target="_top" xlink:title=" ">
<polygon fill="white" stroke="black" points="780,-6 780,-36 927,-36 927,-6 780,-6"/>
<text text-anchor="start" x="788" y="-24" font-family="Helvetica,sans-Serif" font-size="10.00">/github/workspace/include</text>
<text text-anchor="middle" x="853.5" y="-13" font-family="Helvetica,sans-Serif" font-size="10.00">/libembeddedhal/gpio/gpio.hpp</text>
</a>
</g>
</g>
<!-- Node1&#45;&gt;Node7 -->
<g id="edge6" class="edge">
<title>Node1&#45;&gt;Node7</title>
<path fill="none" stroke="midnightblue" d="M853.5,-68.23C853.5,-57.57 853.5,-45.41 853.5,-36.25"/>
<polygon fill="midnightblue" stroke="midnightblue" points="850,-68.23 853.5,-78.23 857,-68.23 850,-68.23"/>
</g>
<!-- Node8 -->
<g id="node8" class="node">
<title>Node8</title>
<g id="a_node8"><a xlink:href="i2c_8hpp.html" target="_top" xlink:title=" ">
<polygon fill="white" stroke="black" points="945,-6 945,-36 1082,-36 1082,-6 945,-6"/>
<text text-anchor="start" x="953" y="-24" font-family="Helvetica,sans-Serif" font-size="10.00">/github/workspace/include</text>
<text text-anchor="middle" x="1013.5" y="-13" font-family="Helvetica,sans-Serif" font-size="10.00">/libembeddedhal/i2c/i2c.hpp</text>
</a>
</g>
</g>
<!-- Node1&#45;&gt;Node8 -->
<g id="edge7" class="edge">
<title>Node1&#45;&gt;Node8</title>
<path fill="none" stroke="midnightblue" d="M894.71,-74.34C921.76,-62.42 956.61,-47.07 981.56,-36.07"/>
<polygon fill="midnightblue" stroke="midnightblue" points="893.23,-71.17 885.49,-78.4 896.06,-77.57 893.23,-71.17"/>
</g>
<!-- Node9 -->
<g id="node9" class="node">
<title>Node9</title>
<g id="a_node9"><a xlink:href="pwm_8hpp.html" target="_top" xlink:title=" ">
<polygon fill="white" stroke="black" points="1100,-6 1100,-36 1253,-36 1253,-6 1100,-6"/>
<text text-anchor="start" x="1108" y="-24" font-family="Helvetica,sans-Serif" font-size="10.00">/github/workspace/include</text>
<text text-anchor="middle" x="1176.5" y="-13" font-family="Helvetica,sans-Serif" font-size="10.00">/libembeddedhal/pwm/pwm.hpp</text>
</a>
</g>
</g>
<!-- Node1&#45;&gt;Node9 -->
<g id="edge8" class="edge">
<title>Node1&#45;&gt;Node9</title>
<path fill="none" stroke="midnightblue" d="M929.56,-76.81C976.33,-67.05 1037.45,-54.09 1091.5,-42 1099.93,-40.11 1108.82,-38.08 1117.55,-36.05"/>
<polygon fill="midnightblue" stroke="midnightblue" points="928.58,-73.44 919.5,-78.9 930.01,-80.29 928.58,-73.44"/>
</g>
<!-- Node10 -->
<g id="node10" class="node">
<title>Node10</title>
<g id="a_node10"><a xlink:href="serial_8hpp.html" target="_top" xlink:title=" ">
<polygon fill="white" stroke="black" points="1271.5,-0.5 1271.5,-41.5 1401.5,-41.5 1401.5,-0.5 1271.5,-0.5"/>
<text text-anchor="start" x="1279.5" y="-29.5" font-family="Helvetica,sans-Serif" font-size="10.00">/github/workspace/include</text>
<text text-anchor="start" x="1279.5" y="-18.5" font-family="Helvetica,sans-Serif" font-size="10.00">/libembeddedhal/serial</text>
<text text-anchor="middle" x="1336.5" y="-7.5" font-family="Helvetica,sans-Serif" font-size="10.00">/serial.hpp</text>
</a>
</g>
</g>
<!-- Node1&#45;&gt;Node10 -->
<g id="edge9" class="edge">
<title>Node1&#45;&gt;Node10</title>
<path fill="none" stroke="midnightblue" d="M929.88,-86.31C1012.42,-78.88 1147.58,-64.51 1262.5,-42 1265.37,-41.44 1268.3,-40.82 1271.25,-40.17"/>
<polygon fill="midnightblue" stroke="midnightblue" points="929.48,-82.84 919.83,-87.21 930.1,-89.81 929.48,-82.84"/>
</g>
<!-- Node11 -->
<g id="node11" class="node">
<title>Node11</title>
<g id="a_node11"><a xlink:href="spi_8hpp.html" target="_top" xlink:title=" ">
<polygon fill="white" stroke="black" points="1420,-6 1420,-36 1557,-36 1557,-6 1420,-6"/>
<text text-anchor="start" x="1428" y="-24" font-family="Helvetica,sans-Serif" font-size="10.00">/github/workspace/include</text>
<text text-anchor="middle" x="1488.5" y="-13" font-family="Helvetica,sans-Serif" font-size="10.00">/libembeddedhal/spi/spi.hpp</text>
</a>
</g>
</g>
<!-- Node1&#45;&gt;Node11 -->
<g id="edge10" class="edge">
<title>Node1&#45;&gt;Node11</title>
<path fill="none" stroke="midnightblue" d="M929.67,-89.47C1037.41,-84.31 1240.17,-71.36 1410.5,-42 1419.73,-40.41 1429.47,-38.28 1438.82,-36.01"/>
<polygon fill="midnightblue" stroke="midnightblue" points="929.37,-85.98 919.54,-89.95 929.69,-92.97 929.37,-85.98"/>
</g>
<!-- Node12 -->
<g id="node12" class="node">
<title>Node12</title>
<g id="a_node12"><a xlink:href="timer_8hpp.html" target="_top" xlink:title=" ">
<polygon fill="white" stroke="black" points="1575,-6 1575,-36 1730,-36 1730,-6 1575,-6"/>
<text text-anchor="start" x="1583" y="-24" font-family="Helvetica,sans-Serif" font-size="10.00">/github/workspace/include</text>
<text text-anchor="middle" x="1652.5" y="-13" font-family="Helvetica,sans-Serif" font-size="10.00">/libembeddedhal/timer/timer.hpp</text>
</a>
</g>
</g>
<!-- Node1&#45;&gt;Node12 -->
<g id="edge11" class="edge">
<title>Node1&#45;&gt;Node12</title>
<path fill="none" stroke="midnightblue" d="M930.07,-91.03C1061.11,-87.64 1336.51,-76.67 1566.5,-42 1576.81,-40.45 1587.71,-38.31 1598.16,-36"/>
<polygon fill="midnightblue" stroke="midnightblue" points="929.65,-87.54 919.74,-91.29 929.83,-94.54 929.65,-87.54"/>
</g>
</g>
</svg>
