<?xml version="1.0" encoding="UTF-8" standalone="no"?>
<!DOCTYPE svg PUBLIC "-//W3C//DTD SVG 1.1//EN"
 "http://www.w3.org/Graphics/SVG/1.1/DTD/svg11.dtd">
<!-- Generated by graphviz version 2.44.0 ()
 -->
<!-- Title: /github/workspace/include/libembeddedhal/i2c/i2c.hpp Pages: 1 -->
<svg width="559pt" height="151pt"
 viewBox="0.00 0.00 559.00 151.00" xmlns="http://www.w3.org/2000/svg" xmlns:xlink="http://www.w3.org/1999/xlink">
<g id="graph0" class="graph" transform="scale(1 1) rotate(0) translate(4 147)">
<title>/github/workspace/include/libembeddedhal/i2c/i2c.hpp</title>
<polygon fill="white" stroke="transparent" points="-4,4 -4,-147 555,-147 555,4 -4,4"/>
<!-- Node1 -->
<g id="node1" class="node">
<title>Node1</title>
<g id="a_node1"><a xlink:title=" ">
<polygon fill="#bfbfbf" stroke="black" points="225,-112.5 225,-142.5 362,-142.5 362,-112.5 225,-112.5"/>
<text text-anchor="start" x="233" y="-130.5" font-family="Helvetica,sans-Serif" font-size="10.00">/github/workspace/include</text>
<text text-anchor="middle" x="293.5" y="-119.5" font-family="Helvetica,sans-Serif" font-size="10.00">/libembeddedhal/i2c/i2c.hpp</text>
</a>
</g>
</g>
<!-- Node2 -->
<g id="node2" class="node">
<title>Node2</title>
<g id="a_node2"><a xlink:href="driver_8hpp.html" target="_top" xlink:title=" ">
<polygon fill="white" stroke="black" points="75.5,-56.5 75.5,-75.5 141.5,-75.5 141.5,-56.5 75.5,-56.5"/>
<text text-anchor="middle" x="108.5" y="-63.5" font-family="Helvetica,sans-Serif" font-size="10.00">../driver.hpp</text>
</a>
</g>
</g>
<!-- Node1&#45;&gt;Node2 -->
<g id="edge1" class="edge">
<title>Node1&#45;&gt;Node2</title>
<path fill="none" stroke="midnightblue" d="M249.66,-112.4C217.69,-102.12 174.88,-88.35 144.82,-78.68"/>
<polygon fill="midnightblue" stroke="midnightblue" points="145.74,-75.3 135.15,-75.57 143.6,-81.96 145.74,-75.3"/>
</g>
<!-- Node5 -->
<g id="node5" class="node">
<title>Node5</title>
<g id="a_node5"><a xlink:href="full__scale_8hpp.html" target="_top" xlink:title=" ">
<polygon fill="white" stroke="black" points="252,-56.5 252,-75.5 335,-75.5 335,-56.5 252,-56.5"/>
<text text-anchor="middle" x="293.5" y="-63.5" font-family="Helvetica,sans-Serif" font-size="10.00">../full_scale.hpp</text>
</a>
</g>
</g>
<!-- Node1&#45;&gt;Node5 -->
<g id="edge4" class="edge">
<title>Node1&#45;&gt;Node5</title>
<path fill="none" stroke="midnightblue" d="M293.5,-112.4C293.5,-104.47 293.5,-94.46 293.5,-85.86"/>
<polygon fill="midnightblue" stroke="midnightblue" points="297,-85.66 293.5,-75.66 290,-85.66 297,-85.66"/>
</g>
<!-- Node7 -->
<g id="node7" class="node">
<title>Node7</title>
<g id="a_node7"><a xlink:title=" ">
<polygon fill="white" stroke="#bfbfbf" points="157.5,-0.5 157.5,-19.5 213.5,-19.5 213.5,-0.5 157.5,-0.5"/>
<text text-anchor="middle" x="185.5" y="-7.5" font-family="Helvetica,sans-Serif" font-size="10.00">cinttypes</text>
</a>
</g>
</g>
<!-- Node1&#45;&gt;Node7 -->
<g id="edge12" class="edge">
<title>Node1&#45;&gt;Node7</title>
<path fill="none" stroke="midnightblue" d="M278.86,-112.11C268.78,-102.11 255.16,-88.41 243.5,-76 228.2,-59.73 211.26,-40.6 199.65,-27.33"/>
<polygon fill="midnightblue" stroke="midnightblue" points="202.08,-24.78 192.87,-19.54 196.8,-29.38 202.08,-24.78"/>
</g>
<!-- Node10 -->
<g id="node10" class="node">
<title>Node10</title>
<g id="a_node10"><a xlink:title=" ">
<polygon fill="white" stroke="#bfbfbf" points="502,-0.5 502,-19.5 551,-19.5 551,-0.5 502,-0.5"/>
<text text-anchor="middle" x="526.5" y="-7.5" font-family="Helvetica,sans-Serif" font-size="10.00">cstddef</text>
</a>
</g>
</g>
<!-- Node1&#45;&gt;Node10 -->
<g id="edge13" class="edge">
<title>Node1&#45;&gt;Node10</title>
<path fill="none" stroke="midnightblue" d="M307.74,-112.44C324.39,-96.7 353.4,-71.39 382.5,-56 401.6,-45.9 455.89,-30.13 492.08,-20.19"/>
<polygon fill="midnightblue" stroke="midnightblue" points="493.04,-23.56 501.77,-17.55 491.2,-16.8 493.04,-23.56"/>
</g>
<!-- Node12 -->
<g id="node12" class="node">
<title>Node12</title>
<g id="a_node12"><a xlink:title=" ">
<polygon fill="white" stroke="#bfbfbf" points="391.5,-56.5 391.5,-75.5 429.5,-75.5 429.5,-56.5 391.5,-56.5"/>
<text text-anchor="middle" x="410.5" y="-63.5" font-family="Helvetica,sans-Serif" font-size="10.00">span</text>
</a>
</g>
</g>
<!-- Node1&#45;&gt;Node12 -->
<g id="edge14" class="edge">
<title>Node1&#45;&gt;Node12</title>
<path fill="none" stroke="midnightblue" d="M321.23,-112.4C340.33,-102.68 365.56,-89.86 384.32,-80.31"/>
<polygon fill="midnightblue" stroke="midnightblue" points="386.15,-83.31 393.48,-75.66 382.98,-77.07 386.15,-83.31"/>
</g>
<!-- Node3 -->
<g id="node3" class="node">
<title>Node3</title>
<g id="a_node3"><a xlink:href="enum_8hpp.html" target="_top" xlink:title=" ">
<polygon fill="white" stroke="black" points="0,-0.5 0,-19.5 59,-19.5 59,-0.5 0,-0.5"/>
<text text-anchor="middle" x="29.5" y="-7.5" font-family="Helvetica,sans-Serif" font-size="10.00">enum.hpp</text>
</a>
</g>
</g>
<!-- Node2&#45;&gt;Node3 -->
<g id="edge2" class="edge">
<title>Node2&#45;&gt;Node3</title>
<path fill="none" stroke="midnightblue" d="M95.81,-56.32C83.6,-47.98 64.92,-35.21 50.5,-25.35"/>
<polygon fill="midnightblue" stroke="midnightblue" points="52.39,-22.41 42.16,-19.65 48.44,-28.19 52.39,-22.41"/>
</g>
<!-- Node4 -->
<g id="node4" class="node">
<title>Node4</title>
<g id="a_node4"><a xlink:title=" ">
<polygon fill="white" stroke="#bfbfbf" points="77.5,-0.5 77.5,-19.5 139.5,-19.5 139.5,-0.5 77.5,-0.5"/>
<text text-anchor="middle" x="108.5" y="-7.5" font-family="Helvetica,sans-Serif" font-size="10.00">type_traits</text>
</a>
</g>
</g>
<!-- Node2&#45;&gt;Node4 -->
<g id="edge3" class="edge">
<title>Node2&#45;&gt;Node4</title>
<path fill="none" stroke="midnightblue" d="M108.5,-56.08C108.5,-49.01 108.5,-38.86 108.5,-29.99"/>
<polygon fill="midnightblue" stroke="midnightblue" points="112,-29.75 108.5,-19.75 105,-29.75 112,-29.75"/>
</g>
<!-- Node5&#45;&gt;Node4 -->
<g id="edge11" class="edge">
<title>Node5&#45;&gt;Node4</title>
<path fill="none" stroke="midnightblue" d="M264.19,-56.44C232.66,-47.24 182.37,-32.56 147.51,-22.39"/>
<polygon fill="midnightblue" stroke="midnightblue" points="148.26,-18.96 137.68,-19.52 146.3,-25.68 148.26,-18.96"/>
</g>
<!-- Node6 -->
<g id="node6" class="node">
<title>Node6</title>
<g id="a_node6"><a xlink:title=" ">
<polygon fill="white" stroke="#bfbfbf" points="231.5,-0.5 231.5,-19.5 287.5,-19.5 287.5,-0.5 231.5,-0.5"/>
<text text-anchor="middle" x="259.5" y="-7.5" font-family="Helvetica,sans-Serif" font-size="10.00">algorithm</text>
</a>
</g>
</g>
<!-- Node5&#45;&gt;Node6 -->
<g id="edge5" class="edge">
<title>Node5&#45;&gt;Node6</title>
<path fill="none" stroke="midnightblue" d="M287.89,-56.08C283.13,-48.53 276.18,-37.49 270.35,-28.23"/>
<polygon fill="midnightblue" stroke="midnightblue" points="273.3,-26.35 265.01,-19.75 267.38,-30.08 273.3,-26.35"/>
</g>
<!-- Node5&#45;&gt;Node7 -->
<g id="edge6" class="edge">
<title>Node5&#45;&gt;Node7</title>
<path fill="none" stroke="midnightblue" d="M276.15,-56.32C258.83,-47.66 231.98,-34.24 212,-24.25"/>
<polygon fill="midnightblue" stroke="midnightblue" points="213.32,-21 202.81,-19.65 210.19,-27.26 213.32,-21"/>
</g>
<!-- Node8 -->
<g id="node8" class="node">
<title>Node8</title>
<g id="a_node8"><a xlink:title=" ">
<polygon fill="white" stroke="#bfbfbf" points="306,-0.5 306,-19.5 351,-19.5 351,-0.5 306,-0.5"/>
<text text-anchor="middle" x="328.5" y="-7.5" font-family="Helvetica,sans-Serif" font-size="10.00">climits</text>
</a>
</g>
</g>
<!-- Node5&#45;&gt;Node8 -->
<g id="edge7" class="edge">
<title>Node5&#45;&gt;Node8</title>
<path fill="none" stroke="midnightblue" d="M299.28,-56.08C304.17,-48.53 311.33,-37.49 317.33,-28.23"/>
<polygon fill="midnightblue" stroke="midnightblue" points="320.33,-30.05 322.83,-19.75 314.45,-26.24 320.33,-30.05"/>
</g>
<!-- Node9 -->
<g id="node9" class="node">
<title>Node9</title>
<g id="a_node9"><a xlink:title=" ">
<polygon fill="white" stroke="#bfbfbf" points="369.5,-0.5 369.5,-19.5 425.5,-19.5 425.5,-0.5 369.5,-0.5"/>
<text text-anchor="middle" x="397.5" y="-7.5" font-family="Helvetica,sans-Serif" font-size="10.00">concepts</text>
</a>
</g>
</g>
<!-- Node5&#45;&gt;Node9 -->
<g id="edge8" class="edge">
<title>Node5&#45;&gt;Node9</title>
<path fill="none" stroke="midnightblue" d="M310.21,-56.32C326.81,-47.7 352.5,-34.36 371.72,-24.39"/>
<polygon fill="midnightblue" stroke="midnightblue" points="373.57,-27.37 380.83,-19.65 370.34,-21.16 373.57,-27.37"/>
</g>
<!-- Node5&#45;&gt;Node10 -->
<g id="edge9" class="edge">
<title>Node5&#45;&gt;Node10</title>
<path fill="none" stroke="midnightblue" d="M333.24,-56.46C371.44,-48.15 431.02,-34.93 491.87,-20.09"/>
<polygon fill="midnightblue" stroke="midnightblue" points="492.77,-23.47 501.64,-17.69 491.1,-16.67 492.77,-23.47"/>
</g>
<!-- Node11 -->
<g id="node11" class="node">
<title>Node11</title>
<g id="a_node11"><a xlink:title=" ">
<polygon fill="white" stroke="#bfbfbf" points="443.5,-0.5 443.5,-19.5 483.5,-19.5 483.5,-0.5 443.5,-0.5"/>
<text text-anchor="middle" x="463.5" y="-7.5" font-family="Helvetica,sans-Serif" font-size="10.00">limits</text>
</a>
</g>
</g>
<!-- Node5&#45;&gt;Node11 -->
<g id="edge10" class="edge">
<title>Node5&#45;&gt;Node11</title>
<path fill="none" stroke="midnightblue" d="M320.44,-56.44C351.27,-46.65 401.64,-30.65 433.64,-20.48"/>
<polygon fill="midnightblue" stroke="midnightblue" points="434.87,-23.77 443.34,-17.4 432.75,-17.09 434.87,-23.77"/>
</g>
</g>
</svg>
