<?xml version="1.0" encoding="UTF-8" standalone="no"?>
<!DOCTYPE svg PUBLIC "-//W3C//DTD SVG 1.1//EN"
 "http://www.w3.org/Graphics/SVG/1.1/DTD/svg11.dtd">
<!-- Generated by graphviz version 2.44.0 ()
 -->
<!-- Title: Graphical Class Hierarchy Pages: 1 -->
<svg width="284pt" height="218pt"
 viewBox="0.00 0.00 284.00 218.00" xmlns="http://www.w3.org/2000/svg" xmlns:xlink="http://www.w3.org/1999/xlink">
<g id="graph0" class="graph" transform="scale(1 1) rotate(0) translate(4 214)">
<title>Graphical Class Hierarchy</title>
<polygon fill="white" stroke="transparent" points="-4,4 -4,-214 280,-214 280,4 -4,4"/>
<!-- Node0 -->
<g id="node1" class="node">
<title>Node0</title>
<g id="a_node1"><a xlink:href="classembed_1_1driver.html" target="_top" xlink:title="The basis class for all peripheral, device and system drivers in libembeddedhal.">
<polygon fill="white" stroke="black" points="0,-95.5 0,-114.5 134,-114.5 134,-95.5 0,-95.5"/>
<text text-anchor="middle" x="67" y="-102.5" font-family="Helvetica,sans-Serif" font-size="10.00">embed::driver&lt; settings_t &gt;</text>
</a>
</g>
</g>
<!-- Node1 -->
<g id="node2" class="node">
<title>Node1</title>
<g id="a_node2"><a xlink:href="classembed_1_1adc.html" target="_top" xlink:title="Analog to Digital Converter (ADC) hardware abstraction interface. Use this interface for devices and ...">
<polygon fill="white" stroke="black" points="190,-190.5 190,-209.5 256,-209.5 256,-190.5 190,-190.5"/>
<text text-anchor="middle" x="223" y="-197.5" font-family="Helvetica,sans-Serif" font-size="10.00">embed::adc</text>
</a>
</g>
</g>
<!-- Node0&#45;&gt;Node1 -->
<g id="edge1" class="edge">
<title>Node0&#45;&gt;Node1</title>
<path fill="none" stroke="midnightblue" d="M86.42,-121.33C106.03,-138.07 138.52,-163.99 170,-181 176.68,-184.61 184.19,-187.8 191.38,-190.49"/>
<polygon fill="midnightblue" stroke="midnightblue" points="88.45,-118.46 78.6,-114.56 83.87,-123.75 88.45,-118.46"/>
</g>
<!-- Node2 -->
<g id="node3" class="node">
<title>Node2</title>
<g id="a_node3"><a xlink:href="classembed_1_1can__network.html" target="_top" xlink:title="can_network is a canbus message receiver handler and">
<polygon fill="white" stroke="black" points="170,-152.5 170,-171.5 276,-171.5 276,-152.5 170,-152.5"/>
<text text-anchor="middle" x="223" y="-159.5" font-family="Helvetica,sans-Serif" font-size="10.00">embed::can_network</text>
</a>
</g>
</g>
<!-- Node0&#45;&gt;Node2 -->
<g id="edge2" class="edge">
<title>Node0&#45;&gt;Node2</title>
<path fill="none" stroke="midnightblue" d="M103.03,-118.11C122.7,-125.46 147.71,-134.77 170,-143 178.39,-146.09 187.54,-149.45 195.8,-152.46"/>
<polygon fill="midnightblue" stroke="midnightblue" points="104.15,-114.79 93.55,-114.57 101.7,-121.35 104.15,-114.79"/>
</g>
<!-- Node3 -->
<g id="node4" class="node">
<title>Node3</title>
<g id="a_node4"><a xlink:href="classembed_1_1counter.html" target="_top" xlink:title="Counter hardware abstraction interface. Use this interface for devices and peripherals that have coun...">
<polygon fill="white" stroke="black" points="181.5,-114.5 181.5,-133.5 264.5,-133.5 264.5,-114.5 181.5,-114.5"/>
<text text-anchor="middle" x="223" y="-121.5" font-family="Helvetica,sans-Serif" font-size="10.00">embed::counter</text>
</a>
</g>
</g>
<!-- Node0&#45;&gt;Node3 -->
<g id="edge3" class="edge">
<title>Node0&#45;&gt;Node3</title>
<path fill="none" stroke="midnightblue" d="M144.37,-114.42C157.09,-115.99 169.83,-117.56 181.21,-118.97"/>
<polygon fill="midnightblue" stroke="midnightblue" points="144.56,-110.92 134.2,-113.17 143.7,-117.87 144.56,-110.92"/>
</g>
<!-- Node4 -->
<g id="node5" class="node">
<title>Node4</title>
<g id="a_node5"><a xlink:href="classembed_1_1dac.html" target="_top" xlink:title="Digital to Analog Converter (DAC) hardware abstraction interface. Use this interface for devices and ...">
<polygon fill="white" stroke="black" points="190,-76.5 190,-95.5 256,-95.5 256,-76.5 190,-76.5"/>
<text text-anchor="middle" x="223" y="-83.5" font-family="Helvetica,sans-Serif" font-size="10.00">embed::dac</text>
</a>
</g>
</g>
<!-- Node0&#45;&gt;Node4 -->
<g id="edge4" class="edge">
<title>Node0&#45;&gt;Node4</title>
<path fill="none" stroke="midnightblue" d="M144.18,-95.6C160.25,-93.62 176.37,-91.63 189.74,-89.98"/>
<polygon fill="midnightblue" stroke="midnightblue" points="143.7,-92.13 134.2,-96.83 144.56,-99.08 143.7,-92.13"/>
</g>
<!-- Node5 -->
<g id="node6" class="node">
<title>Node5</title>
<g id="a_node6"><a xlink:href="classembed_1_1pwm.html" target="_top" xlink:title="Pulse Width Modulation (PWM) channel hardware abstraction.">
<polygon fill="white" stroke="black" points="187.5,-38.5 187.5,-57.5 258.5,-57.5 258.5,-38.5 187.5,-38.5"/>
<text text-anchor="middle" x="223" y="-45.5" font-family="Helvetica,sans-Serif" font-size="10.00">embed::pwm</text>
</a>
</g>
</g>
<!-- Node0&#45;&gt;Node5 -->
<g id="edge5" class="edge">
<title>Node0&#45;&gt;Node5</title>
<path fill="none" stroke="midnightblue" d="M103.03,-91.89C122.7,-84.54 147.71,-75.23 170,-67 178.39,-63.91 187.54,-60.55 195.8,-57.54"/>
<polygon fill="midnightblue" stroke="midnightblue" points="101.7,-88.65 93.55,-95.43 104.15,-95.21 101.7,-88.65"/>
</g>
<!-- Node6 -->
<g id="node7" class="node">
<title>Node6</title>
<g id="a_node7"><a xlink:href="classembed_1_1timer.html" target="_top" xlink:title="Timer hardware abstraction interface. Use this interface for devices and peripherals that have timer ...">
<polygon fill="white" stroke="black" points="187,-0.5 187,-19.5 259,-19.5 259,-0.5 187,-0.5"/>
<text text-anchor="middle" x="223" y="-7.5" font-family="Helvetica,sans-Serif" font-size="10.00">embed::timer</text>
</a>
</g>
</g>
<!-- Node0&#45;&gt;Node6 -->
<g id="edge6" class="edge">
<title>Node0&#45;&gt;Node6</title>
<path fill="none" stroke="midnightblue" d="M86.42,-88.67C106.03,-71.93 138.52,-46.01 170,-29 176.68,-25.39 184.19,-22.2 191.38,-19.51"/>
<polygon fill="midnightblue" stroke="midnightblue" points="83.87,-86.25 78.6,-95.44 88.45,-91.54 83.87,-86.25"/>
</g>
</g>
</svg>
