<?xml version="1.0" encoding="UTF-8" standalone="no"?>
<!DOCTYPE svg PUBLIC "-//W3C//DTD SVG 1.1//EN"
 "http://www.w3.org/Graphics/SVG/1.1/DTD/svg11.dtd">
<!-- Generated by graphviz version 2.44.0 ()
 -->
<!-- Title: /github/workspace/include/libembeddedhal/spi/spi.hpp Pages: 1 -->
<svg width="394pt" height="151pt"
 viewBox="0.00 0.00 393.50 151.00" xmlns="http://www.w3.org/2000/svg" xmlns:xlink="http://www.w3.org/1999/xlink">
<g id="graph0" class="graph" transform="scale(1 1) rotate(0) translate(4 147)">
<title>/github/workspace/include/libembeddedhal/spi/spi.hpp</title>
<polygon fill="white" stroke="transparent" points="-4,4 -4,-147 389.5,-147 389.5,4 -4,4"/>
<!-- Node1 -->
<g id="node1" class="node">
<title>Node1</title>
<g id="a_node1"><a xlink:title=" ">
<polygon fill="#bfbfbf" stroke="black" points="165,-112.5 165,-142.5 302,-142.5 302,-112.5 165,-112.5"/>
<text text-anchor="start" x="173" y="-130.5" font-family="Helvetica,sans-Serif" font-size="10.00">/github/workspace/include</text>
<text text-anchor="middle" x="233.5" y="-119.5" font-family="Helvetica,sans-Serif" font-size="10.00">/libembeddedhal/spi/spi.hpp</text>
</a>
</g>
</g>
<!-- Node2 -->
<g id="node2" class="node">
<title>Node2</title>
<g id="a_node2"><a xlink:href="driver_8hpp.html" target="_top" xlink:title=" ">
<polygon fill="white" stroke="black" points="35.5,-56.5 35.5,-75.5 101.5,-75.5 101.5,-56.5 35.5,-56.5"/>
<text text-anchor="middle" x="68.5" y="-63.5" font-family="Helvetica,sans-Serif" font-size="10.00">../driver.hpp</text>
</a>
</g>
</g>
<!-- Node1&#45;&gt;Node2 -->
<g id="edge1" class="edge">
<title>Node1&#45;&gt;Node2</title>
<path fill="none" stroke="midnightblue" d="M194.4,-112.4C166.34,-102.28 128.93,-88.79 102.19,-79.15"/>
<polygon fill="midnightblue" stroke="midnightblue" points="103.1,-75.76 92.51,-75.66 100.73,-82.34 103.1,-75.76"/>
</g>
<!-- Node5 -->
<g id="node5" class="node">
<title>Node5</title>
<g id="a_node5"><a xlink:title=" ">
<polygon fill="white" stroke="#bfbfbf" points="119.5,-56.5 119.5,-75.5 187.5,-75.5 187.5,-56.5 119.5,-56.5"/>
<text text-anchor="middle" x="153.5" y="-63.5" font-family="Helvetica,sans-Serif" font-size="10.00">inactive.hpp</text>
</a>
</g>
</g>
<!-- Node1&#45;&gt;Node5 -->
<g id="edge4" class="edge">
<title>Node1&#45;&gt;Node5</title>
<path fill="none" stroke="midnightblue" d="M214.54,-112.4C202.08,-103.13 185.8,-91.03 173.19,-81.65"/>
<polygon fill="midnightblue" stroke="midnightblue" points="175.25,-78.82 165.14,-75.66 171.08,-84.43 175.25,-78.82"/>
</g>
<!-- Node6 -->
<g id="node6" class="node">
<title>Node6</title>
<g id="a_node6"><a xlink:title=" ">
<polygon fill="white" stroke="#bfbfbf" points="205.5,-56.5 205.5,-75.5 261.5,-75.5 261.5,-56.5 205.5,-56.5"/>
<text text-anchor="middle" x="233.5" y="-63.5" font-family="Helvetica,sans-Serif" font-size="10.00">cinttypes</text>
</a>
</g>
</g>
<!-- Node1&#45;&gt;Node6 -->
<g id="edge5" class="edge">
<title>Node1&#45;&gt;Node6</title>
<path fill="none" stroke="midnightblue" d="M233.5,-112.4C233.5,-104.47 233.5,-94.46 233.5,-85.86"/>
<polygon fill="midnightblue" stroke="midnightblue" points="237,-85.66 233.5,-75.66 230,-85.66 237,-85.66"/>
</g>
<!-- Node7 -->
<g id="node7" class="node">
<title>Node7</title>
<g id="a_node7"><a xlink:title=" ">
<polygon fill="white" stroke="#bfbfbf" points="280,-56.5 280,-75.5 329,-75.5 329,-56.5 280,-56.5"/>
<text text-anchor="middle" x="304.5" y="-63.5" font-family="Helvetica,sans-Serif" font-size="10.00">cstddef</text>
</a>
</g>
</g>
<!-- Node1&#45;&gt;Node7 -->
<g id="edge6" class="edge">
<title>Node1&#45;&gt;Node7</title>
<path fill="none" stroke="midnightblue" d="M250.33,-112.4C261.17,-103.31 275.28,-91.49 286.37,-82.19"/>
<polygon fill="midnightblue" stroke="midnightblue" points="288.75,-84.76 294.17,-75.66 284.26,-79.4 288.75,-84.76"/>
</g>
<!-- Node8 -->
<g id="node8" class="node">
<title>Node8</title>
<g id="a_node8"><a xlink:title=" ">
<polygon fill="white" stroke="#bfbfbf" points="347.5,-56.5 347.5,-75.5 385.5,-75.5 385.5,-56.5 347.5,-56.5"/>
<text text-anchor="middle" x="366.5" y="-63.5" font-family="Helvetica,sans-Serif" font-size="10.00">span</text>
</a>
</g>
</g>
<!-- Node1&#45;&gt;Node8 -->
<g id="edge7" class="edge">
<title>Node1&#45;&gt;Node8</title>
<path fill="none" stroke="midnightblue" d="M265.02,-112.4C287.14,-102.51 316.47,-89.38 337.91,-79.79"/>
<polygon fill="midnightblue" stroke="midnightblue" points="339.45,-82.94 347.15,-75.66 336.59,-76.55 339.45,-82.94"/>
</g>
<!-- Node3 -->
<g id="node3" class="node">
<title>Node3</title>
<g id="a_node3"><a xlink:href="enum_8hpp.html" target="_top" xlink:title=" ">
<polygon fill="white" stroke="black" points="0,-0.5 0,-19.5 59,-19.5 59,-0.5 0,-0.5"/>
<text text-anchor="middle" x="29.5" y="-7.5" font-family="Helvetica,sans-Serif" font-size="10.00">enum.hpp</text>
</a>
</g>
</g>
<!-- Node2&#45;&gt;Node3 -->
<g id="edge2" class="edge">
<title>Node2&#45;&gt;Node3</title>
<path fill="none" stroke="midnightblue" d="M62.06,-56.08C56.55,-48.46 48.47,-37.26 41.74,-27.94"/>
<polygon fill="midnightblue" stroke="midnightblue" points="44.51,-25.81 35.82,-19.75 38.84,-29.91 44.51,-25.81"/>
</g>
<!-- Node4 -->
<g id="node4" class="node">
<title>Node4</title>
<g id="a_node4"><a xlink:title=" ">
<polygon fill="white" stroke="#bfbfbf" points="77.5,-0.5 77.5,-19.5 139.5,-19.5 139.5,-0.5 77.5,-0.5"/>
<text text-anchor="middle" x="108.5" y="-7.5" font-family="Helvetica,sans-Serif" font-size="10.00">type_traits</text>
</a>
</g>
</g>
<!-- Node2&#45;&gt;Node4 -->
<g id="edge3" class="edge">
<title>Node2&#45;&gt;Node4</title>
<path fill="none" stroke="midnightblue" d="M75.11,-56.08C80.76,-48.46 89.04,-37.26 95.95,-27.94"/>
<polygon fill="midnightblue" stroke="midnightblue" points="98.88,-29.87 102.02,-19.75 93.25,-25.7 98.88,-29.87"/>
</g>
</g>
</svg>
