<?xml version="1.0" encoding="UTF-8" standalone="no"?>
<!DOCTYPE svg PUBLIC "-//W3C//DTD SVG 1.1//EN"
 "http://www.w3.org/Graphics/SVG/1.1/DTD/svg11.dtd">
<!-- Generated by graphviz version 3.0.0 (20220413.0242)
 -->
<!-- Title: embed::spy_handler::record Pages: 1 -->
<svg width="239pt" height="52pt"
 viewBox="0.00 0.00 239.00 51.50" xmlns="http://www.w3.org/2000/svg" xmlns:xlink="http://www.w3.org/1999/xlink">
<g id="graph0" class="graph" transform="scale(1 1) rotate(0) translate(4 47.5)">
<title>embed::spy_handler::record</title>
<polygon fill="white" stroke="transparent" points="-4,4 -4,-47.5 235,-47.5 235,4 -4,4"/>
<!-- Node1 -->
<g id="node1" class="node">
<title>Node1</title>
<g id="a_node1"><a xlink:title="Record the arguments of a function being spied on.">
<polygon fill="#bfbfbf" stroke="black" points="0,-0.5 0,-30.5 102,-30.5 102,-0.5 0,-0.5"/>
<text text-anchor="start" x="8" y="-18.5" font-family="Helvetica,sans-Serif" font-size="10.00">embed::spy_handler</text>
<text text-anchor="middle" x="51" y="-7.5" font-family="Helvetica,sans-Serif" font-size="10.00">::record</text>
</a>
</g>
</g>
<!-- Node2 -->
<g id="node2" class="node">
<title>Node2</title>
<g id="a_node2"><a xlink:href="namespaceembed.html#a87973d938f95cc08d58ae8d55707043a" target="_top" xlink:title=" ">
<polygon fill="white" stroke="black" points="138,-6 138,-25 231,-25 231,-6 138,-6"/>
<text text-anchor="middle" x="184.5" y="-13" font-family="Helvetica,sans-Serif" font-size="10.00">embed::new_error</text>
</a>
</g>
</g>
<!-- Node1&#45;&gt;Node2 -->
<g id="edge1" class="edge">
<title>Node1&#45;&gt;Node2</title>
<path fill="none" stroke="midnightblue" d="M102.09,-15.5C110.45,-15.5 119.17,-15.5 127.66,-15.5"/>
<polygon fill="midnightblue" stroke="midnightblue" points="127.87,-19 137.87,-15.5 127.87,-12 127.87,-19"/>
</g>
<!-- Node2&#45;&gt;Node2 -->
<g id="edge2" class="edge">
<title>Node2&#45;&gt;Node2</title>
<path fill="none" stroke="midnightblue" d="M164.15,-25.26C154.26,-34.07 161.04,-43.5 184.5,-43.5 199.53,-43.5 207.71,-39.63 209.05,-34.53"/>
<polygon fill="midnightblue" stroke="midnightblue" points="212.17,-32.92 204.85,-25.26 205.79,-35.81 212.17,-32.92"/>
</g>
</g>
</svg>
