<?xml version="1.0" encoding="UTF-8" standalone="no"?>
<!DOCTYPE svg PUBLIC "-//W3C//DTD SVG 1.1//EN"
 "http://www.w3.org/Graphics/SVG/1.1/DTD/svg11.dtd">
<!-- Generated by graphviz version 3.0.0 (20220413.0242)
 -->
<!-- Title: embed::percent::percent Pages: 1 -->
<svg width="455pt" height="268pt"
 viewBox="0.00 0.00 455.00 268.00" xmlns="http://www.w3.org/2000/svg" xmlns:xlink="http://www.w3.org/1999/xlink">
<g id="graph0" class="graph" transform="scale(1 1) rotate(0) translate(4 264)">
<title>embed::percent::percent</title>
<polygon fill="white" stroke="transparent" points="-4,4 -4,-264 451,-264 451,4 -4,4"/>
<!-- Node1 -->
<g id="node1" class="node">
<title>Node1</title>
<g id="a_node1"><a xlink:title="Construct 0% percent object.">
<polygon fill="#bfbfbf" stroke="black" points="328,-95.5 328,-114.5 447,-114.5 447,-95.5 328,-95.5"/>
<text text-anchor="middle" x="387.5" y="-102.5" font-family="Helvetica,sans-Serif" font-size="10.00">embed::percent::percent</text>
</a>
</g>
</g>
<!-- Node2 -->
<g id="node2" class="node">
<title>Node2</title>
<g id="a_node2"><a xlink:href="classembed_1_1percent.html#ac103b96ed873d2d7500795d98e9aa666" target="_top" xlink:title="Convert a fixed width integer value into a percentage based on its distance to the end of its bit wid...">
<polygon fill="white" stroke="black" points="168.5,-202.5 168.5,-221.5 287.5,-221.5 287.5,-202.5 168.5,-202.5"/>
<text text-anchor="middle" x="228" y="-209.5" font-family="Helvetica,sans-Serif" font-size="10.00">embed::percent::convert</text>
</a>
</g>
</g>
<!-- Node1&#45;&gt;Node2 -->
<g id="edge1" class="edge">
<title>Node1&#45;&gt;Node2</title>
<path fill="none" stroke="midnightblue" d="M372.25,-122.4C355.15,-142.21 324.66,-174.24 292,-193 285.36,-196.81 277.88,-199.93 270.46,-202.46"/>
<polygon fill="midnightblue" stroke="midnightblue" points="374.95,-124.63 378.73,-114.73 369.61,-120.11 374.95,-124.63"/>
</g>
<!-- Node3 -->
<g id="node3" class="node">
<title>Node3</title>
<g id="a_node3"><a xlink:href="classembed_1_1percent.html#a3031fcd41ebdbc14fe77114d239c0b27" target="_top" xlink:title="Generate a percentage based on input relative to the maximum possible value.">
<polygon fill="white" stroke="black" points="174.5,-153 174.5,-183 281.5,-183 281.5,-153 174.5,-153"/>
<text text-anchor="start" x="182.5" y="-171" font-family="Helvetica,sans-Serif" font-size="10.00">embed::percent::from</text>
<text text-anchor="middle" x="228" y="-160" font-family="Helvetica,sans-Serif" font-size="10.00">_ratio</text>
</a>
</g>
</g>
<!-- Node1&#45;&gt;Node3 -->
<g id="edge2" class="edge">
<title>Node1&#45;&gt;Node3</title>
<path fill="none" stroke="midnightblue" d="M353.04,-118.38C327.73,-128.51 292.95,-142.42 266.66,-152.93"/>
<polygon fill="midnightblue" stroke="midnightblue" points="354.59,-121.53 362.58,-114.57 351.99,-115.03 354.59,-121.53"/>
</g>
<!-- Node7 -->
<g id="node7" class="node">
<title>Node7</title>
<g id="a_node7"><a xlink:href="classembed_1_1percent.html#afa379fbbb92bc5dc22f0dce8bcf7ea1b" target="_top" xlink:title="Get the percent after it is scaled to a range. The output percent is bound within the given range....">
<polygon fill="white" stroke="black" points="9,-114.5 9,-133.5 119,-133.5 119,-114.5 9,-114.5"/>
<text text-anchor="middle" x="64" y="-121.5" font-family="Helvetica,sans-Serif" font-size="10.00">embed::percent::scale</text>
</a>
</g>
</g>
<!-- Node1&#45;&gt;Node7 -->
<g id="edge16" class="edge">
<title>Node1&#45;&gt;Node7</title>
<path fill="none" stroke="midnightblue" d="M317.87,-109.06C258.52,-112.56 173.87,-117.57 119.18,-120.8"/>
<polygon fill="midnightblue" stroke="midnightblue" points="318.13,-112.55 327.91,-108.46 317.72,-105.56 318.13,-112.55"/>
</g>
<!-- Node8 -->
<g id="node8" class="node">
<title>Node8</title>
<g id="a_node8"><a xlink:href="classembed_1_1percent.html#a4a2ae6a33c1dbbefc292c791b325d5ad" target="_top" xlink:title=" ">
<polygon fill="white" stroke="black" points="164,-0.5 164,-19.5 292,-19.5 292,-0.5 164,-0.5"/>
<text text-anchor="middle" x="228" y="-7.5" font-family="Helvetica,sans-Serif" font-size="10.00">embed::percent::from_raw</text>
</a>
</g>
</g>
<!-- Node1&#45;&gt;Node8 -->
<g id="edge7" class="edge">
<title>Node1&#45;&gt;Node8</title>
<path fill="none" stroke="midnightblue" d="M369.89,-88.27C352.06,-71.17 322.2,-44.92 292,-29 284.82,-25.22 276.78,-22.07 268.91,-19.5"/>
<polygon fill="midnightblue" stroke="midnightblue" points="367.6,-90.92 377.2,-95.41 372.49,-85.92 367.6,-90.92"/>
</g>
<!-- Node9 -->
<g id="node9" class="node">
<title>Node9</title>
<g id="a_node9"><a xlink:href="classembed_1_1percent.html#a0f9fc596e3daa1948d0112b98544ef4f" target="_top" xlink:title="Get +100% percentage.">
<polygon fill="white" stroke="black" points="175.5,-76.5 175.5,-95.5 280.5,-95.5 280.5,-76.5 175.5,-76.5"/>
<text text-anchor="middle" x="228" y="-83.5" font-family="Helvetica,sans-Serif" font-size="10.00">embed::percent::max</text>
</a>
</g>
</g>
<!-- Node1&#45;&gt;Node9 -->
<g id="edge8" class="edge">
<title>Node1&#45;&gt;Node9</title>
<path fill="none" stroke="midnightblue" d="M317.56,-96.68C305.19,-95.19 292.48,-93.66 280.7,-92.24"/>
<polygon fill="midnightblue" stroke="midnightblue" points="317.51,-100.2 327.85,-97.93 318.34,-93.25 317.51,-100.2"/>
</g>
<!-- Node12 -->
<g id="node12" class="node">
<title>Node12</title>
<g id="a_node12"><a xlink:href="classembed_1_1percent.html#a82d4dc647320164d22dc480723c9671b" target="_top" xlink:title="Get &#45;100% percentage.">
<polygon fill="white" stroke="black" points="176.5,-38.5 176.5,-57.5 279.5,-57.5 279.5,-38.5 176.5,-38.5"/>
<text text-anchor="middle" x="228" y="-45.5" font-family="Helvetica,sans-Serif" font-size="10.00">embed::percent::min</text>
</a>
</g>
</g>
<!-- Node1&#45;&gt;Node12 -->
<g id="edge12" class="edge">
<title>Node1&#45;&gt;Node12</title>
<path fill="none" stroke="midnightblue" d="M354.9,-91.47C336.67,-83.87 313.21,-74.45 292,-67 282.51,-63.67 272.11,-60.38 262.53,-57.51"/>
<polygon fill="midnightblue" stroke="midnightblue" points="353.61,-94.72 364.18,-95.37 356.32,-88.27 353.61,-94.72"/>
</g>
<!-- Node4 -->
<g id="node4" class="node">
<title>Node4</title>
<g id="a_node4"><a xlink:href="classembed_1_1rc__servo.html#a026639b8cea2066eb30b175a5bb4c3d0" target="_top" xlink:title="Factory function to create a rc_servo object.">
<polygon fill="white" stroke="black" points="4.5,-240.5 4.5,-259.5 123.5,-259.5 123.5,-240.5 4.5,-240.5"/>
<text text-anchor="middle" x="64" y="-247.5" font-family="Helvetica,sans-Serif" font-size="10.00">embed::rc_servo::create</text>
</a>
</g>
</g>
<!-- Node3&#45;&gt;Node4 -->
<g id="edge3" class="edge">
<title>Node3&#45;&gt;Node4</title>
<path fill="none" stroke="midnightblue" d="M173.03,-187.53C169.9,-189.24 166.86,-191.06 164,-193 144.73,-206.04 147.8,-218.79 128,-231 121.78,-234.84 114.73,-237.94 107.66,-240.45"/>
<polygon fill="midnightblue" stroke="midnightblue" points="174.67,-190.62 182.05,-183.02 171.54,-184.36 174.67,-190.62"/>
</g>
<!-- Node5 -->
<g id="node5" class="node">
<title>Node5</title>
<g id="a_node5"><a xlink:href="group__utility.html#gafa1bc584612147c23f340cfd2786199c" target="_top" xlink:title="Map an target value [x] from an input range [a,b] to an output range [c,d].">
<polygon fill="white" stroke="black" points="29.5,-202.5 29.5,-221.5 98.5,-221.5 98.5,-202.5 29.5,-202.5"/>
<text text-anchor="middle" x="64" y="-209.5" font-family="Helvetica,sans-Serif" font-size="10.00">embed::map</text>
</a>
</g>
</g>
<!-- Node3&#45;&gt;Node5 -->
<g id="edge4" class="edge">
<title>Node3&#45;&gt;Node5</title>
<path fill="none" stroke="midnightblue" d="M164.58,-184.95C142.09,-191.06 117.58,-197.72 98.5,-202.9"/>
<polygon fill="midnightblue" stroke="midnightblue" points="165.67,-188.28 174.4,-182.29 163.84,-181.53 165.67,-188.28"/>
</g>
<!-- Node6 -->
<g id="node6" class="node">
<title>Node6</title>
<g id="a_node6"><a xlink:href="structembed_1_1duty__cycle.html#ae3211da17ad871387109a5d901a18183" target="_top" xlink:title="Conversion from duty cycle to percentage.">
<polygon fill="white" stroke="black" points="13.5,-153 13.5,-183 114.5,-183 114.5,-153 13.5,-153"/>
<text text-anchor="start" x="21.5" y="-171" font-family="Helvetica,sans-Serif" font-size="10.00">embed::duty_cycle::</text>
<text text-anchor="middle" x="64" y="-160" font-family="Helvetica,sans-Serif" font-size="10.00">operator percent</text>
</a>
</g>
</g>
<!-- Node3&#45;&gt;Node6 -->
<g id="edge5" class="edge">
<title>Node3&#45;&gt;Node6</title>
<path fill="none" stroke="midnightblue" d="M164.3,-168C147.82,-168 130.27,-168 114.58,-168"/>
<polygon fill="midnightblue" stroke="midnightblue" points="164.4,-171.5 174.4,-168 164.4,-164.5 164.4,-171.5"/>
</g>
<!-- Node3&#45;&gt;Node7 -->
<g id="edge6" class="edge">
<title>Node3&#45;&gt;Node7</title>
<path fill="none" stroke="midnightblue" d="M164.58,-151.05C142.85,-145.14 119.24,-138.73 100.47,-133.63"/>
<polygon fill="midnightblue" stroke="midnightblue" points="163.84,-154.47 174.4,-153.71 165.67,-147.72 163.84,-154.47"/>
</g>
<!-- Node9&#45;&gt;Node7 -->
<g id="edge10" class="edge">
<title>Node9&#45;&gt;Node7</title>
<path fill="none" stroke="midnightblue" d="M176.29,-97.9C153.51,-103.24 127.01,-109.45 105.59,-114.48"/>
<polygon fill="midnightblue" stroke="midnightblue" points="177.18,-101.28 186.12,-95.59 175.59,-94.47 177.18,-101.28"/>
</g>
<!-- Node10 -->
<g id="node10" class="node">
<title>Node10</title>
<g id="a_node10"><a xlink:href="classembed_1_1percent.html#af2a395e77ca5d840fc8ee29c4354dacb" target="_top" xlink:title="Assignment operator for a percent object based on a floating point value.">
<polygon fill="white" stroke="black" points="0,-76.5 0,-95.5 128,-95.5 128,-76.5 0,-76.5"/>
<text text-anchor="middle" x="64" y="-83.5" font-family="Helvetica,sans-Serif" font-size="10.00">embed::percent::operator=</text>
</a>
</g>
</g>
<!-- Node9&#45;&gt;Node10 -->
<g id="edge9" class="edge">
<title>Node9&#45;&gt;Node10</title>
<path fill="none" stroke="midnightblue" d="M165.26,-86C153.1,-86 140.33,-86 128.13,-86"/>
<polygon fill="midnightblue" stroke="midnightblue" points="165.3,-89.5 175.3,-86 165.3,-82.5 165.3,-89.5"/>
</g>
<!-- Node11 -->
<g id="node11" class="node">
<title>Node11</title>
<g id="a_node11"><a xlink:href="group__utility.html#ga860cfe310c0207e449c3b382cc49794b" target="_top" xlink:title="convert this percentage value into a string from &#45;1.0 to +1.0">
<polygon fill="white" stroke="black" points="20,-38.5 20,-57.5 108,-57.5 108,-38.5 20,-38.5"/>
<text text-anchor="middle" x="64" y="-45.5" font-family="Helvetica,sans-Serif" font-size="10.00">embed::to_string</text>
</a>
</g>
</g>
<!-- Node9&#45;&gt;Node11 -->
<g id="edge11" class="edge">
<title>Node9&#45;&gt;Node11</title>
<path fill="none" stroke="midnightblue" d="M176.29,-74.1C153.51,-68.76 127.01,-62.55 105.59,-57.52"/>
<polygon fill="midnightblue" stroke="midnightblue" points="175.59,-77.53 186.12,-76.41 177.18,-70.72 175.59,-77.53"/>
</g>
<!-- Node12&#45;&gt;Node7 -->
<g id="edge14" class="edge">
<title>Node12&#45;&gt;Node7</title>
<path fill="none" stroke="midnightblue" d="M174.82,-61.34C171.05,-63.02 167.4,-64.9 164,-67 144.2,-79.21 147.8,-92.79 128,-105 121.78,-108.84 114.73,-111.94 107.66,-114.45"/>
<polygon fill="midnightblue" stroke="midnightblue" points="176.34,-64.5 184.34,-57.55 173.76,-57.99 176.34,-64.5"/>
</g>
<!-- Node12&#45;&gt;Node10 -->
<g id="edge13" class="edge">
<title>Node12&#45;&gt;Node10</title>
<path fill="none" stroke="midnightblue" d="M176.29,-59.9C153.51,-65.24 127.01,-71.45 105.59,-76.48"/>
<polygon fill="midnightblue" stroke="midnightblue" points="177.18,-63.28 186.12,-57.59 175.59,-56.47 177.18,-63.28"/>
</g>
<!-- Node12&#45;&gt;Node11 -->
<g id="edge15" class="edge">
<title>Node12&#45;&gt;Node11</title>
<path fill="none" stroke="midnightblue" d="M165.97,-48C146.67,-48 125.76,-48 108,-48"/>
<polygon fill="midnightblue" stroke="midnightblue" points="166.19,-51.5 176.19,-48 166.19,-44.5 166.19,-51.5"/>
</g>
</g>
</svg>
