<?xml version="1.0" encoding="UTF-8" standalone="no"?>
<!DOCTYPE svg PUBLIC "-//W3C//DTD SVG 1.1//EN"
 "http://www.w3.org/Graphics/SVG/1.1/DTD/svg11.dtd">
<!-- Generated by graphviz version 3.0.0 (20220413.0242)
 -->
<!-- Title: embed::percent::raw_max Pages: 1 -->
<svg width="441pt" height="268pt"
 viewBox="0.00 0.00 441.00 268.00" xmlns="http://www.w3.org/2000/svg" xmlns:xlink="http://www.w3.org/1999/xlink">
<g id="graph0" class="graph" transform="scale(1 1) rotate(0) translate(4 264)">
<title>embed::percent::raw_max</title>
<polygon fill="white" stroke="transparent" points="-4,4 -4,-264 437,-264 437,4 -4,4"/>
<!-- Node1 -->
<g id="node1" class="node">
<title>Node1</title>
<g id="a_node1"><a xlink:title="Get the 100% value in its raw representation.">
<polygon fill="#bfbfbf" stroke="black" points="307,-76.5 307,-95.5 433,-95.5 433,-76.5 307,-76.5"/>
<text text-anchor="middle" x="370" y="-83.5" font-family="Helvetica,sans-Serif" font-size="10.00">embed::percent::raw_max</text>
</a>
</g>
</g>
<!-- Node2 -->
<g id="node2" class="node">
<title>Node2</title>
<g id="a_node2"><a xlink:href="classembed_1_1percent.html#a3031fcd41ebdbc14fe77114d239c0b27" target="_top" xlink:title="Generate a percentage based on input relative to the maximum possible value.">
<polygon fill="white" stroke="black" points="164,-153 164,-183 271,-183 271,-153 164,-153"/>
<text text-anchor="start" x="172" y="-171" font-family="Helvetica,sans-Serif" font-size="10.00">embed::percent::from</text>
<text text-anchor="middle" x="217.5" y="-160" font-family="Helvetica,sans-Serif" font-size="10.00">_ratio</text>
</a>
</g>
</g>
<!-- Node1&#45;&gt;Node2 -->
<g id="edge1" class="edge">
<title>Node1&#45;&gt;Node2</title>
<path fill="none" stroke="midnightblue" d="M342.53,-100.42C315.47,-115.16 273.62,-137.97 246.14,-152.94"/>
<polygon fill="midnightblue" stroke="midnightblue" points="344.33,-103.42 351.44,-95.57 340.99,-97.28 344.33,-103.42"/>
</g>
<!-- Node6 -->
<g id="node6" class="node">
<title>Node6</title>
<g id="a_node6"><a xlink:href="classembed_1_1percent.html#afa379fbbb92bc5dc22f0dce8bcf7ea1b" target="_top" xlink:title="Get the percent after it is scaled to a range. The output percent is bound within the given range....">
<polygon fill="white" stroke="black" points="9,-114.5 9,-133.5 119,-133.5 119,-114.5 9,-114.5"/>
<text text-anchor="middle" x="64" y="-121.5" font-family="Helvetica,sans-Serif" font-size="10.00">embed::percent::scale</text>
</a>
</g>
</g>
<!-- Node1&#45;&gt;Node6 -->
<g id="edge11" class="edge">
<title>Node1&#45;&gt;Node6</title>
<path fill="none" stroke="midnightblue" d="M314.67,-97.53C300.5,-100.26 285.22,-102.97 271,-105 219.8,-112.31 161.02,-117.4 119.39,-120.47"/>
<polygon fill="midnightblue" stroke="midnightblue" points="315.63,-100.91 324.76,-95.55 314.28,-94.04 315.63,-100.91"/>
</g>
<!-- Node7 -->
<g id="node7" class="node">
<title>Node7</title>
<g id="a_node7"><a xlink:href="classembed_1_1percent.html#a0f9fc596e3daa1948d0112b98544ef4f" target="_top" xlink:title="Get +100% percentage.">
<polygon fill="white" stroke="black" points="165,-76.5 165,-95.5 270,-95.5 270,-76.5 165,-76.5"/>
<text text-anchor="middle" x="217.5" y="-83.5" font-family="Helvetica,sans-Serif" font-size="10.00">embed::percent::max</text>
</a>
</g>
</g>
<!-- Node1&#45;&gt;Node7 -->
<g id="edge6" class="edge">
<title>Node1&#45;&gt;Node7</title>
<path fill="none" stroke="midnightblue" d="M296.87,-86C287.93,-86 278.93,-86 270.38,-86"/>
<polygon fill="midnightblue" stroke="midnightblue" points="296.92,-89.5 306.92,-86 296.92,-82.5 296.92,-89.5"/>
</g>
<!-- Node8 -->
<g id="node8" class="node">
<title>Node8</title>
<g id="a_node8"><a xlink:href="classembed_1_1percent.html#af2a395e77ca5d840fc8ee29c4354dacb" target="_top" xlink:title="Assignment operator for a percent object based on a floating point value.">
<polygon fill="white" stroke="black" points="0,-38.5 0,-57.5 128,-57.5 128,-38.5 0,-38.5"/>
<text text-anchor="middle" x="64" y="-45.5" font-family="Helvetica,sans-Serif" font-size="10.00">embed::percent::operator=</text>
</a>
</g>
</g>
<!-- Node1&#45;&gt;Node8 -->
<g id="edge10" class="edge">
<title>Node1&#45;&gt;Node8</title>
<path fill="none" stroke="midnightblue" d="M314.67,-74.47C300.5,-71.74 285.22,-69.03 271,-67 223.36,-60.2 169.15,-55.31 128.3,-52.2"/>
<polygon fill="midnightblue" stroke="midnightblue" points="314.28,-77.96 324.76,-76.45 315.63,-71.09 314.28,-77.96"/>
</g>
<!-- Node10 -->
<g id="node10" class="node">
<title>Node10</title>
<g id="a_node10"><a xlink:href="classembed_1_1percent.html#a642dbcdfc12e1844ab286d524f4c45d7" target="_top" xlink:title="Convert percent to a floating point representation.">
<polygon fill="white" stroke="black" points="170,-0.5 170,-19.5 265,-19.5 265,-0.5 170,-0.5"/>
<text text-anchor="middle" x="217.5" y="-7.5" font-family="Helvetica,sans-Serif" font-size="10.00">embed::percent::to</text>
</a>
</g>
</g>
<!-- Node1&#45;&gt;Node10 -->
<g id="edge12" class="edge">
<title>Node1&#45;&gt;Node10</title>
<path fill="none" stroke="midnightblue" d="M342.87,-71.6C323.25,-60.91 295.64,-46.16 271,-34 260.93,-29.03 249.63,-23.82 240.09,-19.52"/>
<polygon fill="midnightblue" stroke="midnightblue" points="341.36,-74.76 351.81,-76.48 344.72,-68.62 341.36,-74.76"/>
</g>
<!-- Node3 -->
<g id="node3" class="node">
<title>Node3</title>
<g id="a_node3"><a xlink:href="classembed_1_1rc__servo.html#a026639b8cea2066eb30b175a5bb4c3d0" target="_top" xlink:title="Factory function to create a rc_servo object.">
<polygon fill="white" stroke="black" points="4.5,-240.5 4.5,-259.5 123.5,-259.5 123.5,-240.5 4.5,-240.5"/>
<text text-anchor="middle" x="64" y="-247.5" font-family="Helvetica,sans-Serif" font-size="10.00">embed::rc_servo::create</text>
</a>
</g>
</g>
<!-- Node2&#45;&gt;Node3 -->
<g id="edge2" class="edge">
<title>Node2&#45;&gt;Node3</title>
<path fill="none" stroke="midnightblue" d="M191.17,-189.43C174.2,-202.91 150.85,-219.8 128,-231 120.41,-234.72 111.94,-237.88 103.74,-240.49"/>
<polygon fill="midnightblue" stroke="midnightblue" points="193.38,-192.14 198.96,-183.13 188.98,-186.7 193.38,-192.14"/>
</g>
<!-- Node4 -->
<g id="node4" class="node">
<title>Node4</title>
<g id="a_node4"><a xlink:href="group__utility.html#gafa1bc584612147c23f340cfd2786199c" target="_top" xlink:title="Map an target value [x] from an input range [a,b] to an output range [c,d].">
<polygon fill="white" stroke="black" points="29.5,-202.5 29.5,-221.5 98.5,-221.5 98.5,-202.5 29.5,-202.5"/>
<text text-anchor="middle" x="64" y="-209.5" font-family="Helvetica,sans-Serif" font-size="10.00">embed::map</text>
</a>
</g>
</g>
<!-- Node2&#45;&gt;Node4 -->
<g id="edge3" class="edge">
<title>Node2&#45;&gt;Node4</title>
<path fill="none" stroke="midnightblue" d="M155.03,-185.85C135.51,-191.52 114.68,-197.57 97.98,-202.42"/>
<polygon fill="midnightblue" stroke="midnightblue" points="156.16,-189.17 164.79,-183.02 154.21,-182.45 156.16,-189.17"/>
</g>
<!-- Node5 -->
<g id="node5" class="node">
<title>Node5</title>
<g id="a_node5"><a xlink:href="structembed_1_1duty__cycle.html#ae3211da17ad871387109a5d901a18183" target="_top" xlink:title="Conversion from duty cycle to percentage.">
<polygon fill="white" stroke="black" points="13.5,-153 13.5,-183 114.5,-183 114.5,-153 13.5,-153"/>
<text text-anchor="start" x="21.5" y="-171" font-family="Helvetica,sans-Serif" font-size="10.00">embed::duty_cycle::</text>
<text text-anchor="middle" x="64" y="-160" font-family="Helvetica,sans-Serif" font-size="10.00">operator percent</text>
</a>
</g>
</g>
<!-- Node2&#45;&gt;Node5 -->
<g id="edge4" class="edge">
<title>Node2&#45;&gt;Node5</title>
<path fill="none" stroke="midnightblue" d="M153.65,-168C140.65,-168 127.12,-168 114.67,-168"/>
<polygon fill="midnightblue" stroke="midnightblue" points="153.94,-171.5 163.94,-168 153.94,-164.5 153.94,-171.5"/>
</g>
<!-- Node2&#45;&gt;Node6 -->
<g id="edge5" class="edge">
<title>Node2&#45;&gt;Node6</title>
<path fill="none" stroke="midnightblue" d="M155.03,-150.15C135.51,-144.48 114.68,-138.43 97.98,-133.58"/>
<polygon fill="midnightblue" stroke="midnightblue" points="154.21,-153.55 164.79,-152.98 156.16,-146.83 154.21,-153.55"/>
</g>
<!-- Node7&#45;&gt;Node6 -->
<g id="edge8" class="edge">
<title>Node7&#45;&gt;Node6</title>
<path fill="none" stroke="midnightblue" d="M168.5,-98.04C147.33,-103.35 122.81,-109.5 102.95,-114.48"/>
<polygon fill="midnightblue" stroke="midnightblue" points="169.42,-101.42 178.27,-95.59 167.72,-94.63 169.42,-101.42"/>
</g>
<!-- Node7&#45;&gt;Node8 -->
<g id="edge7" class="edge">
<title>Node7&#45;&gt;Node8</title>
<path fill="none" stroke="midnightblue" d="M168.5,-73.96C147.33,-68.65 122.81,-62.5 102.95,-57.52"/>
<polygon fill="midnightblue" stroke="midnightblue" points="167.72,-77.37 178.27,-76.41 169.42,-70.58 167.72,-77.37"/>
</g>
<!-- Node9 -->
<g id="node9" class="node">
<title>Node9</title>
<g id="a_node9"><a xlink:href="group__utility.html#ga860cfe310c0207e449c3b382cc49794b" target="_top" xlink:title="convert this percentage value into a string from &#45;1.0 to +1.0">
<polygon fill="white" stroke="black" points="20,-76.5 20,-95.5 108,-95.5 108,-76.5 20,-76.5"/>
<text text-anchor="middle" x="64" y="-83.5" font-family="Helvetica,sans-Serif" font-size="10.00">embed::to_string</text>
</a>
</g>
</g>
<!-- Node7&#45;&gt;Node9 -->
<g id="edge9" class="edge">
<title>Node7&#45;&gt;Node9</title>
<path fill="none" stroke="midnightblue" d="M154.72,-86C139.19,-86 122.84,-86 108.42,-86"/>
<polygon fill="midnightblue" stroke="midnightblue" points="154.79,-89.5 164.79,-86 154.79,-82.5 154.79,-89.5"/>
</g>
</g>
</svg>
