<?xml version="1.0" encoding="UTF-8" standalone="no"?>
<!DOCTYPE svg PUBLIC "-//W3C//DTD SVG 1.1//EN"
 "http://www.w3.org/Graphics/SVG/1.1/DTD/svg11.dtd">
<!-- Generated by graphviz version 3.0.0 (20220413.0242)
 -->
<!-- Title: embed::i2c::transaction Pages: 1 -->
<svg width="434pt" height="104pt"
 viewBox="0.00 0.00 434.00 104.00" xmlns="http://www.w3.org/2000/svg" xmlns:xlink="http://www.w3.org/1999/xlink">
<g id="graph0" class="graph" transform="scale(1 1) rotate(0) translate(4 100)">
<title>embed::i2c::transaction</title>
<polygon fill="white" stroke="transparent" points="-4,4 -4,-100 430,-100 430,4 -4,4"/>
<!-- Node1 -->
<g id="node1" class="node">
<title>Node1</title>
<g id="a_node1"><a xlink:title="perform an i2c transaction with another device on the bus. The type of transaction depends on values ...">
<polygon fill="#bfbfbf" stroke="black" points="310,-38.5 310,-57.5 426,-57.5 426,-38.5 310,-38.5"/>
<text text-anchor="middle" x="368" y="-45.5" font-family="Helvetica,sans-Serif" font-size="10.00">embed::i2c::transaction</text>
</a>
</g>
</g>
<!-- Node2 -->
<g id="node2" class="node">
<title>Node2</title>
<g id="a_node2"><a xlink:href="group__i2c.html#gaef748fa7125b16c5b9672e0e9aaf3787" target="_top" xlink:title="read bytes from target device on i2c bus">
<polygon fill="white" stroke="black" points="180,-76.5 180,-95.5 249,-95.5 249,-76.5 180,-76.5"/>
<text text-anchor="middle" x="214.5" y="-83.5" font-family="Helvetica,sans-Serif" font-size="10.00">embed::read</text>
</a>
</g>
</g>
<!-- Node1&#45;&gt;Node2 -->
<g id="edge1" class="edge">
<title>Node1&#45;&gt;Node2</title>
<path fill="none" stroke="midnightblue" d="M318.96,-60.05C296.22,-65.75 269.61,-72.43 249.08,-77.58"/>
<polygon fill="midnightblue" stroke="midnightblue" points="319.92,-63.42 328.77,-57.59 318.22,-56.63 319.92,-63.42"/>
</g>
<!-- Node5 -->
<g id="node5" class="node">
<title>Node5</title>
<g id="a_node5"><a xlink:href="group__i2c.html#gad98774e04252c5c5568a11b94b0282ac" target="_top" xlink:title="write data to a target device on the i2c bus">
<polygon fill="white" stroke="black" points="179,-38.5 179,-57.5 250,-57.5 250,-38.5 179,-38.5"/>
<text text-anchor="middle" x="214.5" y="-45.5" font-family="Helvetica,sans-Serif" font-size="10.00">embed::write</text>
</a>
</g>
</g>
<!-- Node1&#45;&gt;Node5 -->
<g id="edge4" class="edge">
<title>Node1&#45;&gt;Node5</title>
<path fill="none" stroke="midnightblue" d="M299.31,-48C282.42,-48 265,-48 250.44,-48"/>
<polygon fill="midnightblue" stroke="midnightblue" points="299.72,-51.5 309.72,-48 299.72,-44.5 299.72,-51.5"/>
</g>
<!-- Node6 -->
<g id="node6" class="node">
<title>Node6</title>
<g id="a_node6"><a xlink:href="group__i2c.html#gaaacac7f062beb4f4835ddefc305ca640" target="_top" xlink:title="write and then read bytes from target device on i2c bus">
<polygon fill="white" stroke="black" points="155,-0.5 155,-19.5 274,-19.5 274,-0.5 155,-0.5"/>
<text text-anchor="middle" x="214.5" y="-7.5" font-family="Helvetica,sans-Serif" font-size="10.00">embed::write_then_read</text>
</a>
</g>
</g>
<!-- Node1&#45;&gt;Node6 -->
<g id="edge6" class="edge">
<title>Node1&#45;&gt;Node6</title>
<path fill="none" stroke="midnightblue" d="M319,-35.96C297.83,-30.65 273.31,-24.5 253.45,-19.52"/>
<polygon fill="midnightblue" stroke="midnightblue" points="318.22,-39.37 328.77,-38.41 319.92,-32.58 318.22,-39.37"/>
</g>
<!-- Node3 -->
<g id="node3" class="node">
<title>Node3</title>
<g id="a_node3"><a xlink:href="group__i2c.html#ga91b1991656f7b94b2412c709b12bb530" target="_top" xlink:title="return array of read bytes from target device on i2c bus">
<polygon fill="white" stroke="black" points="25,-76.5 25,-95.5 94,-95.5 94,-76.5 25,-76.5"/>
<text text-anchor="middle" x="59.5" y="-83.5" font-family="Helvetica,sans-Serif" font-size="10.00">embed::read</text>
</a>
</g>
</g>
<!-- Node2&#45;&gt;Node3 -->
<g id="edge2" class="edge">
<title>Node2&#45;&gt;Node3</title>
<path fill="none" stroke="midnightblue" d="M169.67,-86C145.69,-86 116.45,-86 94.26,-86"/>
<polygon fill="midnightblue" stroke="midnightblue" points="169.92,-89.5 179.92,-86 169.92,-82.5 169.92,-89.5"/>
</g>
<!-- Node4 -->
<g id="node4" class="node">
<title>Node4</title>
<g id="a_node4"><a xlink:href="group__serial.html#ga5321e41f41aa9aa1f64454f3534fa581" target="_top" xlink:title="Perform a write then read transaction over serial.">
<polygon fill="white" stroke="black" points="0,-38.5 0,-57.5 119,-57.5 119,-38.5 0,-38.5"/>
<text text-anchor="middle" x="59.5" y="-45.5" font-family="Helvetica,sans-Serif" font-size="10.00">embed::write_then_read</text>
</a>
</g>
</g>
<!-- Node2&#45;&gt;Node4 -->
<g id="edge3" class="edge">
<title>Node2&#45;&gt;Node4</title>
<path fill="none" stroke="midnightblue" d="M169.99,-75.19C147.57,-69.63 120.48,-62.9 98.85,-57.52"/>
<polygon fill="midnightblue" stroke="midnightblue" points="169.37,-78.65 179.92,-77.66 171.06,-71.85 169.37,-78.65"/>
</g>
<!-- Node5&#45;&gt;Node4 -->
<g id="edge5" class="edge">
<title>Node5&#45;&gt;Node4</title>
<path fill="none" stroke="midnightblue" d="M168.45,-48C153,-48 135.46,-48 119.09,-48"/>
<polygon fill="midnightblue" stroke="midnightblue" points="168.78,-51.5 178.78,-48 168.78,-44.5 168.78,-51.5"/>
</g>
<!-- Node7 -->
<g id="node7" class="node">
<title>Node7</title>
<g id="a_node7"><a xlink:href="group__i2c.html#ga7866586194c3dc419a59d5f91631e57f" target="_top" xlink:title="write and then return an array of read bytes from target device on i2c bus">
<polygon fill="white" stroke="black" points="0,-0.5 0,-19.5 119,-19.5 119,-0.5 0,-0.5"/>
<text text-anchor="middle" x="59.5" y="-7.5" font-family="Helvetica,sans-Serif" font-size="10.00">embed::write_then_read</text>
</a>
</g>
</g>
<!-- Node6&#45;&gt;Node7 -->
<g id="edge7" class="edge">
<title>Node6&#45;&gt;Node7</title>
<path fill="none" stroke="midnightblue" d="M144.51,-10C136.01,-10 127.38,-10 119.06,-10"/>
<polygon fill="midnightblue" stroke="midnightblue" points="144.78,-13.5 154.78,-10 144.78,-6.5 144.78,-13.5"/>
</g>
</g>
</svg>
