<?xml version="1.0" encoding="UTF-8" standalone="no"?>
<!DOCTYPE svg PUBLIC "-//W3C//DTD SVG 1.1//EN"
 "http://www.w3.org/Graphics/SVG/1.1/DTD/svg11.dtd">
<!-- Generated by graphviz version 3.0.0 (20220413.0242)
 -->
<!-- Title: hal::counter::uptime Pages: 1 -->
<svg width="563pt" height="101pt"
 viewBox="0.00 0.00 563.00 100.50" xmlns="http://www.w3.org/2000/svg" xmlns:xlink="http://www.w3.org/1999/xlink">
<g id="graph0" class="graph" transform="scale(1 1) rotate(0) translate(4 96.5)">
<title>hal::counter::uptime</title>
<polygon fill="white" stroke="transparent" points="-4,4 -4,-96.5 559,-96.5 559,4 -4,4"/>
<!-- Node1 -->
<g id="node1" class="node">
<title>Node1</title>
<g id="a_node1"><a xlink:title="Get the uptime of the counter since it has started.">
<polygon fill="#bfbfbf" stroke="black" points="455,-30 455,-49 555,-49 555,-30 455,-30"/>
<text text-anchor="middle" x="505" y="-37" font-family="Helvetica,sans-Serif" font-size="10.00">hal::counter::uptime</text>
</a>
</g>
</g>
<!-- Node2 -->
<g id="node2" class="node">
<title>Node2</title>
<g id="a_node2"><a xlink:href="classhal_1_1counter__timeout.html#aca5b940f8e89106b393fb34cb61aff14" target="_top" xlink:title="Create a counter_timeout.">
<polygon fill="white" stroke="black" points="315,-49.5 315,-79.5 419,-79.5 419,-49.5 315,-49.5"/>
<text text-anchor="start" x="323" y="-67.5" font-family="Helvetica,sans-Serif" font-size="10.00">hal::counter_timeout</text>
<text text-anchor="middle" x="367" y="-56.5" font-family="Helvetica,sans-Serif" font-size="10.00">::create</text>
</a>
</g>
</g>
<!-- Node1&#45;&gt;Node2 -->
<g id="edge1" class="edge">
<title>Node1&#45;&gt;Node2</title>
<path fill="none" stroke="midnightblue" d="M444.99,-50.35C436.44,-51.92 427.7,-53.53 419.32,-55.07"/>
<polygon fill="midnightblue" stroke="midnightblue" points="445.7,-53.78 454.9,-48.53 444.43,-46.89 445.7,-53.78"/>
</g>
<!-- Node6 -->
<g id="node6" class="node">
<title>Node6</title>
<g id="a_node6"><a xlink:href="classhal_1_1counter__timeout.html#a7f1f5f55749d89dcc65d423cf702de3b" target="_top" xlink:title="Call this object to check if it has timed out.">
<polygon fill="white" stroke="black" points="315,-0.5 315,-30.5 419,-30.5 419,-0.5 315,-0.5"/>
<text text-anchor="start" x="323" y="-18.5" font-family="Helvetica,sans-Serif" font-size="10.00">hal::counter_timeout</text>
<text text-anchor="middle" x="367" y="-7.5" font-family="Helvetica,sans-Serif" font-size="10.00">::operator()</text>
</a>
</g>
</g>
<!-- Node1&#45;&gt;Node6 -->
<g id="edge6" class="edge">
<title>Node1&#45;&gt;Node6</title>
<path fill="none" stroke="midnightblue" d="M444.99,-29.09C436.44,-27.58 427.7,-26.04 419.32,-24.56"/>
<polygon fill="midnightblue" stroke="midnightblue" points="444.44,-32.54 454.9,-30.84 445.66,-25.65 444.44,-32.54"/>
</g>
<!-- Node3 -->
<g id="node3" class="node">
<title>Node3</title>
<g id="a_node3"><a xlink:href="group__counter.html#ga0f73c780e3eb7b86be65a1746ccc1c95" target="_top" xlink:title="Create a timeout object based on hal::counter.">
<polygon fill="white" stroke="black" points="181,-55 181,-74 279,-74 279,-55 181,-55"/>
<text text-anchor="middle" x="230" y="-62" font-family="Helvetica,sans-Serif" font-size="10.00">hal::create_timeout</text>
</a>
</g>
</g>
<!-- Node2&#45;&gt;Node3 -->
<g id="edge2" class="edge">
<title>Node2&#45;&gt;Node3</title>
<path fill="none" stroke="midnightblue" d="M304.72,-64.5C296.25,-64.5 287.64,-64.5 279.43,-64.5"/>
<polygon fill="midnightblue" stroke="midnightblue" points="304.96,-68 314.96,-64.5 304.96,-61 304.96,-68"/>
</g>
<!-- Node4 -->
<g id="node4" class="node">
<title>Node4</title>
<g id="a_node4"><a xlink:href="group__counter.html#ga8b4d520b8fbf98436b255041f73b9a8d" target="_top" xlink:title="Delay execution for a duration of time using a hardware counter.">
<polygon fill="white" stroke="black" points="89,-55 89,-74 145,-74 145,-55 89,-55"/>
<text text-anchor="middle" x="117" y="-62" font-family="Helvetica,sans-Serif" font-size="10.00">hal::delay</text>
</a>
</g>
</g>
<!-- Node3&#45;&gt;Node4 -->
<g id="edge3" class="edge">
<title>Node3&#45;&gt;Node4</title>
<path fill="none" stroke="midnightblue" d="M170.8,-64.5C161.8,-64.5 152.89,-64.5 145.03,-64.5"/>
<polygon fill="midnightblue" stroke="midnightblue" points="170.96,-68 180.96,-64.5 170.96,-61 170.96,-68"/>
</g>
<!-- Node4&#45;&gt;Node4 -->
<g id="edge4" class="edge">
<title>Node4&#45;&gt;Node4</title>
<path fill="none" stroke="midnightblue" d="M133.67,-83.9C132.55,-88.81 127,-92.5 117,-92.5 101,-92.5 96.38,-83.07 103.13,-74.26"/>
<polygon fill="midnightblue" stroke="midnightblue" points="137.02,-82.89 130.87,-74.26 130.29,-84.84 137.02,-82.89"/>
</g>
<!-- Node5 -->
<g id="node5" class="node">
<title>Node5</title>
<g id="a_node5"><a xlink:href="group__serial.html#ga56a1548bd7b5f4b6f1dfa9e616b126e4" target="_top" xlink:title="Read bytes from a serial port.">
<polygon fill="white" stroke="black" points="0,-55 0,-74 53,-74 53,-55 0,-55"/>
<text text-anchor="middle" x="26.5" y="-62" font-family="Helvetica,sans-Serif" font-size="10.00">hal::read</text>
</a>
</g>
</g>
<!-- Node4&#45;&gt;Node5 -->
<g id="edge5" class="edge">
<title>Node4&#45;&gt;Node5</title>
<path fill="none" stroke="midnightblue" d="M78.73,-64.5C70.12,-64.5 61.14,-64.5 53.16,-64.5"/>
<polygon fill="midnightblue" stroke="midnightblue" points="78.97,-68 88.97,-64.5 78.97,-61 78.97,-68"/>
</g>
</g>
</svg>
