<?xml version="1.0" encoding="UTF-8" standalone="no"?>
<!DOCTYPE svg PUBLIC "-//W3C//DTD SVG 1.1//EN"
 "http://www.w3.org/Graphics/SVG/1.1/DTD/svg11.dtd">
<!-- Generated by graphviz version 3.0.0 (20220413.0242)
 -->
<!-- Title: hal::rc_servo::create Pages: 1 -->
<svg width="526pt" height="142pt"
 viewBox="0.00 0.00 526.00 142.00" xmlns="http://www.w3.org/2000/svg" xmlns:xlink="http://www.w3.org/1999/xlink">
<g id="graph0" class="graph" transform="scale(1 1) rotate(0) translate(4 138)">
<title>hal::rc_servo::create</title>
<polygon fill="white" stroke="transparent" points="-4,4 -4,-138 522,-138 522,4 -4,4"/>
<!-- Node1 -->
<g id="node1" class="node">
<title>Node1</title>
<g id="a_node1"><a xlink:title="Factory function to create a rc_servo object.">
<polygon fill="#bfbfbf" stroke="black" points="0,-79.5 0,-98.5 103,-98.5 103,-79.5 0,-79.5"/>
<text text-anchor="middle" x="51.5" y="-86.5" font-family="Helvetica,sans-Serif" font-size="10.00">hal::rc_servo::create</text>
</a>
</g>
</g>
<!-- Node2 -->
<g id="node2" class="node">
<title>Node2</title>
<g id="a_node2"><a xlink:href="classhal_1_1pwm.html#ad6f7127fcef3a1bd3dc30fb55cee9e6c" target="_top" xlink:title="Configure pwm to match the settings supplied.">
<polygon fill="white" stroke="black" points="139,-101.5 139,-120.5 237,-120.5 237,-101.5 139,-101.5"/>
<text text-anchor="middle" x="188" y="-108.5" font-family="Helvetica,sans-Serif" font-size="10.00">hal::pwm::configure</text>
</a>
</g>
</g>
<!-- Node1&#45;&gt;Node2 -->
<g id="edge1" class="edge">
<title>Node1&#45;&gt;Node2</title>
<path fill="none" stroke="midnightblue" d="M103.35,-97.32C111.6,-98.67 120.2,-100.07 128.61,-101.45"/>
<polygon fill="midnightblue" stroke="midnightblue" points="128.31,-104.95 138.75,-103.11 129.44,-98.04 128.31,-104.95"/>
</g>
<!-- Node3 -->
<g id="node3" class="node">
<title>Node3</title>
<g id="a_node3"><a xlink:href="classhal_1_1percent.html#a4fece281bfb4ec0f48f86b14168194ce" target="_top" xlink:title="Generate a percentage based on input relative to the maximum possible value.">
<polygon fill="white" stroke="black" points="143,-52 143,-82 233,-82 233,-52 143,-52"/>
<text text-anchor="start" x="151" y="-70" font-family="Helvetica,sans-Serif" font-size="10.00">hal::percent::from</text>
<text text-anchor="middle" x="188" y="-59" font-family="Helvetica,sans-Serif" font-size="10.00">_ratio</text>
</a>
</g>
</g>
<!-- Node1&#45;&gt;Node3 -->
<g id="edge2" class="edge">
<title>Node1&#45;&gt;Node3</title>
<path fill="none" stroke="midnightblue" d="M103.35,-80.68C112.96,-79.11 123.04,-77.46 132.74,-75.87"/>
<polygon fill="midnightblue" stroke="midnightblue" points="133.39,-79.32 142.69,-74.25 132.26,-72.41 133.39,-79.32"/>
</g>
<!-- Node4 -->
<g id="node4" class="node">
<title>Node4</title>
<g id="a_node4"><a xlink:href="classhal_1_1percent.html#ac47af31e37f0680bdefe136ee619ef9d" target="_top" xlink:title="Construct 0% percent object.">
<polygon fill="white" stroke="black" points="276.5,-114.5 276.5,-133.5 379.5,-133.5 379.5,-114.5 276.5,-114.5"/>
<text text-anchor="middle" x="328" y="-121.5" font-family="Helvetica,sans-Serif" font-size="10.00">hal::percent::percent</text>
</a>
</g>
</g>
<!-- Node3&#45;&gt;Node4 -->
<g id="edge3" class="edge">
<title>Node3&#45;&gt;Node4</title>
<path fill="none" stroke="midnightblue" d="M220.63,-82.09C236.25,-89.34 255.47,-97.97 273,-105 278.13,-107.06 283.58,-109.12 288.97,-111.08"/>
<polygon fill="midnightblue" stroke="midnightblue" points="287.93,-114.43 298.52,-114.5 290.28,-107.84 287.93,-114.43"/>
</g>
<!-- Node5 -->
<g id="node5" class="node">
<title>Node5</title>
<g id="a_node5"><a xlink:href="classhal_1_1percent.html#a3ba7db7f6ed4a72c9b5014f4b193fed0" target="_top" xlink:title="Get the 100% value in its raw representation.">
<polygon fill="white" stroke="black" points="273,-76.5 273,-95.5 383,-95.5 383,-76.5 273,-76.5"/>
<text text-anchor="middle" x="328" y="-83.5" font-family="Helvetica,sans-Serif" font-size="10.00">hal::percent::raw_max</text>
</a>
</g>
</g>
<!-- Node3&#45;&gt;Node5 -->
<g id="edge4" class="edge">
<title>Node3&#45;&gt;Node5</title>
<path fill="none" stroke="midnightblue" d="M233.04,-73.06C242.51,-74.37 252.7,-75.77 262.75,-77.15"/>
<polygon fill="midnightblue" stroke="midnightblue" points="262.35,-80.63 272.73,-78.53 263.3,-73.7 262.35,-80.63"/>
</g>
<!-- Node6 -->
<g id="node6" class="node">
<title>Node6</title>
<g id="a_node6"><a xlink:href="classhal_1_1percent.html#a36a2265034230d77794566fe966df7e1" target="_top" xlink:title="Get the &#45;100% value in its raw representation.">
<polygon fill="white" stroke="black" points="274.5,-38.5 274.5,-57.5 381.5,-57.5 381.5,-38.5 274.5,-38.5"/>
<text text-anchor="middle" x="328" y="-45.5" font-family="Helvetica,sans-Serif" font-size="10.00">hal::percent::raw_min</text>
</a>
</g>
</g>
<!-- Node3&#45;&gt;Node6 -->
<g id="edge5" class="edge">
<title>Node3&#45;&gt;Node6</title>
<path fill="none" stroke="midnightblue" d="M233.04,-60.94C242.97,-59.57 253.69,-58.09 264.21,-56.65"/>
<polygon fill="midnightblue" stroke="midnightblue" points="264.78,-60.1 274.21,-55.27 263.82,-53.17 264.78,-60.1"/>
</g>
<!-- Node7 -->
<g id="node7" class="node">
<title>Node7</title>
<g id="a_node7"><a xlink:href="group__utility.html#ga58a3550a3236310f20b92eacf593c2f0" target="_top" xlink:title="Perform integer division and round the value up if the next decimal place is greater than or equal to...">
<polygon fill="white" stroke="black" points="273.5,-0.5 273.5,-19.5 382.5,-19.5 382.5,-0.5 273.5,-0.5"/>
<text text-anchor="middle" x="328" y="-7.5" font-family="Helvetica,sans-Serif" font-size="10.00">hal::rounding_division</text>
</a>
</g>
</g>
<!-- Node3&#45;&gt;Node7 -->
<g id="edge6" class="edge">
<title>Node3&#45;&gt;Node7</title>
<path fill="none" stroke="midnightblue" d="M220.63,-51.91C236.25,-44.66 255.47,-36.03 273,-29 278.13,-26.94 283.58,-24.88 288.97,-22.92"/>
<polygon fill="midnightblue" stroke="midnightblue" points="290.28,-26.16 298.52,-19.5 287.93,-19.57 290.28,-26.16"/>
</g>
<!-- Node8 -->
<g id="node8" class="node">
<title>Node8</title>
<g id="a_node8"><a xlink:href="group__utility.html#gaac86abb9a38f4962ded5507e15dca4b9" target="_top" xlink:title="Generic absolute value function that works for integer types.">
<polygon fill="white" stroke="black" points="419,-0.5 419,-19.5 518,-19.5 518,-0.5 419,-0.5"/>
<text text-anchor="middle" x="468.5" y="-7.5" font-family="Helvetica,sans-Serif" font-size="10.00">hal::absolute_value</text>
</a>
</g>
</g>
<!-- Node7&#45;&gt;Node8 -->
<g id="edge7" class="edge">
<title>Node7&#45;&gt;Node8</title>
<path fill="none" stroke="midnightblue" d="M382.55,-10C391.08,-10 399.95,-10 408.6,-10"/>
<polygon fill="midnightblue" stroke="midnightblue" points="408.62,-13.5 418.62,-10 408.62,-6.5 408.62,-13.5"/>
</g>
</g>
</svg>
