<?xml version="1.0" encoding="UTF-8" standalone="no"?>
<!DOCTYPE svg PUBLIC "-//W3C//DTD SVG 1.1//EN"
 "http://www.w3.org/Graphics/SVG/1.1/DTD/svg11.dtd">
<!-- Generated by graphviz version 3.0.0 (20220413.0242)
 -->
<!-- Title: embed::percent::raw_min Pages: 1 -->
<svg width="421pt" height="127pt"
 viewBox="0.00 0.00 421.00 127.00" xmlns="http://www.w3.org/2000/svg" xmlns:xlink="http://www.w3.org/1999/xlink">
<g id="graph0" class="graph" transform="scale(1 1) rotate(0) translate(4 123)">
<title>embed::percent::raw_min</title>
<polygon fill="white" stroke="transparent" points="-4,4 -4,-123 417,-123 417,4 -4,4"/>
<!-- Node1 -->
<g id="node1" class="node">
<title>Node1</title>
<g id="a_node1"><a xlink:title="Get the &#45;100% value in its raw representation.">
<polygon fill="#bfbfbf" stroke="black" points="289,-50 289,-69 413,-69 413,-50 289,-50"/>
<text text-anchor="middle" x="351" y="-57" font-family="Helvetica,sans-Serif" font-size="10.00">embed::percent::raw_min</text>
</a>
</g>
</g>
<!-- Node2 -->
<g id="node2" class="node">
<title>Node2</title>
<g id="a_node2"><a xlink:href="classembed_1_1percent.html#a3031fcd41ebdbc14fe77114d239c0b27" target="_top" xlink:title="Generate a percentage based on input relative to the maximum possible value.">
<polygon fill="white" stroke="black" points="146,-88.5 146,-118.5 253,-118.5 253,-88.5 146,-88.5"/>
<text text-anchor="start" x="154" y="-106.5" font-family="Helvetica,sans-Serif" font-size="10.00">embed::percent::from</text>
<text text-anchor="middle" x="199.5" y="-95.5" font-family="Helvetica,sans-Serif" font-size="10.00">_ratio</text>
</a>
</g>
</g>
<!-- Node1&#45;&gt;Node2 -->
<g id="edge1" class="edge">
<title>Node1&#45;&gt;Node2</title>
<path fill="none" stroke="midnightblue" d="M307.68,-71.96C290.26,-77.08 269.93,-83.06 251.69,-88.43"/>
<polygon fill="midnightblue" stroke="midnightblue" points="308.96,-75.23 317.56,-69.05 306.98,-68.51 308.96,-75.23"/>
</g>
<!-- Node4 -->
<g id="node4" class="node">
<title>Node4</title>
<g id="a_node4"><a xlink:href="classembed_1_1percent.html#afa379fbbb92bc5dc22f0dce8bcf7ea1b" target="_top" xlink:title="Get the percent after it is scaled to a range. The output percent is bound within the given range....">
<polygon fill="white" stroke="black" points="0,-50 0,-69 110,-69 110,-50 0,-50"/>
<text text-anchor="middle" x="55" y="-57" font-family="Helvetica,sans-Serif" font-size="10.00">embed::percent::scale</text>
</a>
</g>
</g>
<!-- Node1&#45;&gt;Node4 -->
<g id="edge4" class="edge">
<title>Node1&#45;&gt;Node4</title>
<path fill="none" stroke="midnightblue" d="M278.6,-59.5C226.74,-59.5 157.65,-59.5 110.27,-59.5"/>
<polygon fill="midnightblue" stroke="midnightblue" points="278.73,-63 288.73,-59.5 278.73,-56 278.73,-63"/>
</g>
<!-- Node5 -->
<g id="node5" class="node">
<title>Node5</title>
<g id="a_node5"><a xlink:href="classembed_1_1percent.html#a5e98c88a9266480216893984aa65affb" target="_top" xlink:title="convert this percentage value into a string from &#45;1.0 to +1.0">
<polygon fill="white" stroke="black" points="152,-0.5 152,-30.5 247,-30.5 247,-0.5 152,-0.5"/>
<text text-anchor="start" x="160" y="-18.5" font-family="Helvetica,sans-Serif" font-size="10.00">embed::percent::to</text>
<text text-anchor="middle" x="199.5" y="-7.5" font-family="Helvetica,sans-Serif" font-size="10.00">_string</text>
</a>
</g>
</g>
<!-- Node1&#45;&gt;Node5 -->
<g id="edge5" class="edge">
<title>Node1&#45;&gt;Node5</title>
<path fill="none" stroke="midnightblue" d="M307.73,-47.06C288.82,-41.49 266.45,-34.91 247.06,-29.2"/>
<polygon fill="midnightblue" stroke="midnightblue" points="306.98,-50.49 317.56,-49.95 308.96,-43.77 306.98,-50.49"/>
</g>
<!-- Node3 -->
<g id="node3" class="node">
<title>Node3</title>
<g id="a_node3"><a xlink:href="structembed_1_1duty__cycle.html#ae3211da17ad871387109a5d901a18183" target="_top" xlink:title="Conversion from duty cycle to percentage.">
<polygon fill="white" stroke="black" points="4.5,-88.5 4.5,-118.5 105.5,-118.5 105.5,-88.5 4.5,-88.5"/>
<text text-anchor="start" x="12.5" y="-106.5" font-family="Helvetica,sans-Serif" font-size="10.00">embed::duty_cycle::</text>
<text text-anchor="middle" x="55" y="-95.5" font-family="Helvetica,sans-Serif" font-size="10.00">operator percent</text>
</a>
</g>
</g>
<!-- Node2&#45;&gt;Node3 -->
<g id="edge2" class="edge">
<title>Node2&#45;&gt;Node3</title>
<path fill="none" stroke="midnightblue" d="M135.83,-103.5C125.71,-103.5 115.36,-103.5 105.6,-103.5"/>
<polygon fill="midnightblue" stroke="midnightblue" points="135.84,-107 145.84,-103.5 135.84,-100 135.84,-107"/>
</g>
<!-- Node2&#45;&gt;Node4 -->
<g id="edge3" class="edge">
<title>Node2&#45;&gt;Node4</title>
<path fill="none" stroke="midnightblue" d="M140.18,-85.49C121.97,-79.87 102.59,-73.89 87.02,-69.08"/>
<polygon fill="midnightblue" stroke="midnightblue" points="139.27,-88.87 149.86,-88.48 141.34,-82.19 139.27,-88.87"/>
</g>
</g>
</svg>
