<?xml version="1.0" encoding="UTF-8" standalone="no"?>
<!DOCTYPE svg PUBLIC "-//W3C//DTD SVG 1.1//EN"
 "http://www.w3.org/Graphics/SVG/1.1/DTD/svg11.dtd">
<!-- Generated by graphviz version 3.0.0 (20220413.0242)
 -->
<!-- Title: embed::servo Pages: 1 -->
<svg width="218pt" height="84pt"
 viewBox="0.00 0.00 217.50 84.00" xmlns="http://www.w3.org/2000/svg" xmlns:xlink="http://www.w3.org/1999/xlink">
<g id="graph0" class="graph" transform="scale(1 1) rotate(0) translate(4 80)">
<title>embed::servo</title>
<polygon fill="white" stroke="transparent" points="-4,4 -4,-80 213.5,-80 213.5,4 -4,4"/>
<!-- Node1 -->
<g id="node1" class="node">
<title>Node1</title>
<g id="a_node1"><a xlink:title="Hardware abstraction for closed loop positional rotary and linear actuators.">
<polygon fill="#bfbfbf" stroke="black" points="71.5,-56.5 71.5,-75.5 145.5,-75.5 145.5,-56.5 71.5,-56.5"/>
<text text-anchor="middle" x="108.5" y="-63.5" font-family="Helvetica,sans-Serif" font-size="10.00">embed::servo</text>
</a>
</g>
</g>
<!-- Node2 -->
<g id="node2" class="node">
<title>Node2</title>
<g id="a_node2"><a xlink:href="structembed_1_1mock_1_1servo.html" target="_top" xlink:title="mock servo implementation for use in unit tests and simulations.">
<polygon fill="white" stroke="black" points="0,-0.5 0,-19.5 103,-19.5 103,-0.5 0,-0.5"/>
<text text-anchor="middle" x="51.5" y="-7.5" font-family="Helvetica,sans-Serif" font-size="10.00">embed::mock::servo</text>
</a>
</g>
</g>
<!-- Node1&#45;&gt;Node2 -->
<g id="edge1" class="edge">
<title>Node1&#45;&gt;Node2</title>
<path fill="none" stroke="midnightblue" d="M91.88,-49.25C81.77,-39.67 69.22,-27.79 60.82,-19.83"/>
<polygon fill="midnightblue" stroke="midnightblue" points="89.68,-51.99 99.34,-56.32 94.49,-46.91 89.68,-51.99"/>
</g>
<!-- Node3 -->
<g id="node3" class="node">
<title>Node3</title>
<g id="a_node3"><a xlink:href="classembed_1_1rc__servo.html" target="_top" xlink:title="Generic RC servo driver.">
<polygon fill="white" stroke="black" points="121.5,-0.5 121.5,-19.5 209.5,-19.5 209.5,-0.5 121.5,-0.5"/>
<text text-anchor="middle" x="165.5" y="-7.5" font-family="Helvetica,sans-Serif" font-size="10.00">embed::rc_servo</text>
</a>
</g>
</g>
<!-- Node1&#45;&gt;Node3 -->
<g id="edge2" class="edge">
<title>Node1&#45;&gt;Node3</title>
<path fill="none" stroke="midnightblue" d="M125.12,-49.25C135.23,-39.67 147.78,-27.79 156.18,-19.83"/>
<polygon fill="midnightblue" stroke="midnightblue" points="122.51,-46.91 117.66,-56.32 127.32,-51.99 122.51,-46.91"/>
</g>
</g>
</svg>
