<?xml version="1.0" encoding="UTF-8" standalone="no"?>
<!DOCTYPE svg PUBLIC "-//W3C//DTD SVG 1.1//EN"
 "http://www.w3.org/Graphics/SVG/1.1/DTD/svg11.dtd">
<!-- Generated by graphviz version 3.0.0 (20220413.0242)
 -->
<!-- Title: hal::percent::from_ratio Pages: 1 -->
<svg width="379pt" height="142pt"
 viewBox="0.00 0.00 379.00 142.00" xmlns="http://www.w3.org/2000/svg" xmlns:xlink="http://www.w3.org/1999/xlink">
<g id="graph0" class="graph" transform="scale(1 1) rotate(0) translate(4 138)">
<title>hal::percent::from_ratio</title>
<polygon fill="white" stroke="transparent" points="-4,4 -4,-138 375,-138 375,4 -4,4"/>
<!-- Node1 -->
<g id="node1" class="node">
<title>Node1</title>
<g id="a_node1"><a xlink:title="Generate a percentage based on input relative to the maximum possible value.">
<polygon fill="#bfbfbf" stroke="black" points="0,-52 0,-82 90,-82 90,-52 0,-52"/>
<text text-anchor="start" x="8" y="-70" font-family="Helvetica,sans-Serif" font-size="10.00">hal::percent::from</text>
<text text-anchor="middle" x="45" y="-59" font-family="Helvetica,sans-Serif" font-size="10.00">_ratio</text>
</a>
</g>
</g>
<!-- Node2 -->
<g id="node2" class="node">
<title>Node2</title>
<g id="a_node2"><a xlink:href="classhal_1_1percent.html#ac47af31e37f0680bdefe136ee619ef9d" target="_top" xlink:title="Construct 0% percent object.">
<polygon fill="white" stroke="black" points="129.5,-114.5 129.5,-133.5 232.5,-133.5 232.5,-114.5 129.5,-114.5"/>
<text text-anchor="middle" x="181" y="-121.5" font-family="Helvetica,sans-Serif" font-size="10.00">hal::percent::percent</text>
</a>
</g>
</g>
<!-- Node1&#45;&gt;Node2 -->
<g id="edge1" class="edge">
<title>Node1&#45;&gt;Node2</title>
<path fill="none" stroke="midnightblue" d="M75.68,-82.01C90.61,-89.33 109.08,-98.03 126,-105 131.05,-107.08 136.43,-109.15 141.75,-111.11"/>
<polygon fill="midnightblue" stroke="midnightblue" points="140.61,-114.41 151.2,-114.5 142.97,-107.82 140.61,-114.41"/>
</g>
<!-- Node3 -->
<g id="node3" class="node">
<title>Node3</title>
<g id="a_node3"><a xlink:href="classhal_1_1percent.html#a3ba7db7f6ed4a72c9b5014f4b193fed0" target="_top" xlink:title="Get the 100% value in its raw representation.">
<polygon fill="white" stroke="black" points="126,-76.5 126,-95.5 236,-95.5 236,-76.5 126,-76.5"/>
<text text-anchor="middle" x="181" y="-83.5" font-family="Helvetica,sans-Serif" font-size="10.00">hal::percent::raw_max</text>
</a>
</g>
</g>
<!-- Node1&#45;&gt;Node3 -->
<g id="edge2" class="edge">
<title>Node1&#45;&gt;Node3</title>
<path fill="none" stroke="midnightblue" d="M90.25,-73.27C98.47,-74.44 107.2,-75.68 115.88,-76.91"/>
<polygon fill="midnightblue" stroke="midnightblue" points="115.6,-80.4 125.99,-78.34 116.58,-73.47 115.6,-80.4"/>
</g>
<!-- Node4 -->
<g id="node4" class="node">
<title>Node4</title>
<g id="a_node4"><a xlink:href="classhal_1_1percent.html#a36a2265034230d77794566fe966df7e1" target="_top" xlink:title="Get the &#45;100% value in its raw representation.">
<polygon fill="white" stroke="black" points="127.5,-38.5 127.5,-57.5 234.5,-57.5 234.5,-38.5 127.5,-38.5"/>
<text text-anchor="middle" x="181" y="-45.5" font-family="Helvetica,sans-Serif" font-size="10.00">hal::percent::raw_min</text>
</a>
</g>
</g>
<!-- Node1&#45;&gt;Node4 -->
<g id="edge3" class="edge">
<title>Node1&#45;&gt;Node4</title>
<path fill="none" stroke="midnightblue" d="M90.25,-60.73C98.98,-59.49 108.3,-58.17 117.5,-56.86"/>
<polygon fill="midnightblue" stroke="midnightblue" points="118.01,-60.33 127.42,-55.46 117.02,-53.39 118.01,-60.33"/>
</g>
<!-- Node5 -->
<g id="node5" class="node">
<title>Node5</title>
<g id="a_node5"><a xlink:href="group__utility.html#ga58a3550a3236310f20b92eacf593c2f0" target="_top" xlink:title="Perform integer division and round the value up if the next decimal place is greater than or equal to...">
<polygon fill="white" stroke="black" points="126.5,-0.5 126.5,-19.5 235.5,-19.5 235.5,-0.5 126.5,-0.5"/>
<text text-anchor="middle" x="181" y="-7.5" font-family="Helvetica,sans-Serif" font-size="10.00">hal::rounding_division</text>
</a>
</g>
</g>
<!-- Node1&#45;&gt;Node5 -->
<g id="edge4" class="edge">
<title>Node1&#45;&gt;Node5</title>
<path fill="none" stroke="midnightblue" d="M75.68,-51.99C90.61,-44.67 109.08,-35.97 126,-29 131.05,-26.92 136.43,-24.85 141.75,-22.89"/>
<polygon fill="midnightblue" stroke="midnightblue" points="142.97,-26.18 151.2,-19.5 140.61,-19.59 142.97,-26.18"/>
</g>
<!-- Node6 -->
<g id="node6" class="node">
<title>Node6</title>
<g id="a_node6"><a xlink:href="group__utility.html#gaac86abb9a38f4962ded5507e15dca4b9" target="_top" xlink:title="Generic absolute value function that works for integer types.">
<polygon fill="white" stroke="black" points="272,-0.5 272,-19.5 371,-19.5 371,-0.5 272,-0.5"/>
<text text-anchor="middle" x="321.5" y="-7.5" font-family="Helvetica,sans-Serif" font-size="10.00">hal::absolute_value</text>
</a>
</g>
</g>
<!-- Node5&#45;&gt;Node6 -->
<g id="edge5" class="edge">
<title>Node5&#45;&gt;Node6</title>
<path fill="none" stroke="midnightblue" d="M235.55,-10C244.08,-10 252.95,-10 261.6,-10"/>
<polygon fill="midnightblue" stroke="midnightblue" points="261.62,-13.5 271.62,-10 261.62,-6.5 261.62,-13.5"/>
</g>
</g>
</svg>
