<?xml version="1.0" encoding="UTF-8" standalone="no"?>
<!DOCTYPE svg PUBLIC "-//W3C//DTD SVG 1.1//EN"
 "http://www.w3.org/Graphics/SVG/1.1/DTD/svg11.dtd">
<!-- Generated by graphviz version 3.0.0 (20220413.0242)
 -->
<!-- Title: hal::static_memory_resource::memory_available Pages: 1 -->
<svg width="311pt" height="88pt"
 viewBox="0.00 0.00 311.00 88.00" xmlns="http://www.w3.org/2000/svg" xmlns:xlink="http://www.w3.org/1999/xlink">
<g id="graph0" class="graph" transform="scale(1 1) rotate(0) translate(4 84)">
<title>hal::static_memory_resource::memory_available</title>
<polygon fill="white" stroke="transparent" points="-4,4 -4,-84 307,-84 307,4 -4,4"/>
<!-- Node1 -->
<g id="node1" class="node">
<title>Node1</title>
<g id="a_node1"><a xlink:title=" ">
<polygon fill="#bfbfbf" stroke="black" points="0,-24.5 0,-54.5 142,-54.5 142,-24.5 0,-24.5"/>
<text text-anchor="start" x="8" y="-42.5" font-family="Helvetica,sans-Serif" font-size="10.00">hal::static_memory</text>
<text text-anchor="middle" x="71" y="-31.5" font-family="Helvetica,sans-Serif" font-size="10.00">_resource::memory_available</text>
</a>
</g>
</g>
<!-- Node2 -->
<g id="node2" class="node">
<title>Node2</title>
<g id="a_node2"><a xlink:href="classhal_1_1static__memory__resource.html#a0f79a926cf04a60f7abedf4417bf7e7a" target="_top" xlink:title=" ">
<polygon fill="white" stroke="black" points="190.5,-49.5 190.5,-79.5 290.5,-79.5 290.5,-49.5 190.5,-49.5"/>
<text text-anchor="start" x="198.5" y="-67.5" font-family="Helvetica,sans-Serif" font-size="10.00">hal::static_memory</text>
<text text-anchor="middle" x="240.5" y="-56.5" font-family="Helvetica,sans-Serif" font-size="10.00">_resource::capacity</text>
</a>
</g>
</g>
<!-- Node1&#45;&gt;Node2 -->
<g id="edge1" class="edge">
<title>Node1&#45;&gt;Node2</title>
<path fill="none" stroke="midnightblue" d="M142.06,-49.96C154.74,-51.85 167.85,-53.81 180.18,-55.65"/>
<polygon fill="midnightblue" stroke="midnightblue" points="179.92,-59.15 190.33,-57.16 180.96,-52.22 179.92,-59.15"/>
</g>
<!-- Node3 -->
<g id="node3" class="node">
<title>Node3</title>
<g id="a_node3"><a xlink:href="classhal_1_1static__memory__resource.html#ad15b310d86e3c3c0ac7ed73cf785ec26" target="_top" xlink:title=" ">
<polygon fill="white" stroke="black" points="178,-0.5 178,-30.5 303,-30.5 303,-0.5 178,-0.5"/>
<text text-anchor="start" x="186" y="-18.5" font-family="Helvetica,sans-Serif" font-size="10.00">hal::static_memory</text>
<text text-anchor="middle" x="240.5" y="-7.5" font-family="Helvetica,sans-Serif" font-size="10.00">_resource::memory_used</text>
</a>
</g>
</g>
<!-- Node1&#45;&gt;Node3 -->
<g id="edge2" class="edge">
<title>Node1&#45;&gt;Node3</title>
<path fill="none" stroke="midnightblue" d="M142.06,-29.46C150.63,-28.23 159.4,-26.98 167.99,-25.75"/>
<polygon fill="midnightblue" stroke="midnightblue" points="168.57,-29.2 177.97,-24.32 167.58,-22.27 168.57,-29.2"/>
</g>
</g>
</svg>
