<?xml version="1.0" encoding="UTF-8" standalone="no"?>
<!DOCTYPE svg PUBLIC "-//W3C//DTD SVG 1.1//EN"
 "http://www.w3.org/Graphics/SVG/1.1/DTD/svg11.dtd">
<!-- Generated by graphviz version 3.0.0 (20220413.0242)
 -->
<!-- Title: hal::percent::operator== Pages: 1 -->
<svg width="277pt" height="66pt"
 viewBox="0.00 0.00 277.00 66.00" xmlns="http://www.w3.org/2000/svg" xmlns:xlink="http://www.w3.org/1999/xlink">
<g id="graph0" class="graph" transform="scale(1 1) rotate(0) translate(4 62)">
<title>hal::percent::operator==</title>
<polygon fill="white" stroke="transparent" points="-4,4 -4,-62 273,-62 273,4 -4,4"/>
<!-- Node1 -->
<g id="node1" class="node">
<title>Node1</title>
<g id="a_node1"><a xlink:title="Comparison operator.">
<polygon fill="#bfbfbf" stroke="black" points="0,-19.5 0,-38.5 118,-38.5 118,-19.5 0,-19.5"/>
<text text-anchor="middle" x="59" y="-26.5" font-family="Helvetica,sans-Serif" font-size="10.00">hal::percent::operator==</text>
</a>
</g>
</g>
<!-- Node2 -->
<g id="node2" class="node">
<title>Node2</title>
<g id="a_node2"><a xlink:href="group__utility.html#gafcd717bac7dd9983e8027bd45b7c3d15" target="_top" xlink:title="Calculates the distance between two values (L1 Norm or Manhattan distance), the absolute value of the...">
<polygon fill="white" stroke="black" points="176,-38.5 176,-57.5 247,-57.5 247,-38.5 176,-38.5"/>
<text text-anchor="middle" x="211.5" y="-45.5" font-family="Helvetica,sans-Serif" font-size="10.00">hal::distance</text>
</a>
</g>
</g>
<!-- Node1&#45;&gt;Node2 -->
<g id="edge1" class="edge">
<title>Node1&#45;&gt;Node2</title>
<path fill="none" stroke="midnightblue" d="M118.19,-36.35C134.05,-38.35 150.98,-40.49 165.95,-42.38"/>
<polygon fill="midnightblue" stroke="midnightblue" points="165.6,-45.86 175.96,-43.64 166.48,-38.91 165.6,-45.86"/>
</g>
<!-- Node3 -->
<g id="node3" class="node">
<title>Node3</title>
<g id="a_node3"><a xlink:href="classhal_1_1percent.html#a14730b3658d01e045b69c762f8d7881b" target="_top" xlink:title="Get raw integral value.">
<polygon fill="white" stroke="black" points="154,-0.5 154,-19.5 269,-19.5 269,-0.5 154,-0.5"/>
<text text-anchor="middle" x="211.5" y="-7.5" font-family="Helvetica,sans-Serif" font-size="10.00">hal::percent::raw_value</text>
</a>
</g>
</g>
<!-- Node1&#45;&gt;Node3 -->
<g id="edge2" class="edge">
<title>Node1&#45;&gt;Node3</title>
<path fill="none" stroke="midnightblue" d="M118.19,-21.65C126.63,-20.59 135.37,-19.48 143.97,-18.4"/>
<polygon fill="midnightblue" stroke="midnightblue" points="144.47,-21.86 153.95,-17.14 143.59,-14.92 144.47,-21.86"/>
</g>
</g>
</svg>
