<?xml version="1.0" encoding="UTF-8" standalone="no"?>
<!DOCTYPE svg PUBLIC "-//W3C//DTD SVG 1.1//EN"
 "http://www.w3.org/Graphics/SVG/1.1/DTD/svg11.dtd">
<!-- Generated by graphviz version 3.0.0 (20220413.0242)
 -->
<!-- Title: embed::frequency::cycles_per_second Pages: 1 -->
<svg width="701pt" height="247pt"
 viewBox="0.00 0.00 701.00 246.50" xmlns="http://www.w3.org/2000/svg" xmlns:xlink="http://www.w3.org/1999/xlink">
<g id="graph0" class="graph" transform="scale(1 1) rotate(0) translate(4 242.5)">
<title>embed::frequency::cycles_per_second</title>
<polygon fill="white" stroke="transparent" points="-4,4 -4,-242.5 697,-242.5 697,4 -4,4"/>
<!-- Node1 -->
<g id="node1" class="node">
<title>Node1</title>
<g id="a_node1"><a xlink:title="Get the frequency as an integer.">
<polygon fill="#bfbfbf" stroke="black" points="568,-99 568,-129 693,-129 693,-99 568,-99"/>
<text text-anchor="start" x="576" y="-117" font-family="Helvetica,sans-Serif" font-size="10.00">embed::frequency::cycles</text>
<text text-anchor="middle" x="630.5" y="-106" font-family="Helvetica,sans-Serif" font-size="10.00">_per_second</text>
</a>
</g>
</g>
<!-- Node2 -->
<g id="node2" class="node">
<title>Node2</title>
<g id="a_node2"><a xlink:href="classembed_1_1frequency.html#a470be2d90b5c33b45bb0e972d6715647" target="_top" xlink:title="Calculate divider for the closest resulting frequency to target.">
<polygon fill="white" stroke="black" points="395,-205.5 395,-224.5 523,-224.5 523,-205.5 395,-205.5"/>
<text text-anchor="middle" x="459" y="-212.5" font-family="Helvetica,sans-Serif" font-size="10.00">embed::frequency::closest</text>
</a>
</g>
</g>
<!-- Node1&#45;&gt;Node2 -->
<g id="edge1" class="edge">
<title>Node1&#45;&gt;Node2</title>
<path fill="none" stroke="midnightblue" d="M608.53,-136.49C590.05,-155.02 561.55,-180.67 532,-196 524.66,-199.81 516.48,-202.9 508.36,-205.4"/>
<polygon fill="midnightblue" stroke="midnightblue" points="611.32,-138.63 615.8,-129.03 606.31,-133.74 611.32,-138.63"/>
</g>
<!-- Node3 -->
<g id="node3" class="node">
<title>Node3</title>
<g id="a_node3"><a xlink:href="classembed_1_1frequency.html#aa67b1e2379926c43c248b98207ff95a0" target="_top" xlink:title="Calculate the number of cycles of this frequency within the time duration. This function is meant for...">
<polygon fill="white" stroke="black" points="387.5,-167.5 387.5,-186.5 530.5,-186.5 530.5,-167.5 387.5,-167.5"/>
<text text-anchor="middle" x="459" y="-174.5" font-family="Helvetica,sans-Serif" font-size="10.00">embed::frequency::cycles_per</text>
</a>
</g>
</g>
<!-- Node1&#45;&gt;Node3 -->
<g id="edge2" class="edge">
<title>Node1&#45;&gt;Node3</title>
<path fill="none" stroke="midnightblue" d="M586.43,-133.22C569.6,-140.44 550.04,-148.47 532,-155 519.71,-159.45 506.04,-163.78 493.93,-167.4"/>
<polygon fill="midnightblue" stroke="midnightblue" points="588.2,-136.27 595.99,-129.08 585.42,-129.84 588.2,-136.27"/>
</g>
<!-- Node8 -->
<g id="node8" class="node">
<title>Node8</title>
<g id="a_node8"><a xlink:href="classembed_1_1frequency.html#a7a0a49000c46f52507a958882e31d77c" target="_top" xlink:title="Calculate the frequency divide required to generate the output frequency provided.">
<polygon fill="white" stroke="black" points="398,-126.5 398,-145.5 520,-145.5 520,-126.5 398,-126.5"/>
<text text-anchor="middle" x="459" y="-133.5" font-family="Helvetica,sans-Serif" font-size="10.00">embed::frequency::divide</text>
</a>
</g>
</g>
<!-- Node1&#45;&gt;Node8 -->
<g id="edge8" class="edge">
<title>Node1&#45;&gt;Node8</title>
<path fill="none" stroke="midnightblue" d="M557.88,-123.3C545.34,-124.92 532.4,-126.6 520.21,-128.19"/>
<polygon fill="midnightblue" stroke="midnightblue" points="558.36,-126.76 567.83,-122 557.46,-119.82 558.36,-126.76"/>
</g>
<!-- Node10 -->
<g id="node10" class="node">
<title>Node10</title>
<g id="a_node10"><a xlink:href="classembed_1_1frequency.html#a383cdc3d72a91dedffcd92d3b0e73d8a" target="_top" xlink:title="Calculate time duration based on the frequency and a number of cycles.">
<polygon fill="white" stroke="black" points="393.5,-77 393.5,-107 524.5,-107 524.5,-77 393.5,-77"/>
<text text-anchor="start" x="401.5" y="-95" font-family="Helvetica,sans-Serif" font-size="10.00">embed::frequency::duration</text>
<text text-anchor="middle" x="459" y="-84" font-family="Helvetica,sans-Serif" font-size="10.00">_from_cycles</text>
</a>
</g>
</g>
<!-- Node1&#45;&gt;Node10 -->
<g id="edge10" class="edge">
<title>Node1&#45;&gt;Node10</title>
<path fill="none" stroke="midnightblue" d="M557.85,-104.7C546.87,-103.27 535.59,-101.81 524.76,-100.41"/>
<polygon fill="midnightblue" stroke="midnightblue" points="557.46,-108.18 567.83,-106 558.36,-101.24 557.46,-108.18"/>
</g>
<!-- Node12 -->
<g id="node12" class="node">
<title>Node12</title>
<g id="a_node12"><a xlink:href="classembed_1_1frequency.html#a8aadd42f3e1a726eed76b1aa564d5acb" target="_top" xlink:title="Scale up a frequency by an integer factor.">
<polygon fill="white" stroke="black" points="399,-38.5 399,-57.5 519,-57.5 519,-38.5 399,-38.5"/>
<text text-anchor="middle" x="459" y="-45.5" font-family="Helvetica,sans-Serif" font-size="10.00">embed::frequency::scale</text>
</a>
</g>
</g>
<!-- Node1&#45;&gt;Node12 -->
<g id="edge12" class="edge">
<title>Node1&#45;&gt;Node12</title>
<path fill="none" stroke="midnightblue" d="M592.96,-94.33C574.96,-85.18 552.72,-74.65 532,-67 522.3,-63.42 511.63,-60.22 501.54,-57.52"/>
<polygon fill="midnightblue" stroke="midnightblue" points="591.47,-97.5 601.96,-98.97 594.67,-91.28 591.47,-97.5"/>
</g>
<!-- Node13 -->
<g id="node13" class="node">
<title>Node13</title>
<g id="a_node13"><a xlink:href="classembed_1_1frequency.html#a7c8cfde28a6f6869694c509934c764ef" target="_top" xlink:title="Calculates and returns the wavelength of the frequency in seconds.">
<polygon fill="white" stroke="black" points="386,-0.5 386,-19.5 532,-19.5 532,-0.5 386,-0.5"/>
<text text-anchor="middle" x="459" y="-7.5" font-family="Helvetica,sans-Serif" font-size="10.00">embed::frequency::wavelength</text>
</a>
</g>
</g>
<!-- Node1&#45;&gt;Node13 -->
<g id="edge13" class="edge">
<title>Node1&#45;&gt;Node13</title>
<path fill="none" stroke="midnightblue" d="M609.25,-91.25C590.89,-71.98 562.17,-44.99 532,-29 524.8,-25.18 516.79,-22.1 508.8,-19.61"/>
<polygon fill="midnightblue" stroke="midnightblue" points="606.84,-93.8 616.22,-98.73 611.96,-89.03 606.84,-93.8"/>
</g>
<!-- Node4 -->
<g id="node4" class="node">
<title>Node4</title>
<g id="a_node4"><a xlink:href="classembed_1_1frequency.html#a6ba09620a9c2d43071e7f486d8c7fbdf" target="_top" xlink:title="Calculate a duty cycle based on a time duration, the percent and this driving frequency....">
<polygon fill="white" stroke="black" points="214,-208 214,-238 350,-238 350,-208 214,-208"/>
<text text-anchor="start" x="222" y="-226" font-family="Helvetica,sans-Serif" font-size="10.00">embed::frequency::calculate</text>
<text text-anchor="middle" x="282" y="-215" font-family="Helvetica,sans-Serif" font-size="10.00">_duty_cycle</text>
</a>
</g>
</g>
<!-- Node3&#45;&gt;Node4 -->
<g id="edge3" class="edge">
<title>Node3&#45;&gt;Node4</title>
<path fill="none" stroke="midnightblue" d="M411.99,-189.09C390.01,-194.87 363.49,-201.84 340.23,-207.96"/>
<polygon fill="midnightblue" stroke="midnightblue" points="412.96,-192.46 421.74,-186.53 411.18,-185.69 412.96,-192.46"/>
</g>
<!-- Node5 -->
<g id="node5" class="node">
<title>Node5</title>
<g id="a_node5"><a xlink:href="group__counter.html#ga4f1edcd06bf52209d5293e54d0d1beb6" target="_top" xlink:title="Create a timeout object based on embed::counter.">
<polygon fill="white" stroke="black" points="224.5,-169.5 224.5,-188.5 339.5,-188.5 339.5,-169.5 224.5,-169.5"/>
<text text-anchor="middle" x="282" y="-176.5" font-family="Helvetica,sans-Serif" font-size="10.00">embed::create_timeout</text>
</a>
</g>
</g>
<!-- Node3&#45;&gt;Node5 -->
<g id="edge4" class="edge">
<title>Node3&#45;&gt;Node5</title>
<path fill="none" stroke="midnightblue" d="M377.22,-177.92C364.54,-178.07 351.67,-178.22 339.69,-178.35"/>
<polygon fill="midnightblue" stroke="midnightblue" points="377.37,-181.42 387.33,-177.81 377.29,-174.42 377.37,-181.42"/>
</g>
<!-- Node6 -->
<g id="node6" class="node">
<title>Node6</title>
<g id="a_node6"><a xlink:href="group__counter.html#ga53e2d568aa13881c4213fe89a2e1c42e" target="_top" xlink:title="Delay execution for a duration of time using a hardware counter.">
<polygon fill="white" stroke="black" points="105,-169.5 105,-188.5 178,-188.5 178,-169.5 105,-169.5"/>
<text text-anchor="middle" x="141.5" y="-176.5" font-family="Helvetica,sans-Serif" font-size="10.00">embed::delay</text>
</a>
</g>
</g>
<!-- Node5&#45;&gt;Node6 -->
<g id="edge5" class="edge">
<title>Node5&#45;&gt;Node6</title>
<path fill="none" stroke="midnightblue" d="M213.98,-179C201.66,-179 189.26,-179 178.31,-179"/>
<polygon fill="midnightblue" stroke="midnightblue" points="214.27,-182.5 224.27,-179 214.27,-175.5 214.27,-182.5"/>
</g>
<!-- Node6&#45;&gt;Node6 -->
<g id="edge6" class="edge">
<title>Node6&#45;&gt;Node6</title>
<path fill="none" stroke="midnightblue" d="M161.13,-198.4C159.82,-203.31 153.27,-207 141.5,-207 122.66,-207 117.21,-197.57 125.16,-188.76"/>
<polygon fill="midnightblue" stroke="midnightblue" points="164.38,-197.09 157.84,-188.76 157.76,-199.35 164.38,-197.09"/>
</g>
<!-- Node7 -->
<g id="node7" class="node">
<title>Node7</title>
<g id="a_node7"><a xlink:href="group__serial.html#ga56439487351e68f734fdf9b6330da4d2" target="_top" xlink:title="Read bytes from a serial port.">
<polygon fill="white" stroke="black" points="0,-169.5 0,-188.5 69,-188.5 69,-169.5 0,-169.5"/>
<text text-anchor="middle" x="34.5" y="-176.5" font-family="Helvetica,sans-Serif" font-size="10.00">embed::read</text>
</a>
</g>
</g>
<!-- Node6&#45;&gt;Node7 -->
<g id="edge7" class="edge">
<title>Node6&#45;&gt;Node7</title>
<path fill="none" stroke="midnightblue" d="M94.7,-179C86.14,-179 77.35,-179 69.24,-179"/>
<polygon fill="midnightblue" stroke="midnightblue" points="94.95,-182.5 104.95,-179 94.95,-175.5 94.95,-182.5"/>
</g>
<!-- Node9 -->
<g id="node9" class="node">
<title>Node9</title>
<g id="a_node9"><a xlink:href="classembed_1_1frequency.html#a2063d8976c488b5dd47ad13791b47aa0" target="_top" xlink:title="Calculate a duty cycle based on a target, the percent and this driving frequency. Typically used for ...">
<polygon fill="white" stroke="black" points="214,-120 214,-150 350,-150 350,-120 214,-120"/>
<text text-anchor="start" x="222" y="-138" font-family="Helvetica,sans-Serif" font-size="10.00">embed::frequency::calculate</text>
<text text-anchor="middle" x="282" y="-127" font-family="Helvetica,sans-Serif" font-size="10.00">_duty_cycle</text>
</a>
</g>
</g>
<!-- Node8&#45;&gt;Node9 -->
<g id="edge9" class="edge">
<title>Node8&#45;&gt;Node9</title>
<path fill="none" stroke="midnightblue" d="M387.56,-135.6C375.25,-135.53 362.46,-135.45 350.24,-135.38"/>
<polygon fill="midnightblue" stroke="midnightblue" points="387.76,-139.1 397.77,-135.66 387.8,-132.1 387.76,-139.1"/>
</g>
<!-- Node11 -->
<g id="node11" class="node">
<title>Node11</title>
<g id="a_node11"><a xlink:href="classembed_1_1uptime__counter.html#a2681752c4655bc02bd0f4446d120623e" target="_top" xlink:title="Calculates the number of nanoseconds since the counter has started.">
<polygon fill="white" stroke="black" points="223.5,-71 223.5,-101 340.5,-101 340.5,-71 223.5,-71"/>
<text text-anchor="start" x="231.5" y="-89" font-family="Helvetica,sans-Serif" font-size="10.00">embed::uptime_counter</text>
<text text-anchor="middle" x="282" y="-78" font-family="Helvetica,sans-Serif" font-size="10.00">::uptime</text>
</a>
</g>
</g>
<!-- Node10&#45;&gt;Node11 -->
<g id="edge11" class="edge">
<title>Node10&#45;&gt;Node11</title>
<path fill="none" stroke="midnightblue" d="M383.11,-89.43C368.94,-88.95 354.31,-88.44 340.76,-87.98"/>
<polygon fill="midnightblue" stroke="midnightblue" points="383.22,-92.94 393.33,-89.78 383.46,-85.94 383.22,-92.94"/>
</g>
</g>
</svg>
