<?xml version="1.0" encoding="UTF-8" standalone="no"?>
<!DOCTYPE svg PUBLIC "-//W3C//DTD SVG 1.1//EN"
 "http://www.w3.org/Graphics/SVG/1.1/DTD/svg11.dtd">
<!-- Generated by graphviz version 3.0.0 (20220413.0242)
 -->
<!-- Title: embed::uptime_counter::uptime Pages: 1 -->
<svg width="605pt" height="100pt"
 viewBox="0.00 0.00 605.00 99.50" xmlns="http://www.w3.org/2000/svg" xmlns:xlink="http://www.w3.org/1999/xlink">
<g id="graph0" class="graph" transform="scale(1 1) rotate(0) translate(4 95.5)">
<title>embed::uptime_counter::uptime</title>
<polygon fill="white" stroke="transparent" points="-4,4 -4,-95.5 601,-95.5 601,4 -4,4"/>
<!-- Node1 -->
<g id="node1" class="node">
<title>Node1</title>
<g id="a_node1"><a xlink:title="Calculates the number of nanoseconds since the counter has started.">
<polygon fill="#bfbfbf" stroke="black" points="0,-17 0,-47 117,-47 117,-17 0,-17"/>
<text text-anchor="start" x="8" y="-35" font-family="Helvetica,sans-Serif" font-size="10.00">embed::uptime_counter</text>
<text text-anchor="middle" x="58.5" y="-24" font-family="Helvetica,sans-Serif" font-size="10.00">::uptime</text>
</a>
</g>
</g>
<!-- Node2 -->
<g id="node2" class="node">
<title>Node2</title>
<g id="a_node2"><a xlink:href="classembed_1_1frequency.html#a383cdc3d72a91dedffcd92d3b0e73d8a" target="_top" xlink:title="Calculate time duration based on the frequency and a number of cycles.">
<polygon fill="white" stroke="black" points="153,-39 153,-69 284,-69 284,-39 153,-39"/>
<text text-anchor="start" x="161" y="-57" font-family="Helvetica,sans-Serif" font-size="10.00">embed::frequency::duration</text>
<text text-anchor="middle" x="218.5" y="-46" font-family="Helvetica,sans-Serif" font-size="10.00">_from_cycles</text>
</a>
</g>
</g>
<!-- Node1&#45;&gt;Node2 -->
<g id="edge1" class="edge">
<title>Node1&#45;&gt;Node2</title>
<path fill="none" stroke="midnightblue" d="M117.44,-40.07C125.73,-41.22 134.36,-42.42 142.91,-43.61"/>
<polygon fill="midnightblue" stroke="midnightblue" points="142.52,-47.09 152.9,-45.01 143.48,-40.16 142.52,-47.09"/>
</g>
<!-- Node6 -->
<g id="node6" class="node">
<title>Node6</title>
<g id="a_node6"><a xlink:href="classembed_1_1counter.html#a02c24fbeaac81ef1030ff8e1a41b0738" target="_top" xlink:title="Get the uptime of the counter since it has started.">
<polygon fill="white" stroke="black" points="160.5,-0.5 160.5,-19.5 276.5,-19.5 276.5,-0.5 160.5,-0.5"/>
<text text-anchor="middle" x="218.5" y="-7.5" font-family="Helvetica,sans-Serif" font-size="10.00">embed::counter::uptime</text>
</a>
</g>
</g>
<!-- Node1&#45;&gt;Node6 -->
<g id="edge5" class="edge">
<title>Node1&#45;&gt;Node6</title>
<path fill="none" stroke="midnightblue" d="M117.44,-23.93C128.16,-22.44 139.44,-20.87 150.4,-19.34"/>
<polygon fill="midnightblue" stroke="midnightblue" points="150.94,-22.8 160.36,-17.96 149.98,-15.87 150.94,-22.8"/>
</g>
<!-- Node3 -->
<g id="node3" class="node">
<title>Node3</title>
<g id="a_node3"><a xlink:href="classembed_1_1frequency.html#ae253d42390060843082b1ef6c2b300ec" target="_top" xlink:title="Get the frequency as an integer.">
<polygon fill="white" stroke="black" points="320,-61 320,-91 445,-91 445,-61 320,-61"/>
<text text-anchor="start" x="328" y="-79" font-family="Helvetica,sans-Serif" font-size="10.00">embed::frequency::cycles</text>
<text text-anchor="middle" x="382.5" y="-68" font-family="Helvetica,sans-Serif" font-size="10.00">_per_second</text>
</a>
</g>
</g>
<!-- Node2&#45;&gt;Node3 -->
<g id="edge2" class="edge">
<title>Node2&#45;&gt;Node3</title>
<path fill="none" stroke="midnightblue" d="M284.46,-62.82C292.78,-63.95 301.34,-65.11 309.76,-66.26"/>
<polygon fill="midnightblue" stroke="midnightblue" points="309.57,-69.76 319.95,-67.64 310.51,-62.83 309.57,-69.76"/>
</g>
<!-- Node4 -->
<g id="node4" class="node">
<title>Node4</title>
<g id="a_node4"><a xlink:href="namespaceembed.html#a84ea33bb969785c47247cfe0da9aa98e" target="_top" xlink:title="Perform integer division and round the value up if the next decimal place is greater than or equal to...">
<polygon fill="white" stroke="black" points="320,-22.5 320,-41.5 445,-41.5 445,-22.5 320,-22.5"/>
<text text-anchor="middle" x="382.5" y="-29.5" font-family="Helvetica,sans-Serif" font-size="10.00">embed::rounding_division</text>
</a>
</g>
</g>
<!-- Node2&#45;&gt;Node4 -->
<g id="edge3" class="edge">
<title>Node2&#45;&gt;Node4</title>
<path fill="none" stroke="midnightblue" d="M284.46,-45.18C292.78,-44.05 301.34,-42.89 309.76,-41.74"/>
<polygon fill="midnightblue" stroke="midnightblue" points="310.51,-45.17 319.95,-40.36 309.57,-38.24 310.51,-45.17"/>
</g>
<!-- Node5 -->
<g id="node5" class="node">
<title>Node5</title>
<g id="a_node5"><a xlink:href="namespaceembed.html#a6f0922a28ac81378eb689b2ab4bc299a" target="_top" xlink:title="Generic absolute value function that works for integer types.">
<polygon fill="white" stroke="black" points="481,-22.5 481,-41.5 597,-41.5 597,-22.5 481,-22.5"/>
<text text-anchor="middle" x="539" y="-29.5" font-family="Helvetica,sans-Serif" font-size="10.00">embed::absolute_value</text>
</a>
</g>
</g>
<!-- Node4&#45;&gt;Node5 -->
<g id="edge4" class="edge">
<title>Node4&#45;&gt;Node5</title>
<path fill="none" stroke="midnightblue" d="M445.01,-32C453.38,-32 462.02,-32 470.49,-32"/>
<polygon fill="midnightblue" stroke="midnightblue" points="470.72,-35.5 480.72,-32 470.72,-28.5 470.72,-35.5"/>
</g>
</g>
</svg>
