<?xml version="1.0" encoding="UTF-8" standalone="no"?>
<!DOCTYPE svg PUBLIC "-//W3C//DTD SVG 1.1//EN"
 "http://www.w3.org/Graphics/SVG/1.1/DTD/svg11.dtd">
<!-- Generated by graphviz version 3.0.0 (20220413.0242)
 -->
<!-- Title: hal::percent::scale Pages: 1 -->
<svg width="394pt" height="142pt"
 viewBox="0.00 0.00 394.00 142.00" xmlns="http://www.w3.org/2000/svg" xmlns:xlink="http://www.w3.org/1999/xlink">
<g id="graph0" class="graph" transform="scale(1 1) rotate(0) translate(4 138)">
<title>hal::percent::scale</title>
<polygon fill="white" stroke="transparent" points="-4,4 -4,-138 390,-138 390,4 -4,4"/>
<!-- Node1 -->
<g id="node1" class="node">
<title>Node1</title>
<g id="a_node1"><a xlink:title="Get the value of the percent after it is scaled to a range. The output value is bound within the give...">
<polygon fill="#bfbfbf" stroke="black" points="0,-57.5 0,-76.5 94,-76.5 94,-57.5 0,-57.5"/>
<text text-anchor="middle" x="47" y="-64.5" font-family="Helvetica,sans-Serif" font-size="10.00">hal::percent::scale</text>
</a>
</g>
</g>
<!-- Node2 -->
<g id="node2" class="node">
<title>Node2</title>
<g id="a_node2"><a xlink:href="classhal_1_1percent.html#aa120c82da4e8ccac1a58e4b0ab2de1f9" target="_top" xlink:title="Get +100% percentage.">
<polygon fill="white" stroke="black" points="140.5,-76.5 140.5,-95.5 229.5,-95.5 229.5,-76.5 140.5,-76.5"/>
<text text-anchor="middle" x="185" y="-83.5" font-family="Helvetica,sans-Serif" font-size="10.00">hal::percent::max</text>
</a>
</g>
</g>
<!-- Node1&#45;&gt;Node2 -->
<g id="edge1" class="edge">
<title>Node1&#45;&gt;Node2</title>
<path fill="none" stroke="midnightblue" d="M94.04,-73.43C105.72,-75.06 118.37,-76.83 130.39,-78.51"/>
<polygon fill="midnightblue" stroke="midnightblue" points="129.91,-81.98 140.3,-79.9 130.88,-75.05 129.91,-81.98"/>
</g>
<!-- Node4 -->
<g id="node4" class="node">
<title>Node4</title>
<g id="a_node4"><a xlink:href="classhal_1_1percent.html#a3ba7db7f6ed4a72c9b5014f4b193fed0" target="_top" xlink:title="Get the 100% value in its raw representation.">
<polygon fill="white" stroke="black" points="276,-114.5 276,-133.5 386,-133.5 386,-114.5 276,-114.5"/>
<text text-anchor="middle" x="331" y="-121.5" font-family="Helvetica,sans-Serif" font-size="10.00">hal::percent::raw_max</text>
</a>
</g>
</g>
<!-- Node1&#45;&gt;Node4 -->
<g id="edge7" class="edge">
<title>Node1&#45;&gt;Node4</title>
<path fill="none" stroke="midnightblue" d="M64.33,-76.6C80.44,-85.57 106.07,-98.52 130,-105 174.29,-116.99 225.87,-121.67 265.56,-123.39"/>
<polygon fill="midnightblue" stroke="midnightblue" points="265.51,-126.89 275.64,-123.78 265.78,-119.9 265.51,-126.89"/>
</g>
<!-- Node5 -->
<g id="node5" class="node">
<title>Node5</title>
<g id="a_node5"><a xlink:href="classhal_1_1percent.html#ae6a1e30546203a5f9d8879dff495d252" target="_top" xlink:title="Get &#45;100% percentage.">
<polygon fill="white" stroke="black" points="142,-38.5 142,-57.5 228,-57.5 228,-38.5 142,-38.5"/>
<text text-anchor="middle" x="185" y="-45.5" font-family="Helvetica,sans-Serif" font-size="10.00">hal::percent::min</text>
</a>
</g>
</g>
<!-- Node1&#45;&gt;Node5 -->
<g id="edge4" class="edge">
<title>Node1&#45;&gt;Node5</title>
<path fill="none" stroke="midnightblue" d="M94.04,-60.57C106.08,-58.89 119.15,-57.06 131.5,-55.33"/>
<polygon fill="midnightblue" stroke="midnightblue" points="132.25,-58.76 141.67,-53.91 131.28,-51.83 132.25,-58.76"/>
</g>
<!-- Node7 -->
<g id="node7" class="node">
<title>Node7</title>
<g id="a_node7"><a xlink:href="classhal_1_1percent.html#a630093c754626820c0c64ef151146939" target="_top" xlink:title="Get the 0% value in its raw representation.">
<polygon fill="white" stroke="black" points="130,-0.5 130,-19.5 240,-19.5 240,-0.5 130,-0.5"/>
<text text-anchor="middle" x="185" y="-7.5" font-family="Helvetica,sans-Serif" font-size="10.00">hal::percent::raw_zero</text>
</a>
</g>
</g>
<!-- Node1&#45;&gt;Node7 -->
<g id="edge8" class="edge">
<title>Node1&#45;&gt;Node7</title>
<path fill="none" stroke="midnightblue" d="M67.32,-57.41C83.79,-49.39 108.2,-37.86 130,-29 135.06,-26.94 140.44,-24.89 145.77,-22.94"/>
<polygon fill="midnightblue" stroke="midnightblue" points="146.99,-26.22 155.22,-19.55 144.63,-19.63 146.99,-26.22"/>
</g>
<!-- Node3 -->
<g id="node3" class="node">
<title>Node3</title>
<g id="a_node3"><a xlink:href="classhal_1_1percent.html#ac47af31e37f0680bdefe136ee619ef9d" target="_top" xlink:title="Construct 0% percent object.">
<polygon fill="white" stroke="black" points="279.5,-76.5 279.5,-95.5 382.5,-95.5 382.5,-76.5 279.5,-76.5"/>
<text text-anchor="middle" x="331" y="-83.5" font-family="Helvetica,sans-Serif" font-size="10.00">hal::percent::percent</text>
</a>
</g>
</g>
<!-- Node2&#45;&gt;Node3 -->
<g id="edge2" class="edge">
<title>Node2&#45;&gt;Node3</title>
<path fill="none" stroke="midnightblue" d="M229.6,-86C242.13,-86 256.03,-86 269.39,-86"/>
<polygon fill="midnightblue" stroke="midnightblue" points="269.48,-89.5 279.48,-86 269.48,-82.5 269.48,-89.5"/>
</g>
<!-- Node2&#45;&gt;Node4 -->
<g id="edge3" class="edge">
<title>Node2&#45;&gt;Node4</title>
<path fill="none" stroke="midnightblue" d="M222.34,-95.59C241.08,-100.54 264.14,-106.62 284.11,-111.89"/>
<polygon fill="midnightblue" stroke="midnightblue" points="283.36,-115.31 293.92,-114.48 285.15,-108.54 283.36,-115.31"/>
</g>
<!-- Node5&#45;&gt;Node3 -->
<g id="edge5" class="edge">
<title>Node5&#45;&gt;Node3</title>
<path fill="none" stroke="midnightblue" d="M222.34,-57.59C241.08,-62.54 264.14,-68.62 284.11,-73.89"/>
<polygon fill="midnightblue" stroke="midnightblue" points="283.36,-77.31 293.92,-76.48 285.15,-70.54 283.36,-77.31"/>
</g>
<!-- Node6 -->
<g id="node6" class="node">
<title>Node6</title>
<g id="a_node6"><a xlink:href="classhal_1_1percent.html#a36a2265034230d77794566fe966df7e1" target="_top" xlink:title="Get the &#45;100% value in its raw representation.">
<polygon fill="white" stroke="black" points="277.5,-38.5 277.5,-57.5 384.5,-57.5 384.5,-38.5 277.5,-38.5"/>
<text text-anchor="middle" x="331" y="-45.5" font-family="Helvetica,sans-Serif" font-size="10.00">hal::percent::raw_min</text>
</a>
</g>
</g>
<!-- Node5&#45;&gt;Node6 -->
<g id="edge6" class="edge">
<title>Node5&#45;&gt;Node6</title>
<path fill="none" stroke="midnightblue" d="M228.04,-48C240.34,-48 254.07,-48 267.36,-48"/>
<polygon fill="midnightblue" stroke="midnightblue" points="267.41,-51.5 277.41,-48 267.41,-44.5 267.41,-51.5"/>
</g>
</g>
</svg>
