<?xml version="1.0" encoding="UTF-8" standalone="no"?>
<!DOCTYPE svg PUBLIC "-//W3C//DTD SVG 1.1//EN"
 "http://www.w3.org/Graphics/SVG/1.1/DTD/svg11.dtd">
<!-- Generated by graphviz version 3.0.0 (20220413.0242)
 -->
<!-- Title: embed::percent::operator= Pages: 1 -->
<svg width="439pt" height="104pt"
 viewBox="0.00 0.00 439.00 104.00" xmlns="http://www.w3.org/2000/svg" xmlns:xlink="http://www.w3.org/1999/xlink">
<g id="graph0" class="graph" transform="scale(1 1) rotate(0) translate(4 100)">
<title>embed::percent::operator=</title>
<polygon fill="white" stroke="transparent" points="-4,4 -4,-100 435,-100 435,4 -4,4"/>
<!-- Node1 -->
<g id="node1" class="node">
<title>Node1</title>
<g id="a_node1"><a xlink:title="Assignment operator for a percent object based on a floating point value.">
<polygon fill="#bfbfbf" stroke="black" points="0,-38.5 0,-57.5 128,-57.5 128,-38.5 0,-38.5"/>
<text text-anchor="middle" x="64" y="-45.5" font-family="Helvetica,sans-Serif" font-size="10.00">embed::percent::operator=</text>
</a>
</g>
</g>
<!-- Node2 -->
<g id="node2" class="node">
<title>Node2</title>
<g id="a_node2"><a xlink:href="classembed_1_1percent.html#a0f9fc596e3daa1948d0112b98544ef4f" target="_top" xlink:title="Get +100% percentage.">
<polygon fill="white" stroke="black" points="164,-38.5 164,-57.5 269,-57.5 269,-38.5 164,-38.5"/>
<text text-anchor="middle" x="216.5" y="-45.5" font-family="Helvetica,sans-Serif" font-size="10.00">embed::percent::max</text>
</a>
</g>
</g>
<!-- Node1&#45;&gt;Node2 -->
<g id="edge1" class="edge">
<title>Node1&#45;&gt;Node2</title>
<path fill="none" stroke="midnightblue" d="M128.39,-48C136.73,-48 145.27,-48 153.58,-48"/>
<polygon fill="midnightblue" stroke="midnightblue" points="153.58,-51.5 163.58,-48 153.58,-44.5 153.58,-51.5"/>
</g>
<!-- Node4 -->
<g id="node4" class="node">
<title>Node4</title>
<g id="a_node4"><a xlink:href="classembed_1_1percent.html#a18867853ebb7f7101932f298ef9ac059" target="_top" xlink:title="Get the 100% value in its raw representation.">
<polygon fill="white" stroke="black" points="305,-76.5 305,-95.5 431,-95.5 431,-76.5 305,-76.5"/>
<text text-anchor="middle" x="368" y="-83.5" font-family="Helvetica,sans-Serif" font-size="10.00">embed::percent::raw_max</text>
</a>
</g>
</g>
<!-- Node1&#45;&gt;Node4 -->
<g id="edge7" class="edge">
<title>Node1&#45;&gt;Node4</title>
<path fill="none" stroke="midnightblue" d="M109.69,-57.52C126.64,-60.89 146.15,-64.46 164,-67 207.11,-73.14 255.66,-77.77 294.47,-80.92"/>
<polygon fill="midnightblue" stroke="midnightblue" points="294.38,-84.42 304.63,-81.72 294.94,-77.44 294.38,-84.42"/>
</g>
<!-- Node5 -->
<g id="node5" class="node">
<title>Node5</title>
<g id="a_node5"><a xlink:href="classembed_1_1percent.html#a82d4dc647320164d22dc480723c9671b" target="_top" xlink:title="Get &#45;100% percentage.">
<polygon fill="white" stroke="black" points="165,-0.5 165,-19.5 268,-19.5 268,-0.5 165,-0.5"/>
<text text-anchor="middle" x="216.5" y="-7.5" font-family="Helvetica,sans-Serif" font-size="10.00">embed::percent::min</text>
</a>
</g>
</g>
<!-- Node1&#45;&gt;Node5 -->
<g id="edge4" class="edge">
<title>Node1&#45;&gt;Node5</title>
<path fill="none" stroke="midnightblue" d="M102.98,-38.41C122.66,-33.44 146.89,-27.32 167.82,-22.04"/>
<polygon fill="midnightblue" stroke="midnightblue" points="168.96,-25.36 177.8,-19.52 167.24,-18.57 168.96,-25.36"/>
</g>
<!-- Node3 -->
<g id="node3" class="node">
<title>Node3</title>
<g id="a_node3"><a xlink:href="classembed_1_1percent.html#a3635a4d8e47f6a65226ee6391509f3a1" target="_top" xlink:title="Construct 0% percent object.">
<polygon fill="white" stroke="black" points="308.5,-38.5 308.5,-57.5 427.5,-57.5 427.5,-38.5 308.5,-38.5"/>
<text text-anchor="middle" x="368" y="-45.5" font-family="Helvetica,sans-Serif" font-size="10.00">embed::percent::percent</text>
</a>
</g>
</g>
<!-- Node2&#45;&gt;Node3 -->
<g id="edge2" class="edge">
<title>Node2&#45;&gt;Node3</title>
<path fill="none" stroke="midnightblue" d="M269.37,-48C278.69,-48 288.55,-48 298.26,-48"/>
<polygon fill="midnightblue" stroke="midnightblue" points="298.31,-51.5 308.31,-48 298.31,-44.5 298.31,-51.5"/>
</g>
<!-- Node2&#45;&gt;Node4 -->
<g id="edge3" class="edge">
<title>Node2&#45;&gt;Node4</title>
<path fill="none" stroke="midnightblue" d="M255.23,-57.59C274.78,-62.56 298.85,-68.68 319.64,-73.96"/>
<polygon fill="midnightblue" stroke="midnightblue" points="318.99,-77.41 329.55,-76.48 320.72,-70.62 318.99,-77.41"/>
</g>
<!-- Node5&#45;&gt;Node3 -->
<g id="edge5" class="edge">
<title>Node5&#45;&gt;Node3</title>
<path fill="none" stroke="midnightblue" d="M255.23,-19.59C274.78,-24.56 298.85,-30.68 319.64,-35.96"/>
<polygon fill="midnightblue" stroke="midnightblue" points="318.99,-39.41 329.55,-38.48 320.72,-32.62 318.99,-39.41"/>
</g>
<!-- Node6 -->
<g id="node6" class="node">
<title>Node6</title>
<g id="a_node6"><a xlink:href="classembed_1_1percent.html#addd3062c4b442314f9b135b532367c44" target="_top" xlink:title="Get the &#45;100% value in its raw representation.">
<polygon fill="white" stroke="black" points="306,-0.5 306,-19.5 430,-19.5 430,-0.5 306,-0.5"/>
<text text-anchor="middle" x="368" y="-7.5" font-family="Helvetica,sans-Serif" font-size="10.00">embed::percent::raw_min</text>
</a>
</g>
</g>
<!-- Node5&#45;&gt;Node6 -->
<g id="edge6" class="edge">
<title>Node5&#45;&gt;Node6</title>
<path fill="none" stroke="midnightblue" d="M268.11,-10C277.01,-10 286.42,-10 295.75,-10"/>
<polygon fill="midnightblue" stroke="midnightblue" points="295.82,-13.5 305.82,-10 295.82,-6.5 295.82,-13.5"/>
</g>
</g>
</svg>
