<?xml version="1.0" encoding="UTF-8" standalone="no"?>
<!DOCTYPE svg PUBLIC "-//W3C//DTD SVG 1.1//EN"
 "http://www.w3.org/Graphics/SVG/1.1/DTD/svg11.dtd">
<!-- Generated by graphviz version 3.0.0 (20220413.0242)
 -->
<!-- Title: hal::percent::from_ratio Pages: 1 -->
<svg width="253pt" height="154pt"
 viewBox="0.00 0.00 253.00 154.00" xmlns="http://www.w3.org/2000/svg" xmlns:xlink="http://www.w3.org/1999/xlink">
<g id="graph0" class="graph" transform="scale(1 1) rotate(0) translate(4 150)">
<title>hal::percent::from_ratio</title>
<polygon fill="white" stroke="transparent" points="-4,4 -4,-150 249,-150 249,4 -4,4"/>
<!-- Node1 -->
<g id="node1" class="node">
<title>Node1</title>
<g id="a_node1"><a xlink:title="Generate a percentage based on input relative to the maximum possible value.">
<polygon fill="#bfbfbf" stroke="black" points="155,-61 155,-91 245,-91 245,-61 155,-61"/>
<text text-anchor="start" x="163" y="-79" font-family="Helvetica,sans-Serif" font-size="10.00">hal::percent::from</text>
<text text-anchor="middle" x="200" y="-68" font-family="Helvetica,sans-Serif" font-size="10.00">_ratio</text>
</a>
</g>
</g>
<!-- Node2 -->
<g id="node2" class="node">
<title>Node2</title>
<g id="a_node2"><a xlink:href="classhal_1_1rc__servo.html#a4b6b2863a7ea2f9e426f32c89a29c8c5" target="_top" xlink:title="Factory function to create a rc_servo object.">
<polygon fill="white" stroke="black" points="8,-126.5 8,-145.5 111,-145.5 111,-126.5 8,-126.5"/>
<text text-anchor="middle" x="59.5" y="-133.5" font-family="Helvetica,sans-Serif" font-size="10.00">hal::rc_servo::create</text>
</a>
</g>
</g>
<!-- Node1&#45;&gt;Node2 -->
<g id="edge1" class="edge">
<title>Node1&#45;&gt;Node2</title>
<path fill="none" stroke="midnightblue" d="M163.09,-95.95C149.5,-103.09 133.75,-110.87 119,-117 110.72,-120.44 101.57,-123.67 93.02,-126.46"/>
<polygon fill="midnightblue" stroke="midnightblue" points="164.93,-98.93 172.11,-91.14 161.64,-92.76 164.93,-98.93"/>
</g>
<!-- Node3 -->
<g id="node3" class="node">
<title>Node3</title>
<g id="a_node3"><a xlink:href="group__utility.html#gacf35495e951216c5f4765dbe9f256fdd" target="_top" xlink:title="Map an target value [x] from an input range [a,b] to an output range [c,d].">
<polygon fill="white" stroke="black" points="33,-88.5 33,-107.5 86,-107.5 86,-88.5 33,-88.5"/>
<text text-anchor="middle" x="59.5" y="-95.5" font-family="Helvetica,sans-Serif" font-size="10.00">hal::map</text>
</a>
</g>
</g>
<!-- Node1&#45;&gt;Node3 -->
<g id="edge2" class="edge">
<title>Node1&#45;&gt;Node3</title>
<path fill="none" stroke="midnightblue" d="M144.76,-84.62C124.57,-87.82 102.61,-91.31 86.16,-93.92"/>
<polygon fill="midnightblue" stroke="midnightblue" points="145.47,-88.05 154.8,-83.02 144.37,-81.13 145.47,-88.05"/>
</g>
<!-- Node4 -->
<g id="node4" class="node">
<title>Node4</title>
<g id="a_node4"><a xlink:href="structhal_1_1duty__cycle.html#a5f5bad1e9e0cd329eeecd5c0db0e0a32" target="_top" xlink:title="Conversion from duty cycle to percentage.">
<polygon fill="white" stroke="black" points="0,-39 0,-69 119,-69 119,-39 0,-39"/>
<text text-anchor="start" x="8" y="-57" font-family="Helvetica,sans-Serif" font-size="10.00">hal::duty_cycle::operator</text>
<text text-anchor="middle" x="59.5" y="-46" font-family="Helvetica,sans-Serif" font-size="10.00"> percent</text>
</a>
</g>
</g>
<!-- Node1&#45;&gt;Node4 -->
<g id="edge3" class="edge">
<title>Node1&#45;&gt;Node4</title>
<path fill="none" stroke="midnightblue" d="M144.76,-67.38C136.37,-66.05 127.68,-64.67 119.2,-63.32"/>
<polygon fill="midnightblue" stroke="midnightblue" points="144.37,-70.87 154.8,-68.98 145.47,-63.95 144.37,-70.87"/>
</g>
<!-- Node5 -->
<g id="node5" class="node">
<title>Node5</title>
<g id="a_node5"><a xlink:href="classhal_1_1percent.html#a1bf2e7369a19e7795c2e68c643e8d06b" target="_top" xlink:title="Get the percent after it is scaled to a range. The output percent is bound within the given range....">
<polygon fill="white" stroke="black" points="12.5,-0.5 12.5,-19.5 106.5,-19.5 106.5,-0.5 12.5,-0.5"/>
<text text-anchor="middle" x="59.5" y="-7.5" font-family="Helvetica,sans-Serif" font-size="10.00">hal::percent::scale</text>
</a>
</g>
</g>
<!-- Node1&#45;&gt;Node5 -->
<g id="edge4" class="edge">
<title>Node1&#45;&gt;Node5</title>
<path fill="none" stroke="midnightblue" d="M166.57,-55.45C152.31,-46.92 135.16,-37.33 119,-30 110.5,-26.14 101.01,-22.6 92.2,-19.6"/>
<polygon fill="midnightblue" stroke="midnightblue" points="165.12,-58.67 175.48,-60.87 168.75,-52.69 165.12,-58.67"/>
</g>
</g>
</svg>
