<?xml version="1.0" encoding="UTF-8" standalone="no"?>
<!DOCTYPE svg PUBLIC "-//W3C//DTD SVG 1.1//EN"
 "http://www.w3.org/Graphics/SVG/1.1/DTD/svg11.dtd">
<!-- Generated by graphviz version 3.0.0 (20220413.0242)
 -->
<!-- Title: embed::counter::uptime Pages: 1 -->
<svg width="645pt" height="101pt"
 viewBox="0.00 0.00 645.00 100.50" xmlns="http://www.w3.org/2000/svg" xmlns:xlink="http://www.w3.org/1999/xlink">
<g id="graph0" class="graph" transform="scale(1 1) rotate(0) translate(4 96.5)">
<title>embed::counter::uptime</title>
<polygon fill="white" stroke="transparent" points="-4,4 -4,-96.5 641,-96.5 641,4 -4,4"/>
<!-- Node1 -->
<g id="node1" class="node">
<title>Node1</title>
<g id="a_node1"><a xlink:title="Get the uptime of the counter since it has started.">
<polygon fill="#bfbfbf" stroke="black" points="521,-30 521,-49 637,-49 637,-30 521,-30"/>
<text text-anchor="middle" x="579" y="-37" font-family="Helvetica,sans-Serif" font-size="10.00">embed::counter::uptime</text>
</a>
</g>
</g>
<!-- Node2 -->
<g id="node2" class="node">
<title>Node2</title>
<g id="a_node2"><a xlink:href="classembed_1_1counter__timeout.html#aa5741370521bba1742b8d4080f26ac0d" target="_top" xlink:title="Create a counter_timeout.">
<polygon fill="white" stroke="black" points="365,-49.5 365,-79.5 485,-79.5 485,-49.5 365,-49.5"/>
<text text-anchor="start" x="373" y="-67.5" font-family="Helvetica,sans-Serif" font-size="10.00">embed::counter_timeout</text>
<text text-anchor="middle" x="425" y="-56.5" font-family="Helvetica,sans-Serif" font-size="10.00">::create</text>
</a>
</g>
</g>
<!-- Node1&#45;&gt;Node2 -->
<g id="edge1" class="edge">
<title>Node1&#45;&gt;Node2</title>
<path fill="none" stroke="midnightblue" d="M510.96,-50.53C502.36,-51.94 493.59,-53.38 485.13,-54.78"/>
<polygon fill="midnightblue" stroke="midnightblue" points="511.67,-53.96 520.97,-48.88 510.53,-47.05 511.67,-53.96"/>
</g>
<!-- Node6 -->
<g id="node6" class="node">
<title>Node6</title>
<g id="a_node6"><a xlink:href="classembed_1_1counter__timeout.html#a0e0ca951312cdae3cd016e8984eff74b" target="_top" xlink:title="Call this object to check if it has timed out.">
<polygon fill="white" stroke="black" points="365,-0.5 365,-30.5 485,-30.5 485,-0.5 365,-0.5"/>
<text text-anchor="start" x="373" y="-18.5" font-family="Helvetica,sans-Serif" font-size="10.00">embed::counter_timeout</text>
<text text-anchor="middle" x="425" y="-7.5" font-family="Helvetica,sans-Serif" font-size="10.00">::operator()</text>
</a>
</g>
</g>
<!-- Node1&#45;&gt;Node6 -->
<g id="edge6" class="edge">
<title>Node1&#45;&gt;Node6</title>
<path fill="none" stroke="midnightblue" d="M510.96,-28.92C502.36,-27.56 493.59,-26.17 485.13,-24.84"/>
<polygon fill="midnightblue" stroke="midnightblue" points="510.54,-32.39 520.97,-30.5 511.64,-25.48 510.54,-32.39"/>
</g>
<!-- Node3 -->
<g id="node3" class="node">
<title>Node3</title>
<g id="a_node3"><a xlink:href="group__counter.html#ga4f1edcd06bf52209d5293e54d0d1beb6" target="_top" xlink:title="Create a timeout object based on embed::counter.">
<polygon fill="white" stroke="black" points="214,-55 214,-74 329,-74 329,-55 214,-55"/>
<text text-anchor="middle" x="271.5" y="-62" font-family="Helvetica,sans-Serif" font-size="10.00">embed::create_timeout</text>
</a>
</g>
</g>
<!-- Node2&#45;&gt;Node3 -->
<g id="edge2" class="edge">
<title>Node2&#45;&gt;Node3</title>
<path fill="none" stroke="midnightblue" d="M354.93,-64.5C346.29,-64.5 337.53,-64.5 329.11,-64.5"/>
<polygon fill="midnightblue" stroke="midnightblue" points="354.99,-68 364.99,-64.5 354.99,-61 354.99,-68"/>
</g>
<!-- Node4 -->
<g id="node4" class="node">
<title>Node4</title>
<g id="a_node4"><a xlink:href="group__counter.html#ga53e2d568aa13881c4213fe89a2e1c42e" target="_top" xlink:title="Delay execution for a duration of time using a hardware counter.">
<polygon fill="white" stroke="black" points="105,-55 105,-74 178,-74 178,-55 105,-55"/>
<text text-anchor="middle" x="141.5" y="-62" font-family="Helvetica,sans-Serif" font-size="10.00">embed::delay</text>
</a>
</g>
</g>
<!-- Node3&#45;&gt;Node4 -->
<g id="edge3" class="edge">
<title>Node3&#45;&gt;Node4</title>
<path fill="none" stroke="midnightblue" d="M203.94,-64.5C195.04,-64.5 186.2,-64.5 178.12,-64.5"/>
<polygon fill="midnightblue" stroke="midnightblue" points="203.98,-68 213.98,-64.5 203.98,-61 203.98,-68"/>
</g>
<!-- Node4&#45;&gt;Node4 -->
<g id="edge4" class="edge">
<title>Node4&#45;&gt;Node4</title>
<path fill="none" stroke="midnightblue" d="M161.13,-83.9C159.82,-88.81 153.27,-92.5 141.5,-92.5 122.66,-92.5 117.21,-83.07 125.16,-74.26"/>
<polygon fill="midnightblue" stroke="midnightblue" points="164.38,-82.59 157.84,-74.26 157.76,-84.85 164.38,-82.59"/>
</g>
<!-- Node5 -->
<g id="node5" class="node">
<title>Node5</title>
<g id="a_node5"><a xlink:href="group__serial.html#ga56439487351e68f734fdf9b6330da4d2" target="_top" xlink:title="Read bytes from a serial port.">
<polygon fill="white" stroke="black" points="0,-55 0,-74 69,-74 69,-55 0,-55"/>
<text text-anchor="middle" x="34.5" y="-62" font-family="Helvetica,sans-Serif" font-size="10.00">embed::read</text>
</a>
</g>
</g>
<!-- Node4&#45;&gt;Node5 -->
<g id="edge5" class="edge">
<title>Node4&#45;&gt;Node5</title>
<path fill="none" stroke="midnightblue" d="M94.7,-64.5C86.14,-64.5 77.35,-64.5 69.24,-64.5"/>
<polygon fill="midnightblue" stroke="midnightblue" points="94.95,-68 104.95,-64.5 94.95,-61 94.95,-68"/>
</g>
</g>
</svg>
