<?xml version="1.0" encoding="UTF-8" standalone="no"?>
<!DOCTYPE svg PUBLIC "-//W3C//DTD SVG 1.1//EN"
 "http://www.w3.org/Graphics/SVG/1.1/DTD/svg11.dtd">
<!-- Generated by graphviz version 3.0.0 (20220413.0242)
 -->
<!-- Title: embed::percent::raw_min Pages: 1 -->
<svg width="439pt" height="230pt"
 viewBox="0.00 0.00 439.00 230.00" xmlns="http://www.w3.org/2000/svg" xmlns:xlink="http://www.w3.org/1999/xlink">
<g id="graph0" class="graph" transform="scale(1 1) rotate(0) translate(4 226)">
<title>embed::percent::raw_min</title>
<polygon fill="white" stroke="transparent" points="-4,4 -4,-226 435,-226 435,4 -4,4"/>
<!-- Node1 -->
<g id="node1" class="node">
<title>Node1</title>
<g id="a_node1"><a xlink:title="Get the &#45;100% value in its raw representation.">
<polygon fill="#bfbfbf" stroke="black" points="307,-76.5 307,-95.5 431,-95.5 431,-76.5 307,-76.5"/>
<text text-anchor="middle" x="369" y="-83.5" font-family="Helvetica,sans-Serif" font-size="10.00">embed::percent::raw_min</text>
</a>
</g>
</g>
<!-- Node2 -->
<g id="node2" class="node">
<title>Node2</title>
<g id="a_node2"><a xlink:href="classembed_1_1percent.html#a3031fcd41ebdbc14fe77114d239c0b27" target="_top" xlink:title="Generate a percentage based on input relative to the maximum possible value.">
<polygon fill="white" stroke="black" points="164,-115 164,-145 271,-145 271,-115 164,-115"/>
<text text-anchor="start" x="172" y="-133" font-family="Helvetica,sans-Serif" font-size="10.00">embed::percent::from</text>
<text text-anchor="middle" x="217.5" y="-122" font-family="Helvetica,sans-Serif" font-size="10.00">_ratio</text>
</a>
</g>
</g>
<!-- Node1&#45;&gt;Node2 -->
<g id="edge1" class="edge">
<title>Node1&#45;&gt;Node2</title>
<path fill="none" stroke="midnightblue" d="M325.68,-98.46C308.26,-103.58 287.93,-109.56 269.69,-114.93"/>
<polygon fill="midnightblue" stroke="midnightblue" points="326.96,-101.73 335.56,-95.55 324.98,-95.01 326.96,-101.73"/>
</g>
<!-- Node6 -->
<g id="node6" class="node">
<title>Node6</title>
<g id="a_node6"><a xlink:href="classembed_1_1percent.html#afa379fbbb92bc5dc22f0dce8bcf7ea1b" target="_top" xlink:title="Get the percent after it is scaled to a range. The output percent is bound within the given range....">
<polygon fill="white" stroke="black" points="9,-76.5 9,-95.5 119,-95.5 119,-76.5 9,-76.5"/>
<text text-anchor="middle" x="64" y="-83.5" font-family="Helvetica,sans-Serif" font-size="10.00">embed::percent::scale</text>
</a>
</g>
</g>
<!-- Node1&#45;&gt;Node6 -->
<g id="edge10" class="edge">
<title>Node1&#45;&gt;Node6</title>
<path fill="none" stroke="midnightblue" d="M296.43,-86C242.12,-86 168.59,-86 119.12,-86"/>
<polygon fill="midnightblue" stroke="midnightblue" points="296.68,-89.5 306.68,-86 296.68,-82.5 296.68,-89.5"/>
</g>
<!-- Node7 -->
<g id="node7" class="node">
<title>Node7</title>
<g id="a_node7"><a xlink:href="classembed_1_1percent.html#a82d4dc647320164d22dc480723c9671b" target="_top" xlink:title="Get &#45;100% percentage.">
<polygon fill="white" stroke="black" points="166,-38.5 166,-57.5 269,-57.5 269,-38.5 166,-38.5"/>
<text text-anchor="middle" x="217.5" y="-45.5" font-family="Helvetica,sans-Serif" font-size="10.00">embed::percent::min</text>
</a>
</g>
</g>
<!-- Node1&#45;&gt;Node7 -->
<g id="edge6" class="edge">
<title>Node1&#45;&gt;Node7</title>
<path fill="none" stroke="midnightblue" d="M320.35,-73.89C299.53,-68.6 275.46,-62.48 255.95,-57.52"/>
<polygon fill="midnightblue" stroke="midnightblue" points="319.72,-77.34 330.27,-76.41 321.45,-70.56 319.72,-77.34"/>
</g>
<!-- Node3 -->
<g id="node3" class="node">
<title>Node3</title>
<g id="a_node3"><a xlink:href="classembed_1_1rc__servo.html#a026639b8cea2066eb30b175a5bb4c3d0" target="_top" xlink:title="Factory function to create a rc_servo object.">
<polygon fill="white" stroke="black" points="4.5,-202.5 4.5,-221.5 123.5,-221.5 123.5,-202.5 4.5,-202.5"/>
<text text-anchor="middle" x="64" y="-209.5" font-family="Helvetica,sans-Serif" font-size="10.00">embed::rc_servo::create</text>
</a>
</g>
</g>
<!-- Node2&#45;&gt;Node3 -->
<g id="edge2" class="edge">
<title>Node2&#45;&gt;Node3</title>
<path fill="none" stroke="midnightblue" d="M191.17,-151.43C174.2,-164.91 150.85,-181.8 128,-193 120.41,-196.72 111.94,-199.88 103.74,-202.49"/>
<polygon fill="midnightblue" stroke="midnightblue" points="193.38,-154.14 198.96,-145.13 188.98,-148.7 193.38,-154.14"/>
</g>
<!-- Node4 -->
<g id="node4" class="node">
<title>Node4</title>
<g id="a_node4"><a xlink:href="group__utility.html#gafa1bc584612147c23f340cfd2786199c" target="_top" xlink:title="Map an target value [x] from an input range [a,b] to an output range [c,d].">
<polygon fill="white" stroke="black" points="29.5,-164.5 29.5,-183.5 98.5,-183.5 98.5,-164.5 29.5,-164.5"/>
<text text-anchor="middle" x="64" y="-171.5" font-family="Helvetica,sans-Serif" font-size="10.00">embed::map</text>
</a>
</g>
</g>
<!-- Node2&#45;&gt;Node4 -->
<g id="edge3" class="edge">
<title>Node2&#45;&gt;Node4</title>
<path fill="none" stroke="midnightblue" d="M155.03,-147.85C135.51,-153.52 114.68,-159.57 97.98,-164.42"/>
<polygon fill="midnightblue" stroke="midnightblue" points="156.16,-151.17 164.79,-145.02 154.21,-144.45 156.16,-151.17"/>
</g>
<!-- Node5 -->
<g id="node5" class="node">
<title>Node5</title>
<g id="a_node5"><a xlink:href="structembed_1_1duty__cycle.html#ae3211da17ad871387109a5d901a18183" target="_top" xlink:title="Conversion from duty cycle to percentage.">
<polygon fill="white" stroke="black" points="13.5,-115 13.5,-145 114.5,-145 114.5,-115 13.5,-115"/>
<text text-anchor="start" x="21.5" y="-133" font-family="Helvetica,sans-Serif" font-size="10.00">embed::duty_cycle::</text>
<text text-anchor="middle" x="64" y="-122" font-family="Helvetica,sans-Serif" font-size="10.00">operator percent</text>
</a>
</g>
</g>
<!-- Node2&#45;&gt;Node5 -->
<g id="edge4" class="edge">
<title>Node2&#45;&gt;Node5</title>
<path fill="none" stroke="midnightblue" d="M153.65,-130C140.65,-130 127.12,-130 114.67,-130"/>
<polygon fill="midnightblue" stroke="midnightblue" points="153.94,-133.5 163.94,-130 153.94,-126.5 153.94,-133.5"/>
</g>
<!-- Node2&#45;&gt;Node6 -->
<g id="edge5" class="edge">
<title>Node2&#45;&gt;Node6</title>
<path fill="none" stroke="midnightblue" d="M155.03,-112.15C135.51,-106.48 114.68,-100.43 97.98,-95.58"/>
<polygon fill="midnightblue" stroke="midnightblue" points="154.21,-115.55 164.79,-114.98 156.16,-108.83 154.21,-115.55"/>
</g>
<!-- Node7&#45;&gt;Node6 -->
<g id="edge8" class="edge">
<title>Node7&#45;&gt;Node6</title>
<path fill="none" stroke="midnightblue" d="M168.5,-60.04C147.33,-65.35 122.81,-71.5 102.95,-76.48"/>
<polygon fill="midnightblue" stroke="midnightblue" points="169.42,-63.42 178.27,-57.59 167.72,-56.63 169.42,-63.42"/>
</g>
<!-- Node8 -->
<g id="node8" class="node">
<title>Node8</title>
<g id="a_node8"><a xlink:href="classembed_1_1percent.html#af2a395e77ca5d840fc8ee29c4354dacb" target="_top" xlink:title="Assignment operator for a percent object based on a floating point value.">
<polygon fill="white" stroke="black" points="0,-38.5 0,-57.5 128,-57.5 128,-38.5 0,-38.5"/>
<text text-anchor="middle" x="64" y="-45.5" font-family="Helvetica,sans-Serif" font-size="10.00">embed::percent::operator=</text>
</a>
</g>
</g>
<!-- Node7&#45;&gt;Node8 -->
<g id="edge7" class="edge">
<title>Node7&#45;&gt;Node8</title>
<path fill="none" stroke="midnightblue" d="M155.58,-48C146.54,-48 137.2,-48 128.11,-48"/>
<polygon fill="midnightblue" stroke="midnightblue" points="155.63,-51.5 165.63,-48 155.63,-44.5 155.63,-51.5"/>
</g>
<!-- Node9 -->
<g id="node9" class="node">
<title>Node9</title>
<g id="a_node9"><a xlink:href="group__utility.html#ga860cfe310c0207e449c3b382cc49794b" target="_top" xlink:title="convert this percentage value into a string from &#45;1.0 to +1.0">
<polygon fill="white" stroke="black" points="20,-0.5 20,-19.5 108,-19.5 108,-0.5 20,-0.5"/>
<text text-anchor="middle" x="64" y="-7.5" font-family="Helvetica,sans-Serif" font-size="10.00">embed::to_string</text>
</a>
</g>
</g>
<!-- Node7&#45;&gt;Node9 -->
<g id="edge9" class="edge">
<title>Node7&#45;&gt;Node9</title>
<path fill="none" stroke="midnightblue" d="M168.5,-35.96C147.33,-30.65 122.81,-24.5 102.95,-19.52"/>
<polygon fill="midnightblue" stroke="midnightblue" points="167.72,-39.37 178.27,-38.41 169.42,-32.58 167.72,-39.37"/>
</g>
</g>
</svg>
