<?xml version="1.0" encoding="UTF-8" standalone="no"?>
<!DOCTYPE svg PUBLIC "-//W3C//DTD SVG 1.1//EN"
 "http://www.w3.org/Graphics/SVG/1.1/DTD/svg11.dtd">
<!-- Generated by graphviz version 3.0.0 (20220413.0242)
 -->
<!-- Title: embed::percent::scale Pages: 1 -->
<svg width="442pt" height="142pt"
 viewBox="0.00 0.00 442.00 142.00" xmlns="http://www.w3.org/2000/svg" xmlns:xlink="http://www.w3.org/1999/xlink">
<g id="graph0" class="graph" transform="scale(1 1) rotate(0) translate(4 138)">
<title>embed::percent::scale</title>
<polygon fill="white" stroke="transparent" points="-4,4 -4,-138 438,-138 438,4 -4,4"/>
<!-- Node1 -->
<g id="node1" class="node">
<title>Node1</title>
<g id="a_node1"><a xlink:title="Get the value of the percent after it is scaled to a range. The output value is bound within the give...">
<polygon fill="#bfbfbf" stroke="black" points="0,-57.5 0,-76.5 110,-76.5 110,-57.5 0,-57.5"/>
<text text-anchor="middle" x="55" y="-64.5" font-family="Helvetica,sans-Serif" font-size="10.00">embed::percent::scale</text>
</a>
</g>
</g>
<!-- Node2 -->
<g id="node2" class="node">
<title>Node2</title>
<g id="a_node2"><a xlink:href="classembed_1_1percent.html#a0f9fc596e3daa1948d0112b98544ef4f" target="_top" xlink:title="Get +100% percentage.">
<polygon fill="white" stroke="black" points="156.5,-76.5 156.5,-95.5 261.5,-95.5 261.5,-76.5 156.5,-76.5"/>
<text text-anchor="middle" x="209" y="-83.5" font-family="Helvetica,sans-Serif" font-size="10.00">embed::percent::max</text>
</a>
</g>
</g>
<!-- Node1&#45;&gt;Node2 -->
<g id="edge1" class="edge">
<title>Node1&#45;&gt;Node2</title>
<path fill="none" stroke="midnightblue" d="M110.02,-73.75C121.82,-75.23 134.39,-76.8 146.46,-78.31"/>
<polygon fill="midnightblue" stroke="midnightblue" points="146.09,-81.79 156.45,-79.56 146.96,-74.84 146.09,-81.79"/>
</g>
<!-- Node4 -->
<g id="node4" class="node">
<title>Node4</title>
<g id="a_node4"><a xlink:href="classembed_1_1percent.html#a18867853ebb7f7101932f298ef9ac059" target="_top" xlink:title="Get the 100% value in its raw representation.">
<polygon fill="white" stroke="black" points="308,-114.5 308,-133.5 434,-133.5 434,-114.5 308,-114.5"/>
<text text-anchor="middle" x="371" y="-121.5" font-family="Helvetica,sans-Serif" font-size="10.00">embed::percent::raw_max</text>
</a>
</g>
</g>
<!-- Node1&#45;&gt;Node4 -->
<g id="edge7" class="edge">
<title>Node1&#45;&gt;Node4</title>
<path fill="none" stroke="midnightblue" d="M74.03,-76.62C91.8,-85.61 119.98,-98.58 146,-105 195.74,-117.28 253.37,-121.96 297.72,-123.61"/>
<polygon fill="midnightblue" stroke="midnightblue" points="297.72,-127.11 307.83,-123.94 297.95,-120.12 297.72,-127.11"/>
</g>
<!-- Node5 -->
<g id="node5" class="node">
<title>Node5</title>
<g id="a_node5"><a xlink:href="classembed_1_1percent.html#a82d4dc647320164d22dc480723c9671b" target="_top" xlink:title="Get &#45;100% percentage.">
<polygon fill="white" stroke="black" points="157.5,-38.5 157.5,-57.5 260.5,-57.5 260.5,-38.5 157.5,-38.5"/>
<text text-anchor="middle" x="209" y="-45.5" font-family="Helvetica,sans-Serif" font-size="10.00">embed::percent::min</text>
</a>
</g>
</g>
<!-- Node1&#45;&gt;Node5 -->
<g id="edge4" class="edge">
<title>Node1&#45;&gt;Node5</title>
<path fill="none" stroke="midnightblue" d="M110.02,-60.25C122.08,-58.74 134.96,-57.13 147.28,-55.59"/>
<polygon fill="midnightblue" stroke="midnightblue" points="147.97,-59.03 157.46,-54.32 147.1,-52.08 147.97,-59.03"/>
</g>
<!-- Node7 -->
<g id="node7" class="node">
<title>Node7</title>
<g id="a_node7"><a xlink:href="classembed_1_1percent.html#ad205fdaffa0fc8a9b7c227b704571b74" target="_top" xlink:title="Get the 0% value in its raw representation.">
<polygon fill="white" stroke="black" points="146,-0.5 146,-19.5 272,-19.5 272,-0.5 146,-0.5"/>
<text text-anchor="middle" x="209" y="-7.5" font-family="Helvetica,sans-Serif" font-size="10.00">embed::percent::raw_zero</text>
</a>
</g>
</g>
<!-- Node1&#45;&gt;Node7 -->
<g id="edge8" class="edge">
<title>Node1&#45;&gt;Node7</title>
<path fill="none" stroke="midnightblue" d="M76.85,-57.48C94.94,-49.39 121.93,-37.74 146,-29 152.04,-26.81 158.47,-24.64 164.82,-22.61"/>
<polygon fill="midnightblue" stroke="midnightblue" points="166.15,-25.86 174.65,-19.54 164.06,-19.18 166.15,-25.86"/>
</g>
<!-- Node3 -->
<g id="node3" class="node">
<title>Node3</title>
<g id="a_node3"><a xlink:href="classembed_1_1percent.html#a3635a4d8e47f6a65226ee6391509f3a1" target="_top" xlink:title="Construct 0% percent object.">
<polygon fill="white" stroke="black" points="311.5,-76.5 311.5,-95.5 430.5,-95.5 430.5,-76.5 311.5,-76.5"/>
<text text-anchor="middle" x="371" y="-83.5" font-family="Helvetica,sans-Serif" font-size="10.00">embed::percent::percent</text>
</a>
</g>
</g>
<!-- Node2&#45;&gt;Node3 -->
<g id="edge2" class="edge">
<title>Node2&#45;&gt;Node3</title>
<path fill="none" stroke="midnightblue" d="M261.51,-86C274.17,-86 287.94,-86 301.27,-86"/>
<polygon fill="midnightblue" stroke="midnightblue" points="301.36,-89.5 311.36,-86 301.36,-82.5 301.36,-89.5"/>
</g>
<!-- Node2&#45;&gt;Node4 -->
<g id="edge3" class="edge">
<title>Node2&#45;&gt;Node4</title>
<path fill="none" stroke="midnightblue" d="M250.37,-95.59C271.49,-100.6 297.53,-106.79 319.92,-112.11"/>
<polygon fill="midnightblue" stroke="midnightblue" points="319.38,-115.57 329.92,-114.48 320.99,-108.76 319.38,-115.57"/>
</g>
<!-- Node5&#45;&gt;Node3 -->
<g id="edge5" class="edge">
<title>Node5&#45;&gt;Node3</title>
<path fill="none" stroke="midnightblue" d="M250.37,-57.59C271.49,-62.6 297.53,-68.79 319.92,-74.11"/>
<polygon fill="midnightblue" stroke="midnightblue" points="319.38,-77.57 329.92,-76.48 320.99,-70.76 319.38,-77.57"/>
</g>
<!-- Node6 -->
<g id="node6" class="node">
<title>Node6</title>
<g id="a_node6"><a xlink:href="classembed_1_1percent.html#addd3062c4b442314f9b135b532367c44" target="_top" xlink:title="Get the &#45;100% value in its raw representation.">
<polygon fill="white" stroke="black" points="309,-38.5 309,-57.5 433,-57.5 433,-38.5 309,-38.5"/>
<text text-anchor="middle" x="371" y="-45.5" font-family="Helvetica,sans-Serif" font-size="10.00">embed::percent::raw_min</text>
</a>
</g>
</g>
<!-- Node5&#45;&gt;Node6 -->
<g id="edge6" class="edge">
<title>Node5&#45;&gt;Node6</title>
<path fill="none" stroke="midnightblue" d="M260.62,-48C272.69,-48 285.79,-48 298.59,-48"/>
<polygon fill="midnightblue" stroke="midnightblue" points="298.77,-51.5 308.77,-48 298.77,-44.5 298.77,-51.5"/>
</g>
</g>
</svg>
