<?xml version="1.0" encoding="UTF-8" standalone="no"?>
<!DOCTYPE svg PUBLIC "-//W3C//DTD SVG 1.1//EN"
 "http://www.w3.org/Graphics/SVG/1.1/DTD/svg11.dtd">
<!-- Generated by graphviz version 3.0.0 (20220413.0242)
 -->
<!-- Title: hal::percent::raw_max Pages: 1 -->
<svg width="399pt" height="268pt"
 viewBox="0.00 0.00 399.00 268.00" xmlns="http://www.w3.org/2000/svg" xmlns:xlink="http://www.w3.org/1999/xlink">
<g id="graph0" class="graph" transform="scale(1 1) rotate(0) translate(4 264)">
<title>hal::percent::raw_max</title>
<polygon fill="white" stroke="transparent" points="-4,4 -4,-264 395,-264 395,4 -4,4"/>
<!-- Node1 -->
<g id="node1" class="node">
<title>Node1</title>
<g id="a_node1"><a xlink:title="Get the 100% value in its raw representation.">
<polygon fill="#bfbfbf" stroke="black" points="281,-76.5 281,-95.5 391,-95.5 391,-76.5 281,-76.5"/>
<text text-anchor="middle" x="336" y="-83.5" font-family="Helvetica,sans-Serif" font-size="10.00">hal::percent::raw_max</text>
</a>
</g>
</g>
<!-- Node2 -->
<g id="node2" class="node">
<title>Node2</title>
<g id="a_node2"><a xlink:href="classhal_1_1percent.html#a4fece281bfb4ec0f48f86b14168194ce" target="_top" xlink:title="Generate a percentage based on input relative to the maximum possible value.">
<polygon fill="white" stroke="black" points="155,-153 155,-183 245,-183 245,-153 155,-153"/>
<text text-anchor="start" x="163" y="-171" font-family="Helvetica,sans-Serif" font-size="10.00">hal::percent::from</text>
<text text-anchor="middle" x="200" y="-160" font-family="Helvetica,sans-Serif" font-size="10.00">_ratio</text>
</a>
</g>
</g>
<!-- Node1&#45;&gt;Node2 -->
<g id="edge1" class="edge">
<title>Node1&#45;&gt;Node2</title>
<path fill="none" stroke="midnightblue" d="M310.8,-100.81C286.69,-115.56 249.86,-138.1 225.61,-152.94"/>
<polygon fill="midnightblue" stroke="midnightblue" points="312.66,-103.77 319.37,-95.57 309.01,-97.8 312.66,-103.77"/>
</g>
<!-- Node6 -->
<g id="node6" class="node">
<title>Node6</title>
<g id="a_node6"><a xlink:href="classhal_1_1percent.html#a1bf2e7369a19e7795c2e68c643e8d06b" target="_top" xlink:title="Get the percent after it is scaled to a range. The output percent is bound within the given range....">
<polygon fill="white" stroke="black" points="12.5,-114.5 12.5,-133.5 106.5,-133.5 106.5,-114.5 12.5,-114.5"/>
<text text-anchor="middle" x="59.5" y="-121.5" font-family="Helvetica,sans-Serif" font-size="10.00">hal::percent::scale</text>
</a>
</g>
</g>
<!-- Node1&#45;&gt;Node6 -->
<g id="edge11" class="edge">
<title>Node1&#45;&gt;Node6</title>
<path fill="none" stroke="midnightblue" d="M284.37,-97.66C271.57,-100.34 257.82,-102.99 245,-105 198.08,-112.35 143.98,-117.54 106.55,-120.61"/>
<polygon fill="midnightblue" stroke="midnightblue" points="285.35,-101.03 294.4,-95.52 283.89,-94.19 285.35,-101.03"/>
</g>
<!-- Node7 -->
<g id="node7" class="node">
<title>Node7</title>
<g id="a_node7"><a xlink:href="classhal_1_1percent.html#aa120c82da4e8ccac1a58e4b0ab2de1f9" target="_top" xlink:title="Get +100% percentage.">
<polygon fill="white" stroke="black" points="155.5,-76.5 155.5,-95.5 244.5,-95.5 244.5,-76.5 155.5,-76.5"/>
<text text-anchor="middle" x="200" y="-83.5" font-family="Helvetica,sans-Serif" font-size="10.00">hal::percent::max</text>
</a>
</g>
</g>
<!-- Node1&#45;&gt;Node7 -->
<g id="edge6" class="edge">
<title>Node1&#45;&gt;Node7</title>
<path fill="none" stroke="midnightblue" d="M270.61,-86C261.8,-86 252.93,-86 244.62,-86"/>
<polygon fill="midnightblue" stroke="midnightblue" points="270.88,-89.5 280.88,-86 270.88,-82.5 270.88,-89.5"/>
</g>
<!-- Node8 -->
<g id="node8" class="node">
<title>Node8</title>
<g id="a_node8"><a xlink:href="classhal_1_1percent.html#ad5ed3b476e65e3b5aec2408f76865500" target="_top" xlink:title="Assignment operator for a percent object based on a floating point value.">
<polygon fill="white" stroke="black" points="3.5,-38.5 3.5,-57.5 115.5,-57.5 115.5,-38.5 3.5,-38.5"/>
<text text-anchor="middle" x="59.5" y="-45.5" font-family="Helvetica,sans-Serif" font-size="10.00">hal::percent::operator=</text>
</a>
</g>
</g>
<!-- Node1&#45;&gt;Node8 -->
<g id="edge10" class="edge">
<title>Node1&#45;&gt;Node8</title>
<path fill="none" stroke="midnightblue" d="M284.37,-74.34C271.57,-71.66 257.82,-69.01 245,-67 201.73,-60.22 152.37,-55.29 115.59,-52.14"/>
<polygon fill="midnightblue" stroke="midnightblue" points="283.89,-77.81 294.4,-76.48 285.35,-70.97 283.89,-77.81"/>
</g>
<!-- Node10 -->
<g id="node10" class="node">
<title>Node10</title>
<g id="a_node10"><a xlink:href="classhal_1_1percent.html#ae750d1cac1cb2cae531d00b8738cddf2" target="_top" xlink:title="Convert percent to a floating point representation.">
<polygon fill="white" stroke="black" points="160.5,-0.5 160.5,-19.5 239.5,-19.5 239.5,-0.5 160.5,-0.5"/>
<text text-anchor="middle" x="200" y="-7.5" font-family="Helvetica,sans-Serif" font-size="10.00">hal::percent::to</text>
</a>
</g>
</g>
<!-- Node1&#45;&gt;Node10 -->
<g id="edge12" class="edge">
<title>Node1&#45;&gt;Node10</title>
<path fill="none" stroke="midnightblue" d="M310.07,-71.38C292.06,-60.87 267.11,-46.41 245,-34 236.5,-29.23 227.02,-24.04 219.04,-19.71"/>
<polygon fill="midnightblue" stroke="midnightblue" points="308.41,-74.46 318.81,-76.49 311.94,-68.42 308.41,-74.46"/>
</g>
<!-- Node3 -->
<g id="node3" class="node">
<title>Node3</title>
<g id="a_node3"><a xlink:href="classhal_1_1rc__servo.html#a4b6b2863a7ea2f9e426f32c89a29c8c5" target="_top" xlink:title="Factory function to create a rc_servo object.">
<polygon fill="white" stroke="black" points="8,-240.5 8,-259.5 111,-259.5 111,-240.5 8,-240.5"/>
<text text-anchor="middle" x="59.5" y="-247.5" font-family="Helvetica,sans-Serif" font-size="10.00">hal::rc_servo::create</text>
</a>
</g>
</g>
<!-- Node2&#45;&gt;Node3 -->
<g id="edge2" class="edge">
<title>Node2&#45;&gt;Node3</title>
<path fill="none" stroke="midnightblue" d="M175.52,-190.14C160.36,-203.48 139.66,-219.97 119,-231 112.03,-234.72 104.2,-237.88 96.59,-240.49"/>
<polygon fill="midnightblue" stroke="midnightblue" points="178.25,-192.4 183.35,-183.11 173.57,-187.19 178.25,-192.4"/>
</g>
<!-- Node4 -->
<g id="node4" class="node">
<title>Node4</title>
<g id="a_node4"><a xlink:href="group__utility.html#gacf35495e951216c5f4765dbe9f256fdd" target="_top" xlink:title="Map an target value [x] from an input range [a,b] to an output range [c,d].">
<polygon fill="white" stroke="black" points="33,-202.5 33,-221.5 86,-221.5 86,-202.5 33,-202.5"/>
<text text-anchor="middle" x="59.5" y="-209.5" font-family="Helvetica,sans-Serif" font-size="10.00">hal::map</text>
</a>
</g>
</g>
<!-- Node2&#45;&gt;Node4 -->
<g id="edge3" class="edge">
<title>Node2&#45;&gt;Node4</title>
<path fill="none" stroke="midnightblue" d="M145.03,-185.14C124.78,-191.58 102.68,-198.6 86.16,-203.85"/>
<polygon fill="midnightblue" stroke="midnightblue" points="146.33,-188.41 154.8,-182.04 144.21,-181.73 146.33,-188.41"/>
</g>
<!-- Node5 -->
<g id="node5" class="node">
<title>Node5</title>
<g id="a_node5"><a xlink:href="structhal_1_1duty__cycle.html#a5f5bad1e9e0cd329eeecd5c0db0e0a32" target="_top" xlink:title="Conversion from duty cycle to percentage.">
<polygon fill="white" stroke="black" points="0,-153 0,-183 119,-183 119,-153 0,-153"/>
<text text-anchor="start" x="8" y="-171" font-family="Helvetica,sans-Serif" font-size="10.00">hal::duty_cycle::operator</text>
<text text-anchor="middle" x="59.5" y="-160" font-family="Helvetica,sans-Serif" font-size="10.00"> percent</text>
</a>
</g>
</g>
<!-- Node2&#45;&gt;Node5 -->
<g id="edge4" class="edge">
<title>Node2&#45;&gt;Node5</title>
<path fill="none" stroke="midnightblue" d="M144.76,-168C136.37,-168 127.68,-168 119.2,-168"/>
<polygon fill="midnightblue" stroke="midnightblue" points="144.8,-171.5 154.8,-168 144.8,-164.5 144.8,-171.5"/>
</g>
<!-- Node2&#45;&gt;Node6 -->
<g id="edge5" class="edge">
<title>Node2&#45;&gt;Node6</title>
<path fill="none" stroke="midnightblue" d="M145.03,-150.86C126.59,-145 106.62,-138.65 90.73,-133.6"/>
<polygon fill="midnightblue" stroke="midnightblue" points="144.21,-154.27 154.8,-153.96 146.33,-147.59 144.21,-154.27"/>
</g>
<!-- Node7&#45;&gt;Node6 -->
<g id="edge8" class="edge">
<title>Node7&#45;&gt;Node6</title>
<path fill="none" stroke="midnightblue" d="M154.37,-98.25C135.28,-103.48 113.32,-109.51 95.44,-114.41"/>
<polygon fill="midnightblue" stroke="midnightblue" points="155.33,-101.61 164.05,-95.59 153.48,-94.86 155.33,-101.61"/>
</g>
<!-- Node7&#45;&gt;Node8 -->
<g id="edge7" class="edge">
<title>Node7&#45;&gt;Node8</title>
<path fill="none" stroke="midnightblue" d="M154.37,-73.75C135.28,-68.52 113.32,-62.49 95.44,-57.59"/>
<polygon fill="midnightblue" stroke="midnightblue" points="153.48,-77.14 164.05,-76.41 155.33,-70.39 153.48,-77.14"/>
</g>
<!-- Node9 -->
<g id="node9" class="node">
<title>Node9</title>
<g id="a_node9"><a xlink:href="group__utility.html#gaeb9131fb2e9aa8b5b404c1d52197cea2" target="_top" xlink:title="convert this percentage value into a string from &#45;1.0 to +1.0">
<polygon fill="white" stroke="black" points="24,-76.5 24,-95.5 95,-95.5 95,-76.5 24,-76.5"/>
<text text-anchor="middle" x="59.5" y="-83.5" font-family="Helvetica,sans-Serif" font-size="10.00">hal::to_string</text>
</a>
</g>
</g>
<!-- Node7&#45;&gt;Node9 -->
<g id="edge9" class="edge">
<title>Node7&#45;&gt;Node9</title>
<path fill="none" stroke="midnightblue" d="M144.97,-86C128.26,-86 110.31,-86 95.27,-86"/>
<polygon fill="midnightblue" stroke="midnightblue" points="145.18,-89.5 155.18,-86 145.18,-82.5 145.18,-89.5"/>
</g>
</g>
</svg>
