<?xml version="1.0" encoding="UTF-8" standalone="no"?>
<!DOCTYPE svg PUBLIC "-//W3C//DTD SVG 1.1//EN"
 "http://www.w3.org/Graphics/SVG/1.1/DTD/svg11.dtd">
<!-- Generated by graphviz version 3.0.0 (20220413.0242)
 -->
<!-- Title: embed::percent::to_string Pages: 1 -->
<svg width="265pt" height="116pt"
 viewBox="0.00 0.00 265.00 115.50" xmlns="http://www.w3.org/2000/svg" xmlns:xlink="http://www.w3.org/1999/xlink">
<g id="graph0" class="graph" transform="scale(1 1) rotate(0) translate(4 111.5)">
<title>embed::percent::to_string</title>
<polygon fill="white" stroke="transparent" points="-4,4 -4,-111.5 261,-111.5 261,4 -4,4"/>
<!-- Node1 -->
<g id="node1" class="node">
<title>Node1</title>
<g id="a_node1"><a xlink:title="convert this percentage value into a string from &#45;1.0 to +1.0">
<polygon fill="#bfbfbf" stroke="black" points="0,-44.5 0,-74.5 95,-74.5 95,-44.5 0,-44.5"/>
<text text-anchor="start" x="8" y="-62.5" font-family="Helvetica,sans-Serif" font-size="10.00">embed::percent::to</text>
<text text-anchor="middle" x="47.5" y="-51.5" font-family="Helvetica,sans-Serif" font-size="10.00">_string</text>
</a>
</g>
</g>
<!-- Node2 -->
<g id="node2" class="node">
<title>Node2</title>
<g id="a_node2"><a xlink:href="classembed_1_1percent.html#a18867853ebb7f7101932f298ef9ac059" target="_top" xlink:title="Get the 100% value in its raw representation.">
<polygon fill="white" stroke="black" points="131,-88 131,-107 257,-107 257,-88 131,-88"/>
<text text-anchor="middle" x="194" y="-95" font-family="Helvetica,sans-Serif" font-size="10.00">embed::percent::raw_max</text>
</a>
</g>
</g>
<!-- Node1&#45;&gt;Node2 -->
<g id="edge1" class="edge">
<title>Node1&#45;&gt;Node2</title>
<path fill="none" stroke="midnightblue" d="M95.02,-71.73C111.55,-76.08 130.15,-80.97 146.67,-85.32"/>
<polygon fill="midnightblue" stroke="midnightblue" points="146.09,-88.78 156.65,-87.94 147.87,-82.01 146.09,-88.78"/>
</g>
<!-- Node3 -->
<g id="node3" class="node">
<title>Node3</title>
<g id="a_node3"><a xlink:href="classembed_1_1percent.html#addd3062c4b442314f9b135b532367c44" target="_top" xlink:title="Get the &#45;100% value in its raw representation.">
<polygon fill="white" stroke="black" points="132,-50 132,-69 256,-69 256,-50 132,-50"/>
<text text-anchor="middle" x="194" y="-57" font-family="Helvetica,sans-Serif" font-size="10.00">embed::percent::raw_min</text>
</a>
</g>
</g>
<!-- Node1&#45;&gt;Node3 -->
<g id="edge2" class="edge">
<title>Node1&#45;&gt;Node3</title>
<path fill="none" stroke="midnightblue" d="M95.02,-59.5C103.53,-59.5 112.59,-59.5 121.63,-59.5"/>
<polygon fill="midnightblue" stroke="midnightblue" points="121.8,-63 131.8,-59.5 121.8,-56 121.8,-63"/>
</g>
<!-- Node4 -->
<g id="node4" class="node">
<title>Node4</title>
<g id="a_node4"><a xlink:href="classembed_1_1percent.html#ad776812c80964b900f3d1644bea1d773" target="_top" xlink:title="Get raw integral value.">
<polygon fill="white" stroke="black" points="142.5,-0.5 142.5,-30.5 245.5,-30.5 245.5,-0.5 142.5,-0.5"/>
<text text-anchor="start" x="150.5" y="-18.5" font-family="Helvetica,sans-Serif" font-size="10.00">embed::percent::raw</text>
<text text-anchor="middle" x="194" y="-7.5" font-family="Helvetica,sans-Serif" font-size="10.00">_value</text>
</a>
</g>
</g>
<!-- Node1&#45;&gt;Node4 -->
<g id="edge3" class="edge">
<title>Node1&#45;&gt;Node4</title>
<path fill="none" stroke="midnightblue" d="M95.02,-45.34C107.38,-41.57 120.89,-37.46 133.83,-33.52"/>
<polygon fill="midnightblue" stroke="midnightblue" points="135.03,-36.81 143.58,-30.55 132.99,-30.11 135.03,-36.81"/>
</g>
</g>
</svg>
