<?xml version="1.0" encoding="UTF-8" standalone="no"?>
<!DOCTYPE svg PUBLIC "-//W3C//DTD SVG 1.1//EN"
 "http://www.w3.org/Graphics/SVG/1.1/DTD/svg11.dtd">
<!-- Generated by graphviz version 3.0.0 (20220413.0242)
 -->
<!-- Title: hal::spy_handler::record Pages: 1 -->
<svg width="238pt" height="46pt"
 viewBox="0.00 0.00 238.00 46.00" xmlns="http://www.w3.org/2000/svg" xmlns:xlink="http://www.w3.org/1999/xlink">
<g id="graph0" class="graph" transform="scale(1 1) rotate(0) translate(4 42)">
<title>hal::spy_handler::record</title>
<polygon fill="white" stroke="transparent" points="-4,4 -4,-42 234,-42 234,4 -4,4"/>
<!-- Node1 -->
<g id="node1" class="node">
<title>Node1</title>
<g id="a_node1"><a xlink:title="Record the arguments of a function being spied on.">
<polygon fill="#bfbfbf" stroke="black" points="0,-0.5 0,-19.5 117,-19.5 117,-0.5 0,-0.5"/>
<text text-anchor="middle" x="58.5" y="-7.5" font-family="Helvetica,sans-Serif" font-size="10.00">hal::spy_handler::record</text>
</a>
</g>
</g>
<!-- Node2 -->
<g id="node2" class="node">
<title>Node2</title>
<g id="a_node2"><a xlink:href="namespacehal.html#a09499a696428213091b196699563099f" target="_top" xlink:title=" ">
<polygon fill="white" stroke="black" points="153,-0.5 153,-19.5 230,-19.5 230,-0.5 153,-0.5"/>
<text text-anchor="middle" x="191.5" y="-7.5" font-family="Helvetica,sans-Serif" font-size="10.00">hal::new_error</text>
</a>
</g>
</g>
<!-- Node1&#45;&gt;Node2 -->
<g id="edge1" class="edge">
<title>Node1&#45;&gt;Node2</title>
<path fill="none" stroke="midnightblue" d="M117.34,-10C125.82,-10 134.48,-10 142.73,-10"/>
<polygon fill="midnightblue" stroke="midnightblue" points="142.92,-13.5 152.92,-10 142.92,-6.5 142.92,-13.5"/>
</g>
<!-- Node2&#45;&gt;Node2 -->
<g id="edge2" class="edge">
<title>Node2&#45;&gt;Node2</title>
<path fill="none" stroke="midnightblue" d="M171.15,-19.76C161.26,-28.57 168.04,-38 191.5,-38 206.53,-38 214.71,-34.13 216.05,-29.03"/>
<polygon fill="midnightblue" stroke="midnightblue" points="219.17,-27.42 211.85,-19.76 212.79,-30.31 219.17,-27.42"/>
</g>
</g>
</svg>
