<?xml version="1.0" encoding="UTF-8" standalone="no"?>
<!DOCTYPE svg PUBLIC "-//W3C//DTD SVG 1.1//EN"
 "http://www.w3.org/Graphics/SVG/1.1/DTD/svg11.dtd">
<!-- Generated by graphviz version 3.0.0 (20220413.0242)
 -->
<!-- Title: embed::frequency::calculate_duty_cycle Pages: 1 -->
<svg width="636pt" height="122pt"
 viewBox="0.00 0.00 636.00 121.50" xmlns="http://www.w3.org/2000/svg" xmlns:xlink="http://www.w3.org/1999/xlink">
<g id="graph0" class="graph" transform="scale(1 1) rotate(0) translate(4 117.5)">
<title>embed::frequency::calculate_duty_cycle</title>
<polygon fill="white" stroke="transparent" points="-4,4 -4,-117.5 632,-117.5 632,4 -4,4"/>
<!-- Node1 -->
<g id="node1" class="node">
<title>Node1</title>
<g id="a_node1"><a xlink:title="Calculate a duty cycle based on a time duration, the percent and this driving frequency....">
<polygon fill="#bfbfbf" stroke="black" points="0,-61 0,-91 136,-91 136,-61 0,-61"/>
<text text-anchor="start" x="8" y="-79" font-family="Helvetica,sans-Serif" font-size="10.00">embed::frequency::calculate</text>
<text text-anchor="middle" x="68" y="-68" font-family="Helvetica,sans-Serif" font-size="10.00">_duty_cycle</text>
</a>
</g>
</g>
<!-- Node2 -->
<g id="node2" class="node">
<title>Node2</title>
<g id="a_node2"><a xlink:href="classembed_1_1frequency.html#ac5e0ec1ff02f4253db3778da5773ff63" target="_top" xlink:title="Generate a duty_cycle object based on the percent value and the input count value....">
<polygon fill="white" stroke="black" points="175.5,-83 175.5,-113 311.5,-113 311.5,-83 175.5,-83"/>
<text text-anchor="start" x="183.5" y="-101" font-family="Helvetica,sans-Serif" font-size="10.00">embed::frequency::calculate</text>
<text text-anchor="middle" x="243.5" y="-90" font-family="Helvetica,sans-Serif" font-size="10.00">_duty_cycle</text>
</a>
</g>
</g>
<!-- Node1&#45;&gt;Node2 -->
<g id="edge1" class="edge">
<title>Node1&#45;&gt;Node2</title>
<path fill="none" stroke="midnightblue" d="M136.08,-84.51C145.63,-85.72 155.52,-86.97 165.25,-88.21"/>
<polygon fill="midnightblue" stroke="midnightblue" points="164.95,-91.69 175.31,-89.48 165.83,-84.75 164.95,-91.69"/>
</g>
<!-- Node3 -->
<g id="node3" class="node">
<title>Node3</title>
<g id="a_node3"><a xlink:href="classembed_1_1frequency.html#aa67b1e2379926c43c248b98207ff95a0" target="_top" xlink:title="Calculate the number of cycles of this frequency within the time duration. This function is meant for...">
<polygon fill="white" stroke="black" points="172,-44.5 172,-63.5 315,-63.5 315,-44.5 172,-44.5"/>
<text text-anchor="middle" x="243.5" y="-51.5" font-family="Helvetica,sans-Serif" font-size="10.00">embed::frequency::cycles_per</text>
</a>
</g>
</g>
<!-- Node1&#45;&gt;Node3 -->
<g id="edge2" class="edge">
<title>Node1&#45;&gt;Node3</title>
<path fill="none" stroke="midnightblue" d="M136.08,-67.49C144.51,-66.43 153.2,-65.32 161.81,-64.23"/>
<polygon fill="midnightblue" stroke="midnightblue" points="162.39,-67.69 171.87,-62.96 161.5,-60.74 162.39,-67.69"/>
</g>
<!-- Node4 -->
<g id="node4" class="node">
<title>Node4</title>
<g id="a_node4"><a xlink:href="group__utility.html#ga6f0922a28ac81378eb689b2ab4bc299a" target="_top" xlink:title="Generic absolute value function that works for integer types.">
<polygon fill="white" stroke="black" points="512,-44.5 512,-63.5 628,-63.5 628,-44.5 512,-44.5"/>
<text text-anchor="middle" x="570" y="-51.5" font-family="Helvetica,sans-Serif" font-size="10.00">embed::absolute_value</text>
</a>
</g>
</g>
<!-- Node3&#45;&gt;Node4 -->
<g id="edge3" class="edge">
<title>Node3&#45;&gt;Node4</title>
<path fill="none" stroke="midnightblue" d="M276.78,-63.63C297.72,-69.36 325.72,-76.07 351,-79 406.19,-85.39 420.92,-86.27 476,-79 494.39,-76.57 514.32,-71.55 530.98,-66.64"/>
<polygon fill="midnightblue" stroke="midnightblue" points="532.35,-69.88 540.9,-63.62 530.31,-63.19 532.35,-69.88"/>
</g>
<!-- Node5 -->
<g id="node5" class="node">
<title>Node5</title>
<g id="a_node5"><a xlink:href="classembed_1_1frequency.html#ae253d42390060843082b1ef6c2b300ec" target="_top" xlink:title="Get the frequency as an integer.">
<polygon fill="white" stroke="black" points="351,-39 351,-69 476,-69 476,-39 351,-39"/>
<text text-anchor="start" x="359" y="-57" font-family="Helvetica,sans-Serif" font-size="10.00">embed::frequency::cycles</text>
<text text-anchor="middle" x="413.5" y="-46" font-family="Helvetica,sans-Serif" font-size="10.00">_per_second</text>
</a>
</g>
</g>
<!-- Node3&#45;&gt;Node5 -->
<g id="edge4" class="edge">
<title>Node3&#45;&gt;Node5</title>
<path fill="none" stroke="midnightblue" d="M315.26,-54C323.68,-54 332.27,-54 340.7,-54"/>
<polygon fill="midnightblue" stroke="midnightblue" points="340.88,-57.5 350.88,-54 340.88,-50.5 340.88,-57.5"/>
</g>
<!-- Node6 -->
<g id="node6" class="node">
<title>Node6</title>
<g id="a_node6"><a xlink:href="group__utility.html#ga84ea33bb969785c47247cfe0da9aa98e" target="_top" xlink:title="Perform integer division and round the value up if the next decimal place is greater than or equal to...">
<polygon fill="white" stroke="black" points="351,-0.5 351,-19.5 476,-19.5 476,-0.5 351,-0.5"/>
<text text-anchor="middle" x="413.5" y="-7.5" font-family="Helvetica,sans-Serif" font-size="10.00">embed::rounding_division</text>
</a>
</g>
</g>
<!-- Node3&#45;&gt;Node6 -->
<g id="edge5" class="edge">
<title>Node3&#45;&gt;Node6</title>
<path fill="none" stroke="midnightblue" d="M280.95,-44.45C305.94,-37.91 339.3,-29.17 366.17,-22.13"/>
<polygon fill="midnightblue" stroke="midnightblue" points="367.33,-25.45 376.12,-19.53 365.56,-18.68 367.33,-25.45"/>
</g>
<!-- Node6&#45;&gt;Node4 -->
<g id="edge6" class="edge">
<title>Node6&#45;&gt;Node4</title>
<path fill="none" stroke="midnightblue" d="M448.02,-19.55C470.8,-26.03 501.14,-34.67 525.74,-41.68"/>
<polygon fill="midnightblue" stroke="midnightblue" points="524.96,-45.1 535.54,-44.47 526.88,-38.37 524.96,-45.1"/>
</g>
</g>
</svg>
