<?xml version="1.0" encoding="UTF-8" standalone="no"?>
<!DOCTYPE svg PUBLIC "-//W3C//DTD SVG 1.1//EN"
 "http://www.w3.org/Graphics/SVG/1.1/DTD/svg11.dtd">
<!-- Generated by graphviz version 3.0.0 (20220413.0242)
 -->
<!-- Title: embed::percent::scale Pages: 1 -->
<svg width="575pt" height="168pt"
 viewBox="0.00 0.00 575.00 168.00" xmlns="http://www.w3.org/2000/svg" xmlns:xlink="http://www.w3.org/1999/xlink">
<g id="graph0" class="graph" transform="scale(1 1) rotate(0) translate(4 164)">
<title>embed::percent::scale</title>
<polygon fill="white" stroke="transparent" points="-4,4 -4,-164 571,-164 571,4 -4,4"/>
<!-- Node1 -->
<g id="node1" class="node">
<title>Node1</title>
<g id="a_node1"><a xlink:title="Get the percent after it is scaled to a range. The output percent is bound within the given range....">
<polygon fill="#bfbfbf" stroke="black" points="0,-69.5 0,-88.5 110,-88.5 110,-69.5 0,-69.5"/>
<text text-anchor="middle" x="55" y="-76.5" font-family="Helvetica,sans-Serif" font-size="10.00">embed::percent::scale</text>
</a>
</g>
</g>
<!-- Node2 -->
<g id="node2" class="node">
<title>Node2</title>
<g id="a_node2"><a xlink:href="classembed_1_1percent.html#a3031fcd41ebdbc14fe77114d239c0b27" target="_top" xlink:title="Generate a percentage based on input relative to the maximum possible value.">
<polygon fill="white" stroke="black" points="146,-64 146,-94 253,-94 253,-64 146,-64"/>
<text text-anchor="start" x="154" y="-82" font-family="Helvetica,sans-Serif" font-size="10.00">embed::percent::from</text>
<text text-anchor="middle" x="199.5" y="-71" font-family="Helvetica,sans-Serif" font-size="10.00">_ratio</text>
</a>
</g>
</g>
<!-- Node1&#45;&gt;Node2 -->
<g id="edge1" class="edge">
<title>Node1&#45;&gt;Node2</title>
<path fill="none" stroke="midnightblue" d="M110.28,-79C118.56,-79 127.16,-79 135.6,-79"/>
<polygon fill="midnightblue" stroke="midnightblue" points="135.78,-82.5 145.78,-79 135.78,-75.5 135.78,-82.5"/>
</g>
<!-- Node3 -->
<g id="node3" class="node">
<title>Node3</title>
<g id="a_node3"><a xlink:href="classembed_1_1percent.html#a3635a4d8e47f6a65226ee6391509f3a1" target="_top" xlink:title="Construct 0% percent object.">
<polygon fill="white" stroke="black" points="292.5,-140.5 292.5,-159.5 411.5,-159.5 411.5,-140.5 292.5,-140.5"/>
<text text-anchor="middle" x="352" y="-147.5" font-family="Helvetica,sans-Serif" font-size="10.00">embed::percent::percent</text>
</a>
</g>
</g>
<!-- Node1&#45;&gt;Node3 -->
<g id="edge7" class="edge">
<title>Node1&#45;&gt;Node3</title>
<path fill="none" stroke="midnightblue" d="M73.73,-88.59C91.51,-97.79 119.9,-111.38 146,-119 190.43,-131.98 241.96,-139.74 282.24,-144.25"/>
<polygon fill="midnightblue" stroke="midnightblue" points="281.9,-147.74 292.22,-145.33 282.66,-140.78 281.9,-147.74"/>
</g>
<!-- Node4 -->
<g id="node4" class="node">
<title>Node4</title>
<g id="a_node4"><a xlink:href="classembed_1_1percent.html#a18867853ebb7f7101932f298ef9ac059" target="_top" xlink:title="Get the 100% value in its raw representation.">
<polygon fill="white" stroke="black" points="289,-80.5 289,-99.5 415,-99.5 415,-80.5 289,-80.5"/>
<text text-anchor="middle" x="352" y="-87.5" font-family="Helvetica,sans-Serif" font-size="10.00">embed::percent::raw_max</text>
</a>
</g>
</g>
<!-- Node1&#45;&gt;Node4 -->
<g id="edge8" class="edge">
<title>Node1&#45;&gt;Node4</title>
<path fill="none" stroke="midnightblue" d="M83.17,-88.62C100.82,-94.35 124.47,-101.07 146,-104 193.25,-110.44 247.05,-106.34 287.67,-100.95"/>
<polygon fill="midnightblue" stroke="midnightblue" points="288.28,-104.4 297.71,-99.55 287.32,-97.46 288.28,-104.4"/>
</g>
<!-- Node5 -->
<g id="node5" class="node">
<title>Node5</title>
<g id="a_node5"><a xlink:href="classembed_1_1percent.html#addd3062c4b442314f9b135b532367c44" target="_top" xlink:title="Get the &#45;100% value in its raw representation.">
<polygon fill="white" stroke="black" points="290,-41.5 290,-60.5 414,-60.5 414,-41.5 290,-41.5"/>
<text text-anchor="middle" x="352" y="-48.5" font-family="Helvetica,sans-Serif" font-size="10.00">embed::percent::raw_min</text>
</a>
</g>
</g>
<!-- Node1&#45;&gt;Node5 -->
<g id="edge9" class="edge">
<title>Node1&#45;&gt;Node5</title>
<path fill="none" stroke="midnightblue" d="M84.82,-69.41C102.3,-64.08 125.18,-57.93 146,-55 190.1,-48.78 240.06,-47.69 279.61,-48.19"/>
<polygon fill="midnightblue" stroke="midnightblue" points="279.64,-51.69 289.7,-48.36 279.76,-44.69 279.64,-51.69"/>
</g>
<!-- Node6 -->
<g id="node6" class="node">
<title>Node6</title>
<g id="a_node6"><a xlink:href="namespaceembed.html#a84ea33bb969785c47247cfe0da9aa98e" target="_top" xlink:title="Perform integer division and round the value up if the next decimal place is greater than or equal to...">
<polygon fill="white" stroke="black" points="289.5,-0.5 289.5,-19.5 414.5,-19.5 414.5,-0.5 289.5,-0.5"/>
<text text-anchor="middle" x="352" y="-7.5" font-family="Helvetica,sans-Serif" font-size="10.00">embed::rounding_division</text>
</a>
</g>
</g>
<!-- Node1&#45;&gt;Node6 -->
<g id="edge10" class="edge">
<title>Node1&#45;&gt;Node6</title>
<path fill="none" stroke="midnightblue" d="M77.04,-69.39C95.02,-61.52 121.75,-50.65 146,-44 189.53,-32.06 239.47,-23.67 279.17,-18.22"/>
<polygon fill="midnightblue" stroke="midnightblue" points="279.84,-21.66 289.29,-16.86 278.91,-14.72 279.84,-21.66"/>
</g>
<!-- Node2&#45;&gt;Node3 -->
<g id="edge2" class="edge">
<title>Node2&#45;&gt;Node3</title>
<path fill="none" stroke="midnightblue" d="M232.42,-94.06C258.74,-106.47 295.79,-123.95 321.44,-136.05"/>
<polygon fill="midnightblue" stroke="midnightblue" points="320.13,-139.3 330.66,-140.41 323.11,-132.97 320.13,-139.3"/>
</g>
<!-- Node2&#45;&gt;Node4 -->
<g id="edge3" class="edge">
<title>Node2&#45;&gt;Node4</title>
<path fill="none" stroke="midnightblue" d="M253.14,-82.85C261.42,-83.45 270.11,-84.09 278.75,-84.72"/>
<polygon fill="midnightblue" stroke="midnightblue" points="278.61,-88.22 288.84,-85.46 279.12,-81.24 278.61,-88.22"/>
</g>
<!-- Node2&#45;&gt;Node5 -->
<g id="edge4" class="edge">
<title>Node2&#45;&gt;Node5</title>
<path fill="none" stroke="midnightblue" d="M253.14,-69.21C264.99,-67 277.67,-64.64 289.84,-62.38"/>
<polygon fill="midnightblue" stroke="midnightblue" points="290.72,-65.77 299.91,-60.5 289.44,-58.89 290.72,-65.77"/>
</g>
<!-- Node2&#45;&gt;Node6 -->
<g id="edge5" class="edge">
<title>Node2&#45;&gt;Node6</title>
<path fill="none" stroke="midnightblue" d="M226.33,-63.98C243.72,-54.2 267.34,-41.53 289,-32 296.28,-28.8 304.18,-25.71 311.83,-22.91"/>
<polygon fill="midnightblue" stroke="midnightblue" points="313.07,-26.18 321.32,-19.54 310.73,-19.59 313.07,-26.18"/>
</g>
<!-- Node7 -->
<g id="node7" class="node">
<title>Node7</title>
<g id="a_node7"><a xlink:href="namespaceembed.html#a6f0922a28ac81378eb689b2ab4bc299a" target="_top" xlink:title="Generic absolute value function that works for integer types.">
<polygon fill="white" stroke="black" points="451,-0.5 451,-19.5 567,-19.5 567,-0.5 451,-0.5"/>
<text text-anchor="middle" x="509" y="-7.5" font-family="Helvetica,sans-Serif" font-size="10.00">embed::absolute_value</text>
</a>
</g>
</g>
<!-- Node6&#45;&gt;Node7 -->
<g id="edge6" class="edge">
<title>Node6&#45;&gt;Node7</title>
<path fill="none" stroke="midnightblue" d="M414.71,-10C423.26,-10 432.09,-10 440.74,-10"/>
<polygon fill="midnightblue" stroke="midnightblue" points="440.79,-13.5 450.79,-10 440.79,-6.5 440.79,-13.5"/>
</g>
</g>
</svg>
