<?xml version="1.0" encoding="UTF-8" standalone="no"?>
<!DOCTYPE svg PUBLIC "-//W3C//DTD SVG 1.1//EN"
 "http://www.w3.org/Graphics/SVG/1.1/DTD/svg11.dtd">
<!-- Generated by graphviz version 3.0.0 (20220413.0242)
 -->
<!-- Title: hal::i2c::transaction Pages: 1 -->
<svg width="385pt" height="104pt"
 viewBox="0.00 0.00 385.00 104.00" xmlns="http://www.w3.org/2000/svg" xmlns:xlink="http://www.w3.org/1999/xlink">
<g id="graph0" class="graph" transform="scale(1 1) rotate(0) translate(4 100)">
<title>hal::i2c::transaction</title>
<polygon fill="white" stroke="transparent" points="-4,4 -4,-100 381,-100 381,4 -4,4"/>
<!-- Node1 -->
<g id="node1" class="node">
<title>Node1</title>
<g id="a_node1"><a xlink:title="perform an i2c transaction with another device on the bus. The type of transaction depends on values ...">
<polygon fill="#bfbfbf" stroke="black" points="278,-38.5 278,-57.5 377,-57.5 377,-38.5 278,-38.5"/>
<text text-anchor="middle" x="327.5" y="-45.5" font-family="Helvetica,sans-Serif" font-size="10.00">hal::i2c::transaction</text>
</a>
</g>
</g>
<!-- Node2 -->
<g id="node2" class="node">
<title>Node2</title>
<g id="a_node2"><a xlink:href="group__i2c.html#gac59c00f9a17dc3607b80517ff5e6651d" target="_top" xlink:title="read bytes from target device on i2c bus">
<polygon fill="white" stroke="black" points="164,-76.5 164,-95.5 217,-95.5 217,-76.5 164,-76.5"/>
<text text-anchor="middle" x="190.5" y="-83.5" font-family="Helvetica,sans-Serif" font-size="10.00">hal::read</text>
</a>
</g>
</g>
<!-- Node1&#45;&gt;Node2 -->
<g id="edge1" class="edge">
<title>Node1&#45;&gt;Node2</title>
<path fill="none" stroke="midnightblue" d="M282.76,-60.31C261.03,-66.43 235.54,-73.6 217.03,-78.81"/>
<polygon fill="midnightblue" stroke="midnightblue" points="283.76,-63.67 292.43,-57.59 281.86,-56.93 283.76,-63.67"/>
</g>
<!-- Node5 -->
<g id="node5" class="node">
<title>Node5</title>
<g id="a_node5"><a xlink:href="group__i2c.html#ga4b83ff15180248ce8d58cc464c51d032" target="_top" xlink:title="write data to a target device on the i2c bus">
<polygon fill="white" stroke="black" points="163,-38.5 163,-57.5 218,-57.5 218,-38.5 163,-38.5"/>
<text text-anchor="middle" x="190.5" y="-45.5" font-family="Helvetica,sans-Serif" font-size="10.00">hal::write</text>
</a>
</g>
</g>
<!-- Node1&#45;&gt;Node5 -->
<g id="edge4" class="edge">
<title>Node1&#45;&gt;Node5</title>
<path fill="none" stroke="midnightblue" d="M267.71,-48C250.44,-48 232.39,-48 218.19,-48"/>
<polygon fill="midnightblue" stroke="midnightblue" points="267.76,-51.5 277.76,-48 267.76,-44.5 267.76,-51.5"/>
</g>
<!-- Node6 -->
<g id="node6" class="node">
<title>Node6</title>
<g id="a_node6"><a xlink:href="group__i2c.html#ga4a9c74d8fb59833ddbf9184d92279d65" target="_top" xlink:title="write and then read bytes from target device on i2c bus">
<polygon fill="white" stroke="black" points="139,-0.5 139,-19.5 242,-19.5 242,-0.5 139,-0.5"/>
<text text-anchor="middle" x="190.5" y="-7.5" font-family="Helvetica,sans-Serif" font-size="10.00">hal::write_then_read</text>
</a>
</g>
</g>
<!-- Node1&#45;&gt;Node6 -->
<g id="edge6" class="edge">
<title>Node1&#45;&gt;Node6</title>
<path fill="none" stroke="midnightblue" d="M282.74,-35.68C264.19,-30.46 242.9,-24.47 225.56,-19.59"/>
<polygon fill="midnightblue" stroke="midnightblue" points="281.86,-39.07 292.43,-38.41 283.76,-32.33 281.86,-39.07"/>
</g>
<!-- Node3 -->
<g id="node3" class="node">
<title>Node3</title>
<g id="a_node3"><a xlink:href="group__i2c.html#ga708c8a9f534086e5447673c494926d69" target="_top" xlink:title="return array of read bytes from target device on i2c bus">
<polygon fill="white" stroke="black" points="25,-76.5 25,-95.5 78,-95.5 78,-76.5 25,-76.5"/>
<text text-anchor="middle" x="51.5" y="-83.5" font-family="Helvetica,sans-Serif" font-size="10.00">hal::read</text>
</a>
</g>
</g>
<!-- Node2&#45;&gt;Node3 -->
<g id="edge2" class="edge">
<title>Node2&#45;&gt;Node3</title>
<path fill="none" stroke="midnightblue" d="M153.71,-86C130,-86 99.46,-86 78.15,-86"/>
<polygon fill="midnightblue" stroke="midnightblue" points="153.73,-89.5 163.73,-86 153.73,-82.5 153.73,-89.5"/>
</g>
<!-- Node4 -->
<g id="node4" class="node">
<title>Node4</title>
<g id="a_node4"><a xlink:href="group__serial.html#ga9f8de5a91baa872dd1923a853c47af0a" target="_top" xlink:title="Perform a write then read transaction over serial.">
<polygon fill="white" stroke="black" points="0,-38.5 0,-57.5 103,-57.5 103,-38.5 0,-38.5"/>
<text text-anchor="middle" x="51.5" y="-45.5" font-family="Helvetica,sans-Serif" font-size="10.00">hal::write_then_read</text>
</a>
</g>
</g>
<!-- Node2&#45;&gt;Node4 -->
<g id="edge3" class="edge">
<title>Node2&#45;&gt;Node4</title>
<path fill="none" stroke="midnightblue" d="M154.06,-76.17C133.39,-70.44 107.44,-63.24 86.95,-57.56"/>
<polygon fill="midnightblue" stroke="midnightblue" points="153.16,-79.55 163.73,-78.85 155.03,-72.81 153.16,-79.55"/>
</g>
<!-- Node5&#45;&gt;Node4 -->
<g id="edge5" class="edge">
<title>Node5&#45;&gt;Node4</title>
<path fill="none" stroke="midnightblue" d="M152.68,-48C137.42,-48 119.48,-48 103.02,-48"/>
<polygon fill="midnightblue" stroke="midnightblue" points="152.76,-51.5 162.76,-48 152.76,-44.5 152.76,-51.5"/>
</g>
<!-- Node7 -->
<g id="node7" class="node">
<title>Node7</title>
<g id="a_node7"><a xlink:href="group__i2c.html#ga761a28d33838cddba2b5b591cac487bd" target="_top" xlink:title="write and then return an array of read bytes from target device on i2c bus">
<polygon fill="white" stroke="black" points="0,-0.5 0,-19.5 103,-19.5 103,-0.5 0,-0.5"/>
<text text-anchor="middle" x="51.5" y="-7.5" font-family="Helvetica,sans-Serif" font-size="10.00">hal::write_then_read</text>
</a>
</g>
</g>
<!-- Node6&#45;&gt;Node7 -->
<g id="edge7" class="edge">
<title>Node6&#45;&gt;Node7</title>
<path fill="none" stroke="midnightblue" d="M128.68,-10C120.23,-10 111.62,-10 103.37,-10"/>
<polygon fill="midnightblue" stroke="midnightblue" points="128.88,-13.5 138.88,-10 128.88,-6.5 128.88,-13.5"/>
</g>
</g>
</svg>
