<?xml version="1.0" encoding="UTF-8" standalone="no"?>
<!DOCTYPE svg PUBLIC "-//W3C//DTD SVG 1.1//EN"
 "http://www.w3.org/Graphics/SVG/1.1/DTD/svg11.dtd">
<!-- Generated by graphviz version 3.0.0 (20220413.0242)
 -->
<!-- Title: hal::percentage::value Pages: 1 -->
<svg width="288pt" height="66pt"
 viewBox="0.00 0.00 288.00 66.00" xmlns="http://www.w3.org/2000/svg" xmlns:xlink="http://www.w3.org/1999/xlink">
<g id="graph0" class="graph" transform="scale(1 1) rotate(0) translate(4 62)">
<title>hal::percentage::value</title>
<polygon fill="white" stroke="transparent" points="-4,4 -4,-62 284,-62 284,4 -4,4"/>
<!-- Node1 -->
<g id="node1" class="node">
<title>Node1</title>
<g id="a_node1"><a xlink:title=" ">
<polygon fill="#bfbfbf" stroke="black" points="170,-19.5 170,-38.5 280,-38.5 280,-19.5 170,-19.5"/>
<text text-anchor="middle" x="225" y="-26.5" font-family="Helvetica,sans-Serif" font-size="10.00">hal::percentage::value</text>
</a>
</g>
</g>
<!-- Node2 -->
<g id="node2" class="node">
<title>Node2</title>
<g id="a_node2"><a xlink:href="classhal_1_1percentage.html#a022e06345f87fb407429d4bce6a6aebf" target="_top" xlink:title=" ">
<polygon fill="white" stroke="black" points="3,-38.5 3,-57.5 131,-57.5 131,-38.5 3,-38.5"/>
<text text-anchor="middle" x="67" y="-45.5" font-family="Helvetica,sans-Serif" font-size="10.00">hal::percentage::operator=</text>
</a>
</g>
</g>
<!-- Node1&#45;&gt;Node2 -->
<g id="edge1" class="edge">
<title>Node1&#45;&gt;Node2</title>
<path fill="none" stroke="midnightblue" d="M159.75,-36.82C150.3,-37.98 140.57,-39.16 131.14,-40.31"/>
<polygon fill="midnightblue" stroke="midnightblue" points="160.37,-40.28 169.88,-35.59 159.53,-33.33 160.37,-40.28"/>
</g>
<!-- Node3 -->
<g id="node3" class="node">
<title>Node3</title>
<g id="a_node3"><a xlink:href="classhal_1_1percentage.html#a1ba2f2b2dfc161533e8923e945c91fa8" target="_top" xlink:title=" ">
<polygon fill="white" stroke="black" points="0,-0.5 0,-19.5 134,-19.5 134,-0.5 0,-0.5"/>
<text text-anchor="middle" x="67" y="-7.5" font-family="Helvetica,sans-Serif" font-size="10.00">hal::percentage::percentage</text>
</a>
</g>
</g>
<!-- Node1&#45;&gt;Node3 -->
<g id="edge2" class="edge">
<title>Node1&#45;&gt;Node3</title>
<path fill="none" stroke="midnightblue" d="M159.71,-21.17C151.27,-20.14 142.6,-19.09 134.13,-18.05"/>
<polygon fill="midnightblue" stroke="midnightblue" points="159.53,-24.67 169.88,-22.41 160.37,-17.72 159.53,-24.67"/>
</g>
</g>
</svg>
