<?xml version="1.0" encoding="UTF-8" standalone="no"?>
<!DOCTYPE svg PUBLIC "-//W3C//DTD SVG 1.1//EN"
 "http://www.w3.org/Graphics/SVG/1.1/DTD/svg11.dtd">
<!-- Generated by graphviz version 3.0.0 (20220413.0242)
 -->
<!-- Title: hal::counter_timeout::create Pages: 1 -->
<svg width="532pt" height="172pt"
 viewBox="0.00 0.00 532.00 171.50" xmlns="http://www.w3.org/2000/svg" xmlns:xlink="http://www.w3.org/1999/xlink">
<g id="graph0" class="graph" transform="scale(1 1) rotate(0) translate(4 167.5)">
<title>hal::counter_timeout::create</title>
<polygon fill="white" stroke="transparent" points="-4,4 -4,-167.5 528,-167.5 528,4 -4,4"/>
<!-- Node1 -->
<g id="node1" class="node">
<title>Node1</title>
<g id="a_node1"><a xlink:title="Create a counter_timeout.">
<polygon fill="#bfbfbf" stroke="black" points="0,-61 0,-91 104,-91 104,-61 0,-61"/>
<text text-anchor="start" x="8" y="-79" font-family="Helvetica,sans-Serif" font-size="10.00">hal::counter_timeout</text>
<text text-anchor="middle" x="52" y="-68" font-family="Helvetica,sans-Serif" font-size="10.00">::create</text>
</a>
</g>
</g>
<!-- Node2 -->
<g id="node2" class="node">
<title>Node2</title>
<g id="a_node2"><a xlink:href="classhal_1_1counter__timeout.html#ae543adb6965def1209baf5a2f91cd692" target="_top" xlink:title="Construct a new counter timeout object.">
<polygon fill="white" stroke="black" points="140,-133 140,-163 244,-163 244,-133 140,-133"/>
<text text-anchor="start" x="148" y="-151" font-family="Helvetica,sans-Serif" font-size="10.00">hal::counter_timeout</text>
<text text-anchor="middle" x="192" y="-140" font-family="Helvetica,sans-Serif" font-size="10.00">::counter_timeout</text>
</a>
</g>
</g>
<!-- Node1&#45;&gt;Node2 -->
<g id="edge1" class="edge">
<title>Node1&#45;&gt;Node2</title>
<path fill="none" stroke="midnightblue" d="M80.28,-91.1C97.35,-100.45 119.85,-112.63 140,-123 143.5,-124.8 147.15,-126.65 150.81,-128.49"/>
<polygon fill="midnightblue" stroke="midnightblue" points="149.37,-131.68 159.89,-132.99 152.49,-125.41 149.37,-131.68"/>
</g>
<!-- Node3 -->
<g id="node3" class="node">
<title>Node3</title>
<g id="a_node3"><a xlink:href="group__utility.html#ga9f67c4dbb94efa24f2d8852bf6e424cc" target="_top" xlink:title="Calculate the number of cycles of this frequency within the time duration. This function is meant for...">
<polygon fill="white" stroke="black" points="152,-94.5 152,-113.5 232,-113.5 232,-94.5 152,-94.5"/>
<text text-anchor="middle" x="192" y="-101.5" font-family="Helvetica,sans-Serif" font-size="10.00">hal::cycles_per</text>
</a>
</g>
</g>
<!-- Node1&#45;&gt;Node3 -->
<g id="edge2" class="edge">
<title>Node1&#45;&gt;Node3</title>
<path fill="none" stroke="midnightblue" d="M104.39,-86.43C116.6,-88.9 129.6,-91.54 141.72,-94"/>
<polygon fill="midnightblue" stroke="midnightblue" points="141.15,-97.46 151.65,-96.02 142.55,-90.6 141.15,-97.46"/>
</g>
<!-- Node6 -->
<g id="node6" class="node">
<title>Node6</title>
<g id="a_node6"><a xlink:href="namespacehal.html#a09499a696428213091b196699563099f" target="_top" xlink:title=" ">
<polygon fill="white" stroke="black" points="153.5,-38.5 153.5,-57.5 230.5,-57.5 230.5,-38.5 153.5,-38.5"/>
<text text-anchor="middle" x="192" y="-45.5" font-family="Helvetica,sans-Serif" font-size="10.00">hal::new_error</text>
</a>
</g>
</g>
<!-- Node1&#45;&gt;Node6 -->
<g id="edge6" class="edge">
<title>Node1&#45;&gt;Node6</title>
<path fill="none" stroke="midnightblue" d="M104.39,-65.57C117.21,-62.97 130.89,-60.2 143.51,-57.63"/>
<polygon fill="midnightblue" stroke="midnightblue" points="144.27,-61.05 153.37,-55.63 142.87,-54.19 144.27,-61.05"/>
</g>
<!-- Node7 -->
<g id="node7" class="node">
<title>Node7</title>
<g id="a_node7"><a xlink:href="classhal_1_1counter.html#a9c428b0843d7b4dfdc6b433a309cb71f" target="_top" xlink:title="Get the uptime of the counter since it has started.">
<polygon fill="white" stroke="black" points="142,-0.5 142,-19.5 242,-19.5 242,-0.5 142,-0.5"/>
<text text-anchor="middle" x="192" y="-7.5" font-family="Helvetica,sans-Serif" font-size="10.00">hal::counter::uptime</text>
</a>
</g>
</g>
<!-- Node1&#45;&gt;Node7 -->
<g id="edge8" class="edge">
<title>Node1&#45;&gt;Node7</title>
<path fill="none" stroke="midnightblue" d="M78.79,-60.84C95.86,-51.12 118.9,-38.58 140,-29 144.39,-27.01 149.06,-25.05 153.72,-23.2"/>
<polygon fill="midnightblue" stroke="midnightblue" points="155.11,-26.42 163.19,-19.57 152.6,-19.88 155.11,-26.42"/>
</g>
<!-- Node4 -->
<g id="node4" class="node">
<title>Node4</title>
<g id="a_node4"><a xlink:href="group__utility.html#gaac86abb9a38f4962ded5507e15dca4b9" target="_top" xlink:title="Generic absolute value function that works for integer types.">
<polygon fill="white" stroke="black" points="425,-94.5 425,-113.5 524,-113.5 524,-94.5 425,-94.5"/>
<text text-anchor="middle" x="474.5" y="-101.5" font-family="Helvetica,sans-Serif" font-size="10.00">hal::absolute_value</text>
</a>
</g>
</g>
<!-- Node3&#45;&gt;Node4 -->
<g id="edge3" class="edge">
<title>Node3&#45;&gt;Node4</title>
<path fill="none" stroke="midnightblue" d="M232,-104C279.38,-104 359.76,-104 414.67,-104"/>
<polygon fill="midnightblue" stroke="midnightblue" points="414.95,-107.5 424.95,-104 414.95,-100.5 414.95,-107.5"/>
</g>
<!-- Node5 -->
<g id="node5" class="node">
<title>Node5</title>
<g id="a_node5"><a xlink:href="group__utility.html#ga58a3550a3236310f20b92eacf593c2f0" target="_top" xlink:title="Perform integer division and round the value up if the next decimal place is greater than or equal to...">
<polygon fill="white" stroke="black" points="280,-75.5 280,-94.5 389,-94.5 389,-75.5 280,-75.5"/>
<text text-anchor="middle" x="334.5" y="-82.5" font-family="Helvetica,sans-Serif" font-size="10.00">hal::rounding_division</text>
</a>
</g>
</g>
<!-- Node3&#45;&gt;Node5 -->
<g id="edge4" class="edge">
<title>Node3&#45;&gt;Node5</title>
<path fill="none" stroke="midnightblue" d="M232.14,-98.71C243.8,-97.13 256.89,-95.36 269.7,-93.63"/>
<polygon fill="midnightblue" stroke="midnightblue" points="270.43,-97.06 279.87,-92.25 269.49,-90.12 270.43,-97.06"/>
</g>
<!-- Node5&#45;&gt;Node4 -->
<g id="edge5" class="edge">
<title>Node5&#45;&gt;Node4</title>
<path fill="none" stroke="midnightblue" d="M389.25,-92.4C397.54,-93.54 406.13,-94.72 414.52,-95.88"/>
<polygon fill="midnightblue" stroke="midnightblue" points="414.24,-99.37 424.62,-97.27 415.2,-92.44 414.24,-99.37"/>
</g>
<!-- Node6&#45;&gt;Node6 -->
<g id="edge7" class="edge">
<title>Node6&#45;&gt;Node6</title>
<path fill="none" stroke="midnightblue" d="M170.42,-57.76C159.92,-66.57 167.12,-76 192,-76 207.94,-76 216.62,-72.13 218.04,-67.03"/>
<polygon fill="midnightblue" stroke="midnightblue" points="221.07,-65.25 213.58,-57.76 214.76,-68.29 221.07,-65.25"/>
</g>
</g>
</svg>
