<?xml version="1.0" encoding="UTF-8" standalone="no"?>
<!DOCTYPE svg PUBLIC "-//W3C//DTD SVG 1.1//EN"
 "http://www.w3.org/Graphics/SVG/1.1/DTD/svg11.dtd">
<!-- Generated by graphviz version 3.0.0 (20220413.0242)
 -->
<!-- Title: embed::counter_timeout::create Pages: 1 -->
<svg width="597pt" height="172pt"
 viewBox="0.00 0.00 597.00 171.50" xmlns="http://www.w3.org/2000/svg" xmlns:xlink="http://www.w3.org/1999/xlink">
<g id="graph0" class="graph" transform="scale(1 1) rotate(0) translate(4 167.5)">
<title>embed::counter_timeout::create</title>
<polygon fill="white" stroke="transparent" points="-4,4 -4,-167.5 593,-167.5 593,4 -4,4"/>
<!-- Node1 -->
<g id="node1" class="node">
<title>Node1</title>
<g id="a_node1"><a xlink:title="Create a counter_timeout.">
<polygon fill="#bfbfbf" stroke="black" points="0,-61 0,-91 120,-91 120,-61 0,-61"/>
<text text-anchor="start" x="8" y="-79" font-family="Helvetica,sans-Serif" font-size="10.00">embed::counter_timeout</text>
<text text-anchor="middle" x="60" y="-68" font-family="Helvetica,sans-Serif" font-size="10.00">::create</text>
</a>
</g>
</g>
<!-- Node2 -->
<g id="node2" class="node">
<title>Node2</title>
<g id="a_node2"><a xlink:href="classembed_1_1counter__timeout.html#a78ca298194b92fa5ab316610c3b4df22" target="_top" xlink:title="Construct a new counter timeout object.">
<polygon fill="white" stroke="black" points="156,-133 156,-163 276,-163 276,-133 156,-133"/>
<text text-anchor="start" x="164" y="-151" font-family="Helvetica,sans-Serif" font-size="10.00">embed::counter_timeout</text>
<text text-anchor="middle" x="216" y="-140" font-family="Helvetica,sans-Serif" font-size="10.00">::counter_timeout</text>
</a>
</g>
</g>
<!-- Node1&#45;&gt;Node2 -->
<g id="edge1" class="edge">
<title>Node1&#45;&gt;Node2</title>
<path fill="none" stroke="midnightblue" d="M90.31,-91.06C108.98,-100.51 133.76,-112.8 156,-123 160.32,-124.98 164.85,-127 169.38,-128.99"/>
<polygon fill="midnightblue" stroke="midnightblue" points="168.09,-132.24 178.66,-133 170.87,-125.82 168.09,-132.24"/>
</g>
<!-- Node3 -->
<g id="node3" class="node">
<title>Node3</title>
<g id="a_node3"><a xlink:href="group__utility.html#ga61711bf3d8c25b82fb37db4f53426ef0" target="_top" xlink:title="Calculate the number of cycles of this frequency within the time duration. This function is meant for...">
<polygon fill="white" stroke="black" points="167.5,-94.5 167.5,-113.5 264.5,-113.5 264.5,-94.5 167.5,-94.5"/>
<text text-anchor="middle" x="216" y="-101.5" font-family="Helvetica,sans-Serif" font-size="10.00">embed::cycles_per</text>
</a>
</g>
</g>
<!-- Node1&#45;&gt;Node3 -->
<g id="edge2" class="edge">
<title>Node1&#45;&gt;Node3</title>
<path fill="none" stroke="midnightblue" d="M120.1,-86.75C132.29,-88.96 145.12,-91.29 157.26,-93.5"/>
<polygon fill="midnightblue" stroke="midnightblue" points="156.81,-96.98 167.28,-95.32 158.06,-90.09 156.81,-96.98"/>
</g>
<!-- Node6 -->
<g id="node6" class="node">
<title>Node6</title>
<g id="a_node6"><a xlink:href="namespaceembed.html#a87973d938f95cc08d58ae8d55707043a" target="_top" xlink:title=" ">
<polygon fill="white" stroke="black" points="169.5,-38.5 169.5,-57.5 262.5,-57.5 262.5,-38.5 169.5,-38.5"/>
<text text-anchor="middle" x="216" y="-45.5" font-family="Helvetica,sans-Serif" font-size="10.00">embed::new_error</text>
</a>
</g>
</g>
<!-- Node1&#45;&gt;Node6 -->
<g id="edge6" class="edge">
<title>Node1&#45;&gt;Node6</title>
<path fill="none" stroke="midnightblue" d="M120.1,-65.25C132.95,-62.92 146.51,-60.45 159.22,-58.14"/>
<polygon fill="midnightblue" stroke="midnightblue" points="160,-61.56 169.21,-56.33 158.75,-54.67 160,-61.56"/>
</g>
<!-- Node7 -->
<g id="node7" class="node">
<title>Node7</title>
<g id="a_node7"><a xlink:href="classembed_1_1counter.html#a02c24fbeaac81ef1030ff8e1a41b0738" target="_top" xlink:title="Get the uptime of the counter since it has started.">
<polygon fill="white" stroke="black" points="158,-0.5 158,-19.5 274,-19.5 274,-0.5 158,-0.5"/>
<text text-anchor="middle" x="216" y="-7.5" font-family="Helvetica,sans-Serif" font-size="10.00">embed::counter::uptime</text>
</a>
</g>
</g>
<!-- Node1&#45;&gt;Node7 -->
<g id="edge8" class="edge">
<title>Node1&#45;&gt;Node7</title>
<path fill="none" stroke="midnightblue" d="M88.77,-60.9C107.45,-51.09 132.81,-38.41 156,-29 161.43,-26.8 167.22,-24.67 172.97,-22.69"/>
<polygon fill="midnightblue" stroke="midnightblue" points="174.16,-25.98 182.54,-19.5 171.95,-19.34 174.16,-25.98"/>
</g>
<!-- Node4 -->
<g id="node4" class="node">
<title>Node4</title>
<g id="a_node4"><a xlink:href="group__utility.html#ga6f0922a28ac81378eb689b2ab4bc299a" target="_top" xlink:title="Generic absolute value function that works for integer types.">
<polygon fill="white" stroke="black" points="473,-94.5 473,-113.5 589,-113.5 589,-94.5 473,-94.5"/>
<text text-anchor="middle" x="531" y="-101.5" font-family="Helvetica,sans-Serif" font-size="10.00">embed::absolute_value</text>
</a>
</g>
</g>
<!-- Node3&#45;&gt;Node4 -->
<g id="edge3" class="edge">
<title>Node3&#45;&gt;Node4</title>
<path fill="none" stroke="midnightblue" d="M264.54,-104C317.4,-104 403.2,-104 462.89,-104"/>
<polygon fill="midnightblue" stroke="midnightblue" points="462.97,-107.5 472.97,-104 462.97,-100.5 462.97,-107.5"/>
</g>
<!-- Node5 -->
<g id="node5" class="node">
<title>Node5</title>
<g id="a_node5"><a xlink:href="group__utility.html#ga84ea33bb969785c47247cfe0da9aa98e" target="_top" xlink:title="Perform integer division and round the value up if the next decimal place is greater than or equal to...">
<polygon fill="white" stroke="black" points="312,-75.5 312,-94.5 437,-94.5 437,-75.5 312,-75.5"/>
<text text-anchor="middle" x="374.5" y="-82.5" font-family="Helvetica,sans-Serif" font-size="10.00">embed::rounding_division</text>
</a>
</g>
</g>
<!-- Node3&#45;&gt;Node5 -->
<g id="edge4" class="edge">
<title>Node3&#45;&gt;Node5</title>
<path fill="none" stroke="midnightblue" d="M264.81,-98.2C276.51,-96.78 289.29,-95.22 301.84,-93.7"/>
<polygon fill="midnightblue" stroke="midnightblue" points="302.33,-97.17 311.83,-92.49 301.48,-90.22 302.33,-97.17"/>
</g>
<!-- Node5&#45;&gt;Node4 -->
<g id="edge5" class="edge">
<title>Node5&#45;&gt;Node4</title>
<path fill="none" stroke="midnightblue" d="M437.01,-92.56C445.47,-93.61 454.21,-94.68 462.77,-95.73"/>
<polygon fill="midnightblue" stroke="midnightblue" points="462.37,-99.21 472.72,-96.96 463.22,-92.26 462.37,-99.21"/>
</g>
<!-- Node6&#45;&gt;Node6 -->
<g id="edge7" class="edge">
<title>Node6&#45;&gt;Node6</title>
<path fill="none" stroke="midnightblue" d="M191.96,-57.76C180.26,-66.57 188.27,-76 216,-76 234.2,-76 243.9,-71.94 245.12,-66.65"/>
<polygon fill="midnightblue" stroke="midnightblue" points="248.04,-64.71 240.04,-57.76 241.96,-68.18 248.04,-64.71"/>
</g>
</g>
</svg>
