<?xml version="1.0" encoding="UTF-8" standalone="no"?>
<!DOCTYPE svg PUBLIC "-//W3C//DTD SVG 1.1//EN"
 "http://www.w3.org/Graphics/SVG/1.1/DTD/svg11.dtd">
<!-- Generated by graphviz version 3.0.0 (20220413.0242)
 -->
<!-- Title: embed::frequency::cycles_per Pages: 1 -->
<svg width="464pt" height="92pt"
 viewBox="0.00 0.00 464.00 92.23" xmlns="http://www.w3.org/2000/svg" xmlns:xlink="http://www.w3.org/1999/xlink">
<g id="graph0" class="graph" transform="scale(1 1) rotate(0) translate(4 88.23)">
<title>embed::frequency::cycles_per</title>
<polygon fill="white" stroke="transparent" points="-4,4 -4,-88.23 460,-88.23 460,4 -4,4"/>
<!-- Node1 -->
<g id="node1" class="node">
<title>Node1</title>
<g id="a_node1"><a xlink:title="Calculate the number of cycles of this frequency within the time duration. This function is meant for...">
<polygon fill="#bfbfbf" stroke="black" points="0,-44.5 0,-63.5 143,-63.5 143,-44.5 0,-44.5"/>
<text text-anchor="middle" x="71.5" y="-51.5" font-family="Helvetica,sans-Serif" font-size="10.00">embed::frequency::cycles_per</text>
</a>
</g>
</g>
<!-- Node2 -->
<g id="node2" class="node">
<title>Node2</title>
<g id="a_node2"><a xlink:href="namespaceembed.html#a6f0922a28ac81378eb689b2ab4bc299a" target="_top" xlink:title="Generic absolute value function that works for integer types.">
<polygon fill="white" stroke="black" points="340,-44.5 340,-63.5 456,-63.5 456,-44.5 340,-44.5"/>
<text text-anchor="middle" x="398" y="-51.5" font-family="Helvetica,sans-Serif" font-size="10.00">embed::absolute_value</text>
</a>
</g>
</g>
<!-- Node1&#45;&gt;Node2 -->
<g id="edge1" class="edge">
<title>Node1&#45;&gt;Node2</title>
<path fill="none" stroke="midnightblue" d="M104.78,-63.63C125.72,-69.36 153.72,-76.07 179,-79 234.19,-85.39 248.92,-86.27 304,-79 322.39,-76.57 342.32,-71.55 358.98,-66.64"/>
<polygon fill="midnightblue" stroke="midnightblue" points="360.35,-69.88 368.9,-63.62 358.31,-63.19 360.35,-69.88"/>
</g>
<!-- Node3 -->
<g id="node3" class="node">
<title>Node3</title>
<g id="a_node3"><a xlink:href="classembed_1_1frequency.html#ae253d42390060843082b1ef6c2b300ec" target="_top" xlink:title="Get the frequency as an integer.">
<polygon fill="white" stroke="black" points="179,-39 179,-69 304,-69 304,-39 179,-39"/>
<text text-anchor="start" x="187" y="-57" font-family="Helvetica,sans-Serif" font-size="10.00">embed::frequency::cycles</text>
<text text-anchor="middle" x="241.5" y="-46" font-family="Helvetica,sans-Serif" font-size="10.00">_per_second</text>
</a>
</g>
</g>
<!-- Node1&#45;&gt;Node3 -->
<g id="edge2" class="edge">
<title>Node1&#45;&gt;Node3</title>
<path fill="none" stroke="midnightblue" d="M143.26,-54C151.68,-54 160.27,-54 168.7,-54"/>
<polygon fill="midnightblue" stroke="midnightblue" points="168.88,-57.5 178.88,-54 168.88,-50.5 168.88,-57.5"/>
</g>
<!-- Node4 -->
<g id="node4" class="node">
<title>Node4</title>
<g id="a_node4"><a xlink:href="namespaceembed.html#a84ea33bb969785c47247cfe0da9aa98e" target="_top" xlink:title="Perform integer division and round the value up if the next decimal place is greater than or equal to...">
<polygon fill="white" stroke="black" points="179,-0.5 179,-19.5 304,-19.5 304,-0.5 179,-0.5"/>
<text text-anchor="middle" x="241.5" y="-7.5" font-family="Helvetica,sans-Serif" font-size="10.00">embed::rounding_division</text>
</a>
</g>
</g>
<!-- Node1&#45;&gt;Node4 -->
<g id="edge3" class="edge">
<title>Node1&#45;&gt;Node4</title>
<path fill="none" stroke="midnightblue" d="M108.95,-44.45C133.94,-37.91 167.3,-29.17 194.17,-22.13"/>
<polygon fill="midnightblue" stroke="midnightblue" points="195.33,-25.45 204.12,-19.53 193.56,-18.68 195.33,-25.45"/>
</g>
<!-- Node4&#45;&gt;Node2 -->
<g id="edge4" class="edge">
<title>Node4&#45;&gt;Node2</title>
<path fill="none" stroke="midnightblue" d="M276.02,-19.55C298.8,-26.03 329.14,-34.67 353.74,-41.68"/>
<polygon fill="midnightblue" stroke="midnightblue" points="352.96,-45.1 363.54,-44.47 354.88,-38.37 352.96,-45.1"/>
</g>
</g>
</svg>
