<?xml version="1.0" encoding="UTF-8" standalone="no"?>
<!DOCTYPE svg PUBLIC "-//W3C//DTD SVG 1.1//EN"
 "http://www.w3.org/Graphics/SVG/1.1/DTD/svg11.dtd">
<!-- Generated by graphviz version 3.0.0 (20220413.0242)
 -->
<!-- Title: embed::rc_servo::create Pages: 1 -->
<svg width="592pt" height="142pt"
 viewBox="0.00 0.00 592.00 142.00" xmlns="http://www.w3.org/2000/svg" xmlns:xlink="http://www.w3.org/1999/xlink">
<g id="graph0" class="graph" transform="scale(1 1) rotate(0) translate(4 138)">
<title>embed::rc_servo::create</title>
<polygon fill="white" stroke="transparent" points="-4,4 -4,-138 588,-138 588,4 -4,4"/>
<!-- Node1 -->
<g id="node1" class="node">
<title>Node1</title>
<g id="a_node1"><a xlink:title="Factory function to create a rc_servo object.">
<polygon fill="#bfbfbf" stroke="black" points="0,-79.5 0,-98.5 119,-98.5 119,-79.5 0,-79.5"/>
<text text-anchor="middle" x="59.5" y="-86.5" font-family="Helvetica,sans-Serif" font-size="10.00">embed::rc_servo::create</text>
</a>
</g>
</g>
<!-- Node2 -->
<g id="node2" class="node">
<title>Node2</title>
<g id="a_node2"><a xlink:href="classembed_1_1pwm.html#aa1d32008d56245740502bab1e0d2e18b" target="_top" xlink:title="Configure pwm to match the settings supplied.">
<polygon fill="white" stroke="black" points="155,-101.5 155,-120.5 270,-120.5 270,-101.5 155,-101.5"/>
<text text-anchor="middle" x="212.5" y="-108.5" font-family="Helvetica,sans-Serif" font-size="10.00">embed::pwm::configure</text>
</a>
</g>
</g>
<!-- Node1&#45;&gt;Node2 -->
<g id="edge1" class="edge">
<title>Node1&#45;&gt;Node2</title>
<path fill="none" stroke="midnightblue" d="M119.31,-97.57C127.56,-98.77 136.08,-100.01 144.46,-101.23"/>
<polygon fill="midnightblue" stroke="midnightblue" points="144.18,-104.73 154.58,-102.71 145.19,-97.8 144.18,-104.73"/>
</g>
<!-- Node3 -->
<g id="node3" class="node">
<title>Node3</title>
<g id="a_node3"><a xlink:href="classembed_1_1percent.html#a3031fcd41ebdbc14fe77114d239c0b27" target="_top" xlink:title="Generate a percentage based on input relative to the maximum possible value.">
<polygon fill="white" stroke="black" points="159,-52 159,-82 266,-82 266,-52 159,-52"/>
<text text-anchor="start" x="167" y="-70" font-family="Helvetica,sans-Serif" font-size="10.00">embed::percent::from</text>
<text text-anchor="middle" x="212.5" y="-59" font-family="Helvetica,sans-Serif" font-size="10.00">_ratio</text>
</a>
</g>
</g>
<!-- Node1&#45;&gt;Node3 -->
<g id="edge2" class="edge">
<title>Node1&#45;&gt;Node3</title>
<path fill="none" stroke="midnightblue" d="M119.31,-80.43C129.02,-79.02 139.12,-77.55 148.92,-76.12"/>
<polygon fill="midnightblue" stroke="midnightblue" points="149.6,-79.55 159,-74.65 148.6,-72.63 149.6,-79.55"/>
</g>
<!-- Node4 -->
<g id="node4" class="node">
<title>Node4</title>
<g id="a_node4"><a xlink:href="classembed_1_1percent.html#a3635a4d8e47f6a65226ee6391509f3a1" target="_top" xlink:title="Construct 0% percent object.">
<polygon fill="white" stroke="black" points="309.5,-114.5 309.5,-133.5 428.5,-133.5 428.5,-114.5 309.5,-114.5"/>
<text text-anchor="middle" x="369" y="-121.5" font-family="Helvetica,sans-Serif" font-size="10.00">embed::percent::percent</text>
</a>
</g>
</g>
<!-- Node3&#45;&gt;Node4 -->
<g id="edge3" class="edge">
<title>Node3&#45;&gt;Node4</title>
<path fill="none" stroke="midnightblue" d="M247.91,-82.02C265.19,-89.34 286.55,-98.04 306,-105 312.05,-107.17 318.49,-109.31 324.84,-111.33"/>
<polygon fill="midnightblue" stroke="midnightblue" points="324.08,-114.77 334.67,-114.41 326.17,-108.08 324.08,-114.77"/>
</g>
<!-- Node5 -->
<g id="node5" class="node">
<title>Node5</title>
<g id="a_node5"><a xlink:href="classembed_1_1percent.html#a18867853ebb7f7101932f298ef9ac059" target="_top" xlink:title="Get the 100% value in its raw representation.">
<polygon fill="white" stroke="black" points="306,-76.5 306,-95.5 432,-95.5 432,-76.5 306,-76.5"/>
<text text-anchor="middle" x="369" y="-83.5" font-family="Helvetica,sans-Serif" font-size="10.00">embed::percent::raw_max</text>
</a>
</g>
</g>
<!-- Node3&#45;&gt;Node5 -->
<g id="edge4" class="edge">
<title>Node3&#45;&gt;Node5</title>
<path fill="none" stroke="midnightblue" d="M266.24,-73.49C275.81,-74.66 285.94,-75.91 295.96,-77.14"/>
<polygon fill="midnightblue" stroke="midnightblue" points="295.56,-80.62 305.91,-78.36 296.41,-73.67 295.56,-80.62"/>
</g>
<!-- Node6 -->
<g id="node6" class="node">
<title>Node6</title>
<g id="a_node6"><a xlink:href="classembed_1_1percent.html#addd3062c4b442314f9b135b532367c44" target="_top" xlink:title="Get the &#45;100% value in its raw representation.">
<polygon fill="white" stroke="black" points="307,-38.5 307,-57.5 431,-57.5 431,-38.5 307,-38.5"/>
<text text-anchor="middle" x="369" y="-45.5" font-family="Helvetica,sans-Serif" font-size="10.00">embed::percent::raw_min</text>
</a>
</g>
</g>
<!-- Node3&#45;&gt;Node6 -->
<g id="edge5" class="edge">
<title>Node3&#45;&gt;Node6</title>
<path fill="none" stroke="midnightblue" d="M266.24,-60.51C276.07,-59.31 286.5,-58.02 296.78,-56.76"/>
<polygon fill="midnightblue" stroke="midnightblue" points="297.49,-60.2 306.99,-55.5 296.64,-53.25 297.49,-60.2"/>
</g>
<!-- Node7 -->
<g id="node7" class="node">
<title>Node7</title>
<g id="a_node7"><a xlink:href="group__utility.html#ga84ea33bb969785c47247cfe0da9aa98e" target="_top" xlink:title="Perform integer division and round the value up if the next decimal place is greater than or equal to...">
<polygon fill="white" stroke="black" points="306.5,-0.5 306.5,-19.5 431.5,-19.5 431.5,-0.5 306.5,-0.5"/>
<text text-anchor="middle" x="369" y="-7.5" font-family="Helvetica,sans-Serif" font-size="10.00">embed::rounding_division</text>
</a>
</g>
</g>
<!-- Node3&#45;&gt;Node7 -->
<g id="edge6" class="edge">
<title>Node3&#45;&gt;Node7</title>
<path fill="none" stroke="midnightblue" d="M247.91,-51.98C265.19,-44.66 286.55,-35.96 306,-29 312.05,-26.83 318.49,-24.69 324.84,-22.67"/>
<polygon fill="midnightblue" stroke="midnightblue" points="326.17,-25.92 334.67,-19.59 324.08,-19.23 326.17,-25.92"/>
</g>
<!-- Node8 -->
<g id="node8" class="node">
<title>Node8</title>
<g id="a_node8"><a xlink:href="group__utility.html#ga6f0922a28ac81378eb689b2ab4bc299a" target="_top" xlink:title="Generic absolute value function that works for integer types.">
<polygon fill="white" stroke="black" points="468,-0.5 468,-19.5 584,-19.5 584,-0.5 468,-0.5"/>
<text text-anchor="middle" x="526" y="-7.5" font-family="Helvetica,sans-Serif" font-size="10.00">embed::absolute_value</text>
</a>
</g>
</g>
<!-- Node7&#45;&gt;Node8 -->
<g id="edge7" class="edge">
<title>Node7&#45;&gt;Node8</title>
<path fill="none" stroke="midnightblue" d="M431.71,-10C440.26,-10 449.09,-10 457.74,-10"/>
<polygon fill="midnightblue" stroke="midnightblue" points="457.79,-13.5 467.79,-10 457.79,-6.5 457.79,-13.5"/>
</g>
</g>
</svg>
