<?xml version="1.0" encoding="UTF-8" standalone="no"?>
<!DOCTYPE svg PUBLIC "-//W3C//DTD SVG 1.1//EN"
 "http://www.w3.org/Graphics/SVG/1.1/DTD/svg11.dtd">
<!-- Generated by graphviz version 3.0.0 (20220413.0242)
 -->
<!-- Title: hal::percent::min Pages: 1 -->
<svg width="237pt" height="66pt"
 viewBox="0.00 0.00 237.00 66.00" xmlns="http://www.w3.org/2000/svg" xmlns:xlink="http://www.w3.org/1999/xlink">
<g id="graph0" class="graph" transform="scale(1 1) rotate(0) translate(4 62)">
<title>hal::percent::min</title>
<polygon fill="white" stroke="transparent" points="-4,4 -4,-62 233,-62 233,4 -4,4"/>
<!-- Node1 -->
<g id="node1" class="node">
<title>Node1</title>
<g id="a_node1"><a xlink:title="Get &#45;100% percentage.">
<polygon fill="#bfbfbf" stroke="black" points="0,-19.5 0,-38.5 86,-38.5 86,-19.5 0,-19.5"/>
<text text-anchor="middle" x="43" y="-26.5" font-family="Helvetica,sans-Serif" font-size="10.00">hal::percent::min</text>
</a>
</g>
</g>
<!-- Node2 -->
<g id="node2" class="node">
<title>Node2</title>
<g id="a_node2"><a xlink:href="classhal_1_1percent.html#ac47af31e37f0680bdefe136ee619ef9d" target="_top" xlink:title="Construct 0% percent object.">
<polygon fill="white" stroke="black" points="124,-38.5 124,-57.5 227,-57.5 227,-38.5 124,-38.5"/>
<text text-anchor="middle" x="175.5" y="-45.5" font-family="Helvetica,sans-Serif" font-size="10.00">hal::percent::percent</text>
</a>
</g>
</g>
<!-- Node1&#45;&gt;Node2 -->
<g id="edge1" class="edge">
<title>Node1&#45;&gt;Node2</title>
<path fill="none" stroke="midnightblue" d="M86.01,-35.12C94.87,-36.41 104.4,-37.79 113.79,-39.16"/>
<polygon fill="midnightblue" stroke="midnightblue" points="113.5,-42.66 123.9,-40.63 114.51,-35.73 113.5,-42.66"/>
</g>
<!-- Node3 -->
<g id="node3" class="node">
<title>Node3</title>
<g id="a_node3"><a xlink:href="classhal_1_1percent.html#a36a2265034230d77794566fe966df7e1" target="_top" xlink:title="Get the &#45;100% value in its raw representation.">
<polygon fill="white" stroke="black" points="122,-0.5 122,-19.5 229,-19.5 229,-0.5 122,-0.5"/>
<text text-anchor="middle" x="175.5" y="-7.5" font-family="Helvetica,sans-Serif" font-size="10.00">hal::percent::raw_min</text>
</a>
</g>
</g>
<!-- Node1&#45;&gt;Node3 -->
<g id="edge2" class="edge">
<title>Node1&#45;&gt;Node3</title>
<path fill="none" stroke="midnightblue" d="M86.01,-22.88C94.15,-21.7 102.84,-20.43 111.49,-19.17"/>
<polygon fill="midnightblue" stroke="midnightblue" points="112.18,-22.61 121.57,-17.71 111.17,-15.68 112.18,-22.61"/>
</g>
</g>
</svg>
