<?xml version="1.0" encoding="UTF-8" standalone="no"?>
<!DOCTYPE svg PUBLIC "-//W3C//DTD SVG 1.1//EN"
 "http://www.w3.org/Graphics/SVG/1.1/DTD/svg11.dtd">
<!-- Generated by graphviz version 3.0.0 (20220413.0242)
 -->
<!-- Title: embed::frequency::calculate_duty_cycle Pages: 1 -->
<svg width="629pt" height="100pt"
 viewBox="0.00 0.00 629.00 99.50" xmlns="http://www.w3.org/2000/svg" xmlns:xlink="http://www.w3.org/1999/xlink">
<g id="graph0" class="graph" transform="scale(1 1) rotate(0) translate(4 95.5)">
<title>embed::frequency::calculate_duty_cycle</title>
<polygon fill="white" stroke="transparent" points="-4,4 -4,-95.5 625,-95.5 625,4 -4,4"/>
<!-- Node1 -->
<g id="node1" class="node">
<title>Node1</title>
<g id="a_node1"><a xlink:title="Calculate a duty cycle based on a target, the percent and this driving frequency. Typically used for ...">
<polygon fill="#bfbfbf" stroke="black" points="0,-39 0,-69 136,-69 136,-39 0,-39"/>
<text text-anchor="start" x="8" y="-57" font-family="Helvetica,sans-Serif" font-size="10.00">embed::frequency::calculate</text>
<text text-anchor="middle" x="68" y="-46" font-family="Helvetica,sans-Serif" font-size="10.00">_duty_cycle</text>
</a>
</g>
</g>
<!-- Node2 -->
<g id="node2" class="node">
<title>Node2</title>
<g id="a_node2"><a xlink:href="classembed_1_1frequency.html#ac5e0ec1ff02f4253db3778da5773ff63" target="_top" xlink:title="Generate a duty_cycle object based on the percent value and the input count value....">
<polygon fill="white" stroke="black" points="172,-61 172,-91 308,-91 308,-61 172,-61"/>
<text text-anchor="start" x="180" y="-79" font-family="Helvetica,sans-Serif" font-size="10.00">embed::frequency::calculate</text>
<text text-anchor="middle" x="240" y="-68" font-family="Helvetica,sans-Serif" font-size="10.00">_duty_cycle</text>
</a>
</g>
</g>
<!-- Node1&#45;&gt;Node2 -->
<g id="edge1" class="edge">
<title>Node1&#45;&gt;Node2</title>
<path fill="none" stroke="midnightblue" d="M136.19,-62.69C144.59,-63.78 153.24,-64.9 161.78,-66.01"/>
<polygon fill="midnightblue" stroke="midnightblue" points="161.38,-69.48 171.74,-67.3 162.27,-62.54 161.38,-69.48"/>
</g>
<!-- Node3 -->
<g id="node3" class="node">
<title>Node3</title>
<g id="a_node3"><a xlink:href="classembed_1_1frequency.html#a7a0a49000c46f52507a958882e31d77c" target="_top" xlink:title="Calculate the frequency divide required to generate the output frequency provided.">
<polygon fill="white" stroke="black" points="179,-22.5 179,-41.5 301,-41.5 301,-22.5 179,-22.5"/>
<text text-anchor="middle" x="240" y="-29.5" font-family="Helvetica,sans-Serif" font-size="10.00">embed::frequency::divide</text>
</a>
</g>
</g>
<!-- Node1&#45;&gt;Node3 -->
<g id="edge2" class="edge">
<title>Node1&#45;&gt;Node3</title>
<path fill="none" stroke="midnightblue" d="M136.19,-45.31C146.88,-43.92 157.96,-42.49 168.72,-41.09"/>
<polygon fill="midnightblue" stroke="midnightblue" points="169.45,-44.53 178.91,-39.78 168.55,-37.59 169.45,-44.53"/>
</g>
<!-- Node4 -->
<g id="node4" class="node">
<title>Node4</title>
<g id="a_node4"><a xlink:href="classembed_1_1frequency.html#ae253d42390060843082b1ef6c2b300ec" target="_top" xlink:title="Get the frequency as an integer.">
<polygon fill="white" stroke="black" points="344,-39 344,-69 469,-69 469,-39 344,-39"/>
<text text-anchor="start" x="352" y="-57" font-family="Helvetica,sans-Serif" font-size="10.00">embed::frequency::cycles</text>
<text text-anchor="middle" x="406.5" y="-46" font-family="Helvetica,sans-Serif" font-size="10.00">_per_second</text>
</a>
</g>
</g>
<!-- Node3&#45;&gt;Node4 -->
<g id="edge3" class="edge">
<title>Node3&#45;&gt;Node4</title>
<path fill="none" stroke="midnightblue" d="M301.32,-40.07C311.81,-41.47 322.82,-42.94 333.59,-44.38"/>
<polygon fill="midnightblue" stroke="midnightblue" points="333.43,-47.89 343.81,-45.75 334.36,-40.95 333.43,-47.89"/>
</g>
<!-- Node5 -->
<g id="node5" class="node">
<title>Node5</title>
<g id="a_node5"><a xlink:href="namespaceembed.html#a84ea33bb969785c47247cfe0da9aa98e" target="_top" xlink:title="Perform integer division and round the value up if the next decimal place is greater than or equal to...">
<polygon fill="white" stroke="black" points="344,-0.5 344,-19.5 469,-19.5 469,-0.5 344,-0.5"/>
<text text-anchor="middle" x="406.5" y="-7.5" font-family="Helvetica,sans-Serif" font-size="10.00">embed::rounding_division</text>
</a>
</g>
</g>
<!-- Node3&#45;&gt;Node5 -->
<g id="edge4" class="edge">
<title>Node3&#45;&gt;Node5</title>
<path fill="none" stroke="midnightblue" d="M301.32,-23.93C311.81,-22.53 322.82,-21.06 333.59,-19.62"/>
<polygon fill="midnightblue" stroke="midnightblue" points="334.36,-23.05 343.81,-18.25 333.43,-16.11 334.36,-23.05"/>
</g>
<!-- Node6 -->
<g id="node6" class="node">
<title>Node6</title>
<g id="a_node6"><a xlink:href="namespaceembed.html#a6f0922a28ac81378eb689b2ab4bc299a" target="_top" xlink:title="Generic absolute value function that works for integer types.">
<polygon fill="white" stroke="black" points="505,-0.5 505,-19.5 621,-19.5 621,-0.5 505,-0.5"/>
<text text-anchor="middle" x="563" y="-7.5" font-family="Helvetica,sans-Serif" font-size="10.00">embed::absolute_value</text>
</a>
</g>
</g>
<!-- Node5&#45;&gt;Node6 -->
<g id="edge5" class="edge">
<title>Node5&#45;&gt;Node6</title>
<path fill="none" stroke="midnightblue" d="M469.01,-10C477.38,-10 486.02,-10 494.49,-10"/>
<polygon fill="midnightblue" stroke="midnightblue" points="494.72,-13.5 504.72,-10 494.72,-6.5 494.72,-13.5"/>
</g>
</g>
</svg>
