<?xml version="1.0" encoding="UTF-8" standalone="no"?>
<!DOCTYPE svg PUBLIC "-//W3C//DTD SVG 1.1//EN"
 "http://www.w3.org/Graphics/SVG/1.1/DTD/svg11.dtd">
<!-- Generated by graphviz version 3.0.0 (20220413.0242)
 -->
<!-- Title: hal::counter_timeout::counter_timeout Pages: 1 -->
<svg width="567pt" height="52pt"
 viewBox="0.00 0.00 567.00 51.50" xmlns="http://www.w3.org/2000/svg" xmlns:xlink="http://www.w3.org/1999/xlink">
<g id="graph0" class="graph" transform="scale(1 1) rotate(0) translate(4 47.5)">
<title>hal::counter_timeout::counter_timeout</title>
<polygon fill="white" stroke="transparent" points="-4,4 -4,-47.5 563,-47.5 563,4 -4,4"/>
<!-- Node1 -->
<g id="node1" class="node">
<title>Node1</title>
<g id="a_node1"><a xlink:title="Construct a new counter timeout object.">
<polygon fill="#bfbfbf" stroke="black" points="455,-0.5 455,-30.5 559,-30.5 559,-0.5 455,-0.5"/>
<text text-anchor="start" x="463" y="-18.5" font-family="Helvetica,sans-Serif" font-size="10.00">hal::counter_timeout</text>
<text text-anchor="middle" x="507" y="-7.5" font-family="Helvetica,sans-Serif" font-size="10.00">::counter_timeout</text>
</a>
</g>
</g>
<!-- Node2 -->
<g id="node2" class="node">
<title>Node2</title>
<g id="a_node2"><a xlink:href="classhal_1_1counter__timeout.html#a6ee789453ce4aaddee20f61e835c1bb5" target="_top" xlink:title="Create a counter_timeout.">
<polygon fill="white" stroke="black" points="315,-0.5 315,-30.5 419,-30.5 419,-0.5 315,-0.5"/>
<text text-anchor="start" x="323" y="-18.5" font-family="Helvetica,sans-Serif" font-size="10.00">hal::counter_timeout</text>
<text text-anchor="middle" x="367" y="-7.5" font-family="Helvetica,sans-Serif" font-size="10.00">::create</text>
</a>
</g>
</g>
<!-- Node1&#45;&gt;Node2 -->
<g id="edge1" class="edge">
<title>Node1&#45;&gt;Node2</title>
<path fill="none" stroke="midnightblue" d="M444.5,-15.5C436.13,-15.5 427.6,-15.5 419.43,-15.5"/>
<polygon fill="midnightblue" stroke="midnightblue" points="444.61,-19 454.61,-15.5 444.61,-12 444.61,-19"/>
</g>
<!-- Node3 -->
<g id="node3" class="node">
<title>Node3</title>
<g id="a_node3"><a xlink:href="group__counter.html#ga3fb156fd09b7bff2df7c0fb36b7a1357" target="_top" xlink:title="Create a timeout object based on hal::counter.">
<polygon fill="white" stroke="black" points="181,-6 181,-25 279,-25 279,-6 181,-6"/>
<text text-anchor="middle" x="230" y="-13" font-family="Helvetica,sans-Serif" font-size="10.00">hal::create_timeout</text>
</a>
</g>
</g>
<!-- Node2&#45;&gt;Node3 -->
<g id="edge2" class="edge">
<title>Node2&#45;&gt;Node3</title>
<path fill="none" stroke="midnightblue" d="M304.72,-15.5C296.25,-15.5 287.64,-15.5 279.43,-15.5"/>
<polygon fill="midnightblue" stroke="midnightblue" points="304.96,-19 314.96,-15.5 304.96,-12 304.96,-19"/>
</g>
<!-- Node4 -->
<g id="node4" class="node">
<title>Node4</title>
<g id="a_node4"><a xlink:href="group__counter.html#gad6b2dea2bf157a3df06253aac6354586" target="_top" xlink:title="Delay execution for a duration of time using a hardware counter.">
<polygon fill="white" stroke="black" points="89,-6 89,-25 145,-25 145,-6 89,-6"/>
<text text-anchor="middle" x="117" y="-13" font-family="Helvetica,sans-Serif" font-size="10.00">hal::delay</text>
</a>
</g>
</g>
<!-- Node3&#45;&gt;Node4 -->
<g id="edge3" class="edge">
<title>Node3&#45;&gt;Node4</title>
<path fill="none" stroke="midnightblue" d="M170.8,-15.5C161.8,-15.5 152.89,-15.5 145.03,-15.5"/>
<polygon fill="midnightblue" stroke="midnightblue" points="170.96,-19 180.96,-15.5 170.96,-12 170.96,-19"/>
</g>
<!-- Node4&#45;&gt;Node4 -->
<g id="edge4" class="edge">
<title>Node4&#45;&gt;Node4</title>
<path fill="none" stroke="midnightblue" d="M133.67,-34.9C132.55,-39.81 127,-43.5 117,-43.5 101,-43.5 96.38,-34.07 103.13,-25.26"/>
<polygon fill="midnightblue" stroke="midnightblue" points="137.02,-33.89 130.87,-25.26 130.29,-35.84 137.02,-33.89"/>
</g>
<!-- Node5 -->
<g id="node5" class="node">
<title>Node5</title>
<g id="a_node5"><a xlink:href="group__serial.html#ga62a11b4820816132ad98cc6cbdc97725" target="_top" xlink:title="Read bytes from a serial port.">
<polygon fill="white" stroke="black" points="0,-6 0,-25 53,-25 53,-6 0,-6"/>
<text text-anchor="middle" x="26.5" y="-13" font-family="Helvetica,sans-Serif" font-size="10.00">hal::read</text>
</a>
</g>
</g>
<!-- Node4&#45;&gt;Node5 -->
<g id="edge5" class="edge">
<title>Node4&#45;&gt;Node5</title>
<path fill="none" stroke="midnightblue" d="M78.73,-15.5C70.12,-15.5 61.14,-15.5 53.16,-15.5"/>
<polygon fill="midnightblue" stroke="midnightblue" points="78.97,-19 88.97,-15.5 78.97,-12 78.97,-19"/>
</g>
</g>
</svg>
