<?xml version="1.0" encoding="UTF-8" standalone="no"?>
<!DOCTYPE svg PUBLIC "-//W3C//DTD SVG 1.1//EN"
 "http://www.w3.org/Graphics/SVG/1.1/DTD/svg11.dtd">
<!-- Generated by graphviz version 3.0.0 (20220413.0242)
 -->
<!-- Title: embed::counter::uptime Pages: 1 -->
<svg width="494pt" height="96pt"
 viewBox="0.00 0.00 494.00 95.50" xmlns="http://www.w3.org/2000/svg" xmlns:xlink="http://www.w3.org/1999/xlink">
<g id="graph0" class="graph" transform="scale(1 1) rotate(0) translate(4 91.5)">
<title>embed::counter::uptime</title>
<polygon fill="white" stroke="transparent" points="-4,4 -4,-91.5 490,-91.5 490,4 -4,4"/>
<!-- Node1 -->
<g id="node1" class="node">
<title>Node1</title>
<g id="a_node1"><a xlink:title="Get the uptime of the counter since it has started.">
<polygon fill="#bfbfbf" stroke="black" points="370,-28 370,-47 486,-47 486,-28 370,-28"/>
<text text-anchor="middle" x="428" y="-35" font-family="Helvetica,sans-Serif" font-size="10.00">embed::counter::uptime</text>
</a>
</g>
</g>
<!-- Node2 -->
<g id="node2" class="node">
<title>Node2</title>
<g id="a_node2"><a xlink:href="group__counter.html#ga4f1edcd06bf52209d5293e54d0d1beb6" target="_top" xlink:title="Create a timeout object based on embed::counter.">
<polygon fill="white" stroke="black" points="216.5,-50 216.5,-69 331.5,-69 331.5,-50 216.5,-50"/>
<text text-anchor="middle" x="274" y="-57" font-family="Helvetica,sans-Serif" font-size="10.00">embed::create_timeout</text>
</a>
</g>
</g>
<!-- Node1&#45;&gt;Node2 -->
<g id="edge1" class="edge">
<title>Node1&#45;&gt;Node2</title>
<path fill="none" stroke="midnightblue" d="M359.84,-47.22C350.41,-48.59 340.8,-49.98 331.59,-51.31"/>
<polygon fill="midnightblue" stroke="midnightblue" points="360.57,-50.65 369.97,-45.75 359.57,-43.72 360.57,-50.65"/>
</g>
<!-- Node5 -->
<g id="node5" class="node">
<title>Node5</title>
<g id="a_node5"><a xlink:href="classembed_1_1counter__timeout.html#a0e0ca951312cdae3cd016e8984eff74b" target="_top" xlink:title="Call this object to check if it has timed out.">
<polygon fill="white" stroke="black" points="214,-0.5 214,-30.5 334,-30.5 334,-0.5 214,-0.5"/>
<text text-anchor="start" x="222" y="-18.5" font-family="Helvetica,sans-Serif" font-size="10.00">embed::counter_timeout</text>
<text text-anchor="middle" x="274" y="-7.5" font-family="Helvetica,sans-Serif" font-size="10.00">::operator()</text>
</a>
</g>
</g>
<!-- Node1&#45;&gt;Node5 -->
<g id="edge5" class="edge">
<title>Node1&#45;&gt;Node5</title>
<path fill="none" stroke="midnightblue" d="M359.96,-27.8C351.36,-26.55 342.59,-25.28 334.13,-24.06"/>
<polygon fill="midnightblue" stroke="midnightblue" points="359.57,-31.28 369.97,-29.25 360.57,-24.35 359.57,-31.28"/>
</g>
<!-- Node3 -->
<g id="node3" class="node">
<title>Node3</title>
<g id="a_node3"><a xlink:href="group__counter.html#ga53e2d568aa13881c4213fe89a2e1c42e" target="_top" xlink:title="Delay execution for a duration of time using a hardware counter.">
<polygon fill="white" stroke="black" points="105,-50 105,-69 178,-69 178,-50 105,-50"/>
<text text-anchor="middle" x="141.5" y="-57" font-family="Helvetica,sans-Serif" font-size="10.00">embed::delay</text>
</a>
</g>
</g>
<!-- Node2&#45;&gt;Node3 -->
<g id="edge2" class="edge">
<title>Node2&#45;&gt;Node3</title>
<path fill="none" stroke="midnightblue" d="M206.1,-59.5C196.45,-59.5 186.84,-59.5 178.13,-59.5"/>
<polygon fill="midnightblue" stroke="midnightblue" points="206.14,-63 216.14,-59.5 206.14,-56 206.14,-63"/>
</g>
<!-- Node3&#45;&gt;Node3 -->
<g id="edge3" class="edge">
<title>Node3&#45;&gt;Node3</title>
<path fill="none" stroke="midnightblue" d="M161.13,-78.9C159.82,-83.81 153.27,-87.5 141.5,-87.5 122.66,-87.5 117.21,-78.07 125.16,-69.26"/>
<polygon fill="midnightblue" stroke="midnightblue" points="164.38,-77.59 157.84,-69.26 157.76,-79.85 164.38,-77.59"/>
</g>
<!-- Node4 -->
<g id="node4" class="node">
<title>Node4</title>
<g id="a_node4"><a xlink:href="group__serial.html#ga56439487351e68f734fdf9b6330da4d2" target="_top" xlink:title="Read bytes from a serial port.">
<polygon fill="white" stroke="black" points="0,-50 0,-69 69,-69 69,-50 0,-50"/>
<text text-anchor="middle" x="34.5" y="-57" font-family="Helvetica,sans-Serif" font-size="10.00">embed::read</text>
</a>
</g>
</g>
<!-- Node3&#45;&gt;Node4 -->
<g id="edge4" class="edge">
<title>Node3&#45;&gt;Node4</title>
<path fill="none" stroke="midnightblue" d="M94.7,-59.5C86.14,-59.5 77.35,-59.5 69.24,-59.5"/>
<polygon fill="midnightblue" stroke="midnightblue" points="94.95,-63 104.95,-59.5 94.95,-56 94.95,-63"/>
</g>
</g>
</svg>
