<?xml version="1.0" encoding="UTF-8" standalone="no"?>
<!DOCTYPE svg PUBLIC "-//W3C//DTD SVG 1.1//EN"
 "http://www.w3.org/Graphics/SVG/1.1/DTD/svg11.dtd">
<!-- Generated by graphviz version 3.0.0 (20220413.0242)
 -->
<!-- Title: embed::can_network::register_message_id Pages: 1 -->
<svg width="248pt" height="52pt"
 viewBox="0.00 0.00 248.00 51.50" xmlns="http://www.w3.org/2000/svg" xmlns:xlink="http://www.w3.org/1999/xlink">
<g id="graph0" class="graph" transform="scale(1 1) rotate(0) translate(4 47.5)">
<title>embed::can_network::register_message_id</title>
<polygon fill="white" stroke="transparent" points="-4,4 -4,-47.5 244,-47.5 244,4 -4,4"/>
<!-- Node1 -->
<g id="node1" class="node">
<title>Node1</title>
<g id="a_node1"><a xlink:title="Associate a can id with a node in the can network.">
<polygon fill="#bfbfbf" stroke="black" points="0,-0.5 0,-30.5 111,-30.5 111,-0.5 0,-0.5"/>
<text text-anchor="start" x="8" y="-18.5" font-family="Helvetica,sans-Serif" font-size="10.00">embed::can_network</text>
<text text-anchor="middle" x="55.5" y="-7.5" font-family="Helvetica,sans-Serif" font-size="10.00">::register_message_id</text>
</a>
</g>
</g>
<!-- Node2 -->
<g id="node2" class="node">
<title>Node2</title>
<g id="a_node2"><a xlink:href="namespaceembed.html#a87973d938f95cc08d58ae8d55707043a" target="_top" xlink:title=" ">
<polygon fill="white" stroke="black" points="147,-6 147,-25 240,-25 240,-6 147,-6"/>
<text text-anchor="middle" x="193.5" y="-13" font-family="Helvetica,sans-Serif" font-size="10.00">embed::new_error</text>
</a>
</g>
</g>
<!-- Node1&#45;&gt;Node2 -->
<g id="edge1" class="edge">
<title>Node1&#45;&gt;Node2</title>
<path fill="none" stroke="midnightblue" d="M111.03,-15.5C119.44,-15.5 128.13,-15.5 136.57,-15.5"/>
<polygon fill="midnightblue" stroke="midnightblue" points="136.69,-19 146.69,-15.5 136.69,-12 136.69,-19"/>
</g>
<!-- Node2&#45;&gt;Node2 -->
<g id="edge2" class="edge">
<title>Node2&#45;&gt;Node2</title>
<path fill="none" stroke="midnightblue" d="M172.23,-25.26C161.88,-34.07 168.97,-43.5 193.5,-43.5 209.21,-43.5 217.77,-39.63 219.17,-34.53"/>
<polygon fill="midnightblue" stroke="midnightblue" points="222.22,-32.79 214.77,-25.26 215.89,-35.79 222.22,-32.79"/>
</g>
</g>
</svg>
