<?xml version="1.0" encoding="UTF-8" standalone="no"?>
<!DOCTYPE svg PUBLIC "-//W3C//DTD SVG 1.1//EN"
 "http://www.w3.org/Graphics/SVG/1.1/DTD/svg11.dtd">
<!-- Generated by graphviz version 3.0.0 (20220413.0242)
 -->
<!-- Title: embed::percent::raw_value Pages: 1 -->
<svg width="281pt" height="66pt"
 viewBox="0.00 0.00 281.00 66.00" xmlns="http://www.w3.org/2000/svg" xmlns:xlink="http://www.w3.org/1999/xlink">
<g id="graph0" class="graph" transform="scale(1 1) rotate(0) translate(4 62)">
<title>embed::percent::raw_value</title>
<polygon fill="white" stroke="transparent" points="-4,4 -4,-62 277,-62 277,4 -4,4"/>
<!-- Node1 -->
<g id="node1" class="node">
<title>Node1</title>
<g id="a_node1"><a xlink:title="Get raw integral value.">
<polygon fill="#bfbfbf" stroke="black" points="170,-14 170,-44 273,-44 273,-14 170,-14"/>
<text text-anchor="start" x="178" y="-32" font-family="Helvetica,sans-Serif" font-size="10.00">embed::percent::raw</text>
<text text-anchor="middle" x="221.5" y="-21" font-family="Helvetica,sans-Serif" font-size="10.00">_value</text>
</a>
</g>
</g>
<!-- Node2 -->
<g id="node2" class="node">
<title>Node2</title>
<g id="a_node2"><a xlink:href="classembed_1_1percent.html#a706fa1b17fbcb4ccdd8cc6b037b224ee" target="_top" xlink:title="Comparison operator.">
<polygon fill="white" stroke="black" points="0,-38.5 0,-57.5 134,-57.5 134,-38.5 0,-38.5"/>
<text text-anchor="middle" x="67" y="-45.5" font-family="Helvetica,sans-Serif" font-size="10.00">embed::percent::operator==</text>
</a>
</g>
</g>
<!-- Node1&#45;&gt;Node2 -->
<g id="edge1" class="edge">
<title>Node1&#45;&gt;Node2</title>
<path fill="none" stroke="midnightblue" d="M159.61,-36.59C151.2,-37.63 142.52,-38.71 134.02,-39.77"/>
<polygon fill="midnightblue" stroke="midnightblue" points="160.23,-40.04 169.72,-35.33 159.36,-33.09 160.23,-40.04"/>
</g>
<!-- Node3 -->
<g id="node3" class="node">
<title>Node3</title>
<g id="a_node3"><a xlink:href="group__utility.html#ga860cfe310c0207e449c3b382cc49794b" target="_top" xlink:title="convert this percentage value into a string from &#45;1.0 to +1.0">
<polygon fill="white" stroke="black" points="23,-0.5 23,-19.5 111,-19.5 111,-0.5 23,-0.5"/>
<text text-anchor="middle" x="67" y="-7.5" font-family="Helvetica,sans-Serif" font-size="10.00">embed::to_string</text>
</a>
</g>
</g>
<!-- Node1&#45;&gt;Node3 -->
<g id="edge2" class="edge">
<title>Node1&#45;&gt;Node3</title>
<path fill="none" stroke="midnightblue" d="M159.34,-21.38C143.3,-19.38 126.32,-17.27 111.42,-15.41"/>
<polygon fill="midnightblue" stroke="midnightblue" points="159.36,-24.91 169.72,-22.67 160.23,-17.96 159.36,-24.91"/>
</g>
</g>
</svg>
