<?xml version="1.0" encoding="UTF-8" standalone="no"?>
<!DOCTYPE svg PUBLIC "-//W3C//DTD SVG 1.1//EN"
 "http://www.w3.org/Graphics/SVG/1.1/DTD/svg11.dtd">
<!-- Generated by graphviz version 3.0.0 (20220413.0242)
 -->
<!-- Title: hal::percent::percent Pages: 1 -->
<svg width="413pt" height="268pt"
 viewBox="0.00 0.00 413.00 268.00" xmlns="http://www.w3.org/2000/svg" xmlns:xlink="http://www.w3.org/1999/xlink">
<g id="graph0" class="graph" transform="scale(1 1) rotate(0) translate(4 264)">
<title>hal::percent::percent</title>
<polygon fill="white" stroke="transparent" points="-4,4 -4,-264 409,-264 409,4 -4,4"/>
<!-- Node1 -->
<g id="node1" class="node">
<title>Node1</title>
<g id="a_node1"><a xlink:title="Construct 0% percent object.">
<polygon fill="#bfbfbf" stroke="black" points="302,-95.5 302,-114.5 405,-114.5 405,-95.5 302,-95.5"/>
<text text-anchor="middle" x="353.5" y="-102.5" font-family="Helvetica,sans-Serif" font-size="10.00">hal::percent::percent</text>
</a>
</g>
</g>
<!-- Node2 -->
<g id="node2" class="node">
<title>Node2</title>
<g id="a_node2"><a xlink:href="classhal_1_1percent.html#aebec716685a74957920c15d903512ab8" target="_top" xlink:title="Convert a fixed width integer value into a percentage based on its distance to the end of its bit wid...">
<polygon fill="white" stroke="black" points="159,-202.5 159,-221.5 262,-221.5 262,-202.5 159,-202.5"/>
<text text-anchor="middle" x="210.5" y="-209.5" font-family="Helvetica,sans-Serif" font-size="10.00">hal::percent::convert</text>
</a>
</g>
</g>
<!-- Node1&#45;&gt;Node2 -->
<g id="edge1" class="edge">
<title>Node1&#45;&gt;Node2</title>
<path fill="none" stroke="midnightblue" d="M339.22,-122.75C323.66,-142.43 296.13,-173.91 266,-193 260.07,-196.75 253.32,-199.88 246.62,-202.43"/>
<polygon fill="midnightblue" stroke="midnightblue" points="342.16,-124.68 345.5,-114.62 336.62,-120.4 342.16,-124.68"/>
</g>
<!-- Node3 -->
<g id="node3" class="node">
<title>Node3</title>
<g id="a_node3"><a xlink:href="classhal_1_1percent.html#a4fece281bfb4ec0f48f86b14168194ce" target="_top" xlink:title="Generate a percentage based on input relative to the maximum possible value.">
<polygon fill="white" stroke="black" points="165.5,-153 165.5,-183 255.5,-183 255.5,-153 165.5,-153"/>
<text text-anchor="start" x="173.5" y="-171" font-family="Helvetica,sans-Serif" font-size="10.00">hal::percent::from</text>
<text text-anchor="middle" x="210.5" y="-160" font-family="Helvetica,sans-Serif" font-size="10.00">_ratio</text>
</a>
</g>
</g>
<!-- Node1&#45;&gt;Node3 -->
<g id="edge2" class="edge">
<title>Node1&#45;&gt;Node3</title>
<path fill="none" stroke="midnightblue" d="M321.94,-118.65C299.33,-128.76 268.54,-142.51 245.22,-152.93"/>
<polygon fill="midnightblue" stroke="midnightblue" points="323.38,-121.84 331.09,-114.57 320.53,-115.45 323.38,-121.84"/>
</g>
<!-- Node7 -->
<g id="node7" class="node">
<title>Node7</title>
<g id="a_node7"><a xlink:href="classhal_1_1percent.html#a1bf2e7369a19e7795c2e68c643e8d06b" target="_top" xlink:title="Get the percent after it is scaled to a range. The output percent is bound within the given range....">
<polygon fill="white" stroke="black" points="12.5,-114.5 12.5,-133.5 106.5,-133.5 106.5,-114.5 12.5,-114.5"/>
<text text-anchor="middle" x="59.5" y="-121.5" font-family="Helvetica,sans-Serif" font-size="10.00">hal::percent::scale</text>
</a>
</g>
</g>
<!-- Node1&#45;&gt;Node7 -->
<g id="edge16" class="edge">
<title>Node1&#45;&gt;Node7</title>
<path fill="none" stroke="midnightblue" d="M291.98,-108.94C236.86,-112.52 156.64,-117.74 106.57,-121"/>
<polygon fill="midnightblue" stroke="midnightblue" points="292.22,-112.43 301.97,-108.29 291.76,-105.44 292.22,-112.43"/>
</g>
<!-- Node8 -->
<g id="node8" class="node">
<title>Node8</title>
<g id="a_node8"><a xlink:href="classhal_1_1percent.html#af31fb73a5d9b8abf34b2eb111cfeaf26" target="_top" xlink:title=" ">
<polygon fill="white" stroke="black" points="155,-0.5 155,-19.5 266,-19.5 266,-0.5 155,-0.5"/>
<text text-anchor="middle" x="210.5" y="-7.5" font-family="Helvetica,sans-Serif" font-size="10.00">hal::percent::from_raw</text>
</a>
</g>
</g>
<!-- Node1&#45;&gt;Node8 -->
<g id="edge7" class="edge">
<title>Node1&#45;&gt;Node8</title>
<path fill="none" stroke="midnightblue" d="M336.74,-87.7C320.46,-70.73 293.6,-45.1 266,-29 259.68,-25.31 252.54,-22.18 245.55,-19.6"/>
<polygon fill="midnightblue" stroke="midnightblue" points="334.44,-90.37 343.84,-95.26 339.54,-85.58 334.44,-90.37"/>
</g>
<!-- Node9 -->
<g id="node9" class="node">
<title>Node9</title>
<g id="a_node9"><a xlink:href="classhal_1_1percent.html#aa120c82da4e8ccac1a58e4b0ab2de1f9" target="_top" xlink:title="Get +100% percentage.">
<polygon fill="white" stroke="black" points="166,-76.5 166,-95.5 255,-95.5 255,-76.5 166,-76.5"/>
<text text-anchor="middle" x="210.5" y="-83.5" font-family="Helvetica,sans-Serif" font-size="10.00">hal::percent::max</text>
</a>
</g>
</g>
<!-- Node1&#45;&gt;Node9 -->
<g id="edge8" class="edge">
<title>Node1&#45;&gt;Node9</title>
<path fill="none" stroke="midnightblue" d="M291.77,-96.82C279.45,-95.16 266.71,-93.44 255.12,-91.88"/>
<polygon fill="midnightblue" stroke="midnightblue" points="291.62,-100.33 301.99,-98.19 292.55,-93.39 291.62,-100.33"/>
</g>
<!-- Node12 -->
<g id="node12" class="node">
<title>Node12</title>
<g id="a_node12"><a xlink:href="classhal_1_1percent.html#ae6a1e30546203a5f9d8879dff495d252" target="_top" xlink:title="Get &#45;100% percentage.">
<polygon fill="white" stroke="black" points="167.5,-38.5 167.5,-57.5 253.5,-57.5 253.5,-38.5 167.5,-38.5"/>
<text text-anchor="middle" x="210.5" y="-45.5" font-family="Helvetica,sans-Serif" font-size="10.00">hal::percent::min</text>
</a>
</g>
</g>
<!-- Node1&#45;&gt;Node12 -->
<g id="edge12" class="edge">
<title>Node1&#45;&gt;Node12</title>
<path fill="none" stroke="midnightblue" d="M322.87,-91.3C306.28,-83.8 285.14,-74.53 266,-67 257.7,-63.74 248.58,-60.45 240.22,-57.54"/>
<polygon fill="midnightblue" stroke="midnightblue" points="321.52,-94.52 332.07,-95.48 324.42,-88.15 321.52,-94.52"/>
</g>
<!-- Node4 -->
<g id="node4" class="node">
<title>Node4</title>
<g id="a_node4"><a xlink:href="classhal_1_1rc__servo.html#a92fdc2e2edc65f3a37a6c72e3e9c6918" target="_top" xlink:title="Factory function to create a rc_servo object.">
<polygon fill="white" stroke="black" points="8,-240.5 8,-259.5 111,-259.5 111,-240.5 8,-240.5"/>
<text text-anchor="middle" x="59.5" y="-247.5" font-family="Helvetica,sans-Serif" font-size="10.00">hal::rc_servo::create</text>
</a>
</g>
</g>
<!-- Node3&#45;&gt;Node4 -->
<g id="edge3" class="edge">
<title>Node3&#45;&gt;Node4</title>
<path fill="none" stroke="midnightblue" d="M162.75,-187.96C160.06,-189.56 157.46,-191.24 155,-193 136.08,-206.54 138.67,-218.58 119,-231 112.95,-234.82 106.06,-237.94 99.18,-240.47"/>
<polygon fill="midnightblue" stroke="midnightblue" points="164.44,-191.02 171.51,-183.13 161.06,-184.89 164.44,-191.02"/>
</g>
<!-- Node5 -->
<g id="node5" class="node">
<title>Node5</title>
<g id="a_node5"><a xlink:href="group__utility.html#ga77d31febabe2a57097ff3777f8d0fa9e" target="_top" xlink:title="Map an target value [x] from an input range [a,b] to an output range [c,d].">
<polygon fill="white" stroke="black" points="33,-202.5 33,-221.5 86,-221.5 86,-202.5 33,-202.5"/>
<text text-anchor="middle" x="59.5" y="-209.5" font-family="Helvetica,sans-Serif" font-size="10.00">hal::map</text>
</a>
</g>
</g>
<!-- Node3&#45;&gt;Node5 -->
<g id="edge4" class="edge">
<title>Node3&#45;&gt;Node5</title>
<path fill="none" stroke="midnightblue" d="M155.31,-184C131.74,-190.96 105.23,-198.79 86.25,-204.4"/>
<polygon fill="midnightblue" stroke="midnightblue" points="156.6,-187.27 165.2,-181.08 154.62,-180.56 156.6,-187.27"/>
</g>
<!-- Node6 -->
<g id="node6" class="node">
<title>Node6</title>
<g id="a_node6"><a xlink:href="structhal_1_1duty__cycle.html#a5f5bad1e9e0cd329eeecd5c0db0e0a32" target="_top" xlink:title="Conversion from duty cycle to percentage.">
<polygon fill="white" stroke="black" points="0,-153 0,-183 119,-183 119,-153 0,-153"/>
<text text-anchor="start" x="8" y="-171" font-family="Helvetica,sans-Serif" font-size="10.00">hal::duty_cycle::operator</text>
<text text-anchor="middle" x="59.5" y="-160" font-family="Helvetica,sans-Serif" font-size="10.00"> percent</text>
</a>
</g>
</g>
<!-- Node3&#45;&gt;Node6 -->
<g id="edge5" class="edge">
<title>Node3&#45;&gt;Node6</title>
<path fill="none" stroke="midnightblue" d="M155.16,-168C143.48,-168 131.09,-168 119.26,-168"/>
<polygon fill="midnightblue" stroke="midnightblue" points="155.2,-171.5 165.2,-168 155.2,-164.5 155.2,-171.5"/>
</g>
<!-- Node3&#45;&gt;Node7 -->
<g id="edge6" class="edge">
<title>Node3&#45;&gt;Node7</title>
<path fill="none" stroke="midnightblue" d="M155.46,-152.04C134.55,-145.87 111.3,-139 93.04,-133.61"/>
<polygon fill="midnightblue" stroke="midnightblue" points="154.62,-155.44 165.2,-154.92 156.6,-148.73 154.62,-155.44"/>
</g>
<!-- Node9&#45;&gt;Node7 -->
<g id="edge10" class="edge">
<title>Node9&#45;&gt;Node7</title>
<path fill="none" stroke="midnightblue" d="M162.01,-98.11C141.26,-103.4 117.27,-109.52 97.83,-114.48"/>
<polygon fill="midnightblue" stroke="midnightblue" points="163.08,-101.45 171.9,-95.59 161.35,-94.67 163.08,-101.45"/>
</g>
<!-- Node10 -->
<g id="node10" class="node">
<title>Node10</title>
<g id="a_node10"><a xlink:href="classhal_1_1percent.html#ad5ed3b476e65e3b5aec2408f76865500" target="_top" xlink:title="Assignment operator for a percent object based on a floating point value.">
<polygon fill="white" stroke="black" points="3.5,-76.5 3.5,-95.5 115.5,-95.5 115.5,-76.5 3.5,-76.5"/>
<text text-anchor="middle" x="59.5" y="-83.5" font-family="Helvetica,sans-Serif" font-size="10.00">hal::percent::operator=</text>
</a>
</g>
</g>
<!-- Node9&#45;&gt;Node10 -->
<g id="edge9" class="edge">
<title>Node9&#45;&gt;Node10</title>
<path fill="none" stroke="midnightblue" d="M155.46,-86C142.53,-86 128.71,-86 115.73,-86"/>
<polygon fill="midnightblue" stroke="midnightblue" points="155.6,-89.5 165.6,-86 155.6,-82.5 155.6,-89.5"/>
</g>
<!-- Node11 -->
<g id="node11" class="node">
<title>Node11</title>
<g id="a_node11"><a xlink:href="group__utility.html#gaeb9131fb2e9aa8b5b404c1d52197cea2" target="_top" xlink:title="convert this percentage value into a string from &#45;1.0 to +1.0">
<polygon fill="white" stroke="black" points="24,-38.5 24,-57.5 95,-57.5 95,-38.5 24,-38.5"/>
<text text-anchor="middle" x="59.5" y="-45.5" font-family="Helvetica,sans-Serif" font-size="10.00">hal::to_string</text>
</a>
</g>
</g>
<!-- Node9&#45;&gt;Node11 -->
<g id="edge11" class="edge">
<title>Node9&#45;&gt;Node11</title>
<path fill="none" stroke="midnightblue" d="M162.17,-73.93C140.37,-68.37 114.98,-61.89 95.02,-56.8"/>
<polygon fill="midnightblue" stroke="midnightblue" points="161.35,-77.33 171.9,-76.41 163.08,-70.55 161.35,-77.33"/>
</g>
<!-- Node12&#45;&gt;Node7 -->
<g id="edge14" class="edge">
<title>Node12&#45;&gt;Node7</title>
<path fill="none" stroke="midnightblue" d="M164.83,-61.55C161.4,-63.19 158.08,-65.01 155,-67 135.46,-79.63 138.67,-92.58 119,-105 112.95,-108.82 106.06,-111.94 99.18,-114.47"/>
<polygon fill="midnightblue" stroke="midnightblue" points="166.23,-64.76 174.04,-57.59 163.47,-58.32 166.23,-64.76"/>
</g>
<!-- Node12&#45;&gt;Node10 -->
<g id="edge13" class="edge">
<title>Node12&#45;&gt;Node10</title>
<path fill="none" stroke="midnightblue" d="M162.01,-60.11C141.26,-65.4 117.27,-71.52 97.83,-76.48"/>
<polygon fill="midnightblue" stroke="midnightblue" points="163.08,-63.45 171.9,-57.59 161.35,-56.67 163.08,-63.45"/>
</g>
<!-- Node12&#45;&gt;Node11 -->
<g id="edge15" class="edge">
<title>Node12&#45;&gt;Node11</title>
<path fill="none" stroke="midnightblue" d="M157.08,-48C136.62,-48 113.73,-48 95.36,-48"/>
<polygon fill="midnightblue" stroke="midnightblue" points="157.2,-51.5 167.2,-48 157.2,-44.5 157.2,-51.5"/>
</g>
</g>
</svg>
