<?xml version="1.0" encoding="UTF-8" standalone="no"?>
<!DOCTYPE svg PUBLIC "-//W3C//DTD SVG 1.1//EN"
 "http://www.w3.org/Graphics/SVG/1.1/DTD/svg11.dtd">
<!-- Generated by graphviz version 3.0.0 (20220413.0242)
 -->
<!-- Title: hal::can_network::register_message_id Pages: 1 -->
<svg width="247pt" height="52pt"
 viewBox="0.00 0.00 247.00 51.50" xmlns="http://www.w3.org/2000/svg" xmlns:xlink="http://www.w3.org/1999/xlink">
<g id="graph0" class="graph" transform="scale(1 1) rotate(0) translate(4 47.5)">
<title>hal::can_network::register_message_id</title>
<polygon fill="white" stroke="transparent" points="-4,4 -4,-47.5 243,-47.5 243,4 -4,4"/>
<!-- Node1 -->
<g id="node1" class="node">
<title>Node1</title>
<g id="a_node1"><a xlink:title="Associate a can id with a node in the can network.">
<polygon fill="#bfbfbf" stroke="black" points="0,-0.5 0,-30.5 126,-30.5 126,-0.5 0,-0.5"/>
<text text-anchor="start" x="8" y="-18.5" font-family="Helvetica,sans-Serif" font-size="10.00">hal::can_network::register</text>
<text text-anchor="middle" x="63" y="-7.5" font-family="Helvetica,sans-Serif" font-size="10.00">_message_id</text>
</a>
</g>
</g>
<!-- Node2 -->
<g id="node2" class="node">
<title>Node2</title>
<g id="a_node2"><a xlink:href="namespacehal.html#a09499a696428213091b196699563099f" target="_top" xlink:title=" ">
<polygon fill="white" stroke="black" points="162,-6 162,-25 239,-25 239,-6 162,-6"/>
<text text-anchor="middle" x="200.5" y="-13" font-family="Helvetica,sans-Serif" font-size="10.00">hal::new_error</text>
</a>
</g>
</g>
<!-- Node1&#45;&gt;Node2 -->
<g id="edge1" class="edge">
<title>Node1&#45;&gt;Node2</title>
<path fill="none" stroke="midnightblue" d="M126.2,-15.5C134.71,-15.5 143.34,-15.5 151.54,-15.5"/>
<polygon fill="midnightblue" stroke="midnightblue" points="151.67,-19 161.67,-15.5 151.67,-12 151.67,-19"/>
</g>
<!-- Node2&#45;&gt;Node2 -->
<g id="edge2" class="edge">
<title>Node2&#45;&gt;Node2</title>
<path fill="none" stroke="midnightblue" d="M179.54,-25.26C169.34,-34.07 176.33,-43.5 200.5,-43.5 215.99,-43.5 224.42,-39.63 225.8,-34.53"/>
<polygon fill="midnightblue" stroke="midnightblue" points="228.87,-32.83 221.46,-25.26 222.53,-35.8 228.87,-32.83"/>
</g>
</g>
</svg>
