<?xml version="1.0" encoding="UTF-8" standalone="no"?>
<!DOCTYPE svg PUBLIC "-//W3C//DTD SVG 1.1//EN"
 "http://www.w3.org/Graphics/SVG/1.1/DTD/svg11.dtd">
<!-- Generated by graphviz version 3.0.0 (20220413.0242)
 -->
<!-- Title: embed::percent::scale Pages: 1 -->
<svg width="575pt" height="230pt"
 viewBox="0.00 0.00 575.00 229.79" xmlns="http://www.w3.org/2000/svg" xmlns:xlink="http://www.w3.org/1999/xlink">
<g id="graph0" class="graph" transform="scale(1 1) rotate(0) translate(4 225.79)">
<title>embed::percent::scale</title>
<polygon fill="white" stroke="transparent" points="-4,4 -4,-225.79 571,-225.79 571,4 -4,4"/>
<!-- Node1 -->
<g id="node1" class="node">
<title>Node1</title>
<g id="a_node1"><a xlink:title="Get the percent after it is scaled to a range. The output percent is bound within the given range....">
<polygon fill="#bfbfbf" stroke="black" points="0,-104.5 0,-123.5 110,-123.5 110,-104.5 0,-104.5"/>
<text text-anchor="middle" x="55" y="-111.5" font-family="Helvetica,sans-Serif" font-size="10.00">embed::percent::scale</text>
</a>
</g>
</g>
<!-- Node2 -->
<g id="node2" class="node">
<title>Node2</title>
<g id="a_node2"><a xlink:href="classembed_1_1percent.html#a3031fcd41ebdbc14fe77114d239c0b27" target="_top" xlink:title="Generate a percentage based on input relative to the maximum possible value.">
<polygon fill="white" stroke="black" points="146,-55 146,-85 253,-85 253,-55 146,-55"/>
<text text-anchor="start" x="154" y="-73" font-family="Helvetica,sans-Serif" font-size="10.00">embed::percent::from</text>
<text text-anchor="middle" x="199.5" y="-62" font-family="Helvetica,sans-Serif" font-size="10.00">_ratio</text>
</a>
</g>
</g>
<!-- Node1&#45;&gt;Node2 -->
<g id="edge1" class="edge">
<title>Node1&#45;&gt;Node2</title>
<path fill="none" stroke="midnightblue" d="M86.92,-104.45C102.46,-99.65 121.82,-93.68 140.03,-88.05"/>
<polygon fill="midnightblue" stroke="midnightblue" points="141.19,-91.36 149.71,-85.07 139.12,-84.67 141.19,-91.36"/>
</g>
<!-- Node3 -->
<g id="node3" class="node">
<title>Node3</title>
<g id="a_node3"><a xlink:href="classembed_1_1percent.html#a3635a4d8e47f6a65226ee6391509f3a1" target="_top" xlink:title="Construct 0% percent object.">
<polygon fill="white" stroke="black" points="292.5,-180.5 292.5,-199.5 411.5,-199.5 411.5,-180.5 292.5,-180.5"/>
<text text-anchor="middle" x="352" y="-187.5" font-family="Helvetica,sans-Serif" font-size="10.00">embed::percent::percent</text>
</a>
</g>
</g>
<!-- Node1&#45;&gt;Node3 -->
<g id="edge13" class="edge">
<title>Node1&#45;&gt;Node3</title>
<path fill="none" stroke="midnightblue" d="M61.4,-123.68C73.44,-144.12 104.68,-191.23 146,-209 202.24,-233.19 274.98,-216.51 316.98,-202.82"/>
<polygon fill="midnightblue" stroke="midnightblue" points="318.11,-206.13 326.46,-199.6 315.86,-199.5 318.11,-206.13"/>
</g>
<!-- Node4 -->
<g id="node4" class="node">
<title>Node4</title>
<g id="a_node4"><a xlink:href="classembed_1_1percent.html#a18867853ebb7f7101932f298ef9ac059" target="_top" xlink:title="Get the 100% value in its raw representation.">
<polygon fill="white" stroke="black" points="289,-142.5 289,-161.5 415,-161.5 415,-142.5 289,-142.5"/>
<text text-anchor="middle" x="352" y="-149.5" font-family="Helvetica,sans-Serif" font-size="10.00">embed::percent::raw_max</text>
</a>
</g>
</g>
<!-- Node1&#45;&gt;Node4 -->
<g id="edge14" class="edge">
<title>Node1&#45;&gt;Node4</title>
<path fill="none" stroke="midnightblue" d="M96.14,-123.51C111.65,-126.91 129.58,-130.51 146,-133 189.89,-139.64 239.44,-144.31 278.83,-147.36"/>
<polygon fill="midnightblue" stroke="midnightblue" points="278.64,-150.86 288.88,-148.12 279.17,-143.88 278.64,-150.86"/>
</g>
<!-- Node5 -->
<g id="node5" class="node">
<title>Node5</title>
<g id="a_node5"><a xlink:href="classembed_1_1percent.html#addd3062c4b442314f9b135b532367c44" target="_top" xlink:title="Get the &#45;100% value in its raw representation.">
<polygon fill="white" stroke="black" points="290,-60.5 290,-79.5 414,-79.5 414,-60.5 290,-60.5"/>
<text text-anchor="middle" x="352" y="-67.5" font-family="Helvetica,sans-Serif" font-size="10.00">embed::percent::raw_min</text>
</a>
</g>
</g>
<!-- Node1&#45;&gt;Node5 -->
<g id="edge15" class="edge">
<title>Node1&#45;&gt;Node5</title>
<path fill="none" stroke="midnightblue" d="M64.52,-104.38C79.26,-88.56 111.28,-57.64 146,-46 203.75,-26.64 275.19,-43.57 316.68,-57.13"/>
<polygon fill="midnightblue" stroke="midnightblue" points="315.71,-60.5 326.31,-60.4 317.96,-53.87 315.71,-60.5"/>
</g>
<!-- Node6 -->
<g id="node6" class="node">
<title>Node6</title>
<g id="a_node6"><a xlink:href="group__utility.html#ga84ea33bb969785c47247cfe0da9aa98e" target="_top" xlink:title="Perform integer division and round the value up if the next decimal place is greater than or equal to...">
<polygon fill="white" stroke="black" points="289.5,-0.5 289.5,-19.5 414.5,-19.5 414.5,-0.5 289.5,-0.5"/>
<text text-anchor="middle" x="352" y="-7.5" font-family="Helvetica,sans-Serif" font-size="10.00">embed::rounding_division</text>
</a>
</g>
</g>
<!-- Node1&#45;&gt;Node6 -->
<g id="edge16" class="edge">
<title>Node1&#45;&gt;Node6</title>
<path fill="none" stroke="midnightblue" d="M63.16,-104.45C76.97,-86.83 109.18,-49.54 146,-33 187.56,-14.33 238.44,-8.53 279.11,-7.43"/>
<polygon fill="midnightblue" stroke="midnightblue" points="279.29,-10.93 289.22,-7.24 279.16,-3.93 279.29,-10.93"/>
</g>
<!-- Node8 -->
<g id="node8" class="node">
<title>Node8</title>
<g id="a_node8"><a xlink:href="classembed_1_1percent.html#a0f9fc596e3daa1948d0112b98544ef4f" target="_top" xlink:title="Get +100% percentage.">
<polygon fill="white" stroke="black" points="147,-180.5 147,-199.5 252,-199.5 252,-180.5 147,-180.5"/>
<text text-anchor="middle" x="199.5" y="-187.5" font-family="Helvetica,sans-Serif" font-size="10.00">embed::percent::max</text>
</a>
</g>
</g>
<!-- Node1&#45;&gt;Node8 -->
<g id="edge7" class="edge">
<title>Node1&#45;&gt;Node8</title>
<path fill="none" stroke="midnightblue" d="M71.68,-123.67C89.44,-134.48 119.38,-152.26 146,-166 152.74,-169.48 160.07,-172.99 167.07,-176.22"/>
<polygon fill="midnightblue" stroke="midnightblue" points="165.76,-179.47 176.31,-180.42 168.65,-173.1 165.76,-179.47"/>
</g>
<!-- Node9 -->
<g id="node9" class="node">
<title>Node9</title>
<g id="a_node9"><a xlink:href="classembed_1_1percent.html#a82d4dc647320164d22dc480723c9671b" target="_top" xlink:title="Get &#45;100% percentage.">
<polygon fill="white" stroke="black" points="148,-104.5 148,-123.5 251,-123.5 251,-104.5 148,-104.5"/>
<text text-anchor="middle" x="199.5" y="-111.5" font-family="Helvetica,sans-Serif" font-size="10.00">embed::percent::min</text>
</a>
</g>
</g>
<!-- Node1&#45;&gt;Node9 -->
<g id="edge10" class="edge">
<title>Node1&#45;&gt;Node9</title>
<path fill="none" stroke="midnightblue" d="M110.28,-114C119.19,-114 128.49,-114 137.55,-114"/>
<polygon fill="midnightblue" stroke="midnightblue" points="137.65,-117.5 147.65,-114 137.65,-110.5 137.65,-117.5"/>
</g>
<!-- Node2&#45;&gt;Node3 -->
<g id="edge2" class="edge">
<title>Node2&#45;&gt;Node3</title>
<path fill="none" stroke="midnightblue" d="M240.05,-85.08C244.76,-87.92 249.22,-91.21 253,-95 279.4,-121.46 260.73,-146.56 289,-171 290.97,-172.71 293.1,-174.26 295.33,-175.68"/>
<polygon fill="midnightblue" stroke="midnightblue" points="293.91,-178.88 304.39,-180.47 297.19,-172.7 293.91,-178.88"/>
</g>
<!-- Node2&#45;&gt;Node4 -->
<g id="edge3" class="edge">
<title>Node2&#45;&gt;Node4</title>
<path fill="none" stroke="midnightblue" d="M233.19,-85.06C239.8,-88.24 246.66,-91.65 253,-95 278.55,-108.48 307.01,-125.24 326.65,-137.09"/>
<polygon fill="midnightblue" stroke="midnightblue" points="324.9,-140.12 335.27,-142.31 328.53,-134.13 324.9,-140.12"/>
</g>
<!-- Node2&#45;&gt;Node5 -->
<g id="edge4" class="edge">
<title>Node2&#45;&gt;Node5</title>
<path fill="none" stroke="midnightblue" d="M253.14,-70C261.76,-70 270.82,-70 279.8,-70"/>
<polygon fill="midnightblue" stroke="midnightblue" points="279.88,-73.5 289.88,-70 279.88,-66.5 279.88,-73.5"/>
</g>
<!-- Node2&#45;&gt;Node6 -->
<g id="edge5" class="edge">
<title>Node2&#45;&gt;Node6</title>
<path fill="none" stroke="midnightblue" d="M238.48,-54.86C262.86,-45.14 294.23,-32.63 317.65,-23.3"/>
<polygon fill="midnightblue" stroke="midnightblue" points="319.16,-26.46 327.15,-19.51 316.57,-19.96 319.16,-26.46"/>
</g>
<!-- Node7 -->
<g id="node7" class="node">
<title>Node7</title>
<g id="a_node7"><a xlink:href="group__utility.html#ga6f0922a28ac81378eb689b2ab4bc299a" target="_top" xlink:title="Generic absolute value function that works for integer types.">
<polygon fill="white" stroke="black" points="451,-0.5 451,-19.5 567,-19.5 567,-0.5 451,-0.5"/>
<text text-anchor="middle" x="509" y="-7.5" font-family="Helvetica,sans-Serif" font-size="10.00">embed::absolute_value</text>
</a>
</g>
</g>
<!-- Node6&#45;&gt;Node7 -->
<g id="edge6" class="edge">
<title>Node6&#45;&gt;Node7</title>
<path fill="none" stroke="midnightblue" d="M414.71,-10C423.26,-10 432.09,-10 440.74,-10"/>
<polygon fill="midnightblue" stroke="midnightblue" points="440.79,-13.5 450.79,-10 440.79,-6.5 440.79,-13.5"/>
</g>
<!-- Node8&#45;&gt;Node3 -->
<g id="edge8" class="edge">
<title>Node8&#45;&gt;Node3</title>
<path fill="none" stroke="midnightblue" d="M252.29,-190C261.99,-190 272.26,-190 282.37,-190"/>
<polygon fill="midnightblue" stroke="midnightblue" points="282.4,-193.5 292.4,-190 282.4,-186.5 282.4,-193.5"/>
</g>
<!-- Node8&#45;&gt;Node4 -->
<g id="edge9" class="edge">
<title>Node8&#45;&gt;Node4</title>
<path fill="none" stroke="midnightblue" d="M238.48,-180.41C258.16,-175.44 282.39,-169.32 303.32,-164.04"/>
<polygon fill="midnightblue" stroke="midnightblue" points="304.46,-167.36 313.3,-161.52 302.74,-160.57 304.46,-167.36"/>
</g>
<!-- Node9&#45;&gt;Node3 -->
<g id="edge11" class="edge">
<title>Node9&#45;&gt;Node3</title>
<path fill="none" stroke="midnightblue" d="M213.05,-123.68C229.64,-136.09 260.16,-157.61 289,-171 293.91,-173.28 299.17,-175.38 304.47,-177.28"/>
<polygon fill="midnightblue" stroke="midnightblue" points="303.39,-180.61 313.98,-180.48 305.62,-173.97 303.39,-180.61"/>
</g>
<!-- Node9&#45;&gt;Node5 -->
<g id="edge12" class="edge">
<title>Node9&#45;&gt;Node5</title>
<path fill="none" stroke="midnightblue" d="M233.16,-104.45C255.24,-97.99 284.63,-89.4 308.54,-82.41"/>
<polygon fill="midnightblue" stroke="midnightblue" points="309.79,-85.69 318.41,-79.53 307.83,-78.98 309.79,-85.69"/>
</g>
</g>
</svg>
