<?xml version="1.0" encoding="UTF-8" standalone="no"?>
<!DOCTYPE svg PUBLIC "-//W3C//DTD SVG 1.1//EN"
 "http://www.w3.org/Graphics/SVG/1.1/DTD/svg11.dtd">
<!-- Generated by graphviz version 3.0.0 (20220413.0242)
 -->
<!-- Title: hal::percent::scale Pages: 1 -->
<svg width="509pt" height="229pt"
 viewBox="0.00 0.00 509.00 228.62" xmlns="http://www.w3.org/2000/svg" xmlns:xlink="http://www.w3.org/1999/xlink">
<g id="graph0" class="graph" transform="scale(1 1) rotate(0) translate(4 224.62)">
<title>hal::percent::scale</title>
<polygon fill="white" stroke="transparent" points="-4,4 -4,-224.62 505,-224.62 505,4 -4,4"/>
<!-- Node1 -->
<g id="node1" class="node">
<title>Node1</title>
<g id="a_node1"><a xlink:title="Get the percent after it is scaled to a range. The output percent is bound within the given range....">
<polygon fill="#bfbfbf" stroke="black" points="0,-104.5 0,-123.5 94,-123.5 94,-104.5 0,-104.5"/>
<text text-anchor="middle" x="47" y="-111.5" font-family="Helvetica,sans-Serif" font-size="10.00">hal::percent::scale</text>
</a>
</g>
</g>
<!-- Node2 -->
<g id="node2" class="node">
<title>Node2</title>
<g id="a_node2"><a xlink:href="classhal_1_1percent.html#a4fece281bfb4ec0f48f86b14168194ce" target="_top" xlink:title="Generate a percentage based on input relative to the maximum possible value.">
<polygon fill="white" stroke="black" points="130,-55 130,-85 220,-85 220,-55 130,-55"/>
<text text-anchor="start" x="138" y="-73" font-family="Helvetica,sans-Serif" font-size="10.00">hal::percent::from</text>
<text text-anchor="middle" x="175" y="-62" font-family="Helvetica,sans-Serif" font-size="10.00">_ratio</text>
</a>
</g>
</g>
<!-- Node1&#45;&gt;Node2 -->
<g id="edge1" class="edge">
<title>Node1&#45;&gt;Node2</title>
<path fill="none" stroke="midnightblue" d="M75.34,-104.45C88.77,-99.76 105.41,-93.95 121.19,-88.44"/>
<polygon fill="midnightblue" stroke="midnightblue" points="122.57,-91.67 130.86,-85.07 120.26,-85.06 122.57,-91.67"/>
</g>
<!-- Node3 -->
<g id="node3" class="node">
<title>Node3</title>
<g id="a_node3"><a xlink:href="classhal_1_1percent.html#ac47af31e37f0680bdefe136ee619ef9d" target="_top" xlink:title="Construct 0% percent object.">
<polygon fill="white" stroke="black" points="259.5,-180.5 259.5,-199.5 362.5,-199.5 362.5,-180.5 259.5,-180.5"/>
<text text-anchor="middle" x="311" y="-187.5" font-family="Helvetica,sans-Serif" font-size="10.00">hal::percent::percent</text>
</a>
</g>
</g>
<!-- Node1&#45;&gt;Node3 -->
<g id="edge13" class="edge">
<title>Node1&#45;&gt;Node3</title>
<path fill="none" stroke="midnightblue" d="M52.68,-123.65C63.17,-144.03 90.78,-191.04 130,-209 177.79,-230.88 239.98,-216.06 277.34,-203.15"/>
<polygon fill="midnightblue" stroke="midnightblue" points="278.98,-206.28 287.19,-199.59 276.6,-199.7 278.98,-206.28"/>
</g>
<!-- Node4 -->
<g id="node4" class="node">
<title>Node4</title>
<g id="a_node4"><a xlink:href="classhal_1_1percent.html#a3ba7db7f6ed4a72c9b5014f4b193fed0" target="_top" xlink:title="Get the 100% value in its raw representation.">
<polygon fill="white" stroke="black" points="256,-142.5 256,-161.5 366,-161.5 366,-142.5 256,-142.5"/>
<text text-anchor="middle" x="311" y="-149.5" font-family="Helvetica,sans-Serif" font-size="10.00">hal::percent::raw_max</text>
</a>
</g>
</g>
<!-- Node1&#45;&gt;Node4 -->
<g id="edge14" class="edge">
<title>Node1&#45;&gt;Node4</title>
<path fill="none" stroke="midnightblue" d="M84.95,-123.58C98.98,-126.94 115.16,-130.51 130,-133 168.05,-139.39 211.02,-144.02 245.42,-147.11"/>
<polygon fill="midnightblue" stroke="midnightblue" points="245.54,-150.64 255.81,-148.02 246.16,-143.66 245.54,-150.64"/>
</g>
<!-- Node5 -->
<g id="node5" class="node">
<title>Node5</title>
<g id="a_node5"><a xlink:href="classhal_1_1percent.html#a36a2265034230d77794566fe966df7e1" target="_top" xlink:title="Get the &#45;100% value in its raw representation.">
<polygon fill="white" stroke="black" points="257.5,-60.5 257.5,-79.5 364.5,-79.5 364.5,-60.5 257.5,-60.5"/>
<text text-anchor="middle" x="311" y="-67.5" font-family="Helvetica,sans-Serif" font-size="10.00">hal::percent::raw_min</text>
</a>
</g>
</g>
<!-- Node1&#45;&gt;Node5 -->
<g id="edge15" class="edge">
<title>Node1&#45;&gt;Node5</title>
<path fill="none" stroke="midnightblue" d="M55.57,-104.4C68.71,-88.61 97.47,-57.73 130,-46 179.61,-28.11 241.24,-43.84 278,-56.9"/>
<polygon fill="midnightblue" stroke="midnightblue" points="277.08,-60.29 287.68,-60.48 279.51,-53.73 277.08,-60.29"/>
</g>
<!-- Node6 -->
<g id="node6" class="node">
<title>Node6</title>
<g id="a_node6"><a xlink:href="group__utility.html#ga58a3550a3236310f20b92eacf593c2f0" target="_top" xlink:title="Perform integer division and round the value up if the next decimal place is greater than or equal to...">
<polygon fill="white" stroke="black" points="256.5,-0.5 256.5,-19.5 365.5,-19.5 365.5,-0.5 256.5,-0.5"/>
<text text-anchor="middle" x="311" y="-7.5" font-family="Helvetica,sans-Serif" font-size="10.00">hal::rounding_division</text>
</a>
</g>
</g>
<!-- Node1&#45;&gt;Node6 -->
<g id="edge16" class="edge">
<title>Node1&#45;&gt;Node6</title>
<path fill="none" stroke="midnightblue" d="M54.34,-104.5C66.6,-86.97 95.46,-49.82 130,-33 165.83,-15.55 210.21,-9.73 245.93,-8.31"/>
<polygon fill="midnightblue" stroke="midnightblue" points="246.35,-11.8 256.24,-8.01 246.15,-4.8 246.35,-11.8"/>
</g>
<!-- Node8 -->
<g id="node8" class="node">
<title>Node8</title>
<g id="a_node8"><a xlink:href="classhal_1_1percent.html#aa120c82da4e8ccac1a58e4b0ab2de1f9" target="_top" xlink:title="Get +100% percentage.">
<polygon fill="white" stroke="black" points="130.5,-180.5 130.5,-199.5 219.5,-199.5 219.5,-180.5 130.5,-180.5"/>
<text text-anchor="middle" x="175" y="-187.5" font-family="Helvetica,sans-Serif" font-size="10.00">hal::percent::max</text>
</a>
</g>
</g>
<!-- Node1&#45;&gt;Node8 -->
<g id="edge7" class="edge">
<title>Node1&#45;&gt;Node8</title>
<path fill="none" stroke="midnightblue" d="M62.63,-123.69C78.9,-134.36 106.03,-151.88 130,-166 135.38,-169.17 141.2,-172.45 146.79,-175.52"/>
<polygon fill="midnightblue" stroke="midnightblue" points="145.41,-178.76 155.87,-180.46 148.75,-172.61 145.41,-178.76"/>
</g>
<!-- Node9 -->
<g id="node9" class="node">
<title>Node9</title>
<g id="a_node9"><a xlink:href="classhal_1_1percent.html#ae6a1e30546203a5f9d8879dff495d252" target="_top" xlink:title="Get &#45;100% percentage.">
<polygon fill="white" stroke="black" points="132,-104.5 132,-123.5 218,-123.5 218,-104.5 132,-104.5"/>
<text text-anchor="middle" x="175" y="-111.5" font-family="Helvetica,sans-Serif" font-size="10.00">hal::percent::min</text>
</a>
</g>
</g>
<!-- Node1&#45;&gt;Node9 -->
<g id="edge10" class="edge">
<title>Node1&#45;&gt;Node9</title>
<path fill="none" stroke="midnightblue" d="M94.2,-114C103.18,-114 112.66,-114 121.81,-114"/>
<polygon fill="midnightblue" stroke="midnightblue" points="121.98,-117.5 131.98,-114 121.98,-110.5 121.98,-117.5"/>
</g>
<!-- Node2&#45;&gt;Node3 -->
<g id="edge2" class="edge">
<title>Node2&#45;&gt;Node3</title>
<path fill="none" stroke="midnightblue" d="M208.03,-85.03C212.38,-87.94 216.53,-91.27 220,-95 245.43,-122.39 228.23,-145.98 256,-171 257.74,-172.57 259.62,-174.01 261.59,-175.33"/>
<polygon fill="midnightblue" stroke="midnightblue" points="260.3,-178.62 270.74,-180.41 263.7,-172.5 260.3,-178.62"/>
</g>
<!-- Node2&#45;&gt;Node4 -->
<g id="edge3" class="edge">
<title>Node2&#45;&gt;Node4</title>
<path fill="none" stroke="midnightblue" d="M203.11,-85.13C208.72,-88.34 214.58,-91.74 220,-95 242.82,-108.7 268.43,-125.01 286.47,-136.67"/>
<polygon fill="midnightblue" stroke="midnightblue" points="284.87,-139.8 295.17,-142.3 288.68,-133.92 284.87,-139.8"/>
</g>
<!-- Node2&#45;&gt;Node5 -->
<g id="edge4" class="edge">
<title>Node2&#45;&gt;Node5</title>
<path fill="none" stroke="midnightblue" d="M220.25,-70C228.89,-70 238.1,-70 247.21,-70"/>
<polygon fill="midnightblue" stroke="midnightblue" points="247.42,-73.5 257.42,-70 247.42,-66.5 247.42,-73.5"/>
</g>
<!-- Node2&#45;&gt;Node6 -->
<g id="edge5" class="edge">
<title>Node2&#45;&gt;Node6</title>
<path fill="none" stroke="midnightblue" d="M209.81,-54.86C231.23,-45.27 258.7,-32.97 279.46,-23.67"/>
<polygon fill="midnightblue" stroke="midnightblue" points="281.07,-26.79 288.77,-19.51 278.21,-20.4 281.07,-26.79"/>
</g>
<!-- Node7 -->
<g id="node7" class="node">
<title>Node7</title>
<g id="a_node7"><a xlink:href="group__utility.html#gaac86abb9a38f4962ded5507e15dca4b9" target="_top" xlink:title="Generic absolute value function that works for integer types.">
<polygon fill="white" stroke="black" points="402,-0.5 402,-19.5 501,-19.5 501,-0.5 402,-0.5"/>
<text text-anchor="middle" x="451.5" y="-7.5" font-family="Helvetica,sans-Serif" font-size="10.00">hal::absolute_value</text>
</a>
</g>
</g>
<!-- Node6&#45;&gt;Node7 -->
<g id="edge6" class="edge">
<title>Node6&#45;&gt;Node7</title>
<path fill="none" stroke="midnightblue" d="M365.55,-10C374.08,-10 382.95,-10 391.6,-10"/>
<polygon fill="midnightblue" stroke="midnightblue" points="391.62,-13.5 401.62,-10 391.62,-6.5 391.62,-13.5"/>
</g>
<!-- Node8&#45;&gt;Node3 -->
<g id="edge8" class="edge">
<title>Node8&#45;&gt;Node3</title>
<path fill="none" stroke="midnightblue" d="M219.51,-190C228.92,-190 239.05,-190 248.99,-190"/>
<polygon fill="midnightblue" stroke="midnightblue" points="249.26,-193.5 259.26,-190 249.26,-186.5 249.26,-193.5"/>
</g>
<!-- Node8&#45;&gt;Node4 -->
<g id="edge9" class="edge">
<title>Node8&#45;&gt;Node4</title>
<path fill="none" stroke="midnightblue" d="M209.81,-180.41C227.03,-175.53 248.16,-169.54 266.57,-164.32"/>
<polygon fill="midnightblue" stroke="midnightblue" points="267.53,-167.68 276.2,-161.59 265.62,-160.95 267.53,-167.68"/>
</g>
<!-- Node9&#45;&gt;Node3 -->
<g id="edge11" class="edge">
<title>Node9&#45;&gt;Node3</title>
<path fill="none" stroke="midnightblue" d="M187.26,-123.59C202.17,-135.91 229.66,-157.33 256,-171 260.03,-173.09 264.34,-175.04 268.7,-176.83"/>
<polygon fill="midnightblue" stroke="midnightblue" points="267.66,-180.18 278.25,-180.5 270.17,-173.65 267.66,-180.18"/>
</g>
<!-- Node9&#45;&gt;Node5 -->
<g id="edge12" class="edge">
<title>Node9&#45;&gt;Node5</title>
<path fill="none" stroke="midnightblue" d="M205.08,-104.45C224.48,-98.08 250.21,-89.63 271.33,-82.7"/>
<polygon fill="midnightblue" stroke="midnightblue" points="272.57,-85.97 280.98,-79.53 270.39,-79.32 272.57,-85.97"/>
</g>
</g>
</svg>
