<?xml version="1.0" encoding="UTF-8" standalone="no"?>
<!DOCTYPE svg PUBLIC "-//W3C//DTD SVG 1.1//EN"
 "http://www.w3.org/Graphics/SVG/1.1/DTD/svg11.dtd">
<!-- Generated by graphviz version 3.0.0 (20220413.0242)
 -->
<!-- Title: hal::spy_handler::reset Pages: 1 -->
<svg width="269pt" height="302pt"
 viewBox="0.00 0.00 269.00 301.50" xmlns="http://www.w3.org/2000/svg" xmlns:xlink="http://www.w3.org/1999/xlink">
<g id="graph0" class="graph" transform="scale(1 1) rotate(0) translate(4 297.5)">
<title>hal::spy_handler::reset</title>
<polygon fill="white" stroke="transparent" points="-4,4 -4,-297.5 265,-297.5 265,4 -4,4"/>
<!-- Node1 -->
<g id="node1" class="node">
<title>Node1</title>
<g id="a_node1"><a xlink:title="Reset call recordings and turns off error trigger.">
<polygon fill="#bfbfbf" stroke="black" points="149,-126.5 149,-145.5 261,-145.5 261,-126.5 149,-126.5"/>
<text text-anchor="middle" x="205" y="-133.5" font-family="Helvetica,sans-Serif" font-size="10.00">hal::spy_handler::reset</text>
</a>
</g>
</g>
<!-- Node2 -->
<g id="node2" class="node">
<title>Node2</title>
<g id="a_node2"><a xlink:href="structhal_1_1mock_1_1input__pin.html#a3b21009c4c58b20b27e2d2a4cc72947e" target="_top" xlink:title="Reset spy information for configure()">
<polygon fill="white" stroke="black" points="6,-263 6,-293 107,-293 107,-263 6,-263"/>
<text text-anchor="start" x="14" y="-281" font-family="Helvetica,sans-Serif" font-size="10.00">hal::mock::input_pin</text>
<text text-anchor="middle" x="56.5" y="-270" font-family="Helvetica,sans-Serif" font-size="10.00">::reset</text>
</a>
</g>
</g>
<!-- Node1&#45;&gt;Node2 -->
<g id="edge1" class="edge">
<title>Node1&#45;&gt;Node2</title>
<path fill="none" stroke="midnightblue" d="M193.79,-154.55C178.96,-180.01 149.24,-225.82 113,-254 108.69,-257.35 103.84,-260.33 98.85,-262.95"/>
<polygon fill="midnightblue" stroke="midnightblue" points="196.99,-156 198.89,-145.58 190.9,-152.54 196.99,-156"/>
</g>
<!-- Node3 -->
<g id="node3" class="node">
<title>Node3</title>
<g id="a_node3"><a xlink:href="structhal_1_1mock_1_1interrupt__pin.html#a2803396fafebececf62276e236a2fd25" target="_top" xlink:title="Reset spy information for configure(), attach_interrupt(), and detach_interrupt()">
<polygon fill="white" stroke="black" points="7.5,-214 7.5,-244 105.5,-244 105.5,-214 7.5,-214"/>
<text text-anchor="start" x="15.5" y="-232" font-family="Helvetica,sans-Serif" font-size="10.00">hal::mock::interrupt</text>
<text text-anchor="middle" x="56.5" y="-221" font-family="Helvetica,sans-Serif" font-size="10.00">_pin::reset</text>
</a>
</g>
</g>
<!-- Node1&#45;&gt;Node3 -->
<g id="edge2" class="edge">
<title>Node1&#45;&gt;Node3</title>
<path fill="none" stroke="midnightblue" d="M185.26,-152.35C167.5,-167.32 139.63,-189.45 113,-205 107.56,-208.18 101.62,-211.18 95.72,-213.92"/>
<polygon fill="midnightblue" stroke="midnightblue" points="187.79,-154.79 193.12,-145.64 183.25,-149.47 187.79,-154.79"/>
</g>
<!-- Node4 -->
<g id="node4" class="node">
<title>Node4</title>
<g id="a_node4"><a xlink:href="structhal_1_1mock_1_1output__pin.html#a7ca18ce52efdac4c61d8c56a38ee1a93" target="_top" xlink:title="Reset spy information for configure() and level()">
<polygon fill="white" stroke="black" points="3,-165 3,-195 110,-195 110,-165 3,-165"/>
<text text-anchor="start" x="11" y="-183" font-family="Helvetica,sans-Serif" font-size="10.00">hal::mock::output_pin</text>
<text text-anchor="middle" x="56.5" y="-172" font-family="Helvetica,sans-Serif" font-size="10.00">::reset</text>
</a>
</g>
</g>
<!-- Node1&#45;&gt;Node4 -->
<g id="edge3" class="edge">
<title>Node1&#45;&gt;Node4</title>
<path fill="none" stroke="midnightblue" d="M162.53,-148.46C145.46,-153.58 125.54,-159.56 107.66,-164.93"/>
<polygon fill="midnightblue" stroke="midnightblue" points="163.64,-151.78 172.21,-145.55 161.63,-145.07 163.64,-151.78"/>
</g>
<!-- Node5 -->
<g id="node5" class="node">
<title>Node5</title>
<g id="a_node5"><a xlink:href="structhal_1_1mock_1_1pwm.html#ad4c4c645b6698791d34a3f8a78c96b17" target="_top" xlink:title="Reset spy information for both configure() and duty_cycle()">
<polygon fill="white" stroke="black" points="1.5,-126.5 1.5,-145.5 111.5,-145.5 111.5,-126.5 1.5,-126.5"/>
<text text-anchor="middle" x="56.5" y="-133.5" font-family="Helvetica,sans-Serif" font-size="10.00">hal::mock::pwm::reset</text>
</a>
</g>
</g>
<!-- Node1&#45;&gt;Node5 -->
<g id="edge4" class="edge">
<title>Node1&#45;&gt;Node5</title>
<path fill="none" stroke="midnightblue" d="M138.52,-136C129.49,-136 120.3,-136 111.51,-136"/>
<polygon fill="midnightblue" stroke="midnightblue" points="138.61,-139.5 148.61,-136 138.61,-132.5 138.61,-139.5"/>
</g>
<!-- Node6 -->
<g id="node6" class="node">
<title>Node6</title>
<g id="a_node6"><a xlink:href="structhal_1_1mock_1_1servo.html#a70193593d8f691312fa80411980e752b" target="_top" xlink:title="Reset spy information for position()">
<polygon fill="white" stroke="black" points="0,-88.5 0,-107.5 113,-107.5 113,-88.5 0,-88.5"/>
<text text-anchor="middle" x="56.5" y="-95.5" font-family="Helvetica,sans-Serif" font-size="10.00">hal::mock::servo::reset</text>
</a>
</g>
</g>
<!-- Node1&#45;&gt;Node6 -->
<g id="edge5" class="edge">
<title>Node1&#45;&gt;Node6</title>
<path fill="none" stroke="midnightblue" d="M157.3,-123.89C136.9,-118.6 113.32,-112.48 94.2,-107.52"/>
<polygon fill="midnightblue" stroke="midnightblue" points="156.47,-127.29 167.03,-126.41 158.23,-120.51 156.47,-127.29"/>
</g>
<!-- Node7 -->
<g id="node7" class="node">
<title>Node7</title>
<g id="a_node7"><a xlink:href="structhal_1_1mock_1_1write__only__spi.html#a9be71a9e85a7fc15eef00839781eef73" target="_top" xlink:title="Reset spy information for both configure() and transfer()">
<polygon fill="white" stroke="black" points="3.5,-39 3.5,-69 109.5,-69 109.5,-39 3.5,-39"/>
<text text-anchor="start" x="11.5" y="-57" font-family="Helvetica,sans-Serif" font-size="10.00">hal::mock::write_only</text>
<text text-anchor="middle" x="56.5" y="-46" font-family="Helvetica,sans-Serif" font-size="10.00">_spi::reset</text>
</a>
</g>
</g>
<!-- Node1&#45;&gt;Node7 -->
<g id="edge6" class="edge">
<title>Node1&#45;&gt;Node7</title>
<path fill="none" stroke="midnightblue" d="M181.18,-120.49C163.08,-108.49 136.93,-91.81 113,-79 106.57,-75.56 99.58,-72.16 92.79,-69.02"/>
<polygon fill="midnightblue" stroke="midnightblue" points="179.6,-123.64 189.86,-126.3 183.5,-117.83 179.6,-123.64"/>
</g>
<!-- Node8 -->
<g id="node8" class="node">
<title>Node8</title>
<g id="a_node8"><a xlink:href="structhal_1_1mock_1_1timer.html#a9d3f61fc844e2939b380e887c4f9bdd4" target="_top" xlink:title="Reset spy information for schedule(), clear(), and is_running()">
<polygon fill="white" stroke="black" points="1.5,-0.5 1.5,-19.5 111.5,-19.5 111.5,-0.5 1.5,-0.5"/>
<text text-anchor="middle" x="56.5" y="-7.5" font-family="Helvetica,sans-Serif" font-size="10.00">hal::mock::timer::reset</text>
</a>
</g>
</g>
<!-- Node1&#45;&gt;Node8 -->
<g id="edge7" class="edge">
<title>Node1&#45;&gt;Node8</title>
<path fill="none" stroke="midnightblue" d="M192.67,-117.72C177.31,-94.33 147.75,-53.96 113,-30 106.84,-25.76 99.69,-22.31 92.6,-19.54"/>
<polygon fill="midnightblue" stroke="midnightblue" points="189.85,-119.81 198.19,-126.34 195.74,-116.03 189.85,-119.81"/>
</g>
</g>
</svg>
