<?xml version="1.0" encoding="UTF-8" standalone="no"?>
<!DOCTYPE svg PUBLIC "-//W3C//DTD SVG 1.1//EN"
 "http://www.w3.org/Graphics/SVG/1.1/DTD/svg11.dtd">
<!-- Generated by graphviz version 3.0.0 (20220413.0242)
 -->
<!-- Title: hal::percent::raw_min Pages: 1 -->
<svg width="396pt" height="230pt"
 viewBox="0.00 0.00 396.00 230.00" xmlns="http://www.w3.org/2000/svg" xmlns:xlink="http://www.w3.org/1999/xlink">
<g id="graph0" class="graph" transform="scale(1 1) rotate(0) translate(4 226)">
<title>hal::percent::raw_min</title>
<polygon fill="white" stroke="transparent" points="-4,4 -4,-226 392,-226 392,4 -4,4"/>
<!-- Node1 -->
<g id="node1" class="node">
<title>Node1</title>
<g id="a_node1"><a xlink:title="Get the &#45;100% value in its raw representation.">
<polygon fill="#bfbfbf" stroke="black" points="281,-76.5 281,-95.5 388,-95.5 388,-76.5 281,-76.5"/>
<text text-anchor="middle" x="334.5" y="-83.5" font-family="Helvetica,sans-Serif" font-size="10.00">hal::percent::raw_min</text>
</a>
</g>
</g>
<!-- Node2 -->
<g id="node2" class="node">
<title>Node2</title>
<g id="a_node2"><a xlink:href="classhal_1_1percent.html#a4fece281bfb4ec0f48f86b14168194ce" target="_top" xlink:title="Generate a percentage based on input relative to the maximum possible value.">
<polygon fill="white" stroke="black" points="155,-115 155,-145 245,-145 245,-115 155,-115"/>
<text text-anchor="start" x="163" y="-133" font-family="Helvetica,sans-Serif" font-size="10.00">hal::percent::from</text>
<text text-anchor="middle" x="200" y="-122" font-family="Helvetica,sans-Serif" font-size="10.00">_ratio</text>
</a>
</g>
</g>
<!-- Node1&#45;&gt;Node2 -->
<g id="edge1" class="edge">
<title>Node1&#45;&gt;Node2</title>
<path fill="none" stroke="midnightblue" d="M294.9,-98.82C279.3,-104 261.2,-110.01 245.08,-115.36"/>
<polygon fill="midnightblue" stroke="midnightblue" points="296.36,-102.02 304.75,-95.55 294.16,-95.38 296.36,-102.02"/>
</g>
<!-- Node6 -->
<g id="node6" class="node">
<title>Node6</title>
<g id="a_node6"><a xlink:href="classhal_1_1percent.html#a1bf2e7369a19e7795c2e68c643e8d06b" target="_top" xlink:title="Get the percent after it is scaled to a range. The output percent is bound within the given range....">
<polygon fill="white" stroke="black" points="12.5,-76.5 12.5,-95.5 106.5,-95.5 106.5,-76.5 12.5,-76.5"/>
<text text-anchor="middle" x="59.5" y="-83.5" font-family="Helvetica,sans-Serif" font-size="10.00">hal::percent::scale</text>
</a>
</g>
</g>
<!-- Node1&#45;&gt;Node6 -->
<g id="edge10" class="edge">
<title>Node1&#45;&gt;Node6</title>
<path fill="none" stroke="midnightblue" d="M270.8,-86C220.73,-86 151.72,-86 106.62,-86"/>
<polygon fill="midnightblue" stroke="midnightblue" points="270.86,-89.5 280.86,-86 270.86,-82.5 270.86,-89.5"/>
</g>
<!-- Node7 -->
<g id="node7" class="node">
<title>Node7</title>
<g id="a_node7"><a xlink:href="classhal_1_1percent.html#ae6a1e30546203a5f9d8879dff495d252" target="_top" xlink:title="Get &#45;100% percentage.">
<polygon fill="white" stroke="black" points="157,-38.5 157,-57.5 243,-57.5 243,-38.5 157,-38.5"/>
<text text-anchor="middle" x="200" y="-45.5" font-family="Helvetica,sans-Serif" font-size="10.00">hal::percent::min</text>
</a>
</g>
</g>
<!-- Node1&#45;&gt;Node7 -->
<g id="edge6" class="edge">
<title>Node1&#45;&gt;Node7</title>
<path fill="none" stroke="midnightblue" d="M290.3,-73.61C272.15,-68.41 251.37,-62.45 234.42,-57.59"/>
<polygon fill="midnightblue" stroke="midnightblue" points="289.49,-77.02 300.06,-76.41 291.42,-70.29 289.49,-77.02"/>
</g>
<!-- Node3 -->
<g id="node3" class="node">
<title>Node3</title>
<g id="a_node3"><a xlink:href="classhal_1_1rc__servo.html#a4b6b2863a7ea2f9e426f32c89a29c8c5" target="_top" xlink:title="Factory function to create a rc_servo object.">
<polygon fill="white" stroke="black" points="8,-202.5 8,-221.5 111,-221.5 111,-202.5 8,-202.5"/>
<text text-anchor="middle" x="59.5" y="-209.5" font-family="Helvetica,sans-Serif" font-size="10.00">hal::rc_servo::create</text>
</a>
</g>
</g>
<!-- Node2&#45;&gt;Node3 -->
<g id="edge2" class="edge">
<title>Node2&#45;&gt;Node3</title>
<path fill="none" stroke="midnightblue" d="M175.52,-152.14C160.36,-165.48 139.66,-181.97 119,-193 112.03,-196.72 104.2,-199.88 96.59,-202.49"/>
<polygon fill="midnightblue" stroke="midnightblue" points="178.25,-154.4 183.35,-145.11 173.57,-149.19 178.25,-154.4"/>
</g>
<!-- Node4 -->
<g id="node4" class="node">
<title>Node4</title>
<g id="a_node4"><a xlink:href="group__utility.html#gacf35495e951216c5f4765dbe9f256fdd" target="_top" xlink:title="Map an target value [x] from an input range [a,b] to an output range [c,d].">
<polygon fill="white" stroke="black" points="33,-164.5 33,-183.5 86,-183.5 86,-164.5 33,-164.5"/>
<text text-anchor="middle" x="59.5" y="-171.5" font-family="Helvetica,sans-Serif" font-size="10.00">hal::map</text>
</a>
</g>
</g>
<!-- Node2&#45;&gt;Node4 -->
<g id="edge3" class="edge">
<title>Node2&#45;&gt;Node4</title>
<path fill="none" stroke="midnightblue" d="M145.03,-147.14C124.78,-153.58 102.68,-160.6 86.16,-165.85"/>
<polygon fill="midnightblue" stroke="midnightblue" points="146.33,-150.41 154.8,-144.04 144.21,-143.73 146.33,-150.41"/>
</g>
<!-- Node5 -->
<g id="node5" class="node">
<title>Node5</title>
<g id="a_node5"><a xlink:href="structhal_1_1duty__cycle.html#a5f5bad1e9e0cd329eeecd5c0db0e0a32" target="_top" xlink:title="Conversion from duty cycle to percentage.">
<polygon fill="white" stroke="black" points="0,-115 0,-145 119,-145 119,-115 0,-115"/>
<text text-anchor="start" x="8" y="-133" font-family="Helvetica,sans-Serif" font-size="10.00">hal::duty_cycle::operator</text>
<text text-anchor="middle" x="59.5" y="-122" font-family="Helvetica,sans-Serif" font-size="10.00"> percent</text>
</a>
</g>
</g>
<!-- Node2&#45;&gt;Node5 -->
<g id="edge4" class="edge">
<title>Node2&#45;&gt;Node5</title>
<path fill="none" stroke="midnightblue" d="M144.76,-130C136.37,-130 127.68,-130 119.2,-130"/>
<polygon fill="midnightblue" stroke="midnightblue" points="144.8,-133.5 154.8,-130 144.8,-126.5 144.8,-133.5"/>
</g>
<!-- Node2&#45;&gt;Node6 -->
<g id="edge5" class="edge">
<title>Node2&#45;&gt;Node6</title>
<path fill="none" stroke="midnightblue" d="M145.03,-112.86C126.59,-107 106.62,-100.65 90.73,-95.6"/>
<polygon fill="midnightblue" stroke="midnightblue" points="144.21,-116.27 154.8,-115.96 146.33,-109.59 144.21,-116.27"/>
</g>
<!-- Node7&#45;&gt;Node6 -->
<g id="edge8" class="edge">
<title>Node7&#45;&gt;Node6</title>
<path fill="none" stroke="midnightblue" d="M154.37,-60.25C135.28,-65.48 113.32,-71.51 95.44,-76.41"/>
<polygon fill="midnightblue" stroke="midnightblue" points="155.33,-63.61 164.05,-57.59 153.48,-56.86 155.33,-63.61"/>
</g>
<!-- Node8 -->
<g id="node8" class="node">
<title>Node8</title>
<g id="a_node8"><a xlink:href="classhal_1_1percent.html#ad5ed3b476e65e3b5aec2408f76865500" target="_top" xlink:title="Assignment operator for a percent object based on a floating point value.">
<polygon fill="white" stroke="black" points="3.5,-38.5 3.5,-57.5 115.5,-57.5 115.5,-38.5 3.5,-38.5"/>
<text text-anchor="middle" x="59.5" y="-45.5" font-family="Helvetica,sans-Serif" font-size="10.00">hal::percent::operator=</text>
</a>
</g>
</g>
<!-- Node7&#45;&gt;Node8 -->
<g id="edge7" class="edge">
<title>Node7&#45;&gt;Node8</title>
<path fill="none" stroke="midnightblue" d="M146.4,-48C136.32,-48 125.74,-48 115.58,-48"/>
<polygon fill="midnightblue" stroke="midnightblue" points="146.69,-51.5 156.69,-48 146.69,-44.5 146.69,-51.5"/>
</g>
<!-- Node9 -->
<g id="node9" class="node">
<title>Node9</title>
<g id="a_node9"><a xlink:href="group__utility.html#gaeb9131fb2e9aa8b5b404c1d52197cea2" target="_top" xlink:title="convert this percentage value into a string from &#45;1.0 to +1.0">
<polygon fill="white" stroke="black" points="24,-0.5 24,-19.5 95,-19.5 95,-0.5 24,-0.5"/>
<text text-anchor="middle" x="59.5" y="-7.5" font-family="Helvetica,sans-Serif" font-size="10.00">hal::to_string</text>
</a>
</g>
</g>
<!-- Node7&#45;&gt;Node9 -->
<g id="edge9" class="edge">
<title>Node7&#45;&gt;Node9</title>
<path fill="none" stroke="midnightblue" d="M154.37,-35.75C135.28,-30.52 113.32,-24.49 95.44,-19.59"/>
<polygon fill="midnightblue" stroke="midnightblue" points="153.48,-39.14 164.05,-38.41 155.33,-32.39 153.48,-39.14"/>
</g>
</g>
</svg>
