<?xml version="1.0" encoding="UTF-8" standalone="no"?>
<!DOCTYPE svg PUBLIC "-//W3C//DTD SVG 1.1//EN"
 "http://www.w3.org/Graphics/SVG/1.1/DTD/svg11.dtd">
<!-- Generated by graphviz version 3.0.0 (20220413.0242)
 -->
<!-- Title: hal::servo Pages: 1 -->
<svg width="184pt" height="84pt"
 viewBox="0.00 0.00 183.50 84.00" xmlns="http://www.w3.org/2000/svg" xmlns:xlink="http://www.w3.org/1999/xlink">
<g id="graph0" class="graph" transform="scale(1 1) rotate(0) translate(4 80)">
<title>hal::servo</title>
<polygon fill="white" stroke="transparent" points="-4,4 -4,-80 179.5,-80 179.5,4 -4,4"/>
<!-- Node1 -->
<g id="node1" class="node">
<title>Node1</title>
<g id="a_node1"><a xlink:title="Hardware abstraction for closed loop positional rotary and linear actuators.">
<polygon fill="#bfbfbf" stroke="black" points="62,-56.5 62,-75.5 120,-75.5 120,-56.5 62,-56.5"/>
<text text-anchor="middle" x="91" y="-63.5" font-family="Helvetica,sans-Serif" font-size="10.00">hal::servo</text>
</a>
</g>
</g>
<!-- Node2 -->
<g id="node2" class="node">
<title>Node2</title>
<g id="a_node2"><a xlink:href="structhal_1_1mock_1_1servo.html" target="_top" xlink:title="mock servo implementation for use in unit tests and simulations.">
<polygon fill="white" stroke="black" points="0,-0.5 0,-19.5 86,-19.5 86,-0.5 0,-0.5"/>
<text text-anchor="middle" x="43" y="-7.5" font-family="Helvetica,sans-Serif" font-size="10.00">hal::mock::servo</text>
</a>
</g>
</g>
<!-- Node1&#45;&gt;Node2 -->
<g id="edge1" class="edge">
<title>Node1&#45;&gt;Node2</title>
<path fill="none" stroke="midnightblue" d="M76.27,-48.43C67.86,-38.97 57.65,-27.48 50.78,-19.75"/>
<polygon fill="midnightblue" stroke="midnightblue" points="73.81,-50.93 83.07,-56.08 79.05,-46.28 73.81,-50.93"/>
</g>
<!-- Node3 -->
<g id="node3" class="node">
<title>Node3</title>
<g id="a_node3"><a xlink:href="classhal_1_1rc__servo.html" target="_top" xlink:title="Generic RC servo driver.">
<polygon fill="white" stroke="black" points="104.5,-0.5 104.5,-19.5 175.5,-19.5 175.5,-0.5 104.5,-0.5"/>
<text text-anchor="middle" x="140" y="-7.5" font-family="Helvetica,sans-Serif" font-size="10.00">hal::rc_servo</text>
</a>
</g>
</g>
<!-- Node1&#45;&gt;Node3 -->
<g id="edge2" class="edge">
<title>Node1&#45;&gt;Node3</title>
<path fill="none" stroke="midnightblue" d="M106.03,-48.43C114.62,-38.97 125.04,-27.48 132.06,-19.75"/>
<polygon fill="midnightblue" stroke="midnightblue" points="103.22,-46.33 99.09,-56.08 108.4,-51.03 103.22,-46.33"/>
</g>
</g>
</svg>
