<?xml version="1.0" encoding="UTF-8" standalone="no"?>
<!DOCTYPE svg PUBLIC "-//W3C//DTD SVG 1.1//EN"
 "http://www.w3.org/Graphics/SVG/1.1/DTD/svg11.dtd">
<!-- Generated by graphviz version 3.0.0 (20220413.0242)
 -->
<!-- Title: /github/workspace/include/libembeddedhal/servo Pages: 1 -->
<svg width="108pt" height="167pt"
 viewBox="0.00 0.00 108.00 167.00" xmlns="http://www.w3.org/2000/svg" xmlns:xlink="http://www.w3.org/1999/xlink">
<g id="graph0" class="graph" transform="scale(1 1) rotate(0) translate(4 163)">
<title>/github/workspace/include/libembeddedhal/servo</title>
<polygon fill="white" stroke="transparent" points="-4,4 -4,-163 104,-163 104,4 -4,4"/>
<g id="clust1" class="cluster">
<title>clusterdir_d44e2fde02e0e8a6a790ae54b19f7024</title>
<g id="a_clust1"><a xlink:href="dir_d44e2fde02e0e8a6a790ae54b19f7024.html" target="_top" xlink:title="libembeddedhal">
<polygon fill="#edf0f7" stroke="#7f7f7f" stroke-dasharray="5,2" points="8,-8 8,-151 92,-151 92,-8 8,-8"/>
<text text-anchor="middle" x="50" y="-139" font-family="Helvetica,sans-Serif" font-size="10.00">libembeddedhal</text>
</a>
</g>
</g>
<!-- dir_7c0c2efd89501992642cef17876e123b -->
<g id="node1" class="node">
<title>dir_7c0c2efd89501992642cef17876e123b</title>
<g id="a_node1"><a xlink:href="dir_7c0c2efd89501992642cef17876e123b.html" target="_top" xlink:title="pwm">
<polygon fill="#a2b4d6" stroke="#404040" points="77,-52 23,-52 23,-16 77,-16 77,-52"/>
<text text-anchor="middle" x="50" y="-31.5" font-family="Helvetica,sans-Serif" font-size="10.00">pwm</text>
</a>
</g>
</g>
<!-- dir_a94b0012b336e8176d1a2b1a950398c8 -->
<g id="node2" class="node">
<title>dir_a94b0012b336e8176d1a2b1a950398c8</title>
<g id="a_node2"><a xlink:href="dir_a94b0012b336e8176d1a2b1a950398c8.html" target="_top" xlink:title="servo">
<polygon fill="#edf0f7" stroke="#404040" stroke-width="2" points="77,-124 23,-124 23,-88 77,-88 77,-124"/>
<text text-anchor="middle" x="50" y="-103.5" font-family="Helvetica,sans-Serif" font-size="10.00">servo</text>
</a>
</g>
</g>
<!-- dir_a94b0012b336e8176d1a2b1a950398c8&#45;&gt;dir_7c0c2efd89501992642cef17876e123b -->
<g id="edge1" class="edge">
<title>dir_a94b0012b336e8176d1a2b1a950398c8&#45;&gt;dir_7c0c2efd89501992642cef17876e123b</title>
<path fill="none" stroke="black" d="M50,-87.7C50,-79.98 50,-70.71 50,-62.11"/>
<polygon fill="black" stroke="black" points="53.5,-62.1 50,-52.1 46.5,-62.1 53.5,-62.1"/>
<g id="a_edge1&#45;headlabel"><a xlink:href="dir_000022_000018.html" target="_top" xlink:title="1">
<text text-anchor="middle" x="56.34" y="-63.2" font-family="Helvetica,sans-Serif" font-size="10.00">1</text>
</a>
</g>
</g>
</g>
</svg>
