<?xml version="1.0" encoding="UTF-8" standalone="no"?>
<!DOCTYPE svg PUBLIC "-//W3C//DTD SVG 1.1//EN"
 "http://www.w3.org/Graphics/SVG/1.1/DTD/svg11.dtd">
<!-- Generated by graphviz version 3.0.0 (20220413.0242)
 -->
<!-- Title: /github/workspace/include/libembeddedhal Pages: 1 -->
<svg width="1118pt" height="183pt"
 viewBox="0.00 0.00 1118.00 183.00" xmlns="http://www.w3.org/2000/svg" xmlns:xlink="http://www.w3.org/1999/xlink">
<g id="graph0" class="graph" transform="scale(1 1) rotate(0) translate(4 179)">
<title>/github/workspace/include/libembeddedhal</title>
<polygon fill="white" stroke="transparent" points="-4,4 -4,-179 1114,-179 1114,4 -4,4"/>
<g id="clust1" class="cluster">
<title>clusterdir_d44c64559bbebec7f509842c48db8b23</title>
<g id="a_clust1"><a xlink:href="dir_d44c64559bbebec7f509842c48db8b23.html" target="_top" xlink:title="include">
<polygon fill="#edf0f7" stroke="#404040" stroke-dasharray="5,2" points="8,-8 8,-167 1102,-167 1102,-8 8,-8"/>
<text text-anchor="middle" x="555" y="-155" font-family="Helvetica,sans-Serif" font-size="10.00">include</text>
</a>
</g>
</g>
<g id="clust2" class="cluster">
<title>clusterdir_d44e2fde02e0e8a6a790ae54b19f7024</title>
<g id="a_clust2"><a xlink:href="dir_d44e2fde02e0e8a6a790ae54b19f7024.html" target="_top">
<polygon fill="#edf0f7" stroke="#404040" stroke-width="2" points="16,-16 16,-140 1094,-140 1094,-16 16,-16"/>
</a>
</g>
</g>
<!-- dir_d44e2fde02e0e8a6a790ae54b19f7024 -->
<g id="node1" class="node">
<title>dir_d44e2fde02e0e8a6a790ae54b19f7024</title>
<text text-anchor="middle" x="1044" y="-111.5" font-family="Helvetica,sans-Serif" font-size="10.00">libembeddedhal</text>
</g>
<!-- dir_927caa68e237d360131c9e07c9afa597 -->
<g id="node2" class="node">
<title>dir_927caa68e237d360131c9e07c9afa597</title>
<g id="a_node2"><a xlink:href="dir_927caa68e237d360131c9e07c9afa597.html" target="_top" xlink:title="adc">
<polygon fill="#a2b4d6" stroke="#404040" points="984,-132 930,-132 930,-96 984,-96 984,-132"/>
<text text-anchor="middle" x="957" y="-111.5" font-family="Helvetica,sans-Serif" font-size="10.00">adc</text>
</a>
</g>
</g>
<!-- dir_e20bf4e9710363826966b0b412d4debd -->
<g id="node3" class="node">
<title>dir_e20bf4e9710363826966b0b412d4debd</title>
<g id="a_node3"><a xlink:href="dir_e20bf4e9710363826966b0b412d4debd.html" target="_top" xlink:title="can">
<polygon fill="#a2b4d6" stroke="#404040" points="912,-132 858,-132 858,-96 912,-96 912,-132"/>
<text text-anchor="middle" x="885" y="-111.5" font-family="Helvetica,sans-Serif" font-size="10.00">can</text>
</a>
</g>
</g>
<!-- dir_ad8ece6cee1ba925824cfdb6f5c3da75 -->
<g id="node4" class="node">
<title>dir_ad8ece6cee1ba925824cfdb6f5c3da75</title>
<g id="a_node4"><a xlink:href="dir_ad8ece6cee1ba925824cfdb6f5c3da75.html" target="_top" xlink:title="counter">
<polygon fill="#a2b4d6" stroke="#404040" points="840,-132 786,-132 786,-96 840,-96 840,-132"/>
<text text-anchor="middle" x="813" y="-111.5" font-family="Helvetica,sans-Serif" font-size="10.00">counter</text>
</a>
</g>
</g>
<!-- dir_721e551b0c5204a89226dce355491e85 -->
<g id="node5" class="node">
<title>dir_721e551b0c5204a89226dce355491e85</title>
<g id="a_node5"><a xlink:href="dir_721e551b0c5204a89226dce355491e85.html" target="_top" xlink:title="dac">
<polygon fill="#a2b4d6" stroke="#404040" points="768,-132 714,-132 714,-96 768,-96 768,-132"/>
<text text-anchor="middle" x="741" y="-111.5" font-family="Helvetica,sans-Serif" font-size="10.00">dac</text>
</a>
</g>
</g>
<!-- dir_179ad4e804ac1f3a911f2dd640ab6d52 -->
<g id="node6" class="node">
<title>dir_179ad4e804ac1f3a911f2dd640ab6d52</title>
<g id="a_node6"><a xlink:href="dir_179ad4e804ac1f3a911f2dd640ab6d52.html" target="_top" xlink:title="experimental">
<polygon fill="#a2b4d6" stroke="#404040" points="695.5,-132 624.5,-132 624.5,-96 695.5,-96 695.5,-132"/>
<text text-anchor="middle" x="660" y="-111.5" font-family="Helvetica,sans-Serif" font-size="10.00">experimental</text>
</a>
</g>
</g>
<!-- dir_4b54f0ad81c942e33daad38b7db927e0 -->
<g id="node7" class="node">
<title>dir_4b54f0ad81c942e33daad38b7db927e0</title>
<g id="a_node7"><a xlink:href="dir_4b54f0ad81c942e33daad38b7db927e0.html" target="_top" xlink:title="i2c">
<polygon fill="#a2b4d6" stroke="#404040" points="606,-132 552,-132 552,-96 606,-96 606,-132"/>
<text text-anchor="middle" x="579" y="-111.5" font-family="Helvetica,sans-Serif" font-size="10.00">i2c</text>
</a>
</g>
</g>
<!-- dir_664b7c012d50b2ad7561a69b0cbbb538 -->
<g id="node8" class="node">
<title>dir_664b7c012d50b2ad7561a69b0cbbb538</title>
<g id="a_node8"><a xlink:href="dir_664b7c012d50b2ad7561a69b0cbbb538.html" target="_top" xlink:title="input_pin">
<polygon fill="#a2b4d6" stroke="#404040" points="449,-60 393,-60 393,-24 449,-24 449,-60"/>
<text text-anchor="middle" x="421" y="-39.5" font-family="Helvetica,sans-Serif" font-size="10.00">input_pin</text>
</a>
</g>
</g>
<!-- dir_03089a427f583ede769bcc8ef83df64d -->
<g id="node9" class="node">
<title>dir_03089a427f583ede769bcc8ef83df64d</title>
<g id="a_node9"><a xlink:href="dir_03089a427f583ede769bcc8ef83df64d.html" target="_top" xlink:title="interrupt_pin">
<polygon fill="#a2b4d6" stroke="#404040" points="534,-132 464,-132 464,-96 534,-96 534,-132"/>
<text text-anchor="middle" x="499" y="-111.5" font-family="Helvetica,sans-Serif" font-size="10.00">interrupt_pin</text>
</a>
</g>
</g>
<!-- dir_03089a427f583ede769bcc8ef83df64d&#45;&gt;dir_664b7c012d50b2ad7561a69b0cbbb538 -->
<g id="edge1" class="edge">
<title>dir_03089a427f583ede769bcc8ef83df64d&#45;&gt;dir_664b7c012d50b2ad7561a69b0cbbb538</title>
<path fill="none" stroke="black" d="M479.72,-95.7C470.08,-87.05 458.27,-76.45 447.77,-67.03"/>
<polygon fill="black" stroke="black" points="449.84,-64.18 440.06,-60.1 445.16,-69.39 449.84,-64.18"/>
<g id="a_edge1&#45;headlabel"><a xlink:href="dir_000012_000011.html" target="_top" xlink:title="1">
<text text-anchor="middle" x="454.41" y="-61.97" font-family="Helvetica,sans-Serif" font-size="10.00">1</text>
</a>
</g>
</g>
<!-- dir_58e4103d875554236015b36ecebd4a7c -->
<g id="node10" class="node">
<title>dir_58e4103d875554236015b36ecebd4a7c</title>
<g id="a_node10"><a xlink:href="dir_58e4103d875554236015b36ecebd4a7c.html" target="_top" xlink:title="motor">
<polygon fill="#a2b4d6" stroke="#404040" points="446,-132 392,-132 392,-96 446,-96 446,-132"/>
<text text-anchor="middle" x="419" y="-111.5" font-family="Helvetica,sans-Serif" font-size="10.00">motor</text>
</a>
</g>
</g>
<!-- dir_4270506bb9341b5874383f939f643f81 -->
<g id="node11" class="node">
<title>dir_4270506bb9341b5874383f939f643f81</title>
<g id="a_node11"><a xlink:href="dir_4270506bb9341b5874383f939f643f81.html" target="_top" xlink:title="output_pin">
<polygon fill="#a2b4d6" stroke="#404040" points="374,-132 312,-132 312,-96 374,-96 374,-132"/>
<text text-anchor="middle" x="343" y="-111.5" font-family="Helvetica,sans-Serif" font-size="10.00">output_pin</text>
</a>
</g>
</g>
<!-- dir_4270506bb9341b5874383f939f643f81&#45;&gt;dir_664b7c012d50b2ad7561a69b0cbbb538 -->
<g id="edge2" class="edge">
<title>dir_4270506bb9341b5874383f939f643f81&#45;&gt;dir_664b7c012d50b2ad7561a69b0cbbb538</title>
<path fill="none" stroke="black" d="M362.28,-95.7C371.92,-87.05 383.73,-76.45 394.23,-67.03"/>
<polygon fill="black" stroke="black" points="396.84,-69.39 401.94,-60.1 392.16,-64.18 396.84,-69.39"/>
<g id="a_edge2&#45;headlabel"><a xlink:href="dir_000016_000011.html" target="_top" xlink:title="1">
<text text-anchor="middle" x="396.06" y="-71.4" font-family="Helvetica,sans-Serif" font-size="10.00">1</text>
</a>
</g>
</g>
<!-- dir_7c0c2efd89501992642cef17876e123b -->
<g id="node12" class="node">
<title>dir_7c0c2efd89501992642cef17876e123b</title>
<g id="a_node12"><a xlink:href="dir_7c0c2efd89501992642cef17876e123b.html" target="_top" xlink:title="pwm">
<polygon fill="#a2b4d6" stroke="#404040" points="222,-60 168,-60 168,-24 222,-24 222,-60"/>
<text text-anchor="middle" x="195" y="-39.5" font-family="Helvetica,sans-Serif" font-size="10.00">pwm</text>
</a>
</g>
</g>
<!-- dir_9ed38be3b360acaf3dfe962d6d8e508f -->
<g id="node13" class="node">
<title>dir_9ed38be3b360acaf3dfe962d6d8e508f</title>
<g id="a_node13"><a xlink:href="dir_9ed38be3b360acaf3dfe962d6d8e508f.html" target="_top" xlink:title="serial">
<polygon fill="#a2b4d6" stroke="#404040" points="294,-132 240,-132 240,-96 294,-96 294,-132"/>
<text text-anchor="middle" x="267" y="-111.5" font-family="Helvetica,sans-Serif" font-size="10.00">serial</text>
</a>
</g>
</g>
<!-- dir_a94b0012b336e8176d1a2b1a950398c8 -->
<g id="node14" class="node">
<title>dir_a94b0012b336e8176d1a2b1a950398c8</title>
<g id="a_node14"><a xlink:href="dir_a94b0012b336e8176d1a2b1a950398c8.html" target="_top" xlink:title="servo">
<polygon fill="#a2b4d6" stroke="#404040" points="222,-132 168,-132 168,-96 222,-96 222,-132"/>
<text text-anchor="middle" x="195" y="-111.5" font-family="Helvetica,sans-Serif" font-size="10.00">servo</text>
</a>
</g>
</g>
<!-- dir_a94b0012b336e8176d1a2b1a950398c8&#45;&gt;dir_7c0c2efd89501992642cef17876e123b -->
<g id="edge3" class="edge">
<title>dir_a94b0012b336e8176d1a2b1a950398c8&#45;&gt;dir_7c0c2efd89501992642cef17876e123b</title>
<path fill="none" stroke="black" d="M195,-95.7C195,-87.98 195,-78.71 195,-70.11"/>
<polygon fill="black" stroke="black" points="198.5,-70.1 195,-60.1 191.5,-70.1 198.5,-70.1"/>
<g id="a_edge3&#45;headlabel"><a xlink:href="dir_000022_000018.html" target="_top" xlink:title="1">
<text text-anchor="middle" x="201.34" y="-71.2" font-family="Helvetica,sans-Serif" font-size="10.00">1</text>
</a>
</g>
</g>
<!-- dir_fad7e47fb7d2c086310d40fe47f863bc -->
<g id="node15" class="node">
<title>dir_fad7e47fb7d2c086310d40fe47f863bc</title>
<g id="a_node15"><a xlink:href="dir_fad7e47fb7d2c086310d40fe47f863bc.html" target="_top" xlink:title="spi">
<polygon fill="#a2b4d6" stroke="#404040" points="150,-132 96,-132 96,-96 150,-96 150,-132"/>
<text text-anchor="middle" x="123" y="-111.5" font-family="Helvetica,sans-Serif" font-size="10.00">spi</text>
</a>
</g>
</g>
<!-- dir_b9f1d506e6dc52cb20d5a67ec9072e27 -->
<g id="node16" class="node">
<title>dir_b9f1d506e6dc52cb20d5a67ec9072e27</title>
<g id="a_node16"><a xlink:href="dir_b9f1d506e6dc52cb20d5a67ec9072e27.html" target="_top" xlink:title="timer">
<polygon fill="#a2b4d6" stroke="#404040" points="78,-132 24,-132 24,-96 78,-96 78,-132"/>
<text text-anchor="middle" x="51" y="-111.5" font-family="Helvetica,sans-Serif" font-size="10.00">timer</text>
</a>
</g>
</g>
</g>
</svg>
