<?xml version="1.0" encoding="UTF-8" standalone="no"?>
<!DOCTYPE svg PUBLIC "-//W3C//DTD SVG 1.1//EN"
 "http://www.w3.org/Graphics/SVG/1.1/DTD/svg11.dtd">
<!-- Generated by graphviz version 3.0.0 (20220413.0242)
 -->
<!-- Title: hal::duration_from_cycles Pages: 1 -->
<svg width="381pt" height="39pt"
 viewBox="0.00 0.00 381.00 39.00" xmlns="http://www.w3.org/2000/svg" xmlns:xlink="http://www.w3.org/1999/xlink">
<g id="graph0" class="graph" transform="scale(1 1) rotate(0) translate(4 35)">
<title>hal::duration_from_cycles</title>
<polygon fill="white" stroke="transparent" points="-4,4 -4,-35 377,-35 377,4 -4,4"/>
<!-- Node1 -->
<g id="node1" class="node">
<title>Node1</title>
<g id="a_node1"><a xlink:title="Calculate the amount of time it takes a frequency to oscillate a number of cycles.">
<polygon fill="#bfbfbf" stroke="black" points="0,-0.5 0,-30.5 93,-30.5 93,-0.5 0,-0.5"/>
<text text-anchor="start" x="8" y="-18.5" font-family="Helvetica,sans-Serif" font-size="10.00">hal::duration_from</text>
<text text-anchor="middle" x="46.5" y="-7.5" font-family="Helvetica,sans-Serif" font-size="10.00">_cycles</text>
</a>
</g>
</g>
<!-- Node2 -->
<g id="node2" class="node">
<title>Node2</title>
<g id="a_node2"><a xlink:href="group__utility.html#ga58a3550a3236310f20b92eacf593c2f0" target="_top" xlink:title="Perform integer division and round the value up if the next decimal place is greater than or equal to...">
<polygon fill="white" stroke="black" points="129,-6 129,-25 238,-25 238,-6 129,-6"/>
<text text-anchor="middle" x="183.5" y="-13" font-family="Helvetica,sans-Serif" font-size="10.00">hal::rounding_division</text>
</a>
</g>
</g>
<!-- Node1&#45;&gt;Node2 -->
<g id="edge1" class="edge">
<title>Node1&#45;&gt;Node2</title>
<path fill="none" stroke="midnightblue" d="M93.2,-15.5C101.45,-15.5 110.18,-15.5 118.83,-15.5"/>
<polygon fill="midnightblue" stroke="midnightblue" points="118.91,-19 128.91,-15.5 118.91,-12 118.91,-19"/>
</g>
<!-- Node3 -->
<g id="node3" class="node">
<title>Node3</title>
<g id="a_node3"><a xlink:href="group__utility.html#gaac86abb9a38f4962ded5507e15dca4b9" target="_top" xlink:title="Generic absolute value function that works for integer types.">
<polygon fill="white" stroke="black" points="274,-6 274,-25 373,-25 373,-6 274,-6"/>
<text text-anchor="middle" x="323.5" y="-13" font-family="Helvetica,sans-Serif" font-size="10.00">hal::absolute_value</text>
</a>
</g>
</g>
<!-- Node2&#45;&gt;Node3 -->
<g id="edge2" class="edge">
<title>Node2&#45;&gt;Node3</title>
<path fill="none" stroke="midnightblue" d="M238.25,-15.5C246.54,-15.5 255.13,-15.5 263.52,-15.5"/>
<polygon fill="midnightblue" stroke="midnightblue" points="263.62,-19 273.62,-15.5 263.62,-12 263.62,-19"/>
</g>
</g>
</svg>
