<?xml version="1.0" encoding="UTF-8" standalone="no"?>
<!DOCTYPE svg PUBLIC "-//W3C//DTD SVG 1.1//EN"
 "http://www.w3.org/Graphics/SVG/1.1/DTD/svg11.dtd">
<!-- Generated by graphviz version 3.0.0 (20220413.0242)
 -->
<!-- Title: embed::write_then_read Pages: 1 -->
<svg width="386pt" height="28pt"
 viewBox="0.00 0.00 386.00 28.00" xmlns="http://www.w3.org/2000/svg" xmlns:xlink="http://www.w3.org/1999/xlink">
<g id="graph0" class="graph" transform="scale(1 1) rotate(0) translate(4 24)">
<title>embed::write_then_read</title>
<polygon fill="white" stroke="transparent" points="-4,4 -4,-24 382,-24 382,4 -4,4"/>
<!-- Node1 -->
<g id="node1" class="node">
<title>Node1</title>
<g id="a_node1"><a xlink:title="Write data to the SPI bus and ignore data sent from peripherals on the bus then read data from the SP...">
<polygon fill="#bfbfbf" stroke="black" points="0,-0.5 0,-19.5 119,-19.5 119,-0.5 0,-0.5"/>
<text text-anchor="middle" x="59.5" y="-7.5" font-family="Helvetica,sans-Serif" font-size="10.00">embed::write_then_read</text>
</a>
</g>
</g>
<!-- Node2 -->
<g id="node2" class="node">
<title>Node2</title>
<g id="a_node2"><a xlink:href="group__i2c.html#gad98774e04252c5c5568a11b94b0282ac" target="_top" xlink:title="write data to a target device on the i2c bus">
<polygon fill="white" stroke="black" points="155,-0.5 155,-19.5 226,-19.5 226,-0.5 155,-0.5"/>
<text text-anchor="middle" x="190.5" y="-7.5" font-family="Helvetica,sans-Serif" font-size="10.00">embed::write</text>
</a>
</g>
</g>
<!-- Node1&#45;&gt;Node2 -->
<g id="edge1" class="edge">
<title>Node1&#45;&gt;Node2</title>
<path fill="none" stroke="midnightblue" d="M119.34,-10C127.84,-10 136.48,-10 144.65,-10"/>
<polygon fill="midnightblue" stroke="midnightblue" points="144.7,-13.5 154.7,-10 144.7,-6.5 144.7,-13.5"/>
</g>
<!-- Node3 -->
<g id="node3" class="node">
<title>Node3</title>
<g id="a_node3"><a xlink:href="classembed_1_1i2c.html#a9bb87faac04a2d098572c50f106f7183" target="_top" xlink:title="perform an i2c transaction with another device on the bus. The type of transaction depends on values ...">
<polygon fill="white" stroke="black" points="262,-0.5 262,-19.5 378,-19.5 378,-0.5 262,-0.5"/>
<text text-anchor="middle" x="320" y="-7.5" font-family="Helvetica,sans-Serif" font-size="10.00">embed::i2c::transaction</text>
</a>
</g>
</g>
<!-- Node2&#45;&gt;Node3 -->
<g id="edge2" class="edge">
<title>Node2&#45;&gt;Node3</title>
<path fill="none" stroke="midnightblue" d="M226,-10C234.04,-10 242.87,-10 251.79,-10"/>
<polygon fill="midnightblue" stroke="midnightblue" points="251.86,-13.5 261.86,-10 251.86,-6.5 251.86,-13.5"/>
</g>
</g>
</svg>
