<?xml version="1.0" encoding="UTF-8" standalone="no"?>
<!DOCTYPE svg PUBLIC "-//W3C//DTD SVG 1.1//EN"
 "http://www.w3.org/Graphics/SVG/1.1/DTD/svg11.dtd">
<!-- Generated by graphviz version 3.0.0 (20220413.0242)
 -->
<!-- Title: hal::map Pages: 1 -->
<svg width="468pt" height="147pt"
 viewBox="0.00 0.00 468.00 147.00" xmlns="http://www.w3.org/2000/svg" xmlns:xlink="http://www.w3.org/1999/xlink">
<g id="graph0" class="graph" transform="scale(1 1) rotate(0) translate(4 143)">
<title>hal::map</title>
<polygon fill="white" stroke="transparent" points="-4,4 -4,-143 464,-143 464,4 -4,4"/>
<!-- Node1 -->
<g id="node1" class="node">
<title>Node1</title>
<g id="a_node1"><a xlink:title="Map an target value [x] from an input range [a,b] to an output range [c,d].">
<polygon fill="#bfbfbf" stroke="black" points="0,-31.5 0,-50.5 53,-50.5 53,-31.5 0,-31.5"/>
<text text-anchor="middle" x="26.5" y="-38.5" font-family="Helvetica,sans-Serif" font-size="10.00">hal::map</text>
</a>
</g>
</g>
<!-- Node2 -->
<g id="node2" class="node">
<title>Node2</title>
<g id="a_node2"><a xlink:href="classhal_1_1percent.html#a4fece281bfb4ec0f48f86b14168194ce" target="_top" xlink:title="Generate a percentage based on input relative to the maximum possible value.">
<polygon fill="white" stroke="black" points="89,-57 89,-87 179,-87 179,-57 89,-57"/>
<text text-anchor="start" x="97" y="-75" font-family="Helvetica,sans-Serif" font-size="10.00">hal::percent::from</text>
<text text-anchor="middle" x="134" y="-64" font-family="Helvetica,sans-Serif" font-size="10.00">_ratio</text>
</a>
</g>
</g>
<!-- Node1&#45;&gt;Node2 -->
<g id="edge1" class="edge">
<title>Node1&#45;&gt;Node2</title>
<path fill="none" stroke="midnightblue" d="M53.04,-48.5C60.92,-50.82 69.92,-53.46 78.97,-56.12"/>
<polygon fill="midnightblue" stroke="midnightblue" points="78.17,-59.54 88.76,-59 80.15,-52.82 78.17,-59.54"/>
</g>
<!-- Node8 -->
<g id="node8" class="node">
<title>Node8</title>
<g id="a_node8"><a xlink:href="namespacehal.html#a09499a696428213091b196699563099f" target="_top" xlink:title=" ">
<polygon fill="white" stroke="black" points="95.5,-0.5 95.5,-19.5 172.5,-19.5 172.5,-0.5 95.5,-0.5"/>
<text text-anchor="middle" x="134" y="-7.5" font-family="Helvetica,sans-Serif" font-size="10.00">hal::new_error</text>
</a>
</g>
</g>
<!-- Node1&#45;&gt;Node8 -->
<g id="edge7" class="edge">
<title>Node1&#45;&gt;Node8</title>
<path fill="none" stroke="midnightblue" d="M53.04,-33.5C64.3,-30.19 77.84,-26.21 90.54,-22.48"/>
<polygon fill="midnightblue" stroke="midnightblue" points="91.89,-25.73 100.5,-19.55 89.92,-19.01 91.89,-25.73"/>
</g>
<!-- Node3 -->
<g id="node3" class="node">
<title>Node3</title>
<g id="a_node3"><a xlink:href="classhal_1_1percent.html#ac47af31e37f0680bdefe136ee619ef9d" target="_top" xlink:title="Construct 0% percent object.">
<polygon fill="white" stroke="black" points="218.5,-119.5 218.5,-138.5 321.5,-138.5 321.5,-119.5 218.5,-119.5"/>
<text text-anchor="middle" x="270" y="-126.5" font-family="Helvetica,sans-Serif" font-size="10.00">hal::percent::percent</text>
</a>
</g>
</g>
<!-- Node2&#45;&gt;Node3 -->
<g id="edge2" class="edge">
<title>Node2&#45;&gt;Node3</title>
<path fill="none" stroke="midnightblue" d="M164.68,-87.01C179.61,-94.33 198.08,-103.03 215,-110 220.05,-112.08 225.43,-114.15 230.75,-116.11"/>
<polygon fill="midnightblue" stroke="midnightblue" points="229.61,-119.41 240.2,-119.5 231.97,-112.82 229.61,-119.41"/>
</g>
<!-- Node4 -->
<g id="node4" class="node">
<title>Node4</title>
<g id="a_node4"><a xlink:href="classhal_1_1percent.html#a3ba7db7f6ed4a72c9b5014f4b193fed0" target="_top" xlink:title="Get the 100% value in its raw representation.">
<polygon fill="white" stroke="black" points="215,-81.5 215,-100.5 325,-100.5 325,-81.5 215,-81.5"/>
<text text-anchor="middle" x="270" y="-88.5" font-family="Helvetica,sans-Serif" font-size="10.00">hal::percent::raw_max</text>
</a>
</g>
</g>
<!-- Node2&#45;&gt;Node4 -->
<g id="edge3" class="edge">
<title>Node2&#45;&gt;Node4</title>
<path fill="none" stroke="midnightblue" d="M179.25,-78.27C187.47,-79.44 196.2,-80.68 204.88,-81.91"/>
<polygon fill="midnightblue" stroke="midnightblue" points="204.6,-85.4 214.99,-83.34 205.58,-78.47 204.6,-85.4"/>
</g>
<!-- Node5 -->
<g id="node5" class="node">
<title>Node5</title>
<g id="a_node5"><a xlink:href="classhal_1_1percent.html#a36a2265034230d77794566fe966df7e1" target="_top" xlink:title="Get the &#45;100% value in its raw representation.">
<polygon fill="white" stroke="black" points="216.5,-43.5 216.5,-62.5 323.5,-62.5 323.5,-43.5 216.5,-43.5"/>
<text text-anchor="middle" x="270" y="-50.5" font-family="Helvetica,sans-Serif" font-size="10.00">hal::percent::raw_min</text>
</a>
</g>
</g>
<!-- Node2&#45;&gt;Node5 -->
<g id="edge4" class="edge">
<title>Node2&#45;&gt;Node5</title>
<path fill="none" stroke="midnightblue" d="M179.25,-65.73C187.98,-64.49 197.3,-63.17 206.5,-61.86"/>
<polygon fill="midnightblue" stroke="midnightblue" points="207.01,-65.33 216.42,-60.46 206.02,-58.39 207.01,-65.33"/>
</g>
<!-- Node6 -->
<g id="node6" class="node">
<title>Node6</title>
<g id="a_node6"><a xlink:href="group__utility.html#ga58a3550a3236310f20b92eacf593c2f0" target="_top" xlink:title="Perform integer division and round the value up if the next decimal place is greater than or equal to...">
<polygon fill="white" stroke="black" points="215.5,-5.5 215.5,-24.5 324.5,-24.5 324.5,-5.5 215.5,-5.5"/>
<text text-anchor="middle" x="270" y="-12.5" font-family="Helvetica,sans-Serif" font-size="10.00">hal::rounding_division</text>
</a>
</g>
</g>
<!-- Node2&#45;&gt;Node6 -->
<g id="edge5" class="edge">
<title>Node2&#45;&gt;Node6</title>
<path fill="none" stroke="midnightblue" d="M164.68,-56.99C179.61,-49.67 198.08,-40.97 215,-34 220.05,-31.92 225.43,-29.85 230.75,-27.89"/>
<polygon fill="midnightblue" stroke="midnightblue" points="231.97,-31.18 240.2,-24.5 229.61,-24.59 231.97,-31.18"/>
</g>
<!-- Node7 -->
<g id="node7" class="node">
<title>Node7</title>
<g id="a_node7"><a xlink:href="group__utility.html#gaac86abb9a38f4962ded5507e15dca4b9" target="_top" xlink:title="Generic absolute value function that works for integer types.">
<polygon fill="white" stroke="black" points="361,-5.5 361,-24.5 460,-24.5 460,-5.5 361,-5.5"/>
<text text-anchor="middle" x="410.5" y="-12.5" font-family="Helvetica,sans-Serif" font-size="10.00">hal::absolute_value</text>
</a>
</g>
</g>
<!-- Node6&#45;&gt;Node7 -->
<g id="edge6" class="edge">
<title>Node6&#45;&gt;Node7</title>
<path fill="none" stroke="midnightblue" d="M324.55,-15C333.08,-15 341.95,-15 350.6,-15"/>
<polygon fill="midnightblue" stroke="midnightblue" points="350.62,-18.5 360.62,-15 350.62,-11.5 350.62,-18.5"/>
</g>
<!-- Node8&#45;&gt;Node8 -->
<g id="edge8" class="edge">
<title>Node8&#45;&gt;Node8</title>
<path fill="none" stroke="midnightblue" d="M117.66,-19.76C109.71,-28.57 115.16,-38 134,-38 145.77,-38 152.32,-34.31 153.63,-29.4"/>
<polygon fill="midnightblue" stroke="midnightblue" points="156.88,-28.09 150.34,-19.76 150.26,-30.35 156.88,-28.09"/>
</g>
</g>
</svg>
