<?xml version="1.0" encoding="UTF-8" standalone="no"?>
<!DOCTYPE svg PUBLIC "-//W3C//DTD SVG 1.1//EN"
 "http://www.w3.org/Graphics/SVG/1.1/DTD/svg11.dtd">
<!-- Generated by graphviz version 3.0.0 (20220413.0242)
 -->
<!-- Title: embed::read Pages: 1 -->
<svg width="826pt" height="85pt"
 viewBox="0.00 0.00 826.00 85.00" xmlns="http://www.w3.org/2000/svg" xmlns:xlink="http://www.w3.org/1999/xlink">
<g id="graph0" class="graph" transform="scale(1 1) rotate(0) translate(4 81)">
<title>embed::read</title>
<polygon fill="white" stroke="transparent" points="-4,4 -4,-81 822,-81 822,4 -4,4"/>
<!-- Node1 -->
<g id="node1" class="node">
<title>Node1</title>
<g id="a_node1"><a xlink:title="Read bytes from a serial port.">
<polygon fill="#bfbfbf" stroke="black" points="0,-19.5 0,-38.5 69,-38.5 69,-19.5 0,-19.5"/>
<text text-anchor="middle" x="34.5" y="-26.5" font-family="Helvetica,sans-Serif" font-size="10.00">embed::read</text>
</a>
</g>
</g>
<!-- Node2 -->
<g id="node2" class="node">
<title>Node2</title>
<g id="a_node2"><a xlink:href="group__counter.html#ga53e2d568aa13881c4213fe89a2e1c42e" target="_top" xlink:title="Delay execution for a duration of time using a hardware counter.">
<polygon fill="white" stroke="black" points="117,-38.5 117,-57.5 190,-57.5 190,-38.5 117,-38.5"/>
<text text-anchor="middle" x="153.5" y="-45.5" font-family="Helvetica,sans-Serif" font-size="10.00">embed::delay</text>
</a>
</g>
</g>
<!-- Node1&#45;&gt;Node2 -->
<g id="edge1" class="edge">
<title>Node1&#45;&gt;Node2</title>
<path fill="none" stroke="midnightblue" d="M69.03,-34.44C80.86,-36.37 94.36,-38.56 107.01,-40.61"/>
<polygon fill="midnightblue" stroke="midnightblue" points="106.49,-44.07 116.93,-42.22 107.62,-37.17 106.49,-44.07"/>
</g>
<!-- Node8 -->
<g id="node8" class="node">
<title>Node8</title>
<g id="a_node8"><a xlink:href="classembed_1_1serial.html#a802629f3a40ce507d6d99c1e41ab57df" target="_top" xlink:title="Read the bytes received over the ports receiver line and stored in the serial implementations buffer....">
<polygon fill="white" stroke="black" points="105,-0.5 105,-19.5 202,-19.5 202,-0.5 105,-0.5"/>
<text text-anchor="middle" x="153.5" y="-7.5" font-family="Helvetica,sans-Serif" font-size="10.00">embed::serial::read</text>
</a>
</g>
</g>
<!-- Node1&#45;&gt;Node8 -->
<g id="edge9" class="edge">
<title>Node1&#45;&gt;Node8</title>
<path fill="none" stroke="midnightblue" d="M69.03,-23.56C77.07,-22.25 85.9,-20.82 94.7,-19.39"/>
<polygon fill="midnightblue" stroke="midnightblue" points="95.27,-22.84 104.58,-17.78 94.15,-15.93 95.27,-22.84"/>
</g>
<!-- Node2&#45;&gt;Node2 -->
<g id="edge8" class="edge">
<title>Node2&#45;&gt;Node2</title>
<path fill="none" stroke="midnightblue" d="M135.31,-57.76C126.46,-66.57 132.53,-76 153.5,-76 166.94,-76 174.25,-72.13 175.45,-67.03"/>
<polygon fill="midnightblue" stroke="midnightblue" points="178.69,-65.71 171.69,-57.76 172.2,-68.34 178.69,-65.71"/>
</g>
<!-- Node3 -->
<g id="node3" class="node">
<title>Node3</title>
<g id="a_node3"><a xlink:href="group__counter.html#ga4f1edcd06bf52209d5293e54d0d1beb6" target="_top" xlink:title="Create a timeout object based on embed::counter.">
<polygon fill="white" stroke="black" points="238,-38.5 238,-57.5 353,-57.5 353,-38.5 238,-38.5"/>
<text text-anchor="middle" x="295.5" y="-45.5" font-family="Helvetica,sans-Serif" font-size="10.00">embed::create_timeout</text>
</a>
</g>
</g>
<!-- Node2&#45;&gt;Node3 -->
<g id="edge2" class="edge">
<title>Node2&#45;&gt;Node3</title>
<path fill="none" stroke="midnightblue" d="M190.19,-48C201.63,-48 214.7,-48 227.62,-48"/>
<polygon fill="midnightblue" stroke="midnightblue" points="227.93,-51.5 237.93,-48 227.93,-44.5 227.93,-51.5"/>
</g>
<!-- Node4 -->
<g id="node4" class="node">
<title>Node4</title>
<g id="a_node4"><a xlink:href="group__utility.html#ga61711bf3d8c25b82fb37db4f53426ef0" target="_top" xlink:title="Calculate the number of cycles of this frequency within the time duration. This function is meant for...">
<polygon fill="white" stroke="black" points="398.5,-57.5 398.5,-76.5 495.5,-76.5 495.5,-57.5 398.5,-57.5"/>
<text text-anchor="middle" x="447" y="-64.5" font-family="Helvetica,sans-Serif" font-size="10.00">embed::cycles_per</text>
</a>
</g>
</g>
<!-- Node3&#45;&gt;Node4 -->
<g id="edge3" class="edge">
<title>Node3&#45;&gt;Node4</title>
<path fill="none" stroke="midnightblue" d="M353.02,-55.18C364.53,-56.65 376.66,-58.19 388.21,-59.66"/>
<polygon fill="midnightblue" stroke="midnightblue" points="387.83,-63.14 398.19,-60.92 388.71,-56.19 387.83,-63.14"/>
</g>
<!-- Node7 -->
<g id="node7" class="node">
<title>Node7</title>
<g id="a_node7"><a xlink:href="classembed_1_1counter.html#a02c24fbeaac81ef1030ff8e1a41b0738" target="_top" xlink:title="Get the uptime of the counter since it has started.">
<polygon fill="white" stroke="black" points="389,-19.5 389,-38.5 505,-38.5 505,-19.5 389,-19.5"/>
<text text-anchor="middle" x="447" y="-26.5" font-family="Helvetica,sans-Serif" font-size="10.00">embed::counter::uptime</text>
</a>
</g>
</g>
<!-- Node3&#45;&gt;Node7 -->
<g id="edge7" class="edge">
<title>Node3&#45;&gt;Node7</title>
<path fill="none" stroke="midnightblue" d="M353.02,-40.82C361.46,-39.74 370.23,-38.63 378.86,-37.53"/>
<polygon fill="midnightblue" stroke="midnightblue" points="379.43,-40.99 388.9,-36.26 378.54,-34.05 379.43,-40.99"/>
</g>
<!-- Node5 -->
<g id="node5" class="node">
<title>Node5</title>
<g id="a_node5"><a xlink:href="group__utility.html#ga6f0922a28ac81378eb689b2ab4bc299a" target="_top" xlink:title="Generic absolute value function that works for integer types.">
<polygon fill="white" stroke="black" points="702,-57.5 702,-76.5 818,-76.5 818,-57.5 702,-57.5"/>
<text text-anchor="middle" x="760" y="-64.5" font-family="Helvetica,sans-Serif" font-size="10.00">embed::absolute_value</text>
</a>
</g>
</g>
<!-- Node4&#45;&gt;Node5 -->
<g id="edge4" class="edge">
<title>Node4&#45;&gt;Node5</title>
<path fill="none" stroke="midnightblue" d="M495.57,-67C548.01,-67 632.76,-67 691.92,-67"/>
<polygon fill="midnightblue" stroke="midnightblue" points="691.93,-70.5 701.93,-67 691.93,-63.5 691.93,-70.5"/>
</g>
<!-- Node6 -->
<g id="node6" class="node">
<title>Node6</title>
<g id="a_node6"><a xlink:href="group__utility.html#ga84ea33bb969785c47247cfe0da9aa98e" target="_top" xlink:title="Perform integer division and round the value up if the next decimal place is greater than or equal to...">
<polygon fill="white" stroke="black" points="541,-38.5 541,-57.5 666,-57.5 666,-38.5 541,-38.5"/>
<text text-anchor="middle" x="603.5" y="-45.5" font-family="Helvetica,sans-Serif" font-size="10.00">embed::rounding_division</text>
</a>
</g>
</g>
<!-- Node4&#45;&gt;Node6 -->
<g id="edge5" class="edge">
<title>Node4&#45;&gt;Node6</title>
<path fill="none" stroke="midnightblue" d="M495.62,-61.14C506.77,-59.77 518.89,-58.28 530.84,-56.81"/>
<polygon fill="midnightblue" stroke="midnightblue" points="531.3,-60.28 540.8,-55.59 530.45,-53.33 531.3,-60.28"/>
</g>
<!-- Node6&#45;&gt;Node5 -->
<g id="edge6" class="edge">
<title>Node6&#45;&gt;Node5</title>
<path fill="none" stroke="midnightblue" d="M666.01,-55.56C674.47,-56.61 683.21,-57.68 691.77,-58.73"/>
<polygon fill="midnightblue" stroke="midnightblue" points="691.37,-62.21 701.72,-59.96 692.22,-55.26 691.37,-62.21"/>
</g>
</g>
</svg>
