<?xml version="1.0" encoding="UTF-8" standalone="no"?>
<!DOCTYPE svg PUBLIC "-//W3C//DTD SVG 1.1//EN"
 "http://www.w3.org/Graphics/SVG/1.1/DTD/svg11.dtd">
<!-- Generated by graphviz version 3.0.0 (20220413.0242)
 -->
<!-- Title: embed::read Pages: 1 -->
<svg width="853pt" height="105pt"
 viewBox="0.00 0.00 853.00 105.23" xmlns="http://www.w3.org/2000/svg" xmlns:xlink="http://www.w3.org/1999/xlink">
<g id="graph0" class="graph" transform="scale(1 1) rotate(0) translate(4 101.23)">
<title>embed::read</title>
<polygon fill="white" stroke="transparent" points="-4,4 -4,-101.23 849,-101.23 849,4 -4,4"/>
<!-- Node1 -->
<g id="node1" class="node">
<title>Node1</title>
<g id="a_node1"><a xlink:title="Read bytes from a serial port.">
<polygon fill="#bfbfbf" stroke="black" points="0,-19.5 0,-38.5 69,-38.5 69,-19.5 0,-19.5"/>
<text text-anchor="middle" x="34.5" y="-26.5" font-family="Helvetica,sans-Serif" font-size="10.00">embed::read</text>
</a>
</g>
</g>
<!-- Node2 -->
<g id="node2" class="node">
<title>Node2</title>
<g id="a_node2"><a xlink:href="group__counter.html#ga53e2d568aa13881c4213fe89a2e1c42e" target="_top" xlink:title="Delay execution for a duration of time using a hardware counter.">
<polygon fill="white" stroke="black" points="117,-38.5 117,-57.5 190,-57.5 190,-38.5 117,-38.5"/>
<text text-anchor="middle" x="153.5" y="-45.5" font-family="Helvetica,sans-Serif" font-size="10.00">embed::delay</text>
</a>
</g>
</g>
<!-- Node1&#45;&gt;Node2 -->
<g id="edge1" class="edge">
<title>Node1&#45;&gt;Node2</title>
<path fill="none" stroke="midnightblue" d="M69.03,-34.44C80.86,-36.37 94.36,-38.56 107.01,-40.61"/>
<polygon fill="midnightblue" stroke="midnightblue" points="106.49,-44.07 116.93,-42.22 107.62,-37.17 106.49,-44.07"/>
</g>
<!-- Node9 -->
<g id="node9" class="node">
<title>Node9</title>
<g id="a_node9"><a xlink:href="classembed_1_1serial.html#a802629f3a40ce507d6d99c1e41ab57df" target="_top" xlink:title="Read the bytes received over the ports receiver line and stored in the serial implementations buffer....">
<polygon fill="white" stroke="black" points="105,-0.5 105,-19.5 202,-19.5 202,-0.5 105,-0.5"/>
<text text-anchor="middle" x="153.5" y="-7.5" font-family="Helvetica,sans-Serif" font-size="10.00">embed::serial::read</text>
</a>
</g>
</g>
<!-- Node1&#45;&gt;Node9 -->
<g id="edge10" class="edge">
<title>Node1&#45;&gt;Node9</title>
<path fill="none" stroke="midnightblue" d="M69.03,-23.56C77.07,-22.25 85.9,-20.82 94.7,-19.39"/>
<polygon fill="midnightblue" stroke="midnightblue" points="95.27,-22.84 104.58,-17.78 94.15,-15.93 95.27,-22.84"/>
</g>
<!-- Node2&#45;&gt;Node2 -->
<g id="edge9" class="edge">
<title>Node2&#45;&gt;Node2</title>
<path fill="none" stroke="midnightblue" d="M135.31,-57.76C126.46,-66.57 132.53,-76 153.5,-76 166.94,-76 174.25,-72.13 175.45,-67.03"/>
<polygon fill="midnightblue" stroke="midnightblue" points="178.69,-65.71 171.69,-57.76 172.2,-68.34 178.69,-65.71"/>
</g>
<!-- Node3 -->
<g id="node3" class="node">
<title>Node3</title>
<g id="a_node3"><a xlink:href="group__counter.html#ga4f1edcd06bf52209d5293e54d0d1beb6" target="_top" xlink:title="Create a timeout object based on embed::counter.">
<polygon fill="white" stroke="black" points="238,-38.5 238,-57.5 353,-57.5 353,-38.5 238,-38.5"/>
<text text-anchor="middle" x="295.5" y="-45.5" font-family="Helvetica,sans-Serif" font-size="10.00">embed::create_timeout</text>
</a>
</g>
</g>
<!-- Node2&#45;&gt;Node3 -->
<g id="edge2" class="edge">
<title>Node2&#45;&gt;Node3</title>
<path fill="none" stroke="midnightblue" d="M190.19,-48C201.63,-48 214.7,-48 227.62,-48"/>
<polygon fill="midnightblue" stroke="midnightblue" points="227.93,-51.5 237.93,-48 227.93,-44.5 227.93,-51.5"/>
</g>
<!-- Node4 -->
<g id="node4" class="node">
<title>Node4</title>
<g id="a_node4"><a xlink:href="classembed_1_1frequency.html#aa67b1e2379926c43c248b98207ff95a0" target="_top" xlink:title="Calculate the number of cycles of this frequency within the time duration. This function is meant for...">
<polygon fill="white" stroke="black" points="389,-57.5 389,-76.5 532,-76.5 532,-57.5 389,-57.5"/>
<text text-anchor="middle" x="460.5" y="-64.5" font-family="Helvetica,sans-Serif" font-size="10.00">embed::frequency::cycles_per</text>
</a>
</g>
</g>
<!-- Node3&#45;&gt;Node4 -->
<g id="edge3" class="edge">
<title>Node3&#45;&gt;Node4</title>
<path fill="none" stroke="midnightblue" d="M353.05,-54.59C361.38,-55.56 370.09,-56.58 378.79,-57.59"/>
<polygon fill="midnightblue" stroke="midnightblue" points="378.64,-61.1 388.97,-58.78 379.45,-54.14 378.64,-61.1"/>
</g>
<!-- Node8 -->
<g id="node8" class="node">
<title>Node8</title>
<g id="a_node8"><a xlink:href="classembed_1_1counter.html#a02c24fbeaac81ef1030ff8e1a41b0738" target="_top" xlink:title="Get the uptime of the counter since it has started.">
<polygon fill="white" stroke="black" points="402.5,-19.5 402.5,-38.5 518.5,-38.5 518.5,-19.5 402.5,-19.5"/>
<text text-anchor="middle" x="460.5" y="-26.5" font-family="Helvetica,sans-Serif" font-size="10.00">embed::counter::uptime</text>
</a>
</g>
</g>
<!-- Node3&#45;&gt;Node8 -->
<g id="edge8" class="edge">
<title>Node3&#45;&gt;Node8</title>
<path fill="none" stroke="midnightblue" d="M353.05,-41.41C365.68,-39.94 379.18,-38.36 392.2,-36.85"/>
<polygon fill="midnightblue" stroke="midnightblue" points="392.97,-40.28 402.5,-35.64 392.16,-33.33 392.97,-40.28"/>
</g>
<!-- Node5 -->
<g id="node5" class="node">
<title>Node5</title>
<g id="a_node5"><a xlink:href="namespaceembed.html#a6f0922a28ac81378eb689b2ab4bc299a" target="_top" xlink:title="Generic absolute value function that works for integer types.">
<polygon fill="white" stroke="black" points="729,-57.5 729,-76.5 845,-76.5 845,-57.5 729,-57.5"/>
<text text-anchor="middle" x="787" y="-64.5" font-family="Helvetica,sans-Serif" font-size="10.00">embed::absolute_value</text>
</a>
</g>
</g>
<!-- Node4&#45;&gt;Node5 -->
<g id="edge4" class="edge">
<title>Node4&#45;&gt;Node5</title>
<path fill="none" stroke="midnightblue" d="M493.78,-76.63C514.72,-82.36 542.72,-89.07 568,-92 623.19,-98.39 637.92,-99.27 693,-92 711.39,-89.57 731.32,-84.55 747.98,-79.64"/>
<polygon fill="midnightblue" stroke="midnightblue" points="749.35,-82.88 757.9,-76.62 747.31,-76.19 749.35,-82.88"/>
</g>
<!-- Node6 -->
<g id="node6" class="node">
<title>Node6</title>
<g id="a_node6"><a xlink:href="classembed_1_1frequency.html#ae253d42390060843082b1ef6c2b300ec" target="_top" xlink:title="Get the frequency as an integer.">
<polygon fill="white" stroke="black" points="568,-52 568,-82 693,-82 693,-52 568,-52"/>
<text text-anchor="start" x="576" y="-70" font-family="Helvetica,sans-Serif" font-size="10.00">embed::frequency::cycles</text>
<text text-anchor="middle" x="630.5" y="-59" font-family="Helvetica,sans-Serif" font-size="10.00">_per_second</text>
</a>
</g>
</g>
<!-- Node4&#45;&gt;Node6 -->
<g id="edge5" class="edge">
<title>Node4&#45;&gt;Node6</title>
<path fill="none" stroke="midnightblue" d="M532.26,-67C540.68,-67 549.27,-67 557.7,-67"/>
<polygon fill="midnightblue" stroke="midnightblue" points="557.88,-70.5 567.88,-67 557.88,-63.5 557.88,-70.5"/>
</g>
<!-- Node7 -->
<g id="node7" class="node">
<title>Node7</title>
<g id="a_node7"><a xlink:href="namespaceembed.html#a84ea33bb969785c47247cfe0da9aa98e" target="_top" xlink:title="Perform integer division and round the value up if the next decimal place is greater than or equal to...">
<polygon fill="white" stroke="black" points="568,-13.5 568,-32.5 693,-32.5 693,-13.5 568,-13.5"/>
<text text-anchor="middle" x="630.5" y="-20.5" font-family="Helvetica,sans-Serif" font-size="10.00">embed::rounding_division</text>
</a>
</g>
</g>
<!-- Node4&#45;&gt;Node7 -->
<g id="edge6" class="edge">
<title>Node4&#45;&gt;Node7</title>
<path fill="none" stroke="midnightblue" d="M497.95,-57.45C522.94,-50.91 556.3,-42.17 583.17,-35.13"/>
<polygon fill="midnightblue" stroke="midnightblue" points="584.33,-38.45 593.12,-32.53 582.56,-31.68 584.33,-38.45"/>
</g>
<!-- Node7&#45;&gt;Node5 -->
<g id="edge7" class="edge">
<title>Node7&#45;&gt;Node5</title>
<path fill="none" stroke="midnightblue" d="M665.02,-32.55C687.8,-39.03 718.14,-47.67 742.74,-54.68"/>
<polygon fill="midnightblue" stroke="midnightblue" points="741.96,-58.1 752.54,-57.47 743.88,-51.37 741.96,-58.1"/>
</g>
</g>
</svg>
