<?xml version="1.0" encoding="UTF-8" standalone="no"?>
<!DOCTYPE svg PUBLIC "-//W3C//DTD SVG 1.1//EN"
 "http://www.w3.org/Graphics/SVG/1.1/DTD/svg11.dtd">
<!-- Generated by graphviz version 3.0.0 (20220413.0242)
 -->
<!-- Title: hal::create_timeout Pages: 1 -->
<svg width="666pt" height="172pt"
 viewBox="0.00 0.00 666.00 171.50" xmlns="http://www.w3.org/2000/svg" xmlns:xlink="http://www.w3.org/1999/xlink">
<g id="graph0" class="graph" transform="scale(1 1) rotate(0) translate(4 167.5)">
<title>hal::create_timeout</title>
<polygon fill="white" stroke="transparent" points="-4,4 -4,-167.5 662,-167.5 662,4 -4,4"/>
<!-- Node1 -->
<g id="node1" class="node">
<title>Node1</title>
<g id="a_node1"><a xlink:title="Create a timeout object based on hal::counter.">
<polygon fill="#bfbfbf" stroke="black" points="0,-66.5 0,-85.5 98,-85.5 98,-66.5 0,-66.5"/>
<text text-anchor="middle" x="49" y="-73.5" font-family="Helvetica,sans-Serif" font-size="10.00">hal::create_timeout</text>
</a>
</g>
</g>
<!-- Node2 -->
<g id="node2" class="node">
<title>Node2</title>
<g id="a_node2"><a xlink:href="classhal_1_1counter__timeout.html#a6ee789453ce4aaddee20f61e835c1bb5" target="_top" xlink:title="Create a counter_timeout.">
<polygon fill="white" stroke="black" points="134,-61 134,-91 238,-91 238,-61 134,-61"/>
<text text-anchor="start" x="142" y="-79" font-family="Helvetica,sans-Serif" font-size="10.00">hal::counter_timeout</text>
<text text-anchor="middle" x="186" y="-68" font-family="Helvetica,sans-Serif" font-size="10.00">::create</text>
</a>
</g>
</g>
<!-- Node1&#45;&gt;Node2 -->
<g id="edge1" class="edge">
<title>Node1&#45;&gt;Node2</title>
<path fill="none" stroke="midnightblue" d="M98.36,-76C106.53,-76 115.12,-76 123.57,-76"/>
<polygon fill="midnightblue" stroke="midnightblue" points="123.79,-79.5 133.79,-76 123.79,-72.5 123.79,-79.5"/>
</g>
<!-- Node3 -->
<g id="node3" class="node">
<title>Node3</title>
<g id="a_node3"><a xlink:href="classhal_1_1counter__timeout.html#ae543adb6965def1209baf5a2f91cd692" target="_top" xlink:title="Construct a new counter timeout object.">
<polygon fill="white" stroke="black" points="274,-133 274,-163 378,-163 378,-133 274,-133"/>
<text text-anchor="start" x="282" y="-151" font-family="Helvetica,sans-Serif" font-size="10.00">hal::counter_timeout</text>
<text text-anchor="middle" x="326" y="-140" font-family="Helvetica,sans-Serif" font-size="10.00">::counter_timeout</text>
</a>
</g>
</g>
<!-- Node2&#45;&gt;Node3 -->
<g id="edge2" class="edge">
<title>Node2&#45;&gt;Node3</title>
<path fill="none" stroke="midnightblue" d="M214.28,-91.1C231.35,-100.45 253.85,-112.63 274,-123 277.5,-124.8 281.15,-126.65 284.81,-128.49"/>
<polygon fill="midnightblue" stroke="midnightblue" points="283.37,-131.68 293.89,-132.99 286.49,-125.41 283.37,-131.68"/>
</g>
<!-- Node4 -->
<g id="node4" class="node">
<title>Node4</title>
<g id="a_node4"><a xlink:href="group__utility.html#ga9f67c4dbb94efa24f2d8852bf6e424cc" target="_top" xlink:title="Calculate the number of cycles of this frequency within the time duration. This function is meant for...">
<polygon fill="white" stroke="black" points="286,-94.5 286,-113.5 366,-113.5 366,-94.5 286,-94.5"/>
<text text-anchor="middle" x="326" y="-101.5" font-family="Helvetica,sans-Serif" font-size="10.00">hal::cycles_per</text>
</a>
</g>
</g>
<!-- Node2&#45;&gt;Node4 -->
<g id="edge3" class="edge">
<title>Node2&#45;&gt;Node4</title>
<path fill="none" stroke="midnightblue" d="M238.39,-86.43C250.6,-88.9 263.6,-91.54 275.72,-94"/>
<polygon fill="midnightblue" stroke="midnightblue" points="275.15,-97.46 285.65,-96.02 276.55,-90.6 275.15,-97.46"/>
</g>
<!-- Node7 -->
<g id="node7" class="node">
<title>Node7</title>
<g id="a_node7"><a xlink:href="namespacehal.html#a09499a696428213091b196699563099f" target="_top" xlink:title=" ">
<polygon fill="white" stroke="black" points="287.5,-38.5 287.5,-57.5 364.5,-57.5 364.5,-38.5 287.5,-38.5"/>
<text text-anchor="middle" x="326" y="-45.5" font-family="Helvetica,sans-Serif" font-size="10.00">hal::new_error</text>
</a>
</g>
</g>
<!-- Node2&#45;&gt;Node7 -->
<g id="edge7" class="edge">
<title>Node2&#45;&gt;Node7</title>
<path fill="none" stroke="midnightblue" d="M238.39,-65.57C251.21,-62.97 264.89,-60.2 277.51,-57.63"/>
<polygon fill="midnightblue" stroke="midnightblue" points="278.27,-61.05 287.37,-55.63 276.87,-54.19 278.27,-61.05"/>
</g>
<!-- Node8 -->
<g id="node8" class="node">
<title>Node8</title>
<g id="a_node8"><a xlink:href="classhal_1_1counter.html#a9c428b0843d7b4dfdc6b433a309cb71f" target="_top" xlink:title="Get the uptime of the counter since it has started.">
<polygon fill="white" stroke="black" points="276,-0.5 276,-19.5 376,-19.5 376,-0.5 276,-0.5"/>
<text text-anchor="middle" x="326" y="-7.5" font-family="Helvetica,sans-Serif" font-size="10.00">hal::counter::uptime</text>
</a>
</g>
</g>
<!-- Node2&#45;&gt;Node8 -->
<g id="edge9" class="edge">
<title>Node2&#45;&gt;Node8</title>
<path fill="none" stroke="midnightblue" d="M212.79,-60.84C229.86,-51.12 252.9,-38.58 274,-29 278.39,-27.01 283.06,-25.05 287.72,-23.2"/>
<polygon fill="midnightblue" stroke="midnightblue" points="289.11,-26.42 297.19,-19.57 286.6,-19.88 289.11,-26.42"/>
</g>
<!-- Node5 -->
<g id="node5" class="node">
<title>Node5</title>
<g id="a_node5"><a xlink:href="group__utility.html#gaac86abb9a38f4962ded5507e15dca4b9" target="_top" xlink:title="Generic absolute value function that works for integer types.">
<polygon fill="white" stroke="black" points="559,-94.5 559,-113.5 658,-113.5 658,-94.5 559,-94.5"/>
<text text-anchor="middle" x="608.5" y="-101.5" font-family="Helvetica,sans-Serif" font-size="10.00">hal::absolute_value</text>
</a>
</g>
</g>
<!-- Node4&#45;&gt;Node5 -->
<g id="edge4" class="edge">
<title>Node4&#45;&gt;Node5</title>
<path fill="none" stroke="midnightblue" d="M366,-104C413.38,-104 493.76,-104 548.67,-104"/>
<polygon fill="midnightblue" stroke="midnightblue" points="548.95,-107.5 558.95,-104 548.95,-100.5 548.95,-107.5"/>
</g>
<!-- Node6 -->
<g id="node6" class="node">
<title>Node6</title>
<g id="a_node6"><a xlink:href="group__utility.html#ga58a3550a3236310f20b92eacf593c2f0" target="_top" xlink:title="Perform integer division and round the value up if the next decimal place is greater than or equal to...">
<polygon fill="white" stroke="black" points="414,-75.5 414,-94.5 523,-94.5 523,-75.5 414,-75.5"/>
<text text-anchor="middle" x="468.5" y="-82.5" font-family="Helvetica,sans-Serif" font-size="10.00">hal::rounding_division</text>
</a>
</g>
</g>
<!-- Node4&#45;&gt;Node6 -->
<g id="edge5" class="edge">
<title>Node4&#45;&gt;Node6</title>
<path fill="none" stroke="midnightblue" d="M366.14,-98.71C377.8,-97.13 390.89,-95.36 403.7,-93.63"/>
<polygon fill="midnightblue" stroke="midnightblue" points="404.43,-97.06 413.87,-92.25 403.49,-90.12 404.43,-97.06"/>
</g>
<!-- Node6&#45;&gt;Node5 -->
<g id="edge6" class="edge">
<title>Node6&#45;&gt;Node5</title>
<path fill="none" stroke="midnightblue" d="M523.25,-92.4C531.54,-93.54 540.13,-94.72 548.52,-95.88"/>
<polygon fill="midnightblue" stroke="midnightblue" points="548.24,-99.37 558.62,-97.27 549.2,-92.44 548.24,-99.37"/>
</g>
<!-- Node7&#45;&gt;Node7 -->
<g id="edge8" class="edge">
<title>Node7&#45;&gt;Node7</title>
<path fill="none" stroke="midnightblue" d="M304.42,-57.76C293.92,-66.57 301.12,-76 326,-76 341.94,-76 350.62,-72.13 352.04,-67.03"/>
<polygon fill="midnightblue" stroke="midnightblue" points="355.07,-65.25 347.58,-57.76 348.76,-68.29 355.07,-65.25"/>
</g>
</g>
</svg>
