<?xml version="1.0" encoding="UTF-8" standalone="no"?>
<!DOCTYPE svg PUBLIC "-//W3C//DTD SVG 1.1//EN"
 "http://www.w3.org/Graphics/SVG/1.1/DTD/svg11.dtd">
<!-- Generated by graphviz version 3.0.0 (20220413.0242)
 -->
<!-- Title: hal::calculate_duty_cycle Pages: 1 -->
<svg width="516pt" height="134pt"
 viewBox="0.00 0.00 516.00 133.50" xmlns="http://www.w3.org/2000/svg" xmlns:xlink="http://www.w3.org/1999/xlink">
<g id="graph0" class="graph" transform="scale(1 1) rotate(0) translate(4 129.5)">
<title>hal::calculate_duty_cycle</title>
<polygon fill="white" stroke="transparent" points="-4,4 -4,-129.5 512,-129.5 512,4 -4,4"/>
<!-- Node1 -->
<g id="node1" class="node">
<title>Node1</title>
<g id="a_node1"><a xlink:title="Calculate a duty cycle based on a source frequency, target wavelength and a percentage.">
<polygon fill="#bfbfbf" stroke="black" points="0,-51 0,-81 96,-81 96,-51 0,-51"/>
<text text-anchor="start" x="8" y="-69" font-family="Helvetica,sans-Serif" font-size="10.00">hal::calculate_duty</text>
<text text-anchor="middle" x="48" y="-58" font-family="Helvetica,sans-Serif" font-size="10.00">_cycle</text>
</a>
</g>
</g>
<!-- Node2 -->
<g id="node2" class="node">
<title>Node2</title>
<g id="a_node2"><a xlink:href="group__utility.html#gaae8926027334510d6e08aa55f923ef77" target="_top" xlink:title="Generate a duty_cycle object based on the percent value and the input count value....">
<polygon fill="white" stroke="black" points="132,-95 132,-125 228,-125 228,-95 132,-95"/>
<text text-anchor="start" x="140" y="-113" font-family="Helvetica,sans-Serif" font-size="10.00">hal::calculate_duty</text>
<text text-anchor="middle" x="180" y="-102" font-family="Helvetica,sans-Serif" font-size="10.00">_cycle</text>
</a>
</g>
</g>
<!-- Node1&#45;&gt;Node2 -->
<g id="edge1" class="edge">
<title>Node1&#45;&gt;Node2</title>
<path fill="none" stroke="midnightblue" d="M93.38,-81.02C103.51,-84.45 114.4,-88.13 124.89,-91.69"/>
<polygon fill="midnightblue" stroke="midnightblue" points="123.79,-95.01 134.38,-94.9 126.03,-88.38 123.79,-95.01"/>
</g>
<!-- Node3 -->
<g id="node3" class="node">
<title>Node3</title>
<g id="a_node3"><a xlink:href="group__utility.html#ga9f67c4dbb94efa24f2d8852bf6e424cc" target="_top" xlink:title="Calculate the number of cycles of this frequency within the time duration. This function is meant for...">
<polygon fill="white" stroke="black" points="140,-56.5 140,-75.5 220,-75.5 220,-56.5 140,-56.5"/>
<text text-anchor="middle" x="180" y="-63.5" font-family="Helvetica,sans-Serif" font-size="10.00">hal::cycles_per</text>
</a>
</g>
</g>
<!-- Node1&#45;&gt;Node3 -->
<g id="edge2" class="edge">
<title>Node1&#45;&gt;Node3</title>
<path fill="none" stroke="midnightblue" d="M96.3,-66C107.08,-66 118.57,-66 129.44,-66"/>
<polygon fill="midnightblue" stroke="midnightblue" points="129.64,-69.5 139.64,-66 129.64,-62.5 129.64,-69.5"/>
</g>
<!-- Node6 -->
<g id="node6" class="node">
<title>Node6</title>
<g id="a_node6"><a xlink:href="namespacehal.html#a09499a696428213091b196699563099f" target="_top" xlink:title=" ">
<polygon fill="white" stroke="black" points="141.5,-0.5 141.5,-19.5 218.5,-19.5 218.5,-0.5 141.5,-0.5"/>
<text text-anchor="middle" x="180" y="-7.5" font-family="Helvetica,sans-Serif" font-size="10.00">hal::new_error</text>
</a>
</g>
</g>
<!-- Node1&#45;&gt;Node6 -->
<g id="edge6" class="edge">
<title>Node1&#45;&gt;Node6</title>
<path fill="none" stroke="midnightblue" d="M83.84,-50.99C103.65,-42.46 128.28,-31.85 147.51,-23.56"/>
<polygon fill="midnightblue" stroke="midnightblue" points="148.95,-26.76 156.75,-19.58 146.18,-20.33 148.95,-26.76"/>
</g>
<!-- Node4 -->
<g id="node4" class="node">
<title>Node4</title>
<g id="a_node4"><a xlink:href="group__utility.html#gaac86abb9a38f4962ded5507e15dca4b9" target="_top" xlink:title="Generic absolute value function that works for integer types.">
<polygon fill="white" stroke="black" points="409,-56.5 409,-75.5 508,-75.5 508,-56.5 409,-56.5"/>
<text text-anchor="middle" x="458.5" y="-63.5" font-family="Helvetica,sans-Serif" font-size="10.00">hal::absolute_value</text>
</a>
</g>
</g>
<!-- Node3&#45;&gt;Node4 -->
<g id="edge3" class="edge">
<title>Node3&#45;&gt;Node4</title>
<path fill="none" stroke="midnightblue" d="M220.03,-66C266.6,-66 344.92,-66 398.8,-66"/>
<polygon fill="midnightblue" stroke="midnightblue" points="398.9,-69.5 408.9,-66 398.9,-62.5 398.9,-69.5"/>
</g>
<!-- Node5 -->
<g id="node5" class="node">
<title>Node5</title>
<g id="a_node5"><a xlink:href="group__utility.html#ga58a3550a3236310f20b92eacf593c2f0" target="_top" xlink:title="Perform integer division and round the value up if the next decimal place is greater than or equal to...">
<polygon fill="white" stroke="black" points="264,-37.5 264,-56.5 373,-56.5 373,-37.5 264,-37.5"/>
<text text-anchor="middle" x="318.5" y="-44.5" font-family="Helvetica,sans-Serif" font-size="10.00">hal::rounding_division</text>
</a>
</g>
</g>
<!-- Node3&#45;&gt;Node5 -->
<g id="edge4" class="edge">
<title>Node3&#45;&gt;Node5</title>
<path fill="none" stroke="midnightblue" d="M220.12,-60.56C230.66,-59.09 242.34,-57.46 253.85,-55.86"/>
<polygon fill="midnightblue" stroke="midnightblue" points="254.46,-59.31 263.88,-54.46 253.49,-52.38 254.46,-59.31"/>
</g>
<!-- Node5&#45;&gt;Node4 -->
<g id="edge5" class="edge">
<title>Node5&#45;&gt;Node4</title>
<path fill="none" stroke="midnightblue" d="M373.25,-54.4C381.54,-55.54 390.13,-56.72 398.52,-57.88"/>
<polygon fill="midnightblue" stroke="midnightblue" points="398.24,-61.37 408.62,-59.27 399.2,-54.44 398.24,-61.37"/>
</g>
<!-- Node6&#45;&gt;Node6 -->
<g id="edge7" class="edge">
<title>Node6&#45;&gt;Node6</title>
<path fill="none" stroke="midnightblue" d="M159.65,-19.76C149.76,-28.57 156.54,-38 180,-38 195.03,-38 203.21,-34.13 204.55,-29.03"/>
<polygon fill="midnightblue" stroke="midnightblue" points="207.67,-27.42 200.35,-19.76 201.29,-30.31 207.67,-27.42"/>
</g>
</g>
</svg>
