<?xml version="1.0" encoding="UTF-8" standalone="no"?>
<!DOCTYPE svg PUBLIC "-//W3C//DTD SVG 1.1//EN"
 "http://www.w3.org/Graphics/SVG/1.1/DTD/svg11.dtd">
<!-- Generated by graphviz version 3.0.0 (20220413.0242)
 -->
<!-- Title: hal::operator* Pages: 1 -->
<svg width="297pt" height="46pt"
 viewBox="0.00 0.00 297.00 46.00" xmlns="http://www.w3.org/2000/svg" xmlns:xlink="http://www.w3.org/1999/xlink">
<g id="graph0" class="graph" transform="scale(1 1) rotate(0) translate(4 42)">
<title>hal::operator*</title>
<polygon fill="white" stroke="transparent" points="-4,4 -4,-42 293,-42 293,4 -4,4"/>
<!-- Node1 -->
<g id="node1" class="node">
<title>Node1</title>
<g id="a_node1"><a xlink:title="Scale up a frequency by an integer factor.">
<polygon fill="#bfbfbf" stroke="black" points="0,-0.5 0,-19.5 73,-19.5 73,-0.5 0,-0.5"/>
<text text-anchor="middle" x="36.5" y="-7.5" font-family="Helvetica,sans-Serif" font-size="10.00">hal::operator*</text>
</a>
</g>
</g>
<!-- Node2 -->
<g id="node2" class="node">
<title>Node2</title>
<g id="a_node2"><a xlink:href="group__utility.html#ga1a1854d7dd6cd69a1f09b4aba350f86a" target="_top" xlink:title="Perform multiply operation and return an error code std::errc::result_out_of_range if the two values ...">
<polygon fill="white" stroke="black" points="109,-0.5 109,-19.5 176,-19.5 176,-0.5 109,-0.5"/>
<text text-anchor="middle" x="142.5" y="-7.5" font-family="Helvetica,sans-Serif" font-size="10.00">hal::multiply</text>
</a>
</g>
</g>
<!-- Node1&#45;&gt;Node2 -->
<g id="edge1" class="edge">
<title>Node1&#45;&gt;Node2</title>
<path fill="none" stroke="midnightblue" d="M73,-10C81.28,-10 90.19,-10 98.75,-10"/>
<polygon fill="midnightblue" stroke="midnightblue" points="98.96,-13.5 108.96,-10 98.96,-6.5 98.96,-13.5"/>
</g>
<!-- Node3 -->
<g id="node3" class="node">
<title>Node3</title>
<g id="a_node3"><a xlink:href="namespacehal.html#a09499a696428213091b196699563099f" target="_top" xlink:title=" ">
<polygon fill="white" stroke="black" points="212,-0.5 212,-19.5 289,-19.5 289,-0.5 212,-0.5"/>
<text text-anchor="middle" x="250.5" y="-7.5" font-family="Helvetica,sans-Serif" font-size="10.00">hal::new_error</text>
</a>
</g>
</g>
<!-- Node2&#45;&gt;Node3 -->
<g id="edge2" class="edge">
<title>Node2&#45;&gt;Node3</title>
<path fill="none" stroke="midnightblue" d="M176.17,-10C184.3,-10 193.19,-10 201.88,-10"/>
<polygon fill="midnightblue" stroke="midnightblue" points="201.93,-13.5 211.93,-10 201.93,-6.5 201.93,-13.5"/>
</g>
<!-- Node3&#45;&gt;Node3 -->
<g id="edge3" class="edge">
<title>Node3&#45;&gt;Node3</title>
<path fill="none" stroke="midnightblue" d="M233.85,-19.76C225.76,-28.57 231.3,-38 250.5,-38 262.5,-38 269.16,-34.31 270.5,-29.4"/>
<polygon fill="midnightblue" stroke="midnightblue" points="273.74,-28.05 267.15,-19.76 267.12,-30.35 273.74,-28.05"/>
</g>
</g>
</svg>
