<?xml version="1.0" encoding="UTF-8" standalone="no"?>
<!DOCTYPE svg PUBLIC "-//W3C//DTD SVG 1.1//EN"
 "http://www.w3.org/Graphics/SVG/1.1/DTD/svg11.dtd">
<!-- Generated by graphviz version 3.0.0 (20220413.0242)
 -->
<!-- Title: hal::delay Pages: 1 -->
<svg width="758pt" height="172pt"
 viewBox="0.00 0.00 758.00 171.50" xmlns="http://www.w3.org/2000/svg" xmlns:xlink="http://www.w3.org/1999/xlink">
<g id="graph0" class="graph" transform="scale(1 1) rotate(0) translate(4 167.5)">
<title>hal::delay</title>
<polygon fill="white" stroke="transparent" points="-4,4 -4,-167.5 754,-167.5 754,4 -4,4"/>
<!-- Node1 -->
<g id="node1" class="node">
<title>Node1</title>
<g id="a_node1"><a xlink:title="Delay execution for a duration of time using a hardware counter.">
<polygon fill="#bfbfbf" stroke="black" points="0,-25.5 0,-44.5 56,-44.5 56,-25.5 0,-25.5"/>
<text text-anchor="middle" x="28" y="-32.5" font-family="Helvetica,sans-Serif" font-size="10.00">hal::delay</text>
</a>
</g>
</g>
<!-- Node1&#45;&gt;Node1 -->
<g id="edge11" class="edge">
<title>Node1&#45;&gt;Node1</title>
<path fill="none" stroke="midnightblue" d="M10.74,-44.76C2.34,-53.57 8.09,-63 28,-63 40.44,-63 47.35,-59.31 48.74,-54.4"/>
<polygon fill="midnightblue" stroke="midnightblue" points="51.95,-52.98 45.26,-44.76 45.36,-55.35 51.95,-52.98"/>
</g>
<!-- Node2 -->
<g id="node2" class="node">
<title>Node2</title>
<g id="a_node2"><a xlink:href="group__counter.html#ga3fb156fd09b7bff2df7c0fb36b7a1357" target="_top" xlink:title="Create a timeout object based on hal::counter.">
<polygon fill="white" stroke="black" points="92,-47.5 92,-66.5 190,-66.5 190,-47.5 92,-47.5"/>
<text text-anchor="middle" x="141" y="-54.5" font-family="Helvetica,sans-Serif" font-size="10.00">hal::create_timeout</text>
</a>
</g>
</g>
<!-- Node1&#45;&gt;Node2 -->
<g id="edge1" class="edge">
<title>Node1&#45;&gt;Node2</title>
<path fill="none" stroke="midnightblue" d="M56.15,-40.38C64.07,-41.95 73.04,-43.73 82.1,-45.52"/>
<polygon fill="midnightblue" stroke="midnightblue" points="81.42,-48.96 91.91,-47.47 82.79,-42.09 81.42,-48.96"/>
</g>
<!-- Node8 -->
<g id="node8" class="node">
<title>Node8</title>
<g id="a_node8"><a xlink:href="namespacehal.html#a09499a696428213091b196699563099f" target="_top" xlink:title=" ">
<polygon fill="white" stroke="black" points="379.5,-0.5 379.5,-19.5 456.5,-19.5 456.5,-0.5 379.5,-0.5"/>
<text text-anchor="middle" x="418" y="-7.5" font-family="Helvetica,sans-Serif" font-size="10.00">hal::new_error</text>
</a>
</g>
</g>
<!-- Node1&#45;&gt;Node8 -->
<g id="edge12" class="edge">
<title>Node1&#45;&gt;Node8</title>
<path fill="none" stroke="midnightblue" d="M56.28,-33.24C121.54,-29.04 287.3,-18.36 369.42,-13.07"/>
<polygon fill="midnightblue" stroke="midnightblue" points="369.72,-16.55 379.48,-12.42 369.27,-9.57 369.72,-16.55"/>
</g>
<!-- Node3 -->
<g id="node3" class="node">
<title>Node3</title>
<g id="a_node3"><a xlink:href="classhal_1_1counter__timeout.html#a6ee789453ce4aaddee20f61e835c1bb5" target="_top" xlink:title="Create a counter_timeout.">
<polygon fill="white" stroke="black" points="226,-51 226,-81 330,-81 330,-51 226,-51"/>
<text text-anchor="start" x="234" y="-69" font-family="Helvetica,sans-Serif" font-size="10.00">hal::counter_timeout</text>
<text text-anchor="middle" x="278" y="-58" font-family="Helvetica,sans-Serif" font-size="10.00">::create</text>
</a>
</g>
</g>
<!-- Node2&#45;&gt;Node3 -->
<g id="edge2" class="edge">
<title>Node2&#45;&gt;Node3</title>
<path fill="none" stroke="midnightblue" d="M190.36,-60.22C198.53,-60.77 207.12,-61.34 215.57,-61.9"/>
<polygon fill="midnightblue" stroke="midnightblue" points="215.58,-65.41 225.79,-62.59 216.04,-58.43 215.58,-65.41"/>
</g>
<!-- Node4 -->
<g id="node4" class="node">
<title>Node4</title>
<g id="a_node4"><a xlink:href="classhal_1_1counter__timeout.html#ae543adb6965def1209baf5a2f91cd692" target="_top" xlink:title="Construct a new counter timeout object.">
<polygon fill="white" stroke="black" points="366,-133 366,-163 470,-163 470,-133 366,-133"/>
<text text-anchor="start" x="374" y="-151" font-family="Helvetica,sans-Serif" font-size="10.00">hal::counter_timeout</text>
<text text-anchor="middle" x="418" y="-140" font-family="Helvetica,sans-Serif" font-size="10.00">::counter_timeout</text>
</a>
</g>
</g>
<!-- Node3&#45;&gt;Node4 -->
<g id="edge3" class="edge">
<title>Node3&#45;&gt;Node4</title>
<path fill="none" stroke="midnightblue" d="M300.34,-81.05C317.67,-93.02 342.94,-109.86 366,-123 369.19,-124.82 372.52,-126.63 375.9,-128.41"/>
<polygon fill="midnightblue" stroke="midnightblue" points="374.36,-131.55 384.85,-133 377.55,-125.32 374.36,-131.55"/>
</g>
<!-- Node5 -->
<g id="node5" class="node">
<title>Node5</title>
<g id="a_node5"><a xlink:href="group__utility.html#ga9f67c4dbb94efa24f2d8852bf6e424cc" target="_top" xlink:title="Calculate the number of cycles of this frequency within the time duration. This function is meant for...">
<polygon fill="white" stroke="black" points="378,-94.5 378,-113.5 458,-113.5 458,-94.5 378,-94.5"/>
<text text-anchor="middle" x="418" y="-101.5" font-family="Helvetica,sans-Serif" font-size="10.00">hal::cycles_per</text>
</a>
</g>
</g>
<!-- Node3&#45;&gt;Node5 -->
<g id="edge4" class="edge">
<title>Node3&#45;&gt;Node5</title>
<path fill="none" stroke="midnightblue" d="M330.39,-80.15C344.19,-83.95 359,-88.03 372.39,-91.72"/>
<polygon fill="midnightblue" stroke="midnightblue" points="371.76,-95.17 382.33,-94.45 373.62,-88.42 371.76,-95.17"/>
</g>
<!-- Node3&#45;&gt;Node8 -->
<g id="edge8" class="edge">
<title>Node3&#45;&gt;Node8</title>
<path fill="none" stroke="midnightblue" d="M315.98,-50.99C337.11,-42.42 363.39,-31.75 383.85,-23.45"/>
<polygon fill="midnightblue" stroke="midnightblue" points="385.43,-26.59 393.38,-19.58 382.8,-20.1 385.43,-26.59"/>
</g>
<!-- Node9 -->
<g id="node9" class="node">
<title>Node9</title>
<g id="a_node9"><a xlink:href="classhal_1_1counter.html#a9c428b0843d7b4dfdc6b433a309cb71f" target="_top" xlink:title="Get the uptime of the counter since it has started.">
<polygon fill="white" stroke="black" points="368,-56.5 368,-75.5 468,-75.5 468,-56.5 368,-56.5"/>
<text text-anchor="middle" x="418" y="-63.5" font-family="Helvetica,sans-Serif" font-size="10.00">hal::counter::uptime</text>
</a>
</g>
</g>
<!-- Node3&#45;&gt;Node9 -->
<g id="edge10" class="edge">
<title>Node3&#45;&gt;Node9</title>
<path fill="none" stroke="midnightblue" d="M330.39,-66C339.29,-66 348.62,-66 357.72,-66"/>
<polygon fill="midnightblue" stroke="midnightblue" points="357.86,-69.5 367.86,-66 357.86,-62.5 357.86,-69.5"/>
</g>
<!-- Node6 -->
<g id="node6" class="node">
<title>Node6</title>
<g id="a_node6"><a xlink:href="group__utility.html#gaac86abb9a38f4962ded5507e15dca4b9" target="_top" xlink:title="Generic absolute value function that works for integer types.">
<polygon fill="white" stroke="black" points="651,-94.5 651,-113.5 750,-113.5 750,-94.5 651,-94.5"/>
<text text-anchor="middle" x="700.5" y="-101.5" font-family="Helvetica,sans-Serif" font-size="10.00">hal::absolute_value</text>
</a>
</g>
</g>
<!-- Node5&#45;&gt;Node6 -->
<g id="edge5" class="edge">
<title>Node5&#45;&gt;Node6</title>
<path fill="none" stroke="midnightblue" d="M458,-104C505.38,-104 585.76,-104 640.67,-104"/>
<polygon fill="midnightblue" stroke="midnightblue" points="640.95,-107.5 650.95,-104 640.95,-100.5 640.95,-107.5"/>
</g>
<!-- Node7 -->
<g id="node7" class="node">
<title>Node7</title>
<g id="a_node7"><a xlink:href="group__utility.html#ga58a3550a3236310f20b92eacf593c2f0" target="_top" xlink:title="Perform integer division and round the value up if the next decimal place is greater than or equal to...">
<polygon fill="white" stroke="black" points="506,-75.5 506,-94.5 615,-94.5 615,-75.5 506,-75.5"/>
<text text-anchor="middle" x="560.5" y="-82.5" font-family="Helvetica,sans-Serif" font-size="10.00">hal::rounding_division</text>
</a>
</g>
</g>
<!-- Node5&#45;&gt;Node7 -->
<g id="edge6" class="edge">
<title>Node5&#45;&gt;Node7</title>
<path fill="none" stroke="midnightblue" d="M458.14,-98.71C469.8,-97.13 482.89,-95.36 495.7,-93.63"/>
<polygon fill="midnightblue" stroke="midnightblue" points="496.43,-97.06 505.87,-92.25 495.49,-90.12 496.43,-97.06"/>
</g>
<!-- Node7&#45;&gt;Node6 -->
<g id="edge7" class="edge">
<title>Node7&#45;&gt;Node6</title>
<path fill="none" stroke="midnightblue" d="M615.25,-92.4C623.54,-93.54 632.13,-94.72 640.52,-95.88"/>
<polygon fill="midnightblue" stroke="midnightblue" points="640.24,-99.37 650.62,-97.27 641.2,-92.44 640.24,-99.37"/>
</g>
<!-- Node8&#45;&gt;Node8 -->
<g id="edge9" class="edge">
<title>Node8&#45;&gt;Node8</title>
<path fill="none" stroke="midnightblue" d="M396.42,-19.76C385.92,-28.57 393.12,-38 418,-38 433.94,-38 442.62,-34.13 444.04,-29.03"/>
<polygon fill="midnightblue" stroke="midnightblue" points="447.07,-27.25 439.58,-19.76 440.76,-30.29 447.07,-27.25"/>
</g>
</g>
</svg>
