<?xml version="1.0" encoding="UTF-8" standalone="no"?>
<!DOCTYPE svg PUBLIC "-//W3C//DTD SVG 1.1//EN"
 "http://www.w3.org/Graphics/SVG/1.1/DTD/svg11.dtd">
<!-- Generated by graphviz version 3.0.0 (20220413.0242)
 -->
<!-- Title: embed::distance Pages: 1 -->
<svg width="265pt" height="66pt"
 viewBox="0.00 0.00 265.00 66.00" xmlns="http://www.w3.org/2000/svg" xmlns:xlink="http://www.w3.org/1999/xlink">
<g id="graph0" class="graph" transform="scale(1 1) rotate(0) translate(4 62)">
<title>embed::distance</title>
<polygon fill="white" stroke="transparent" points="-4,4 -4,-62 261,-62 261,4 -4,4"/>
<!-- Node1 -->
<g id="node1" class="node">
<title>Node1</title>
<g id="a_node1"><a xlink:title="Calculates the distance between two values (L1 Norm or Manhattan distance), the absolute value of the...">
<polygon fill="#bfbfbf" stroke="black" points="170,-19.5 170,-38.5 257,-38.5 257,-19.5 170,-19.5"/>
<text text-anchor="middle" x="213.5" y="-26.5" font-family="Helvetica,sans-Serif" font-size="10.00">embed::distance</text>
</a>
</g>
</g>
<!-- Node2 -->
<g id="node2" class="node">
<title>Node2</title>
<g id="a_node2"><a xlink:href="group__utility.html#ga7c61114c56c371ced7e50428411220db" target="_top" xlink:title="Calculate divider for the closest resulting frequency to target.">
<polygon fill="white" stroke="black" points="26,-38.5 26,-57.5 108,-57.5 108,-38.5 26,-38.5"/>
<text text-anchor="middle" x="67" y="-45.5" font-family="Helvetica,sans-Serif" font-size="10.00">embed::closest</text>
</a>
</g>
</g>
<!-- Node1&#45;&gt;Node2 -->
<g id="edge1" class="edge">
<title>Node1&#45;&gt;Node2</title>
<path fill="none" stroke="midnightblue" d="M159.61,-35.95C142.66,-38.18 124.18,-40.61 108.29,-42.7"/>
<polygon fill="midnightblue" stroke="midnightblue" points="160.47,-39.37 169.93,-34.6 159.56,-32.43 160.47,-39.37"/>
</g>
<!-- Node3 -->
<g id="node3" class="node">
<title>Node3</title>
<g id="a_node3"><a xlink:href="classembed_1_1percent.html#a706fa1b17fbcb4ccdd8cc6b037b224ee" target="_top" xlink:title="Comparison operator.">
<polygon fill="white" stroke="black" points="0,-0.5 0,-19.5 134,-19.5 134,-0.5 0,-0.5"/>
<text text-anchor="middle" x="67" y="-7.5" font-family="Helvetica,sans-Serif" font-size="10.00">embed::percent::operator==</text>
</a>
</g>
</g>
<!-- Node1&#45;&gt;Node3 -->
<g id="edge2" class="edge">
<title>Node1&#45;&gt;Node3</title>
<path fill="none" stroke="midnightblue" d="M159.92,-22.09C151.54,-20.98 142.77,-19.83 134.12,-18.69"/>
<polygon fill="midnightblue" stroke="midnightblue" points="159.56,-25.57 169.93,-23.4 160.47,-18.63 159.56,-25.57"/>
</g>
</g>
</svg>
