<?xml version="1.0" encoding="UTF-8" standalone="no"?>
<!DOCTYPE svg PUBLIC "-//W3C//DTD SVG 1.1//EN"
 "http://www.w3.org/Graphics/SVG/1.1/DTD/svg11.dtd">
<!-- Generated by graphviz version 3.0.0 (20220413.0242)
 -->
<!-- Title: embed::calculate_duty_cycle Pages: 1 -->
<svg width="583pt" height="97pt"
 viewBox="0.00 0.00 583.00 96.50" xmlns="http://www.w3.org/2000/svg" xmlns:xlink="http://www.w3.org/1999/xlink">
<g id="graph0" class="graph" transform="scale(1 1) rotate(0) translate(4 92.5)">
<title>embed::calculate_duty_cycle</title>
<polygon fill="white" stroke="transparent" points="-4,4 -4,-92.5 579,-92.5 579,4 -4,4"/>
<!-- Node1 -->
<g id="node1" class="node">
<title>Node1</title>
<g id="a_node1"><a xlink:title="Calculate a duty cycle based on a source frequency, target wavelength and a percentage.">
<polygon fill="#bfbfbf" stroke="black" points="0,-36 0,-66 113,-66 113,-36 0,-36"/>
<text text-anchor="start" x="8" y="-54" font-family="Helvetica,sans-Serif" font-size="10.00">embed::calculate_duty</text>
<text text-anchor="middle" x="56.5" y="-43" font-family="Helvetica,sans-Serif" font-size="10.00">_cycle</text>
</a>
</g>
</g>
<!-- Node2 -->
<g id="node2" class="node">
<title>Node2</title>
<g id="a_node2"><a xlink:href="group__utility.html#gac197fc46936b832a6e9219b248e2f9bb" target="_top" xlink:title="Generate a duty_cycle object based on the percent value and the input count value....">
<polygon fill="white" stroke="black" points="149,-58 149,-88 262,-88 262,-58 149,-58"/>
<text text-anchor="start" x="157" y="-76" font-family="Helvetica,sans-Serif" font-size="10.00">embed::calculate_duty</text>
<text text-anchor="middle" x="205.5" y="-65" font-family="Helvetica,sans-Serif" font-size="10.00">_cycle</text>
</a>
</g>
</g>
<!-- Node1&#45;&gt;Node2 -->
<g id="edge1" class="edge">
<title>Node1&#45;&gt;Node2</title>
<path fill="none" stroke="midnightblue" d="M113.07,-59.32C121.49,-60.58 130.24,-61.89 138.84,-63.17"/>
<polygon fill="midnightblue" stroke="midnightblue" points="138.44,-66.65 148.85,-64.67 139.48,-59.73 138.44,-66.65"/>
</g>
<!-- Node3 -->
<g id="node3" class="node">
<title>Node3</title>
<g id="a_node3"><a xlink:href="group__utility.html#ga61711bf3d8c25b82fb37db4f53426ef0" target="_top" xlink:title="Calculate the number of cycles of this frequency within the time duration. This function is meant for...">
<polygon fill="white" stroke="black" points="157,-19.5 157,-38.5 254,-38.5 254,-19.5 157,-19.5"/>
<text text-anchor="middle" x="205.5" y="-26.5" font-family="Helvetica,sans-Serif" font-size="10.00">embed::cycles_per</text>
</a>
</g>
</g>
<!-- Node1&#45;&gt;Node3 -->
<g id="edge2" class="edge">
<title>Node1&#45;&gt;Node3</title>
<path fill="none" stroke="midnightblue" d="M113.07,-42.68C124.03,-41.04 135.55,-39.32 146.58,-37.67"/>
<polygon fill="midnightblue" stroke="midnightblue" points="147.17,-41.12 156.54,-36.18 146.14,-34.2 147.17,-41.12"/>
</g>
<!-- Node4 -->
<g id="node4" class="node">
<title>Node4</title>
<g id="a_node4"><a xlink:href="group__utility.html#ga6f0922a28ac81378eb689b2ab4bc299a" target="_top" xlink:title="Generic absolute value function that works for integer types.">
<polygon fill="white" stroke="black" points="459,-19.5 459,-38.5 575,-38.5 575,-19.5 459,-19.5"/>
<text text-anchor="middle" x="517" y="-26.5" font-family="Helvetica,sans-Serif" font-size="10.00">embed::absolute_value</text>
</a>
</g>
</g>
<!-- Node3&#45;&gt;Node4 -->
<g id="edge3" class="edge">
<title>Node3&#45;&gt;Node4</title>
<path fill="none" stroke="midnightblue" d="M254.18,-29C306.17,-29 389.78,-29 448.49,-29"/>
<polygon fill="midnightblue" stroke="midnightblue" points="448.79,-32.5 458.79,-29 448.79,-25.5 448.79,-32.5"/>
</g>
<!-- Node5 -->
<g id="node5" class="node">
<title>Node5</title>
<g id="a_node5"><a xlink:href="group__utility.html#ga84ea33bb969785c47247cfe0da9aa98e" target="_top" xlink:title="Perform integer division and round the value up if the next decimal place is greater than or equal to...">
<polygon fill="white" stroke="black" points="298,-0.5 298,-19.5 423,-19.5 423,-0.5 298,-0.5"/>
<text text-anchor="middle" x="360.5" y="-7.5" font-family="Helvetica,sans-Serif" font-size="10.00">embed::rounding_division</text>
</a>
</g>
</g>
<!-- Node3&#45;&gt;Node5 -->
<g id="edge4" class="edge">
<title>Node3&#45;&gt;Node5</title>
<path fill="none" stroke="midnightblue" d="M254.07,-23.09C264.79,-21.76 276.4,-20.32 287.86,-18.9"/>
<polygon fill="midnightblue" stroke="midnightblue" points="288.38,-22.36 297.87,-17.65 287.52,-15.41 288.38,-22.36"/>
</g>
<!-- Node5&#45;&gt;Node4 -->
<g id="edge5" class="edge">
<title>Node5&#45;&gt;Node4</title>
<path fill="none" stroke="midnightblue" d="M423.01,-17.56C431.47,-18.61 440.21,-19.68 448.77,-20.73"/>
<polygon fill="midnightblue" stroke="midnightblue" points="448.37,-24.21 458.72,-21.96 449.22,-17.26 448.37,-24.21"/>
</g>
</g>
</svg>
