<?xml version="1.0" encoding="UTF-8" standalone="no"?>
<!DOCTYPE svg PUBLIC "-//W3C//DTD SVG 1.1//EN"
 "http://www.w3.org/Graphics/SVG/1.1/DTD/svg11.dtd">
<!-- Generated by graphviz version 3.0.0 (20220413.0242)
 -->
<!-- Title: embed::rounding_division Pages: 1 -->
<svg width="800pt" height="313pt"
 viewBox="0.00 0.00 800.00 312.50" xmlns="http://www.w3.org/2000/svg" xmlns:xlink="http://www.w3.org/1999/xlink">
<g id="graph0" class="graph" transform="scale(1 1) rotate(0) translate(4 308.5)">
<title>embed::rounding_division</title>
<polygon fill="white" stroke="transparent" points="-4,4 -4,-308.5 796,-308.5 796,4 -4,4"/>
<!-- Node1 -->
<g id="node1" class="node">
<title>Node1</title>
<g id="a_node1"><a xlink:title="Perform integer division and round the value up if the next decimal place is greater than or equal to...">
<polygon fill="#bfbfbf" stroke="black" points="667,-98.5 667,-117.5 792,-117.5 792,-98.5 667,-98.5"/>
<text text-anchor="middle" x="729.5" y="-105.5" font-family="Helvetica,sans-Serif" font-size="10.00">embed::rounding_division</text>
</a>
</g>
</g>
<!-- Node2 -->
<g id="node2" class="node">
<title>Node2</title>
<g id="a_node2"><a xlink:href="group__utility.html#ga61711bf3d8c25b82fb37db4f53426ef0" target="_top" xlink:title="Calculate the number of cycles of this frequency within the time duration. This function is meant for...">
<polygon fill="white" stroke="black" points="527.5,-230.5 527.5,-249.5 624.5,-249.5 624.5,-230.5 527.5,-230.5"/>
<text text-anchor="middle" x="576" y="-237.5" font-family="Helvetica,sans-Serif" font-size="10.00">embed::cycles_per</text>
</a>
</g>
</g>
<!-- Node1&#45;&gt;Node2 -->
<g id="edge1" class="edge">
<title>Node1&#45;&gt;Node2</title>
<path fill="none" stroke="midnightblue" d="M713.08,-125.04C694.56,-145.04 662.1,-178.71 631,-204 618.94,-213.81 604.19,-223.51 593.15,-230.36"/>
<polygon fill="midnightblue" stroke="midnightblue" points="715.72,-127.34 719.9,-117.6 710.56,-122.61 715.72,-127.34"/>
</g>
<!-- Node8 -->
<g id="node8" class="node">
<title>Node8</title>
<g id="a_node8"><a xlink:href="group__utility.html#ga19bf555b8e14f12184073b07791fd56b" target="_top" xlink:title="Calculate the amount of time it takes a frequency to oscillate a number of cycles.">
<polygon fill="white" stroke="black" points="521,-164 521,-194 631,-194 631,-164 521,-164"/>
<text text-anchor="start" x="529" y="-182" font-family="Helvetica,sans-Serif" font-size="10.00">embed::duration_from</text>
<text text-anchor="middle" x="576" y="-171" font-family="Helvetica,sans-Serif" font-size="10.00">_cycles</text>
</a>
</g>
</g>
<!-- Node1&#45;&gt;Node8 -->
<g id="edge8" class="edge">
<title>Node1&#45;&gt;Node8</title>
<path fill="none" stroke="midnightblue" d="M699.97,-122.04C680.59,-131.5 654.34,-144.19 631,-155 624.67,-157.93 617.89,-161 611.35,-163.92"/>
<polygon fill="midnightblue" stroke="midnightblue" points="701.72,-125.08 709.16,-117.54 698.64,-118.79 701.72,-125.08"/>
</g>
<!-- Node9 -->
<g id="node9" class="node">
<title>Node9</title>
<g id="a_node9"><a xlink:href="classembed_1_1percent.html#a3031fcd41ebdbc14fe77114d239c0b27" target="_top" xlink:title="Generate a percentage based on input relative to the maximum possible value.">
<polygon fill="white" stroke="black" points="522.5,-115 522.5,-145 629.5,-145 629.5,-115 522.5,-115"/>
<text text-anchor="start" x="530.5" y="-133" font-family="Helvetica,sans-Serif" font-size="10.00">embed::percent::from</text>
<text text-anchor="middle" x="576" y="-122" font-family="Helvetica,sans-Serif" font-size="10.00">_ratio</text>
</a>
</g>
</g>
<!-- Node1&#45;&gt;Node9 -->
<g id="edge9" class="edge">
<title>Node1&#45;&gt;Node9</title>
<path fill="none" stroke="midnightblue" d="M656.71,-118.42C647.65,-119.74 638.52,-121.07 629.83,-122.33"/>
<polygon fill="midnightblue" stroke="midnightblue" points="657.49,-121.85 666.88,-116.95 656.48,-114.92 657.49,-121.85"/>
</g>
<!-- Node13 -->
<g id="node13" class="node">
<title>Node13</title>
<g id="a_node13"><a xlink:href="classembed_1_1percent.html#afa379fbbb92bc5dc22f0dce8bcf7ea1b" target="_top" xlink:title="Get the percent after it is scaled to a range. The output percent is bound within the given range....">
<polygon fill="white" stroke="black" points="370,-60.5 370,-79.5 480,-79.5 480,-60.5 370,-60.5"/>
<text text-anchor="middle" x="425" y="-67.5" font-family="Helvetica,sans-Serif" font-size="10.00">embed::percent::scale</text>
</a>
</g>
</g>
<!-- Node1&#45;&gt;Node13 -->
<g id="edge15" class="edge">
<title>Node1&#45;&gt;Node13</title>
<path fill="none" stroke="midnightblue" d="M656.71,-98.98C602.65,-92.19 529.68,-83.02 480.39,-76.83"/>
<polygon fill="midnightblue" stroke="midnightblue" points="656.56,-102.49 666.92,-100.26 657.43,-95.55 656.56,-102.49"/>
</g>
<!-- Node14 -->
<g id="node14" class="node">
<title>Node14</title>
<g id="a_node14"><a xlink:href="group__utility.html#gaae7b07b6a4aaa1b6342b676f9b864372" target="_top" xlink:title="Scale down a frequency by an integer factor.">
<polygon fill="white" stroke="black" points="531.5,-38.5 531.5,-57.5 620.5,-57.5 620.5,-38.5 531.5,-38.5"/>
<text text-anchor="middle" x="576" y="-45.5" font-family="Helvetica,sans-Serif" font-size="10.00">embed::operator/</text>
</a>
</g>
</g>
<!-- Node1&#45;&gt;Node14 -->
<g id="edge14" class="edge">
<title>Node1&#45;&gt;Node14</title>
<path fill="none" stroke="midnightblue" d="M694.97,-94.72C666.56,-83.47 626.5,-67.6 601.14,-57.56"/>
<polygon fill="midnightblue" stroke="midnightblue" points="693.91,-98.06 704.49,-98.49 696.49,-91.56 693.91,-98.06"/>
</g>
<!-- Node15 -->
<g id="node15" class="node">
<title>Node15</title>
<g id="a_node15"><a xlink:href="group__utility.html#ga595b4275cff4d56d9d6226568c7c9809" target="_top" xlink:title="Calculates and returns the wavelength in seconds.">
<polygon fill="white" stroke="black" points="526,-0.5 526,-19.5 626,-19.5 626,-0.5 526,-0.5"/>
<text text-anchor="middle" x="576" y="-7.5" font-family="Helvetica,sans-Serif" font-size="10.00">embed::wavelength</text>
</a>
</g>
</g>
<!-- Node1&#45;&gt;Node15 -->
<g id="edge16" class="edge">
<title>Node1&#45;&gt;Node15</title>
<path fill="none" stroke="midnightblue" d="M711.78,-91.4C693.34,-73.87 662.14,-46.41 631,-29 624.41,-25.32 616.97,-22.14 609.77,-19.51"/>
<polygon fill="midnightblue" stroke="midnightblue" points="709.46,-94.03 719.08,-98.47 714.33,-89 709.46,-94.03"/>
</g>
<!-- Node3 -->
<g id="node3" class="node">
<title>Node3</title>
<g id="a_node3"><a xlink:href="group__utility.html#gaa1a076554c019239de0fb3e3fb4edcf2" target="_top" xlink:title="Calculate a duty cycle based on a source frequency, target wavelength and a percentage.">
<polygon fill="white" stroke="black" points="368.5,-274 368.5,-304 481.5,-304 481.5,-274 368.5,-274"/>
<text text-anchor="start" x="376.5" y="-292" font-family="Helvetica,sans-Serif" font-size="10.00">embed::calculate_duty</text>
<text text-anchor="middle" x="425" y="-281" font-family="Helvetica,sans-Serif" font-size="10.00">_cycle</text>
</a>
</g>
</g>
<!-- Node2&#45;&gt;Node3 -->
<g id="edge2" class="edge">
<title>Node2&#45;&gt;Node3</title>
<path fill="none" stroke="midnightblue" d="M536.32,-252.72C516.56,-259.22 492.4,-267.16 471.72,-273.96"/>
<polygon fill="midnightblue" stroke="midnightblue" points="537.51,-256.01 545.92,-249.56 535.32,-249.36 537.51,-256.01"/>
</g>
<!-- Node4 -->
<g id="node4" class="node">
<title>Node4</title>
<g id="a_node4"><a xlink:href="classembed_1_1counter__timeout.html#aa5741370521bba1742b8d4080f26ac0d" target="_top" xlink:title="Create a counter_timeout.">
<polygon fill="white" stroke="black" points="365,-225 365,-255 485,-255 485,-225 365,-225"/>
<text text-anchor="start" x="373" y="-243" font-family="Helvetica,sans-Serif" font-size="10.00">embed::counter_timeout</text>
<text text-anchor="middle" x="425" y="-232" font-family="Helvetica,sans-Serif" font-size="10.00">::create</text>
</a>
</g>
</g>
<!-- Node2&#45;&gt;Node4 -->
<g id="edge3" class="edge">
<title>Node2&#45;&gt;Node4</title>
<path fill="none" stroke="midnightblue" d="M517.13,-240C506.63,-240 495.66,-240 485.13,-240"/>
<polygon fill="midnightblue" stroke="midnightblue" points="517.45,-243.5 527.45,-240 517.45,-236.5 517.45,-243.5"/>
</g>
<!-- Node5 -->
<g id="node5" class="node">
<title>Node5</title>
<g id="a_node5"><a xlink:href="group__counter.html#ga4f1edcd06bf52209d5293e54d0d1beb6" target="_top" xlink:title="Create a timeout object based on embed::counter.">
<polygon fill="white" stroke="black" points="214,-230.5 214,-249.5 329,-249.5 329,-230.5 214,-230.5"/>
<text text-anchor="middle" x="271.5" y="-237.5" font-family="Helvetica,sans-Serif" font-size="10.00">embed::create_timeout</text>
</a>
</g>
</g>
<!-- Node4&#45;&gt;Node5 -->
<g id="edge4" class="edge">
<title>Node4&#45;&gt;Node5</title>
<path fill="none" stroke="midnightblue" d="M354.93,-240C346.29,-240 337.53,-240 329.11,-240"/>
<polygon fill="midnightblue" stroke="midnightblue" points="354.99,-243.5 364.99,-240 354.99,-236.5 354.99,-243.5"/>
</g>
<!-- Node6 -->
<g id="node6" class="node">
<title>Node6</title>
<g id="a_node6"><a xlink:href="group__counter.html#ga53e2d568aa13881c4213fe89a2e1c42e" target="_top" xlink:title="Delay execution for a duration of time using a hardware counter.">
<polygon fill="white" stroke="black" points="105,-230.5 105,-249.5 178,-249.5 178,-230.5 105,-230.5"/>
<text text-anchor="middle" x="141.5" y="-237.5" font-family="Helvetica,sans-Serif" font-size="10.00">embed::delay</text>
</a>
</g>
</g>
<!-- Node5&#45;&gt;Node6 -->
<g id="edge5" class="edge">
<title>Node5&#45;&gt;Node6</title>
<path fill="none" stroke="midnightblue" d="M203.94,-240C195.04,-240 186.2,-240 178.12,-240"/>
<polygon fill="midnightblue" stroke="midnightblue" points="203.98,-243.5 213.98,-240 203.98,-236.5 203.98,-243.5"/>
</g>
<!-- Node6&#45;&gt;Node6 -->
<g id="edge6" class="edge">
<title>Node6&#45;&gt;Node6</title>
<path fill="none" stroke="midnightblue" d="M161.13,-259.4C159.82,-264.31 153.27,-268 141.5,-268 122.66,-268 117.21,-258.57 125.16,-249.76"/>
<polygon fill="midnightblue" stroke="midnightblue" points="164.38,-258.09 157.84,-249.76 157.76,-260.35 164.38,-258.09"/>
</g>
<!-- Node7 -->
<g id="node7" class="node">
<title>Node7</title>
<g id="a_node7"><a xlink:href="group__serial.html#ga56439487351e68f734fdf9b6330da4d2" target="_top" xlink:title="Read bytes from a serial port.">
<polygon fill="white" stroke="black" points="0,-230.5 0,-249.5 69,-249.5 69,-230.5 0,-230.5"/>
<text text-anchor="middle" x="34.5" y="-237.5" font-family="Helvetica,sans-Serif" font-size="10.00">embed::read</text>
</a>
</g>
</g>
<!-- Node6&#45;&gt;Node7 -->
<g id="edge7" class="edge">
<title>Node6&#45;&gt;Node7</title>
<path fill="none" stroke="midnightblue" d="M94.7,-240C86.14,-240 77.35,-240 69.24,-240"/>
<polygon fill="midnightblue" stroke="midnightblue" points="94.95,-243.5 104.95,-240 94.95,-236.5 94.95,-243.5"/>
</g>
<!-- Node10 -->
<g id="node10" class="node">
<title>Node10</title>
<g id="a_node10"><a xlink:href="classembed_1_1rc__servo.html#a026639b8cea2066eb30b175a5bb4c3d0" target="_top" xlink:title="Factory function to create a rc_servo object.">
<polygon fill="white" stroke="black" points="365.5,-186.5 365.5,-205.5 484.5,-205.5 484.5,-186.5 365.5,-186.5"/>
<text text-anchor="middle" x="425" y="-193.5" font-family="Helvetica,sans-Serif" font-size="10.00">embed::rc_servo::create</text>
</a>
</g>
</g>
<!-- Node9&#45;&gt;Node10 -->
<g id="edge10" class="edge">
<title>Node9&#45;&gt;Node10</title>
<path fill="none" stroke="midnightblue" d="M531.83,-149.44C528.14,-151.27 524.49,-153.14 521,-155 504.46,-163.84 502.04,-169.18 485,-177 477.18,-180.59 468.48,-183.79 460.22,-186.5"/>
<polygon fill="midnightblue" stroke="midnightblue" points="533.52,-152.51 541,-145.01 530.48,-146.21 533.52,-152.51"/>
</g>
<!-- Node11 -->
<g id="node11" class="node">
<title>Node11</title>
<g id="a_node11"><a xlink:href="group__utility.html#gafa1bc584612147c23f340cfd2786199c" target="_top" xlink:title="Map an target value [x] from an input range [a,b] to an output range [c,d].">
<polygon fill="white" stroke="black" points="390.5,-148.5 390.5,-167.5 459.5,-167.5 459.5,-148.5 390.5,-148.5"/>
<text text-anchor="middle" x="425" y="-155.5" font-family="Helvetica,sans-Serif" font-size="10.00">embed::map</text>
</a>
</g>
</g>
<!-- Node9&#45;&gt;Node11 -->
<g id="edge11" class="edge">
<title>Node9&#45;&gt;Node11</title>
<path fill="none" stroke="midnightblue" d="M512.57,-141.73C494.53,-145.12 475.52,-148.69 459.92,-151.63"/>
<polygon fill="midnightblue" stroke="midnightblue" points="513.29,-145.16 522.47,-139.87 511.99,-138.28 513.29,-145.16"/>
</g>
<!-- Node12 -->
<g id="node12" class="node">
<title>Node12</title>
<g id="a_node12"><a xlink:href="structembed_1_1duty__cycle.html#ae3211da17ad871387109a5d901a18183" target="_top" xlink:title="Conversion from duty cycle to percentage.">
<polygon fill="white" stroke="black" points="374.5,-99 374.5,-129 475.5,-129 475.5,-99 374.5,-99"/>
<text text-anchor="start" x="382.5" y="-117" font-family="Helvetica,sans-Serif" font-size="10.00">embed::duty_cycle::</text>
<text text-anchor="middle" x="425" y="-106" font-family="Helvetica,sans-Serif" font-size="10.00">operator percent</text>
</a>
</g>
</g>
<!-- Node9&#45;&gt;Node12 -->
<g id="edge12" class="edge">
<title>Node9&#45;&gt;Node12</title>
<path fill="none" stroke="midnightblue" d="M512.3,-123.27C500.03,-121.95 487.33,-120.59 475.56,-119.32"/>
<polygon fill="midnightblue" stroke="midnightblue" points="512.15,-126.77 522.47,-124.36 512.9,-119.81 512.15,-126.77"/>
</g>
<!-- Node9&#45;&gt;Node13 -->
<g id="edge13" class="edge">
<title>Node9&#45;&gt;Node13</title>
<path fill="none" stroke="midnightblue" d="M534.89,-110.52C519.46,-103.35 501.57,-95.42 485,-89 476.37,-85.66 466.88,-82.42 458.08,-79.59"/>
<polygon fill="midnightblue" stroke="midnightblue" points="533.6,-113.79 544.14,-114.87 536.58,-107.45 533.6,-113.79"/>
</g>
</g>
</svg>
