<?xml version="1.0" encoding="UTF-8" standalone="no"?>
<!DOCTYPE svg PUBLIC "-//W3C//DTD SVG 1.1//EN"
 "http://www.w3.org/Graphics/SVG/1.1/DTD/svg11.dtd">
<!-- Generated by graphviz version 3.0.0 (20220413.0242)
 -->
<!-- Title: embed::distance Pages: 1 -->
<svg width="271pt" height="104pt"
 viewBox="0.00 0.00 271.00 104.00" xmlns="http://www.w3.org/2000/svg" xmlns:xlink="http://www.w3.org/1999/xlink">
<g id="graph0" class="graph" transform="scale(1 1) rotate(0) translate(4 100)">
<title>embed::distance</title>
<polygon fill="white" stroke="transparent" points="-4,4 -4,-100 267,-100 267,4 -4,4"/>
<!-- Node1 -->
<g id="node1" class="node">
<title>Node1</title>
<g id="a_node1"><a xlink:title="Calculates the distance between two values (L1 Norm or Manhattan distance), the absolute value of the...">
<polygon fill="#bfbfbf" stroke="black" points="176,-38.5 176,-57.5 263,-57.5 263,-38.5 176,-38.5"/>
<text text-anchor="middle" x="219.5" y="-45.5" font-family="Helvetica,sans-Serif" font-size="10.00">embed::distance</text>
</a>
</g>
</g>
<!-- Node2 -->
<g id="node2" class="node">
<title>Node2</title>
<g id="a_node2"><a xlink:href="group__utility.html#ga7c61114c56c371ced7e50428411220db" target="_top" xlink:title="Calculate divider for the closest resulting frequency to target.">
<polygon fill="white" stroke="black" points="29,-76.5 29,-95.5 111,-95.5 111,-76.5 29,-76.5"/>
<text text-anchor="middle" x="70" y="-83.5" font-family="Helvetica,sans-Serif" font-size="10.00">embed::closest</text>
</a>
</g>
</g>
<!-- Node1&#45;&gt;Node2 -->
<g id="edge1" class="edge">
<title>Node1&#45;&gt;Node2</title>
<path fill="none" stroke="midnightblue" d="M171.49,-60.11C150.94,-65.4 127.2,-71.52 107.95,-76.48"/>
<polygon fill="midnightblue" stroke="midnightblue" points="172.47,-63.47 181.28,-57.59 170.72,-56.69 172.47,-63.47"/>
</g>
<!-- Node3 -->
<g id="node3" class="node">
<title>Node3</title>
<g id="a_node3"><a xlink:href="structembed_1_1map__range.html#a1358d673be561b9550aaa727ce65085c" target="_top" xlink:title=" ">
<polygon fill="white" stroke="black" points="0,-38.5 0,-57.5 140,-57.5 140,-38.5 0,-38.5"/>
<text text-anchor="middle" x="70" y="-45.5" font-family="Helvetica,sans-Serif" font-size="10.00">embed::map_range::distance</text>
</a>
</g>
</g>
<!-- Node1&#45;&gt;Node3 -->
<g id="edge2" class="edge">
<title>Node1&#45;&gt;Node3</title>
<path fill="none" stroke="midnightblue" d="M165.64,-48C157.4,-48 148.78,-48 140.24,-48"/>
<polygon fill="midnightblue" stroke="midnightblue" points="165.84,-51.5 175.84,-48 165.84,-44.5 165.84,-51.5"/>
</g>
<!-- Node4 -->
<g id="node4" class="node">
<title>Node4</title>
<g id="a_node4"><a xlink:href="classembed_1_1percent.html#a706fa1b17fbcb4ccdd8cc6b037b224ee" target="_top" xlink:title="Comparison operator.">
<polygon fill="white" stroke="black" points="3,-0.5 3,-19.5 137,-19.5 137,-0.5 3,-0.5"/>
<text text-anchor="middle" x="70" y="-7.5" font-family="Helvetica,sans-Serif" font-size="10.00">embed::percent::operator==</text>
</a>
</g>
</g>
<!-- Node1&#45;&gt;Node4 -->
<g id="edge3" class="edge">
<title>Node1&#45;&gt;Node4</title>
<path fill="none" stroke="midnightblue" d="M171.49,-35.89C150.94,-30.6 127.2,-24.48 107.95,-19.52"/>
<polygon fill="midnightblue" stroke="midnightblue" points="170.72,-39.31 181.28,-38.41 172.47,-32.53 170.72,-39.31"/>
</g>
</g>
</svg>
