<?xml version="1.0" encoding="UTF-8" standalone="no"?>
<!DOCTYPE svg PUBLIC "-//W3C//DTD SVG 1.1//EN"
 "http://www.w3.org/Graphics/SVG/1.1/DTD/svg11.dtd">
<!-- Generated by graphviz version 3.0.0 (20220413.0242)
 -->
<!-- Title: embed::absolute_value Pages: 1 -->
<svg width="853pt" height="302pt"
 viewBox="0.00 0.00 853.00 301.50" xmlns="http://www.w3.org/2000/svg" xmlns:xlink="http://www.w3.org/1999/xlink">
<g id="graph0" class="graph" transform="scale(1 1) rotate(0) translate(4 297.5)">
<title>embed::absolute_value</title>
<polygon fill="white" stroke="transparent" points="-4,4 -4,-297.5 849,-297.5 849,4 -4,4"/>
<!-- Node1 -->
<g id="node1" class="node">
<title>Node1</title>
<g id="a_node1"><a xlink:title="Generic absolute value function that works for integer types.">
<polygon fill="#bfbfbf" stroke="black" points="729,-150.5 729,-169.5 845,-169.5 845,-150.5 729,-150.5"/>
<text text-anchor="middle" x="787" y="-157.5" font-family="Helvetica,sans-Serif" font-size="10.00">embed::absolute_value</text>
</a>
</g>
</g>
<!-- Node2 -->
<g id="node2" class="node">
<title>Node2</title>
<g id="a_node2"><a xlink:href="classembed_1_1frequency.html#aa67b1e2379926c43c248b98207ff95a0" target="_top" xlink:title="Calculate the number of cycles of this frequency within the time duration. This function is meant for...">
<polygon fill="white" stroke="black" points="387.5,-219.5 387.5,-238.5 530.5,-238.5 530.5,-219.5 387.5,-219.5"/>
<text text-anchor="middle" x="459" y="-226.5" font-family="Helvetica,sans-Serif" font-size="10.00">embed::frequency::cycles_per</text>
</a>
</g>
</g>
<!-- Node1&#45;&gt;Node2 -->
<g id="edge1" class="edge">
<title>Node1&#45;&gt;Node2</title>
<path fill="none" stroke="midnightblue" d="M731.17,-171.6C667.63,-185.05 564.1,-206.97 505.05,-219.47"/>
<polygon fill="midnightblue" stroke="midnightblue" points="731.95,-175.02 741.01,-169.52 730.51,-168.17 731.95,-175.02"/>
</g>
<!-- Node7 -->
<g id="node7" class="node">
<title>Node7</title>
<g id="a_node7"><a xlink:href="group__utility.html#ga84ea33bb969785c47247cfe0da9aa98e" target="_top" xlink:title="Perform integer division and round the value up if the next decimal place is greater than or equal to...">
<polygon fill="white" stroke="black" points="568,-131.5 568,-150.5 693,-150.5 693,-131.5 568,-131.5"/>
<text text-anchor="middle" x="630.5" y="-138.5" font-family="Helvetica,sans-Serif" font-size="10.00">embed::rounding_division</text>
</a>
</g>
</g>
<!-- Node1&#45;&gt;Node7 -->
<g id="edge7" class="edge">
<title>Node1&#45;&gt;Node7</title>
<path fill="none" stroke="midnightblue" d="M718.91,-151.75C710.31,-150.69 701.54,-149.61 693.03,-148.57"/>
<polygon fill="midnightblue" stroke="midnightblue" points="718.56,-155.23 728.91,-152.98 719.41,-148.28 718.56,-155.23"/>
</g>
<!-- Node3 -->
<g id="node3" class="node">
<title>Node3</title>
<g id="a_node3"><a xlink:href="classembed_1_1frequency.html#a6ba09620a9c2d43071e7f486d8c7fbdf" target="_top" xlink:title="Calculate a duty cycle based on a time duration, the percent and this driving frequency....">
<polygon fill="white" stroke="black" points="214,-263 214,-293 350,-293 350,-263 214,-263"/>
<text text-anchor="start" x="222" y="-281" font-family="Helvetica,sans-Serif" font-size="10.00">embed::frequency::calculate</text>
<text text-anchor="middle" x="282" y="-270" font-family="Helvetica,sans-Serif" font-size="10.00">_duty_cycle</text>
</a>
</g>
</g>
<!-- Node2&#45;&gt;Node3 -->
<g id="edge2" class="edge">
<title>Node2&#45;&gt;Node3</title>
<path fill="none" stroke="midnightblue" d="M414.15,-241.28C390.67,-247.85 361.54,-256.01 336.7,-262.96"/>
<polygon fill="midnightblue" stroke="midnightblue" points="415.16,-244.63 423.84,-238.56 413.27,-237.89 415.16,-244.63"/>
</g>
<!-- Node4 -->
<g id="node4" class="node">
<title>Node4</title>
<g id="a_node4"><a xlink:href="group__counter.html#ga4f1edcd06bf52209d5293e54d0d1beb6" target="_top" xlink:title="Create a timeout object based on embed::counter.">
<polygon fill="white" stroke="black" points="224.5,-224.5 224.5,-243.5 339.5,-243.5 339.5,-224.5 224.5,-224.5"/>
<text text-anchor="middle" x="282" y="-231.5" font-family="Helvetica,sans-Serif" font-size="10.00">embed::create_timeout</text>
</a>
</g>
</g>
<!-- Node2&#45;&gt;Node4 -->
<g id="edge3" class="edge">
<title>Node2&#45;&gt;Node4</title>
<path fill="none" stroke="midnightblue" d="M377.22,-231.31C364.54,-231.67 351.67,-232.04 339.69,-232.38"/>
<polygon fill="midnightblue" stroke="midnightblue" points="377.43,-234.8 387.33,-231.02 377.23,-227.81 377.43,-234.8"/>
</g>
<!-- Node5 -->
<g id="node5" class="node">
<title>Node5</title>
<g id="a_node5"><a xlink:href="group__counter.html#ga53e2d568aa13881c4213fe89a2e1c42e" target="_top" xlink:title="Delay execution for a duration of time using a hardware counter.">
<polygon fill="white" stroke="black" points="105,-224.5 105,-243.5 178,-243.5 178,-224.5 105,-224.5"/>
<text text-anchor="middle" x="141.5" y="-231.5" font-family="Helvetica,sans-Serif" font-size="10.00">embed::delay</text>
</a>
</g>
</g>
<!-- Node4&#45;&gt;Node5 -->
<g id="edge4" class="edge">
<title>Node4&#45;&gt;Node5</title>
<path fill="none" stroke="midnightblue" d="M213.98,-234C201.66,-234 189.26,-234 178.31,-234"/>
<polygon fill="midnightblue" stroke="midnightblue" points="214.27,-237.5 224.27,-234 214.27,-230.5 214.27,-237.5"/>
</g>
<!-- Node5&#45;&gt;Node5 -->
<g id="edge5" class="edge">
<title>Node5&#45;&gt;Node5</title>
<path fill="none" stroke="midnightblue" d="M161.13,-253.4C159.82,-258.31 153.27,-262 141.5,-262 122.66,-262 117.21,-252.57 125.16,-243.76"/>
<polygon fill="midnightblue" stroke="midnightblue" points="164.38,-252.09 157.84,-243.76 157.76,-254.35 164.38,-252.09"/>
</g>
<!-- Node6 -->
<g id="node6" class="node">
<title>Node6</title>
<g id="a_node6"><a xlink:href="group__serial.html#ga56439487351e68f734fdf9b6330da4d2" target="_top" xlink:title="Read bytes from a serial port.">
<polygon fill="white" stroke="black" points="0,-224.5 0,-243.5 69,-243.5 69,-224.5 0,-224.5"/>
<text text-anchor="middle" x="34.5" y="-231.5" font-family="Helvetica,sans-Serif" font-size="10.00">embed::read</text>
</a>
</g>
</g>
<!-- Node5&#45;&gt;Node6 -->
<g id="edge6" class="edge">
<title>Node5&#45;&gt;Node6</title>
<path fill="none" stroke="midnightblue" d="M94.7,-234C86.14,-234 77.35,-234 69.24,-234"/>
<polygon fill="midnightblue" stroke="midnightblue" points="94.95,-237.5 104.95,-234 94.95,-230.5 94.95,-237.5"/>
</g>
<!-- Node7&#45;&gt;Node2 -->
<g id="edge8" class="edge">
<title>Node7&#45;&gt;Node2</title>
<path fill="none" stroke="midnightblue" d="M609.62,-156.68C590.58,-171.08 560.61,-192.23 532,-206 520.89,-211.35 508.23,-215.87 496.65,-219.45"/>
<polygon fill="midnightblue" stroke="midnightblue" points="611.75,-159.45 617.55,-150.59 607.48,-153.9 611.75,-159.45"/>
</g>
<!-- Node8 -->
<g id="node8" class="node">
<title>Node8</title>
<g id="a_node8"><a xlink:href="classembed_1_1frequency.html#a7a0a49000c46f52507a958882e31d77c" target="_top" xlink:title="Calculate the frequency divide required to generate the output frequency provided.">
<polygon fill="white" stroke="black" points="398,-177.5 398,-196.5 520,-196.5 520,-177.5 398,-177.5"/>
<text text-anchor="middle" x="459" y="-184.5" font-family="Helvetica,sans-Serif" font-size="10.00">embed::frequency::divide</text>
</a>
</g>
</g>
<!-- Node7&#45;&gt;Node8 -->
<g id="edge9" class="edge">
<title>Node7&#45;&gt;Node8</title>
<path fill="none" stroke="midnightblue" d="M584.43,-153.23C556.43,-160.83 520.97,-170.45 495.08,-177.48"/>
<polygon fill="midnightblue" stroke="midnightblue" points="585.65,-156.53 594.38,-150.53 583.81,-149.77 585.65,-156.53"/>
</g>
<!-- Node10 -->
<g id="node10" class="node">
<title>Node10</title>
<g id="a_node10"><a xlink:href="classembed_1_1frequency.html#a383cdc3d72a91dedffcd92d3b0e73d8a" target="_top" xlink:title="Calculate time duration based on the frequency and a number of cycles.">
<polygon fill="white" stroke="black" points="393.5,-126 393.5,-156 524.5,-156 524.5,-126 393.5,-126"/>
<text text-anchor="start" x="401.5" y="-144" font-family="Helvetica,sans-Serif" font-size="10.00">embed::frequency::duration</text>
<text text-anchor="middle" x="459" y="-133" font-family="Helvetica,sans-Serif" font-size="10.00">_from_cycles</text>
</a>
</g>
</g>
<!-- Node7&#45;&gt;Node10 -->
<g id="edge11" class="edge">
<title>Node7&#45;&gt;Node10</title>
<path fill="none" stroke="midnightblue" d="M557.51,-141C546.64,-141 535.48,-141 524.76,-141"/>
<polygon fill="midnightblue" stroke="midnightblue" points="557.83,-144.5 567.83,-141 557.83,-137.5 557.83,-144.5"/>
</g>
<!-- Node12 -->
<g id="node12" class="node">
<title>Node12</title>
<g id="a_node12"><a xlink:href="classembed_1_1percent.html#a3031fcd41ebdbc14fe77114d239c0b27" target="_top" xlink:title="Generate a percentage based on input relative to the maximum possible value.">
<polygon fill="white" stroke="black" points="405.5,-77 405.5,-107 512.5,-107 512.5,-77 405.5,-77"/>
<text text-anchor="start" x="413.5" y="-95" font-family="Helvetica,sans-Serif" font-size="10.00">embed::percent::from</text>
<text text-anchor="middle" x="459" y="-84" font-family="Helvetica,sans-Serif" font-size="10.00">_ratio</text>
</a>
</g>
</g>
<!-- Node7&#45;&gt;Node12 -->
<g id="edge13" class="edge">
<title>Node7&#45;&gt;Node12</title>
<path fill="none" stroke="midnightblue" d="M586.72,-128.63C564.03,-122.07 535.96,-113.96 512.02,-107.04"/>
<polygon fill="midnightblue" stroke="midnightblue" points="585.84,-132.02 596.42,-131.44 587.78,-125.3 585.84,-132.02"/>
</g>
<!-- Node14 -->
<g id="node14" class="node">
<title>Node14</title>
<g id="a_node14"><a xlink:href="classembed_1_1percent.html#afa379fbbb92bc5dc22f0dce8bcf7ea1b" target="_top" xlink:title="Get the percent after it is scaled to a range. The output percent is bound within the given range....">
<polygon fill="white" stroke="black" points="227,-38.5 227,-57.5 337,-57.5 337,-38.5 227,-38.5"/>
<text text-anchor="middle" x="282" y="-45.5" font-family="Helvetica,sans-Serif" font-size="10.00">embed::percent::scale</text>
</a>
</g>
</g>
<!-- Node7&#45;&gt;Node14 -->
<g id="edge16" class="edge">
<title>Node7&#45;&gt;Node14</title>
<path fill="none" stroke="midnightblue" d="M613.37,-123.96C595.4,-106.22 564.56,-79.36 532,-67 468.36,-42.85 389.13,-41.18 337.36,-43.49"/>
<polygon fill="midnightblue" stroke="midnightblue" points="611.16,-126.71 620.68,-131.38 616.15,-121.8 611.16,-126.71"/>
</g>
<!-- Node15 -->
<g id="node15" class="node">
<title>Node15</title>
<g id="a_node15"><a xlink:href="classembed_1_1frequency.html#a7c8cfde28a6f6869694c509934c764ef" target="_top" xlink:title="Calculates and returns the wavelength of the frequency in seconds.">
<polygon fill="white" stroke="black" points="386,-0.5 386,-19.5 532,-19.5 532,-0.5 386,-0.5"/>
<text text-anchor="middle" x="459" y="-7.5" font-family="Helvetica,sans-Serif" font-size="10.00">embed::frequency::wavelength</text>
</a>
</g>
</g>
<!-- Node7&#45;&gt;Node15 -->
<g id="edge17" class="edge">
<title>Node7&#45;&gt;Node15</title>
<path fill="none" stroke="midnightblue" d="M617.41,-122.76C600.82,-99.08 568.82,-57.96 532,-34 522.5,-27.82 511.26,-23.08 500.52,-19.52"/>
<polygon fill="midnightblue" stroke="midnightblue" points="614.64,-124.92 623.18,-131.19 620.42,-120.96 614.64,-124.92"/>
</g>
<!-- Node9 -->
<g id="node9" class="node">
<title>Node9</title>
<g id="a_node9"><a xlink:href="classembed_1_1frequency.html#a2063d8976c488b5dd47ad13791b47aa0" target="_top" xlink:title="Calculate a duty cycle based on a target, the percent and this driving frequency. Typically used for ...">
<polygon fill="white" stroke="black" points="214,-175 214,-205 350,-205 350,-175 214,-175"/>
<text text-anchor="start" x="222" y="-193" font-family="Helvetica,sans-Serif" font-size="10.00">embed::frequency::calculate</text>
<text text-anchor="middle" x="282" y="-182" font-family="Helvetica,sans-Serif" font-size="10.00">_duty_cycle</text>
</a>
</g>
</g>
<!-- Node8&#45;&gt;Node9 -->
<g id="edge10" class="edge">
<title>Node8&#45;&gt;Node9</title>
<path fill="none" stroke="midnightblue" d="M387.56,-188.21C375.25,-188.42 362.46,-188.64 350.24,-188.85"/>
<polygon fill="midnightblue" stroke="midnightblue" points="387.84,-191.7 397.77,-188.03 387.72,-184.7 387.84,-191.7"/>
</g>
<!-- Node11 -->
<g id="node11" class="node">
<title>Node11</title>
<g id="a_node11"><a xlink:href="classembed_1_1experimental_1_1uptime__counter.html#a71b8a2ddf4ce000823b2966b825e24fe" target="_top" xlink:title="Calculates the number of nanoseconds since the counter has started.">
<polygon fill="white" stroke="black" points="221,-126 221,-156 343,-156 343,-126 221,-126"/>
<text text-anchor="start" x="229" y="-144" font-family="Helvetica,sans-Serif" font-size="10.00">embed::experimental</text>
<text text-anchor="middle" x="282" y="-133" font-family="Helvetica,sans-Serif" font-size="10.00">::uptime_counter::uptime</text>
</a>
</g>
</g>
<!-- Node10&#45;&gt;Node11 -->
<g id="edge12" class="edge">
<title>Node10&#45;&gt;Node11</title>
<path fill="none" stroke="midnightblue" d="M383.18,-141C369.78,-141 355.97,-141 343.05,-141"/>
<polygon fill="midnightblue" stroke="midnightblue" points="383.33,-144.5 393.33,-141 383.33,-137.5 383.33,-144.5"/>
</g>
<!-- Node13 -->
<g id="node13" class="node">
<title>Node13</title>
<g id="a_node13"><a xlink:href="structembed_1_1duty__cycle.html#ae3211da17ad871387109a5d901a18183" target="_top" xlink:title="Conversion from duty cycle to percentage.">
<polygon fill="white" stroke="black" points="231.5,-77 231.5,-107 332.5,-107 332.5,-77 231.5,-77"/>
<text text-anchor="start" x="239.5" y="-95" font-family="Helvetica,sans-Serif" font-size="10.00">embed::duty_cycle::</text>
<text text-anchor="middle" x="282" y="-84" font-family="Helvetica,sans-Serif" font-size="10.00">operator percent</text>
</a>
</g>
</g>
<!-- Node12&#45;&gt;Node13 -->
<g id="edge14" class="edge">
<title>Node12&#45;&gt;Node13</title>
<path fill="none" stroke="midnightblue" d="M395.28,-92C374.74,-92 352.22,-92 332.77,-92"/>
<polygon fill="midnightblue" stroke="midnightblue" points="395.49,-95.5 405.49,-92 395.49,-88.5 395.49,-95.5"/>
</g>
<!-- Node12&#45;&gt;Node14 -->
<g id="edge15" class="edge">
<title>Node12&#45;&gt;Node14</title>
<path fill="none" stroke="midnightblue" d="M395.74,-76.35C370.78,-70.07 342.84,-63.04 321.01,-57.56"/>
<polygon fill="midnightblue" stroke="midnightblue" points="394.94,-79.75 405.49,-78.8 396.65,-72.97 394.94,-79.75"/>
</g>
</g>
</svg>
