<?xml version="1.0" encoding="UTF-8" standalone="no"?>
<!DOCTYPE svg PUBLIC "-//W3C//DTD SVG 1.1//EN"
 "http://www.w3.org/Graphics/SVG/1.1/DTD/svg11.dtd">
<!-- Generated by graphviz version 3.0.0 (20220413.0242)
 -->
<!-- Title: embed::delay Pages: 1 -->
<svg width="697pt" height="66pt"
 viewBox="0.00 0.00 697.00 66.00" xmlns="http://www.w3.org/2000/svg" xmlns:xlink="http://www.w3.org/1999/xlink">
<g id="graph0" class="graph" transform="scale(1 1) rotate(0) translate(4 62)">
<title>embed::delay</title>
<polygon fill="white" stroke="transparent" points="-4,4 -4,-62 693,-62 693,4 -4,4"/>
<!-- Node1 -->
<g id="node1" class="node">
<title>Node1</title>
<g id="a_node1"><a xlink:title="Delay execution for a duration of time using a hardware counter.">
<polygon fill="#bfbfbf" stroke="black" points="0,-19.5 0,-38.5 73,-38.5 73,-19.5 0,-19.5"/>
<text text-anchor="middle" x="36.5" y="-26.5" font-family="Helvetica,sans-Serif" font-size="10.00">embed::delay</text>
</a>
</g>
</g>
<!-- Node1&#45;&gt;Node1 -->
<g id="edge7" class="edge">
<title>Node1&#45;&gt;Node1</title>
<path fill="none" stroke="midnightblue" d="M16.46,-38.76C6.72,-47.57 13.39,-57 36.5,-57 51.3,-57 59.36,-53.13 60.68,-48.03"/>
<polygon fill="midnightblue" stroke="midnightblue" points="63.81,-46.46 56.54,-38.76 57.42,-49.31 63.81,-46.46"/>
</g>
<!-- Node2 -->
<g id="node2" class="node">
<title>Node2</title>
<g id="a_node2"><a xlink:href="group__counter.html#ga4f1edcd06bf52209d5293e54d0d1beb6" target="_top" xlink:title="Create a timeout object based on embed::counter.">
<polygon fill="white" stroke="black" points="109,-19.5 109,-38.5 224,-38.5 224,-19.5 109,-19.5"/>
<text text-anchor="middle" x="166.5" y="-26.5" font-family="Helvetica,sans-Serif" font-size="10.00">embed::create_timeout</text>
</a>
</g>
</g>
<!-- Node1&#45;&gt;Node2 -->
<g id="edge1" class="edge">
<title>Node1&#45;&gt;Node2</title>
<path fill="none" stroke="midnightblue" d="M73.16,-29C81.22,-29 90.03,-29 98.91,-29"/>
<polygon fill="midnightblue" stroke="midnightblue" points="98.93,-32.5 108.93,-29 98.93,-25.5 98.93,-32.5"/>
</g>
<!-- Node3 -->
<g id="node3" class="node">
<title>Node3</title>
<g id="a_node3"><a xlink:href="group__utility.html#ga61711bf3d8c25b82fb37db4f53426ef0" target="_top" xlink:title="Calculate the number of cycles of this frequency within the time duration. This function is meant for...">
<polygon fill="white" stroke="black" points="269.5,-38.5 269.5,-57.5 366.5,-57.5 366.5,-38.5 269.5,-38.5"/>
<text text-anchor="middle" x="318" y="-45.5" font-family="Helvetica,sans-Serif" font-size="10.00">embed::cycles_per</text>
</a>
</g>
</g>
<!-- Node2&#45;&gt;Node3 -->
<g id="edge2" class="edge">
<title>Node2&#45;&gt;Node3</title>
<path fill="none" stroke="midnightblue" d="M224.02,-36.18C235.53,-37.65 247.66,-39.19 259.21,-40.66"/>
<polygon fill="midnightblue" stroke="midnightblue" points="258.83,-44.14 269.19,-41.92 259.71,-37.19 258.83,-44.14"/>
</g>
<!-- Node6 -->
<g id="node6" class="node">
<title>Node6</title>
<g id="a_node6"><a xlink:href="classembed_1_1counter.html#a02c24fbeaac81ef1030ff8e1a41b0738" target="_top" xlink:title="Get the uptime of the counter since it has started.">
<polygon fill="white" stroke="black" points="260,-0.5 260,-19.5 376,-19.5 376,-0.5 260,-0.5"/>
<text text-anchor="middle" x="318" y="-7.5" font-family="Helvetica,sans-Serif" font-size="10.00">embed::counter::uptime</text>
</a>
</g>
</g>
<!-- Node2&#45;&gt;Node6 -->
<g id="edge6" class="edge">
<title>Node2&#45;&gt;Node6</title>
<path fill="none" stroke="midnightblue" d="M224.02,-21.82C232.46,-20.74 241.23,-19.63 249.86,-18.53"/>
<polygon fill="midnightblue" stroke="midnightblue" points="250.43,-21.99 259.9,-17.26 249.54,-15.05 250.43,-21.99"/>
</g>
<!-- Node4 -->
<g id="node4" class="node">
<title>Node4</title>
<g id="a_node4"><a xlink:href="group__utility.html#ga6f0922a28ac81378eb689b2ab4bc299a" target="_top" xlink:title="Generic absolute value function that works for integer types.">
<polygon fill="white" stroke="black" points="573,-38.5 573,-57.5 689,-57.5 689,-38.5 573,-38.5"/>
<text text-anchor="middle" x="631" y="-45.5" font-family="Helvetica,sans-Serif" font-size="10.00">embed::absolute_value</text>
</a>
</g>
</g>
<!-- Node3&#45;&gt;Node4 -->
<g id="edge3" class="edge">
<title>Node3&#45;&gt;Node4</title>
<path fill="none" stroke="midnightblue" d="M366.57,-48C419.01,-48 503.76,-48 562.92,-48"/>
<polygon fill="midnightblue" stroke="midnightblue" points="562.93,-51.5 572.93,-48 562.93,-44.5 562.93,-51.5"/>
</g>
<!-- Node5 -->
<g id="node5" class="node">
<title>Node5</title>
<g id="a_node5"><a xlink:href="group__utility.html#ga84ea33bb969785c47247cfe0da9aa98e" target="_top" xlink:title="Perform integer division and round the value up if the next decimal place is greater than or equal to...">
<polygon fill="white" stroke="black" points="412,-19.5 412,-38.5 537,-38.5 537,-19.5 412,-19.5"/>
<text text-anchor="middle" x="474.5" y="-26.5" font-family="Helvetica,sans-Serif" font-size="10.00">embed::rounding_division</text>
</a>
</g>
</g>
<!-- Node3&#45;&gt;Node5 -->
<g id="edge4" class="edge">
<title>Node3&#45;&gt;Node5</title>
<path fill="none" stroke="midnightblue" d="M366.62,-42.14C377.77,-40.77 389.89,-39.28 401.84,-37.81"/>
<polygon fill="midnightblue" stroke="midnightblue" points="402.3,-41.28 411.8,-36.59 401.45,-34.33 402.3,-41.28"/>
</g>
<!-- Node5&#45;&gt;Node4 -->
<g id="edge5" class="edge">
<title>Node5&#45;&gt;Node4</title>
<path fill="none" stroke="midnightblue" d="M537.01,-36.56C545.47,-37.61 554.21,-38.68 562.77,-39.73"/>
<polygon fill="midnightblue" stroke="midnightblue" points="562.37,-43.21 572.72,-40.96 563.22,-36.26 562.37,-43.21"/>
</g>
</g>
</svg>
