<?xml version="1.0" encoding="UTF-8" standalone="no"?>
<!DOCTYPE svg PUBLIC "-//W3C//DTD SVG 1.1//EN"
 "http://www.w3.org/Graphics/SVG/1.1/DTD/svg11.dtd">
<!-- Generated by graphviz version 3.0.0 (20220413.0242)
 -->
<!-- Title: hal::create_timeout Pages: 1 -->
<svg width="287pt" height="46pt"
 viewBox="0.00 0.00 287.00 46.00" xmlns="http://www.w3.org/2000/svg" xmlns:xlink="http://www.w3.org/1999/xlink">
<g id="graph0" class="graph" transform="scale(1 1) rotate(0) translate(4 42)">
<title>hal::create_timeout</title>
<polygon fill="white" stroke="transparent" points="-4,4 -4,-42 283,-42 283,4 -4,4"/>
<!-- Node1 -->
<g id="node1" class="node">
<title>Node1</title>
<g id="a_node1"><a xlink:title="Create a timeout object based on hal::counter.">
<polygon fill="#bfbfbf" stroke="black" points="181,-0.5 181,-19.5 279,-19.5 279,-0.5 181,-0.5"/>
<text text-anchor="middle" x="230" y="-7.5" font-family="Helvetica,sans-Serif" font-size="10.00">hal::create_timeout</text>
</a>
</g>
</g>
<!-- Node2 -->
<g id="node2" class="node">
<title>Node2</title>
<g id="a_node2"><a xlink:href="group__counter.html#gad6b2dea2bf157a3df06253aac6354586" target="_top" xlink:title="Delay execution for a duration of time using a hardware counter.">
<polygon fill="white" stroke="black" points="89,-0.5 89,-19.5 145,-19.5 145,-0.5 89,-0.5"/>
<text text-anchor="middle" x="117" y="-7.5" font-family="Helvetica,sans-Serif" font-size="10.00">hal::delay</text>
</a>
</g>
</g>
<!-- Node1&#45;&gt;Node2 -->
<g id="edge1" class="edge">
<title>Node1&#45;&gt;Node2</title>
<path fill="none" stroke="midnightblue" d="M170.8,-10C161.8,-10 152.89,-10 145.03,-10"/>
<polygon fill="midnightblue" stroke="midnightblue" points="170.96,-13.5 180.96,-10 170.96,-6.5 170.96,-13.5"/>
</g>
<!-- Node2&#45;&gt;Node2 -->
<g id="edge2" class="edge">
<title>Node2&#45;&gt;Node2</title>
<path fill="none" stroke="midnightblue" d="M133.67,-29.4C132.55,-34.31 127,-38 117,-38 101,-38 96.38,-28.57 103.13,-19.76"/>
<polygon fill="midnightblue" stroke="midnightblue" points="137.02,-28.39 130.87,-19.76 130.29,-30.34 137.02,-28.39"/>
</g>
<!-- Node3 -->
<g id="node3" class="node">
<title>Node3</title>
<g id="a_node3"><a xlink:href="group__serial.html#ga62a11b4820816132ad98cc6cbdc97725" target="_top" xlink:title="Read bytes from a serial port.">
<polygon fill="white" stroke="black" points="0,-0.5 0,-19.5 53,-19.5 53,-0.5 0,-0.5"/>
<text text-anchor="middle" x="26.5" y="-7.5" font-family="Helvetica,sans-Serif" font-size="10.00">hal::read</text>
</a>
</g>
</g>
<!-- Node2&#45;&gt;Node3 -->
<g id="edge3" class="edge">
<title>Node2&#45;&gt;Node3</title>
<path fill="none" stroke="midnightblue" d="M78.73,-10C70.12,-10 61.14,-10 53.16,-10"/>
<polygon fill="midnightblue" stroke="midnightblue" points="78.97,-13.5 88.97,-10 78.97,-6.5 78.97,-13.5"/>
</g>
</g>
</svg>
