<?xml version="1.0" encoding="UTF-8" standalone="no"?>
<!DOCTYPE svg PUBLIC "-//W3C//DTD SVG 1.1//EN"
 "http://www.w3.org/Graphics/SVG/1.1/DTD/svg11.dtd">
<!-- Generated by graphviz version 3.0.0 (20220413.0242)
 -->
<!-- Title: embed::map Pages: 1 -->
<svg width="534pt" height="147pt"
 viewBox="0.00 0.00 534.00 147.00" xmlns="http://www.w3.org/2000/svg" xmlns:xlink="http://www.w3.org/1999/xlink">
<g id="graph0" class="graph" transform="scale(1 1) rotate(0) translate(4 143)">
<title>embed::map</title>
<polygon fill="white" stroke="transparent" points="-4,4 -4,-143 530,-143 530,4 -4,4"/>
<!-- Node1 -->
<g id="node1" class="node">
<title>Node1</title>
<g id="a_node1"><a xlink:title="Map an target value [x] from an input range [a,b] to an output range [c,d].">
<polygon fill="#bfbfbf" stroke="black" points="0,-31.5 0,-50.5 69,-50.5 69,-31.5 0,-31.5"/>
<text text-anchor="middle" x="34.5" y="-38.5" font-family="Helvetica,sans-Serif" font-size="10.00">embed::map</text>
</a>
</g>
</g>
<!-- Node2 -->
<g id="node2" class="node">
<title>Node2</title>
<g id="a_node2"><a xlink:href="classembed_1_1percent.html#a3031fcd41ebdbc14fe77114d239c0b27" target="_top" xlink:title="Generate a percentage based on input relative to the maximum possible value.">
<polygon fill="white" stroke="black" points="105,-57 105,-87 212,-87 212,-57 105,-57"/>
<text text-anchor="start" x="113" y="-75" font-family="Helvetica,sans-Serif" font-size="10.00">embed::percent::from</text>
<text text-anchor="middle" x="158.5" y="-64" font-family="Helvetica,sans-Serif" font-size="10.00">_ratio</text>
</a>
</g>
</g>
<!-- Node1&#45;&gt;Node2 -->
<g id="edge1" class="edge">
<title>Node1&#45;&gt;Node2</title>
<path fill="none" stroke="midnightblue" d="M69.16,-49.55C77.15,-51.58 85.94,-53.82 94.77,-56.06"/>
<polygon fill="midnightblue" stroke="midnightblue" points="94.17,-59.52 104.72,-58.59 95.89,-52.73 94.17,-59.52"/>
</g>
<!-- Node8 -->
<g id="node8" class="node">
<title>Node8</title>
<g id="a_node8"><a xlink:href="namespaceembed.html#a87973d938f95cc08d58ae8d55707043a" target="_top" xlink:title=" ">
<polygon fill="white" stroke="black" points="112,-0.5 112,-19.5 205,-19.5 205,-0.5 112,-0.5"/>
<text text-anchor="middle" x="158.5" y="-7.5" font-family="Helvetica,sans-Serif" font-size="10.00">embed::new_error</text>
</a>
</g>
</g>
<!-- Node1&#45;&gt;Node8 -->
<g id="edge7" class="edge">
<title>Node1&#45;&gt;Node8</title>
<path fill="none" stroke="midnightblue" d="M69.16,-32.45C81.87,-29.22 96.58,-25.48 110.31,-21.99"/>
<polygon fill="midnightblue" stroke="midnightblue" points="111.26,-25.36 120.09,-19.51 109.53,-18.58 111.26,-25.36"/>
</g>
<!-- Node3 -->
<g id="node3" class="node">
<title>Node3</title>
<g id="a_node3"><a xlink:href="classembed_1_1percent.html#a3635a4d8e47f6a65226ee6391509f3a1" target="_top" xlink:title="Construct 0% percent object.">
<polygon fill="white" stroke="black" points="251.5,-119.5 251.5,-138.5 370.5,-138.5 370.5,-119.5 251.5,-119.5"/>
<text text-anchor="middle" x="311" y="-126.5" font-family="Helvetica,sans-Serif" font-size="10.00">embed::percent::percent</text>
</a>
</g>
</g>
<!-- Node2&#45;&gt;Node3 -->
<g id="edge2" class="edge">
<title>Node2&#45;&gt;Node3</title>
<path fill="none" stroke="midnightblue" d="M192.36,-87.11C208.88,-94.46 229.32,-103.15 248,-110 253.97,-112.19 260.31,-114.33 266.59,-116.35"/>
<polygon fill="midnightblue" stroke="midnightblue" points="265.73,-119.75 276.32,-119.4 267.82,-113.07 265.73,-119.75"/>
</g>
<!-- Node4 -->
<g id="node4" class="node">
<title>Node4</title>
<g id="a_node4"><a xlink:href="classembed_1_1percent.html#a18867853ebb7f7101932f298ef9ac059" target="_top" xlink:title="Get the 100% value in its raw representation.">
<polygon fill="white" stroke="black" points="248,-81.5 248,-100.5 374,-100.5 374,-81.5 248,-81.5"/>
<text text-anchor="middle" x="311" y="-88.5" font-family="Helvetica,sans-Serif" font-size="10.00">embed::percent::raw_max</text>
</a>
</g>
</g>
<!-- Node2&#45;&gt;Node4 -->
<g id="edge3" class="edge">
<title>Node2&#45;&gt;Node4</title>
<path fill="none" stroke="midnightblue" d="M212.14,-78.65C220.42,-79.69 229.11,-80.79 237.75,-81.88"/>
<polygon fill="midnightblue" stroke="midnightblue" points="237.48,-85.37 247.84,-83.15 238.35,-78.43 237.48,-85.37"/>
</g>
<!-- Node5 -->
<g id="node5" class="node">
<title>Node5</title>
<g id="a_node5"><a xlink:href="classembed_1_1percent.html#addd3062c4b442314f9b135b532367c44" target="_top" xlink:title="Get the &#45;100% value in its raw representation.">
<polygon fill="white" stroke="black" points="249,-43.5 249,-62.5 373,-62.5 373,-43.5 249,-43.5"/>
<text text-anchor="middle" x="311" y="-50.5" font-family="Helvetica,sans-Serif" font-size="10.00">embed::percent::raw_min</text>
</a>
</g>
</g>
<!-- Node2&#45;&gt;Node5 -->
<g id="edge4" class="edge">
<title>Node2&#45;&gt;Node5</title>
<path fill="none" stroke="midnightblue" d="M212.14,-65.35C220.76,-64.27 229.82,-63.12 238.8,-61.99"/>
<polygon fill="midnightblue" stroke="midnightblue" points="239.4,-65.44 248.88,-60.72 238.52,-58.5 239.4,-65.44"/>
</g>
<!-- Node6 -->
<g id="node6" class="node">
<title>Node6</title>
<g id="a_node6"><a xlink:href="group__utility.html#ga84ea33bb969785c47247cfe0da9aa98e" target="_top" xlink:title="Perform integer division and round the value up if the next decimal place is greater than or equal to...">
<polygon fill="white" stroke="black" points="248.5,-5.5 248.5,-24.5 373.5,-24.5 373.5,-5.5 248.5,-5.5"/>
<text text-anchor="middle" x="311" y="-12.5" font-family="Helvetica,sans-Serif" font-size="10.00">embed::rounding_division</text>
</a>
</g>
</g>
<!-- Node2&#45;&gt;Node6 -->
<g id="edge5" class="edge">
<title>Node2&#45;&gt;Node6</title>
<path fill="none" stroke="midnightblue" d="M192.36,-56.89C208.88,-49.54 229.32,-40.85 248,-34 253.97,-31.81 260.31,-29.67 266.59,-27.65"/>
<polygon fill="midnightblue" stroke="midnightblue" points="267.82,-30.93 276.32,-24.6 265.73,-24.25 267.82,-30.93"/>
</g>
<!-- Node7 -->
<g id="node7" class="node">
<title>Node7</title>
<g id="a_node7"><a xlink:href="group__utility.html#ga6f0922a28ac81378eb689b2ab4bc299a" target="_top" xlink:title="Generic absolute value function that works for integer types.">
<polygon fill="white" stroke="black" points="410,-5.5 410,-24.5 526,-24.5 526,-5.5 410,-5.5"/>
<text text-anchor="middle" x="468" y="-12.5" font-family="Helvetica,sans-Serif" font-size="10.00">embed::absolute_value</text>
</a>
</g>
</g>
<!-- Node6&#45;&gt;Node7 -->
<g id="edge6" class="edge">
<title>Node6&#45;&gt;Node7</title>
<path fill="none" stroke="midnightblue" d="M373.71,-15C382.26,-15 391.09,-15 399.74,-15"/>
<polygon fill="midnightblue" stroke="midnightblue" points="399.79,-18.5 409.79,-15 399.79,-11.5 399.79,-18.5"/>
</g>
<!-- Node8&#45;&gt;Node8 -->
<g id="edge8" class="edge">
<title>Node8&#45;&gt;Node8</title>
<path fill="none" stroke="midnightblue" d="M139.39,-19.76C130.09,-28.57 136.46,-38 158.5,-38 172.62,-38 180.31,-34.13 181.57,-29.03"/>
<polygon fill="midnightblue" stroke="midnightblue" points="184.75,-27.58 177.61,-19.76 178.31,-30.33 184.75,-27.58"/>
</g>
</g>
</svg>
