<?xml version="1.0" encoding="UTF-8" standalone="no"?>
<!DOCTYPE svg PUBLIC "-//W3C//DTD SVG 1.1//EN"
 "http://www.w3.org/Graphics/SVG/1.1/DTD/svg11.dtd">
<!-- Generated by graphviz version 3.0.0 (20220413.0242)
 -->
<!-- Title: embed::cycles_per Pages: 1 -->
<svg width="418pt" height="47pt"
 viewBox="0.00 0.00 418.00 47.00" xmlns="http://www.w3.org/2000/svg" xmlns:xlink="http://www.w3.org/1999/xlink">
<g id="graph0" class="graph" transform="scale(1 1) rotate(0) translate(4 43)">
<title>embed::cycles_per</title>
<polygon fill="white" stroke="transparent" points="-4,4 -4,-43 414,-43 414,4 -4,4"/>
<!-- Node1 -->
<g id="node1" class="node">
<title>Node1</title>
<g id="a_node1"><a xlink:title="Calculate the number of cycles of this frequency within the time duration. This function is meant for...">
<polygon fill="#bfbfbf" stroke="black" points="0,-19.5 0,-38.5 97,-38.5 97,-19.5 0,-19.5"/>
<text text-anchor="middle" x="48.5" y="-26.5" font-family="Helvetica,sans-Serif" font-size="10.00">embed::cycles_per</text>
</a>
</g>
</g>
<!-- Node2 -->
<g id="node2" class="node">
<title>Node2</title>
<g id="a_node2"><a xlink:href="group__utility.html#ga6f0922a28ac81378eb689b2ab4bc299a" target="_top" xlink:title="Generic absolute value function that works for integer types.">
<polygon fill="white" stroke="black" points="294,-19.5 294,-38.5 410,-38.5 410,-19.5 294,-19.5"/>
<text text-anchor="middle" x="352" y="-26.5" font-family="Helvetica,sans-Serif" font-size="10.00">embed::absolute_value</text>
</a>
</g>
</g>
<!-- Node1&#45;&gt;Node2 -->
<g id="edge1" class="edge">
<title>Node1&#45;&gt;Node2</title>
<path fill="none" stroke="midnightblue" d="M97.27,-29C147.53,-29 227.03,-29 283.64,-29"/>
<polygon fill="midnightblue" stroke="midnightblue" points="283.93,-32.5 293.93,-29 283.93,-25.5 283.93,-32.5"/>
</g>
<!-- Node3 -->
<g id="node3" class="node">
<title>Node3</title>
<g id="a_node3"><a xlink:href="group__utility.html#ga84ea33bb969785c47247cfe0da9aa98e" target="_top" xlink:title="Perform integer division and round the value up if the next decimal place is greater than or equal to...">
<polygon fill="white" stroke="black" points="133,-0.5 133,-19.5 258,-19.5 258,-0.5 133,-0.5"/>
<text text-anchor="middle" x="195.5" y="-7.5" font-family="Helvetica,sans-Serif" font-size="10.00">embed::rounding_division</text>
</a>
</g>
</g>
<!-- Node1&#45;&gt;Node3 -->
<g id="edge2" class="edge">
<title>Node1&#45;&gt;Node3</title>
<path fill="none" stroke="midnightblue" d="M97.38,-22.73C105.56,-21.65 114.22,-20.52 122.86,-19.39"/>
<polygon fill="midnightblue" stroke="midnightblue" points="123.51,-22.83 132.97,-18.06 122.6,-15.89 123.51,-22.83"/>
</g>
<!-- Node3&#45;&gt;Node2 -->
<g id="edge3" class="edge">
<title>Node3&#45;&gt;Node2</title>
<path fill="none" stroke="midnightblue" d="M258.01,-17.56C266.47,-18.61 275.21,-19.68 283.77,-20.73"/>
<polygon fill="midnightblue" stroke="midnightblue" points="283.37,-24.21 293.72,-21.96 284.22,-17.26 283.37,-24.21"/>
</g>
</g>
</svg>
