<?xml version="1.0" encoding="UTF-8" standalone="no"?>
<!DOCTYPE svg PUBLIC "-//W3C//DTD SVG 1.1//EN"
 "http://www.w3.org/Graphics/SVG/1.1/DTD/svg11.dtd">
<!-- Generated by graphviz version 3.0.0 (20220413.0242)
 -->
<!-- Title: hal::read Pages: 1 -->
<svg width="871pt" height="184pt"
 viewBox="0.00 0.00 871.00 183.50" xmlns="http://www.w3.org/2000/svg" xmlns:xlink="http://www.w3.org/1999/xlink">
<g id="graph0" class="graph" transform="scale(1 1) rotate(0) translate(4 179.5)">
<title>hal::read</title>
<polygon fill="white" stroke="transparent" points="-4,4 -4,-179.5 867,-179.5 867,4 -4,4"/>
<!-- Node1 -->
<g id="node1" class="node">
<title>Node1</title>
<g id="a_node1"><a xlink:title="Read bytes from a serial port.">
<polygon fill="#bfbfbf" stroke="black" points="0,-19.5 0,-38.5 53,-38.5 53,-19.5 0,-19.5"/>
<text text-anchor="middle" x="26.5" y="-26.5" font-family="Helvetica,sans-Serif" font-size="10.00">hal::read</text>
</a>
</g>
</g>
<!-- Node2 -->
<g id="node2" class="node">
<title>Node2</title>
<g id="a_node2"><a xlink:href="group__counter.html#gad6b2dea2bf157a3df06253aac6354586" target="_top" xlink:title="Delay execution for a duration of time using a hardware counter.">
<polygon fill="white" stroke="black" points="101,-38.5 101,-57.5 157,-57.5 157,-38.5 101,-38.5"/>
<text text-anchor="middle" x="129" y="-45.5" font-family="Helvetica,sans-Serif" font-size="10.00">hal::delay</text>
</a>
</g>
</g>
<!-- Node1&#45;&gt;Node2 -->
<g id="edge1" class="edge">
<title>Node1&#45;&gt;Node2</title>
<path fill="none" stroke="midnightblue" d="M53.12,-33.84C64.48,-35.99 78.07,-38.56 90.53,-40.92"/>
<polygon fill="midnightblue" stroke="midnightblue" points="90.19,-44.41 100.67,-42.83 91.49,-37.54 90.19,-44.41"/>
</g>
<!-- Node11 -->
<g id="node11" class="node">
<title>Node11</title>
<g id="a_node11"><a xlink:href="classhal_1_1serial.html#a62c5725e8eeee9aa6f6815dbb54c6e6c" target="_top" xlink:title="Read the bytes received over the receiver line into buffer.">
<polygon fill="white" stroke="black" points="89,-0.5 89,-19.5 169,-19.5 169,-0.5 89,-0.5"/>
<text text-anchor="middle" x="129" y="-7.5" font-family="Helvetica,sans-Serif" font-size="10.00">hal::serial::read</text>
</a>
</g>
</g>
<!-- Node1&#45;&gt;Node11 -->
<g id="edge14" class="edge">
<title>Node1&#45;&gt;Node11</title>
<path fill="none" stroke="midnightblue" d="M53.12,-24.16C60.98,-22.67 69.91,-20.98 78.79,-19.3"/>
<polygon fill="midnightblue" stroke="midnightblue" points="79.57,-22.72 88.74,-17.42 78.27,-15.84 79.57,-22.72"/>
</g>
<!-- Node2&#45;&gt;Node2 -->
<g id="edge12" class="edge">
<title>Node2&#45;&gt;Node2</title>
<path fill="none" stroke="midnightblue" d="M113.28,-57.76C105.63,-66.57 110.87,-76 129,-76 140.33,-76 146.63,-72.31 147.89,-67.4"/>
<polygon fill="midnightblue" stroke="midnightblue" points="151.17,-66.17 144.72,-57.76 144.52,-68.35 151.17,-66.17"/>
</g>
<!-- Node3 -->
<g id="node3" class="node">
<title>Node3</title>
<g id="a_node3"><a xlink:href="group__counter.html#ga3fb156fd09b7bff2df7c0fb36b7a1357" target="_top" xlink:title="Create a timeout object based on hal::counter.">
<polygon fill="white" stroke="black" points="205,-59.5 205,-78.5 303,-78.5 303,-59.5 205,-59.5"/>
<text text-anchor="middle" x="254" y="-66.5" font-family="Helvetica,sans-Serif" font-size="10.00">hal::create_timeout</text>
</a>
</g>
</g>
<!-- Node2&#45;&gt;Node3 -->
<g id="edge2" class="edge">
<title>Node2&#45;&gt;Node3</title>
<path fill="none" stroke="midnightblue" d="M157.3,-52.66C168.46,-54.57 181.84,-56.85 195,-59.1"/>
<polygon fill="midnightblue" stroke="midnightblue" points="194.53,-62.57 204.98,-60.8 195.71,-55.67 194.53,-62.57"/>
</g>
<!-- Node9 -->
<g id="node9" class="node">
<title>Node9</title>
<g id="a_node9"><a xlink:href="namespacehal.html#a09499a696428213091b196699563099f" target="_top" xlink:title=" ">
<polygon fill="white" stroke="black" points="492.5,-12.5 492.5,-31.5 569.5,-31.5 569.5,-12.5 492.5,-12.5"/>
<text text-anchor="middle" x="531" y="-19.5" font-family="Helvetica,sans-Serif" font-size="10.00">hal::new_error</text>
</a>
</g>
</g>
<!-- Node2&#45;&gt;Node9 -->
<g id="edge13" class="edge">
<title>Node2&#45;&gt;Node9</title>
<path fill="none" stroke="midnightblue" d="M157.18,-46.23C224.11,-41.88 397.57,-30.61 482.18,-25.11"/>
<polygon fill="midnightblue" stroke="midnightblue" points="482.53,-28.59 492.29,-24.45 482.08,-21.61 482.53,-28.59"/>
</g>
<!-- Node4 -->
<g id="node4" class="node">
<title>Node4</title>
<g id="a_node4"><a xlink:href="classhal_1_1counter__timeout.html#a6ee789453ce4aaddee20f61e835c1bb5" target="_top" xlink:title="Create a counter_timeout.">
<polygon fill="white" stroke="black" points="339,-63 339,-93 443,-93 443,-63 339,-63"/>
<text text-anchor="start" x="347" y="-81" font-family="Helvetica,sans-Serif" font-size="10.00">hal::counter_timeout</text>
<text text-anchor="middle" x="391" y="-70" font-family="Helvetica,sans-Serif" font-size="10.00">::create</text>
</a>
</g>
</g>
<!-- Node3&#45;&gt;Node4 -->
<g id="edge3" class="edge">
<title>Node3&#45;&gt;Node4</title>
<path fill="none" stroke="midnightblue" d="M303.36,-72.22C311.53,-72.77 320.12,-73.34 328.57,-73.9"/>
<polygon fill="midnightblue" stroke="midnightblue" points="328.58,-77.41 338.79,-74.59 329.04,-70.43 328.58,-77.41"/>
</g>
<!-- Node5 -->
<g id="node5" class="node">
<title>Node5</title>
<g id="a_node5"><a xlink:href="classhal_1_1counter__timeout.html#ae543adb6965def1209baf5a2f91cd692" target="_top" xlink:title="Construct a new counter timeout object.">
<polygon fill="white" stroke="black" points="479,-145 479,-175 583,-175 583,-145 479,-145"/>
<text text-anchor="start" x="487" y="-163" font-family="Helvetica,sans-Serif" font-size="10.00">hal::counter_timeout</text>
<text text-anchor="middle" x="531" y="-152" font-family="Helvetica,sans-Serif" font-size="10.00">::counter_timeout</text>
</a>
</g>
</g>
<!-- Node4&#45;&gt;Node5 -->
<g id="edge4" class="edge">
<title>Node4&#45;&gt;Node5</title>
<path fill="none" stroke="midnightblue" d="M413.34,-93.05C430.67,-105.02 455.94,-121.86 479,-135 482.19,-136.82 485.52,-138.63 488.9,-140.41"/>
<polygon fill="midnightblue" stroke="midnightblue" points="487.36,-143.55 497.85,-145 490.55,-137.32 487.36,-143.55"/>
</g>
<!-- Node6 -->
<g id="node6" class="node">
<title>Node6</title>
<g id="a_node6"><a xlink:href="group__utility.html#ga9f67c4dbb94efa24f2d8852bf6e424cc" target="_top" xlink:title="Calculate the number of cycles of this frequency within the time duration. This function is meant for...">
<polygon fill="white" stroke="black" points="491,-106.5 491,-125.5 571,-125.5 571,-106.5 491,-106.5"/>
<text text-anchor="middle" x="531" y="-113.5" font-family="Helvetica,sans-Serif" font-size="10.00">hal::cycles_per</text>
</a>
</g>
</g>
<!-- Node4&#45;&gt;Node6 -->
<g id="edge5" class="edge">
<title>Node4&#45;&gt;Node6</title>
<path fill="none" stroke="midnightblue" d="M443.39,-92.15C457.19,-95.95 472,-100.03 485.39,-103.72"/>
<polygon fill="midnightblue" stroke="midnightblue" points="484.76,-107.17 495.33,-106.45 486.62,-100.42 484.76,-107.17"/>
</g>
<!-- Node4&#45;&gt;Node9 -->
<g id="edge9" class="edge">
<title>Node4&#45;&gt;Node9</title>
<path fill="none" stroke="midnightblue" d="M428.98,-62.99C450.11,-54.42 476.39,-43.75 496.85,-35.45"/>
<polygon fill="midnightblue" stroke="midnightblue" points="498.43,-38.59 506.38,-31.58 495.8,-32.1 498.43,-38.59"/>
</g>
<!-- Node10 -->
<g id="node10" class="node">
<title>Node10</title>
<g id="a_node10"><a xlink:href="classhal_1_1counter.html#a9c428b0843d7b4dfdc6b433a309cb71f" target="_top" xlink:title="Get the uptime of the counter since it has started.">
<polygon fill="white" stroke="black" points="481,-68.5 481,-87.5 581,-87.5 581,-68.5 481,-68.5"/>
<text text-anchor="middle" x="531" y="-75.5" font-family="Helvetica,sans-Serif" font-size="10.00">hal::counter::uptime</text>
</a>
</g>
</g>
<!-- Node4&#45;&gt;Node10 -->
<g id="edge11" class="edge">
<title>Node4&#45;&gt;Node10</title>
<path fill="none" stroke="midnightblue" d="M443.39,-78C452.29,-78 461.62,-78 470.72,-78"/>
<polygon fill="midnightblue" stroke="midnightblue" points="470.86,-81.5 480.86,-78 470.86,-74.5 470.86,-81.5"/>
</g>
<!-- Node7 -->
<g id="node7" class="node">
<title>Node7</title>
<g id="a_node7"><a xlink:href="group__utility.html#gaac86abb9a38f4962ded5507e15dca4b9" target="_top" xlink:title="Generic absolute value function that works for integer types.">
<polygon fill="white" stroke="black" points="764,-106.5 764,-125.5 863,-125.5 863,-106.5 764,-106.5"/>
<text text-anchor="middle" x="813.5" y="-113.5" font-family="Helvetica,sans-Serif" font-size="10.00">hal::absolute_value</text>
</a>
</g>
</g>
<!-- Node6&#45;&gt;Node7 -->
<g id="edge6" class="edge">
<title>Node6&#45;&gt;Node7</title>
<path fill="none" stroke="midnightblue" d="M571,-116C618.38,-116 698.76,-116 753.67,-116"/>
<polygon fill="midnightblue" stroke="midnightblue" points="753.95,-119.5 763.95,-116 753.95,-112.5 753.95,-119.5"/>
</g>
<!-- Node8 -->
<g id="node8" class="node">
<title>Node8</title>
<g id="a_node8"><a xlink:href="group__utility.html#ga58a3550a3236310f20b92eacf593c2f0" target="_top" xlink:title="Perform integer division and round the value up if the next decimal place is greater than or equal to...">
<polygon fill="white" stroke="black" points="619,-87.5 619,-106.5 728,-106.5 728,-87.5 619,-87.5"/>
<text text-anchor="middle" x="673.5" y="-94.5" font-family="Helvetica,sans-Serif" font-size="10.00">hal::rounding_division</text>
</a>
</g>
</g>
<!-- Node6&#45;&gt;Node8 -->
<g id="edge7" class="edge">
<title>Node6&#45;&gt;Node8</title>
<path fill="none" stroke="midnightblue" d="M571.14,-110.71C582.8,-109.13 595.89,-107.36 608.7,-105.63"/>
<polygon fill="midnightblue" stroke="midnightblue" points="609.43,-109.06 618.87,-104.25 608.49,-102.12 609.43,-109.06"/>
</g>
<!-- Node8&#45;&gt;Node7 -->
<g id="edge8" class="edge">
<title>Node8&#45;&gt;Node7</title>
<path fill="none" stroke="midnightblue" d="M728.25,-104.4C736.54,-105.54 745.13,-106.72 753.52,-107.88"/>
<polygon fill="midnightblue" stroke="midnightblue" points="753.24,-111.37 763.62,-109.27 754.2,-104.44 753.24,-111.37"/>
</g>
<!-- Node9&#45;&gt;Node9 -->
<g id="edge10" class="edge">
<title>Node9&#45;&gt;Node9</title>
<path fill="none" stroke="midnightblue" d="M509.42,-31.76C498.92,-40.57 506.12,-50 531,-50 546.94,-50 555.62,-46.13 557.04,-41.03"/>
<polygon fill="midnightblue" stroke="midnightblue" points="560.07,-39.25 552.58,-31.76 553.76,-42.29 560.07,-39.25"/>
</g>
</g>
</svg>
