<?xml version="1.0" encoding="UTF-8" standalone="no"?>
<!DOCTYPE svg PUBLIC "-//W3C//DTD SVG 1.1//EN"
 "http://www.w3.org/Graphics/SVG/1.1/DTD/svg11.dtd">
<!-- Generated by graphviz version 3.0.0 (20220413.0242)
 -->
<!-- Title: hal::write_then_read Pages: 1 -->
<svg width="337pt" height="66pt"
 viewBox="0.00 0.00 337.00 66.00" xmlns="http://www.w3.org/2000/svg" xmlns:xlink="http://www.w3.org/1999/xlink">
<g id="graph0" class="graph" transform="scale(1 1) rotate(0) translate(4 62)">
<title>hal::write_then_read</title>
<polygon fill="white" stroke="transparent" points="-4,4 -4,-62 333,-62 333,4 -4,4"/>
<!-- Node1 -->
<g id="node1" class="node">
<title>Node1</title>
<g id="a_node1"><a xlink:title="Perform a write then read transaction over serial.">
<polygon fill="#bfbfbf" stroke="black" points="0,-19.5 0,-38.5 103,-38.5 103,-19.5 0,-19.5"/>
<text text-anchor="middle" x="51.5" y="-26.5" font-family="Helvetica,sans-Serif" font-size="10.00">hal::write_then_read</text>
</a>
</g>
</g>
<!-- Node2 -->
<g id="node2" class="node">
<title>Node2</title>
<g id="a_node2"><a xlink:href="group__i2c.html#ga1488346026180e28801ed5431ca3d889" target="_top" xlink:title="read bytes from target device on i2c bus">
<polygon fill="white" stroke="black" points="140,-38.5 140,-57.5 193,-57.5 193,-38.5 140,-38.5"/>
<text text-anchor="middle" x="166.5" y="-45.5" font-family="Helvetica,sans-Serif" font-size="10.00">hal::read</text>
</a>
</g>
</g>
<!-- Node1&#45;&gt;Node2 -->
<g id="edge1" class="edge">
<title>Node1&#45;&gt;Node2</title>
<path fill="none" stroke="midnightblue" d="M103.05,-37.5C112.07,-39.02 121.3,-40.57 129.8,-42"/>
<polygon fill="midnightblue" stroke="midnightblue" points="129.3,-45.46 139.74,-43.67 130.46,-38.56 129.3,-45.46"/>
</g>
<!-- Node4 -->
<g id="node4" class="node">
<title>Node4</title>
<g id="a_node4"><a xlink:href="group__i2c.html#ga5401a79aa513b69592eb15fc6200d613" target="_top" xlink:title="write data to a target device on the i2c bus">
<polygon fill="white" stroke="black" points="139,-0.5 139,-19.5 194,-19.5 194,-0.5 139,-0.5"/>
<text text-anchor="middle" x="166.5" y="-7.5" font-family="Helvetica,sans-Serif" font-size="10.00">hal::write</text>
</a>
</g>
</g>
<!-- Node1&#45;&gt;Node4 -->
<g id="edge3" class="edge">
<title>Node1&#45;&gt;Node4</title>
<path fill="none" stroke="midnightblue" d="M103.05,-20.5C111.73,-19.04 120.59,-17.55 128.82,-16.17"/>
<polygon fill="midnightblue" stroke="midnightblue" points="129.55,-19.59 138.83,-14.48 128.39,-12.69 129.55,-19.59"/>
</g>
<!-- Node3 -->
<g id="node3" class="node">
<title>Node3</title>
<g id="a_node3"><a xlink:href="classhal_1_1i2c.html#a6c7b422e582cf88fc4efa7188a4a94e2" target="_top" xlink:title="perform an i2c transaction with another device on the bus. The type of transaction depends on values ...">
<polygon fill="white" stroke="black" points="230,-19.5 230,-38.5 329,-38.5 329,-19.5 230,-19.5"/>
<text text-anchor="middle" x="279.5" y="-26.5" font-family="Helvetica,sans-Serif" font-size="10.00">hal::i2c::transaction</text>
</a>
</g>
</g>
<!-- Node2&#45;&gt;Node3 -->
<g id="edge2" class="edge">
<title>Node2&#45;&gt;Node3</title>
<path fill="none" stroke="midnightblue" d="M193.24,-43.59C201.24,-42.22 210.41,-40.66 219.69,-39.07"/>
<polygon fill="midnightblue" stroke="midnightblue" points="220.51,-42.48 229.77,-37.34 219.33,-35.58 220.51,-42.48"/>
</g>
<!-- Node4&#45;&gt;Node3 -->
<g id="edge4" class="edge">
<title>Node4&#45;&gt;Node3</title>
<path fill="none" stroke="midnightblue" d="M194.09,-14.55C202,-15.91 211,-17.45 220.11,-19"/>
<polygon fill="midnightblue" stroke="midnightblue" points="219.53,-22.46 229.98,-20.69 220.71,-15.56 219.53,-22.46"/>
</g>
</g>
</svg>
