<?xml version="1.0" encoding="UTF-8" standalone="no"?>
<!DOCTYPE svg PUBLIC "-//W3C//DTD SVG 1.1//EN"
 "http://www.w3.org/Graphics/SVG/1.1/DTD/svg11.dtd">
<!-- Generated by graphviz version 3.0.0 (20220413.0242)
 -->
<!-- Title: hal::absolute_value Pages: 1 -->
<svg width="851pt" height="296pt"
 viewBox="0.00 0.00 851.00 295.50" xmlns="http://www.w3.org/2000/svg" xmlns:xlink="http://www.w3.org/1999/xlink">
<g id="graph0" class="graph" transform="scale(1 1) rotate(0) translate(4 291.5)">
<title>hal::absolute_value</title>
<polygon fill="white" stroke="transparent" points="-4,4 -4,-291.5 847,-291.5 847,4 -4,4"/>
<!-- Node1 -->
<g id="node1" class="node">
<title>Node1</title>
<g id="a_node1"><a xlink:title="Generic absolute value function that works for integer types.">
<polygon fill="#bfbfbf" stroke="black" points="744,-139.5 744,-158.5 843,-158.5 843,-139.5 744,-139.5"/>
<text text-anchor="middle" x="793.5" y="-146.5" font-family="Helvetica,sans-Serif" font-size="10.00">hal::absolute_value</text>
</a>
</g>
</g>
<!-- Node2 -->
<g id="node2" class="node">
<title>Node2</title>
<g id="a_node2"><a xlink:href="group__utility.html#ga9f67c4dbb94efa24f2d8852bf6e424cc" target="_top" xlink:title="Calculate the number of cycles of this frequency within the time duration. This function is meant for...">
<polygon fill="white" stroke="black" points="476.5,-213.5 476.5,-232.5 556.5,-232.5 556.5,-213.5 476.5,-213.5"/>
<text text-anchor="middle" x="516.5" y="-220.5" font-family="Helvetica,sans-Serif" font-size="10.00">hal::cycles_per</text>
</a>
</g>
</g>
<!-- Node1&#45;&gt;Node2 -->
<g id="edge1" class="edge">
<title>Node1&#45;&gt;Node2</title>
<path fill="none" stroke="midnightblue" d="M747.4,-161.14C693.07,-175.75 602.92,-200.01 553.19,-213.4"/>
<polygon fill="midnightblue" stroke="midnightblue" points="748.36,-164.5 757.11,-158.52 746.55,-157.74 748.36,-164.5"/>
</g>
<!-- Node8 -->
<g id="node8" class="node">
<title>Node8</title>
<g id="a_node8"><a xlink:href="group__utility.html#ga58a3550a3236310f20b92eacf593c2f0" target="_top" xlink:title="Perform integer division and round the value up if the next decimal place is greater than or equal to...">
<polygon fill="white" stroke="black" points="599,-120.5 599,-139.5 708,-139.5 708,-120.5 599,-120.5"/>
<text text-anchor="middle" x="653.5" y="-127.5" font-family="Helvetica,sans-Serif" font-size="10.00">hal::rounding_division</text>
</a>
</g>
</g>
<!-- Node1&#45;&gt;Node8 -->
<g id="edge8" class="edge">
<title>Node1&#45;&gt;Node8</title>
<path fill="none" stroke="midnightblue" d="M733.71,-140.91C725.3,-139.75 716.67,-138.56 708.35,-137.41"/>
<polygon fill="midnightblue" stroke="midnightblue" points="733.46,-144.4 743.85,-142.3 734.42,-137.47 733.46,-144.4"/>
</g>
<!-- Node3 -->
<g id="node3" class="node">
<title>Node3</title>
<g id="a_node3"><a xlink:href="group__utility.html#gadbf6d9dce469abb142fc77e0905d88aa" target="_top" xlink:title="Calculate a duty cycle based on a source frequency, target wavelength and a percentage.">
<polygon fill="white" stroke="black" points="326.5,-257 326.5,-287 422.5,-287 422.5,-257 326.5,-257"/>
<text text-anchor="start" x="334.5" y="-275" font-family="Helvetica,sans-Serif" font-size="10.00">hal::calculate_duty</text>
<text text-anchor="middle" x="374.5" y="-264" font-family="Helvetica,sans-Serif" font-size="10.00">_cycle</text>
</a>
</g>
</g>
<!-- Node2&#45;&gt;Node3 -->
<g id="edge2" class="edge">
<title>Node2&#45;&gt;Node3</title>
<path fill="none" stroke="midnightblue" d="M478.65,-235.9C460.18,-242.36 437.71,-250.23 418.46,-256.96"/>
<polygon fill="midnightblue" stroke="midnightblue" points="479.89,-239.17 488.17,-232.56 477.58,-232.56 479.89,-239.17"/>
</g>
<!-- Node4 -->
<g id="node4" class="node">
<title>Node4</title>
<g id="a_node4"><a xlink:href="classhal_1_1counter__timeout.html#aca5b940f8e89106b393fb34cb61aff14" target="_top" xlink:title="Create a counter_timeout.">
<polygon fill="white" stroke="black" points="322.5,-208 322.5,-238 426.5,-238 426.5,-208 322.5,-208"/>
<text text-anchor="start" x="330.5" y="-226" font-family="Helvetica,sans-Serif" font-size="10.00">hal::counter_timeout</text>
<text text-anchor="middle" x="374.5" y="-215" font-family="Helvetica,sans-Serif" font-size="10.00">::create</text>
</a>
</g>
</g>
<!-- Node2&#45;&gt;Node4 -->
<g id="edge3" class="edge">
<title>Node2&#45;&gt;Node4</title>
<path fill="none" stroke="midnightblue" d="M466.12,-223C453.31,-223 439.5,-223 426.61,-223"/>
<polygon fill="midnightblue" stroke="midnightblue" points="466.13,-226.5 476.13,-223 466.13,-219.5 466.13,-226.5"/>
</g>
<!-- Node5 -->
<g id="node5" class="node">
<title>Node5</title>
<g id="a_node5"><a xlink:href="group__counter.html#ga0f73c780e3eb7b86be65a1746ccc1c95" target="_top" xlink:title="Create a timeout object based on hal::counter.">
<polygon fill="white" stroke="black" points="181,-213.5 181,-232.5 279,-232.5 279,-213.5 181,-213.5"/>
<text text-anchor="middle" x="230" y="-220.5" font-family="Helvetica,sans-Serif" font-size="10.00">hal::create_timeout</text>
</a>
</g>
</g>
<!-- Node4&#45;&gt;Node5 -->
<g id="edge4" class="edge">
<title>Node4&#45;&gt;Node5</title>
<path fill="none" stroke="midnightblue" d="M312.42,-223C301.35,-223 289.95,-223 279.31,-223"/>
<polygon fill="midnightblue" stroke="midnightblue" points="312.46,-226.5 322.46,-223 312.46,-219.5 312.46,-226.5"/>
</g>
<!-- Node6 -->
<g id="node6" class="node">
<title>Node6</title>
<g id="a_node6"><a xlink:href="group__counter.html#ga8b4d520b8fbf98436b255041f73b9a8d" target="_top" xlink:title="Delay execution for a duration of time using a hardware counter.">
<polygon fill="white" stroke="black" points="89,-213.5 89,-232.5 145,-232.5 145,-213.5 89,-213.5"/>
<text text-anchor="middle" x="117" y="-220.5" font-family="Helvetica,sans-Serif" font-size="10.00">hal::delay</text>
</a>
</g>
</g>
<!-- Node5&#45;&gt;Node6 -->
<g id="edge5" class="edge">
<title>Node5&#45;&gt;Node6</title>
<path fill="none" stroke="midnightblue" d="M170.8,-223C161.8,-223 152.89,-223 145.03,-223"/>
<polygon fill="midnightblue" stroke="midnightblue" points="170.96,-226.5 180.96,-223 170.96,-219.5 170.96,-226.5"/>
</g>
<!-- Node6&#45;&gt;Node6 -->
<g id="edge6" class="edge">
<title>Node6&#45;&gt;Node6</title>
<path fill="none" stroke="midnightblue" d="M133.67,-242.4C132.55,-247.31 127,-251 117,-251 101,-251 96.38,-241.57 103.13,-232.76"/>
<polygon fill="midnightblue" stroke="midnightblue" points="137.02,-241.39 130.87,-232.76 130.29,-243.34 137.02,-241.39"/>
</g>
<!-- Node7 -->
<g id="node7" class="node">
<title>Node7</title>
<g id="a_node7"><a xlink:href="group__serial.html#ga56a1548bd7b5f4b6f1dfa9e616b126e4" target="_top" xlink:title="Read bytes from a serial port.">
<polygon fill="white" stroke="black" points="0,-213.5 0,-232.5 53,-232.5 53,-213.5 0,-213.5"/>
<text text-anchor="middle" x="26.5" y="-220.5" font-family="Helvetica,sans-Serif" font-size="10.00">hal::read</text>
</a>
</g>
</g>
<!-- Node6&#45;&gt;Node7 -->
<g id="edge7" class="edge">
<title>Node6&#45;&gt;Node7</title>
<path fill="none" stroke="midnightblue" d="M78.73,-223C70.12,-223 61.14,-223 53.16,-223"/>
<polygon fill="midnightblue" stroke="midnightblue" points="78.97,-226.5 88.97,-223 78.97,-219.5 78.97,-226.5"/>
</g>
<!-- Node8&#45;&gt;Node2 -->
<g id="edge9" class="edge">
<title>Node8&#45;&gt;Node2</title>
<path fill="none" stroke="midnightblue" d="M635.22,-146.95C618.01,-163.17 590.29,-187.52 563,-204 557.14,-207.54 550.5,-210.72 544.13,-213.43"/>
<polygon fill="midnightblue" stroke="midnightblue" points="637.98,-149.16 642.78,-139.72 633.14,-144.11 637.98,-149.16"/>
</g>
<!-- Node9 -->
<g id="node9" class="node">
<title>Node9</title>
<g id="a_node9"><a xlink:href="group__utility.html#gaeb8013ca607e5e7de71637e85a45e809" target="_top" xlink:title="Calculate the amount of time it takes a frequency to oscillate a number of cycles.">
<polygon fill="white" stroke="black" points="470,-164 470,-194 563,-194 563,-164 470,-164"/>
<text text-anchor="start" x="478" y="-182" font-family="Helvetica,sans-Serif" font-size="10.00">hal::duration_from</text>
<text text-anchor="middle" x="516.5" y="-171" font-family="Helvetica,sans-Serif" font-size="10.00">_cycles</text>
</a>
</g>
</g>
<!-- Node8&#45;&gt;Node9 -->
<g id="edge10" class="edge">
<title>Node8&#45;&gt;Node9</title>
<path fill="none" stroke="midnightblue" d="M616.72,-142.99C598.96,-149.43 577.4,-157.26 558.93,-163.96"/>
<polygon fill="midnightblue" stroke="midnightblue" points="617.94,-146.27 626.15,-139.56 615.56,-139.69 617.94,-146.27"/>
</g>
<!-- Node10 -->
<g id="node10" class="node">
<title>Node10</title>
<g id="a_node10"><a xlink:href="classhal_1_1percent.html#a4fece281bfb4ec0f48f86b14168194ce" target="_top" xlink:title="Generate a percentage based on input relative to the maximum possible value.">
<polygon fill="white" stroke="black" points="471.5,-115 471.5,-145 561.5,-145 561.5,-115 471.5,-115"/>
<text text-anchor="start" x="479.5" y="-133" font-family="Helvetica,sans-Serif" font-size="10.00">hal::percent::from</text>
<text text-anchor="middle" x="516.5" y="-122" font-family="Helvetica,sans-Serif" font-size="10.00">_ratio</text>
</a>
</g>
</g>
<!-- Node8&#45;&gt;Node10 -->
<g id="edge11" class="edge">
<title>Node8&#45;&gt;Node10</title>
<path fill="none" stroke="midnightblue" d="M588.52,-130C579.38,-130 570.16,-130 561.52,-130"/>
<polygon fill="midnightblue" stroke="midnightblue" points="588.76,-133.5 598.76,-130 588.76,-126.5 588.76,-133.5"/>
</g>
<!-- Node14 -->
<g id="node14" class="node">
<title>Node14</title>
<g id="a_node14"><a xlink:href="classhal_1_1percent.html#a1bf2e7369a19e7795c2e68c643e8d06b" target="_top" xlink:title="Get the percent after it is scaled to a range. The output percent is bound within the given range....">
<polygon fill="white" stroke="black" points="327.5,-43.5 327.5,-62.5 421.5,-62.5 421.5,-43.5 327.5,-43.5"/>
<text text-anchor="middle" x="374.5" y="-50.5" font-family="Helvetica,sans-Serif" font-size="10.00">hal::percent::scale</text>
</a>
</g>
</g>
<!-- Node8&#45;&gt;Node14 -->
<g id="edge17" class="edge">
<title>Node8&#45;&gt;Node14</title>
<path fill="none" stroke="midnightblue" d="M608.44,-117.75C553.38,-102.45 460.31,-76.58 410.1,-62.62"/>
<polygon fill="midnightblue" stroke="midnightblue" points="607.68,-121.17 618.26,-120.48 609.56,-114.43 607.68,-121.17"/>
</g>
<!-- Node15 -->
<g id="node15" class="node">
<title>Node15</title>
<g id="a_node15"><a xlink:href="group__utility.html#ga7497d9f06c28fb7064e96eb4b8b2653b" target="_top" xlink:title="Scale down a frequency by an integer factor.">
<polygon fill="white" stroke="black" points="480.5,-38.5 480.5,-57.5 552.5,-57.5 552.5,-38.5 480.5,-38.5"/>
<text text-anchor="middle" x="516.5" y="-45.5" font-family="Helvetica,sans-Serif" font-size="10.00">hal::operator/</text>
</a>
</g>
</g>
<!-- Node8&#45;&gt;Node15 -->
<g id="edge16" class="edge">
<title>Node8&#45;&gt;Node15</title>
<path fill="none" stroke="midnightblue" d="M629.9,-114.55C612.02,-102.52 586.26,-85.63 563,-72 554.52,-67.03 544.93,-61.9 536.75,-57.67"/>
<polygon fill="midnightblue" stroke="midnightblue" points="628.24,-117.66 638.49,-120.36 632.16,-111.86 628.24,-117.66"/>
</g>
<!-- Node16 -->
<g id="node16" class="node">
<title>Node16</title>
<g id="a_node16"><a xlink:href="group__utility.html#ga73d442b99558a8adf71fd377c6f7c60e" target="_top" xlink:title="Calculates and returns the wavelength in seconds.">
<polygon fill="white" stroke="black" points="475,-0.5 475,-19.5 558,-19.5 558,-0.5 475,-0.5"/>
<text text-anchor="middle" x="516.5" y="-7.5" font-family="Helvetica,sans-Serif" font-size="10.00">hal::wavelength</text>
</a>
</g>
</g>
<!-- Node8&#45;&gt;Node16 -->
<g id="edge18" class="edge">
<title>Node8&#45;&gt;Node16</title>
<path fill="none" stroke="midnightblue" d="M640.37,-111.89C624.75,-89.75 595.69,-52.37 563,-29 557.85,-25.32 551.87,-22.17 545.98,-19.57"/>
<polygon fill="midnightblue" stroke="midnightblue" points="637.65,-114.12 646.21,-120.36 643.41,-110.14 637.65,-114.12"/>
</g>
<!-- Node11 -->
<g id="node11" class="node">
<title>Node11</title>
<g id="a_node11"><a xlink:href="classhal_1_1rc__servo.html#a4b6b2863a7ea2f9e426f32c89a29c8c5" target="_top" xlink:title="Factory function to create a rc_servo object.">
<polygon fill="white" stroke="black" points="323,-169.5 323,-188.5 426,-188.5 426,-169.5 323,-169.5"/>
<text text-anchor="middle" x="374.5" y="-176.5" font-family="Helvetica,sans-Serif" font-size="10.00">hal::rc_servo::create</text>
</a>
</g>
</g>
<!-- Node10&#45;&gt;Node11 -->
<g id="edge12" class="edge">
<title>Node10&#45;&gt;Node11</title>
<path fill="none" stroke="midnightblue" d="M465.93,-148.59C455.42,-152.44 444.36,-156.41 434,-160 424.82,-163.18 414.77,-166.5 405.64,-169.46"/>
<polygon fill="midnightblue" stroke="midnightblue" points="467.22,-151.85 475.4,-145.11 464.81,-145.28 467.22,-151.85"/>
</g>
<!-- Node12 -->
<g id="node12" class="node">
<title>Node12</title>
<g id="a_node12"><a xlink:href="group__utility.html#gacf35495e951216c5f4765dbe9f256fdd" target="_top" xlink:title="Map an target value [x] from an input range [a,b] to an output range [c,d].">
<polygon fill="white" stroke="black" points="348,-131.5 348,-150.5 401,-150.5 401,-131.5 348,-131.5"/>
<text text-anchor="middle" x="374.5" y="-138.5" font-family="Helvetica,sans-Serif" font-size="10.00">hal::map</text>
</a>
</g>
</g>
<!-- Node10&#45;&gt;Node12 -->
<g id="edge13" class="edge">
<title>Node10&#45;&gt;Node12</title>
<path fill="none" stroke="midnightblue" d="M460.97,-134.28C440.38,-135.9 417.91,-137.67 401.18,-138.98"/>
<polygon fill="midnightblue" stroke="midnightblue" points="461.51,-137.75 471.2,-133.48 460.96,-130.77 461.51,-137.75"/>
</g>
<!-- Node13 -->
<g id="node13" class="node">
<title>Node13</title>
<g id="a_node13"><a xlink:href="structhal_1_1duty__cycle.html#a5f5bad1e9e0cd329eeecd5c0db0e0a32" target="_top" xlink:title="Conversion from duty cycle to percentage.">
<polygon fill="white" stroke="black" points="315,-82 315,-112 434,-112 434,-82 315,-82"/>
<text text-anchor="start" x="323" y="-100" font-family="Helvetica,sans-Serif" font-size="10.00">hal::duty_cycle::operator</text>
<text text-anchor="middle" x="374.5" y="-89" font-family="Helvetica,sans-Serif" font-size="10.00"> percent</text>
</a>
</g>
</g>
<!-- Node10&#45;&gt;Node13 -->
<g id="edge14" class="edge">
<title>Node10&#45;&gt;Node13</title>
<path fill="none" stroke="midnightblue" d="M461.32,-117.23C452.41,-115.13 443.13,-112.94 434.11,-110.82"/>
<polygon fill="midnightblue" stroke="midnightblue" points="460.67,-120.67 471.2,-119.56 462.27,-113.86 460.67,-120.67"/>
</g>
<!-- Node10&#45;&gt;Node14 -->
<g id="edge15" class="edge">
<title>Node10&#45;&gt;Node14</title>
<path fill="none" stroke="midnightblue" d="M483.18,-109.14C478.72,-106.13 474.22,-103.02 470,-100 453.53,-88.19 451.91,-81.5 434,-72 427.02,-68.3 419.19,-65.15 411.58,-62.54"/>
<polygon fill="midnightblue" stroke="midnightblue" points="481.38,-112.15 491.65,-114.78 485.26,-106.32 481.38,-112.15"/>
</g>
</g>
</svg>
