<?xml version="1.0" encoding="UTF-8" standalone="no"?>
<!DOCTYPE svg PUBLIC "-//W3C//DTD SVG 1.1//EN"
 "http://www.w3.org/Graphics/SVG/1.1/DTD/svg11.dtd">
<!-- Generated by graphviz version 3.0.0 (20220413.0242)
 -->
<!-- Title: embed::absolute_value Pages: 1 -->
<svg width="796pt" height="285pt"
 viewBox="0.00 0.00 796.00 284.50" xmlns="http://www.w3.org/2000/svg" xmlns:xlink="http://www.w3.org/1999/xlink">
<g id="graph0" class="graph" transform="scale(1 1) rotate(0) translate(4 280.5)">
<title>embed::absolute_value</title>
<polygon fill="white" stroke="transparent" points="-4,4 -4,-280.5 792,-280.5 792,4 -4,4"/>
<!-- Node1 -->
<g id="node1" class="node">
<title>Node1</title>
<g id="a_node1"><a xlink:title="Generic absolute value function that works for integer types.">
<polygon fill="#bfbfbf" stroke="black" points="672,-139.5 672,-158.5 788,-158.5 788,-139.5 672,-139.5"/>
<text text-anchor="middle" x="730" y="-146.5" font-family="Helvetica,sans-Serif" font-size="10.00">embed::absolute_value</text>
</a>
</g>
</g>
<!-- Node2 -->
<g id="node2" class="node">
<title>Node2</title>
<g id="a_node2"><a xlink:href="group__utility.html#ga61711bf3d8c25b82fb37db4f53426ef0" target="_top" xlink:title="Calculate the number of cycles of this frequency within the time duration. This function is meant for...">
<polygon fill="white" stroke="black" points="371.5,-213.5 371.5,-232.5 468.5,-232.5 468.5,-213.5 371.5,-213.5"/>
<text text-anchor="middle" x="420" y="-220.5" font-family="Helvetica,sans-Serif" font-size="10.00">embed::cycles_per</text>
</a>
</g>
</g>
<!-- Node1&#45;&gt;Node2 -->
<g id="edge1" class="edge">
<title>Node1&#45;&gt;Node2</title>
<path fill="none" stroke="midnightblue" d="M679.62,-160.86C618.9,-175.45 517.02,-199.93 460.97,-213.4"/>
<polygon fill="midnightblue" stroke="midnightblue" points="680.46,-164.26 689.36,-158.52 678.82,-157.46 680.46,-164.26"/>
</g>
<!-- Node7 -->
<g id="node7" class="node">
<title>Node7</title>
<g id="a_node7"><a xlink:href="group__utility.html#ga84ea33bb969785c47247cfe0da9aa98e" target="_top" xlink:title="Perform integer division and round the value up if the next decimal place is greater than or equal to...">
<polygon fill="white" stroke="black" points="511,-120.5 511,-139.5 636,-139.5 636,-120.5 511,-120.5"/>
<text text-anchor="middle" x="573.5" y="-127.5" font-family="Helvetica,sans-Serif" font-size="10.00">embed::rounding_division</text>
</a>
</g>
</g>
<!-- Node1&#45;&gt;Node7 -->
<g id="edge7" class="edge">
<title>Node1&#45;&gt;Node7</title>
<path fill="none" stroke="midnightblue" d="M661.91,-140.75C653.31,-139.69 644.54,-138.61 636.03,-137.57"/>
<polygon fill="midnightblue" stroke="midnightblue" points="661.56,-144.23 671.91,-141.98 662.41,-137.28 661.56,-144.23"/>
</g>
<!-- Node3 -->
<g id="node3" class="node">
<title>Node3</title>
<g id="a_node3"><a xlink:href="group__utility.html#gaa1a076554c019239de0fb3e3fb4edcf2" target="_top" xlink:title="Calculate a duty cycle based on a source frequency, target wavelength and a percentage.">
<polygon fill="white" stroke="black" points="215,-246 215,-276 328,-276 328,-246 215,-246"/>
<text text-anchor="start" x="223" y="-264" font-family="Helvetica,sans-Serif" font-size="10.00">embed::calculate_duty</text>
<text text-anchor="middle" x="271.5" y="-253" font-family="Helvetica,sans-Serif" font-size="10.00">_cycle</text>
</a>
</g>
</g>
<!-- Node2&#45;&gt;Node3 -->
<g id="edge2" class="edge">
<title>Node2&#45;&gt;Node3</title>
<path fill="none" stroke="midnightblue" d="M372.11,-235.16C358.08,-238.8 342.56,-242.83 328.02,-246.6"/>
<polygon fill="midnightblue" stroke="midnightblue" points="373.23,-238.49 382.03,-232.59 371.47,-231.71 373.23,-238.49"/>
</g>
<!-- Node4 -->
<g id="node4" class="node">
<title>Node4</title>
<g id="a_node4"><a xlink:href="group__counter.html#ga4f1edcd06bf52209d5293e54d0d1beb6" target="_top" xlink:title="Create a timeout object based on embed::counter.">
<polygon fill="white" stroke="black" points="214,-207.5 214,-226.5 329,-226.5 329,-207.5 214,-207.5"/>
<text text-anchor="middle" x="271.5" y="-214.5" font-family="Helvetica,sans-Serif" font-size="10.00">embed::create_timeout</text>
</a>
</g>
</g>
<!-- Node2&#45;&gt;Node4 -->
<g id="edge3" class="edge">
<title>Node2&#45;&gt;Node4</title>
<path fill="none" stroke="midnightblue" d="M361.4,-220.64C350.75,-220.2 339.63,-219.75 329.01,-219.31"/>
<polygon fill="midnightblue" stroke="midnightblue" points="361.3,-224.14 371.44,-221.05 361.59,-217.15 361.3,-224.14"/>
</g>
<!-- Node5 -->
<g id="node5" class="node">
<title>Node5</title>
<g id="a_node5"><a xlink:href="group__counter.html#ga53e2d568aa13881c4213fe89a2e1c42e" target="_top" xlink:title="Delay execution for a duration of time using a hardware counter.">
<polygon fill="white" stroke="black" points="105,-207.5 105,-226.5 178,-226.5 178,-207.5 105,-207.5"/>
<text text-anchor="middle" x="141.5" y="-214.5" font-family="Helvetica,sans-Serif" font-size="10.00">embed::delay</text>
</a>
</g>
</g>
<!-- Node4&#45;&gt;Node5 -->
<g id="edge4" class="edge">
<title>Node4&#45;&gt;Node5</title>
<path fill="none" stroke="midnightblue" d="M203.94,-217C195.04,-217 186.2,-217 178.12,-217"/>
<polygon fill="midnightblue" stroke="midnightblue" points="203.98,-220.5 213.98,-217 203.98,-213.5 203.98,-220.5"/>
</g>
<!-- Node5&#45;&gt;Node5 -->
<g id="edge5" class="edge">
<title>Node5&#45;&gt;Node5</title>
<path fill="none" stroke="midnightblue" d="M161.13,-236.4C159.82,-241.31 153.27,-245 141.5,-245 122.66,-245 117.21,-235.57 125.16,-226.76"/>
<polygon fill="midnightblue" stroke="midnightblue" points="164.38,-235.09 157.84,-226.76 157.76,-237.35 164.38,-235.09"/>
</g>
<!-- Node6 -->
<g id="node6" class="node">
<title>Node6</title>
<g id="a_node6"><a xlink:href="group__serial.html#ga56439487351e68f734fdf9b6330da4d2" target="_top" xlink:title="Read bytes from a serial port.">
<polygon fill="white" stroke="black" points="0,-207.5 0,-226.5 69,-226.5 69,-207.5 0,-207.5"/>
<text text-anchor="middle" x="34.5" y="-214.5" font-family="Helvetica,sans-Serif" font-size="10.00">embed::read</text>
</a>
</g>
</g>
<!-- Node5&#45;&gt;Node6 -->
<g id="edge6" class="edge">
<title>Node5&#45;&gt;Node6</title>
<path fill="none" stroke="midnightblue" d="M94.7,-217C86.14,-217 77.35,-217 69.24,-217"/>
<polygon fill="midnightblue" stroke="midnightblue" points="94.95,-220.5 104.95,-217 94.95,-213.5 94.95,-220.5"/>
</g>
<!-- Node7&#45;&gt;Node2 -->
<g id="edge8" class="edge">
<title>Node7&#45;&gt;Node2</title>
<path fill="none" stroke="midnightblue" d="M554.03,-146.4C535.2,-162.48 504.63,-186.86 475,-203 467.63,-207.02 459.28,-210.55 451.39,-213.49"/>
<polygon fill="midnightblue" stroke="midnightblue" points="556.55,-148.85 561.81,-139.66 551.96,-143.57 556.55,-148.85"/>
</g>
<!-- Node8 -->
<g id="node8" class="node">
<title>Node8</title>
<g id="a_node8"><a xlink:href="group__utility.html#ga19bf555b8e14f12184073b07791fd56b" target="_top" xlink:title="Calculate the amount of time it takes a frequency to oscillate a number of cycles.">
<polygon fill="white" stroke="black" points="365,-164 365,-194 475,-194 475,-164 365,-164"/>
<text text-anchor="start" x="373" y="-182" font-family="Helvetica,sans-Serif" font-size="10.00">embed::duration_from</text>
<text text-anchor="middle" x="420" y="-171" font-family="Helvetica,sans-Serif" font-size="10.00">_cycles</text>
</a>
</g>
</g>
<!-- Node7&#45;&gt;Node8 -->
<g id="edge9" class="edge">
<title>Node7&#45;&gt;Node8</title>
<path fill="none" stroke="midnightblue" d="M533.17,-142.72C513.08,-149.22 488.51,-157.16 467.49,-163.96"/>
<polygon fill="midnightblue" stroke="midnightblue" points="534.49,-145.97 542.93,-139.56 532.34,-139.31 534.49,-145.97"/>
</g>
<!-- Node9 -->
<g id="node9" class="node">
<title>Node9</title>
<g id="a_node9"><a xlink:href="classembed_1_1percent.html#a3031fcd41ebdbc14fe77114d239c0b27" target="_top" xlink:title="Generate a percentage based on input relative to the maximum possible value.">
<polygon fill="white" stroke="black" points="366.5,-115 366.5,-145 473.5,-145 473.5,-115 366.5,-115"/>
<text text-anchor="start" x="374.5" y="-133" font-family="Helvetica,sans-Serif" font-size="10.00">embed::percent::from</text>
<text text-anchor="middle" x="420" y="-122" font-family="Helvetica,sans-Serif" font-size="10.00">_ratio</text>
</a>
</g>
</g>
<!-- Node7&#45;&gt;Node9 -->
<g id="edge10" class="edge">
<title>Node7&#45;&gt;Node9</title>
<path fill="none" stroke="midnightblue" d="M500.71,-130C491.65,-130 482.52,-130 473.83,-130"/>
<polygon fill="midnightblue" stroke="midnightblue" points="500.88,-133.5 510.88,-130 500.88,-126.5 500.88,-133.5"/>
</g>
<!-- Node12 -->
<g id="node12" class="node">
<title>Node12</title>
<g id="a_node12"><a xlink:href="classembed_1_1percent.html#afa379fbbb92bc5dc22f0dce8bcf7ea1b" target="_top" xlink:title="Get the percent after it is scaled to a range. The output percent is bound within the given range....">
<polygon fill="white" stroke="black" points="216.5,-76.5 216.5,-95.5 326.5,-95.5 326.5,-76.5 216.5,-76.5"/>
<text text-anchor="middle" x="271.5" y="-83.5" font-family="Helvetica,sans-Serif" font-size="10.00">embed::percent::scale</text>
</a>
</g>
</g>
<!-- Node7&#45;&gt;Node12 -->
<g id="edge15" class="edge">
<title>Node7&#45;&gt;Node12</title>
<path fill="none" stroke="midnightblue" d="M530.98,-117.82C513.79,-113.18 493.57,-108.23 475,-105 425.08,-96.31 367.5,-91.4 326.53,-88.75"/>
<polygon fill="midnightblue" stroke="midnightblue" points="530.15,-121.22 540.72,-120.5 532.01,-114.47 530.15,-121.22"/>
</g>
<!-- Node13 -->
<g id="node13" class="node">
<title>Node13</title>
<g id="a_node13"><a xlink:href="group__utility.html#gaae7b07b6a4aaa1b6342b676f9b864372" target="_top" xlink:title="Scale down a frequency by an integer factor.">
<polygon fill="white" stroke="black" points="375.5,-38.5 375.5,-57.5 464.5,-57.5 464.5,-38.5 375.5,-38.5"/>
<text text-anchor="middle" x="420" y="-45.5" font-family="Helvetica,sans-Serif" font-size="10.00">embed::operator/</text>
</a>
</g>
</g>
<!-- Node7&#45;&gt;Node13 -->
<g id="edge14" class="edge">
<title>Node7&#45;&gt;Node13</title>
<path fill="none" stroke="midnightblue" d="M549.1,-115.01C529.62,-102.8 500.97,-85.44 475,-72 465.07,-66.86 453.8,-61.75 444.14,-57.57"/>
<polygon fill="midnightblue" stroke="midnightblue" points="547.29,-118.01 557.62,-120.39 551.03,-112.09 547.29,-118.01"/>
</g>
<!-- Node14 -->
<g id="node14" class="node">
<title>Node14</title>
<g id="a_node14"><a xlink:href="group__utility.html#ga595b4275cff4d56d9d6226568c7c9809" target="_top" xlink:title="Calculates and returns the wavelength in seconds.">
<polygon fill="white" stroke="black" points="370,-0.5 370,-19.5 470,-19.5 470,-0.5 370,-0.5"/>
<text text-anchor="middle" x="420" y="-7.5" font-family="Helvetica,sans-Serif" font-size="10.00">embed::wavelength</text>
</a>
</g>
</g>
<!-- Node7&#45;&gt;Node14 -->
<g id="edge16" class="edge">
<title>Node7&#45;&gt;Node14</title>
<path fill="none" stroke="midnightblue" d="M559.37,-111.93C542.26,-89.57 510.33,-51.68 475,-29 469.15,-25.24 462.46,-22.12 455.82,-19.56"/>
<polygon fill="midnightblue" stroke="midnightblue" points="556.77,-114.3 565.57,-120.21 562.38,-110.11 556.77,-114.3"/>
</g>
<!-- Node10 -->
<g id="node10" class="node">
<title>Node10</title>
<g id="a_node10"><a xlink:href="group__utility.html#gafa1bc584612147c23f340cfd2786199c" target="_top" xlink:title="Map an target value [x] from an input range [a,b] to an output range [c,d].">
<polygon fill="white" stroke="black" points="237,-164.5 237,-183.5 306,-183.5 306,-164.5 237,-164.5"/>
<text text-anchor="middle" x="271.5" y="-171.5" font-family="Helvetica,sans-Serif" font-size="10.00">embed::map</text>
</a>
</g>
</g>
<!-- Node9&#45;&gt;Node10 -->
<g id="edge11" class="edge">
<title>Node9&#45;&gt;Node10</title>
<path fill="none" stroke="midnightblue" d="M359.3,-147.93C340.5,-153.58 320.47,-159.59 304.39,-164.42"/>
<polygon fill="midnightblue" stroke="midnightblue" points="360.42,-151.25 368.99,-145.02 358.41,-144.54 360.42,-151.25"/>
</g>
<!-- Node11 -->
<g id="node11" class="node">
<title>Node11</title>
<g id="a_node11"><a xlink:href="structembed_1_1duty__cycle.html#ae3211da17ad871387109a5d901a18183" target="_top" xlink:title="Conversion from duty cycle to percentage.">
<polygon fill="white" stroke="black" points="221,-115 221,-145 322,-145 322,-115 221,-115"/>
<text text-anchor="start" x="229" y="-133" font-family="Helvetica,sans-Serif" font-size="10.00">embed::duty_cycle::</text>
<text text-anchor="middle" x="271.5" y="-122" font-family="Helvetica,sans-Serif" font-size="10.00">operator percent</text>
</a>
</g>
</g>
<!-- Node9&#45;&gt;Node11 -->
<g id="edge12" class="edge">
<title>Node9&#45;&gt;Node11</title>
<path fill="none" stroke="midnightblue" d="M355.93,-130C344.71,-130 333.17,-130 322.38,-130"/>
<polygon fill="midnightblue" stroke="midnightblue" points="356.11,-133.5 366.11,-130 356.11,-126.5 356.11,-133.5"/>
</g>
<!-- Node9&#45;&gt;Node12 -->
<g id="edge13" class="edge">
<title>Node9&#45;&gt;Node12</title>
<path fill="none" stroke="midnightblue" d="M359.3,-112.07C340.5,-106.42 320.47,-100.41 304.39,-95.58"/>
<polygon fill="midnightblue" stroke="midnightblue" points="358.41,-115.46 368.99,-114.98 360.42,-108.75 358.41,-115.46"/>
</g>
</g>
</svg>
