<?xml version="1.0" encoding="UTF-8" standalone="no"?>
<!DOCTYPE svg PUBLIC "-//W3C//DTD SVG 1.1//EN"
 "http://www.w3.org/Graphics/SVG/1.1/DTD/svg11.dtd">
<!-- Generated by graphviz version 3.0.0 (20220413.0242)
 -->
<!-- Title: embed::delay Pages: 1 -->
<svg width="857pt" height="172pt"
 viewBox="0.00 0.00 857.00 171.50" xmlns="http://www.w3.org/2000/svg" xmlns:xlink="http://www.w3.org/1999/xlink">
<g id="graph0" class="graph" transform="scale(1 1) rotate(0) translate(4 167.5)">
<title>embed::delay</title>
<polygon fill="white" stroke="transparent" points="-4,4 -4,-167.5 853,-167.5 853,4 -4,4"/>
<!-- Node1 -->
<g id="node1" class="node">
<title>Node1</title>
<g id="a_node1"><a xlink:title="Delay execution for a duration of time using a hardware counter.">
<polygon fill="#bfbfbf" stroke="black" points="0,-25.5 0,-44.5 73,-44.5 73,-25.5 0,-25.5"/>
<text text-anchor="middle" x="36.5" y="-32.5" font-family="Helvetica,sans-Serif" font-size="10.00">embed::delay</text>
</a>
</g>
</g>
<!-- Node1&#45;&gt;Node1 -->
<g id="edge11" class="edge">
<title>Node1&#45;&gt;Node1</title>
<path fill="none" stroke="midnightblue" d="M16.46,-44.76C6.72,-53.57 13.39,-63 36.5,-63 51.3,-63 59.36,-59.13 60.68,-54.03"/>
<polygon fill="midnightblue" stroke="midnightblue" points="63.81,-52.46 56.54,-44.76 57.42,-55.31 63.81,-52.46"/>
</g>
<!-- Node2 -->
<g id="node2" class="node">
<title>Node2</title>
<g id="a_node2"><a xlink:href="group__counter.html#ga4f1edcd06bf52209d5293e54d0d1beb6" target="_top" xlink:title="Create a timeout object based on embed::counter.">
<polygon fill="white" stroke="black" points="109,-47.5 109,-66.5 224,-66.5 224,-47.5 109,-47.5"/>
<text text-anchor="middle" x="166.5" y="-54.5" font-family="Helvetica,sans-Serif" font-size="10.00">embed::create_timeout</text>
</a>
</g>
</g>
<!-- Node1&#45;&gt;Node2 -->
<g id="edge1" class="edge">
<title>Node1&#45;&gt;Node2</title>
<path fill="none" stroke="midnightblue" d="M73.16,-41.13C81.52,-42.57 90.7,-44.14 99.92,-45.73"/>
<polygon fill="midnightblue" stroke="midnightblue" points="99.45,-49.2 109.9,-47.44 100.64,-42.3 99.45,-49.2"/>
</g>
<!-- Node8 -->
<g id="node8" class="node">
<title>Node8</title>
<g id="a_node8"><a xlink:href="namespaceembed.html#a87973d938f95cc08d58ae8d55707043a" target="_top" xlink:title=" ">
<polygon fill="white" stroke="black" points="429.5,-0.5 429.5,-19.5 522.5,-19.5 522.5,-0.5 429.5,-0.5"/>
<text text-anchor="middle" x="476" y="-7.5" font-family="Helvetica,sans-Serif" font-size="10.00">embed::new_error</text>
</a>
</g>
</g>
<!-- Node1&#45;&gt;Node8 -->
<g id="edge12" class="edge">
<title>Node1&#45;&gt;Node8</title>
<path fill="none" stroke="midnightblue" d="M73.3,-32.95C149.45,-28.6 327.94,-18.4 419.17,-13.19"/>
<polygon fill="midnightblue" stroke="midnightblue" points="419.54,-16.67 429.32,-12.61 419.14,-9.69 419.54,-16.67"/>
</g>
<!-- Node3 -->
<g id="node3" class="node">
<title>Node3</title>
<g id="a_node3"><a xlink:href="classembed_1_1counter__timeout.html#aa5741370521bba1742b8d4080f26ac0d" target="_top" xlink:title="Create a counter_timeout.">
<polygon fill="white" stroke="black" points="260,-51 260,-81 380,-81 380,-51 260,-51"/>
<text text-anchor="start" x="268" y="-69" font-family="Helvetica,sans-Serif" font-size="10.00">embed::counter_timeout</text>
<text text-anchor="middle" x="320" y="-58" font-family="Helvetica,sans-Serif" font-size="10.00">::create</text>
</a>
</g>
</g>
<!-- Node2&#45;&gt;Node3 -->
<g id="edge2" class="edge">
<title>Node2&#45;&gt;Node3</title>
<path fill="none" stroke="midnightblue" d="M224.34,-60.38C232.58,-60.87 241.14,-61.37 249.59,-61.88"/>
<polygon fill="midnightblue" stroke="midnightblue" points="249.62,-65.38 259.81,-62.48 250.04,-58.4 249.62,-65.38"/>
</g>
<!-- Node4 -->
<g id="node4" class="node">
<title>Node4</title>
<g id="a_node4"><a xlink:href="classembed_1_1counter__timeout.html#a78ca298194b92fa5ab316610c3b4df22" target="_top" xlink:title="Construct a new counter timeout object.">
<polygon fill="white" stroke="black" points="416,-133 416,-163 536,-163 536,-133 416,-133"/>
<text text-anchor="start" x="424" y="-151" font-family="Helvetica,sans-Serif" font-size="10.00">embed::counter_timeout</text>
<text text-anchor="middle" x="476" y="-140" font-family="Helvetica,sans-Serif" font-size="10.00">::counter_timeout</text>
</a>
</g>
</g>
<!-- Node3&#45;&gt;Node4 -->
<g id="edge3" class="edge">
<title>Node3&#45;&gt;Node4</title>
<path fill="none" stroke="midnightblue" d="M344.3,-81.23C363.22,-93.29 390.8,-110.18 416,-123 419.79,-124.93 423.77,-126.84 427.79,-128.7"/>
<polygon fill="midnightblue" stroke="midnightblue" points="426.63,-132.01 437.19,-132.9 429.49,-125.62 426.63,-132.01"/>
</g>
<!-- Node5 -->
<g id="node5" class="node">
<title>Node5</title>
<g id="a_node5"><a xlink:href="group__utility.html#ga61711bf3d8c25b82fb37db4f53426ef0" target="_top" xlink:title="Calculate the number of cycles of this frequency within the time duration. This function is meant for...">
<polygon fill="white" stroke="black" points="427.5,-94.5 427.5,-113.5 524.5,-113.5 524.5,-94.5 427.5,-94.5"/>
<text text-anchor="middle" x="476" y="-101.5" font-family="Helvetica,sans-Serif" font-size="10.00">embed::cycles_per</text>
</a>
</g>
</g>
<!-- Node3&#45;&gt;Node5 -->
<g id="edge4" class="edge">
<title>Node3&#45;&gt;Node5</title>
<path fill="none" stroke="midnightblue" d="M380.1,-80.58C395.4,-84.36 411.7,-88.38 426.39,-92.01"/>
<polygon fill="midnightblue" stroke="midnightblue" points="425.73,-95.45 436.28,-94.44 427.41,-88.65 425.73,-95.45"/>
</g>
<!-- Node3&#45;&gt;Node8 -->
<g id="edge8" class="edge">
<title>Node3&#45;&gt;Node8</title>
<path fill="none" stroke="midnightblue" d="M362.27,-50.99C386.17,-42.3 415.98,-31.46 438.94,-23.11"/>
<polygon fill="midnightblue" stroke="midnightblue" points="440.44,-26.29 448.64,-19.58 438.05,-19.71 440.44,-26.29"/>
</g>
<!-- Node9 -->
<g id="node9" class="node">
<title>Node9</title>
<g id="a_node9"><a xlink:href="classembed_1_1counter.html#a02c24fbeaac81ef1030ff8e1a41b0738" target="_top" xlink:title="Get the uptime of the counter since it has started.">
<polygon fill="white" stroke="black" points="418,-56.5 418,-75.5 534,-75.5 534,-56.5 418,-56.5"/>
<text text-anchor="middle" x="476" y="-63.5" font-family="Helvetica,sans-Serif" font-size="10.00">embed::counter::uptime</text>
</a>
</g>
</g>
<!-- Node3&#45;&gt;Node9 -->
<g id="edge10" class="edge">
<title>Node3&#45;&gt;Node9</title>
<path fill="none" stroke="midnightblue" d="M380.1,-66C389.1,-66 398.44,-66 407.6,-66"/>
<polygon fill="midnightblue" stroke="midnightblue" points="407.83,-69.5 417.83,-66 407.83,-62.5 407.83,-69.5"/>
</g>
<!-- Node6 -->
<g id="node6" class="node">
<title>Node6</title>
<g id="a_node6"><a xlink:href="group__utility.html#ga6f0922a28ac81378eb689b2ab4bc299a" target="_top" xlink:title="Generic absolute value function that works for integer types.">
<polygon fill="white" stroke="black" points="733,-94.5 733,-113.5 849,-113.5 849,-94.5 733,-94.5"/>
<text text-anchor="middle" x="791" y="-101.5" font-family="Helvetica,sans-Serif" font-size="10.00">embed::absolute_value</text>
</a>
</g>
</g>
<!-- Node5&#45;&gt;Node6 -->
<g id="edge5" class="edge">
<title>Node5&#45;&gt;Node6</title>
<path fill="none" stroke="midnightblue" d="M524.54,-104C577.4,-104 663.2,-104 722.89,-104"/>
<polygon fill="midnightblue" stroke="midnightblue" points="722.97,-107.5 732.97,-104 722.97,-100.5 722.97,-107.5"/>
</g>
<!-- Node7 -->
<g id="node7" class="node">
<title>Node7</title>
<g id="a_node7"><a xlink:href="group__utility.html#ga84ea33bb969785c47247cfe0da9aa98e" target="_top" xlink:title="Perform integer division and round the value up if the next decimal place is greater than or equal to...">
<polygon fill="white" stroke="black" points="572,-75.5 572,-94.5 697,-94.5 697,-75.5 572,-75.5"/>
<text text-anchor="middle" x="634.5" y="-82.5" font-family="Helvetica,sans-Serif" font-size="10.00">embed::rounding_division</text>
</a>
</g>
</g>
<!-- Node5&#45;&gt;Node7 -->
<g id="edge6" class="edge">
<title>Node5&#45;&gt;Node7</title>
<path fill="none" stroke="midnightblue" d="M524.81,-98.2C536.51,-96.78 549.29,-95.22 561.84,-93.7"/>
<polygon fill="midnightblue" stroke="midnightblue" points="562.33,-97.17 571.83,-92.49 561.48,-90.22 562.33,-97.17"/>
</g>
<!-- Node7&#45;&gt;Node6 -->
<g id="edge7" class="edge">
<title>Node7&#45;&gt;Node6</title>
<path fill="none" stroke="midnightblue" d="M697.01,-92.56C705.47,-93.61 714.21,-94.68 722.77,-95.73"/>
<polygon fill="midnightblue" stroke="midnightblue" points="722.37,-99.21 732.72,-96.96 723.22,-92.26 722.37,-99.21"/>
</g>
<!-- Node8&#45;&gt;Node8 -->
<g id="edge9" class="edge">
<title>Node8&#45;&gt;Node8</title>
<path fill="none" stroke="midnightblue" d="M451.96,-19.76C440.26,-28.57 448.27,-38 476,-38 494.2,-38 503.9,-33.94 505.12,-28.65"/>
<polygon fill="midnightblue" stroke="midnightblue" points="508.04,-26.71 500.04,-19.76 501.96,-30.18 508.04,-26.71"/>
</g>
</g>
</svg>
