<?xml version="1.0" encoding="UTF-8" standalone="no"?>
<!DOCTYPE svg PUBLIC "-//W3C//DTD SVG 1.1//EN"
 "http://www.w3.org/Graphics/SVG/1.1/DTD/svg11.dtd">
<!-- Generated by graphviz version 3.0.0 (20220413.0242)
 -->
<!-- Title: hal::rounding_division Pages: 1 -->
<svg width="716pt" height="313pt"
 viewBox="0.00 0.00 716.00 312.50" xmlns="http://www.w3.org/2000/svg" xmlns:xlink="http://www.w3.org/1999/xlink">
<g id="graph0" class="graph" transform="scale(1 1) rotate(0) translate(4 308.5)">
<title>hal::rounding_division</title>
<polygon fill="white" stroke="transparent" points="-4,4 -4,-308.5 712,-308.5 712,4 -4,4"/>
<!-- Node1 -->
<g id="node1" class="node">
<title>Node1</title>
<g id="a_node1"><a xlink:title="Perform integer division and round the value up if the next decimal place is greater than or equal to...">
<polygon fill="#bfbfbf" stroke="black" points="599,-98.5 599,-117.5 708,-117.5 708,-98.5 599,-98.5"/>
<text text-anchor="middle" x="653.5" y="-105.5" font-family="Helvetica,sans-Serif" font-size="10.00">hal::rounding_division</text>
</a>
</g>
</g>
<!-- Node2 -->
<g id="node2" class="node">
<title>Node2</title>
<g id="a_node2"><a xlink:href="group__utility.html#ga9f67c4dbb94efa24f2d8852bf6e424cc" target="_top" xlink:title="Calculate the number of cycles of this frequency within the time duration. This function is meant for...">
<polygon fill="white" stroke="black" points="476.5,-230.5 476.5,-249.5 556.5,-249.5 556.5,-230.5 476.5,-230.5"/>
<text text-anchor="middle" x="516.5" y="-237.5" font-family="Helvetica,sans-Serif" font-size="10.00">hal::cycles_per</text>
</a>
</g>
</g>
<!-- Node1&#45;&gt;Node2 -->
<g id="edge1" class="edge">
<title>Node1&#45;&gt;Node2</title>
<path fill="none" stroke="midnightblue" d="M637.75,-125.34C620.58,-145.16 591,-178.18 563,-204 552.63,-213.56 540,-223.43 530.67,-230.41"/>
<polygon fill="midnightblue" stroke="midnightblue" points="640.44,-127.58 644.31,-117.72 635.13,-123.02 640.44,-127.58"/>
</g>
<!-- Node8 -->
<g id="node8" class="node">
<title>Node8</title>
<g id="a_node8"><a xlink:href="group__utility.html#gaeb8013ca607e5e7de71637e85a45e809" target="_top" xlink:title="Calculate the amount of time it takes a frequency to oscillate a number of cycles.">
<polygon fill="white" stroke="black" points="470,-164 470,-194 563,-194 563,-164 470,-164"/>
<text text-anchor="start" x="478" y="-182" font-family="Helvetica,sans-Serif" font-size="10.00">hal::duration_from</text>
<text text-anchor="middle" x="516.5" y="-171" font-family="Helvetica,sans-Serif" font-size="10.00">_cycles</text>
</a>
</g>
</g>
<!-- Node1&#45;&gt;Node8 -->
<g id="edge8" class="edge">
<title>Node1&#45;&gt;Node8</title>
<path fill="none" stroke="midnightblue" d="M625.42,-122.24C602.47,-134.31 569.66,-151.57 546.25,-163.88"/>
<polygon fill="midnightblue" stroke="midnightblue" points="627.07,-125.33 634.29,-117.58 623.81,-119.13 627.07,-125.33"/>
</g>
<!-- Node9 -->
<g id="node9" class="node">
<title>Node9</title>
<g id="a_node9"><a xlink:href="classhal_1_1percent.html#a4fece281bfb4ec0f48f86b14168194ce" target="_top" xlink:title="Generate a percentage based on input relative to the maximum possible value.">
<polygon fill="white" stroke="black" points="471.5,-115 471.5,-145 561.5,-145 561.5,-115 471.5,-115"/>
<text text-anchor="start" x="479.5" y="-133" font-family="Helvetica,sans-Serif" font-size="10.00">hal::percent::from</text>
<text text-anchor="middle" x="516.5" y="-122" font-family="Helvetica,sans-Serif" font-size="10.00">_ratio</text>
</a>
</g>
</g>
<!-- Node1&#45;&gt;Node9 -->
<g id="edge9" class="edge">
<title>Node1&#45;&gt;Node9</title>
<path fill="none" stroke="midnightblue" d="M588.81,-118.38C579.58,-119.88 570.25,-121.4 561.52,-122.83"/>
<polygon fill="midnightblue" stroke="midnightblue" points="589.45,-121.82 598.76,-116.76 588.32,-114.91 589.45,-121.82"/>
</g>
<!-- Node13 -->
<g id="node13" class="node">
<title>Node13</title>
<g id="a_node13"><a xlink:href="classhal_1_1percent.html#a1bf2e7369a19e7795c2e68c643e8d06b" target="_top" xlink:title="Get the percent after it is scaled to a range. The output percent is bound within the given range....">
<polygon fill="white" stroke="black" points="327.5,-60.5 327.5,-79.5 421.5,-79.5 421.5,-60.5 327.5,-60.5"/>
<text text-anchor="middle" x="374.5" y="-67.5" font-family="Helvetica,sans-Serif" font-size="10.00">hal::percent::scale</text>
</a>
</g>
</g>
<!-- Node1&#45;&gt;Node13 -->
<g id="edge15" class="edge">
<title>Node1&#45;&gt;Node13</title>
<path fill="none" stroke="midnightblue" d="M588.83,-99.27C537.83,-92.27 467.47,-82.62 421.73,-76.34"/>
<polygon fill="midnightblue" stroke="midnightblue" points="588.38,-102.74 598.76,-100.63 589.33,-95.8 588.38,-102.74"/>
</g>
<!-- Node14 -->
<g id="node14" class="node">
<title>Node14</title>
<g id="a_node14"><a xlink:href="group__utility.html#ga7497d9f06c28fb7064e96eb4b8b2653b" target="_top" xlink:title="Scale down a frequency by an integer factor.">
<polygon fill="white" stroke="black" points="480.5,-38.5 480.5,-57.5 552.5,-57.5 552.5,-38.5 480.5,-38.5"/>
<text text-anchor="middle" x="516.5" y="-45.5" font-family="Helvetica,sans-Serif" font-size="10.00">hal::operator/</text>
</a>
</g>
</g>
<!-- Node1&#45;&gt;Node14 -->
<g id="edge14" class="edge">
<title>Node1&#45;&gt;Node14</title>
<path fill="none" stroke="midnightblue" d="M621.65,-94.29C596.48,-83.1 561.55,-67.58 539.24,-57.66"/>
<polygon fill="midnightblue" stroke="midnightblue" points="620.55,-97.63 631.11,-98.49 623.39,-91.23 620.55,-97.63"/>
</g>
<!-- Node15 -->
<g id="node15" class="node">
<title>Node15</title>
<g id="a_node15"><a xlink:href="group__utility.html#ga73d442b99558a8adf71fd377c6f7c60e" target="_top" xlink:title="Calculates and returns the wavelength in seconds.">
<polygon fill="white" stroke="black" points="475,-0.5 475,-19.5 558,-19.5 558,-0.5 475,-0.5"/>
<text text-anchor="middle" x="516.5" y="-7.5" font-family="Helvetica,sans-Serif" font-size="10.00">hal::wavelength</text>
</a>
</g>
</g>
<!-- Node1&#45;&gt;Node15 -->
<g id="edge16" class="edge">
<title>Node1&#45;&gt;Node15</title>
<path fill="none" stroke="midnightblue" d="M636.72,-91.13C619.8,-73.77 591.49,-46.83 563,-29 557.34,-25.46 550.91,-22.31 544.69,-19.64"/>
<polygon fill="midnightblue" stroke="midnightblue" points="634.21,-93.56 643.66,-98.36 639.26,-88.72 634.21,-93.56"/>
</g>
<!-- Node3 -->
<g id="node3" class="node">
<title>Node3</title>
<g id="a_node3"><a xlink:href="group__utility.html#gadbf6d9dce469abb142fc77e0905d88aa" target="_top" xlink:title="Calculate a duty cycle based on a source frequency, target wavelength and a percentage.">
<polygon fill="white" stroke="black" points="326.5,-274 326.5,-304 422.5,-304 422.5,-274 326.5,-274"/>
<text text-anchor="start" x="334.5" y="-292" font-family="Helvetica,sans-Serif" font-size="10.00">hal::calculate_duty</text>
<text text-anchor="middle" x="374.5" y="-281" font-family="Helvetica,sans-Serif" font-size="10.00">_cycle</text>
</a>
</g>
</g>
<!-- Node2&#45;&gt;Node3 -->
<g id="edge2" class="edge">
<title>Node2&#45;&gt;Node3</title>
<path fill="none" stroke="midnightblue" d="M478.65,-252.9C460.18,-259.36 437.71,-267.23 418.46,-273.96"/>
<polygon fill="midnightblue" stroke="midnightblue" points="479.89,-256.17 488.17,-249.56 477.58,-249.56 479.89,-256.17"/>
</g>
<!-- Node4 -->
<g id="node4" class="node">
<title>Node4</title>
<g id="a_node4"><a xlink:href="classhal_1_1counter__timeout.html#aca5b940f8e89106b393fb34cb61aff14" target="_top" xlink:title="Create a counter_timeout.">
<polygon fill="white" stroke="black" points="322.5,-225 322.5,-255 426.5,-255 426.5,-225 322.5,-225"/>
<text text-anchor="start" x="330.5" y="-243" font-family="Helvetica,sans-Serif" font-size="10.00">hal::counter_timeout</text>
<text text-anchor="middle" x="374.5" y="-232" font-family="Helvetica,sans-Serif" font-size="10.00">::create</text>
</a>
</g>
</g>
<!-- Node2&#45;&gt;Node4 -->
<g id="edge3" class="edge">
<title>Node2&#45;&gt;Node4</title>
<path fill="none" stroke="midnightblue" d="M466.12,-240C453.31,-240 439.5,-240 426.61,-240"/>
<polygon fill="midnightblue" stroke="midnightblue" points="466.13,-243.5 476.13,-240 466.13,-236.5 466.13,-243.5"/>
</g>
<!-- Node5 -->
<g id="node5" class="node">
<title>Node5</title>
<g id="a_node5"><a xlink:href="group__counter.html#ga0f73c780e3eb7b86be65a1746ccc1c95" target="_top" xlink:title="Create a timeout object based on hal::counter.">
<polygon fill="white" stroke="black" points="181,-230.5 181,-249.5 279,-249.5 279,-230.5 181,-230.5"/>
<text text-anchor="middle" x="230" y="-237.5" font-family="Helvetica,sans-Serif" font-size="10.00">hal::create_timeout</text>
</a>
</g>
</g>
<!-- Node4&#45;&gt;Node5 -->
<g id="edge4" class="edge">
<title>Node4&#45;&gt;Node5</title>
<path fill="none" stroke="midnightblue" d="M312.42,-240C301.35,-240 289.95,-240 279.31,-240"/>
<polygon fill="midnightblue" stroke="midnightblue" points="312.46,-243.5 322.46,-240 312.46,-236.5 312.46,-243.5"/>
</g>
<!-- Node6 -->
<g id="node6" class="node">
<title>Node6</title>
<g id="a_node6"><a xlink:href="group__counter.html#ga8b4d520b8fbf98436b255041f73b9a8d" target="_top" xlink:title="Delay execution for a duration of time using a hardware counter.">
<polygon fill="white" stroke="black" points="89,-230.5 89,-249.5 145,-249.5 145,-230.5 89,-230.5"/>
<text text-anchor="middle" x="117" y="-237.5" font-family="Helvetica,sans-Serif" font-size="10.00">hal::delay</text>
</a>
</g>
</g>
<!-- Node5&#45;&gt;Node6 -->
<g id="edge5" class="edge">
<title>Node5&#45;&gt;Node6</title>
<path fill="none" stroke="midnightblue" d="M170.8,-240C161.8,-240 152.89,-240 145.03,-240"/>
<polygon fill="midnightblue" stroke="midnightblue" points="170.96,-243.5 180.96,-240 170.96,-236.5 170.96,-243.5"/>
</g>
<!-- Node6&#45;&gt;Node6 -->
<g id="edge6" class="edge">
<title>Node6&#45;&gt;Node6</title>
<path fill="none" stroke="midnightblue" d="M133.67,-259.4C132.55,-264.31 127,-268 117,-268 101,-268 96.38,-258.57 103.13,-249.76"/>
<polygon fill="midnightblue" stroke="midnightblue" points="137.02,-258.39 130.87,-249.76 130.29,-260.34 137.02,-258.39"/>
</g>
<!-- Node7 -->
<g id="node7" class="node">
<title>Node7</title>
<g id="a_node7"><a xlink:href="group__serial.html#ga56a1548bd7b5f4b6f1dfa9e616b126e4" target="_top" xlink:title="Read bytes from a serial port.">
<polygon fill="white" stroke="black" points="0,-230.5 0,-249.5 53,-249.5 53,-230.5 0,-230.5"/>
<text text-anchor="middle" x="26.5" y="-237.5" font-family="Helvetica,sans-Serif" font-size="10.00">hal::read</text>
</a>
</g>
</g>
<!-- Node6&#45;&gt;Node7 -->
<g id="edge7" class="edge">
<title>Node6&#45;&gt;Node7</title>
<path fill="none" stroke="midnightblue" d="M78.73,-240C70.12,-240 61.14,-240 53.16,-240"/>
<polygon fill="midnightblue" stroke="midnightblue" points="78.97,-243.5 88.97,-240 78.97,-236.5 78.97,-243.5"/>
</g>
<!-- Node10 -->
<g id="node10" class="node">
<title>Node10</title>
<g id="a_node10"><a xlink:href="classhal_1_1rc__servo.html#a4b6b2863a7ea2f9e426f32c89a29c8c5" target="_top" xlink:title="Factory function to create a rc_servo object.">
<polygon fill="white" stroke="black" points="323,-186.5 323,-205.5 426,-205.5 426,-186.5 323,-186.5"/>
<text text-anchor="middle" x="374.5" y="-193.5" font-family="Helvetica,sans-Serif" font-size="10.00">hal::rc_servo::create</text>
</a>
</g>
</g>
<!-- Node9&#45;&gt;Node10 -->
<g id="edge10" class="edge">
<title>Node9&#45;&gt;Node10</title>
<path fill="none" stroke="midnightblue" d="M478.67,-150.05C475.72,-151.71 472.81,-153.37 470,-155 453.78,-164.41 451.03,-169.16 434,-177 426.24,-180.57 417.62,-183.77 409.43,-186.47"/>
<polygon fill="midnightblue" stroke="midnightblue" points="480.45,-153.06 487.47,-145.13 477.04,-146.95 480.45,-153.06"/>
</g>
<!-- Node11 -->
<g id="node11" class="node">
<title>Node11</title>
<g id="a_node11"><a xlink:href="group__utility.html#gacf35495e951216c5f4765dbe9f256fdd" target="_top" xlink:title="Map an target value [x] from an input range [a,b] to an output range [c,d].">
<polygon fill="white" stroke="black" points="348,-148.5 348,-167.5 401,-167.5 401,-148.5 348,-148.5"/>
<text text-anchor="middle" x="374.5" y="-155.5" font-family="Helvetica,sans-Serif" font-size="10.00">hal::map</text>
</a>
</g>
</g>
<!-- Node9&#45;&gt;Node11 -->
<g id="edge11" class="edge">
<title>Node9&#45;&gt;Node11</title>
<path fill="none" stroke="midnightblue" d="M461.25,-140.85C440.58,-144.98 417.98,-149.5 401.18,-152.86"/>
<polygon fill="midnightblue" stroke="midnightblue" points="462.08,-144.25 471.2,-138.86 460.71,-137.39 462.08,-144.25"/>
</g>
<!-- Node12 -->
<g id="node12" class="node">
<title>Node12</title>
<g id="a_node12"><a xlink:href="structhal_1_1duty__cycle.html#a5f5bad1e9e0cd329eeecd5c0db0e0a32" target="_top" xlink:title="Conversion from duty cycle to percentage.">
<polygon fill="white" stroke="black" points="315,-99 315,-129 434,-129 434,-99 315,-99"/>
<text text-anchor="start" x="323" y="-117" font-family="Helvetica,sans-Serif" font-size="10.00">hal::duty_cycle::operator</text>
<text text-anchor="middle" x="374.5" y="-106" font-family="Helvetica,sans-Serif" font-size="10.00"> percent</text>
</a>
</g>
</g>
<!-- Node9&#45;&gt;Node12 -->
<g id="edge12" class="edge">
<title>Node9&#45;&gt;Node12</title>
<path fill="none" stroke="midnightblue" d="M461.04,-123.78C452.21,-122.77 443.03,-121.72 434.11,-120.7"/>
<polygon fill="midnightblue" stroke="midnightblue" points="460.87,-127.28 471.2,-124.94 461.67,-120.32 460.87,-127.28"/>
</g>
<!-- Node9&#45;&gt;Node13 -->
<g id="edge13" class="edge">
<title>Node9&#45;&gt;Node13</title>
<path fill="none" stroke="midnightblue" d="M478.88,-110.09C465.03,-102.96 449,-95.17 434,-89 425.7,-85.59 416.55,-82.37 408,-79.59"/>
<polygon fill="midnightblue" stroke="midnightblue" points="477.59,-113.36 488.07,-114.89 480.83,-107.16 477.59,-113.36"/>
</g>
</g>
</svg>
