<?xml version="1.0" encoding="UTF-8" standalone="no"?>
<!DOCTYPE svg PUBLIC "-//W3C//DTD SVG 1.1//EN"
 "http://www.w3.org/Graphics/SVG/1.1/DTD/svg11.dtd">
<!-- Generated by graphviz version 3.0.0 (20220413.0242)
 -->
<!-- Title: embed::rounding_division Pages: 1 -->
<svg width="644pt" height="269pt"
 viewBox="0.00 0.00 644.00 268.50" xmlns="http://www.w3.org/2000/svg" xmlns:xlink="http://www.w3.org/1999/xlink">
<g id="graph0" class="graph" transform="scale(1 1) rotate(0) translate(4 264.5)">
<title>embed::rounding_division</title>
<polygon fill="white" stroke="transparent" points="-4,4 -4,-264.5 640,-264.5 640,4 -4,4"/>
<!-- Node1 -->
<g id="node1" class="node">
<title>Node1</title>
<g id="a_node1"><a xlink:title="Perform integer division and round the value up if the next decimal place is greater than or equal to...">
<polygon fill="#bfbfbf" stroke="black" points="511,-98.5 511,-117.5 636,-117.5 636,-98.5 511,-98.5"/>
<text text-anchor="middle" x="573.5" y="-105.5" font-family="Helvetica,sans-Serif" font-size="10.00">embed::rounding_division</text>
</a>
</g>
</g>
<!-- Node2 -->
<g id="node2" class="node">
<title>Node2</title>
<g id="a_node2"><a xlink:href="group__utility.html#ga61711bf3d8c25b82fb37db4f53426ef0" target="_top" xlink:title="Calculate the number of cycles of this frequency within the time duration. This function is meant for...">
<polygon fill="white" stroke="black" points="371.5,-213.5 371.5,-232.5 468.5,-232.5 468.5,-213.5 371.5,-213.5"/>
<text text-anchor="middle" x="420" y="-220.5" font-family="Helvetica,sans-Serif" font-size="10.00">embed::cycles_per</text>
</a>
</g>
</g>
<!-- Node1&#45;&gt;Node2 -->
<g id="edge1" class="edge">
<title>Node1&#45;&gt;Node2</title>
<path fill="none" stroke="midnightblue" d="M558.91,-125.46C541.53,-146.72 509.54,-182.44 475,-204 469.01,-207.74 462.19,-210.86 455.46,-213.43"/>
<polygon fill="midnightblue" stroke="midnightblue" points="561.7,-127.57 565.22,-117.58 556.24,-123.19 561.7,-127.57"/>
</g>
<!-- Node7 -->
<g id="node7" class="node">
<title>Node7</title>
<g id="a_node7"><a xlink:href="group__utility.html#ga19bf555b8e14f12184073b07791fd56b" target="_top" xlink:title="Calculate the amount of time it takes a frequency to oscillate a number of cycles.">
<polygon fill="white" stroke="black" points="365,-164 365,-194 475,-194 475,-164 365,-164"/>
<text text-anchor="start" x="373" y="-182" font-family="Helvetica,sans-Serif" font-size="10.00">embed::duration_from</text>
<text text-anchor="middle" x="420" y="-171" font-family="Helvetica,sans-Serif" font-size="10.00">_cycles</text>
</a>
</g>
</g>
<!-- Node1&#45;&gt;Node7 -->
<g id="edge7" class="edge">
<title>Node1&#45;&gt;Node7</title>
<path fill="none" stroke="midnightblue" d="M543.97,-122.04C524.59,-131.5 498.34,-144.19 475,-155 468.67,-157.93 461.89,-161 455.35,-163.92"/>
<polygon fill="midnightblue" stroke="midnightblue" points="545.72,-125.08 553.16,-117.54 542.64,-118.79 545.72,-125.08"/>
</g>
<!-- Node8 -->
<g id="node8" class="node">
<title>Node8</title>
<g id="a_node8"><a xlink:href="classembed_1_1percent.html#a3031fcd41ebdbc14fe77114d239c0b27" target="_top" xlink:title="Generate a percentage based on input relative to the maximum possible value.">
<polygon fill="white" stroke="black" points="366.5,-115 366.5,-145 473.5,-145 473.5,-115 366.5,-115"/>
<text text-anchor="start" x="374.5" y="-133" font-family="Helvetica,sans-Serif" font-size="10.00">embed::percent::from</text>
<text text-anchor="middle" x="420" y="-122" font-family="Helvetica,sans-Serif" font-size="10.00">_ratio</text>
</a>
</g>
</g>
<!-- Node1&#45;&gt;Node8 -->
<g id="edge8" class="edge">
<title>Node1&#45;&gt;Node8</title>
<path fill="none" stroke="midnightblue" d="M500.71,-118.42C491.65,-119.74 482.52,-121.07 473.83,-122.33"/>
<polygon fill="midnightblue" stroke="midnightblue" points="501.49,-121.85 510.88,-116.95 500.48,-114.92 501.49,-121.85"/>
</g>
<!-- Node10 -->
<g id="node10" class="node">
<title>Node10</title>
<g id="a_node10"><a xlink:href="classembed_1_1percent.html#afa379fbbb92bc5dc22f0dce8bcf7ea1b" target="_top" xlink:title="Get the percent after it is scaled to a range. The output percent is bound within the given range....">
<polygon fill="white" stroke="black" points="216.5,-76.5 216.5,-95.5 326.5,-95.5 326.5,-76.5 216.5,-76.5"/>
<text text-anchor="middle" x="271.5" y="-83.5" font-family="Helvetica,sans-Serif" font-size="10.00">embed::percent::scale</text>
</a>
</g>
</g>
<!-- Node1&#45;&gt;Node10 -->
<g id="edge12" class="edge">
<title>Node1&#45;&gt;Node10</title>
<path fill="none" stroke="midnightblue" d="M500.61,-102.73C447.15,-98.81 375.33,-93.54 326.67,-89.97"/>
<polygon fill="midnightblue" stroke="midnightblue" points="500.47,-106.23 510.7,-103.47 500.99,-99.25 500.47,-106.23"/>
</g>
<!-- Node11 -->
<g id="node11" class="node">
<title>Node11</title>
<g id="a_node11"><a xlink:href="group__utility.html#gaae7b07b6a4aaa1b6342b676f9b864372" target="_top" xlink:title="Scale down a frequency by an integer factor.">
<polygon fill="white" stroke="black" points="375.5,-38.5 375.5,-57.5 464.5,-57.5 464.5,-38.5 375.5,-38.5"/>
<text text-anchor="middle" x="420" y="-45.5" font-family="Helvetica,sans-Serif" font-size="10.00">embed::operator/</text>
</a>
</g>
</g>
<!-- Node1&#45;&gt;Node11 -->
<g id="edge11" class="edge">
<title>Node1&#45;&gt;Node11</title>
<path fill="none" stroke="midnightblue" d="M538.97,-94.72C510.56,-83.47 470.5,-67.6 445.14,-57.56"/>
<polygon fill="midnightblue" stroke="midnightblue" points="537.91,-98.06 548.49,-98.49 540.49,-91.56 537.91,-98.06"/>
</g>
<!-- Node12 -->
<g id="node12" class="node">
<title>Node12</title>
<g id="a_node12"><a xlink:href="group__utility.html#ga595b4275cff4d56d9d6226568c7c9809" target="_top" xlink:title="Calculates and returns the wavelength in seconds.">
<polygon fill="white" stroke="black" points="370,-0.5 370,-19.5 470,-19.5 470,-0.5 370,-0.5"/>
<text text-anchor="middle" x="420" y="-7.5" font-family="Helvetica,sans-Serif" font-size="10.00">embed::wavelength</text>
</a>
</g>
</g>
<!-- Node1&#45;&gt;Node12 -->
<g id="edge13" class="edge">
<title>Node1&#45;&gt;Node12</title>
<path fill="none" stroke="midnightblue" d="M555.78,-91.4C537.34,-73.87 506.14,-46.41 475,-29 468.41,-25.32 460.97,-22.14 453.77,-19.51"/>
<polygon fill="midnightblue" stroke="midnightblue" points="553.46,-94.03 563.08,-98.47 558.33,-89 553.46,-94.03"/>
</g>
<!-- Node3 -->
<g id="node3" class="node">
<title>Node3</title>
<g id="a_node3"><a xlink:href="group__utility.html#gaa1a076554c019239de0fb3e3fb4edcf2" target="_top" xlink:title="Calculate a duty cycle based on a source frequency, target wavelength and a percentage.">
<polygon fill="white" stroke="black" points="215,-230 215,-260 328,-260 328,-230 215,-230"/>
<text text-anchor="start" x="223" y="-248" font-family="Helvetica,sans-Serif" font-size="10.00">embed::calculate_duty</text>
<text text-anchor="middle" x="271.5" y="-237" font-family="Helvetica,sans-Serif" font-size="10.00">_cycle</text>
</a>
</g>
</g>
<!-- Node2&#45;&gt;Node3 -->
<g id="edge2" class="edge">
<title>Node2&#45;&gt;Node3</title>
<path fill="none" stroke="midnightblue" d="M361.54,-231.63C350.59,-233.27 339.14,-234.99 328.24,-236.63"/>
<polygon fill="midnightblue" stroke="midnightblue" points="362.07,-235.09 371.44,-230.14 361.03,-228.17 362.07,-235.09"/>
</g>
<!-- Node4 -->
<g id="node4" class="node">
<title>Node4</title>
<g id="a_node4"><a xlink:href="group__counter.html#ga4f1edcd06bf52209d5293e54d0d1beb6" target="_top" xlink:title="Create a timeout object based on embed::counter.">
<polygon fill="white" stroke="black" points="214,-191.5 214,-210.5 329,-210.5 329,-191.5 214,-191.5"/>
<text text-anchor="middle" x="271.5" y="-198.5" font-family="Helvetica,sans-Serif" font-size="10.00">embed::create_timeout</text>
</a>
</g>
</g>
<!-- Node2&#45;&gt;Node4 -->
<g id="edge3" class="edge">
<title>Node2&#45;&gt;Node4</title>
<path fill="none" stroke="midnightblue" d="M361.4,-214.35C350.75,-212.75 339.63,-211.08 329.01,-209.49"/>
<polygon fill="midnightblue" stroke="midnightblue" points="361.03,-217.83 371.44,-215.86 362.07,-210.91 361.03,-217.83"/>
</g>
<!-- Node5 -->
<g id="node5" class="node">
<title>Node5</title>
<g id="a_node5"><a xlink:href="group__counter.html#ga53e2d568aa13881c4213fe89a2e1c42e" target="_top" xlink:title="Delay execution for a duration of time using a hardware counter.">
<polygon fill="white" stroke="black" points="105,-191.5 105,-210.5 178,-210.5 178,-191.5 105,-191.5"/>
<text text-anchor="middle" x="141.5" y="-198.5" font-family="Helvetica,sans-Serif" font-size="10.00">embed::delay</text>
</a>
</g>
</g>
<!-- Node4&#45;&gt;Node5 -->
<g id="edge4" class="edge">
<title>Node4&#45;&gt;Node5</title>
<path fill="none" stroke="midnightblue" d="M203.94,-201C195.04,-201 186.2,-201 178.12,-201"/>
<polygon fill="midnightblue" stroke="midnightblue" points="203.98,-204.5 213.98,-201 203.98,-197.5 203.98,-204.5"/>
</g>
<!-- Node5&#45;&gt;Node5 -->
<g id="edge5" class="edge">
<title>Node5&#45;&gt;Node5</title>
<path fill="none" stroke="midnightblue" d="M161.13,-220.4C159.82,-225.31 153.27,-229 141.5,-229 122.66,-229 117.21,-219.57 125.16,-210.76"/>
<polygon fill="midnightblue" stroke="midnightblue" points="164.38,-219.09 157.84,-210.76 157.76,-221.35 164.38,-219.09"/>
</g>
<!-- Node6 -->
<g id="node6" class="node">
<title>Node6</title>
<g id="a_node6"><a xlink:href="group__serial.html#ga56439487351e68f734fdf9b6330da4d2" target="_top" xlink:title="Read bytes from a serial port.">
<polygon fill="white" stroke="black" points="0,-191.5 0,-210.5 69,-210.5 69,-191.5 0,-191.5"/>
<text text-anchor="middle" x="34.5" y="-198.5" font-family="Helvetica,sans-Serif" font-size="10.00">embed::read</text>
</a>
</g>
</g>
<!-- Node5&#45;&gt;Node6 -->
<g id="edge6" class="edge">
<title>Node5&#45;&gt;Node6</title>
<path fill="none" stroke="midnightblue" d="M94.7,-201C86.14,-201 77.35,-201 69.24,-201"/>
<polygon fill="midnightblue" stroke="midnightblue" points="94.95,-204.5 104.95,-201 94.95,-197.5 94.95,-204.5"/>
</g>
<!-- Node9 -->
<g id="node9" class="node">
<title>Node9</title>
<g id="a_node9"><a xlink:href="structembed_1_1duty__cycle.html#ae3211da17ad871387109a5d901a18183" target="_top" xlink:title="Conversion from duty cycle to percentage.">
<polygon fill="white" stroke="black" points="221,-115 221,-145 322,-145 322,-115 221,-115"/>
<text text-anchor="start" x="229" y="-133" font-family="Helvetica,sans-Serif" font-size="10.00">embed::duty_cycle::</text>
<text text-anchor="middle" x="271.5" y="-122" font-family="Helvetica,sans-Serif" font-size="10.00">operator percent</text>
</a>
</g>
</g>
<!-- Node8&#45;&gt;Node9 -->
<g id="edge9" class="edge">
<title>Node8&#45;&gt;Node9</title>
<path fill="none" stroke="midnightblue" d="M355.93,-130C344.71,-130 333.17,-130 322.38,-130"/>
<polygon fill="midnightblue" stroke="midnightblue" points="356.11,-133.5 366.11,-130 356.11,-126.5 356.11,-133.5"/>
</g>
<!-- Node8&#45;&gt;Node10 -->
<g id="edge10" class="edge">
<title>Node8&#45;&gt;Node10</title>
<path fill="none" stroke="midnightblue" d="M359.3,-112.07C340.5,-106.42 320.47,-100.41 304.39,-95.58"/>
<polygon fill="midnightblue" stroke="midnightblue" points="358.41,-115.46 368.99,-114.98 360.42,-108.75 358.41,-115.46"/>
</g>
</g>
</svg>
