<?xml version="1.0" encoding="UTF-8" standalone="no"?>
<!DOCTYPE svg PUBLIC "-//W3C//DTD SVG 1.1//EN"
 "http://www.w3.org/Graphics/SVG/1.1/DTD/svg11.dtd">
<!-- Generated by graphviz version 3.0.0 (20220413.0242)
 -->
<!-- Title: embed::rounding_division Pages: 1 -->
<svg width="701pt" height="302pt"
 viewBox="0.00 0.00 701.00 301.50" xmlns="http://www.w3.org/2000/svg" xmlns:xlink="http://www.w3.org/1999/xlink">
<g id="graph0" class="graph" transform="scale(1 1) rotate(0) translate(4 297.5)">
<title>embed::rounding_division</title>
<polygon fill="white" stroke="transparent" points="-4,4 -4,-297.5 697,-297.5 697,4 -4,4"/>
<!-- Node1 -->
<g id="node1" class="node">
<title>Node1</title>
<g id="a_node1"><a xlink:title="Perform integer division and round the value up if the next decimal place is greater than or equal to...">
<polygon fill="#bfbfbf" stroke="black" points="568,-106.5 568,-125.5 693,-125.5 693,-106.5 568,-106.5"/>
<text text-anchor="middle" x="630.5" y="-113.5" font-family="Helvetica,sans-Serif" font-size="10.00">embed::rounding_division</text>
</a>
</g>
</g>
<!-- Node2 -->
<g id="node2" class="node">
<title>Node2</title>
<g id="a_node2"><a xlink:href="classembed_1_1frequency.html#aa67b1e2379926c43c248b98207ff95a0" target="_top" xlink:title="Calculate the number of cycles of this frequency within the time duration. This function is meant for...">
<polygon fill="white" stroke="black" points="387.5,-224.5 387.5,-243.5 530.5,-243.5 530.5,-224.5 387.5,-224.5"/>
<text text-anchor="middle" x="459" y="-231.5" font-family="Helvetica,sans-Serif" font-size="10.00">embed::frequency::cycles_per</text>
</a>
</g>
</g>
<!-- Node1&#45;&gt;Node2 -->
<g id="edge1" class="edge">
<title>Node1&#45;&gt;Node2</title>
<path fill="none" stroke="midnightblue" d="M614.86,-133.29C597.05,-153.38 565.24,-186.4 532,-207 520.2,-214.31 506.1,-220.14 493.53,-224.48"/>
<polygon fill="midnightblue" stroke="midnightblue" points="617.67,-135.39 621.59,-125.54 612.39,-130.79 617.67,-135.39"/>
</g>
<!-- Node7 -->
<g id="node7" class="node">
<title>Node7</title>
<g id="a_node7"><a xlink:href="classembed_1_1frequency.html#a7a0a49000c46f52507a958882e31d77c" target="_top" xlink:title="Calculate the frequency divide required to generate the output frequency provided.">
<polygon fill="white" stroke="black" points="398,-178.5 398,-197.5 520,-197.5 520,-178.5 398,-178.5"/>
<text text-anchor="middle" x="459" y="-185.5" font-family="Helvetica,sans-Serif" font-size="10.00">embed::frequency::divide</text>
</a>
</g>
</g>
<!-- Node1&#45;&gt;Node7 -->
<g id="edge7" class="edge">
<title>Node1&#45;&gt;Node7</title>
<path fill="none" stroke="midnightblue" d="M604.22,-130.54C584.88,-141.27 557.3,-155.74 532,-166 520.37,-170.71 507.34,-174.99 495.59,-178.49"/>
<polygon fill="midnightblue" stroke="midnightblue" points="606.01,-133.55 613.02,-125.6 602.58,-127.44 606.01,-133.55"/>
</g>
<!-- Node9 -->
<g id="node9" class="node">
<title>Node9</title>
<g id="a_node9"><a xlink:href="classembed_1_1frequency.html#a383cdc3d72a91dedffcd92d3b0e73d8a" target="_top" xlink:title="Calculate time duration based on the frequency and a number of cycles.">
<polygon fill="white" stroke="black" points="393.5,-126 393.5,-156 524.5,-156 524.5,-126 393.5,-126"/>
<text text-anchor="start" x="401.5" y="-144" font-family="Helvetica,sans-Serif" font-size="10.00">embed::frequency::duration</text>
<text text-anchor="middle" x="459" y="-133" font-family="Helvetica,sans-Serif" font-size="10.00">_from_cycles</text>
</a>
</g>
</g>
<!-- Node1&#45;&gt;Node9 -->
<g id="edge9" class="edge">
<title>Node1&#45;&gt;Node9</title>
<path fill="none" stroke="midnightblue" d="M557.85,-126.57C546.87,-128.19 535.59,-129.85 524.76,-131.45"/>
<polygon fill="midnightblue" stroke="midnightblue" points="558.44,-130.02 567.83,-125.1 557.42,-123.09 558.44,-130.02"/>
</g>
<!-- Node11 -->
<g id="node11" class="node">
<title>Node11</title>
<g id="a_node11"><a xlink:href="classembed_1_1percent.html#a3031fcd41ebdbc14fe77114d239c0b27" target="_top" xlink:title="Generate a percentage based on input relative to the maximum possible value.">
<polygon fill="white" stroke="black" points="405.5,-77 405.5,-107 512.5,-107 512.5,-77 405.5,-77"/>
<text text-anchor="start" x="413.5" y="-95" font-family="Helvetica,sans-Serif" font-size="10.00">embed::percent::from</text>
<text text-anchor="middle" x="459" y="-84" font-family="Helvetica,sans-Serif" font-size="10.00">_ratio</text>
</a>
</g>
</g>
<!-- Node1&#45;&gt;Node11 -->
<g id="edge11" class="edge">
<title>Node1&#45;&gt;Node11</title>
<path fill="none" stroke="midnightblue" d="M557.52,-105.81C542.47,-103.68 526.88,-101.47 512.69,-99.46"/>
<polygon fill="midnightblue" stroke="midnightblue" points="557.44,-109.33 567.83,-107.27 558.42,-102.4 557.44,-109.33"/>
</g>
<!-- Node13 -->
<g id="node13" class="node">
<title>Node13</title>
<g id="a_node13"><a xlink:href="classembed_1_1percent.html#afa379fbbb92bc5dc22f0dce8bcf7ea1b" target="_top" xlink:title="Get the percent after it is scaled to a range. The output percent is bound within the given range....">
<polygon fill="white" stroke="black" points="227,-38.5 227,-57.5 337,-57.5 337,-38.5 227,-38.5"/>
<text text-anchor="middle" x="282" y="-45.5" font-family="Helvetica,sans-Serif" font-size="10.00">embed::percent::scale</text>
</a>
</g>
</g>
<!-- Node1&#45;&gt;Node13 -->
<g id="edge14" class="edge">
<title>Node1&#45;&gt;Node13</title>
<path fill="none" stroke="midnightblue" d="M606.43,-101.16C587.31,-89.67 558.98,-74.49 532,-67 466.83,-48.9 388.63,-45.8 337.47,-46.15"/>
<polygon fill="midnightblue" stroke="midnightblue" points="604.69,-104.19 615.04,-106.45 608.35,-98.23 604.69,-104.19"/>
</g>
<!-- Node14 -->
<g id="node14" class="node">
<title>Node14</title>
<g id="a_node14"><a xlink:href="classembed_1_1frequency.html#a7c8cfde28a6f6869694c509934c764ef" target="_top" xlink:title="Calculates and returns the wavelength of the frequency in seconds.">
<polygon fill="white" stroke="black" points="386,-0.5 386,-19.5 532,-19.5 532,-0.5 386,-0.5"/>
<text text-anchor="middle" x="459" y="-7.5" font-family="Helvetica,sans-Serif" font-size="10.00">embed::frequency::wavelength</text>
</a>
</g>
</g>
<!-- Node1&#45;&gt;Node14 -->
<g id="edge15" class="edge">
<title>Node1&#45;&gt;Node14</title>
<path fill="none" stroke="midnightblue" d="M613,-98.67C594.72,-80.36 563.63,-51.71 532,-34 521.31,-28.01 508.88,-23.21 497.39,-19.52"/>
<polygon fill="midnightblue" stroke="midnightblue" points="610.96,-101.59 620.46,-106.29 615.96,-96.69 610.96,-101.59"/>
</g>
<!-- Node3 -->
<g id="node3" class="node">
<title>Node3</title>
<g id="a_node3"><a xlink:href="classembed_1_1frequency.html#a6ba09620a9c2d43071e7f486d8c7fbdf" target="_top" xlink:title="Calculate a duty cycle based on a time duration, the percent and this driving frequency....">
<polygon fill="white" stroke="black" points="214,-263 214,-293 350,-293 350,-263 214,-263"/>
<text text-anchor="start" x="222" y="-281" font-family="Helvetica,sans-Serif" font-size="10.00">embed::frequency::calculate</text>
<text text-anchor="middle" x="282" y="-270" font-family="Helvetica,sans-Serif" font-size="10.00">_duty_cycle</text>
</a>
</g>
</g>
<!-- Node2&#45;&gt;Node3 -->
<g id="edge2" class="edge">
<title>Node2&#45;&gt;Node3</title>
<path fill="none" stroke="midnightblue" d="M410.17,-246.03C389.41,-251.25 364.87,-257.41 342.92,-262.93"/>
<polygon fill="midnightblue" stroke="midnightblue" points="411.18,-249.38 420.03,-243.55 409.48,-242.59 411.18,-249.38"/>
</g>
<!-- Node4 -->
<g id="node4" class="node">
<title>Node4</title>
<g id="a_node4"><a xlink:href="group__counter.html#ga4f1edcd06bf52209d5293e54d0d1beb6" target="_top" xlink:title="Create a timeout object based on embed::counter.">
<polygon fill="white" stroke="black" points="224.5,-224.5 224.5,-243.5 339.5,-243.5 339.5,-224.5 224.5,-224.5"/>
<text text-anchor="middle" x="282" y="-231.5" font-family="Helvetica,sans-Serif" font-size="10.00">embed::create_timeout</text>
</a>
</g>
</g>
<!-- Node2&#45;&gt;Node4 -->
<g id="edge3" class="edge">
<title>Node2&#45;&gt;Node4</title>
<path fill="none" stroke="midnightblue" d="M377.22,-234C364.54,-234 351.67,-234 339.69,-234"/>
<polygon fill="midnightblue" stroke="midnightblue" points="377.33,-237.5 387.33,-234 377.33,-230.5 377.33,-237.5"/>
</g>
<!-- Node5 -->
<g id="node5" class="node">
<title>Node5</title>
<g id="a_node5"><a xlink:href="group__counter.html#ga53e2d568aa13881c4213fe89a2e1c42e" target="_top" xlink:title="Delay execution for a duration of time using a hardware counter.">
<polygon fill="white" stroke="black" points="105,-224.5 105,-243.5 178,-243.5 178,-224.5 105,-224.5"/>
<text text-anchor="middle" x="141.5" y="-231.5" font-family="Helvetica,sans-Serif" font-size="10.00">embed::delay</text>
</a>
</g>
</g>
<!-- Node4&#45;&gt;Node5 -->
<g id="edge4" class="edge">
<title>Node4&#45;&gt;Node5</title>
<path fill="none" stroke="midnightblue" d="M213.98,-234C201.66,-234 189.26,-234 178.31,-234"/>
<polygon fill="midnightblue" stroke="midnightblue" points="214.27,-237.5 224.27,-234 214.27,-230.5 214.27,-237.5"/>
</g>
<!-- Node5&#45;&gt;Node5 -->
<g id="edge5" class="edge">
<title>Node5&#45;&gt;Node5</title>
<path fill="none" stroke="midnightblue" d="M161.13,-253.4C159.82,-258.31 153.27,-262 141.5,-262 122.66,-262 117.21,-252.57 125.16,-243.76"/>
<polygon fill="midnightblue" stroke="midnightblue" points="164.38,-252.09 157.84,-243.76 157.76,-254.35 164.38,-252.09"/>
</g>
<!-- Node6 -->
<g id="node6" class="node">
<title>Node6</title>
<g id="a_node6"><a xlink:href="group__serial.html#ga56439487351e68f734fdf9b6330da4d2" target="_top" xlink:title="Read bytes from a serial port.">
<polygon fill="white" stroke="black" points="0,-224.5 0,-243.5 69,-243.5 69,-224.5 0,-224.5"/>
<text text-anchor="middle" x="34.5" y="-231.5" font-family="Helvetica,sans-Serif" font-size="10.00">embed::read</text>
</a>
</g>
</g>
<!-- Node5&#45;&gt;Node6 -->
<g id="edge6" class="edge">
<title>Node5&#45;&gt;Node6</title>
<path fill="none" stroke="midnightblue" d="M94.7,-234C86.14,-234 77.35,-234 69.24,-234"/>
<polygon fill="midnightblue" stroke="midnightblue" points="94.95,-237.5 104.95,-234 94.95,-230.5 94.95,-237.5"/>
</g>
<!-- Node8 -->
<g id="node8" class="node">
<title>Node8</title>
<g id="a_node8"><a xlink:href="classembed_1_1frequency.html#a2063d8976c488b5dd47ad13791b47aa0" target="_top" xlink:title="Calculate a duty cycle based on a target, the percent and this driving frequency. Typically used for ...">
<polygon fill="white" stroke="black" points="214,-175 214,-205 350,-205 350,-175 214,-175"/>
<text text-anchor="start" x="222" y="-193" font-family="Helvetica,sans-Serif" font-size="10.00">embed::frequency::calculate</text>
<text text-anchor="middle" x="282" y="-182" font-family="Helvetica,sans-Serif" font-size="10.00">_duty_cycle</text>
</a>
</g>
</g>
<!-- Node7&#45;&gt;Node8 -->
<g id="edge8" class="edge">
<title>Node7&#45;&gt;Node8</title>
<path fill="none" stroke="midnightblue" d="M387.56,-188.8C375.25,-188.95 362.46,-189.09 350.24,-189.23"/>
<polygon fill="midnightblue" stroke="midnightblue" points="387.82,-192.3 397.77,-188.69 387.74,-185.3 387.82,-192.3"/>
</g>
<!-- Node10 -->
<g id="node10" class="node">
<title>Node10</title>
<g id="a_node10"><a xlink:href="classembed_1_1experimental_1_1uptime__counter.html#a71b8a2ddf4ce000823b2966b825e24fe" target="_top" xlink:title="Calculates the number of nanoseconds since the counter has started.">
<polygon fill="white" stroke="black" points="221,-126 221,-156 343,-156 343,-126 221,-126"/>
<text text-anchor="start" x="229" y="-144" font-family="Helvetica,sans-Serif" font-size="10.00">embed::experimental</text>
<text text-anchor="middle" x="282" y="-133" font-family="Helvetica,sans-Serif" font-size="10.00">::uptime_counter::uptime</text>
</a>
</g>
</g>
<!-- Node9&#45;&gt;Node10 -->
<g id="edge10" class="edge">
<title>Node9&#45;&gt;Node10</title>
<path fill="none" stroke="midnightblue" d="M383.18,-141C369.78,-141 355.97,-141 343.05,-141"/>
<polygon fill="midnightblue" stroke="midnightblue" points="383.33,-144.5 393.33,-141 383.33,-137.5 383.33,-144.5"/>
</g>
<!-- Node12 -->
<g id="node12" class="node">
<title>Node12</title>
<g id="a_node12"><a xlink:href="structembed_1_1duty__cycle.html#ae3211da17ad871387109a5d901a18183" target="_top" xlink:title="Conversion from duty cycle to percentage.">
<polygon fill="white" stroke="black" points="231.5,-77 231.5,-107 332.5,-107 332.5,-77 231.5,-77"/>
<text text-anchor="start" x="239.5" y="-95" font-family="Helvetica,sans-Serif" font-size="10.00">embed::duty_cycle::</text>
<text text-anchor="middle" x="282" y="-84" font-family="Helvetica,sans-Serif" font-size="10.00">operator percent</text>
</a>
</g>
</g>
<!-- Node11&#45;&gt;Node12 -->
<g id="edge12" class="edge">
<title>Node11&#45;&gt;Node12</title>
<path fill="none" stroke="midnightblue" d="M395.28,-92C374.74,-92 352.22,-92 332.77,-92"/>
<polygon fill="midnightblue" stroke="midnightblue" points="395.49,-95.5 405.49,-92 395.49,-88.5 395.49,-95.5"/>
</g>
<!-- Node11&#45;&gt;Node13 -->
<g id="edge13" class="edge">
<title>Node11&#45;&gt;Node13</title>
<path fill="none" stroke="midnightblue" d="M395.74,-76.35C370.78,-70.07 342.84,-63.04 321.01,-57.56"/>
<polygon fill="midnightblue" stroke="midnightblue" points="394.94,-79.75 405.49,-78.8 396.65,-72.97 394.94,-79.75"/>
</g>
</g>
</svg>
