<?xml version="1.0" encoding="UTF-8" standalone="no"?>
<!DOCTYPE svg PUBLIC "-//W3C//DTD SVG 1.1//EN"
 "http://www.w3.org/Graphics/SVG/1.1/DTD/svg11.dtd">
<!-- Generated by graphviz version 3.0.0 (20220413.0242)
 -->
<!-- Title: embed::to_string Pages: 1 -->
<svg width="399pt" height="135pt"
 viewBox="0.00 0.00 399.00 134.50" xmlns="http://www.w3.org/2000/svg" xmlns:xlink="http://www.w3.org/1999/xlink">
<g id="graph0" class="graph" transform="scale(1 1) rotate(0) translate(4 130.5)">
<title>embed::to_string</title>
<polygon fill="white" stroke="transparent" points="-4,4 -4,-130.5 395,-130.5 395,4 -4,4"/>
<!-- Node1 -->
<g id="node1" class="node">
<title>Node1</title>
<g id="a_node1"><a xlink:title="convert this percentage value into a string from &#45;1.0 to +1.0">
<polygon fill="#bfbfbf" stroke="black" points="0,-50 0,-69 88,-69 88,-50 0,-50"/>
<text text-anchor="middle" x="44" y="-57" font-family="Helvetica,sans-Serif" font-size="10.00">embed::to_string</text>
</a>
</g>
</g>
<!-- Node2 -->
<g id="node2" class="node">
<title>Node2</title>
<g id="a_node2"><a xlink:href="classembed_1_1percent.html#a0f9fc596e3daa1948d0112b98544ef4f" target="_top" xlink:title="Get +100% percentage.">
<polygon fill="white" stroke="black" points="124,-88 124,-107 229,-107 229,-88 124,-88"/>
<text text-anchor="middle" x="176.5" y="-95" font-family="Helvetica,sans-Serif" font-size="10.00">embed::percent::max</text>
</a>
</g>
</g>
<!-- Node1&#45;&gt;Node2 -->
<g id="edge1" class="edge">
<title>Node1&#45;&gt;Node2</title>
<path fill="none" stroke="midnightblue" d="M77.93,-69.09C94.62,-73.95 115.09,-79.91 132.96,-85.11"/>
<polygon fill="midnightblue" stroke="midnightblue" points="132,-88.48 142.58,-87.91 133.96,-81.76 132,-88.48"/>
</g>
<!-- Node5 -->
<g id="node5" class="node">
<title>Node5</title>
<g id="a_node5"><a xlink:href="classembed_1_1percent.html#a82d4dc647320164d22dc480723c9671b" target="_top" xlink:title="Get &#45;100% percentage.">
<polygon fill="white" stroke="black" points="125,-50 125,-69 228,-69 228,-50 125,-50"/>
<text text-anchor="middle" x="176.5" y="-57" font-family="Helvetica,sans-Serif" font-size="10.00">embed::percent::min</text>
</a>
</g>
</g>
<!-- Node1&#45;&gt;Node5 -->
<g id="edge4" class="edge">
<title>Node1&#45;&gt;Node5</title>
<path fill="none" stroke="midnightblue" d="M88.09,-59.5C96.61,-59.5 105.71,-59.5 114.69,-59.5"/>
<polygon fill="midnightblue" stroke="midnightblue" points="114.75,-63 124.75,-59.5 114.75,-56 114.75,-63"/>
</g>
<!-- Node7 -->
<g id="node7" class="node">
<title>Node7</title>
<g id="a_node7"><a xlink:href="classembed_1_1percent.html#ad776812c80964b900f3d1644bea1d773" target="_top" xlink:title="Get raw integral value.">
<polygon fill="white" stroke="black" points="125,-0.5 125,-30.5 228,-30.5 228,-0.5 125,-0.5"/>
<text text-anchor="start" x="133" y="-18.5" font-family="Helvetica,sans-Serif" font-size="10.00">embed::percent::raw</text>
<text text-anchor="middle" x="176.5" y="-7.5" font-family="Helvetica,sans-Serif" font-size="10.00">_value</text>
</a>
</g>
</g>
<!-- Node1&#45;&gt;Node7 -->
<g id="edge7" class="edge">
<title>Node1&#45;&gt;Node7</title>
<path fill="none" stroke="midnightblue" d="M73.32,-49.95C87.35,-45.22 104.79,-39.34 121.26,-33.79"/>
<polygon fill="midnightblue" stroke="midnightblue" points="122.46,-37.08 130.82,-30.57 120.22,-30.44 122.46,-37.08"/>
</g>
<!-- Node3 -->
<g id="node3" class="node">
<title>Node3</title>
<g id="a_node3"><a xlink:href="classembed_1_1percent.html#a3635a4d8e47f6a65226ee6391509f3a1" target="_top" xlink:title="Construct 0% percent object.">
<polygon fill="white" stroke="black" points="268.5,-69 268.5,-88 387.5,-88 387.5,-69 268.5,-69"/>
<text text-anchor="middle" x="328" y="-76" font-family="Helvetica,sans-Serif" font-size="10.00">embed::percent::percent</text>
</a>
</g>
</g>
<!-- Node2&#45;&gt;Node3 -->
<g id="edge2" class="edge">
<title>Node2&#45;&gt;Node3</title>
<path fill="none" stroke="midnightblue" d="M229.37,-90.91C238.69,-89.72 248.55,-88.47 258.26,-87.24"/>
<polygon fill="midnightblue" stroke="midnightblue" points="258.83,-90.69 268.31,-85.96 257.95,-83.75 258.83,-90.69"/>
</g>
<!-- Node4 -->
<g id="node4" class="node">
<title>Node4</title>
<g id="a_node4"><a xlink:href="classembed_1_1percent.html#a18867853ebb7f7101932f298ef9ac059" target="_top" xlink:title="Get the 100% value in its raw representation.">
<polygon fill="white" stroke="black" points="265,-107 265,-126 391,-126 391,-107 265,-107"/>
<text text-anchor="middle" x="328" y="-114" font-family="Helvetica,sans-Serif" font-size="10.00">embed::percent::raw_max</text>
</a>
</g>
</g>
<!-- Node2&#45;&gt;Node4 -->
<g id="edge3" class="edge">
<title>Node2&#45;&gt;Node4</title>
<path fill="none" stroke="midnightblue" d="M229.37,-104.09C237.61,-105.14 246.27,-106.24 254.87,-107.33"/>
<polygon fill="midnightblue" stroke="midnightblue" points="254.57,-110.82 264.93,-108.61 255.45,-103.88 254.57,-110.82"/>
</g>
<!-- Node5&#45;&gt;Node3 -->
<g id="edge5" class="edge">
<title>Node5&#45;&gt;Node3</title>
<path fill="none" stroke="midnightblue" d="M228.11,-65.93C237.83,-67.17 248.16,-68.48 258.34,-69.77"/>
<polygon fill="midnightblue" stroke="midnightblue" points="258.08,-73.27 268.44,-71.06 258.96,-66.33 258.08,-73.27"/>
</g>
<!-- Node6 -->
<g id="node6" class="node">
<title>Node6</title>
<g id="a_node6"><a xlink:href="classembed_1_1percent.html#addd3062c4b442314f9b135b532367c44" target="_top" xlink:title="Get the &#45;100% value in its raw representation.">
<polygon fill="white" stroke="black" points="266,-31 266,-50 390,-50 390,-31 266,-31"/>
<text text-anchor="middle" x="328" y="-38" font-family="Helvetica,sans-Serif" font-size="10.00">embed::percent::raw_min</text>
</a>
</g>
</g>
<!-- Node5&#45;&gt;Node6 -->
<g id="edge6" class="edge">
<title>Node5&#45;&gt;Node6</title>
<path fill="none" stroke="midnightblue" d="M228.11,-53.07C237.01,-51.94 246.42,-50.74 255.75,-49.56"/>
<polygon fill="midnightblue" stroke="midnightblue" points="256.34,-53.01 265.82,-48.28 255.46,-46.06 256.34,-53.01"/>
</g>
</g>
</svg>
