<?xml version="1.0" encoding="UTF-8" standalone="no"?>
<!DOCTYPE svg PUBLIC "-//W3C//DTD SVG 1.1//EN"
 "http://www.w3.org/Graphics/SVG/1.1/DTD/svg11.dtd">
<!-- Generated by graphviz version 3.0.0 (20220413.0242)
 -->
<!-- Title: embed::create_timeout Pages: 1 -->
<svg width="748pt" height="172pt"
 viewBox="0.00 0.00 748.00 171.50" xmlns="http://www.w3.org/2000/svg" xmlns:xlink="http://www.w3.org/1999/xlink">
<g id="graph0" class="graph" transform="scale(1 1) rotate(0) translate(4 167.5)">
<title>embed::create_timeout</title>
<polygon fill="white" stroke="transparent" points="-4,4 -4,-167.5 744,-167.5 744,4 -4,4"/>
<!-- Node1 -->
<g id="node1" class="node">
<title>Node1</title>
<g id="a_node1"><a xlink:title="Create a timeout object based on embed::counter.">
<polygon fill="#bfbfbf" stroke="black" points="0,-66.5 0,-85.5 115,-85.5 115,-66.5 0,-66.5"/>
<text text-anchor="middle" x="57.5" y="-73.5" font-family="Helvetica,sans-Serif" font-size="10.00">embed::create_timeout</text>
</a>
</g>
</g>
<!-- Node2 -->
<g id="node2" class="node">
<title>Node2</title>
<g id="a_node2"><a xlink:href="classembed_1_1counter__timeout.html#aa5741370521bba1742b8d4080f26ac0d" target="_top" xlink:title="Create a counter_timeout.">
<polygon fill="white" stroke="black" points="151,-61 151,-91 271,-91 271,-61 151,-61"/>
<text text-anchor="start" x="159" y="-79" font-family="Helvetica,sans-Serif" font-size="10.00">embed::counter_timeout</text>
<text text-anchor="middle" x="211" y="-68" font-family="Helvetica,sans-Serif" font-size="10.00">::create</text>
</a>
</g>
</g>
<!-- Node1&#45;&gt;Node2 -->
<g id="edge1" class="edge">
<title>Node1&#45;&gt;Node2</title>
<path fill="none" stroke="midnightblue" d="M115.34,-76C123.58,-76 132.14,-76 140.59,-76"/>
<polygon fill="midnightblue" stroke="midnightblue" points="140.81,-79.5 150.81,-76 140.81,-72.5 140.81,-79.5"/>
</g>
<!-- Node3 -->
<g id="node3" class="node">
<title>Node3</title>
<g id="a_node3"><a xlink:href="classembed_1_1counter__timeout.html#a78ca298194b92fa5ab316610c3b4df22" target="_top" xlink:title="Construct a new counter timeout object.">
<polygon fill="white" stroke="black" points="307,-133 307,-163 427,-163 427,-133 307,-133"/>
<text text-anchor="start" x="315" y="-151" font-family="Helvetica,sans-Serif" font-size="10.00">embed::counter_timeout</text>
<text text-anchor="middle" x="367" y="-140" font-family="Helvetica,sans-Serif" font-size="10.00">::counter_timeout</text>
</a>
</g>
</g>
<!-- Node2&#45;&gt;Node3 -->
<g id="edge2" class="edge">
<title>Node2&#45;&gt;Node3</title>
<path fill="none" stroke="midnightblue" d="M241.31,-91.06C259.98,-100.51 284.76,-112.8 307,-123 311.32,-124.98 315.85,-127 320.38,-128.99"/>
<polygon fill="midnightblue" stroke="midnightblue" points="319.09,-132.24 329.66,-133 321.87,-125.82 319.09,-132.24"/>
</g>
<!-- Node4 -->
<g id="node4" class="node">
<title>Node4</title>
<g id="a_node4"><a xlink:href="group__utility.html#ga61711bf3d8c25b82fb37db4f53426ef0" target="_top" xlink:title="Calculate the number of cycles of this frequency within the time duration. This function is meant for...">
<polygon fill="white" stroke="black" points="318.5,-94.5 318.5,-113.5 415.5,-113.5 415.5,-94.5 318.5,-94.5"/>
<text text-anchor="middle" x="367" y="-101.5" font-family="Helvetica,sans-Serif" font-size="10.00">embed::cycles_per</text>
</a>
</g>
</g>
<!-- Node2&#45;&gt;Node4 -->
<g id="edge3" class="edge">
<title>Node2&#45;&gt;Node4</title>
<path fill="none" stroke="midnightblue" d="M271.1,-86.75C283.29,-88.96 296.12,-91.29 308.26,-93.5"/>
<polygon fill="midnightblue" stroke="midnightblue" points="307.81,-96.98 318.28,-95.32 309.06,-90.09 307.81,-96.98"/>
</g>
<!-- Node7 -->
<g id="node7" class="node">
<title>Node7</title>
<g id="a_node7"><a xlink:href="namespaceembed.html#a87973d938f95cc08d58ae8d55707043a" target="_top" xlink:title=" ">
<polygon fill="white" stroke="black" points="320.5,-38.5 320.5,-57.5 413.5,-57.5 413.5,-38.5 320.5,-38.5"/>
<text text-anchor="middle" x="367" y="-45.5" font-family="Helvetica,sans-Serif" font-size="10.00">embed::new_error</text>
</a>
</g>
</g>
<!-- Node2&#45;&gt;Node7 -->
<g id="edge7" class="edge">
<title>Node2&#45;&gt;Node7</title>
<path fill="none" stroke="midnightblue" d="M271.1,-65.25C283.95,-62.92 297.51,-60.45 310.22,-58.14"/>
<polygon fill="midnightblue" stroke="midnightblue" points="311,-61.56 320.21,-56.33 309.75,-54.67 311,-61.56"/>
</g>
<!-- Node8 -->
<g id="node8" class="node">
<title>Node8</title>
<g id="a_node8"><a xlink:href="classembed_1_1counter.html#a02c24fbeaac81ef1030ff8e1a41b0738" target="_top" xlink:title="Get the uptime of the counter since it has started.">
<polygon fill="white" stroke="black" points="309,-0.5 309,-19.5 425,-19.5 425,-0.5 309,-0.5"/>
<text text-anchor="middle" x="367" y="-7.5" font-family="Helvetica,sans-Serif" font-size="10.00">embed::counter::uptime</text>
</a>
</g>
</g>
<!-- Node2&#45;&gt;Node8 -->
<g id="edge9" class="edge">
<title>Node2&#45;&gt;Node8</title>
<path fill="none" stroke="midnightblue" d="M239.77,-60.9C258.45,-51.09 283.81,-38.41 307,-29 312.43,-26.8 318.22,-24.67 323.97,-22.69"/>
<polygon fill="midnightblue" stroke="midnightblue" points="325.16,-25.98 333.54,-19.5 322.95,-19.34 325.16,-25.98"/>
</g>
<!-- Node5 -->
<g id="node5" class="node">
<title>Node5</title>
<g id="a_node5"><a xlink:href="group__utility.html#ga6f0922a28ac81378eb689b2ab4bc299a" target="_top" xlink:title="Generic absolute value function that works for integer types.">
<polygon fill="white" stroke="black" points="624,-94.5 624,-113.5 740,-113.5 740,-94.5 624,-94.5"/>
<text text-anchor="middle" x="682" y="-101.5" font-family="Helvetica,sans-Serif" font-size="10.00">embed::absolute_value</text>
</a>
</g>
</g>
<!-- Node4&#45;&gt;Node5 -->
<g id="edge4" class="edge">
<title>Node4&#45;&gt;Node5</title>
<path fill="none" stroke="midnightblue" d="M415.54,-104C468.4,-104 554.2,-104 613.89,-104"/>
<polygon fill="midnightblue" stroke="midnightblue" points="613.97,-107.5 623.97,-104 613.97,-100.5 613.97,-107.5"/>
</g>
<!-- Node6 -->
<g id="node6" class="node">
<title>Node6</title>
<g id="a_node6"><a xlink:href="group__utility.html#ga84ea33bb969785c47247cfe0da9aa98e" target="_top" xlink:title="Perform integer division and round the value up if the next decimal place is greater than or equal to...">
<polygon fill="white" stroke="black" points="463,-75.5 463,-94.5 588,-94.5 588,-75.5 463,-75.5"/>
<text text-anchor="middle" x="525.5" y="-82.5" font-family="Helvetica,sans-Serif" font-size="10.00">embed::rounding_division</text>
</a>
</g>
</g>
<!-- Node4&#45;&gt;Node6 -->
<g id="edge5" class="edge">
<title>Node4&#45;&gt;Node6</title>
<path fill="none" stroke="midnightblue" d="M415.81,-98.2C427.51,-96.78 440.29,-95.22 452.84,-93.7"/>
<polygon fill="midnightblue" stroke="midnightblue" points="453.33,-97.17 462.83,-92.49 452.48,-90.22 453.33,-97.17"/>
</g>
<!-- Node6&#45;&gt;Node5 -->
<g id="edge6" class="edge">
<title>Node6&#45;&gt;Node5</title>
<path fill="none" stroke="midnightblue" d="M588.01,-92.56C596.47,-93.61 605.21,-94.68 613.77,-95.73"/>
<polygon fill="midnightblue" stroke="midnightblue" points="613.37,-99.21 623.72,-96.96 614.22,-92.26 613.37,-99.21"/>
</g>
<!-- Node7&#45;&gt;Node7 -->
<g id="edge8" class="edge">
<title>Node7&#45;&gt;Node7</title>
<path fill="none" stroke="midnightblue" d="M342.96,-57.76C331.26,-66.57 339.27,-76 367,-76 385.2,-76 394.9,-71.94 396.12,-66.65"/>
<polygon fill="midnightblue" stroke="midnightblue" points="399.04,-64.71 391.04,-57.76 392.96,-68.18 399.04,-64.71"/>
</g>
</g>
</svg>
