<?xml version="1.0" encoding="UTF-8" standalone="no"?>
<!DOCTYPE svg PUBLIC "-//W3C//DTD SVG 1.1//EN"
 "http://www.w3.org/Graphics/SVG/1.1/DTD/svg11.dtd">
<!-- Generated by graphviz version 3.0.0 (20220413.0242)
 -->
<!-- Title: hal::value Pages: 1 -->
<svg width="235pt" height="66pt"
 viewBox="0.00 0.00 235.00 66.00" xmlns="http://www.w3.org/2000/svg" xmlns:xlink="http://www.w3.org/1999/xlink">
<g id="graph0" class="graph" transform="scale(1 1) rotate(0) translate(4 62)">
<title>hal::value</title>
<polygon fill="white" stroke="transparent" points="-4,4 -4,-62 231,-62 231,4 -4,4"/>
<!-- Node1 -->
<g id="node1" class="node">
<title>Node1</title>
<g id="a_node1"><a xlink:title="Helper function to convert an enum to its integral value.">
<polygon fill="#bfbfbf" stroke="black" points="170,-19.5 170,-38.5 227,-38.5 227,-19.5 170,-19.5"/>
<text text-anchor="middle" x="198.5" y="-26.5" font-family="Helvetica,sans-Serif" font-size="10.00">hal::value</text>
</a>
</g>
</g>
<!-- Node2 -->
<g id="node2" class="node">
<title>Node2</title>
<g id="a_node2"><a xlink:href="namespacehal_1_1literals.html#a0cd2b0073f765aaef870f8526c9b18b0" target="_top" xlink:title="user defined literals for making frequencies in the kilohertz.">
<polygon fill="white" stroke="black" points="1.5,-38.5 1.5,-57.5 132.5,-57.5 132.5,-38.5 1.5,-38.5"/>
<text text-anchor="middle" x="67" y="-45.5" font-family="Helvetica,sans-Serif" font-size="10.00">hal::literals::operator&quot;&quot;_kHz</text>
</a>
</g>
</g>
<!-- Node1&#45;&gt;Node2 -->
<g id="edge1" class="edge">
<title>Node1&#45;&gt;Node2</title>
<path fill="none" stroke="midnightblue" d="M159.77,-34.54C151.26,-35.78 141.99,-37.14 132.72,-38.5"/>
<polygon fill="midnightblue" stroke="midnightblue" points="160.33,-37.99 169.72,-33.08 159.32,-31.06 160.33,-37.99"/>
</g>
<!-- Node3 -->
<g id="node3" class="node">
<title>Node3</title>
<g id="a_node3"><a xlink:href="namespacehal_1_1literals.html#afb29b822263b6eb3066c0eb5037e3df3" target="_top" xlink:title="user defined literals for making frequencies in the megahertz.">
<polygon fill="white" stroke="black" points="0,-0.5 0,-19.5 134,-19.5 134,-0.5 0,-0.5"/>
<text text-anchor="middle" x="67" y="-7.5" font-family="Helvetica,sans-Serif" font-size="10.00">hal::literals::operator&quot;&quot;_MHz</text>
</a>
</g>
</g>
<!-- Node1&#45;&gt;Node3 -->
<g id="edge2" class="edge">
<title>Node1&#45;&gt;Node3</title>
<path fill="none" stroke="midnightblue" d="M159.56,-23.43C151.19,-22.21 142.09,-20.87 132.99,-19.54"/>
<polygon fill="midnightblue" stroke="midnightblue" points="159.32,-26.94 169.72,-24.92 160.33,-20.01 159.32,-26.94"/>
</g>
</g>
</svg>
