<?xml version="1.0" encoding="UTF-8" standalone="no"?>
<!DOCTYPE svg PUBLIC "-//W3C//DTD SVG 1.1//EN"
 "http://www.w3.org/Graphics/SVG/1.1/DTD/svg11.dtd">
<!-- Generated by graphviz version 3.0.0 (20220413.0242)
 -->
<!-- Title: embed::read Pages: 1 -->
<svg width="232pt" height="66pt"
 viewBox="0.00 0.00 232.00 66.00" xmlns="http://www.w3.org/2000/svg" xmlns:xlink="http://www.w3.org/1999/xlink">
<g id="graph0" class="graph" transform="scale(1 1) rotate(0) translate(4 62)">
<title>embed::read</title>
<polygon fill="white" stroke="transparent" points="-4,4 -4,-62 228,-62 228,4 -4,4"/>
<!-- Node1 -->
<g id="node1" class="node">
<title>Node1</title>
<g id="a_node1"><a xlink:title="read bytes from target device on i2c bus">
<polygon fill="#bfbfbf" stroke="black" points="155,-19.5 155,-38.5 224,-38.5 224,-19.5 155,-19.5"/>
<text text-anchor="middle" x="189.5" y="-26.5" font-family="Helvetica,sans-Serif" font-size="10.00">embed::read</text>
</a>
</g>
</g>
<!-- Node2 -->
<g id="node2" class="node">
<title>Node2</title>
<g id="a_node2"><a xlink:href="group__i2c.html#ga91b1991656f7b94b2412c709b12bb530" target="_top" xlink:title="return array of read bytes from target device on i2c bus">
<polygon fill="white" stroke="black" points="25,-38.5 25,-57.5 94,-57.5 94,-38.5 25,-38.5"/>
<text text-anchor="middle" x="59.5" y="-45.5" font-family="Helvetica,sans-Serif" font-size="10.00">embed::read</text>
</a>
</g>
</g>
<!-- Node1&#45;&gt;Node2 -->
<g id="edge1" class="edge">
<title>Node1&#45;&gt;Node2</title>
<path fill="none" stroke="midnightblue" d="M144.89,-35.47C128.38,-37.92 109.84,-40.68 94.35,-42.98"/>
<polygon fill="midnightblue" stroke="midnightblue" points="145.49,-38.92 154.87,-33.99 144.46,-32 145.49,-38.92"/>
</g>
<!-- Node3 -->
<g id="node3" class="node">
<title>Node3</title>
<g id="a_node3"><a xlink:href="group__serial.html#ga5321e41f41aa9aa1f64454f3534fa581" target="_top" xlink:title="Perform a write then read transaction over serial.">
<polygon fill="white" stroke="black" points="0,-0.5 0,-19.5 119,-19.5 119,-0.5 0,-0.5"/>
<text text-anchor="middle" x="59.5" y="-7.5" font-family="Helvetica,sans-Serif" font-size="10.00">embed::write_then_read</text>
</a>
</g>
</g>
<!-- Node1&#45;&gt;Node3 -->
<g id="edge2" class="edge">
<title>Node1&#45;&gt;Node3</title>
<path fill="none" stroke="midnightblue" d="M144.74,-22.51C136.5,-21.28 127.76,-19.98 119.15,-18.71"/>
<polygon fill="midnightblue" stroke="midnightblue" points="144.46,-26 154.87,-24.01 145.49,-19.08 144.46,-26"/>
</g>
</g>
</svg>
