<?xml version="1.0" encoding="UTF-8" standalone="no"?>
<!DOCTYPE svg PUBLIC "-//W3C//DTD SVG 1.1//EN"
 "http://www.w3.org/Graphics/SVG/1.1/DTD/svg11.dtd">
<!-- Generated by graphviz version 3.0.0 (20220413.0242)
 -->
<!-- Title: embed::multiply Pages: 1 -->
<svg width="220pt" height="46pt"
 viewBox="0.00 0.00 220.00 46.00" xmlns="http://www.w3.org/2000/svg" xmlns:xlink="http://www.w3.org/1999/xlink">
<g id="graph0" class="graph" transform="scale(1 1) rotate(0) translate(4 42)">
<title>embed::multiply</title>
<polygon fill="white" stroke="transparent" points="-4,4 -4,-42 216,-42 216,4 -4,4"/>
<!-- Node1 -->
<g id="node1" class="node">
<title>Node1</title>
<g id="a_node1"><a xlink:title="Perform multiply operation and return an error code std::errc::result_out_of_range if the two values ...">
<polygon fill="#bfbfbf" stroke="black" points="0,-0.5 0,-19.5 83,-19.5 83,-0.5 0,-0.5"/>
<text text-anchor="middle" x="41.5" y="-7.5" font-family="Helvetica,sans-Serif" font-size="10.00">embed::multiply</text>
</a>
</g>
</g>
<!-- Node2 -->
<g id="node2" class="node">
<title>Node2</title>
<g id="a_node2"><a xlink:href="namespaceembed.html#a87973d938f95cc08d58ae8d55707043a" target="_top" xlink:title=" ">
<polygon fill="white" stroke="black" points="119,-0.5 119,-19.5 212,-19.5 212,-0.5 119,-0.5"/>
<text text-anchor="middle" x="165.5" y="-7.5" font-family="Helvetica,sans-Serif" font-size="10.00">embed::new_error</text>
</a>
</g>
</g>
<!-- Node1&#45;&gt;Node2 -->
<g id="edge1" class="edge">
<title>Node1&#45;&gt;Node2</title>
<path fill="none" stroke="midnightblue" d="M83.12,-10C91.21,-10 99.83,-10 108.32,-10"/>
<polygon fill="midnightblue" stroke="midnightblue" points="108.58,-13.5 118.58,-10 108.58,-6.5 108.58,-13.5"/>
</g>
<!-- Node2&#45;&gt;Node2 -->
<g id="edge2" class="edge">
<title>Node2&#45;&gt;Node2</title>
<path fill="none" stroke="midnightblue" d="M146.39,-19.76C137.09,-28.57 143.46,-38 165.5,-38 179.62,-38 187.31,-34.13 188.57,-29.03"/>
<polygon fill="midnightblue" stroke="midnightblue" points="191.75,-27.58 184.61,-19.76 185.31,-30.33 191.75,-27.58"/>
</g>
</g>
</svg>
