<?xml version="1.0" encoding="UTF-8" standalone="no"?>
<!DOCTYPE svg PUBLIC "-//W3C//DTD SVG 1.1//EN"
 "http://www.w3.org/Graphics/SVG/1.1/DTD/svg11.dtd">
<!-- Generated by graphviz version 3.0.0 (20220413.0242)
 -->
<!-- Title: embed::delay Pages: 1 -->
<svg width="857pt" height="116pt"
 viewBox="0.00 0.00 857.00 115.50" xmlns="http://www.w3.org/2000/svg" xmlns:xlink="http://www.w3.org/1999/xlink">
<g id="graph0" class="graph" transform="scale(1 1) rotate(0) translate(4 111.5)">
<title>embed::delay</title>
<polygon fill="white" stroke="transparent" points="-4,4 -4,-111.5 853,-111.5 853,4 -4,4"/>
<!-- Node1 -->
<g id="node1" class="node">
<title>Node1</title>
<g id="a_node1"><a xlink:title="Delay execution for a duration of time using a hardware counter.">
<polygon fill="#bfbfbf" stroke="black" points="0,-38.5 0,-57.5 73,-57.5 73,-38.5 0,-38.5"/>
<text text-anchor="middle" x="36.5" y="-45.5" font-family="Helvetica,sans-Serif" font-size="10.00">embed::delay</text>
</a>
</g>
</g>
<!-- Node1&#45;&gt;Node1 -->
<g id="edge9" class="edge">
<title>Node1&#45;&gt;Node1</title>
<path fill="none" stroke="midnightblue" d="M16.46,-57.76C6.72,-66.57 13.39,-76 36.5,-76 51.3,-76 59.36,-72.13 60.68,-67.03"/>
<polygon fill="midnightblue" stroke="midnightblue" points="63.81,-65.46 56.54,-57.76 57.42,-68.31 63.81,-65.46"/>
</g>
<!-- Node2 -->
<g id="node2" class="node">
<title>Node2</title>
<g id="a_node2"><a xlink:href="group__counter.html#ga4f1edcd06bf52209d5293e54d0d1beb6" target="_top" xlink:title="Create a timeout object based on embed::counter.">
<polygon fill="white" stroke="black" points="109,-38.5 109,-57.5 224,-57.5 224,-38.5 109,-38.5"/>
<text text-anchor="middle" x="166.5" y="-45.5" font-family="Helvetica,sans-Serif" font-size="10.00">embed::create_timeout</text>
</a>
</g>
</g>
<!-- Node1&#45;&gt;Node2 -->
<g id="edge1" class="edge">
<title>Node1&#45;&gt;Node2</title>
<path fill="none" stroke="midnightblue" d="M73.16,-48C81.22,-48 90.03,-48 98.91,-48"/>
<polygon fill="midnightblue" stroke="midnightblue" points="98.93,-51.5 108.93,-48 98.93,-44.5 98.93,-51.5"/>
</g>
<!-- Node3 -->
<g id="node3" class="node">
<title>Node3</title>
<g id="a_node3"><a xlink:href="classembed_1_1counter__timeout.html#aa5741370521bba1742b8d4080f26ac0d" target="_top" xlink:title="Create a counter_timeout.">
<polygon fill="white" stroke="black" points="260,-33 260,-63 380,-63 380,-33 260,-33"/>
<text text-anchor="start" x="268" y="-51" font-family="Helvetica,sans-Serif" font-size="10.00">embed::counter_timeout</text>
<text text-anchor="middle" x="320" y="-40" font-family="Helvetica,sans-Serif" font-size="10.00">::create</text>
</a>
</g>
</g>
<!-- Node2&#45;&gt;Node3 -->
<g id="edge2" class="edge">
<title>Node2&#45;&gt;Node3</title>
<path fill="none" stroke="midnightblue" d="M224.34,-48C232.58,-48 241.14,-48 249.59,-48"/>
<polygon fill="midnightblue" stroke="midnightblue" points="249.81,-51.5 259.81,-48 249.81,-44.5 249.81,-51.5"/>
</g>
<!-- Node4 -->
<g id="node4" class="node">
<title>Node4</title>
<g id="a_node4"><a xlink:href="classembed_1_1counter__timeout.html#a78ca298194b92fa5ab316610c3b4df22" target="_top" xlink:title="Construct a new counter timeout object.">
<polygon fill="white" stroke="black" points="416,-77 416,-107 536,-107 536,-77 416,-77"/>
<text text-anchor="start" x="424" y="-95" font-family="Helvetica,sans-Serif" font-size="10.00">embed::counter_timeout</text>
<text text-anchor="middle" x="476" y="-84" font-family="Helvetica,sans-Serif" font-size="10.00">::counter_timeout</text>
</a>
</g>
</g>
<!-- Node3&#45;&gt;Node4 -->
<g id="edge3" class="edge">
<title>Node3&#45;&gt;Node4</title>
<path fill="none" stroke="midnightblue" d="M373.57,-63.02C386.14,-66.61 399.67,-70.48 412.63,-74.18"/>
<polygon fill="midnightblue" stroke="midnightblue" points="411.83,-77.59 422.41,-76.97 413.75,-70.86 411.83,-77.59"/>
</g>
<!-- Node5 -->
<g id="node5" class="node">
<title>Node5</title>
<g id="a_node5"><a xlink:href="group__utility.html#ga61711bf3d8c25b82fb37db4f53426ef0" target="_top" xlink:title="Calculate the number of cycles of this frequency within the time duration. This function is meant for...">
<polygon fill="white" stroke="black" points="427.5,-38.5 427.5,-57.5 524.5,-57.5 524.5,-38.5 427.5,-38.5"/>
<text text-anchor="middle" x="476" y="-45.5" font-family="Helvetica,sans-Serif" font-size="10.00">embed::cycles_per</text>
</a>
</g>
</g>
<!-- Node3&#45;&gt;Node5 -->
<g id="edge4" class="edge">
<title>Node3&#45;&gt;Node5</title>
<path fill="none" stroke="midnightblue" d="M380.1,-48C392.29,-48 405.12,-48 417.26,-48"/>
<polygon fill="midnightblue" stroke="midnightblue" points="417.28,-51.5 427.28,-48 417.28,-44.5 417.28,-51.5"/>
</g>
<!-- Node8 -->
<g id="node8" class="node">
<title>Node8</title>
<g id="a_node8"><a xlink:href="classembed_1_1counter.html#a02c24fbeaac81ef1030ff8e1a41b0738" target="_top" xlink:title="Get the uptime of the counter since it has started.">
<polygon fill="white" stroke="black" points="418,-0.5 418,-19.5 534,-19.5 534,-0.5 418,-0.5"/>
<text text-anchor="middle" x="476" y="-7.5" font-family="Helvetica,sans-Serif" font-size="10.00">embed::counter::uptime</text>
</a>
</g>
</g>
<!-- Node3&#45;&gt;Node8 -->
<g id="edge8" class="edge">
<title>Node3&#45;&gt;Node8</title>
<path fill="none" stroke="midnightblue" d="M380.1,-33.42C395.4,-29.64 411.7,-25.62 426.39,-21.99"/>
<polygon fill="midnightblue" stroke="midnightblue" points="427.41,-25.35 436.28,-19.56 425.73,-18.55 427.41,-25.35"/>
</g>
<!-- Node6 -->
<g id="node6" class="node">
<title>Node6</title>
<g id="a_node6"><a xlink:href="group__utility.html#ga6f0922a28ac81378eb689b2ab4bc299a" target="_top" xlink:title="Generic absolute value function that works for integer types.">
<polygon fill="white" stroke="black" points="733,-38.5 733,-57.5 849,-57.5 849,-38.5 733,-38.5"/>
<text text-anchor="middle" x="791" y="-45.5" font-family="Helvetica,sans-Serif" font-size="10.00">embed::absolute_value</text>
</a>
</g>
</g>
<!-- Node5&#45;&gt;Node6 -->
<g id="edge5" class="edge">
<title>Node5&#45;&gt;Node6</title>
<path fill="none" stroke="midnightblue" d="M524.54,-48C577.4,-48 663.2,-48 722.89,-48"/>
<polygon fill="midnightblue" stroke="midnightblue" points="722.97,-51.5 732.97,-48 722.97,-44.5 722.97,-51.5"/>
</g>
<!-- Node7 -->
<g id="node7" class="node">
<title>Node7</title>
<g id="a_node7"><a xlink:href="group__utility.html#ga84ea33bb969785c47247cfe0da9aa98e" target="_top" xlink:title="Perform integer division and round the value up if the next decimal place is greater than or equal to...">
<polygon fill="white" stroke="black" points="572,-19.5 572,-38.5 697,-38.5 697,-19.5 572,-19.5"/>
<text text-anchor="middle" x="634.5" y="-26.5" font-family="Helvetica,sans-Serif" font-size="10.00">embed::rounding_division</text>
</a>
</g>
</g>
<!-- Node5&#45;&gt;Node7 -->
<g id="edge6" class="edge">
<title>Node5&#45;&gt;Node7</title>
<path fill="none" stroke="midnightblue" d="M524.81,-42.2C536.51,-40.78 549.29,-39.22 561.84,-37.7"/>
<polygon fill="midnightblue" stroke="midnightblue" points="562.33,-41.17 571.83,-36.49 561.48,-34.22 562.33,-41.17"/>
</g>
<!-- Node7&#45;&gt;Node6 -->
<g id="edge7" class="edge">
<title>Node7&#45;&gt;Node6</title>
<path fill="none" stroke="midnightblue" d="M697.01,-36.56C705.47,-37.61 714.21,-38.68 722.77,-39.73"/>
<polygon fill="midnightblue" stroke="midnightblue" points="722.37,-43.21 732.72,-40.96 723.22,-36.26 722.37,-43.21"/>
</g>
</g>
</svg>
