<?xml version="1.0" encoding="UTF-8" standalone="no"?>
<!DOCTYPE svg PUBLIC "-//W3C//DTD SVG 1.1//EN"
 "http://www.w3.org/Graphics/SVG/1.1/DTD/svg11.dtd">
<!-- Generated by graphviz version 3.0.0 (20220413.0242)
 -->
<!-- Title: embed::read Pages: 1 -->
<svg width="802pt" height="66pt"
 viewBox="0.00 0.00 802.00 66.00" xmlns="http://www.w3.org/2000/svg" xmlns:xlink="http://www.w3.org/1999/xlink">
<g id="graph0" class="graph" transform="scale(1 1) rotate(0) translate(4 62)">
<title>embed::read</title>
<polygon fill="white" stroke="transparent" points="-4,4 -4,-62 798,-62 798,4 -4,4"/>
<!-- Node1 -->
<g id="node1" class="node">
<title>Node1</title>
<g id="a_node1"><a xlink:title="Read bytes from a serial port and return an array.">
<polygon fill="#bfbfbf" stroke="black" points="0,-19.5 0,-38.5 69,-38.5 69,-19.5 0,-19.5"/>
<text text-anchor="middle" x="34.5" y="-26.5" font-family="Helvetica,sans-Serif" font-size="10.00">embed::read</text>
</a>
</g>
</g>
<!-- Node2 -->
<g id="node2" class="node">
<title>Node2</title>
<g id="a_node2"><a xlink:href="group__counter.html#ga53e2d568aa13881c4213fe89a2e1c42e" target="_top" xlink:title="Delay execution for a duration of time using a hardware counter.">
<polygon fill="white" stroke="black" points="105,-19.5 105,-38.5 178,-38.5 178,-19.5 105,-19.5"/>
<text text-anchor="middle" x="141.5" y="-26.5" font-family="Helvetica,sans-Serif" font-size="10.00">embed::delay</text>
</a>
</g>
</g>
<!-- Node1&#45;&gt;Node2 -->
<g id="edge1" class="edge">
<title>Node1&#45;&gt;Node2</title>
<path fill="none" stroke="midnightblue" d="M69.01,-29C77.12,-29 85.92,-29 94.49,-29"/>
<polygon fill="midnightblue" stroke="midnightblue" points="94.77,-32.5 104.77,-29 94.77,-25.5 94.77,-32.5"/>
</g>
<!-- Node2&#45;&gt;Node2 -->
<g id="edge8" class="edge">
<title>Node2&#45;&gt;Node2</title>
<path fill="none" stroke="midnightblue" d="M125.16,-38.76C117.21,-47.57 122.66,-57 141.5,-57 153.27,-57 159.82,-53.31 161.13,-48.4"/>
<polygon fill="midnightblue" stroke="midnightblue" points="164.38,-47.09 157.84,-38.76 157.76,-49.35 164.38,-47.09"/>
</g>
<!-- Node3 -->
<g id="node3" class="node">
<title>Node3</title>
<g id="a_node3"><a xlink:href="group__counter.html#ga4f1edcd06bf52209d5293e54d0d1beb6" target="_top" xlink:title="Create a timeout object based on embed::counter.">
<polygon fill="white" stroke="black" points="214,-19.5 214,-38.5 329,-38.5 329,-19.5 214,-19.5"/>
<text text-anchor="middle" x="271.5" y="-26.5" font-family="Helvetica,sans-Serif" font-size="10.00">embed::create_timeout</text>
</a>
</g>
</g>
<!-- Node2&#45;&gt;Node3 -->
<g id="edge2" class="edge">
<title>Node2&#45;&gt;Node3</title>
<path fill="none" stroke="midnightblue" d="M178.16,-29C186.22,-29 195.03,-29 203.91,-29"/>
<polygon fill="midnightblue" stroke="midnightblue" points="203.93,-32.5 213.93,-29 203.93,-25.5 203.93,-32.5"/>
</g>
<!-- Node4 -->
<g id="node4" class="node">
<title>Node4</title>
<g id="a_node4"><a xlink:href="group__utility.html#ga61711bf3d8c25b82fb37db4f53426ef0" target="_top" xlink:title="Calculate the number of cycles of this frequency within the time duration. This function is meant for...">
<polygon fill="white" stroke="black" points="374.5,-38.5 374.5,-57.5 471.5,-57.5 471.5,-38.5 374.5,-38.5"/>
<text text-anchor="middle" x="423" y="-45.5" font-family="Helvetica,sans-Serif" font-size="10.00">embed::cycles_per</text>
</a>
</g>
</g>
<!-- Node3&#45;&gt;Node4 -->
<g id="edge3" class="edge">
<title>Node3&#45;&gt;Node4</title>
<path fill="none" stroke="midnightblue" d="M329.02,-36.18C340.53,-37.65 352.66,-39.19 364.21,-40.66"/>
<polygon fill="midnightblue" stroke="midnightblue" points="363.83,-44.14 374.19,-41.92 364.71,-37.19 363.83,-44.14"/>
</g>
<!-- Node7 -->
<g id="node7" class="node">
<title>Node7</title>
<g id="a_node7"><a xlink:href="classembed_1_1counter.html#a02c24fbeaac81ef1030ff8e1a41b0738" target="_top" xlink:title="Get the uptime of the counter since it has started.">
<polygon fill="white" stroke="black" points="365,-0.5 365,-19.5 481,-19.5 481,-0.5 365,-0.5"/>
<text text-anchor="middle" x="423" y="-7.5" font-family="Helvetica,sans-Serif" font-size="10.00">embed::counter::uptime</text>
</a>
</g>
</g>
<!-- Node3&#45;&gt;Node7 -->
<g id="edge7" class="edge">
<title>Node3&#45;&gt;Node7</title>
<path fill="none" stroke="midnightblue" d="M329.02,-21.82C337.46,-20.74 346.23,-19.63 354.86,-18.53"/>
<polygon fill="midnightblue" stroke="midnightblue" points="355.43,-21.99 364.9,-17.26 354.54,-15.05 355.43,-21.99"/>
</g>
<!-- Node5 -->
<g id="node5" class="node">
<title>Node5</title>
<g id="a_node5"><a xlink:href="group__utility.html#ga6f0922a28ac81378eb689b2ab4bc299a" target="_top" xlink:title="Generic absolute value function that works for integer types.">
<polygon fill="white" stroke="black" points="678,-38.5 678,-57.5 794,-57.5 794,-38.5 678,-38.5"/>
<text text-anchor="middle" x="736" y="-45.5" font-family="Helvetica,sans-Serif" font-size="10.00">embed::absolute_value</text>
</a>
</g>
</g>
<!-- Node4&#45;&gt;Node5 -->
<g id="edge4" class="edge">
<title>Node4&#45;&gt;Node5</title>
<path fill="none" stroke="midnightblue" d="M471.57,-48C524.01,-48 608.76,-48 667.92,-48"/>
<polygon fill="midnightblue" stroke="midnightblue" points="667.93,-51.5 677.93,-48 667.93,-44.5 667.93,-51.5"/>
</g>
<!-- Node6 -->
<g id="node6" class="node">
<title>Node6</title>
<g id="a_node6"><a xlink:href="group__utility.html#ga84ea33bb969785c47247cfe0da9aa98e" target="_top" xlink:title="Perform integer division and round the value up if the next decimal place is greater than or equal to...">
<polygon fill="white" stroke="black" points="517,-19.5 517,-38.5 642,-38.5 642,-19.5 517,-19.5"/>
<text text-anchor="middle" x="579.5" y="-26.5" font-family="Helvetica,sans-Serif" font-size="10.00">embed::rounding_division</text>
</a>
</g>
</g>
<!-- Node4&#45;&gt;Node6 -->
<g id="edge5" class="edge">
<title>Node4&#45;&gt;Node6</title>
<path fill="none" stroke="midnightblue" d="M471.62,-42.14C482.77,-40.77 494.89,-39.28 506.84,-37.81"/>
<polygon fill="midnightblue" stroke="midnightblue" points="507.3,-41.28 516.8,-36.59 506.45,-34.33 507.3,-41.28"/>
</g>
<!-- Node6&#45;&gt;Node5 -->
<g id="edge6" class="edge">
<title>Node6&#45;&gt;Node5</title>
<path fill="none" stroke="midnightblue" d="M642.01,-36.56C650.47,-37.61 659.21,-38.68 667.77,-39.73"/>
<polygon fill="midnightblue" stroke="midnightblue" points="667.37,-43.21 677.72,-40.96 668.22,-36.26 667.37,-43.21"/>
</g>
</g>
</svg>
