<?xml version="1.0" encoding="UTF-8" standalone="no"?>
<!DOCTYPE svg PUBLIC "-//W3C//DTD SVG 1.1//EN"
 "http://www.w3.org/Graphics/SVG/1.1/DTD/svg11.dtd">
<!-- Generated by graphviz version 3.0.0 (20220413.0242)
 -->
<!-- Title: embed::delay Pages: 1 -->
<svg width="724pt" height="92pt"
 viewBox="0.00 0.00 724.00 92.23" xmlns="http://www.w3.org/2000/svg" xmlns:xlink="http://www.w3.org/1999/xlink">
<g id="graph0" class="graph" transform="scale(1 1) rotate(0) translate(4 88.23)">
<title>embed::delay</title>
<polygon fill="white" stroke="transparent" points="-4,4 -4,-88.23 720,-88.23 720,4 -4,4"/>
<!-- Node1 -->
<g id="node1" class="node">
<title>Node1</title>
<g id="a_node1"><a xlink:title="Delay execution for a duration of time using a hardware counter.">
<polygon fill="#bfbfbf" stroke="black" points="0,-25.5 0,-44.5 73,-44.5 73,-25.5 0,-25.5"/>
<text text-anchor="middle" x="36.5" y="-32.5" font-family="Helvetica,sans-Serif" font-size="10.00">embed::delay</text>
</a>
</g>
</g>
<!-- Node1&#45;&gt;Node1 -->
<g id="edge8" class="edge">
<title>Node1&#45;&gt;Node1</title>
<path fill="none" stroke="midnightblue" d="M16.46,-44.76C6.72,-53.57 13.39,-63 36.5,-63 51.3,-63 59.36,-59.13 60.68,-54.03"/>
<polygon fill="midnightblue" stroke="midnightblue" points="63.81,-52.46 56.54,-44.76 57.42,-55.31 63.81,-52.46"/>
</g>
<!-- Node2 -->
<g id="node2" class="node">
<title>Node2</title>
<g id="a_node2"><a xlink:href="group__counter.html#ga4f1edcd06bf52209d5293e54d0d1beb6" target="_top" xlink:title="Create a timeout object based on embed::counter.">
<polygon fill="white" stroke="black" points="109,-25.5 109,-44.5 224,-44.5 224,-25.5 109,-25.5"/>
<text text-anchor="middle" x="166.5" y="-32.5" font-family="Helvetica,sans-Serif" font-size="10.00">embed::create_timeout</text>
</a>
</g>
</g>
<!-- Node1&#45;&gt;Node2 -->
<g id="edge1" class="edge">
<title>Node1&#45;&gt;Node2</title>
<path fill="none" stroke="midnightblue" d="M73.16,-35C81.22,-35 90.03,-35 98.91,-35"/>
<polygon fill="midnightblue" stroke="midnightblue" points="98.93,-38.5 108.93,-35 98.93,-31.5 98.93,-38.5"/>
</g>
<!-- Node3 -->
<g id="node3" class="node">
<title>Node3</title>
<g id="a_node3"><a xlink:href="classembed_1_1frequency.html#aa67b1e2379926c43c248b98207ff95a0" target="_top" xlink:title="Calculate the number of cycles of this frequency within the time duration. This function is meant for...">
<polygon fill="white" stroke="black" points="260,-44.5 260,-63.5 403,-63.5 403,-44.5 260,-44.5"/>
<text text-anchor="middle" x="331.5" y="-51.5" font-family="Helvetica,sans-Serif" font-size="10.00">embed::frequency::cycles_per</text>
</a>
</g>
</g>
<!-- Node2&#45;&gt;Node3 -->
<g id="edge2" class="edge">
<title>Node2&#45;&gt;Node3</title>
<path fill="none" stroke="midnightblue" d="M224.05,-41.59C232.38,-42.56 241.09,-43.58 249.79,-44.59"/>
<polygon fill="midnightblue" stroke="midnightblue" points="249.64,-48.1 259.97,-45.78 250.45,-41.14 249.64,-48.1"/>
</g>
<!-- Node7 -->
<g id="node7" class="node">
<title>Node7</title>
<g id="a_node7"><a xlink:href="classembed_1_1counter.html#a02c24fbeaac81ef1030ff8e1a41b0738" target="_top" xlink:title="Get the uptime of the counter since it has started.">
<polygon fill="white" stroke="black" points="273.5,-6.5 273.5,-25.5 389.5,-25.5 389.5,-6.5 273.5,-6.5"/>
<text text-anchor="middle" x="331.5" y="-13.5" font-family="Helvetica,sans-Serif" font-size="10.00">embed::counter::uptime</text>
</a>
</g>
</g>
<!-- Node2&#45;&gt;Node7 -->
<g id="edge7" class="edge">
<title>Node2&#45;&gt;Node7</title>
<path fill="none" stroke="midnightblue" d="M224.05,-28.41C236.68,-26.94 250.18,-25.36 263.2,-23.85"/>
<polygon fill="midnightblue" stroke="midnightblue" points="263.97,-27.28 273.5,-22.64 263.16,-20.33 263.97,-27.28"/>
</g>
<!-- Node4 -->
<g id="node4" class="node">
<title>Node4</title>
<g id="a_node4"><a xlink:href="group__utility.html#ga6f0922a28ac81378eb689b2ab4bc299a" target="_top" xlink:title="Generic absolute value function that works for integer types.">
<polygon fill="white" stroke="black" points="600,-44.5 600,-63.5 716,-63.5 716,-44.5 600,-44.5"/>
<text text-anchor="middle" x="658" y="-51.5" font-family="Helvetica,sans-Serif" font-size="10.00">embed::absolute_value</text>
</a>
</g>
</g>
<!-- Node3&#45;&gt;Node4 -->
<g id="edge3" class="edge">
<title>Node3&#45;&gt;Node4</title>
<path fill="none" stroke="midnightblue" d="M364.78,-63.63C385.72,-69.36 413.72,-76.07 439,-79 494.19,-85.39 508.92,-86.27 564,-79 582.39,-76.57 602.32,-71.55 618.98,-66.64"/>
<polygon fill="midnightblue" stroke="midnightblue" points="620.35,-69.88 628.9,-63.62 618.31,-63.19 620.35,-69.88"/>
</g>
<!-- Node5 -->
<g id="node5" class="node">
<title>Node5</title>
<g id="a_node5"><a xlink:href="classembed_1_1frequency.html#ae253d42390060843082b1ef6c2b300ec" target="_top" xlink:title="Get the frequency as an integer.">
<polygon fill="white" stroke="black" points="439,-39 439,-69 564,-69 564,-39 439,-39"/>
<text text-anchor="start" x="447" y="-57" font-family="Helvetica,sans-Serif" font-size="10.00">embed::frequency::cycles</text>
<text text-anchor="middle" x="501.5" y="-46" font-family="Helvetica,sans-Serif" font-size="10.00">_per_second</text>
</a>
</g>
</g>
<!-- Node3&#45;&gt;Node5 -->
<g id="edge4" class="edge">
<title>Node3&#45;&gt;Node5</title>
<path fill="none" stroke="midnightblue" d="M403.26,-54C411.68,-54 420.27,-54 428.7,-54"/>
<polygon fill="midnightblue" stroke="midnightblue" points="428.88,-57.5 438.88,-54 428.88,-50.5 428.88,-57.5"/>
</g>
<!-- Node6 -->
<g id="node6" class="node">
<title>Node6</title>
<g id="a_node6"><a xlink:href="group__utility.html#ga84ea33bb969785c47247cfe0da9aa98e" target="_top" xlink:title="Perform integer division and round the value up if the next decimal place is greater than or equal to...">
<polygon fill="white" stroke="black" points="439,-0.5 439,-19.5 564,-19.5 564,-0.5 439,-0.5"/>
<text text-anchor="middle" x="501.5" y="-7.5" font-family="Helvetica,sans-Serif" font-size="10.00">embed::rounding_division</text>
</a>
</g>
</g>
<!-- Node3&#45;&gt;Node6 -->
<g id="edge5" class="edge">
<title>Node3&#45;&gt;Node6</title>
<path fill="none" stroke="midnightblue" d="M368.95,-44.45C393.94,-37.91 427.3,-29.17 454.17,-22.13"/>
<polygon fill="midnightblue" stroke="midnightblue" points="455.33,-25.45 464.12,-19.53 453.56,-18.68 455.33,-25.45"/>
</g>
<!-- Node6&#45;&gt;Node4 -->
<g id="edge6" class="edge">
<title>Node6&#45;&gt;Node4</title>
<path fill="none" stroke="midnightblue" d="M536.02,-19.55C558.8,-26.03 589.14,-34.67 613.74,-41.68"/>
<polygon fill="midnightblue" stroke="midnightblue" points="612.96,-45.1 623.54,-44.47 614.88,-38.37 612.96,-45.1"/>
</g>
</g>
</svg>
