<?xml version="1.0" encoding="UTF-8" standalone="no"?>
<!DOCTYPE svg PUBLIC "-//W3C//DTD SVG 1.1//EN"
 "http://www.w3.org/Graphics/SVG/1.1/DTD/svg11.dtd">
<!-- Generated by graphviz version 3.0.0 (20220413.0242)
 -->
<!-- Title: embed::value Pages: 1 -->
<svg width="268pt" height="66pt"
 viewBox="0.00 0.00 268.00 66.00" xmlns="http://www.w3.org/2000/svg" xmlns:xlink="http://www.w3.org/1999/xlink">
<g id="graph0" class="graph" transform="scale(1 1) rotate(0) translate(4 62)">
<title>embed::value</title>
<polygon fill="white" stroke="transparent" points="-4,4 -4,-62 264,-62 264,4 -4,4"/>
<!-- Node1 -->
<g id="node1" class="node">
<title>Node1</title>
<g id="a_node1"><a xlink:title="Helper function to convert an enum to its integral value.">
<polygon fill="#bfbfbf" stroke="black" points="186,-19.5 186,-38.5 260,-38.5 260,-19.5 186,-19.5"/>
<text text-anchor="middle" x="223" y="-26.5" font-family="Helvetica,sans-Serif" font-size="10.00">embed::value</text>
</a>
</g>
</g>
<!-- Node2 -->
<g id="node2" class="node">
<title>Node2</title>
<g id="a_node2"><a xlink:href="namespaceembed_1_1literals.html#a8ff30f018521a0365e263942785e2877" target="_top" xlink:title="user defined literals for making frequencies in the kilohertz.">
<polygon fill="white" stroke="black" points="1.5,-38.5 1.5,-57.5 148.5,-57.5 148.5,-38.5 1.5,-38.5"/>
<text text-anchor="middle" x="75" y="-45.5" font-family="Helvetica,sans-Serif" font-size="10.00">embed::literals::operator&quot;&quot;_kHz</text>
</a>
</g>
</g>
<!-- Node1&#45;&gt;Node2 -->
<g id="edge1" class="edge">
<title>Node1&#45;&gt;Node2</title>
<path fill="none" stroke="midnightblue" d="M175.73,-35.02C167.13,-36.14 157.94,-37.34 148.76,-38.53"/>
<polygon fill="midnightblue" stroke="midnightblue" points="176.45,-38.46 185.91,-33.7 175.54,-31.52 176.45,-38.46"/>
</g>
<!-- Node3 -->
<g id="node3" class="node">
<title>Node3</title>
<g id="a_node3"><a xlink:href="namespaceembed_1_1literals.html#ae39d4e8306f326d1534b89579286ba92" target="_top" xlink:title="user defined literals for making frequencies in the megahertz.">
<polygon fill="white" stroke="black" points="0,-0.5 0,-19.5 150,-19.5 150,-0.5 0,-0.5"/>
<text text-anchor="middle" x="75" y="-7.5" font-family="Helvetica,sans-Serif" font-size="10.00">embed::literals::operator&quot;&quot;_MHz</text>
</a>
</g>
</g>
<!-- Node1&#45;&gt;Node3 -->
<g id="edge2" class="edge">
<title>Node1&#45;&gt;Node3</title>
<path fill="none" stroke="midnightblue" d="M175.81,-22.99C167.27,-21.88 158.16,-20.69 149.05,-19.51"/>
<polygon fill="midnightblue" stroke="midnightblue" points="175.54,-26.48 185.91,-24.3 176.45,-19.54 175.54,-26.48"/>
</g>
</g>
</svg>
