<?xml version="1.0" encoding="UTF-8" standalone="no"?>
<!DOCTYPE svg PUBLIC "-//W3C//DTD SVG 1.1//EN"
 "http://www.w3.org/Graphics/SVG/1.1/DTD/svg11.dtd">
<!-- Generated by graphviz version 3.0.0 (20220413.0242)
 -->
<!-- Title: hal::distance Pages: 1 -->
<svg width="238pt" height="104pt"
 viewBox="0.00 0.00 238.00 104.00" xmlns="http://www.w3.org/2000/svg" xmlns:xlink="http://www.w3.org/1999/xlink">
<g id="graph0" class="graph" transform="scale(1 1) rotate(0) translate(4 100)">
<title>hal::distance</title>
<polygon fill="white" stroke="transparent" points="-4,4 -4,-100 234,-100 234,4 -4,4"/>
<!-- Node1 -->
<g id="node1" class="node">
<title>Node1</title>
<g id="a_node1"><a xlink:title="Calculates the distance between two values (L1 Norm or Manhattan distance), the absolute value of the...">
<polygon fill="#bfbfbf" stroke="black" points="159,-38.5 159,-57.5 230,-57.5 230,-38.5 159,-38.5"/>
<text text-anchor="middle" x="194.5" y="-45.5" font-family="Helvetica,sans-Serif" font-size="10.00">hal::distance</text>
</a>
</g>
</g>
<!-- Node2 -->
<g id="node2" class="node">
<title>Node2</title>
<g id="a_node2"><a xlink:href="group__utility.html#ga9e1226abcb21d4e0913fcf78bad9f1c8" target="_top" xlink:title="Calculate divider for the closest resulting frequency to target.">
<polygon fill="white" stroke="black" points="29,-76.5 29,-95.5 94,-95.5 94,-76.5 29,-76.5"/>
<text text-anchor="middle" x="61.5" y="-83.5" font-family="Helvetica,sans-Serif" font-size="10.00">hal::closest</text>
</a>
</g>
</g>
<!-- Node1&#45;&gt;Node2 -->
<g id="edge1" class="edge">
<title>Node1&#45;&gt;Node2</title>
<path fill="none" stroke="midnightblue" d="M150.81,-60.38C132.38,-65.73 111.19,-71.88 94.19,-76.81"/>
<polygon fill="midnightblue" stroke="midnightblue" points="151.81,-63.74 160.44,-57.59 149.86,-57.01 151.81,-63.74"/>
</g>
<!-- Node3 -->
<g id="node3" class="node">
<title>Node3</title>
<g id="a_node3"><a xlink:href="structhal_1_1map__range.html#a6c1b791227339a4dd70aeb54b979b0a9" target="_top" xlink:title=" ">
<polygon fill="white" stroke="black" points="0,-38.5 0,-57.5 123,-57.5 123,-38.5 0,-38.5"/>
<text text-anchor="middle" x="61.5" y="-45.5" font-family="Helvetica,sans-Serif" font-size="10.00">hal::map_range::distance</text>
</a>
</g>
</g>
<!-- Node1&#45;&gt;Node3 -->
<g id="edge2" class="edge">
<title>Node1&#45;&gt;Node3</title>
<path fill="none" stroke="midnightblue" d="M148.6,-48C140.36,-48 131.63,-48 123.01,-48"/>
<polygon fill="midnightblue" stroke="midnightblue" points="148.74,-51.5 158.74,-48 148.74,-44.5 148.74,-51.5"/>
</g>
<!-- Node4 -->
<g id="node4" class="node">
<title>Node4</title>
<g id="a_node4"><a xlink:href="classhal_1_1percent.html#ac5595537118024b5502ab6b8891a7be4" target="_top" xlink:title="Comparison operator.">
<polygon fill="white" stroke="black" points="2.5,-0.5 2.5,-19.5 120.5,-19.5 120.5,-0.5 2.5,-0.5"/>
<text text-anchor="middle" x="61.5" y="-7.5" font-family="Helvetica,sans-Serif" font-size="10.00">hal::percent::operator==</text>
</a>
</g>
</g>
<!-- Node1&#45;&gt;Node4 -->
<g id="edge3" class="edge">
<title>Node1&#45;&gt;Node4</title>
<path fill="none" stroke="midnightblue" d="M150.79,-35.61C132.85,-30.41 112.3,-24.45 95.55,-19.59"/>
<polygon fill="midnightblue" stroke="midnightblue" points="149.86,-38.99 160.44,-38.41 151.81,-32.26 149.86,-38.99"/>
</g>
</g>
</svg>
