<?xml version="1.0" encoding="UTF-8" standalone="no"?>
<!DOCTYPE svg PUBLIC "-//W3C//DTD SVG 1.1//EN"
 "http://www.w3.org/Graphics/SVG/1.1/DTD/svg11.dtd">
<!-- Generated by graphviz version 3.0.0 (20220413.0242)
 -->
<!-- Title: hal::read Pages: 1 -->
<svg width="847pt" height="172pt"
 viewBox="0.00 0.00 847.00 171.50" xmlns="http://www.w3.org/2000/svg" xmlns:xlink="http://www.w3.org/1999/xlink">
<g id="graph0" class="graph" transform="scale(1 1) rotate(0) translate(4 167.5)">
<title>hal::read</title>
<polygon fill="white" stroke="transparent" points="-4,4 -4,-167.5 843,-167.5 843,4 -4,4"/>
<!-- Node1 -->
<g id="node1" class="node">
<title>Node1</title>
<g id="a_node1"><a xlink:title="Read bytes from a serial port and return an array.">
<polygon fill="#bfbfbf" stroke="black" points="0,-25.5 0,-44.5 53,-44.5 53,-25.5 0,-25.5"/>
<text text-anchor="middle" x="26.5" y="-32.5" font-family="Helvetica,sans-Serif" font-size="10.00">hal::read</text>
</a>
</g>
</g>
<!-- Node2 -->
<g id="node2" class="node">
<title>Node2</title>
<g id="a_node2"><a xlink:href="group__counter.html#ga8b4d520b8fbf98436b255041f73b9a8d" target="_top" xlink:title="Delay execution for a duration of time using a hardware counter.">
<polygon fill="white" stroke="black" points="89,-25.5 89,-44.5 145,-44.5 145,-25.5 89,-25.5"/>
<text text-anchor="middle" x="117" y="-32.5" font-family="Helvetica,sans-Serif" font-size="10.00">hal::delay</text>
</a>
</g>
</g>
<!-- Node1&#45;&gt;Node2 -->
<g id="edge1" class="edge">
<title>Node1&#45;&gt;Node2</title>
<path fill="none" stroke="midnightblue" d="M53.1,-35C61.08,-35 70.06,-35 78.68,-35"/>
<polygon fill="midnightblue" stroke="midnightblue" points="78.92,-38.5 88.92,-35 78.92,-31.5 78.92,-38.5"/>
</g>
<!-- Node2&#45;&gt;Node2 -->
<g id="edge12" class="edge">
<title>Node2&#45;&gt;Node2</title>
<path fill="none" stroke="midnightblue" d="M103.13,-44.76C96.38,-53.57 101,-63 117,-63 127,-63 132.55,-59.31 133.67,-54.4"/>
<polygon fill="midnightblue" stroke="midnightblue" points="137.02,-53.39 130.87,-44.76 130.29,-55.34 137.02,-53.39"/>
</g>
<!-- Node3 -->
<g id="node3" class="node">
<title>Node3</title>
<g id="a_node3"><a xlink:href="group__counter.html#ga0f73c780e3eb7b86be65a1746ccc1c95" target="_top" xlink:title="Create a timeout object based on hal::counter.">
<polygon fill="white" stroke="black" points="181,-47.5 181,-66.5 279,-66.5 279,-47.5 181,-47.5"/>
<text text-anchor="middle" x="230" y="-54.5" font-family="Helvetica,sans-Serif" font-size="10.00">hal::create_timeout</text>
</a>
</g>
</g>
<!-- Node2&#45;&gt;Node3 -->
<g id="edge2" class="edge">
<title>Node2&#45;&gt;Node3</title>
<path fill="none" stroke="midnightblue" d="M145.15,-40.38C153.07,-41.95 162.04,-43.73 171.1,-45.52"/>
<polygon fill="midnightblue" stroke="midnightblue" points="170.42,-48.96 180.91,-47.47 171.79,-42.09 170.42,-48.96"/>
</g>
<!-- Node9 -->
<g id="node9" class="node">
<title>Node9</title>
<g id="a_node9"><a xlink:href="namespacehal.html#a09499a696428213091b196699563099f" target="_top" xlink:title=" ">
<polygon fill="white" stroke="black" points="468.5,-0.5 468.5,-19.5 545.5,-19.5 545.5,-0.5 468.5,-0.5"/>
<text text-anchor="middle" x="507" y="-7.5" font-family="Helvetica,sans-Serif" font-size="10.00">hal::new_error</text>
</a>
</g>
</g>
<!-- Node2&#45;&gt;Node9 -->
<g id="edge13" class="edge">
<title>Node2&#45;&gt;Node9</title>
<path fill="none" stroke="midnightblue" d="M145.28,-33.24C210.54,-29.04 376.3,-18.36 458.42,-13.07"/>
<polygon fill="midnightblue" stroke="midnightblue" points="458.72,-16.55 468.48,-12.42 458.27,-9.57 458.72,-16.55"/>
</g>
<!-- Node4 -->
<g id="node4" class="node">
<title>Node4</title>
<g id="a_node4"><a xlink:href="classhal_1_1counter__timeout.html#aca5b940f8e89106b393fb34cb61aff14" target="_top" xlink:title="Create a counter_timeout.">
<polygon fill="white" stroke="black" points="315,-51 315,-81 419,-81 419,-51 315,-51"/>
<text text-anchor="start" x="323" y="-69" font-family="Helvetica,sans-Serif" font-size="10.00">hal::counter_timeout</text>
<text text-anchor="middle" x="367" y="-58" font-family="Helvetica,sans-Serif" font-size="10.00">::create</text>
</a>
</g>
</g>
<!-- Node3&#45;&gt;Node4 -->
<g id="edge3" class="edge">
<title>Node3&#45;&gt;Node4</title>
<path fill="none" stroke="midnightblue" d="M279.36,-60.22C287.53,-60.77 296.12,-61.34 304.57,-61.9"/>
<polygon fill="midnightblue" stroke="midnightblue" points="304.58,-65.41 314.79,-62.59 305.04,-58.43 304.58,-65.41"/>
</g>
<!-- Node5 -->
<g id="node5" class="node">
<title>Node5</title>
<g id="a_node5"><a xlink:href="classhal_1_1counter__timeout.html#ae543adb6965def1209baf5a2f91cd692" target="_top" xlink:title="Construct a new counter timeout object.">
<polygon fill="white" stroke="black" points="455,-133 455,-163 559,-163 559,-133 455,-133"/>
<text text-anchor="start" x="463" y="-151" font-family="Helvetica,sans-Serif" font-size="10.00">hal::counter_timeout</text>
<text text-anchor="middle" x="507" y="-140" font-family="Helvetica,sans-Serif" font-size="10.00">::counter_timeout</text>
</a>
</g>
</g>
<!-- Node4&#45;&gt;Node5 -->
<g id="edge4" class="edge">
<title>Node4&#45;&gt;Node5</title>
<path fill="none" stroke="midnightblue" d="M389.34,-81.05C406.67,-93.02 431.94,-109.86 455,-123 458.19,-124.82 461.52,-126.63 464.9,-128.41"/>
<polygon fill="midnightblue" stroke="midnightblue" points="463.36,-131.55 473.85,-133 466.55,-125.32 463.36,-131.55"/>
</g>
<!-- Node6 -->
<g id="node6" class="node">
<title>Node6</title>
<g id="a_node6"><a xlink:href="group__utility.html#ga9f67c4dbb94efa24f2d8852bf6e424cc" target="_top" xlink:title="Calculate the number of cycles of this frequency within the time duration. This function is meant for...">
<polygon fill="white" stroke="black" points="467,-94.5 467,-113.5 547,-113.5 547,-94.5 467,-94.5"/>
<text text-anchor="middle" x="507" y="-101.5" font-family="Helvetica,sans-Serif" font-size="10.00">hal::cycles_per</text>
</a>
</g>
</g>
<!-- Node4&#45;&gt;Node6 -->
<g id="edge5" class="edge">
<title>Node4&#45;&gt;Node6</title>
<path fill="none" stroke="midnightblue" d="M419.39,-80.15C433.19,-83.95 448,-88.03 461.39,-91.72"/>
<polygon fill="midnightblue" stroke="midnightblue" points="460.76,-95.17 471.33,-94.45 462.62,-88.42 460.76,-95.17"/>
</g>
<!-- Node4&#45;&gt;Node9 -->
<g id="edge9" class="edge">
<title>Node4&#45;&gt;Node9</title>
<path fill="none" stroke="midnightblue" d="M404.98,-50.99C426.11,-42.42 452.39,-31.75 472.85,-23.45"/>
<polygon fill="midnightblue" stroke="midnightblue" points="474.43,-26.59 482.38,-19.58 471.8,-20.1 474.43,-26.59"/>
</g>
<!-- Node10 -->
<g id="node10" class="node">
<title>Node10</title>
<g id="a_node10"><a xlink:href="classhal_1_1counter.html#a1b99ef1f3847e5f24e2cb69e5988e54f" target="_top" xlink:title="Get the uptime of the counter since it has started.">
<polygon fill="white" stroke="black" points="457,-56.5 457,-75.5 557,-75.5 557,-56.5 457,-56.5"/>
<text text-anchor="middle" x="507" y="-63.5" font-family="Helvetica,sans-Serif" font-size="10.00">hal::counter::uptime</text>
</a>
</g>
</g>
<!-- Node4&#45;&gt;Node10 -->
<g id="edge11" class="edge">
<title>Node4&#45;&gt;Node10</title>
<path fill="none" stroke="midnightblue" d="M419.39,-66C428.29,-66 437.62,-66 446.72,-66"/>
<polygon fill="midnightblue" stroke="midnightblue" points="446.86,-69.5 456.86,-66 446.86,-62.5 446.86,-69.5"/>
</g>
<!-- Node7 -->
<g id="node7" class="node">
<title>Node7</title>
<g id="a_node7"><a xlink:href="group__utility.html#gaac86abb9a38f4962ded5507e15dca4b9" target="_top" xlink:title="Generic absolute value function that works for integer types.">
<polygon fill="white" stroke="black" points="740,-94.5 740,-113.5 839,-113.5 839,-94.5 740,-94.5"/>
<text text-anchor="middle" x="789.5" y="-101.5" font-family="Helvetica,sans-Serif" font-size="10.00">hal::absolute_value</text>
</a>
</g>
</g>
<!-- Node6&#45;&gt;Node7 -->
<g id="edge6" class="edge">
<title>Node6&#45;&gt;Node7</title>
<path fill="none" stroke="midnightblue" d="M547,-104C594.38,-104 674.76,-104 729.67,-104"/>
<polygon fill="midnightblue" stroke="midnightblue" points="729.95,-107.5 739.95,-104 729.95,-100.5 729.95,-107.5"/>
</g>
<!-- Node8 -->
<g id="node8" class="node">
<title>Node8</title>
<g id="a_node8"><a xlink:href="group__utility.html#ga58a3550a3236310f20b92eacf593c2f0" target="_top" xlink:title="Perform integer division and round the value up if the next decimal place is greater than or equal to...">
<polygon fill="white" stroke="black" points="595,-75.5 595,-94.5 704,-94.5 704,-75.5 595,-75.5"/>
<text text-anchor="middle" x="649.5" y="-82.5" font-family="Helvetica,sans-Serif" font-size="10.00">hal::rounding_division</text>
</a>
</g>
</g>
<!-- Node6&#45;&gt;Node8 -->
<g id="edge7" class="edge">
<title>Node6&#45;&gt;Node8</title>
<path fill="none" stroke="midnightblue" d="M547.14,-98.71C558.8,-97.13 571.89,-95.36 584.7,-93.63"/>
<polygon fill="midnightblue" stroke="midnightblue" points="585.43,-97.06 594.87,-92.25 584.49,-90.12 585.43,-97.06"/>
</g>
<!-- Node8&#45;&gt;Node7 -->
<g id="edge8" class="edge">
<title>Node8&#45;&gt;Node7</title>
<path fill="none" stroke="midnightblue" d="M704.25,-92.4C712.54,-93.54 721.13,-94.72 729.52,-95.88"/>
<polygon fill="midnightblue" stroke="midnightblue" points="729.24,-99.37 739.62,-97.27 730.2,-92.44 729.24,-99.37"/>
</g>
<!-- Node9&#45;&gt;Node9 -->
<g id="edge10" class="edge">
<title>Node9&#45;&gt;Node9</title>
<path fill="none" stroke="midnightblue" d="M485.42,-19.76C474.92,-28.57 482.12,-38 507,-38 522.94,-38 531.62,-34.13 533.04,-29.03"/>
<polygon fill="midnightblue" stroke="midnightblue" points="536.07,-27.25 528.58,-19.76 529.76,-30.29 536.07,-27.25"/>
</g>
</g>
</svg>
