<?xml version="1.0" encoding="UTF-8" standalone="no"?>
<!DOCTYPE svg PUBLIC "-//W3C//DTD SVG 1.1//EN"
 "http://www.w3.org/Graphics/SVG/1.1/DTD/svg11.dtd">
<!-- Generated by graphviz version 3.0.0 (20220413.0242)
 -->
<!-- Title: embed::absolute_value Pages: 1 -->
<svg width="952pt" height="296pt"
 viewBox="0.00 0.00 952.00 295.50" xmlns="http://www.w3.org/2000/svg" xmlns:xlink="http://www.w3.org/1999/xlink">
<g id="graph0" class="graph" transform="scale(1 1) rotate(0) translate(4 291.5)">
<title>embed::absolute_value</title>
<polygon fill="white" stroke="transparent" points="-4,4 -4,-291.5 948,-291.5 948,4 -4,4"/>
<!-- Node1 -->
<g id="node1" class="node">
<title>Node1</title>
<g id="a_node1"><a xlink:title="Generic absolute value function that works for integer types.">
<polygon fill="#bfbfbf" stroke="black" points="828,-139.5 828,-158.5 944,-158.5 944,-139.5 828,-139.5"/>
<text text-anchor="middle" x="886" y="-146.5" font-family="Helvetica,sans-Serif" font-size="10.00">embed::absolute_value</text>
</a>
</g>
</g>
<!-- Node2 -->
<g id="node2" class="node">
<title>Node2</title>
<g id="a_node2"><a xlink:href="group__utility.html#ga61711bf3d8c25b82fb37db4f53426ef0" target="_top" xlink:title="Calculate the number of cycles of this frequency within the time duration. This function is meant for...">
<polygon fill="white" stroke="black" points="527.5,-213.5 527.5,-232.5 624.5,-232.5 624.5,-213.5 527.5,-213.5"/>
<text text-anchor="middle" x="576" y="-220.5" font-family="Helvetica,sans-Serif" font-size="10.00">embed::cycles_per</text>
</a>
</g>
</g>
<!-- Node1&#45;&gt;Node2 -->
<g id="edge1" class="edge">
<title>Node1&#45;&gt;Node2</title>
<path fill="none" stroke="midnightblue" d="M835.62,-160.86C774.9,-175.45 673.02,-199.93 616.97,-213.4"/>
<polygon fill="midnightblue" stroke="midnightblue" points="836.46,-164.26 845.36,-158.52 834.82,-157.46 836.46,-164.26"/>
</g>
<!-- Node8 -->
<g id="node8" class="node">
<title>Node8</title>
<g id="a_node8"><a xlink:href="group__utility.html#ga84ea33bb969785c47247cfe0da9aa98e" target="_top" xlink:title="Perform integer division and round the value up if the next decimal place is greater than or equal to...">
<polygon fill="white" stroke="black" points="667,-120.5 667,-139.5 792,-139.5 792,-120.5 667,-120.5"/>
<text text-anchor="middle" x="729.5" y="-127.5" font-family="Helvetica,sans-Serif" font-size="10.00">embed::rounding_division</text>
</a>
</g>
</g>
<!-- Node1&#45;&gt;Node8 -->
<g id="edge8" class="edge">
<title>Node1&#45;&gt;Node8</title>
<path fill="none" stroke="midnightblue" d="M817.91,-140.75C809.31,-139.69 800.54,-138.61 792.03,-137.57"/>
<polygon fill="midnightblue" stroke="midnightblue" points="817.56,-144.23 827.91,-141.98 818.41,-137.28 817.56,-144.23"/>
</g>
<!-- Node3 -->
<g id="node3" class="node">
<title>Node3</title>
<g id="a_node3"><a xlink:href="group__utility.html#gaa1a076554c019239de0fb3e3fb4edcf2" target="_top" xlink:title="Calculate a duty cycle based on a source frequency, target wavelength and a percentage.">
<polygon fill="white" stroke="black" points="368.5,-257 368.5,-287 481.5,-287 481.5,-257 368.5,-257"/>
<text text-anchor="start" x="376.5" y="-275" font-family="Helvetica,sans-Serif" font-size="10.00">embed::calculate_duty</text>
<text text-anchor="middle" x="425" y="-264" font-family="Helvetica,sans-Serif" font-size="10.00">_cycle</text>
</a>
</g>
</g>
<!-- Node2&#45;&gt;Node3 -->
<g id="edge2" class="edge">
<title>Node2&#45;&gt;Node3</title>
<path fill="none" stroke="midnightblue" d="M536.32,-235.72C516.56,-242.22 492.4,-250.16 471.72,-256.96"/>
<polygon fill="midnightblue" stroke="midnightblue" points="537.51,-239.01 545.92,-232.56 535.32,-232.36 537.51,-239.01"/>
</g>
<!-- Node4 -->
<g id="node4" class="node">
<title>Node4</title>
<g id="a_node4"><a xlink:href="classembed_1_1counter__timeout.html#aa5741370521bba1742b8d4080f26ac0d" target="_top" xlink:title="Create a counter_timeout.">
<polygon fill="white" stroke="black" points="365,-208 365,-238 485,-238 485,-208 365,-208"/>
<text text-anchor="start" x="373" y="-226" font-family="Helvetica,sans-Serif" font-size="10.00">embed::counter_timeout</text>
<text text-anchor="middle" x="425" y="-215" font-family="Helvetica,sans-Serif" font-size="10.00">::create</text>
</a>
</g>
</g>
<!-- Node2&#45;&gt;Node4 -->
<g id="edge3" class="edge">
<title>Node2&#45;&gt;Node4</title>
<path fill="none" stroke="midnightblue" d="M517.13,-223C506.63,-223 495.66,-223 485.13,-223"/>
<polygon fill="midnightblue" stroke="midnightblue" points="517.45,-226.5 527.45,-223 517.45,-219.5 517.45,-226.5"/>
</g>
<!-- Node5 -->
<g id="node5" class="node">
<title>Node5</title>
<g id="a_node5"><a xlink:href="group__counter.html#ga4f1edcd06bf52209d5293e54d0d1beb6" target="_top" xlink:title="Create a timeout object based on embed::counter.">
<polygon fill="white" stroke="black" points="214,-213.5 214,-232.5 329,-232.5 329,-213.5 214,-213.5"/>
<text text-anchor="middle" x="271.5" y="-220.5" font-family="Helvetica,sans-Serif" font-size="10.00">embed::create_timeout</text>
</a>
</g>
</g>
<!-- Node4&#45;&gt;Node5 -->
<g id="edge4" class="edge">
<title>Node4&#45;&gt;Node5</title>
<path fill="none" stroke="midnightblue" d="M354.93,-223C346.29,-223 337.53,-223 329.11,-223"/>
<polygon fill="midnightblue" stroke="midnightblue" points="354.99,-226.5 364.99,-223 354.99,-219.5 354.99,-226.5"/>
</g>
<!-- Node6 -->
<g id="node6" class="node">
<title>Node6</title>
<g id="a_node6"><a xlink:href="group__counter.html#ga53e2d568aa13881c4213fe89a2e1c42e" target="_top" xlink:title="Delay execution for a duration of time using a hardware counter.">
<polygon fill="white" stroke="black" points="105,-213.5 105,-232.5 178,-232.5 178,-213.5 105,-213.5"/>
<text text-anchor="middle" x="141.5" y="-220.5" font-family="Helvetica,sans-Serif" font-size="10.00">embed::delay</text>
</a>
</g>
</g>
<!-- Node5&#45;&gt;Node6 -->
<g id="edge5" class="edge">
<title>Node5&#45;&gt;Node6</title>
<path fill="none" stroke="midnightblue" d="M203.94,-223C195.04,-223 186.2,-223 178.12,-223"/>
<polygon fill="midnightblue" stroke="midnightblue" points="203.98,-226.5 213.98,-223 203.98,-219.5 203.98,-226.5"/>
</g>
<!-- Node6&#45;&gt;Node6 -->
<g id="edge6" class="edge">
<title>Node6&#45;&gt;Node6</title>
<path fill="none" stroke="midnightblue" d="M161.13,-242.4C159.82,-247.31 153.27,-251 141.5,-251 122.66,-251 117.21,-241.57 125.16,-232.76"/>
<polygon fill="midnightblue" stroke="midnightblue" points="164.38,-241.09 157.84,-232.76 157.76,-243.35 164.38,-241.09"/>
</g>
<!-- Node7 -->
<g id="node7" class="node">
<title>Node7</title>
<g id="a_node7"><a xlink:href="group__serial.html#ga56439487351e68f734fdf9b6330da4d2" target="_top" xlink:title="Read bytes from a serial port.">
<polygon fill="white" stroke="black" points="0,-213.5 0,-232.5 69,-232.5 69,-213.5 0,-213.5"/>
<text text-anchor="middle" x="34.5" y="-220.5" font-family="Helvetica,sans-Serif" font-size="10.00">embed::read</text>
</a>
</g>
</g>
<!-- Node6&#45;&gt;Node7 -->
<g id="edge7" class="edge">
<title>Node6&#45;&gt;Node7</title>
<path fill="none" stroke="midnightblue" d="M94.7,-223C86.14,-223 77.35,-223 69.24,-223"/>
<polygon fill="midnightblue" stroke="midnightblue" points="94.95,-226.5 104.95,-223 94.95,-219.5 94.95,-226.5"/>
</g>
<!-- Node8&#45;&gt;Node2 -->
<g id="edge9" class="edge">
<title>Node8&#45;&gt;Node2</title>
<path fill="none" stroke="midnightblue" d="M708.68,-146.21C685.13,-165.26 647,-195.39 631,-204 624.26,-207.63 616.69,-210.79 609.4,-213.44"/>
<polygon fill="midnightblue" stroke="midnightblue" points="711.08,-148.77 716.63,-139.75 706.67,-143.34 711.08,-148.77"/>
</g>
<!-- Node9 -->
<g id="node9" class="node">
<title>Node9</title>
<g id="a_node9"><a xlink:href="group__utility.html#ga19bf555b8e14f12184073b07791fd56b" target="_top" xlink:title="Calculate the amount of time it takes a frequency to oscillate a number of cycles.">
<polygon fill="white" stroke="black" points="521,-164 521,-194 631,-194 631,-164 521,-164"/>
<text text-anchor="start" x="529" y="-182" font-family="Helvetica,sans-Serif" font-size="10.00">embed::duration_from</text>
<text text-anchor="middle" x="576" y="-171" font-family="Helvetica,sans-Serif" font-size="10.00">_cycles</text>
</a>
</g>
</g>
<!-- Node8&#45;&gt;Node9 -->
<g id="edge10" class="edge">
<title>Node8&#45;&gt;Node9</title>
<path fill="none" stroke="midnightblue" d="M689.17,-142.72C669.08,-149.22 644.51,-157.16 623.49,-163.96"/>
<polygon fill="midnightblue" stroke="midnightblue" points="690.49,-145.97 698.93,-139.56 688.34,-139.31 690.49,-145.97"/>
</g>
<!-- Node10 -->
<g id="node10" class="node">
<title>Node10</title>
<g id="a_node10"><a xlink:href="classembed_1_1percent.html#a3031fcd41ebdbc14fe77114d239c0b27" target="_top" xlink:title="Generate a percentage based on input relative to the maximum possible value.">
<polygon fill="white" stroke="black" points="522.5,-115 522.5,-145 629.5,-145 629.5,-115 522.5,-115"/>
<text text-anchor="start" x="530.5" y="-133" font-family="Helvetica,sans-Serif" font-size="10.00">embed::percent::from</text>
<text text-anchor="middle" x="576" y="-122" font-family="Helvetica,sans-Serif" font-size="10.00">_ratio</text>
</a>
</g>
</g>
<!-- Node8&#45;&gt;Node10 -->
<g id="edge11" class="edge">
<title>Node8&#45;&gt;Node10</title>
<path fill="none" stroke="midnightblue" d="M656.71,-130C647.65,-130 638.52,-130 629.83,-130"/>
<polygon fill="midnightblue" stroke="midnightblue" points="656.88,-133.5 666.88,-130 656.88,-126.5 656.88,-133.5"/>
</g>
<!-- Node14 -->
<g id="node14" class="node">
<title>Node14</title>
<g id="a_node14"><a xlink:href="classembed_1_1percent.html#afa379fbbb92bc5dc22f0dce8bcf7ea1b" target="_top" xlink:title="Get the percent after it is scaled to a range. The output percent is bound within the given range....">
<polygon fill="white" stroke="black" points="370,-43.5 370,-62.5 480,-62.5 480,-43.5 370,-43.5"/>
<text text-anchor="middle" x="425" y="-50.5" font-family="Helvetica,sans-Serif" font-size="10.00">embed::percent::scale</text>
</a>
</g>
</g>
<!-- Node8&#45;&gt;Node14 -->
<g id="edge17" class="edge">
<title>Node8&#45;&gt;Node14</title>
<path fill="none" stroke="midnightblue" d="M681.13,-117.94C621.1,-102.66 518.85,-76.63 463.79,-62.62"/>
<polygon fill="midnightblue" stroke="midnightblue" points="680.55,-121.41 691.1,-120.48 682.28,-114.62 680.55,-121.41"/>
</g>
<!-- Node15 -->
<g id="node15" class="node">
<title>Node15</title>
<g id="a_node15"><a xlink:href="group__utility.html#gaae7b07b6a4aaa1b6342b676f9b864372" target="_top" xlink:title="Scale down a frequency by an integer factor.">
<polygon fill="white" stroke="black" points="531.5,-38.5 531.5,-57.5 620.5,-57.5 620.5,-38.5 531.5,-38.5"/>
<text text-anchor="middle" x="576" y="-45.5" font-family="Helvetica,sans-Serif" font-size="10.00">embed::operator/</text>
</a>
</g>
</g>
<!-- Node8&#45;&gt;Node15 -->
<g id="edge16" class="edge">
<title>Node8&#45;&gt;Node15</title>
<path fill="none" stroke="midnightblue" d="M705.1,-115.01C685.62,-102.8 656.97,-85.44 631,-72 621.07,-66.86 609.8,-61.75 600.14,-57.57"/>
<polygon fill="midnightblue" stroke="midnightblue" points="703.29,-118.01 713.62,-120.39 707.03,-112.09 703.29,-118.01"/>
</g>
<!-- Node16 -->
<g id="node16" class="node">
<title>Node16</title>
<g id="a_node16"><a xlink:href="group__utility.html#ga595b4275cff4d56d9d6226568c7c9809" target="_top" xlink:title="Calculates and returns the wavelength in seconds.">
<polygon fill="white" stroke="black" points="526,-0.5 526,-19.5 626,-19.5 626,-0.5 526,-0.5"/>
<text text-anchor="middle" x="576" y="-7.5" font-family="Helvetica,sans-Serif" font-size="10.00">embed::wavelength</text>
</a>
</g>
</g>
<!-- Node8&#45;&gt;Node16 -->
<g id="edge18" class="edge">
<title>Node8&#45;&gt;Node16</title>
<path fill="none" stroke="midnightblue" d="M715.37,-111.93C698.26,-89.57 666.33,-51.68 631,-29 625.15,-25.24 618.46,-22.12 611.82,-19.56"/>
<polygon fill="midnightblue" stroke="midnightblue" points="712.77,-114.3 721.57,-120.21 718.38,-110.11 712.77,-114.3"/>
</g>
<!-- Node11 -->
<g id="node11" class="node">
<title>Node11</title>
<g id="a_node11"><a xlink:href="classembed_1_1rc__servo.html#a026639b8cea2066eb30b175a5bb4c3d0" target="_top" xlink:title="Factory function to create a rc_servo object.">
<polygon fill="white" stroke="black" points="365.5,-169.5 365.5,-188.5 484.5,-188.5 484.5,-169.5 365.5,-169.5"/>
<text text-anchor="middle" x="425" y="-176.5" font-family="Helvetica,sans-Serif" font-size="10.00">embed::rc_servo::create</text>
</a>
</g>
</g>
<!-- Node10&#45;&gt;Node11 -->
<g id="edge12" class="edge">
<title>Node10&#45;&gt;Node11</title>
<path fill="none" stroke="midnightblue" d="M520.51,-148.26C508.8,-152.16 496.49,-156.23 485,-160 475.49,-163.12 465.1,-166.48 455.73,-169.49"/>
<polygon fill="midnightblue" stroke="midnightblue" points="521.79,-151.53 530.17,-145.04 519.57,-144.89 521.79,-151.53"/>
</g>
<!-- Node12 -->
<g id="node12" class="node">
<title>Node12</title>
<g id="a_node12"><a xlink:href="group__utility.html#gafa1bc584612147c23f340cfd2786199c" target="_top" xlink:title="Map an target value [x] from an input range [a,b] to an output range [c,d].">
<polygon fill="white" stroke="black" points="390.5,-131.5 390.5,-150.5 459.5,-150.5 459.5,-131.5 390.5,-131.5"/>
<text text-anchor="middle" x="425" y="-138.5" font-family="Helvetica,sans-Serif" font-size="10.00">embed::map</text>
</a>
</g>
</g>
<!-- Node10&#45;&gt;Node12 -->
<g id="edge13" class="edge">
<title>Node10&#45;&gt;Node12</title>
<path fill="none" stroke="midnightblue" d="M512.32,-134.63C494.35,-135.95 475.45,-137.35 459.92,-138.5"/>
<polygon fill="midnightblue" stroke="midnightblue" points="512.75,-138.11 522.47,-133.88 512.24,-131.12 512.75,-138.11"/>
</g>
<!-- Node13 -->
<g id="node13" class="node">
<title>Node13</title>
<g id="a_node13"><a xlink:href="structembed_1_1duty__cycle.html#ae3211da17ad871387109a5d901a18183" target="_top" xlink:title="Conversion from duty cycle to percentage.">
<polygon fill="white" stroke="black" points="374.5,-82 374.5,-112 475.5,-112 475.5,-82 374.5,-82"/>
<text text-anchor="start" x="382.5" y="-100" font-family="Helvetica,sans-Serif" font-size="10.00">embed::duty_cycle::</text>
<text text-anchor="middle" x="425" y="-89" font-family="Helvetica,sans-Serif" font-size="10.00">operator percent</text>
</a>
</g>
</g>
<!-- Node10&#45;&gt;Node13 -->
<g id="edge14" class="edge">
<title>Node10&#45;&gt;Node13</title>
<path fill="none" stroke="midnightblue" d="M512.67,-116.19C500.29,-113.45 487.45,-110.61 475.56,-107.98"/>
<polygon fill="midnightblue" stroke="midnightblue" points="511.95,-119.62 522.47,-118.37 513.46,-112.79 511.95,-119.62"/>
</g>
<!-- Node10&#45;&gt;Node14 -->
<g id="edge15" class="edge">
<title>Node10&#45;&gt;Node14</title>
<path fill="none" stroke="midnightblue" d="M536.9,-109.81C531.48,-106.65 526.04,-103.33 521,-100 504.09,-88.82 502.92,-81.47 485,-72 477.96,-68.28 470.06,-65.12 462.39,-62.51"/>
<polygon fill="midnightblue" stroke="midnightblue" points="535.5,-113.03 545.93,-114.92 538.95,-106.94 535.5,-113.03"/>
</g>
</g>
</svg>
