<?xml version="1.0" encoding="UTF-8" standalone="no"?>
<!DOCTYPE svg PUBLIC "-//W3C//DTD SVG 1.1//EN"
 "http://www.w3.org/Graphics/SVG/1.1/DTD/svg11.dtd">
<!-- Generated by graphviz version 3.0.0 (20220413.0242)
 -->
<!-- Title: embed::read Pages: 1 -->
<svg width="986pt" height="116pt"
 viewBox="0.00 0.00 986.00 115.50" xmlns="http://www.w3.org/2000/svg" xmlns:xlink="http://www.w3.org/1999/xlink">
<g id="graph0" class="graph" transform="scale(1 1) rotate(0) translate(4 111.5)">
<title>embed::read</title>
<polygon fill="white" stroke="transparent" points="-4,4 -4,-111.5 982,-111.5 982,4 -4,4"/>
<!-- Node1 -->
<g id="node1" class="node">
<title>Node1</title>
<g id="a_node1"><a xlink:title="Read bytes from a serial port.">
<polygon fill="#bfbfbf" stroke="black" points="0,-19.5 0,-38.5 69,-38.5 69,-19.5 0,-19.5"/>
<text text-anchor="middle" x="34.5" y="-26.5" font-family="Helvetica,sans-Serif" font-size="10.00">embed::read</text>
</a>
</g>
</g>
<!-- Node2 -->
<g id="node2" class="node">
<title>Node2</title>
<g id="a_node2"><a xlink:href="group__counter.html#ga53e2d568aa13881c4213fe89a2e1c42e" target="_top" xlink:title="Delay execution for a duration of time using a hardware counter.">
<polygon fill="white" stroke="black" points="117,-38.5 117,-57.5 190,-57.5 190,-38.5 117,-38.5"/>
<text text-anchor="middle" x="153.5" y="-45.5" font-family="Helvetica,sans-Serif" font-size="10.00">embed::delay</text>
</a>
</g>
</g>
<!-- Node1&#45;&gt;Node2 -->
<g id="edge1" class="edge">
<title>Node1&#45;&gt;Node2</title>
<path fill="none" stroke="midnightblue" d="M69.03,-34.44C80.86,-36.37 94.36,-38.56 107.01,-40.61"/>
<polygon fill="midnightblue" stroke="midnightblue" points="106.49,-44.07 116.93,-42.22 107.62,-37.17 106.49,-44.07"/>
</g>
<!-- Node10 -->
<g id="node10" class="node">
<title>Node10</title>
<g id="a_node10"><a xlink:href="classembed_1_1serial.html#a802629f3a40ce507d6d99c1e41ab57df" target="_top" xlink:title="Read the bytes received over the ports receiver line and stored in the serial implementations buffer....">
<polygon fill="white" stroke="black" points="105,-0.5 105,-19.5 202,-19.5 202,-0.5 105,-0.5"/>
<text text-anchor="middle" x="153.5" y="-7.5" font-family="Helvetica,sans-Serif" font-size="10.00">embed::serial::read</text>
</a>
</g>
</g>
<!-- Node1&#45;&gt;Node10 -->
<g id="edge11" class="edge">
<title>Node1&#45;&gt;Node10</title>
<path fill="none" stroke="midnightblue" d="M69.03,-23.56C77.07,-22.25 85.9,-20.82 94.7,-19.39"/>
<polygon fill="midnightblue" stroke="midnightblue" points="95.27,-22.84 104.58,-17.78 94.15,-15.93 95.27,-22.84"/>
</g>
<!-- Node2&#45;&gt;Node2 -->
<g id="edge10" class="edge">
<title>Node2&#45;&gt;Node2</title>
<path fill="none" stroke="midnightblue" d="M135.31,-57.76C126.46,-66.57 132.53,-76 153.5,-76 166.94,-76 174.25,-72.13 175.45,-67.03"/>
<polygon fill="midnightblue" stroke="midnightblue" points="178.69,-65.71 171.69,-57.76 172.2,-68.34 178.69,-65.71"/>
</g>
<!-- Node3 -->
<g id="node3" class="node">
<title>Node3</title>
<g id="a_node3"><a xlink:href="group__counter.html#ga4f1edcd06bf52209d5293e54d0d1beb6" target="_top" xlink:title="Create a timeout object based on embed::counter.">
<polygon fill="white" stroke="black" points="238,-38.5 238,-57.5 353,-57.5 353,-38.5 238,-38.5"/>
<text text-anchor="middle" x="295.5" y="-45.5" font-family="Helvetica,sans-Serif" font-size="10.00">embed::create_timeout</text>
</a>
</g>
</g>
<!-- Node2&#45;&gt;Node3 -->
<g id="edge2" class="edge">
<title>Node2&#45;&gt;Node3</title>
<path fill="none" stroke="midnightblue" d="M190.19,-48C201.63,-48 214.7,-48 227.62,-48"/>
<polygon fill="midnightblue" stroke="midnightblue" points="227.93,-51.5 237.93,-48 227.93,-44.5 227.93,-51.5"/>
</g>
<!-- Node4 -->
<g id="node4" class="node">
<title>Node4</title>
<g id="a_node4"><a xlink:href="classembed_1_1counter__timeout.html#aa5741370521bba1742b8d4080f26ac0d" target="_top" xlink:title="Create a counter_timeout.">
<polygon fill="white" stroke="black" points="389,-33 389,-63 509,-63 509,-33 389,-33"/>
<text text-anchor="start" x="397" y="-51" font-family="Helvetica,sans-Serif" font-size="10.00">embed::counter_timeout</text>
<text text-anchor="middle" x="449" y="-40" font-family="Helvetica,sans-Serif" font-size="10.00">::create</text>
</a>
</g>
</g>
<!-- Node3&#45;&gt;Node4 -->
<g id="edge3" class="edge">
<title>Node3&#45;&gt;Node4</title>
<path fill="none" stroke="midnightblue" d="M353.34,-48C361.58,-48 370.14,-48 378.59,-48"/>
<polygon fill="midnightblue" stroke="midnightblue" points="378.81,-51.5 388.81,-48 378.81,-44.5 378.81,-51.5"/>
</g>
<!-- Node5 -->
<g id="node5" class="node">
<title>Node5</title>
<g id="a_node5"><a xlink:href="classembed_1_1counter__timeout.html#a78ca298194b92fa5ab316610c3b4df22" target="_top" xlink:title="Construct a new counter timeout object.">
<polygon fill="white" stroke="black" points="545,-77 545,-107 665,-107 665,-77 545,-77"/>
<text text-anchor="start" x="553" y="-95" font-family="Helvetica,sans-Serif" font-size="10.00">embed::counter_timeout</text>
<text text-anchor="middle" x="605" y="-84" font-family="Helvetica,sans-Serif" font-size="10.00">::counter_timeout</text>
</a>
</g>
</g>
<!-- Node4&#45;&gt;Node5 -->
<g id="edge4" class="edge">
<title>Node4&#45;&gt;Node5</title>
<path fill="none" stroke="midnightblue" d="M502.57,-63.02C515.14,-66.61 528.67,-70.48 541.63,-74.18"/>
<polygon fill="midnightblue" stroke="midnightblue" points="540.83,-77.59 551.41,-76.97 542.75,-70.86 540.83,-77.59"/>
</g>
<!-- Node6 -->
<g id="node6" class="node">
<title>Node6</title>
<g id="a_node6"><a xlink:href="group__utility.html#ga61711bf3d8c25b82fb37db4f53426ef0" target="_top" xlink:title="Calculate the number of cycles of this frequency within the time duration. This function is meant for...">
<polygon fill="white" stroke="black" points="556.5,-38.5 556.5,-57.5 653.5,-57.5 653.5,-38.5 556.5,-38.5"/>
<text text-anchor="middle" x="605" y="-45.5" font-family="Helvetica,sans-Serif" font-size="10.00">embed::cycles_per</text>
</a>
</g>
</g>
<!-- Node4&#45;&gt;Node6 -->
<g id="edge5" class="edge">
<title>Node4&#45;&gt;Node6</title>
<path fill="none" stroke="midnightblue" d="M509.1,-48C521.29,-48 534.12,-48 546.26,-48"/>
<polygon fill="midnightblue" stroke="midnightblue" points="546.28,-51.5 556.28,-48 546.28,-44.5 546.28,-51.5"/>
</g>
<!-- Node9 -->
<g id="node9" class="node">
<title>Node9</title>
<g id="a_node9"><a xlink:href="classembed_1_1counter.html#a02c24fbeaac81ef1030ff8e1a41b0738" target="_top" xlink:title="Get the uptime of the counter since it has started.">
<polygon fill="white" stroke="black" points="547,-0.5 547,-19.5 663,-19.5 663,-0.5 547,-0.5"/>
<text text-anchor="middle" x="605" y="-7.5" font-family="Helvetica,sans-Serif" font-size="10.00">embed::counter::uptime</text>
</a>
</g>
</g>
<!-- Node4&#45;&gt;Node9 -->
<g id="edge9" class="edge">
<title>Node4&#45;&gt;Node9</title>
<path fill="none" stroke="midnightblue" d="M509.1,-33.42C524.4,-29.64 540.7,-25.62 555.39,-21.99"/>
<polygon fill="midnightblue" stroke="midnightblue" points="556.41,-25.35 565.28,-19.56 554.73,-18.55 556.41,-25.35"/>
</g>
<!-- Node7 -->
<g id="node7" class="node">
<title>Node7</title>
<g id="a_node7"><a xlink:href="group__utility.html#ga6f0922a28ac81378eb689b2ab4bc299a" target="_top" xlink:title="Generic absolute value function that works for integer types.">
<polygon fill="white" stroke="black" points="862,-38.5 862,-57.5 978,-57.5 978,-38.5 862,-38.5"/>
<text text-anchor="middle" x="920" y="-45.5" font-family="Helvetica,sans-Serif" font-size="10.00">embed::absolute_value</text>
</a>
</g>
</g>
<!-- Node6&#45;&gt;Node7 -->
<g id="edge6" class="edge">
<title>Node6&#45;&gt;Node7</title>
<path fill="none" stroke="midnightblue" d="M653.54,-48C706.4,-48 792.2,-48 851.89,-48"/>
<polygon fill="midnightblue" stroke="midnightblue" points="851.97,-51.5 861.97,-48 851.97,-44.5 851.97,-51.5"/>
</g>
<!-- Node8 -->
<g id="node8" class="node">
<title>Node8</title>
<g id="a_node8"><a xlink:href="group__utility.html#ga84ea33bb969785c47247cfe0da9aa98e" target="_top" xlink:title="Perform integer division and round the value up if the next decimal place is greater than or equal to...">
<polygon fill="white" stroke="black" points="701,-19.5 701,-38.5 826,-38.5 826,-19.5 701,-19.5"/>
<text text-anchor="middle" x="763.5" y="-26.5" font-family="Helvetica,sans-Serif" font-size="10.00">embed::rounding_division</text>
</a>
</g>
</g>
<!-- Node6&#45;&gt;Node8 -->
<g id="edge7" class="edge">
<title>Node6&#45;&gt;Node8</title>
<path fill="none" stroke="midnightblue" d="M653.81,-42.2C665.51,-40.78 678.29,-39.22 690.84,-37.7"/>
<polygon fill="midnightblue" stroke="midnightblue" points="691.33,-41.17 700.83,-36.49 690.48,-34.22 691.33,-41.17"/>
</g>
<!-- Node8&#45;&gt;Node7 -->
<g id="edge8" class="edge">
<title>Node8&#45;&gt;Node7</title>
<path fill="none" stroke="midnightblue" d="M826.01,-36.56C834.47,-37.61 843.21,-38.68 851.77,-39.73"/>
<polygon fill="midnightblue" stroke="midnightblue" points="851.37,-43.21 861.72,-40.96 852.22,-36.26 851.37,-43.21"/>
</g>
</g>
</svg>
