<?xml version="1.0" encoding="UTF-8" standalone="no"?>
<!DOCTYPE svg PUBLIC "-//W3C//DTD SVG 1.1//EN"
 "http://www.w3.org/Graphics/SVG/1.1/DTD/svg11.dtd">
<!-- Generated by graphviz version 3.0.0 (20220413.0242)
 -->
<!-- Title: embed::read Pages: 1 -->
<svg width="986pt" height="184pt"
 viewBox="0.00 0.00 986.00 183.50" xmlns="http://www.w3.org/2000/svg" xmlns:xlink="http://www.w3.org/1999/xlink">
<g id="graph0" class="graph" transform="scale(1 1) rotate(0) translate(4 179.5)">
<title>embed::read</title>
<polygon fill="white" stroke="transparent" points="-4,4 -4,-179.5 982,-179.5 982,4 -4,4"/>
<!-- Node1 -->
<g id="node1" class="node">
<title>Node1</title>
<g id="a_node1"><a xlink:title="Read bytes from a serial port.">
<polygon fill="#bfbfbf" stroke="black" points="0,-19.5 0,-38.5 69,-38.5 69,-19.5 0,-19.5"/>
<text text-anchor="middle" x="34.5" y="-26.5" font-family="Helvetica,sans-Serif" font-size="10.00">embed::read</text>
</a>
</g>
</g>
<!-- Node2 -->
<g id="node2" class="node">
<title>Node2</title>
<g id="a_node2"><a xlink:href="group__counter.html#ga53e2d568aa13881c4213fe89a2e1c42e" target="_top" xlink:title="Delay execution for a duration of time using a hardware counter.">
<polygon fill="white" stroke="black" points="117,-38.5 117,-57.5 190,-57.5 190,-38.5 117,-38.5"/>
<text text-anchor="middle" x="153.5" y="-45.5" font-family="Helvetica,sans-Serif" font-size="10.00">embed::delay</text>
</a>
</g>
</g>
<!-- Node1&#45;&gt;Node2 -->
<g id="edge1" class="edge">
<title>Node1&#45;&gt;Node2</title>
<path fill="none" stroke="midnightblue" d="M69.03,-34.44C80.86,-36.37 94.36,-38.56 107.01,-40.61"/>
<polygon fill="midnightblue" stroke="midnightblue" points="106.49,-44.07 116.93,-42.22 107.62,-37.17 106.49,-44.07"/>
</g>
<!-- Node11 -->
<g id="node11" class="node">
<title>Node11</title>
<g id="a_node11"><a xlink:href="classembed_1_1serial.html#a802629f3a40ce507d6d99c1e41ab57df" target="_top" xlink:title="Read the bytes received over the receiver line into buffer.">
<polygon fill="white" stroke="black" points="105,-0.5 105,-19.5 202,-19.5 202,-0.5 105,-0.5"/>
<text text-anchor="middle" x="153.5" y="-7.5" font-family="Helvetica,sans-Serif" font-size="10.00">embed::serial::read</text>
</a>
</g>
</g>
<!-- Node1&#45;&gt;Node11 -->
<g id="edge14" class="edge">
<title>Node1&#45;&gt;Node11</title>
<path fill="none" stroke="midnightblue" d="M69.03,-23.56C77.07,-22.25 85.9,-20.82 94.7,-19.39"/>
<polygon fill="midnightblue" stroke="midnightblue" points="95.27,-22.84 104.58,-17.78 94.15,-15.93 95.27,-22.84"/>
</g>
<!-- Node2&#45;&gt;Node2 -->
<g id="edge12" class="edge">
<title>Node2&#45;&gt;Node2</title>
<path fill="none" stroke="midnightblue" d="M135.31,-57.76C126.46,-66.57 132.53,-76 153.5,-76 166.94,-76 174.25,-72.13 175.45,-67.03"/>
<polygon fill="midnightblue" stroke="midnightblue" points="178.69,-65.71 171.69,-57.76 172.2,-68.34 178.69,-65.71"/>
</g>
<!-- Node3 -->
<g id="node3" class="node">
<title>Node3</title>
<g id="a_node3"><a xlink:href="group__counter.html#ga4f1edcd06bf52209d5293e54d0d1beb6" target="_top" xlink:title="Create a timeout object based on embed::counter.">
<polygon fill="white" stroke="black" points="238,-59.5 238,-78.5 353,-78.5 353,-59.5 238,-59.5"/>
<text text-anchor="middle" x="295.5" y="-66.5" font-family="Helvetica,sans-Serif" font-size="10.00">embed::create_timeout</text>
</a>
</g>
</g>
<!-- Node2&#45;&gt;Node3 -->
<g id="edge2" class="edge">
<title>Node2&#45;&gt;Node3</title>
<path fill="none" stroke="midnightblue" d="M190.19,-53.35C201.75,-55.09 214.96,-57.07 228.01,-59.03"/>
<polygon fill="midnightblue" stroke="midnightblue" points="227.52,-62.49 237.93,-60.51 228.56,-55.57 227.52,-62.49"/>
</g>
<!-- Node9 -->
<g id="node9" class="node">
<title>Node9</title>
<g id="a_node9"><a xlink:href="namespaceembed.html#a87973d938f95cc08d58ae8d55707043a" target="_top" xlink:title=" ">
<polygon fill="white" stroke="black" points="558.5,-12.5 558.5,-31.5 651.5,-31.5 651.5,-12.5 558.5,-12.5"/>
<text text-anchor="middle" x="605" y="-19.5" font-family="Helvetica,sans-Serif" font-size="10.00">embed::new_error</text>
</a>
</g>
</g>
<!-- Node2&#45;&gt;Node9 -->
<g id="edge13" class="edge">
<title>Node2&#45;&gt;Node9</title>
<path fill="none" stroke="midnightblue" d="M190.15,-45.94C268.2,-41.42 454.73,-30.63 548.37,-25.22"/>
<polygon fill="midnightblue" stroke="midnightblue" points="548.72,-28.7 558.5,-24.63 548.31,-21.72 548.72,-28.7"/>
</g>
<!-- Node4 -->
<g id="node4" class="node">
<title>Node4</title>
<g id="a_node4"><a xlink:href="classembed_1_1counter__timeout.html#aa5741370521bba1742b8d4080f26ac0d" target="_top" xlink:title="Create a counter_timeout.">
<polygon fill="white" stroke="black" points="389,-63 389,-93 509,-93 509,-63 389,-63"/>
<text text-anchor="start" x="397" y="-81" font-family="Helvetica,sans-Serif" font-size="10.00">embed::counter_timeout</text>
<text text-anchor="middle" x="449" y="-70" font-family="Helvetica,sans-Serif" font-size="10.00">::create</text>
</a>
</g>
</g>
<!-- Node3&#45;&gt;Node4 -->
<g id="edge3" class="edge">
<title>Node3&#45;&gt;Node4</title>
<path fill="none" stroke="midnightblue" d="M353.34,-72.38C361.58,-72.87 370.14,-73.37 378.59,-73.88"/>
<polygon fill="midnightblue" stroke="midnightblue" points="378.62,-77.38 388.81,-74.48 379.04,-70.4 378.62,-77.38"/>
</g>
<!-- Node5 -->
<g id="node5" class="node">
<title>Node5</title>
<g id="a_node5"><a xlink:href="classembed_1_1counter__timeout.html#a78ca298194b92fa5ab316610c3b4df22" target="_top" xlink:title="Construct a new counter timeout object.">
<polygon fill="white" stroke="black" points="545,-145 545,-175 665,-175 665,-145 545,-145"/>
<text text-anchor="start" x="553" y="-163" font-family="Helvetica,sans-Serif" font-size="10.00">embed::counter_timeout</text>
<text text-anchor="middle" x="605" y="-152" font-family="Helvetica,sans-Serif" font-size="10.00">::counter_timeout</text>
</a>
</g>
</g>
<!-- Node4&#45;&gt;Node5 -->
<g id="edge4" class="edge">
<title>Node4&#45;&gt;Node5</title>
<path fill="none" stroke="midnightblue" d="M473.3,-93.23C492.22,-105.29 519.8,-122.18 545,-135 548.79,-136.93 552.77,-138.84 556.79,-140.7"/>
<polygon fill="midnightblue" stroke="midnightblue" points="555.63,-144.01 566.19,-144.9 558.49,-137.62 555.63,-144.01"/>
</g>
<!-- Node6 -->
<g id="node6" class="node">
<title>Node6</title>
<g id="a_node6"><a xlink:href="group__utility.html#ga61711bf3d8c25b82fb37db4f53426ef0" target="_top" xlink:title="Calculate the number of cycles of this frequency within the time duration. This function is meant for...">
<polygon fill="white" stroke="black" points="556.5,-106.5 556.5,-125.5 653.5,-125.5 653.5,-106.5 556.5,-106.5"/>
<text text-anchor="middle" x="605" y="-113.5" font-family="Helvetica,sans-Serif" font-size="10.00">embed::cycles_per</text>
</a>
</g>
</g>
<!-- Node4&#45;&gt;Node6 -->
<g id="edge5" class="edge">
<title>Node4&#45;&gt;Node6</title>
<path fill="none" stroke="midnightblue" d="M509.1,-92.58C524.4,-96.36 540.7,-100.38 555.39,-104.01"/>
<polygon fill="midnightblue" stroke="midnightblue" points="554.73,-107.45 565.28,-106.44 556.41,-100.65 554.73,-107.45"/>
</g>
<!-- Node4&#45;&gt;Node9 -->
<g id="edge9" class="edge">
<title>Node4&#45;&gt;Node9</title>
<path fill="none" stroke="midnightblue" d="M491.27,-62.99C515.17,-54.3 544.98,-43.46 567.94,-35.11"/>
<polygon fill="midnightblue" stroke="midnightblue" points="569.44,-38.29 577.64,-31.58 567.05,-31.71 569.44,-38.29"/>
</g>
<!-- Node10 -->
<g id="node10" class="node">
<title>Node10</title>
<g id="a_node10"><a xlink:href="classembed_1_1counter.html#a02c24fbeaac81ef1030ff8e1a41b0738" target="_top" xlink:title="Get the uptime of the counter since it has started.">
<polygon fill="white" stroke="black" points="547,-68.5 547,-87.5 663,-87.5 663,-68.5 547,-68.5"/>
<text text-anchor="middle" x="605" y="-75.5" font-family="Helvetica,sans-Serif" font-size="10.00">embed::counter::uptime</text>
</a>
</g>
</g>
<!-- Node4&#45;&gt;Node10 -->
<g id="edge11" class="edge">
<title>Node4&#45;&gt;Node10</title>
<path fill="none" stroke="midnightblue" d="M509.1,-78C518.1,-78 527.44,-78 536.6,-78"/>
<polygon fill="midnightblue" stroke="midnightblue" points="536.83,-81.5 546.83,-78 536.83,-74.5 536.83,-81.5"/>
</g>
<!-- Node7 -->
<g id="node7" class="node">
<title>Node7</title>
<g id="a_node7"><a xlink:href="group__utility.html#ga6f0922a28ac81378eb689b2ab4bc299a" target="_top" xlink:title="Generic absolute value function that works for integer types.">
<polygon fill="white" stroke="black" points="862,-106.5 862,-125.5 978,-125.5 978,-106.5 862,-106.5"/>
<text text-anchor="middle" x="920" y="-113.5" font-family="Helvetica,sans-Serif" font-size="10.00">embed::absolute_value</text>
</a>
</g>
</g>
<!-- Node6&#45;&gt;Node7 -->
<g id="edge6" class="edge">
<title>Node6&#45;&gt;Node7</title>
<path fill="none" stroke="midnightblue" d="M653.54,-116C706.4,-116 792.2,-116 851.89,-116"/>
<polygon fill="midnightblue" stroke="midnightblue" points="851.97,-119.5 861.97,-116 851.97,-112.5 851.97,-119.5"/>
</g>
<!-- Node8 -->
<g id="node8" class="node">
<title>Node8</title>
<g id="a_node8"><a xlink:href="group__utility.html#ga84ea33bb969785c47247cfe0da9aa98e" target="_top" xlink:title="Perform integer division and round the value up if the next decimal place is greater than or equal to...">
<polygon fill="white" stroke="black" points="701,-87.5 701,-106.5 826,-106.5 826,-87.5 701,-87.5"/>
<text text-anchor="middle" x="763.5" y="-94.5" font-family="Helvetica,sans-Serif" font-size="10.00">embed::rounding_division</text>
</a>
</g>
</g>
<!-- Node6&#45;&gt;Node8 -->
<g id="edge7" class="edge">
<title>Node6&#45;&gt;Node8</title>
<path fill="none" stroke="midnightblue" d="M653.81,-110.2C665.51,-108.78 678.29,-107.22 690.84,-105.7"/>
<polygon fill="midnightblue" stroke="midnightblue" points="691.33,-109.17 700.83,-104.49 690.48,-102.22 691.33,-109.17"/>
</g>
<!-- Node8&#45;&gt;Node7 -->
<g id="edge8" class="edge">
<title>Node8&#45;&gt;Node7</title>
<path fill="none" stroke="midnightblue" d="M826.01,-104.56C834.47,-105.61 843.21,-106.68 851.77,-107.73"/>
<polygon fill="midnightblue" stroke="midnightblue" points="851.37,-111.21 861.72,-108.96 852.22,-104.26 851.37,-111.21"/>
</g>
<!-- Node9&#45;&gt;Node9 -->
<g id="edge10" class="edge">
<title>Node9&#45;&gt;Node9</title>
<path fill="none" stroke="midnightblue" d="M580.96,-31.76C569.26,-40.57 577.27,-50 605,-50 623.2,-50 632.9,-45.94 634.12,-40.65"/>
<polygon fill="midnightblue" stroke="midnightblue" points="637.04,-38.71 629.04,-31.76 630.96,-42.18 637.04,-38.71"/>
</g>
</g>
</svg>
