<?xml version="1.0" encoding="UTF-8" standalone="no"?>
<!DOCTYPE svg PUBLIC "-//W3C//DTD SVG 1.1//EN"
 "http://www.w3.org/Graphics/SVG/1.1/DTD/svg11.dtd">
<!-- Generated by graphviz version 3.0.0 (20220413.0242)
 -->
<!-- Title: embed::cycles_per Pages: 1 -->
<svg width="626pt" height="88pt"
 viewBox="0.00 0.00 626.00 88.00" xmlns="http://www.w3.org/2000/svg" xmlns:xlink="http://www.w3.org/1999/xlink">
<g id="graph0" class="graph" transform="scale(1 1) rotate(0) translate(4 84)">
<title>embed::cycles_per</title>
<polygon fill="white" stroke="transparent" points="-4,4 -4,-84 622,-84 622,4 -4,4"/>
<!-- Node1 -->
<g id="node1" class="node">
<title>Node1</title>
<g id="a_node1"><a xlink:title="Calculate the number of cycles of this frequency within the time duration. This function is meant for...">
<polygon fill="#bfbfbf" stroke="black" points="521,-30 521,-49 618,-49 618,-30 521,-30"/>
<text text-anchor="middle" x="569.5" y="-37" font-family="Helvetica,sans-Serif" font-size="10.00">embed::cycles_per</text>
</a>
</g>
</g>
<!-- Node2 -->
<g id="node2" class="node">
<title>Node2</title>
<g id="a_node2"><a xlink:href="group__utility.html#gaa1a076554c019239de0fb3e3fb4edcf2" target="_top" xlink:title="Calculate a duty cycle based on a source frequency, target wavelength and a percentage.">
<polygon fill="white" stroke="black" points="368.5,-49.5 368.5,-79.5 481.5,-79.5 481.5,-49.5 368.5,-49.5"/>
<text text-anchor="start" x="376.5" y="-67.5" font-family="Helvetica,sans-Serif" font-size="10.00">embed::calculate_duty</text>
<text text-anchor="middle" x="425" y="-56.5" font-family="Helvetica,sans-Serif" font-size="10.00">_cycle</text>
</a>
</g>
</g>
<!-- Node1&#45;&gt;Node2 -->
<g id="edge1" class="edge">
<title>Node1&#45;&gt;Node2</title>
<path fill="none" stroke="midnightblue" d="M510.54,-49.67C501.07,-51.33 491.27,-53.05 481.85,-54.7"/>
<polygon fill="midnightblue" stroke="midnightblue" points="511.41,-53.07 520.65,-47.89 510.2,-46.17 511.41,-53.07"/>
</g>
<!-- Node3 -->
<g id="node3" class="node">
<title>Node3</title>
<g id="a_node3"><a xlink:href="classembed_1_1counter__timeout.html#aa5741370521bba1742b8d4080f26ac0d" target="_top" xlink:title="Create a counter_timeout.">
<polygon fill="white" stroke="black" points="365,-0.5 365,-30.5 485,-30.5 485,-0.5 365,-0.5"/>
<text text-anchor="start" x="373" y="-18.5" font-family="Helvetica,sans-Serif" font-size="10.00">embed::counter_timeout</text>
<text text-anchor="middle" x="425" y="-7.5" font-family="Helvetica,sans-Serif" font-size="10.00">::create</text>
</a>
</g>
</g>
<!-- Node1&#45;&gt;Node3 -->
<g id="edge2" class="edge">
<title>Node1&#45;&gt;Node3</title>
<path fill="none" stroke="midnightblue" d="M510.57,-29.74C502.18,-28.33 493.53,-26.87 485.11,-25.46"/>
<polygon fill="midnightblue" stroke="midnightblue" points="510.21,-33.23 520.65,-31.44 511.37,-26.33 510.21,-33.23"/>
</g>
<!-- Node4 -->
<g id="node4" class="node">
<title>Node4</title>
<g id="a_node4"><a xlink:href="group__counter.html#ga4f1edcd06bf52209d5293e54d0d1beb6" target="_top" xlink:title="Create a timeout object based on embed::counter.">
<polygon fill="white" stroke="black" points="214,-6 214,-25 329,-25 329,-6 214,-6"/>
<text text-anchor="middle" x="271.5" y="-13" font-family="Helvetica,sans-Serif" font-size="10.00">embed::create_timeout</text>
</a>
</g>
</g>
<!-- Node3&#45;&gt;Node4 -->
<g id="edge3" class="edge">
<title>Node3&#45;&gt;Node4</title>
<path fill="none" stroke="midnightblue" d="M354.93,-15.5C346.29,-15.5 337.53,-15.5 329.11,-15.5"/>
<polygon fill="midnightblue" stroke="midnightblue" points="354.99,-19 364.99,-15.5 354.99,-12 354.99,-19"/>
</g>
<!-- Node5 -->
<g id="node5" class="node">
<title>Node5</title>
<g id="a_node5"><a xlink:href="group__counter.html#ga53e2d568aa13881c4213fe89a2e1c42e" target="_top" xlink:title="Delay execution for a duration of time using a hardware counter.">
<polygon fill="white" stroke="black" points="105,-6 105,-25 178,-25 178,-6 105,-6"/>
<text text-anchor="middle" x="141.5" y="-13" font-family="Helvetica,sans-Serif" font-size="10.00">embed::delay</text>
</a>
</g>
</g>
<!-- Node4&#45;&gt;Node5 -->
<g id="edge4" class="edge">
<title>Node4&#45;&gt;Node5</title>
<path fill="none" stroke="midnightblue" d="M203.94,-15.5C195.04,-15.5 186.2,-15.5 178.12,-15.5"/>
<polygon fill="midnightblue" stroke="midnightblue" points="203.98,-19 213.98,-15.5 203.98,-12 203.98,-19"/>
</g>
<!-- Node5&#45;&gt;Node5 -->
<g id="edge5" class="edge">
<title>Node5&#45;&gt;Node5</title>
<path fill="none" stroke="midnightblue" d="M161.13,-34.9C159.82,-39.81 153.27,-43.5 141.5,-43.5 122.66,-43.5 117.21,-34.07 125.16,-25.26"/>
<polygon fill="midnightblue" stroke="midnightblue" points="164.38,-33.59 157.84,-25.26 157.76,-35.85 164.38,-33.59"/>
</g>
<!-- Node6 -->
<g id="node6" class="node">
<title>Node6</title>
<g id="a_node6"><a xlink:href="group__serial.html#ga56439487351e68f734fdf9b6330da4d2" target="_top" xlink:title="Read bytes from a serial port.">
<polygon fill="white" stroke="black" points="0,-6 0,-25 69,-25 69,-6 0,-6"/>
<text text-anchor="middle" x="34.5" y="-13" font-family="Helvetica,sans-Serif" font-size="10.00">embed::read</text>
</a>
</g>
</g>
<!-- Node5&#45;&gt;Node6 -->
<g id="edge6" class="edge">
<title>Node5&#45;&gt;Node6</title>
<path fill="none" stroke="midnightblue" d="M94.7,-15.5C86.14,-15.5 77.35,-15.5 69.24,-15.5"/>
<polygon fill="midnightblue" stroke="midnightblue" points="94.95,-19 104.95,-15.5 94.95,-12 94.95,-19"/>
</g>
</g>
</svg>
