<?xml version="1.0" encoding="UTF-8" standalone="no"?>
<!DOCTYPE svg PUBLIC "-//W3C//DTD SVG 1.1//EN"
 "http://www.w3.org/Graphics/SVG/1.1/DTD/svg11.dtd">
<!-- Generated by graphviz version 3.0.0 (20220413.0242)
 -->
<!-- Title: embed::read Pages: 1 -->
<svg width="962pt" height="172pt"
 viewBox="0.00 0.00 962.00 171.50" xmlns="http://www.w3.org/2000/svg" xmlns:xlink="http://www.w3.org/1999/xlink">
<g id="graph0" class="graph" transform="scale(1 1) rotate(0) translate(4 167.5)">
<title>embed::read</title>
<polygon fill="white" stroke="transparent" points="-4,4 -4,-167.5 958,-167.5 958,4 -4,4"/>
<!-- Node1 -->
<g id="node1" class="node">
<title>Node1</title>
<g id="a_node1"><a xlink:title="Read bytes from a serial port and return an array.">
<polygon fill="#bfbfbf" stroke="black" points="0,-25.5 0,-44.5 69,-44.5 69,-25.5 0,-25.5"/>
<text text-anchor="middle" x="34.5" y="-32.5" font-family="Helvetica,sans-Serif" font-size="10.00">embed::read</text>
</a>
</g>
</g>
<!-- Node2 -->
<g id="node2" class="node">
<title>Node2</title>
<g id="a_node2"><a xlink:href="group__counter.html#ga53e2d568aa13881c4213fe89a2e1c42e" target="_top" xlink:title="Delay execution for a duration of time using a hardware counter.">
<polygon fill="white" stroke="black" points="105,-25.5 105,-44.5 178,-44.5 178,-25.5 105,-25.5"/>
<text text-anchor="middle" x="141.5" y="-32.5" font-family="Helvetica,sans-Serif" font-size="10.00">embed::delay</text>
</a>
</g>
</g>
<!-- Node1&#45;&gt;Node2 -->
<g id="edge1" class="edge">
<title>Node1&#45;&gt;Node2</title>
<path fill="none" stroke="midnightblue" d="M69.01,-35C77.12,-35 85.92,-35 94.49,-35"/>
<polygon fill="midnightblue" stroke="midnightblue" points="94.77,-38.5 104.77,-35 94.77,-31.5 94.77,-38.5"/>
</g>
<!-- Node2&#45;&gt;Node2 -->
<g id="edge12" class="edge">
<title>Node2&#45;&gt;Node2</title>
<path fill="none" stroke="midnightblue" d="M125.16,-44.76C117.21,-53.57 122.66,-63 141.5,-63 153.27,-63 159.82,-59.31 161.13,-54.4"/>
<polygon fill="midnightblue" stroke="midnightblue" points="164.38,-53.09 157.84,-44.76 157.76,-55.35 164.38,-53.09"/>
</g>
<!-- Node3 -->
<g id="node3" class="node">
<title>Node3</title>
<g id="a_node3"><a xlink:href="group__counter.html#ga4f1edcd06bf52209d5293e54d0d1beb6" target="_top" xlink:title="Create a timeout object based on embed::counter.">
<polygon fill="white" stroke="black" points="214,-47.5 214,-66.5 329,-66.5 329,-47.5 214,-47.5"/>
<text text-anchor="middle" x="271.5" y="-54.5" font-family="Helvetica,sans-Serif" font-size="10.00">embed::create_timeout</text>
</a>
</g>
</g>
<!-- Node2&#45;&gt;Node3 -->
<g id="edge2" class="edge">
<title>Node2&#45;&gt;Node3</title>
<path fill="none" stroke="midnightblue" d="M178.16,-41.13C186.52,-42.57 195.7,-44.14 204.92,-45.73"/>
<polygon fill="midnightblue" stroke="midnightblue" points="204.45,-49.2 214.9,-47.44 205.64,-42.3 204.45,-49.2"/>
</g>
<!-- Node9 -->
<g id="node9" class="node">
<title>Node9</title>
<g id="a_node9"><a xlink:href="namespaceembed.html#a87973d938f95cc08d58ae8d55707043a" target="_top" xlink:title=" ">
<polygon fill="white" stroke="black" points="534.5,-0.5 534.5,-19.5 627.5,-19.5 627.5,-0.5 534.5,-0.5"/>
<text text-anchor="middle" x="581" y="-7.5" font-family="Helvetica,sans-Serif" font-size="10.00">embed::new_error</text>
</a>
</g>
</g>
<!-- Node2&#45;&gt;Node9 -->
<g id="edge13" class="edge">
<title>Node2&#45;&gt;Node9</title>
<path fill="none" stroke="midnightblue" d="M178.3,-32.95C254.45,-28.6 432.94,-18.4 524.17,-13.19"/>
<polygon fill="midnightblue" stroke="midnightblue" points="524.54,-16.67 534.32,-12.61 524.14,-9.69 524.54,-16.67"/>
</g>
<!-- Node4 -->
<g id="node4" class="node">
<title>Node4</title>
<g id="a_node4"><a xlink:href="classembed_1_1counter__timeout.html#aa5741370521bba1742b8d4080f26ac0d" target="_top" xlink:title="Create a counter_timeout.">
<polygon fill="white" stroke="black" points="365,-51 365,-81 485,-81 485,-51 365,-51"/>
<text text-anchor="start" x="373" y="-69" font-family="Helvetica,sans-Serif" font-size="10.00">embed::counter_timeout</text>
<text text-anchor="middle" x="425" y="-58" font-family="Helvetica,sans-Serif" font-size="10.00">::create</text>
</a>
</g>
</g>
<!-- Node3&#45;&gt;Node4 -->
<g id="edge3" class="edge">
<title>Node3&#45;&gt;Node4</title>
<path fill="none" stroke="midnightblue" d="M329.34,-60.38C337.58,-60.87 346.14,-61.37 354.59,-61.88"/>
<polygon fill="midnightblue" stroke="midnightblue" points="354.62,-65.38 364.81,-62.48 355.04,-58.4 354.62,-65.38"/>
</g>
<!-- Node5 -->
<g id="node5" class="node">
<title>Node5</title>
<g id="a_node5"><a xlink:href="classembed_1_1counter__timeout.html#a78ca298194b92fa5ab316610c3b4df22" target="_top" xlink:title="Construct a new counter timeout object.">
<polygon fill="white" stroke="black" points="521,-133 521,-163 641,-163 641,-133 521,-133"/>
<text text-anchor="start" x="529" y="-151" font-family="Helvetica,sans-Serif" font-size="10.00">embed::counter_timeout</text>
<text text-anchor="middle" x="581" y="-140" font-family="Helvetica,sans-Serif" font-size="10.00">::counter_timeout</text>
</a>
</g>
</g>
<!-- Node4&#45;&gt;Node5 -->
<g id="edge4" class="edge">
<title>Node4&#45;&gt;Node5</title>
<path fill="none" stroke="midnightblue" d="M449.3,-81.23C468.22,-93.29 495.8,-110.18 521,-123 524.79,-124.93 528.77,-126.84 532.79,-128.7"/>
<polygon fill="midnightblue" stroke="midnightblue" points="531.63,-132.01 542.19,-132.9 534.49,-125.62 531.63,-132.01"/>
</g>
<!-- Node6 -->
<g id="node6" class="node">
<title>Node6</title>
<g id="a_node6"><a xlink:href="group__utility.html#ga61711bf3d8c25b82fb37db4f53426ef0" target="_top" xlink:title="Calculate the number of cycles of this frequency within the time duration. This function is meant for...">
<polygon fill="white" stroke="black" points="532.5,-94.5 532.5,-113.5 629.5,-113.5 629.5,-94.5 532.5,-94.5"/>
<text text-anchor="middle" x="581" y="-101.5" font-family="Helvetica,sans-Serif" font-size="10.00">embed::cycles_per</text>
</a>
</g>
</g>
<!-- Node4&#45;&gt;Node6 -->
<g id="edge5" class="edge">
<title>Node4&#45;&gt;Node6</title>
<path fill="none" stroke="midnightblue" d="M485.1,-80.58C500.4,-84.36 516.7,-88.38 531.39,-92.01"/>
<polygon fill="midnightblue" stroke="midnightblue" points="530.73,-95.45 541.28,-94.44 532.41,-88.65 530.73,-95.45"/>
</g>
<!-- Node4&#45;&gt;Node9 -->
<g id="edge9" class="edge">
<title>Node4&#45;&gt;Node9</title>
<path fill="none" stroke="midnightblue" d="M467.27,-50.99C491.17,-42.3 520.98,-31.46 543.94,-23.11"/>
<polygon fill="midnightblue" stroke="midnightblue" points="545.44,-26.29 553.64,-19.58 543.05,-19.71 545.44,-26.29"/>
</g>
<!-- Node10 -->
<g id="node10" class="node">
<title>Node10</title>
<g id="a_node10"><a xlink:href="classembed_1_1counter.html#a02c24fbeaac81ef1030ff8e1a41b0738" target="_top" xlink:title="Get the uptime of the counter since it has started.">
<polygon fill="white" stroke="black" points="523,-56.5 523,-75.5 639,-75.5 639,-56.5 523,-56.5"/>
<text text-anchor="middle" x="581" y="-63.5" font-family="Helvetica,sans-Serif" font-size="10.00">embed::counter::uptime</text>
</a>
</g>
</g>
<!-- Node4&#45;&gt;Node10 -->
<g id="edge11" class="edge">
<title>Node4&#45;&gt;Node10</title>
<path fill="none" stroke="midnightblue" d="M485.1,-66C494.1,-66 503.44,-66 512.6,-66"/>
<polygon fill="midnightblue" stroke="midnightblue" points="512.83,-69.5 522.83,-66 512.83,-62.5 512.83,-69.5"/>
</g>
<!-- Node7 -->
<g id="node7" class="node">
<title>Node7</title>
<g id="a_node7"><a xlink:href="group__utility.html#ga6f0922a28ac81378eb689b2ab4bc299a" target="_top" xlink:title="Generic absolute value function that works for integer types.">
<polygon fill="white" stroke="black" points="838,-94.5 838,-113.5 954,-113.5 954,-94.5 838,-94.5"/>
<text text-anchor="middle" x="896" y="-101.5" font-family="Helvetica,sans-Serif" font-size="10.00">embed::absolute_value</text>
</a>
</g>
</g>
<!-- Node6&#45;&gt;Node7 -->
<g id="edge6" class="edge">
<title>Node6&#45;&gt;Node7</title>
<path fill="none" stroke="midnightblue" d="M629.54,-104C682.4,-104 768.2,-104 827.89,-104"/>
<polygon fill="midnightblue" stroke="midnightblue" points="827.97,-107.5 837.97,-104 827.97,-100.5 827.97,-107.5"/>
</g>
<!-- Node8 -->
<g id="node8" class="node">
<title>Node8</title>
<g id="a_node8"><a xlink:href="group__utility.html#ga84ea33bb969785c47247cfe0da9aa98e" target="_top" xlink:title="Perform integer division and round the value up if the next decimal place is greater than or equal to...">
<polygon fill="white" stroke="black" points="677,-75.5 677,-94.5 802,-94.5 802,-75.5 677,-75.5"/>
<text text-anchor="middle" x="739.5" y="-82.5" font-family="Helvetica,sans-Serif" font-size="10.00">embed::rounding_division</text>
</a>
</g>
</g>
<!-- Node6&#45;&gt;Node8 -->
<g id="edge7" class="edge">
<title>Node6&#45;&gt;Node8</title>
<path fill="none" stroke="midnightblue" d="M629.81,-98.2C641.51,-96.78 654.29,-95.22 666.84,-93.7"/>
<polygon fill="midnightblue" stroke="midnightblue" points="667.33,-97.17 676.83,-92.49 666.48,-90.22 667.33,-97.17"/>
</g>
<!-- Node8&#45;&gt;Node7 -->
<g id="edge8" class="edge">
<title>Node8&#45;&gt;Node7</title>
<path fill="none" stroke="midnightblue" d="M802.01,-92.56C810.47,-93.61 819.21,-94.68 827.77,-95.73"/>
<polygon fill="midnightblue" stroke="midnightblue" points="827.37,-99.21 837.72,-96.96 828.22,-92.26 827.37,-99.21"/>
</g>
<!-- Node9&#45;&gt;Node9 -->
<g id="edge10" class="edge">
<title>Node9&#45;&gt;Node9</title>
<path fill="none" stroke="midnightblue" d="M556.96,-19.76C545.26,-28.57 553.27,-38 581,-38 599.2,-38 608.9,-33.94 610.12,-28.65"/>
<polygon fill="midnightblue" stroke="midnightblue" points="613.04,-26.71 605.04,-19.76 606.96,-30.18 613.04,-26.71"/>
</g>
</g>
</svg>
