<?xml version="1.0" encoding="UTF-8" standalone="no"?>
<!DOCTYPE svg PUBLIC "-//W3C//DTD SVG 1.1//EN"
 "http://www.w3.org/Graphics/SVG/1.1/DTD/svg11.dtd">
<!-- Generated by graphviz version 3.0.0 (20220413.0242)
 -->
<!-- Title: embed::calculate_duty_cycle Pages: 1 -->
<svg width="583pt" height="134pt"
 viewBox="0.00 0.00 583.00 133.50" xmlns="http://www.w3.org/2000/svg" xmlns:xlink="http://www.w3.org/1999/xlink">
<g id="graph0" class="graph" transform="scale(1 1) rotate(0) translate(4 129.5)">
<title>embed::calculate_duty_cycle</title>
<polygon fill="white" stroke="transparent" points="-4,4 -4,-129.5 579,-129.5 579,4 -4,4"/>
<!-- Node1 -->
<g id="node1" class="node">
<title>Node1</title>
<g id="a_node1"><a xlink:title="Calculate a duty cycle based on a source frequency, target wavelength and a percentage.">
<polygon fill="#bfbfbf" stroke="black" points="0,-51 0,-81 113,-81 113,-51 0,-51"/>
<text text-anchor="start" x="8" y="-69" font-family="Helvetica,sans-Serif" font-size="10.00">embed::calculate_duty</text>
<text text-anchor="middle" x="56.5" y="-58" font-family="Helvetica,sans-Serif" font-size="10.00">_cycle</text>
</a>
</g>
</g>
<!-- Node2 -->
<g id="node2" class="node">
<title>Node2</title>
<g id="a_node2"><a xlink:href="group__utility.html#gac197fc46936b832a6e9219b248e2f9bb" target="_top" xlink:title="Generate a duty_cycle object based on the percent value and the input count value....">
<polygon fill="white" stroke="black" points="149,-95 149,-125 262,-125 262,-95 149,-95"/>
<text text-anchor="start" x="157" y="-113" font-family="Helvetica,sans-Serif" font-size="10.00">embed::calculate_duty</text>
<text text-anchor="middle" x="205.5" y="-102" font-family="Helvetica,sans-Serif" font-size="10.00">_cycle</text>
</a>
</g>
</g>
<!-- Node1&#45;&gt;Node2 -->
<g id="edge1" class="edge">
<title>Node1&#45;&gt;Node2</title>
<path fill="none" stroke="midnightblue" d="M107.68,-81.02C119.49,-84.56 132.2,-88.36 144.4,-92.01"/>
<polygon fill="midnightblue" stroke="midnightblue" points="143.47,-95.38 154.05,-94.9 145.47,-88.68 143.47,-95.38"/>
</g>
<!-- Node3 -->
<g id="node3" class="node">
<title>Node3</title>
<g id="a_node3"><a xlink:href="group__utility.html#ga61711bf3d8c25b82fb37db4f53426ef0" target="_top" xlink:title="Calculate the number of cycles of this frequency within the time duration. This function is meant for...">
<polygon fill="white" stroke="black" points="157,-56.5 157,-75.5 254,-75.5 254,-56.5 157,-56.5"/>
<text text-anchor="middle" x="205.5" y="-63.5" font-family="Helvetica,sans-Serif" font-size="10.00">embed::cycles_per</text>
</a>
</g>
</g>
<!-- Node1&#45;&gt;Node3 -->
<g id="edge2" class="edge">
<title>Node1&#45;&gt;Node3</title>
<path fill="none" stroke="midnightblue" d="M113.07,-66C123.92,-66 135.32,-66 146.24,-66"/>
<polygon fill="midnightblue" stroke="midnightblue" points="146.54,-69.5 156.54,-66 146.54,-62.5 146.54,-69.5"/>
</g>
<!-- Node6 -->
<g id="node6" class="node">
<title>Node6</title>
<g id="a_node6"><a xlink:href="namespaceembed.html#a87973d938f95cc08d58ae8d55707043a" target="_top" xlink:title=" ">
<polygon fill="white" stroke="black" points="159,-0.5 159,-19.5 252,-19.5 252,-0.5 159,-0.5"/>
<text text-anchor="middle" x="205.5" y="-7.5" font-family="Helvetica,sans-Serif" font-size="10.00">embed::new_error</text>
</a>
</g>
</g>
<!-- Node1&#45;&gt;Node6 -->
<g id="edge6" class="edge">
<title>Node1&#45;&gt;Node6</title>
<path fill="none" stroke="midnightblue" d="M96.89,-50.99C119.61,-42.34 147.91,-31.56 169.78,-23.23"/>
<polygon fill="midnightblue" stroke="midnightblue" points="171.24,-26.42 179.34,-19.58 168.75,-19.87 171.24,-26.42"/>
</g>
<!-- Node4 -->
<g id="node4" class="node">
<title>Node4</title>
<g id="a_node4"><a xlink:href="group__utility.html#ga6f0922a28ac81378eb689b2ab4bc299a" target="_top" xlink:title="Generic absolute value function that works for integer types.">
<polygon fill="white" stroke="black" points="459,-56.5 459,-75.5 575,-75.5 575,-56.5 459,-56.5"/>
<text text-anchor="middle" x="517" y="-63.5" font-family="Helvetica,sans-Serif" font-size="10.00">embed::absolute_value</text>
</a>
</g>
</g>
<!-- Node3&#45;&gt;Node4 -->
<g id="edge3" class="edge">
<title>Node3&#45;&gt;Node4</title>
<path fill="none" stroke="midnightblue" d="M254.18,-66C306.17,-66 389.78,-66 448.49,-66"/>
<polygon fill="midnightblue" stroke="midnightblue" points="448.79,-69.5 458.79,-66 448.79,-62.5 448.79,-69.5"/>
</g>
<!-- Node5 -->
<g id="node5" class="node">
<title>Node5</title>
<g id="a_node5"><a xlink:href="group__utility.html#ga84ea33bb969785c47247cfe0da9aa98e" target="_top" xlink:title="Perform integer division and round the value up if the next decimal place is greater than or equal to...">
<polygon fill="white" stroke="black" points="298,-37.5 298,-56.5 423,-56.5 423,-37.5 298,-37.5"/>
<text text-anchor="middle" x="360.5" y="-44.5" font-family="Helvetica,sans-Serif" font-size="10.00">embed::rounding_division</text>
</a>
</g>
</g>
<!-- Node3&#45;&gt;Node5 -->
<g id="edge4" class="edge">
<title>Node3&#45;&gt;Node5</title>
<path fill="none" stroke="midnightblue" d="M254.07,-60.09C264.79,-58.76 276.4,-57.32 287.86,-55.9"/>
<polygon fill="midnightblue" stroke="midnightblue" points="288.38,-59.36 297.87,-54.65 287.52,-52.41 288.38,-59.36"/>
</g>
<!-- Node5&#45;&gt;Node4 -->
<g id="edge5" class="edge">
<title>Node5&#45;&gt;Node4</title>
<path fill="none" stroke="midnightblue" d="M423.01,-54.56C431.47,-55.61 440.21,-56.68 448.77,-57.73"/>
<polygon fill="midnightblue" stroke="midnightblue" points="448.37,-61.21 458.72,-58.96 449.22,-54.26 448.37,-61.21"/>
</g>
<!-- Node6&#45;&gt;Node6 -->
<g id="edge7" class="edge">
<title>Node6&#45;&gt;Node6</title>
<path fill="none" stroke="midnightblue" d="M182.69,-19.76C171.59,-28.57 179.2,-38 205.5,-38 222.76,-38 231.97,-33.94 233.13,-28.65"/>
<polygon fill="midnightblue" stroke="midnightblue" points="236.15,-26.89 228.31,-19.76 229.99,-30.22 236.15,-26.89"/>
</g>
</g>
</svg>
