<?xml version="1.0" encoding="UTF-8" standalone="no"?>
<!DOCTYPE svg PUBLIC "-//W3C//DTD SVG 1.1//EN"
 "http://www.w3.org/Graphics/SVG/1.1/DTD/svg11.dtd">
<!-- Generated by graphviz version 3.0.0 (20220413.0242)
 -->
<!-- Title: hal::to_string Pages: 1 -->
<svg width="376pt" height="123pt"
 viewBox="0.00 0.00 376.00 123.00" xmlns="http://www.w3.org/2000/svg" xmlns:xlink="http://www.w3.org/1999/xlink">
<g id="graph0" class="graph" transform="scale(1 1) rotate(0) translate(4 119)">
<title>hal::to_string</title>
<polygon fill="white" stroke="transparent" points="-4,4 -4,-119 372,-119 372,4 -4,4"/>
<!-- Node1 -->
<g id="node1" class="node">
<title>Node1</title>
<g id="a_node1"><a xlink:title="convert this percentage value into a string from &#45;1.0 to +1.0">
<polygon fill="#bfbfbf" stroke="black" points="0,-38.5 0,-57.5 71,-57.5 71,-38.5 0,-38.5"/>
<text text-anchor="middle" x="35.5" y="-45.5" font-family="Helvetica,sans-Serif" font-size="10.00">hal::to_string</text>
</a>
</g>
</g>
<!-- Node2 -->
<g id="node2" class="node">
<title>Node2</title>
<g id="a_node2"><a xlink:href="classhal_1_1percent.html#aa120c82da4e8ccac1a58e4b0ab2de1f9" target="_top" xlink:title="Get +100% percentage.">
<polygon fill="white" stroke="black" points="120,-76.5 120,-95.5 209,-95.5 209,-76.5 120,-76.5"/>
<text text-anchor="middle" x="164.5" y="-83.5" font-family="Helvetica,sans-Serif" font-size="10.00">hal::percent::max</text>
</a>
</g>
</g>
<!-- Node1&#45;&gt;Node2 -->
<g id="edge1" class="edge">
<title>Node1&#45;&gt;Node2</title>
<path fill="none" stroke="midnightblue" d="M68.55,-57.59C84.64,-62.4 104.34,-68.3 121.62,-73.47"/>
<polygon fill="midnightblue" stroke="midnightblue" points="120.88,-76.9 131.46,-76.41 122.89,-70.19 120.88,-76.9"/>
</g>
<!-- Node5 -->
<g id="node5" class="node">
<title>Node5</title>
<g id="a_node5"><a xlink:href="classhal_1_1percent.html#ae6a1e30546203a5f9d8879dff495d252" target="_top" xlink:title="Get &#45;100% percentage.">
<polygon fill="white" stroke="black" points="121.5,-38.5 121.5,-57.5 207.5,-57.5 207.5,-38.5 121.5,-38.5"/>
<text text-anchor="middle" x="164.5" y="-45.5" font-family="Helvetica,sans-Serif" font-size="10.00">hal::percent::min</text>
</a>
</g>
</g>
<!-- Node1&#45;&gt;Node5 -->
<g id="edge4" class="edge">
<title>Node1&#45;&gt;Node5</title>
<path fill="none" stroke="midnightblue" d="M71.2,-48C83.49,-48 97.61,-48 111.04,-48"/>
<polygon fill="midnightblue" stroke="midnightblue" points="111.14,-51.5 121.14,-48 111.14,-44.5 111.14,-51.5"/>
</g>
<!-- Node7 -->
<g id="node7" class="node">
<title>Node7</title>
<g id="a_node7"><a xlink:href="classhal_1_1percent.html#a14730b3658d01e045b69c762f8d7881b" target="_top" xlink:title="Get raw integral value.">
<polygon fill="white" stroke="black" points="107,-0.5 107,-19.5 222,-19.5 222,-0.5 107,-0.5"/>
<text text-anchor="middle" x="164.5" y="-7.5" font-family="Helvetica,sans-Serif" font-size="10.00">hal::percent::raw_value</text>
</a>
</g>
</g>
<!-- Node1&#45;&gt;Node7 -->
<g id="edge7" class="edge">
<title>Node1&#45;&gt;Node7</title>
<path fill="none" stroke="midnightblue" d="M68.55,-38.41C84.64,-33.6 104.34,-27.7 121.62,-22.53"/>
<polygon fill="midnightblue" stroke="midnightblue" points="122.89,-25.81 131.46,-19.59 120.88,-19.1 122.89,-25.81"/>
</g>
<!-- Node3 -->
<g id="node3" class="node">
<title>Node3</title>
<g id="a_node3"><a xlink:href="classhal_1_1percent.html#ac47af31e37f0680bdefe136ee619ef9d" target="_top" xlink:title="Construct 0% percent object.">
<polygon fill="white" stroke="black" points="261.5,-57.5 261.5,-76.5 364.5,-76.5 364.5,-57.5 261.5,-57.5"/>
<text text-anchor="middle" x="313" y="-64.5" font-family="Helvetica,sans-Serif" font-size="10.00">hal::percent::percent</text>
</a>
</g>
</g>
<!-- Node2&#45;&gt;Node3 -->
<g id="edge2" class="edge">
<title>Node2&#45;&gt;Node3</title>
<path fill="none" stroke="midnightblue" d="M209.06,-80.35C222.29,-78.63 237.08,-76.72 251.24,-74.88"/>
<polygon fill="midnightblue" stroke="midnightblue" points="251.93,-78.32 261.39,-73.56 251.03,-71.38 251.93,-78.32"/>
</g>
<!-- Node4 -->
<g id="node4" class="node">
<title>Node4</title>
<g id="a_node4"><a xlink:href="classhal_1_1percent.html#a3ba7db7f6ed4a72c9b5014f4b193fed0" target="_top" xlink:title="Get the 100% value in its raw representation.">
<polygon fill="white" stroke="black" points="258,-95.5 258,-114.5 368,-114.5 368,-95.5 258,-95.5"/>
<text text-anchor="middle" x="313" y="-102.5" font-family="Helvetica,sans-Serif" font-size="10.00">hal::percent::raw_max</text>
</a>
</g>
</g>
<!-- Node2&#45;&gt;Node4 -->
<g id="edge3" class="edge">
<title>Node2&#45;&gt;Node4</title>
<path fill="none" stroke="midnightblue" d="M209.06,-91.65C221.29,-93.24 234.85,-94.99 248.01,-96.7"/>
<polygon fill="midnightblue" stroke="midnightblue" points="247.6,-100.18 257.96,-97.99 248.5,-93.23 247.6,-100.18"/>
</g>
<!-- Node5&#45;&gt;Node3 -->
<g id="edge5" class="edge">
<title>Node5&#45;&gt;Node3</title>
<path fill="none" stroke="midnightblue" d="M207.87,-53.5C221.47,-55.26 236.8,-57.25 251.44,-59.15"/>
<polygon fill="midnightblue" stroke="midnightblue" points="251.06,-62.63 261.43,-60.44 251.96,-55.68 251.06,-62.63"/>
</g>
<!-- Node6 -->
<g id="node6" class="node">
<title>Node6</title>
<g id="a_node6"><a xlink:href="classhal_1_1percent.html#a36a2265034230d77794566fe966df7e1" target="_top" xlink:title="Get the &#45;100% value in its raw representation.">
<polygon fill="white" stroke="black" points="259.5,-19.5 259.5,-38.5 366.5,-38.5 366.5,-19.5 259.5,-19.5"/>
<text text-anchor="middle" x="313" y="-26.5" font-family="Helvetica,sans-Serif" font-size="10.00">hal::percent::raw_min</text>
</a>
</g>
</g>
<!-- Node5&#45;&gt;Node6 -->
<g id="edge6" class="edge">
<title>Node5&#45;&gt;Node6</title>
<path fill="none" stroke="midnightblue" d="M207.87,-42.5C220.79,-40.83 235.28,-38.95 249.25,-37.14"/>
<polygon fill="midnightblue" stroke="midnightblue" points="249.83,-40.59 259.3,-35.83 248.93,-33.65 249.83,-40.59"/>
</g>
</g>
</svg>
