<?xml version="1.0" encoding="UTF-8" standalone="no"?>
<!DOCTYPE svg PUBLIC "-//W3C//DTD SVG 1.1//EN"
 "http://www.w3.org/Graphics/SVG/1.1/DTD/svg11.dtd">
<!-- Generated by graphviz version 3.0.0 (20220413.0242)
 -->
<!-- Title: Graphical Class Hierarchy Pages: 1 -->
<svg width="188pt" height="66pt"
 viewBox="0.00 0.00 188.00 66.00" xmlns="http://www.w3.org/2000/svg" xmlns:xlink="http://www.w3.org/1999/xlink">
<g id="graph0" class="graph" transform="scale(1 1) rotate(0) translate(4 62)">
<title>Graphical Class Hierarchy</title>
<polygon fill="white" stroke="transparent" points="-4,4 -4,-62 184,-62 184,4 -4,4"/>
<!-- Node0 -->
<g id="node1" class="node">
<title>Node0</title>
<g id="a_node1"><a xlink:href="classhal_1_1servo.html" target="_top" xlink:title="Hardware abstraction for closed loop positional rotary and linear actuators.">
<polygon fill="white" stroke="black" points="0,-19.5 0,-38.5 58,-38.5 58,-19.5 0,-19.5"/>
<text text-anchor="middle" x="29" y="-26.5" font-family="Helvetica,sans-Serif" font-size="10.00">hal::servo</text>
</a>
</g>
</g>
<!-- Node1 -->
<g id="node2" class="node">
<title>Node1</title>
<g id="a_node2"><a xlink:href="structhal_1_1mock_1_1servo.html" target="_top" xlink:title="mock servo implementation for use in unit tests and simulations.">
<polygon fill="white" stroke="black" points="94,-38.5 94,-57.5 180,-57.5 180,-38.5 94,-38.5"/>
<text text-anchor="middle" x="137" y="-45.5" font-family="Helvetica,sans-Serif" font-size="10.00">hal::mock::servo</text>
</a>
</g>
</g>
<!-- Node0&#45;&gt;Node1 -->
<g id="edge1" class="edge">
<title>Node0&#45;&gt;Node1</title>
<path fill="none" stroke="midnightblue" d="M67.99,-35.81C76.35,-37.31 85.24,-38.9 93.76,-40.43"/>
<polygon fill="midnightblue" stroke="midnightblue" points="68.59,-32.36 58.13,-34.04 67.35,-39.25 68.59,-32.36"/>
</g>
<!-- Node2 -->
<g id="node3" class="node">
<title>Node2</title>
<g id="a_node3"><a xlink:href="classhal_1_1rc__servo.html" target="_top" xlink:title="Generic RC servo driver.">
<polygon fill="white" stroke="black" points="101.5,-0.5 101.5,-19.5 172.5,-19.5 172.5,-0.5 101.5,-0.5"/>
<text text-anchor="middle" x="137" y="-7.5" font-family="Helvetica,sans-Serif" font-size="10.00">hal::rc_servo</text>
</a>
</g>
</g>
<!-- Node0&#45;&gt;Node2 -->
<g id="edge2" class="edge">
<title>Node0&#45;&gt;Node2</title>
<path fill="none" stroke="midnightblue" d="M68.16,-22.16C78.98,-20.22 90.69,-18.12 101.3,-16.22"/>
<polygon fill="midnightblue" stroke="midnightblue" points="67.35,-18.75 58.13,-23.96 68.59,-25.64 67.35,-18.75"/>
</g>
</g>
</svg>
