<?xml version="1.0" encoding="UTF-8" standalone="no"?>
<!DOCTYPE svg PUBLIC "-//W3C//DTD SVG 1.1//EN"
 "http://www.w3.org/Graphics/SVG/1.1/DTD/svg11.dtd">
<!-- Generated by graphviz version 3.0.0 (20220413.0242)
 -->
<!-- Title: embed::new_error Pages: 1 -->
<svg width="622pt" height="350pt"
 viewBox="0.00 0.00 622.00 350.00" xmlns="http://www.w3.org/2000/svg" xmlns:xlink="http://www.w3.org/1999/xlink">
<g id="graph0" class="graph" transform="scale(1 1) rotate(0) translate(4 346)">
<title>embed::new_error</title>
<polygon fill="white" stroke="transparent" points="-4,4 -4,-346 618,-346 618,4 -4,4"/>
<!-- Node1 -->
<g id="node1" class="node">
<title>Node1</title>
<g id="a_node1"><a xlink:title=" ">
<polygon fill="#bfbfbf" stroke="black" points="521,-167 521,-186 614,-186 614,-167 521,-167"/>
<text text-anchor="middle" x="567.5" y="-174" font-family="Helvetica,sans-Serif" font-size="10.00">embed::new_error</text>
</a>
</g>
</g>
<!-- Node1&#45;&gt;Node1 -->
<g id="edge11" class="edge">
<title>Node1&#45;&gt;Node1</title>
<path fill="none" stroke="midnightblue" d="M594.01,-195.15C592.9,-200.44 584.06,-204.5 567.5,-204.5 542.26,-204.5 534.97,-195.07 545.61,-186.26"/>
<polygon fill="midnightblue" stroke="midnightblue" points="597.1,-193.52 589.39,-186.26 590.89,-196.74 597.1,-193.52"/>
</g>
<!-- Node2 -->
<g id="node2" class="node">
<title>Node2</title>
<g id="a_node2"><a xlink:href="group__utility.html#gaa1a076554c019239de0fb3e3fb4edcf2" target="_top" xlink:title="Calculate a duty cycle based on a source frequency, target wavelength and a percentage.">
<polygon fill="white" stroke="black" points="368.5,-311.5 368.5,-341.5 481.5,-341.5 481.5,-311.5 368.5,-311.5"/>
<text text-anchor="start" x="376.5" y="-329.5" font-family="Helvetica,sans-Serif" font-size="10.00">embed::calculate_duty</text>
<text text-anchor="middle" x="425" y="-318.5" font-family="Helvetica,sans-Serif" font-size="10.00">_cycle</text>
</a>
</g>
</g>
<!-- Node1&#45;&gt;Node2 -->
<g id="edge1" class="edge">
<title>Node1&#45;&gt;Node2</title>
<path fill="none" stroke="midnightblue" d="M558.61,-195.67C546.52,-222.89 520.96,-272.73 485,-302.5 480.91,-305.88 476.28,-308.84 471.46,-311.42"/>
<polygon fill="midnightblue" stroke="midnightblue" points="561.98,-196.7 562.7,-186.13 555.54,-193.94 561.98,-196.7"/>
</g>
<!-- Node3 -->
<g id="node3" class="node">
<title>Node3</title>
<g id="a_node3"><a xlink:href="classembed_1_1counter__timeout.html#aa5741370521bba1742b8d4080f26ac0d" target="_top" xlink:title="Create a counter_timeout.">
<polygon fill="white" stroke="black" points="365,-262.5 365,-292.5 485,-292.5 485,-262.5 365,-262.5"/>
<text text-anchor="start" x="373" y="-280.5" font-family="Helvetica,sans-Serif" font-size="10.00">embed::counter_timeout</text>
<text text-anchor="middle" x="425" y="-269.5" font-family="Helvetica,sans-Serif" font-size="10.00">::create</text>
</a>
</g>
</g>
<!-- Node1&#45;&gt;Node3 -->
<g id="edge2" class="edge">
<title>Node1&#45;&gt;Node3</title>
<path fill="none" stroke="midnightblue" d="M549.71,-193.34C533.9,-208.64 509.11,-231.23 485,-247.5 477,-252.9 467.9,-257.98 459.28,-262.38"/>
<polygon fill="midnightblue" stroke="midnightblue" points="552.42,-195.58 557.1,-186.08 547.52,-190.59 552.42,-195.58"/>
</g>
<!-- Node5 -->
<g id="node5" class="node">
<title>Node5</title>
<g id="a_node5"><a xlink:href="group__counter.html#ga53e2d568aa13881c4213fe89a2e1c42e" target="_top" xlink:title="Delay execution for a duration of time using a hardware counter.">
<polygon fill="white" stroke="black" points="105,-244 105,-263 178,-263 178,-244 105,-244"/>
<text text-anchor="middle" x="141.5" y="-251" font-family="Helvetica,sans-Serif" font-size="10.00">embed::delay</text>
</a>
</g>
</g>
<!-- Node1&#45;&gt;Node5 -->
<g id="edge7" class="edge">
<title>Node1&#45;&gt;Node5</title>
<path fill="none" stroke="midnightblue" d="M540.91,-191.05C525.25,-199.28 504.54,-208.99 485,-214.5 376.14,-245.2 241.33,-251.83 178.23,-253.19"/>
<polygon fill="midnightblue" stroke="midnightblue" points="542.81,-194 549.95,-186.17 539.48,-187.84 542.81,-194"/>
</g>
<!-- Node7 -->
<g id="node7" class="node">
<title>Node7</title>
<g id="a_node7"><a xlink:href="group__utility.html#gafa1bc584612147c23f340cfd2786199c" target="_top" xlink:title="Map an target value [x] from an input range [a,b] to an output range [c,d].">
<polygon fill="white" stroke="black" points="390.5,-186 390.5,-205 459.5,-205 459.5,-186 390.5,-186"/>
<text text-anchor="middle" x="425" y="-193" font-family="Helvetica,sans-Serif" font-size="10.00">embed::map</text>
</a>
</g>
</g>
<!-- Node1&#45;&gt;Node7 -->
<g id="edge8" class="edge">
<title>Node1&#45;&gt;Node7</title>
<path fill="none" stroke="midnightblue" d="M510.89,-184.02C493.63,-186.35 475.12,-188.86 459.82,-190.93"/>
<polygon fill="midnightblue" stroke="midnightblue" points="511.44,-187.48 520.88,-182.67 510.5,-180.54 511.44,-187.48"/>
</g>
<!-- Node8 -->
<g id="node8" class="node">
<title>Node8</title>
<g id="a_node8"><a xlink:href="group__utility.html#ga4d83f2b0d5ca7f22c7170e2999018fc7" target="_top" xlink:title="Perform multiply operation and return an error code std::errc::result_out_of_range if the two values ...">
<polygon fill="white" stroke="black" points="383.5,-148 383.5,-167 466.5,-167 466.5,-148 383.5,-148"/>
<text text-anchor="middle" x="425" y="-155" font-family="Helvetica,sans-Serif" font-size="10.00">embed::multiply</text>
</a>
</g>
</g>
<!-- Node1&#45;&gt;Node8 -->
<g id="edge9" class="edge">
<title>Node1&#45;&gt;Node8</title>
<path fill="none" stroke="midnightblue" d="M510.85,-168.97C496.09,-166.98 480.44,-164.86 466.65,-163"/>
<polygon fill="midnightblue" stroke="midnightblue" points="510.5,-172.46 520.88,-170.33 511.44,-165.52 510.5,-172.46"/>
</g>
<!-- Node10 -->
<g id="node10" class="node">
<title>Node10</title>
<g id="a_node10"><a xlink:href="classembed_1_1counter__timeout.html#a0e0ca951312cdae3cd016e8984eff74b" target="_top" xlink:title="Call this object to check if it has timed out.">
<polygon fill="white" stroke="black" points="365,-98.5 365,-128.5 485,-128.5 485,-98.5 365,-98.5"/>
<text text-anchor="start" x="373" y="-116.5" font-family="Helvetica,sans-Serif" font-size="10.00">embed::counter_timeout</text>
<text text-anchor="middle" x="425" y="-105.5" font-family="Helvetica,sans-Serif" font-size="10.00">::operator()</text>
</a>
</g>
</g>
<!-- Node1&#45;&gt;Node10 -->
<g id="edge12" class="edge">
<title>Node1&#45;&gt;Node10</title>
<path fill="none" stroke="midnightblue" d="M537.4,-162.63C521.91,-155.32 502.48,-146.28 485,-138.5 477.58,-135.2 469.59,-131.75 461.97,-128.5"/>
<polygon fill="midnightblue" stroke="midnightblue" points="535.96,-165.82 546.49,-166.93 538.95,-159.49 535.96,-165.82"/>
</g>
<!-- Node11 -->
<g id="node11" class="node">
<title>Node11</title>
<g id="a_node11"><a xlink:href="classembed_1_1spy__handler.html#a9f556b97927d7d7083bea2fa201cd8be" target="_top" xlink:title="Record the arguments of a function being spied on.">
<polygon fill="white" stroke="black" points="374,-49.5 374,-79.5 476,-79.5 476,-49.5 374,-49.5"/>
<text text-anchor="start" x="382" y="-67.5" font-family="Helvetica,sans-Serif" font-size="10.00">embed::spy_handler</text>
<text text-anchor="middle" x="425" y="-56.5" font-family="Helvetica,sans-Serif" font-size="10.00">::record</text>
</a>
</g>
</g>
<!-- Node1&#45;&gt;Node11 -->
<g id="edge13" class="edge">
<title>Node1&#45;&gt;Node11</title>
<path fill="none" stroke="midnightblue" d="M553.81,-158.68C539.14,-139.19 513.37,-108.12 485,-88.5 480.18,-85.17 474.83,-82.18 469.37,-79.55"/>
<polygon fill="midnightblue" stroke="midnightblue" points="550.99,-160.75 559.73,-166.74 556.63,-156.61 550.99,-160.75"/>
</g>
<!-- Node12 -->
<g id="node12" class="node">
<title>Node12</title>
<g id="a_node12"><a xlink:href="classembed_1_1can__network.html#a3f2befcc28d123bb84135e6b0f89a5aa" target="_top" xlink:title="Associate a can id with a node in the can network.">
<polygon fill="white" stroke="black" points="369.5,-0.5 369.5,-30.5 480.5,-30.5 480.5,-0.5 369.5,-0.5"/>
<text text-anchor="start" x="377.5" y="-18.5" font-family="Helvetica,sans-Serif" font-size="10.00">embed::can_network</text>
<text text-anchor="middle" x="425" y="-7.5" font-family="Helvetica,sans-Serif" font-size="10.00">::register_message_id</text>
</a>
</g>
</g>
<!-- Node1&#45;&gt;Node12 -->
<g id="edge14" class="edge">
<title>Node1&#45;&gt;Node12</title>
<path fill="none" stroke="midnightblue" d="M559.69,-157.29C548.43,-128.08 523.31,-72.45 485,-39.5 481.06,-36.11 476.58,-33.16 471.88,-30.59"/>
<polygon fill="midnightblue" stroke="midnightblue" points="556.44,-158.6 563.21,-166.76 563.01,-156.17 556.44,-158.6"/>
</g>
<!-- Node4 -->
<g id="node4" class="node">
<title>Node4</title>
<g id="a_node4"><a xlink:href="group__counter.html#ga4f1edcd06bf52209d5293e54d0d1beb6" target="_top" xlink:title="Create a timeout object based on embed::counter.">
<polygon fill="white" stroke="black" points="214,-265 214,-284 329,-284 329,-265 214,-265"/>
<text text-anchor="middle" x="271.5" y="-272" font-family="Helvetica,sans-Serif" font-size="10.00">embed::create_timeout</text>
</a>
</g>
</g>
<!-- Node3&#45;&gt;Node4 -->
<g id="edge3" class="edge">
<title>Node3&#45;&gt;Node4</title>
<path fill="none" stroke="midnightblue" d="M354.93,-276.13C346.29,-275.96 337.53,-275.79 329.11,-275.62"/>
<polygon fill="midnightblue" stroke="midnightblue" points="354.92,-279.63 364.99,-276.33 355.06,-272.63 354.92,-279.63"/>
</g>
<!-- Node4&#45;&gt;Node5 -->
<g id="edge4" class="edge">
<title>Node4&#45;&gt;Node5</title>
<path fill="none" stroke="midnightblue" d="M203.94,-263.58C195.04,-262.12 186.2,-260.67 178.12,-259.34"/>
<polygon fill="midnightblue" stroke="midnightblue" points="203.55,-267.06 213.98,-265.23 204.68,-260.16 203.55,-267.06"/>
</g>
<!-- Node5&#45;&gt;Node5 -->
<g id="edge5" class="edge">
<title>Node5&#45;&gt;Node5</title>
<path fill="none" stroke="midnightblue" d="M161.13,-272.9C159.82,-277.81 153.27,-281.5 141.5,-281.5 122.66,-281.5 117.21,-272.07 125.16,-263.26"/>
<polygon fill="midnightblue" stroke="midnightblue" points="164.38,-271.59 157.84,-263.26 157.76,-273.85 164.38,-271.59"/>
</g>
<!-- Node6 -->
<g id="node6" class="node">
<title>Node6</title>
<g id="a_node6"><a xlink:href="group__serial.html#ga56439487351e68f734fdf9b6330da4d2" target="_top" xlink:title="Read bytes from a serial port.">
<polygon fill="white" stroke="black" points="0,-244 0,-263 69,-263 69,-244 0,-244"/>
<text text-anchor="middle" x="34.5" y="-251" font-family="Helvetica,sans-Serif" font-size="10.00">embed::read</text>
</a>
</g>
</g>
<!-- Node5&#45;&gt;Node6 -->
<g id="edge6" class="edge">
<title>Node5&#45;&gt;Node6</title>
<path fill="none" stroke="midnightblue" d="M94.7,-253.5C86.14,-253.5 77.35,-253.5 69.24,-253.5"/>
<polygon fill="midnightblue" stroke="midnightblue" points="94.95,-257 104.95,-253.5 94.95,-250 94.95,-257"/>
</g>
<!-- Node9 -->
<g id="node9" class="node">
<title>Node9</title>
<g id="a_node9"><a xlink:href="group__utility.html#gaa024ea76ffc0034560ac1548c1b7e581" target="_top" xlink:title="Scale up a frequency by an integer factor.">
<polygon fill="white" stroke="black" points="227,-148 227,-167 316,-167 316,-148 227,-148"/>
<text text-anchor="middle" x="271.5" y="-155" font-family="Helvetica,sans-Serif" font-size="10.00">embed::operator*</text>
</a>
</g>
</g>
<!-- Node8&#45;&gt;Node9 -->
<g id="edge10" class="edge">
<title>Node8&#45;&gt;Node9</title>
<path fill="none" stroke="midnightblue" d="M373.36,-157.5C354.82,-157.5 334.01,-157.5 316.13,-157.5"/>
<polygon fill="midnightblue" stroke="midnightblue" points="373.4,-161 383.4,-157.5 373.4,-154 373.4,-161"/>
</g>
</g>
</svg>
