<?xml version="1.0" encoding="UTF-8" standalone="no"?>
<!DOCTYPE svg PUBLIC "-//W3C//DTD SVG 1.1//EN"
 "http://www.w3.org/Graphics/SVG/1.1/DTD/svg11.dtd">
<!-- Generated by graphviz version 3.0.0 (20220413.0242)
 -->
<!-- Title: hal::new_error Pages: 1 -->
<svg width="562pt" height="340pt"
 viewBox="0.00 0.00 562.00 340.00" xmlns="http://www.w3.org/2000/svg" xmlns:xlink="http://www.w3.org/1999/xlink">
<g id="graph0" class="graph" transform="scale(1 1) rotate(0) translate(4 336)">
<title>hal::new_error</title>
<polygon fill="white" stroke="transparent" points="-4,4 -4,-336 558,-336 558,4 -4,4"/>
<!-- Node1 -->
<g id="node1" class="node">
<title>Node1</title>
<g id="a_node1"><a xlink:title=" ">
<polygon fill="#bfbfbf" stroke="black" points="477,-157 477,-176 554,-176 554,-157 477,-157"/>
<text text-anchor="middle" x="515.5" y="-164" font-family="Helvetica,sans-Serif" font-size="10.00">hal::new_error</text>
</a>
</g>
</g>
<!-- Node1&#45;&gt;Node1 -->
<g id="edge11" class="edge">
<title>Node1&#45;&gt;Node1</title>
<path fill="none" stroke="midnightblue" d="M540.8,-185.53C539.42,-190.63 530.99,-194.5 515.5,-194.5 491.33,-194.5 484.34,-185.07 494.54,-176.26"/>
<polygon fill="midnightblue" stroke="midnightblue" points="543.87,-183.83 536.46,-176.26 537.53,-186.8 543.87,-183.83"/>
</g>
<!-- Node2 -->
<g id="node2" class="node">
<title>Node2</title>
<g id="a_node2"><a xlink:href="group__utility.html#ga5a437ca491b7bb961940ac21da71d2a1" target="_top" xlink:title="Calculate a duty cycle based on a source frequency, target wavelength and a percentage.">
<polygon fill="white" stroke="black" points="330,-301.5 330,-331.5 426,-331.5 426,-301.5 330,-301.5"/>
<text text-anchor="start" x="338" y="-319.5" font-family="Helvetica,sans-Serif" font-size="10.00">hal::calculate_duty</text>
<text text-anchor="middle" x="378" y="-308.5" font-family="Helvetica,sans-Serif" font-size="10.00">_cycle</text>
</a>
</g>
</g>
<!-- Node1&#45;&gt;Node2 -->
<g id="edge1" class="edge">
<title>Node1&#45;&gt;Node2</title>
<path fill="none" stroke="midnightblue" d="M507.95,-185.76C497.74,-213.09 475.54,-263.05 441,-292.5 436.61,-296.24 431.57,-299.44 426.3,-302.16"/>
<polygon fill="midnightblue" stroke="midnightblue" points="511.31,-186.77 511.38,-176.18 504.72,-184.41 511.31,-186.77"/>
</g>
<!-- Node3 -->
<g id="node3" class="node">
<title>Node3</title>
<g id="a_node3"><a xlink:href="classhal_1_1counter__timeout.html#a6ee789453ce4aaddee20f61e835c1bb5" target="_top" xlink:title="Create a counter_timeout.">
<polygon fill="white" stroke="black" points="326,-252.5 326,-282.5 430,-282.5 430,-252.5 326,-252.5"/>
<text text-anchor="start" x="334" y="-270.5" font-family="Helvetica,sans-Serif" font-size="10.00">hal::counter_timeout</text>
<text text-anchor="middle" x="378" y="-259.5" font-family="Helvetica,sans-Serif" font-size="10.00">::create</text>
</a>
</g>
</g>
<!-- Node1&#45;&gt;Node3 -->
<g id="edge2" class="edge">
<title>Node1&#45;&gt;Node3</title>
<path fill="none" stroke="midnightblue" d="M499.34,-184.02C485.33,-199.47 463.34,-221.91 441,-237.5 433.06,-243.04 423.93,-248.08 415.17,-252.38"/>
<polygon fill="midnightblue" stroke="midnightblue" points="502.23,-186.03 506.26,-176.24 497,-181.38 502.23,-186.03"/>
</g>
<!-- Node5 -->
<g id="node5" class="node">
<title>Node5</title>
<g id="a_node5"><a xlink:href="group__counter.html#gad6b2dea2bf157a3df06253aac6354586" target="_top" xlink:title="Delay execution for a duration of time using a hardware counter.">
<polygon fill="white" stroke="black" points="89,-234 89,-253 145,-253 145,-234 89,-234"/>
<text text-anchor="middle" x="117" y="-241" font-family="Helvetica,sans-Serif" font-size="10.00">hal::delay</text>
</a>
</g>
</g>
<!-- Node1&#45;&gt;Node5 -->
<g id="edge7" class="edge">
<title>Node1&#45;&gt;Node5</title>
<path fill="none" stroke="midnightblue" d="M491.05,-181.37C477.06,-189.53 458.62,-199.07 441,-204.5 334.92,-237.16 201.39,-242.66 145.04,-243.45"/>
<polygon fill="midnightblue" stroke="midnightblue" points="493.2,-184.16 499.97,-176.01 489.6,-178.16 493.2,-184.16"/>
</g>
<!-- Node7 -->
<g id="node7" class="node">
<title>Node7</title>
<g id="a_node7"><a xlink:href="group__utility.html#ga77d31febabe2a57097ff3777f8d0fa9e" target="_top" xlink:title="Map an target value [x] from an input range [a,b] to an output range [c,d].">
<polygon fill="white" stroke="black" points="351.5,-176 351.5,-195 404.5,-195 404.5,-176 351.5,-176"/>
<text text-anchor="middle" x="378" y="-183" font-family="Helvetica,sans-Serif" font-size="10.00">hal::map</text>
</a>
</g>
</g>
<!-- Node1&#45;&gt;Node7 -->
<g id="edge8" class="edge">
<title>Node1&#45;&gt;Node7</title>
<path fill="none" stroke="midnightblue" d="M466.74,-173.2C445.8,-176.13 422.05,-179.46 404.55,-181.92"/>
<polygon fill="midnightblue" stroke="midnightblue" points="467.34,-176.65 476.76,-171.79 466.37,-169.72 467.34,-176.65"/>
</g>
<!-- Node8 -->
<g id="node8" class="node">
<title>Node8</title>
<g id="a_node8"><a xlink:href="group__utility.html#ga1a1854d7dd6cd69a1f09b4aba350f86a" target="_top" xlink:title="Perform multiply operation and return an error code std::errc::result_out_of_range if the two values ...">
<polygon fill="white" stroke="black" points="344.5,-138 344.5,-157 411.5,-157 411.5,-138 344.5,-138"/>
<text text-anchor="middle" x="378" y="-145" font-family="Helvetica,sans-Serif" font-size="10.00">hal::multiply</text>
</a>
</g>
</g>
<!-- Node1&#45;&gt;Node8 -->
<g id="edge9" class="edge">
<title>Node1&#45;&gt;Node8</title>
<path fill="none" stroke="midnightblue" d="M466.67,-159.79C448.56,-157.25 428.37,-154.42 411.94,-152.12"/>
<polygon fill="midnightblue" stroke="midnightblue" points="466.37,-163.28 476.76,-161.21 467.34,-156.35 466.37,-163.28"/>
</g>
<!-- Node10 -->
<g id="node10" class="node">
<title>Node10</title>
<g id="a_node10"><a xlink:href="classhal_1_1counter__timeout.html#a6ff4223b045d65de5bab557c0648c3a3" target="_top" xlink:title="Call this object to check if it has timed out.">
<polygon fill="white" stroke="black" points="326,-88.5 326,-118.5 430,-118.5 430,-88.5 326,-88.5"/>
<text text-anchor="start" x="334" y="-106.5" font-family="Helvetica,sans-Serif" font-size="10.00">hal::counter_timeout</text>
<text text-anchor="middle" x="378" y="-95.5" font-family="Helvetica,sans-Serif" font-size="10.00">::operator()</text>
</a>
</g>
</g>
<!-- Node1&#45;&gt;Node10 -->
<g id="edge12" class="edge">
<title>Node1&#45;&gt;Node10</title>
<path fill="none" stroke="midnightblue" d="M488.22,-152.15C474.33,-144.76 456.91,-135.8 441,-128.5 433.62,-125.11 425.63,-121.71 417.93,-118.55"/>
<polygon fill="midnightblue" stroke="midnightblue" points="486.74,-155.33 497.2,-156.97 490.05,-149.16 486.74,-155.33"/>
</g>
<!-- Node11 -->
<g id="node11" class="node">
<title>Node11</title>
<g id="a_node11"><a xlink:href="classhal_1_1spy__handler.html#a2150472616eb67010951cfc7a4fbe9da" target="_top" xlink:title="Record the arguments of a function being spied on.">
<polygon fill="white" stroke="black" points="319.5,-50 319.5,-69 436.5,-69 436.5,-50 319.5,-50"/>
<text text-anchor="middle" x="378" y="-57" font-family="Helvetica,sans-Serif" font-size="10.00">hal::spy_handler::record</text>
</a>
</g>
</g>
<!-- Node1&#45;&gt;Node11 -->
<g id="edge13" class="edge">
<title>Node1&#45;&gt;Node11</title>
<path fill="none" stroke="midnightblue" d="M503.81,-148.24C491.22,-128.3 468.5,-96.76 441,-78.5 435.19,-74.64 428.55,-71.53 421.83,-69.04"/>
<polygon fill="midnightblue" stroke="midnightblue" points="500.95,-150.28 509.15,-157 506.93,-146.64 500.95,-150.28"/>
</g>
<!-- Node12 -->
<g id="node12" class="node">
<title>Node12</title>
<g id="a_node12"><a xlink:href="classhal_1_1can__network.html#a13691b16cb49b9fb2317cbc0f57058a2" target="_top" xlink:title="Associate a can id with a node in the can network.">
<polygon fill="white" stroke="black" points="315,-0.5 315,-30.5 441,-30.5 441,-0.5 315,-0.5"/>
<text text-anchor="start" x="323" y="-18.5" font-family="Helvetica,sans-Serif" font-size="10.00">hal::can_network::register</text>
<text text-anchor="middle" x="378" y="-7.5" font-family="Helvetica,sans-Serif" font-size="10.00">_message_id</text>
</a>
</g>
</g>
<!-- Node1&#45;&gt;Node12 -->
<g id="edge14" class="edge">
<title>Node1&#45;&gt;Node12</title>
<path fill="none" stroke="midnightblue" d="M507.89,-147.3C497.61,-120.06 475.33,-70.19 441,-40.5 436.61,-36.7 431.57,-33.44 426.3,-30.64"/>
<polygon fill="midnightblue" stroke="midnightblue" points="504.66,-148.65 511.35,-156.86 511.24,-146.26 504.66,-148.65"/>
</g>
<!-- Node4 -->
<g id="node4" class="node">
<title>Node4</title>
<g id="a_node4"><a xlink:href="group__counter.html#ga3fb156fd09b7bff2df7c0fb36b7a1357" target="_top" xlink:title="Create a timeout object based on hal::counter.">
<polygon fill="white" stroke="black" points="181,-255 181,-274 279,-274 279,-255 181,-255"/>
<text text-anchor="middle" x="230" y="-262" font-family="Helvetica,sans-Serif" font-size="10.00">hal::create_timeout</text>
</a>
</g>
</g>
<!-- Node3&#45;&gt;Node4 -->
<g id="edge3" class="edge">
<title>Node3&#45;&gt;Node4</title>
<path fill="none" stroke="midnightblue" d="M315.84,-266.24C303.65,-265.99 291.02,-265.73 279.34,-265.49"/>
<polygon fill="midnightblue" stroke="midnightblue" points="315.87,-269.74 325.94,-266.45 316.01,-262.75 315.87,-269.74"/>
</g>
<!-- Node4&#45;&gt;Node5 -->
<g id="edge4" class="edge">
<title>Node4&#45;&gt;Node5</title>
<path fill="none" stroke="midnightblue" d="M171.1,-253.55C161.99,-251.82 152.98,-250.12 145.03,-248.61"/>
<polygon fill="midnightblue" stroke="midnightblue" points="170.48,-256.99 180.96,-255.41 171.78,-250.11 170.48,-256.99"/>
</g>
<!-- Node5&#45;&gt;Node5 -->
<g id="edge5" class="edge">
<title>Node5&#45;&gt;Node5</title>
<path fill="none" stroke="midnightblue" d="M133.67,-262.9C132.55,-267.81 127,-271.5 117,-271.5 101,-271.5 96.38,-262.07 103.13,-253.26"/>
<polygon fill="midnightblue" stroke="midnightblue" points="137.02,-261.89 130.87,-253.26 130.29,-263.84 137.02,-261.89"/>
</g>
<!-- Node6 -->
<g id="node6" class="node">
<title>Node6</title>
<g id="a_node6"><a xlink:href="group__serial.html#ga62a11b4820816132ad98cc6cbdc97725" target="_top" xlink:title="Read bytes from a serial port.">
<polygon fill="white" stroke="black" points="0,-234 0,-253 53,-253 53,-234 0,-234"/>
<text text-anchor="middle" x="26.5" y="-241" font-family="Helvetica,sans-Serif" font-size="10.00">hal::read</text>
</a>
</g>
</g>
<!-- Node5&#45;&gt;Node6 -->
<g id="edge6" class="edge">
<title>Node5&#45;&gt;Node6</title>
<path fill="none" stroke="midnightblue" d="M78.73,-243.5C70.12,-243.5 61.14,-243.5 53.16,-243.5"/>
<polygon fill="midnightblue" stroke="midnightblue" points="78.97,-247 88.97,-243.5 78.97,-240 78.97,-247"/>
</g>
<!-- Node9 -->
<g id="node9" class="node">
<title>Node9</title>
<g id="a_node9"><a xlink:href="group__utility.html#gafa189898df75a983e57b4dab591a7746" target="_top" xlink:title="Scale up a frequency by an integer factor.">
<polygon fill="white" stroke="black" points="193.5,-138 193.5,-157 266.5,-157 266.5,-138 193.5,-138"/>
<text text-anchor="middle" x="230" y="-145" font-family="Helvetica,sans-Serif" font-size="10.00">hal::operator*</text>
</a>
</g>
</g>
<!-- Node8&#45;&gt;Node9 -->
<g id="edge10" class="edge">
<title>Node8&#45;&gt;Node9</title>
<path fill="none" stroke="midnightblue" d="M334.1,-147.5C312.67,-147.5 287.06,-147.5 266.72,-147.5"/>
<polygon fill="midnightblue" stroke="midnightblue" points="334.23,-151 344.23,-147.5 334.23,-144 334.23,-151"/>
</g>
</g>
</svg>
