<?xml version="1.0" encoding="UTF-8" standalone="no"?>
<!DOCTYPE svg PUBLIC "-//W3C//DTD SVG 1.1//EN"
 "http://www.w3.org/Graphics/SVG/1.1/DTD/svg11.dtd">
<!-- Generated by graphviz version 3.0.0 (20220413.0242)
 -->
<!-- Title: hal::mock::pwm Pages: 1 -->
<svg width="343pt" height="106pt"
 viewBox="0.00 0.00 343.00 106.00" xmlns="http://www.w3.org/2000/svg" xmlns:xlink="http://www.w3.org/1999/xlink">
<g id="graph0" class="graph" transform="scale(1 1) rotate(0) translate(4 102)">
<title>hal::mock::pwm</title>
<polygon fill="white" stroke="transparent" points="-4,4 -4,-102 339,-102 339,4 -4,4"/>
<!-- Node1 -->
<g id="node1" class="node">
<title>Node1</title>
<g id="a_node1"><a xlink:title="Mock pwm implementation for use in unit tests and simulations with spy functions for configure() and ...">
<polygon fill="#bfbfbf" stroke="black" points="100,-0.5 100,-19.5 183,-19.5 183,-0.5 100,-0.5"/>
<text text-anchor="middle" x="141.5" y="-7.5" font-family="Helvetica,sans-Serif" font-size="10.00">hal::mock::pwm</text>
</a>
</g>
</g>
<!-- Node2 -->
<g id="node2" class="node">
<title>Node2</title>
<g id="a_node2"><a xlink:href="classhal_1_1pwm.html" target="_top" xlink:title="Pulse Width Modulation (PWM) channel hardware abstraction.">
<polygon fill="white" stroke="black" points="0,-73 0,-92 55,-92 55,-73 0,-73"/>
<text text-anchor="middle" x="27.5" y="-80" font-family="Helvetica,sans-Serif" font-size="10.00">hal::pwm</text>
</a>
</g>
</g>
<!-- Node2&#45;&gt;Node1 -->
<g id="edge1" class="edge">
<title>Node2&#45;&gt;Node1</title>
<path fill="none" stroke="midnightblue" d="M50.24,-67.43C73.26,-53.2 108.12,-31.65 127.41,-19.72"/>
<polygon fill="midnightblue" stroke="midnightblue" points="48.14,-64.62 41.48,-72.86 51.82,-70.57 48.14,-64.62"/>
</g>
<!-- Node3 -->
<g id="node3" class="node">
<title>Node3</title>
<g id="a_node3"><a xlink:href="classhal_1_1spy__handler.html" target="_top" xlink:title=" ">
<polygon fill="white" stroke="black" points="73,-73 73,-92 210,-92 210,-73 73,-73"/>
<text text-anchor="middle" x="141.5" y="-80" font-family="Helvetica,sans-Serif" font-size="10.00">hal::spy_handler&lt; settings &gt;</text>
</a>
</g>
</g>
<!-- Node3&#45;&gt;Node1 -->
<g id="edge2" class="edge">
<title>Node3&#45;&gt;Node1</title>
<path fill="none" stroke="#9a32cd" stroke-dasharray="5,2" d="M141.5,-62.44C141.5,-48.53 141.5,-30.32 141.5,-19.72"/>
<polygon fill="#9a32cd" stroke="#9a32cd" points="138,-62.86 141.5,-72.86 145,-62.86 138,-62.86"/>
<text text-anchor="middle" x="172.5" y="-41" font-family="Helvetica,sans-Serif" font-size="10.00"> spy_configure</text>
</g>
<!-- Node4 -->
<g id="node4" class="node">
<title>Node4</title>
<g id="a_node4"><a xlink:href="classhal_1_1spy__handler.html" target="_top" xlink:title=" ">
<polygon fill="white" stroke="black" points="228,-67.5 228,-97.5 335,-97.5 335,-67.5 228,-67.5"/>
<text text-anchor="start" x="236" y="-85.5" font-family="Helvetica,sans-Serif" font-size="10.00">hal::spy_handler&lt; hal</text>
<text text-anchor="middle" x="281.5" y="-74.5" font-family="Helvetica,sans-Serif" font-size="10.00">::percent &gt;</text>
</a>
</g>
</g>
<!-- Node4&#45;&gt;Node1 -->
<g id="edge3" class="edge">
<title>Node4&#45;&gt;Node1</title>
<path fill="none" stroke="#9a32cd" stroke-dasharray="5,2" d="M250.68,-62.05C237.6,-54.15 222.04,-45.2 207.5,-38 193.63,-31.13 177.57,-24.53 164.77,-19.58"/>
<polygon fill="#9a32cd" stroke="#9a32cd" points="248.93,-65.09 259.29,-67.32 252.59,-59.11 248.93,-65.09"/>
<text text-anchor="middle" x="260" y="-41" font-family="Helvetica,sans-Serif" font-size="10.00"> spy_duty_cycle</text>
</g>
</g>
</svg>
