<?xml version="1.0" encoding="UTF-8" standalone="no"?>
<!DOCTYPE svg PUBLIC "-//W3C//DTD SVG 1.1//EN"
 "http://www.w3.org/Graphics/SVG/1.1/DTD/svg11.dtd">
<!-- Generated by graphviz version 3.0.0 (20220413.0242)
 -->
<!-- Title: hal::mock::motor Pages: 1 -->
<svg width="192pt" height="106pt"
 viewBox="0.00 0.00 192.00 106.00" xmlns="http://www.w3.org/2000/svg" xmlns:xlink="http://www.w3.org/1999/xlink">
<g id="graph0" class="graph" transform="scale(1 1) rotate(0) translate(4 102)">
<title>hal::mock::motor</title>
<polygon fill="white" stroke="transparent" points="-4,4 -4,-102 188,-102 188,4 -4,4"/>
<!-- Node1 -->
<g id="node1" class="node">
<title>Node1</title>
<g id="a_node1"><a xlink:title="Mock motor implementation for use in unit tests and simulations with a spy function for power()">
<polygon fill="#bfbfbf" stroke="black" points="36,-0.5 36,-19.5 123,-19.5 123,-0.5 36,-0.5"/>
<text text-anchor="middle" x="79.5" y="-7.5" font-family="Helvetica,sans-Serif" font-size="10.00">hal::mock::motor</text>
</a>
</g>
</g>
<!-- Node2 -->
<g id="node2" class="node">
<title>Node2</title>
<g id="a_node2"><a xlink:href="classhal_1_1motor.html" target="_top" xlink:title="Hardware abstraction for open loop continuous rotary and linear actuators.">
<polygon fill="white" stroke="black" points="0,-73 0,-92 59,-92 59,-73 0,-73"/>
<text text-anchor="middle" x="29.5" y="-80" font-family="Helvetica,sans-Serif" font-size="10.00">hal::motor</text>
</a>
</g>
</g>
<!-- Node2&#45;&gt;Node1 -->
<g id="edge1" class="edge">
<title>Node2&#45;&gt;Node1</title>
<path fill="none" stroke="midnightblue" d="M41.56,-64.5C51.58,-50.37 65.42,-30.85 73.32,-19.72"/>
<polygon fill="midnightblue" stroke="midnightblue" points="38.56,-62.67 35.63,-72.86 44.27,-66.72 38.56,-62.67"/>
</g>
<!-- Node3 -->
<g id="node3" class="node">
<title>Node3</title>
<g id="a_node3"><a xlink:href="classhal_1_1spy__handler.html" target="_top" xlink:title=" ">
<polygon fill="white" stroke="black" points="77,-67.5 77,-97.5 184,-97.5 184,-67.5 77,-67.5"/>
<text text-anchor="start" x="85" y="-85.5" font-family="Helvetica,sans-Serif" font-size="10.00">hal::spy_handler&lt; hal</text>
<text text-anchor="middle" x="130.5" y="-74.5" font-family="Helvetica,sans-Serif" font-size="10.00">::percent &gt;</text>
</a>
</g>
</g>
<!-- Node3&#45;&gt;Node1 -->
<g id="edge2" class="edge">
<title>Node3&#45;&gt;Node1</title>
<path fill="none" stroke="#9a32cd" stroke-dasharray="5,2" d="M114.23,-59.01C104.62,-45.73 93,-29.66 85.93,-19.89"/>
<polygon fill="#9a32cd" stroke="#9a32cd" points="111.48,-61.18 120.18,-67.23 117.15,-57.08 111.48,-61.18"/>
<text text-anchor="middle" x="131" y="-41" font-family="Helvetica,sans-Serif" font-size="10.00"> spy_power</text>
</g>
</g>
</svg>
