<?xml version="1.0" encoding="UTF-8" standalone="no"?>
<!DOCTYPE svg PUBLIC "-//W3C//DTD SVG 1.1//EN"
 "http://www.w3.org/Graphics/SVG/1.1/DTD/svg11.dtd">
<!-- Generated by graphviz version 3.0.0 (20220413.0242)
 -->
<!-- Title: embed::mock::servo Pages: 1 -->
<svg width="202pt" height="106pt"
 viewBox="0.00 0.00 202.00 106.00" xmlns="http://www.w3.org/2000/svg" xmlns:xlink="http://www.w3.org/1999/xlink">
<g id="graph0" class="graph" transform="scale(1 1) rotate(0) translate(4 102)">
<title>embed::mock::servo</title>
<polygon fill="white" stroke="transparent" points="-4,4 -4,-102 198,-102 198,4 -4,4"/>
<!-- Node1 -->
<g id="node1" class="node">
<title>Node1</title>
<g id="a_node1"><a xlink:title="mock servo implementation for use in unit tests and simulations.">
<polygon fill="#bfbfbf" stroke="black" points="38.5,-0.5 38.5,-19.5 141.5,-19.5 141.5,-0.5 38.5,-0.5"/>
<text text-anchor="middle" x="90" y="-7.5" font-family="Helvetica,sans-Serif" font-size="10.00">embed::mock::servo</text>
</a>
</g>
</g>
<!-- Node2 -->
<g id="node2" class="node">
<title>Node2</title>
<g id="a_node2"><a xlink:href="classembed_1_1servo.html" target="_top" xlink:title="Hardware abstraction for closed loop positional rotary and linear actuators.">
<polygon fill="white" stroke="black" points="0,-73 0,-92 74,-92 74,-73 0,-73"/>
<text text-anchor="middle" x="37" y="-80" font-family="Helvetica,sans-Serif" font-size="10.00">embed::servo</text>
</a>
</g>
</g>
<!-- Node2&#45;&gt;Node1 -->
<g id="edge1" class="edge">
<title>Node2&#45;&gt;Node1</title>
<path fill="none" stroke="midnightblue" d="M49.78,-64.5C60.4,-50.37 75.08,-30.85 83.45,-19.72"/>
<polygon fill="midnightblue" stroke="midnightblue" points="46.71,-62.76 43.5,-72.86 52.31,-66.97 46.71,-62.76"/>
</g>
<!-- Node3 -->
<g id="node3" class="node">
<title>Node3</title>
<g id="a_node3"><a xlink:href="classembed_1_1spy__handler.html" target="_top" xlink:title=" ">
<polygon fill="white" stroke="black" points="92,-67.5 92,-97.5 194,-97.5 194,-67.5 92,-67.5"/>
<text text-anchor="start" x="100" y="-85.5" font-family="Helvetica,sans-Serif" font-size="10.00">embed::spy_handler</text>
<text text-anchor="middle" x="143" y="-74.5" font-family="Helvetica,sans-Serif" font-size="10.00">&lt; embed::percent &gt;</text>
</a>
</g>
</g>
<!-- Node3&#45;&gt;Node1 -->
<g id="edge2" class="edge">
<title>Node3&#45;&gt;Node1</title>
<path fill="none" stroke="#9a32cd" stroke-dasharray="5,2" d="M126.09,-59.01C116.11,-45.73 104.03,-29.66 96.69,-19.89"/>
<polygon fill="#9a32cd" stroke="#9a32cd" points="123.47,-61.34 132.27,-67.23 129.06,-57.14 123.47,-61.34"/>
<text text-anchor="middle" x="146.5" y="-41" font-family="Helvetica,sans-Serif" font-size="10.00"> spy_position</text>
</g>
</g>
</svg>
