<?xml version="1.0" encoding="UTF-8" standalone="no"?>
<!DOCTYPE svg PUBLIC "-//W3C//DTD SVG 1.1//EN"
 "http://www.w3.org/Graphics/SVG/1.1/DTD/svg11.dtd">
<!-- Generated by graphviz version 3.0.0 (20220413.0242)
 -->
<!-- Title: embed::accelerometer::sample Pages: 1 -->
<svg width="120pt" height="206pt"
 viewBox="0.00 0.00 120.00 206.00" xmlns="http://www.w3.org/2000/svg" xmlns:xlink="http://www.w3.org/1999/xlink">
<g id="graph0" class="graph" transform="scale(1 1) rotate(0) translate(4 202)">
<title>embed::accelerometer::sample</title>
<polygon fill="white" stroke="transparent" points="-4,4 -4,-202 116,-202 116,4 -4,4"/>
<!-- Node1 -->
<g id="node1" class="node">
<title>Node1</title>
<g id="a_node1"><a xlink:title="Representation of a sample of accelerometer data.">
<polygon fill="#bfbfbf" stroke="black" points="0,-0.5 0,-30.5 112,-30.5 112,-0.5 0,-0.5"/>
<text text-anchor="start" x="8" y="-18.5" font-family="Helvetica,sans-Serif" font-size="10.00">embed::accelerometer</text>
<text text-anchor="middle" x="56" y="-7.5" font-family="Helvetica,sans-Serif" font-size="10.00">::sample</text>
</a>
</g>
</g>
<!-- Node2 -->
<g id="node2" class="node">
<title>Node2</title>
<g id="a_node2"><a xlink:href="structembed_1_1accelerometer_1_1axis__t.html" target="_top" xlink:title=" ">
<polygon fill="white" stroke="black" points="0,-78.5 0,-108.5 112,-108.5 112,-78.5 0,-78.5"/>
<text text-anchor="start" x="8" y="-96.5" font-family="Helvetica,sans-Serif" font-size="10.00">embed::accelerometer</text>
<text text-anchor="middle" x="56" y="-85.5" font-family="Helvetica,sans-Serif" font-size="10.00">::axis_t</text>
</a>
</g>
</g>
<!-- Node2&#45;&gt;Node1 -->
<g id="edge1" class="edge">
<title>Node2&#45;&gt;Node1</title>
<path fill="none" stroke="#9a32cd" stroke-dasharray="5,2" d="M56,-68.09C56,-55.76 56,-41.22 56,-30.73"/>
<polygon fill="#9a32cd" stroke="#9a32cd" points="52.5,-68.2 56,-78.2 59.5,-68.21 52.5,-68.2"/>
<text text-anchor="middle" x="66" y="-52" font-family="Helvetica,sans-Serif" font-size="10.00"> axis</text>
</g>
<!-- Node3 -->
<g id="node3" class="node">
<title>Node3</title>
<g id="a_node3"><a xlink:href="classembed_1_1percent.html" target="_top" xlink:title="A integer representation of a percentage.">
<polygon fill="white" stroke="black" points="14.5,-178.5 14.5,-197.5 97.5,-197.5 97.5,-178.5 14.5,-178.5"/>
<text text-anchor="middle" x="56" y="-185.5" font-family="Helvetica,sans-Serif" font-size="10.00">embed::percent</text>
</a>
</g>
</g>
<!-- Node3&#45;&gt;Node2 -->
<g id="edge2" class="edge">
<title>Node3&#45;&gt;Node2</title>
<path fill="none" stroke="#9a32cd" stroke-dasharray="5,2" d="M56,-168.29C56,-150.67 56,-124.67 56,-108.7"/>
<polygon fill="#9a32cd" stroke="#9a32cd" points="52.5,-168.46 56,-178.46 59.5,-168.46 52.5,-168.46"/>
<text text-anchor="middle" x="59.5" y="-152" font-family="Helvetica,sans-Serif" font-size="10.00"> x</text>
<text text-anchor="middle" x="59.5" y="-141" font-family="Helvetica,sans-Serif" font-size="10.00">y</text>
<text text-anchor="middle" x="59.5" y="-130" font-family="Helvetica,sans-Serif" font-size="10.00">z</text>
</g>
</g>
</svg>
