<?xml version="1.0" encoding="UTF-8" standalone="no"?>
<!DOCTYPE svg PUBLIC "-//W3C//DTD SVG 1.1//EN"
 "http://www.w3.org/Graphics/SVG/1.1/DTD/svg11.dtd">
<!-- Generated by graphviz version 3.0.0 (20220413.0242)
 -->
<!-- Title: embed::mock::output_pin Pages: 1 -->
<svg width="344pt" height="106pt"
 viewBox="0.00 0.00 343.50 106.00" xmlns="http://www.w3.org/2000/svg" xmlns:xlink="http://www.w3.org/1999/xlink">
<g id="graph0" class="graph" transform="scale(1 1) rotate(0) translate(4 102)">
<title>embed::mock::output_pin</title>
<polygon fill="white" stroke="transparent" points="-4,4 -4,-102 339.5,-102 339.5,4 -4,4"/>
<!-- Node1 -->
<g id="node1" class="node">
<title>Node1</title>
<g id="a_node1"><a xlink:title="mock output pin for use in unit tests and simulations">
<polygon fill="#bfbfbf" stroke="black" points="102.5,-0.5 102.5,-19.5 226.5,-19.5 226.5,-0.5 102.5,-0.5"/>
<text text-anchor="middle" x="164.5" y="-7.5" font-family="Helvetica,sans-Serif" font-size="10.00">embed::mock::output_pin</text>
</a>
</g>
</g>
<!-- Node2 -->
<g id="node2" class="node">
<title>Node2</title>
<g id="a_node2"><a xlink:href="classembed_1_1output__pin.html" target="_top" xlink:title="Digital output pin hardware abstraction.">
<polygon fill="white" stroke="black" points="0,-73 0,-92 95,-92 95,-73 0,-73"/>
<text text-anchor="middle" x="47.5" y="-80" font-family="Helvetica,sans-Serif" font-size="10.00">embed::output_pin</text>
</a>
</g>
</g>
<!-- Node2&#45;&gt;Node1 -->
<g id="edge1" class="edge">
<title>Node2&#45;&gt;Node1</title>
<path fill="none" stroke="midnightblue" d="M70.53,-67.62C94.14,-53.39 130.15,-31.7 150.04,-19.72"/>
<polygon fill="midnightblue" stroke="midnightblue" points="68.61,-64.7 61.85,-72.86 72.22,-70.69 68.61,-64.7"/>
</g>
<!-- Node3 -->
<g id="node3" class="node">
<title>Node3</title>
<g id="a_node3"><a xlink:href="classembed_1_1spy__handler.html" target="_top" xlink:title=" ">
<polygon fill="white" stroke="black" points="113.5,-67.5 113.5,-97.5 215.5,-97.5 215.5,-67.5 113.5,-67.5"/>
<text text-anchor="start" x="121.5" y="-85.5" font-family="Helvetica,sans-Serif" font-size="10.00">embed::spy_handler</text>
<text text-anchor="middle" x="164.5" y="-74.5" font-family="Helvetica,sans-Serif" font-size="10.00">&lt; settings &gt;</text>
</a>
</g>
</g>
<!-- Node3&#45;&gt;Node1 -->
<g id="edge2" class="edge">
<title>Node3&#45;&gt;Node1</title>
<path fill="none" stroke="#9a32cd" stroke-dasharray="5,2" d="M164.5,-57.09C164.5,-44.21 164.5,-29.2 164.5,-19.89"/>
<polygon fill="#9a32cd" stroke="#9a32cd" points="161,-57.23 164.5,-67.23 168,-57.23 161,-57.23"/>
<text text-anchor="middle" x="195.5" y="-41" font-family="Helvetica,sans-Serif" font-size="10.00"> spy_configure</text>
</g>
<!-- Node4 -->
<g id="node4" class="node">
<title>Node4</title>
<g id="a_node4"><a xlink:href="classembed_1_1spy__handler.html" target="_top" xlink:title=" ">
<polygon fill="white" stroke="black" points="233.5,-67.5 233.5,-97.5 335.5,-97.5 335.5,-67.5 233.5,-67.5"/>
<text text-anchor="start" x="241.5" y="-85.5" font-family="Helvetica,sans-Serif" font-size="10.00">embed::spy_handler</text>
<text text-anchor="middle" x="284.5" y="-74.5" font-family="Helvetica,sans-Serif" font-size="10.00">&lt; bool &gt;</text>
</a>
</g>
</g>
<!-- Node4&#45;&gt;Node1 -->
<g id="edge3" class="edge">
<title>Node4&#45;&gt;Node1</title>
<path fill="none" stroke="#9a32cd" stroke-dasharray="5,2" d="M261.71,-60.7C252.47,-52.93 241.41,-44.44 230.5,-38 217.92,-30.57 202.91,-24.26 190.39,-19.61"/>
<polygon fill="#9a32cd" stroke="#9a32cd" points="259.47,-63.38 269.32,-67.27 264.04,-58.09 259.47,-63.38"/>
<text text-anchor="middle" x="267" y="-41" font-family="Helvetica,sans-Serif" font-size="10.00"> spy_level</text>
</g>
</g>
</svg>
