<?xml version="1.0" encoding="UTF-8" standalone="no"?>
<!DOCTYPE svg PUBLIC "-//W3C//DTD SVG 1.1//EN"
 "http://www.w3.org/Graphics/SVG/1.1/DTD/svg11.dtd">
<!-- Generated by graphviz version 3.0.0 (20220413.0242)
 -->
<!-- Title: hal::mock::output_pin Pages: 1 -->
<svg width="381pt" height="95pt"
 viewBox="0.00 0.00 380.50 95.00" xmlns="http://www.w3.org/2000/svg" xmlns:xlink="http://www.w3.org/1999/xlink">
<g id="graph0" class="graph" transform="scale(1 1) rotate(0) translate(4 91)">
<title>hal::mock::output_pin</title>
<polygon fill="white" stroke="transparent" points="-4,4 -4,-91 376.5,-91 376.5,4 -4,4"/>
<!-- Node1 -->
<g id="node1" class="node">
<title>Node1</title>
<g id="a_node1"><a xlink:title="mock output pin for use in unit tests and simulations">
<polygon fill="#bfbfbf" stroke="black" points="112,-0.5 112,-19.5 219,-19.5 219,-0.5 112,-0.5"/>
<text text-anchor="middle" x="165.5" y="-7.5" font-family="Helvetica,sans-Serif" font-size="10.00">hal::mock::output_pin</text>
</a>
</g>
</g>
<!-- Node2 -->
<g id="node2" class="node">
<title>Node2</title>
<g id="a_node2"><a xlink:href="classhal_1_1output__pin.html" target="_top" xlink:title="Digital output pin hardware abstraction.">
<polygon fill="white" stroke="black" points="0,-67.5 0,-86.5 79,-86.5 79,-67.5 0,-67.5"/>
<text text-anchor="middle" x="39.5" y="-74.5" font-family="Helvetica,sans-Serif" font-size="10.00">hal::output_pin</text>
</a>
</g>
</g>
<!-- Node2&#45;&gt;Node1 -->
<g id="edge1" class="edge">
<title>Node2&#45;&gt;Node1</title>
<path fill="none" stroke="midnightblue" d="M65.14,-62.77C90.09,-49.9 127.3,-30.71 148.7,-19.67"/>
<polygon fill="midnightblue" stroke="midnightblue" points="63.51,-59.67 56.23,-67.37 66.72,-65.89 63.51,-59.67"/>
</g>
<!-- Node3 -->
<g id="node3" class="node">
<title>Node3</title>
<g id="a_node3"><a xlink:href="classhal_1_1spy__handler.html" target="_top" xlink:title=" ">
<polygon fill="white" stroke="black" points="97,-67.5 97,-86.5 234,-86.5 234,-67.5 97,-67.5"/>
<text text-anchor="middle" x="165.5" y="-74.5" font-family="Helvetica,sans-Serif" font-size="10.00">hal::spy_handler&lt; settings &gt;</text>
</a>
</g>
</g>
<!-- Node3&#45;&gt;Node1 -->
<g id="edge2" class="edge">
<title>Node3&#45;&gt;Node1</title>
<path fill="none" stroke="#9a32cd" stroke-dasharray="5,2" d="M165.5,-57.04C165.5,-44.67 165.5,-29.12 165.5,-19.63"/>
<polygon fill="#9a32cd" stroke="#9a32cd" points="162,-57.23 165.5,-67.23 169,-57.23 162,-57.23"/>
<text text-anchor="middle" x="196.5" y="-41" font-family="Helvetica,sans-Serif" font-size="10.00"> spy_configure</text>
</g>
<!-- Node4 -->
<g id="node4" class="node">
<title>Node4</title>
<g id="a_node4"><a xlink:href="classhal_1_1spy__handler.html" target="_top" xlink:title=" ">
<polygon fill="white" stroke="black" points="252.5,-67.5 252.5,-86.5 372.5,-86.5 372.5,-67.5 252.5,-67.5"/>
<text text-anchor="middle" x="312.5" y="-74.5" font-family="Helvetica,sans-Serif" font-size="10.00">hal::spy_handler&lt; bool &gt;</text>
</a>
</g>
</g>
<!-- Node4&#45;&gt;Node1 -->
<g id="edge3" class="edge">
<title>Node4&#45;&gt;Node1</title>
<path fill="none" stroke="#9a32cd" stroke-dasharray="5,2" d="M285.79,-63.05C270.07,-55.54 249.76,-46.01 231.5,-38 216.88,-31.58 200.23,-24.78 187.32,-19.6"/>
<polygon fill="#9a32cd" stroke="#9a32cd" points="284.39,-66.27 294.92,-67.44 287.42,-59.96 284.39,-66.27"/>
<text text-anchor="middle" x="275" y="-41" font-family="Helvetica,sans-Serif" font-size="10.00"> spy_level</text>
</g>
</g>
</svg>
