<?xml version="1.0" encoding="UTF-8" standalone="no"?>
<!DOCTYPE svg PUBLIC "-//W3C//DTD SVG 1.1//EN"
 "http://www.w3.org/Graphics/SVG/1.1/DTD/svg11.dtd">
<!-- Generated by graphviz version 3.0.0 (20220413.0242)
 -->
<!-- Title: hal::mock::dac Pages: 1 -->
<svg width="184pt" height="106pt"
 viewBox="0.00 0.00 183.50 106.00" xmlns="http://www.w3.org/2000/svg" xmlns:xlink="http://www.w3.org/1999/xlink">
<g id="graph0" class="graph" transform="scale(1 1) rotate(0) translate(4 102)">
<title>hal::mock::dac</title>
<polygon fill="white" stroke="transparent" points="-4,4 -4,-102 179.5,-102 179.5,4 -4,4"/>
<!-- Node1 -->
<g id="node1" class="node">
<title>Node1</title>
<g id="a_node1"><a xlink:title="Mock dac implementation for use in unit tests and simulations with a spy function for write()">
<polygon fill="#bfbfbf" stroke="black" points="34,-0.5 34,-19.5 112,-19.5 112,-0.5 34,-0.5"/>
<text text-anchor="middle" x="73" y="-7.5" font-family="Helvetica,sans-Serif" font-size="10.00">hal::mock::dac</text>
</a>
</g>
</g>
<!-- Node2 -->
<g id="node2" class="node">
<title>Node2</title>
<g id="a_node2"><a xlink:href="classhal_1_1dac.html" target="_top" xlink:title="Digital to Analog Converter (DAC) hardware abstraction interface.">
<polygon fill="white" stroke="black" points="0,-73 0,-92 50,-92 50,-73 0,-73"/>
<text text-anchor="middle" x="25" y="-80" font-family="Helvetica,sans-Serif" font-size="10.00">hal::dac</text>
</a>
</g>
</g>
<!-- Node2&#45;&gt;Node1 -->
<g id="edge1" class="edge">
<title>Node2&#45;&gt;Node1</title>
<path fill="none" stroke="midnightblue" d="M36.58,-64.5C46.19,-50.37 59.48,-30.85 67.07,-19.72"/>
<polygon fill="midnightblue" stroke="midnightblue" points="33.62,-62.62 30.89,-72.86 39.41,-66.56 33.62,-62.62"/>
</g>
<!-- Node3 -->
<g id="node3" class="node">
<title>Node3</title>
<g id="a_node3"><a xlink:href="classhal_1_1spy__handler.html" target="_top" xlink:title=" ">
<polygon fill="white" stroke="black" points="68.5,-67.5 68.5,-97.5 175.5,-97.5 175.5,-67.5 68.5,-67.5"/>
<text text-anchor="start" x="76.5" y="-85.5" font-family="Helvetica,sans-Serif" font-size="10.00">hal::spy_handler&lt; hal</text>
<text text-anchor="middle" x="122" y="-74.5" font-family="Helvetica,sans-Serif" font-size="10.00">::percent &gt;</text>
</a>
</g>
</g>
<!-- Node3&#45;&gt;Node1 -->
<g id="edge2" class="edge">
<title>Node3&#45;&gt;Node1</title>
<path fill="none" stroke="#9a32cd" stroke-dasharray="5,2" d="M106.37,-59.01C97.14,-45.73 85.97,-29.66 79.18,-19.89"/>
<polygon fill="#9a32cd" stroke="#9a32cd" points="103.5,-61.02 112.08,-67.23 109.25,-57.02 103.5,-61.02"/>
<text text-anchor="middle" x="120" y="-41" font-family="Helvetica,sans-Serif" font-size="10.00"> spy_write</text>
</g>
</g>
</svg>
