<?xml version="1.0" encoding="UTF-8" standalone="no"?>
<!DOCTYPE svg PUBLIC "-//W3C//DTD SVG 1.1//EN"
 "http://www.w3.org/Graphics/SVG/1.1/DTD/svg11.dtd">
<!-- Generated by graphviz version 3.0.0 (20220413.0242)
 -->
<!-- Title: hal::accelerometer::sample Pages: 1 -->
<svg width="103pt" height="206pt"
 viewBox="0.00 0.00 103.00 206.00" xmlns="http://www.w3.org/2000/svg" xmlns:xlink="http://www.w3.org/1999/xlink">
<g id="graph0" class="graph" transform="scale(1 1) rotate(0) translate(4 202)">
<title>hal::accelerometer::sample</title>
<polygon fill="white" stroke="transparent" points="-4,4 -4,-202 99,-202 99,4 -4,4"/>
<!-- Node1 -->
<g id="node1" class="node">
<title>Node1</title>
<g id="a_node1"><a xlink:title="Representation of a sample of accelerometer data.">
<polygon fill="#bfbfbf" stroke="black" points="0,-0.5 0,-30.5 95,-30.5 95,-0.5 0,-0.5"/>
<text text-anchor="start" x="8" y="-18.5" font-family="Helvetica,sans-Serif" font-size="10.00">hal::accelerometer</text>
<text text-anchor="middle" x="47.5" y="-7.5" font-family="Helvetica,sans-Serif" font-size="10.00">::sample</text>
</a>
</g>
</g>
<!-- Node2 -->
<g id="node2" class="node">
<title>Node2</title>
<g id="a_node2"><a xlink:href="structhal_1_1accelerometer_1_1axis__t.html" target="_top" xlink:title=" ">
<polygon fill="white" stroke="black" points="0,-78.5 0,-108.5 95,-108.5 95,-78.5 0,-78.5"/>
<text text-anchor="start" x="8" y="-96.5" font-family="Helvetica,sans-Serif" font-size="10.00">hal::accelerometer</text>
<text text-anchor="middle" x="47.5" y="-85.5" font-family="Helvetica,sans-Serif" font-size="10.00">::axis_t</text>
</a>
</g>
</g>
<!-- Node2&#45;&gt;Node1 -->
<g id="edge1" class="edge">
<title>Node2&#45;&gt;Node1</title>
<path fill="none" stroke="#9a32cd" stroke-dasharray="5,2" d="M47.5,-68.09C47.5,-55.76 47.5,-41.22 47.5,-30.73"/>
<polygon fill="#9a32cd" stroke="#9a32cd" points="44,-68.2 47.5,-78.2 51,-68.21 44,-68.2"/>
<text text-anchor="middle" x="57.5" y="-52" font-family="Helvetica,sans-Serif" font-size="10.00"> axis</text>
</g>
<!-- Node3 -->
<g id="node3" class="node">
<title>Node3</title>
<g id="a_node3"><a xlink:href="classhal_1_1percent.html" target="_top" xlink:title="A integer representation of a percentage.">
<polygon fill="white" stroke="black" points="14.5,-178.5 14.5,-197.5 80.5,-197.5 80.5,-178.5 14.5,-178.5"/>
<text text-anchor="middle" x="47.5" y="-185.5" font-family="Helvetica,sans-Serif" font-size="10.00">hal::percent</text>
</a>
</g>
</g>
<!-- Node3&#45;&gt;Node2 -->
<g id="edge2" class="edge">
<title>Node3&#45;&gt;Node2</title>
<path fill="none" stroke="#9a32cd" stroke-dasharray="5,2" d="M47.5,-168.29C47.5,-150.67 47.5,-124.67 47.5,-108.7"/>
<polygon fill="#9a32cd" stroke="#9a32cd" points="44,-168.46 47.5,-178.46 51,-168.46 44,-168.46"/>
<text text-anchor="middle" x="51" y="-152" font-family="Helvetica,sans-Serif" font-size="10.00"> x</text>
<text text-anchor="middle" x="51" y="-141" font-family="Helvetica,sans-Serif" font-size="10.00">y</text>
<text text-anchor="middle" x="51" y="-130" font-family="Helvetica,sans-Serif" font-size="10.00">z</text>
</g>
</g>
</svg>
