<?xml version="1.0" encoding="UTF-8" standalone="no"?>
<!DOCTYPE svg PUBLIC "-//W3C//DTD SVG 1.1//EN"
 "http://www.w3.org/Graphics/SVG/1.1/DTD/svg11.dtd">
<!-- Generated by graphviz version 3.0.0 (20220413.0242)
 -->
<!-- Title: hal::mock::timer Pages: 1 -->
<svg width="339pt" height="126pt"
 viewBox="0.00 0.00 339.00 126.00" xmlns="http://www.w3.org/2000/svg" xmlns:xlink="http://www.w3.org/1999/xlink">
<g id="graph0" class="graph" transform="scale(1 1) rotate(0) translate(4 122)">
<title>hal::mock::timer</title>
<polygon fill="white" stroke="transparent" points="-4,4 -4,-122 335,-122 335,4 -4,4"/>
<!-- Node1 -->
<g id="node1" class="node">
<title>Node1</title>
<g id="a_node1"><a xlink:title="Mock timer implementation for use in unit tests and simulations with spy functions for schedule(),...">
<polygon fill="#bfbfbf" stroke="black" points="247,-49.5 247,-68.5 331,-68.5 331,-49.5 247,-49.5"/>
<text text-anchor="middle" x="289" y="-56.5" font-family="Helvetica,sans-Serif" font-size="10.00">hal::mock::timer</text>
</a>
</g>
</g>
<!-- Node2 -->
<g id="node2" class="node">
<title>Node2</title>
<g id="a_node2"><a xlink:href="classhal_1_1timer.html" target="_top" xlink:title="Timer hardware abstraction interface.">
<polygon fill="white" stroke="black" points="45,-98.5 45,-117.5 101,-117.5 101,-98.5 45,-98.5"/>
<text text-anchor="middle" x="73" y="-105.5" font-family="Helvetica,sans-Serif" font-size="10.00">hal::timer</text>
</a>
</g>
</g>
<!-- Node2&#45;&gt;Node1 -->
<g id="edge1" class="edge">
<title>Node2&#45;&gt;Node1</title>
<path fill="none" stroke="midnightblue" d="M111.29,-100.18C142.74,-93.5 188.9,-83.49 229,-74 236.2,-72.3 243.87,-70.4 251.22,-68.55"/>
<polygon fill="midnightblue" stroke="midnightblue" points="110.28,-96.82 101.22,-102.31 111.73,-103.67 110.28,-96.82"/>
</g>
<!-- Node3 -->
<g id="node3" class="node">
<title>Node3</title>
<g id="a_node3"><a xlink:title=" ">
<polygon fill="white" stroke="black" points="0,-38.5 0,-79.5 146,-79.5 146,-38.5 0,-38.5"/>
<text text-anchor="start" x="8" y="-67.5" font-family="Helvetica,sans-Serif" font-size="10.00">hal::spy_handler&lt; std</text>
<text text-anchor="start" x="8" y="-56.5" font-family="Helvetica,sans-Serif" font-size="10.00">::function&lt; void(void)</text>
<text text-anchor="middle" x="73" y="-45.5" font-family="Helvetica,sans-Serif" font-size="10.00">&gt;, std::chrono::nanoseconds &gt;</text>
</a>
</g>
</g>
<!-- Node3&#45;&gt;Node1 -->
<g id="edge2" class="edge">
<title>Node3&#45;&gt;Node1</title>
<path fill="none" stroke="#9a32cd" stroke-dasharray="5,2" d="M156.5,-59C187.38,-59 221.14,-59 246.72,-59"/>
<polygon fill="#9a32cd" stroke="#9a32cd" points="156.15,-55.5 146.15,-59 156.15,-62.5 156.15,-55.5"/>
<text text-anchor="middle" x="196.5" y="-62" font-family="Helvetica,sans-Serif" font-size="10.00"> spy_schedule</text>
</g>
<!-- Node4 -->
<g id="node4" class="node">
<title>Node4</title>
<g id="a_node4"><a xlink:href="classhal_1_1spy__handler.html" target="_top" xlink:title=" ">
<polygon fill="white" stroke="black" points="13,-0.5 13,-19.5 133,-19.5 133,-0.5 13,-0.5"/>
<text text-anchor="middle" x="73" y="-7.5" font-family="Helvetica,sans-Serif" font-size="10.00">hal::spy_handler&lt; bool &gt;</text>
</a>
</g>
</g>
<!-- Node4&#45;&gt;Node1 -->
<g id="edge3" class="edge">
<title>Node4&#45;&gt;Node1</title>
<path fill="none" stroke="#9a32cd" stroke-dasharray="5,2" d="M143.46,-16.29C170.51,-19.77 201.54,-25.07 229,-33 243.2,-37.1 258.44,-43.88 269.87,-49.5"/>
<polygon fill="#9a32cd" stroke="#9a32cd" points="143.66,-12.78 133.31,-15.04 142.81,-19.73 143.66,-12.78"/>
<text text-anchor="middle" x="196.5" y="-47" font-family="Helvetica,sans-Serif" font-size="10.00"> spy_clear</text>
<text text-anchor="middle" x="196.5" y="-36" font-family="Helvetica,sans-Serif" font-size="10.00">spy_is_running</text>
</g>
</g>
</svg>
