<?xml version="1.0" encoding="UTF-8" standalone="no"?>
<!DOCTYPE svg PUBLIC "-//W3C//DTD SVG 1.1//EN"
 "http://www.w3.org/Graphics/SVG/1.1/DTD/svg11.dtd">
<!-- Generated by graphviz version 3.0.0 (20220413.0242)
 -->
<!-- Title: hal::mock::servo Pages: 1 -->
<svg width="191pt" height="106pt"
 viewBox="0.00 0.00 190.50 106.00" xmlns="http://www.w3.org/2000/svg" xmlns:xlink="http://www.w3.org/1999/xlink">
<g id="graph0" class="graph" transform="scale(1 1) rotate(0) translate(4 102)">
<title>hal::mock::servo</title>
<polygon fill="white" stroke="transparent" points="-4,4 -4,-102 186.5,-102 186.5,4 -4,4"/>
<!-- Node1 -->
<g id="node1" class="node">
<title>Node1</title>
<g id="a_node1"><a xlink:title="mock servo implementation for use in unit tests and simulations.">
<polygon fill="#bfbfbf" stroke="black" points="36,-0.5 36,-19.5 122,-19.5 122,-0.5 36,-0.5"/>
<text text-anchor="middle" x="79" y="-7.5" font-family="Helvetica,sans-Serif" font-size="10.00">hal::mock::servo</text>
</a>
</g>
</g>
<!-- Node2 -->
<g id="node2" class="node">
<title>Node2</title>
<g id="a_node2"><a xlink:href="classhal_1_1servo.html" target="_top" xlink:title="Hardware abstraction for closed loop positional rotary and linear actuators.">
<polygon fill="white" stroke="black" points="0,-73 0,-92 58,-92 58,-73 0,-73"/>
<text text-anchor="middle" x="29" y="-80" font-family="Helvetica,sans-Serif" font-size="10.00">hal::servo</text>
</a>
</g>
</g>
<!-- Node2&#45;&gt;Node1 -->
<g id="edge1" class="edge">
<title>Node2&#45;&gt;Node1</title>
<path fill="none" stroke="midnightblue" d="M41.06,-64.5C51.08,-50.37 64.92,-30.85 72.82,-19.72"/>
<polygon fill="midnightblue" stroke="midnightblue" points="38.06,-62.67 35.13,-72.86 43.77,-66.72 38.06,-62.67"/>
</g>
<!-- Node3 -->
<g id="node3" class="node">
<title>Node3</title>
<g id="a_node3"><a xlink:href="classhal_1_1spy__handler.html" target="_top" xlink:title=" ">
<polygon fill="white" stroke="black" points="75.5,-67.5 75.5,-97.5 182.5,-97.5 182.5,-67.5 75.5,-67.5"/>
<text text-anchor="start" x="83.5" y="-85.5" font-family="Helvetica,sans-Serif" font-size="10.00">hal::spy_handler&lt; hal</text>
<text text-anchor="middle" x="129" y="-74.5" font-family="Helvetica,sans-Serif" font-size="10.00">::percent &gt;</text>
</a>
</g>
</g>
<!-- Node3&#45;&gt;Node1 -->
<g id="edge2" class="edge">
<title>Node3&#45;&gt;Node1</title>
<path fill="none" stroke="#9a32cd" stroke-dasharray="5,2" d="M113.05,-59.01C103.63,-45.73 92.24,-29.66 85.31,-19.89"/>
<polygon fill="#9a32cd" stroke="#9a32cd" points="110.24,-61.1 118.88,-67.23 115.95,-57.05 110.24,-61.1"/>
<text text-anchor="middle" x="133.5" y="-41" font-family="Helvetica,sans-Serif" font-size="10.00"> spy_position</text>
</g>
</g>
</svg>
