<?xml version="1.0" encoding="UTF-8" standalone="no"?>
<!DOCTYPE svg PUBLIC "-//W3C//DTD SVG 1.1//EN"
 "http://www.w3.org/Graphics/SVG/1.1/DTD/svg11.dtd">
<!-- Generated by graphviz version 3.0.0 (20220413.0242)
 -->
<!-- Title: hal::duty_cycle::operator percent Pages: 1 -->
<svg width="534pt" height="142pt"
 viewBox="0.00 0.00 534.00 142.00" xmlns="http://www.w3.org/2000/svg" xmlns:xlink="http://www.w3.org/1999/xlink">
<g id="graph0" class="graph" transform="scale(1 1) rotate(0) translate(4 138)">
<title>hal::duty_cycle::operator percent</title>
<polygon fill="white" stroke="transparent" points="-4,4 -4,-138 530,-138 530,4 -4,4"/>
<!-- Node1 -->
<g id="node1" class="node">
<title>Node1</title>
<g id="a_node1"><a xlink:title="Conversion from duty cycle to percentage.">
<polygon fill="#bfbfbf" stroke="black" points="0,-52 0,-82 119,-82 119,-52 0,-52"/>
<text text-anchor="start" x="8" y="-70" font-family="Helvetica,sans-Serif" font-size="10.00">hal::duty_cycle::operator</text>
<text text-anchor="middle" x="59.5" y="-59" font-family="Helvetica,sans-Serif" font-size="10.00"> percent</text>
</a>
</g>
</g>
<!-- Node2 -->
<g id="node2" class="node">
<title>Node2</title>
<g id="a_node2"><a xlink:href="classhal_1_1percent.html#a4fece281bfb4ec0f48f86b14168194ce" target="_top" xlink:title="Generate a percentage based on input relative to the maximum possible value.">
<polygon fill="white" stroke="black" points="155,-52 155,-82 245,-82 245,-52 155,-52"/>
<text text-anchor="start" x="163" y="-70" font-family="Helvetica,sans-Serif" font-size="10.00">hal::percent::from</text>
<text text-anchor="middle" x="200" y="-59" font-family="Helvetica,sans-Serif" font-size="10.00">_ratio</text>
</a>
</g>
</g>
<!-- Node1&#45;&gt;Node2 -->
<g id="edge1" class="edge">
<title>Node1&#45;&gt;Node2</title>
<path fill="none" stroke="midnightblue" d="M119.24,-67C127.73,-67 136.43,-67 144.83,-67"/>
<polygon fill="midnightblue" stroke="midnightblue" points="144.88,-70.5 154.88,-67 144.88,-63.5 144.88,-70.5"/>
</g>
<!-- Node3 -->
<g id="node3" class="node">
<title>Node3</title>
<g id="a_node3"><a xlink:href="classhal_1_1percent.html#ac47af31e37f0680bdefe136ee619ef9d" target="_top" xlink:title="Construct 0% percent object.">
<polygon fill="white" stroke="black" points="284.5,-114.5 284.5,-133.5 387.5,-133.5 387.5,-114.5 284.5,-114.5"/>
<text text-anchor="middle" x="336" y="-121.5" font-family="Helvetica,sans-Serif" font-size="10.00">hal::percent::percent</text>
</a>
</g>
</g>
<!-- Node2&#45;&gt;Node3 -->
<g id="edge2" class="edge">
<title>Node2&#45;&gt;Node3</title>
<path fill="none" stroke="midnightblue" d="M230.68,-82.01C245.61,-89.33 264.08,-98.03 281,-105 286.05,-107.08 291.43,-109.15 296.75,-111.11"/>
<polygon fill="midnightblue" stroke="midnightblue" points="295.61,-114.41 306.2,-114.5 297.97,-107.82 295.61,-114.41"/>
</g>
<!-- Node4 -->
<g id="node4" class="node">
<title>Node4</title>
<g id="a_node4"><a xlink:href="classhal_1_1percent.html#a3ba7db7f6ed4a72c9b5014f4b193fed0" target="_top" xlink:title="Get the 100% value in its raw representation.">
<polygon fill="white" stroke="black" points="281,-76.5 281,-95.5 391,-95.5 391,-76.5 281,-76.5"/>
<text text-anchor="middle" x="336" y="-83.5" font-family="Helvetica,sans-Serif" font-size="10.00">hal::percent::raw_max</text>
</a>
</g>
</g>
<!-- Node2&#45;&gt;Node4 -->
<g id="edge3" class="edge">
<title>Node2&#45;&gt;Node4</title>
<path fill="none" stroke="midnightblue" d="M245.25,-73.27C253.47,-74.44 262.2,-75.68 270.88,-76.91"/>
<polygon fill="midnightblue" stroke="midnightblue" points="270.6,-80.4 280.99,-78.34 271.58,-73.47 270.6,-80.4"/>
</g>
<!-- Node5 -->
<g id="node5" class="node">
<title>Node5</title>
<g id="a_node5"><a xlink:href="classhal_1_1percent.html#a36a2265034230d77794566fe966df7e1" target="_top" xlink:title="Get the &#45;100% value in its raw representation.">
<polygon fill="white" stroke="black" points="282.5,-38.5 282.5,-57.5 389.5,-57.5 389.5,-38.5 282.5,-38.5"/>
<text text-anchor="middle" x="336" y="-45.5" font-family="Helvetica,sans-Serif" font-size="10.00">hal::percent::raw_min</text>
</a>
</g>
</g>
<!-- Node2&#45;&gt;Node5 -->
<g id="edge4" class="edge">
<title>Node2&#45;&gt;Node5</title>
<path fill="none" stroke="midnightblue" d="M245.25,-60.73C253.98,-59.49 263.3,-58.17 272.5,-56.86"/>
<polygon fill="midnightblue" stroke="midnightblue" points="273.01,-60.33 282.42,-55.46 272.02,-53.39 273.01,-60.33"/>
</g>
<!-- Node6 -->
<g id="node6" class="node">
<title>Node6</title>
<g id="a_node6"><a xlink:href="group__utility.html#ga58a3550a3236310f20b92eacf593c2f0" target="_top" xlink:title="Perform integer division and round the value up if the next decimal place is greater than or equal to...">
<polygon fill="white" stroke="black" points="281.5,-0.5 281.5,-19.5 390.5,-19.5 390.5,-0.5 281.5,-0.5"/>
<text text-anchor="middle" x="336" y="-7.5" font-family="Helvetica,sans-Serif" font-size="10.00">hal::rounding_division</text>
</a>
</g>
</g>
<!-- Node2&#45;&gt;Node6 -->
<g id="edge5" class="edge">
<title>Node2&#45;&gt;Node6</title>
<path fill="none" stroke="midnightblue" d="M230.68,-51.99C245.61,-44.67 264.08,-35.97 281,-29 286.05,-26.92 291.43,-24.85 296.75,-22.89"/>
<polygon fill="midnightblue" stroke="midnightblue" points="297.97,-26.18 306.2,-19.5 295.61,-19.59 297.97,-26.18"/>
</g>
<!-- Node7 -->
<g id="node7" class="node">
<title>Node7</title>
<g id="a_node7"><a xlink:href="group__utility.html#gaac86abb9a38f4962ded5507e15dca4b9" target="_top" xlink:title="Generic absolute value function that works for integer types.">
<polygon fill="white" stroke="black" points="427,-0.5 427,-19.5 526,-19.5 526,-0.5 427,-0.5"/>
<text text-anchor="middle" x="476.5" y="-7.5" font-family="Helvetica,sans-Serif" font-size="10.00">hal::absolute_value</text>
</a>
</g>
</g>
<!-- Node6&#45;&gt;Node7 -->
<g id="edge6" class="edge">
<title>Node6&#45;&gt;Node7</title>
<path fill="none" stroke="midnightblue" d="M390.55,-10C399.08,-10 407.95,-10 416.6,-10"/>
<polygon fill="midnightblue" stroke="midnightblue" points="416.62,-13.5 426.62,-10 416.62,-6.5 416.62,-13.5"/>
</g>
</g>
</svg>
