<?xml version="1.0" encoding="UTF-8" standalone="no"?>
<!DOCTYPE svg PUBLIC "-//W3C//DTD SVG 1.1//EN"
 "http://www.w3.org/Graphics/SVG/1.1/DTD/svg11.dtd">
<!-- Generated by graphviz version 3.0.0 (20220413.0242)
 -->
<!-- Title: embed::mock::write_only_spi Pages: 1 -->
<svg width="192pt" height="117pt"
 viewBox="0.00 0.00 191.50 117.00" xmlns="http://www.w3.org/2000/svg" xmlns:xlink="http://www.w3.org/1999/xlink">
<g id="graph0" class="graph" transform="scale(1 1) rotate(0) translate(4 113)">
<title>embed::mock::write_only_spi</title>
<polygon fill="white" stroke="transparent" points="-4,4 -4,-113 187.5,-113 187.5,4 -4,4"/>
<!-- Node1 -->
<g id="node1" class="node">
<title>Node1</title>
<g id="a_node1"><a xlink:title="Mock spi implementation for use in unit tests and simulations with a spy functions for configure() an...">
<polygon fill="#bfbfbf" stroke="black" points="31.5,-0.5 31.5,-30.5 131.5,-30.5 131.5,-0.5 31.5,-0.5"/>
<text text-anchor="start" x="39.5" y="-18.5" font-family="Helvetica,sans-Serif" font-size="10.00">embed::mock::write</text>
<text text-anchor="middle" x="81.5" y="-7.5" font-family="Helvetica,sans-Serif" font-size="10.00">_only_spi</text>
</a>
</g>
</g>
<!-- Node2 -->
<g id="node2" class="node">
<title>Node2</title>
<g id="a_node2"><a xlink:href="classembed_1_1spi.html" target="_top" xlink:title="Serial peripheral interface (SPI) communication protocol hardware abstract interface.">
<polygon fill="white" stroke="black" points="0,-84 0,-103 63,-103 63,-84 0,-84"/>
<text text-anchor="middle" x="31.5" y="-91" font-family="Helvetica,sans-Serif" font-size="10.00">embed::spi</text>
</a>
</g>
</g>
<!-- Node2&#45;&gt;Node1 -->
<g id="edge1" class="edge">
<title>Node2&#45;&gt;Node1</title>
<path fill="none" stroke="midnightblue" d="M42.77,-75.37C51.68,-61.83 63.95,-43.17 72.28,-30.52"/>
<polygon fill="midnightblue" stroke="midnightblue" points="39.81,-73.5 37.24,-83.78 45.66,-77.35 39.81,-73.5"/>
</g>
<!-- Node3 -->
<g id="node3" class="node">
<title>Node3</title>
<g id="a_node3"><a xlink:href="classembed_1_1spy__handler.html" target="_top" xlink:title=" ">
<polygon fill="white" stroke="black" points="81.5,-78.5 81.5,-108.5 183.5,-108.5 183.5,-78.5 81.5,-78.5"/>
<text text-anchor="start" x="89.5" y="-96.5" font-family="Helvetica,sans-Serif" font-size="10.00">embed::spy_handler</text>
<text text-anchor="middle" x="132.5" y="-85.5" font-family="Helvetica,sans-Serif" font-size="10.00">&lt; settings &gt;</text>
</a>
</g>
</g>
<!-- Node3&#45;&gt;Node1 -->
<g id="edge2" class="edge">
<title>Node3&#45;&gt;Node1</title>
<path fill="none" stroke="#9a32cd" stroke-dasharray="5,2" d="M117.12,-69.57C108.64,-56.94 98.38,-41.65 91.05,-30.73"/>
<polygon fill="#9a32cd" stroke="#9a32cd" points="114.43,-71.85 122.91,-78.2 120.24,-67.95 114.43,-71.85"/>
<text text-anchor="middle" x="140.5" y="-52" font-family="Helvetica,sans-Serif" font-size="10.00"> spy_configure</text>
</g>
</g>
</svg>
