<?xml version="1.0" encoding="UTF-8" standalone="no"?>
<!DOCTYPE svg PUBLIC "-//W3C//DTD SVG 1.1//EN"
 "http://www.w3.org/Graphics/SVG/1.1/DTD/svg11.dtd">
<!-- Generated by graphviz version 3.0.0 (20220413.0242)
 -->
<!-- Title: hal::mock::interrupt_pin Pages: 1 -->
<svg width="390pt" height="164pt"
 viewBox="0.00 0.00 390.00 164.00" xmlns="http://www.w3.org/2000/svg" xmlns:xlink="http://www.w3.org/1999/xlink">
<g id="graph0" class="graph" transform="scale(1 1) rotate(0) translate(4 160)">
<title>hal::mock::interrupt_pin</title>
<polygon fill="white" stroke="transparent" points="-4,4 -4,-160 386,-160 386,4 -4,4"/>
<!-- Node1 -->
<g id="node1" class="node">
<title>Node1</title>
<g id="a_node1"><a xlink:title="mock interrupt_pin implementation for use in unit tests and simulations.">
<polygon fill="#bfbfbf" stroke="black" points="266,-73.5 266,-92.5 382,-92.5 382,-73.5 266,-73.5"/>
<text text-anchor="middle" x="324" y="-80.5" font-family="Helvetica,sans-Serif" font-size="10.00">hal::mock::interrupt_pin</text>
</a>
</g>
</g>
<!-- Node2 -->
<g id="node2" class="node">
<title>Node2</title>
<g id="a_node2"><a xlink:href="classhal_1_1interrupt__pin.html" target="_top" xlink:title="Digital interrupt pin hardware abstraction.">
<polygon fill="white" stroke="black" points="25,-136.5 25,-155.5 112,-155.5 112,-136.5 25,-136.5"/>
<text text-anchor="middle" x="68.5" y="-143.5" font-family="Helvetica,sans-Serif" font-size="10.00">hal::interrupt_pin</text>
</a>
</g>
</g>
<!-- Node2&#45;&gt;Node1 -->
<g id="edge1" class="edge">
<title>Node2&#45;&gt;Node1</title>
<path fill="none" stroke="midnightblue" d="M122.53,-139.53C158.41,-134.42 206.61,-126.11 248,-114 267.2,-108.38 288.18,-99.46 303.05,-92.62"/>
<polygon fill="midnightblue" stroke="midnightblue" points="121.71,-136.11 112.29,-140.96 122.68,-143.05 121.71,-136.11"/>
</g>
<!-- Node3 -->
<g id="node3" class="node">
<title>Node3</title>
<g id="a_node3"><a xlink:href="classhal_1_1spy__handler.html" target="_top" xlink:title=" ">
<polygon fill="white" stroke="black" points="0,-98.5 0,-117.5 137,-117.5 137,-98.5 0,-98.5"/>
<text text-anchor="middle" x="68.5" y="-105.5" font-family="Helvetica,sans-Serif" font-size="10.00">hal::spy_handler&lt; settings &gt;</text>
</a>
</g>
</g>
<!-- Node3&#45;&gt;Node1 -->
<g id="edge2" class="edge">
<title>Node3&#45;&gt;Node1</title>
<path fill="none" stroke="#9a32cd" stroke-dasharray="5,2" d="M147.18,-100.34C185.48,-96.56 230.84,-92.09 265.89,-88.63"/>
<polygon fill="#9a32cd" stroke="#9a32cd" points="146.71,-96.87 137.1,-101.33 147.4,-103.83 146.71,-96.87"/>
<text text-anchor="middle" x="201.5" y="-102" font-family="Helvetica,sans-Serif" font-size="10.00"> spy_configure</text>
</g>
<!-- Node4 -->
<g id="node4" class="node">
<title>Node4</title>
<g id="a_node4"><a xlink:title=" ">
<polygon fill="white" stroke="black" points="15,-38.5 15,-79.5 122,-79.5 122,-38.5 15,-38.5"/>
<text text-anchor="start" x="23" y="-67.5" font-family="Helvetica,sans-Serif" font-size="10.00">hal::spy_handler&lt; std</text>
<text text-anchor="start" x="23" y="-56.5" font-family="Helvetica,sans-Serif" font-size="10.00">::function&lt; void(void)</text>
<text text-anchor="middle" x="68.5" y="-45.5" font-family="Helvetica,sans-Serif" font-size="10.00">&gt;, trigger_edge &gt;</text>
</a>
</g>
</g>
<!-- Node4&#45;&gt;Node1 -->
<g id="edge3" class="edge">
<title>Node4&#45;&gt;Node1</title>
<path fill="none" stroke="#9a32cd" stroke-dasharray="5,2" d="M132.55,-64.39C166.73,-67.38 209.7,-71.24 248,-75 253.73,-75.56 259.71,-76.17 265.68,-76.79"/>
<polygon fill="#9a32cd" stroke="#9a32cd" points="132.51,-60.87 122.24,-63.49 131.9,-67.85 132.51,-60.87"/>
<text text-anchor="middle" x="201.5" y="-78" font-family="Helvetica,sans-Serif" font-size="10.00"> spy_attach_interrupt</text>
</g>
<!-- Node5 -->
<g id="node5" class="node">
<title>Node5</title>
<g id="a_node5"><a xlink:href="classhal_1_1spy__handler.html" target="_top" xlink:title=" ">
<polygon fill="white" stroke="black" points="8.5,-0.5 8.5,-19.5 128.5,-19.5 128.5,-0.5 8.5,-0.5"/>
<text text-anchor="middle" x="68.5" y="-7.5" font-family="Helvetica,sans-Serif" font-size="10.00">hal::spy_handler&lt; bool &gt;</text>
</a>
</g>
</g>
<!-- Node5&#45;&gt;Node1 -->
<g id="edge4" class="edge">
<title>Node5&#45;&gt;Node1</title>
<path fill="none" stroke="#9a32cd" stroke-dasharray="5,2" d="M132.07,-21.54C166.66,-28.62 210.16,-38.69 248,-51 267.25,-57.26 288.4,-66.51 303.31,-73.46"/>
<polygon fill="#9a32cd" stroke="#9a32cd" points="132.6,-18.07 122.11,-19.53 131.22,-24.93 132.6,-18.07"/>
<text text-anchor="middle" x="201.5" y="-54" font-family="Helvetica,sans-Serif" font-size="10.00"> spy_detach_interrupt</text>
</g>
</g>
</svg>
