<?xml version="1.0" encoding="UTF-8" standalone="no"?>
<!DOCTYPE svg PUBLIC "-//W3C//DTD SVG 1.1//EN"
 "http://www.w3.org/Graphics/SVG/1.1/DTD/svg11.dtd">
<!-- Generated by graphviz version 3.0.0 (20220413.0242)
 -->
<!-- Title: embed::duty_cycle::operator percent Pages: 1 -->
<svg width="566pt" height="142pt"
 viewBox="0.00 0.00 566.00 142.00" xmlns="http://www.w3.org/2000/svg" xmlns:xlink="http://www.w3.org/1999/xlink">
<g id="graph0" class="graph" transform="scale(1 1) rotate(0) translate(4 138)">
<title>embed::duty_cycle::operator percent</title>
<polygon fill="white" stroke="transparent" points="-4,4 -4,-138 562,-138 562,4 -4,4"/>
<!-- Node1 -->
<g id="node1" class="node">
<title>Node1</title>
<g id="a_node1"><a xlink:title="Conversion from duty cycle to percentage.">
<polygon fill="#bfbfbf" stroke="black" points="0,-52 0,-82 101,-82 101,-52 0,-52"/>
<text text-anchor="start" x="8" y="-70" font-family="Helvetica,sans-Serif" font-size="10.00">embed::duty_cycle::</text>
<text text-anchor="middle" x="50.5" y="-59" font-family="Helvetica,sans-Serif" font-size="10.00">operator percent</text>
</a>
</g>
</g>
<!-- Node2 -->
<g id="node2" class="node">
<title>Node2</title>
<g id="a_node2"><a xlink:href="classembed_1_1percent.html#a3031fcd41ebdbc14fe77114d239c0b27" target="_top" xlink:title="Generate a percentage based on input relative to the maximum possible value.">
<polygon fill="white" stroke="black" points="137,-52 137,-82 244,-82 244,-52 137,-52"/>
<text text-anchor="start" x="145" y="-70" font-family="Helvetica,sans-Serif" font-size="10.00">embed::percent::from</text>
<text text-anchor="middle" x="190.5" y="-59" font-family="Helvetica,sans-Serif" font-size="10.00">_ratio</text>
</a>
</g>
</g>
<!-- Node1&#45;&gt;Node2 -->
<g id="edge1" class="edge">
<title>Node1&#45;&gt;Node2</title>
<path fill="none" stroke="midnightblue" d="M101.32,-67C109.55,-67 118.18,-67 126.69,-67"/>
<polygon fill="midnightblue" stroke="midnightblue" points="126.96,-70.5 136.96,-67 126.96,-63.5 126.96,-70.5"/>
</g>
<!-- Node3 -->
<g id="node3" class="node">
<title>Node3</title>
<g id="a_node3"><a xlink:href="classembed_1_1percent.html#a3635a4d8e47f6a65226ee6391509f3a1" target="_top" xlink:title="Construct 0% percent object.">
<polygon fill="white" stroke="black" points="283.5,-114.5 283.5,-133.5 402.5,-133.5 402.5,-114.5 283.5,-114.5"/>
<text text-anchor="middle" x="343" y="-121.5" font-family="Helvetica,sans-Serif" font-size="10.00">embed::percent::percent</text>
</a>
</g>
</g>
<!-- Node2&#45;&gt;Node3 -->
<g id="edge2" class="edge">
<title>Node2&#45;&gt;Node3</title>
<path fill="none" stroke="midnightblue" d="M224.36,-82.11C240.88,-89.46 261.32,-98.15 280,-105 285.97,-107.19 292.31,-109.33 298.59,-111.35"/>
<polygon fill="midnightblue" stroke="midnightblue" points="297.73,-114.75 308.32,-114.4 299.82,-108.07 297.73,-114.75"/>
</g>
<!-- Node4 -->
<g id="node4" class="node">
<title>Node4</title>
<g id="a_node4"><a xlink:href="classembed_1_1percent.html#a18867853ebb7f7101932f298ef9ac059" target="_top" xlink:title="Get the 100% value in its raw representation.">
<polygon fill="white" stroke="black" points="280,-76.5 280,-95.5 406,-95.5 406,-76.5 280,-76.5"/>
<text text-anchor="middle" x="343" y="-83.5" font-family="Helvetica,sans-Serif" font-size="10.00">embed::percent::raw_max</text>
</a>
</g>
</g>
<!-- Node2&#45;&gt;Node4 -->
<g id="edge3" class="edge">
<title>Node2&#45;&gt;Node4</title>
<path fill="none" stroke="midnightblue" d="M244.14,-73.65C252.42,-74.69 261.11,-75.79 269.75,-76.88"/>
<polygon fill="midnightblue" stroke="midnightblue" points="269.48,-80.37 279.84,-78.15 270.35,-73.43 269.48,-80.37"/>
</g>
<!-- Node5 -->
<g id="node5" class="node">
<title>Node5</title>
<g id="a_node5"><a xlink:href="classembed_1_1percent.html#addd3062c4b442314f9b135b532367c44" target="_top" xlink:title="Get the &#45;100% value in its raw representation.">
<polygon fill="white" stroke="black" points="281,-38.5 281,-57.5 405,-57.5 405,-38.5 281,-38.5"/>
<text text-anchor="middle" x="343" y="-45.5" font-family="Helvetica,sans-Serif" font-size="10.00">embed::percent::raw_min</text>
</a>
</g>
</g>
<!-- Node2&#45;&gt;Node5 -->
<g id="edge4" class="edge">
<title>Node2&#45;&gt;Node5</title>
<path fill="none" stroke="midnightblue" d="M244.14,-60.35C252.76,-59.27 261.82,-58.12 270.8,-56.99"/>
<polygon fill="midnightblue" stroke="midnightblue" points="271.4,-60.44 280.88,-55.72 270.52,-53.5 271.4,-60.44"/>
</g>
<!-- Node6 -->
<g id="node6" class="node">
<title>Node6</title>
<g id="a_node6"><a xlink:href="group__utility.html#ga84ea33bb969785c47247cfe0da9aa98e" target="_top" xlink:title="Perform integer division and round the value up if the next decimal place is greater than or equal to...">
<polygon fill="white" stroke="black" points="280.5,-0.5 280.5,-19.5 405.5,-19.5 405.5,-0.5 280.5,-0.5"/>
<text text-anchor="middle" x="343" y="-7.5" font-family="Helvetica,sans-Serif" font-size="10.00">embed::rounding_division</text>
</a>
</g>
</g>
<!-- Node2&#45;&gt;Node6 -->
<g id="edge5" class="edge">
<title>Node2&#45;&gt;Node6</title>
<path fill="none" stroke="midnightblue" d="M224.36,-51.89C240.88,-44.54 261.32,-35.85 280,-29 285.97,-26.81 292.31,-24.67 298.59,-22.65"/>
<polygon fill="midnightblue" stroke="midnightblue" points="299.82,-25.93 308.32,-19.6 297.73,-19.25 299.82,-25.93"/>
</g>
<!-- Node7 -->
<g id="node7" class="node">
<title>Node7</title>
<g id="a_node7"><a xlink:href="group__utility.html#ga6f0922a28ac81378eb689b2ab4bc299a" target="_top" xlink:title="Generic absolute value function that works for integer types.">
<polygon fill="white" stroke="black" points="442,-0.5 442,-19.5 558,-19.5 558,-0.5 442,-0.5"/>
<text text-anchor="middle" x="500" y="-7.5" font-family="Helvetica,sans-Serif" font-size="10.00">embed::absolute_value</text>
</a>
</g>
</g>
<!-- Node6&#45;&gt;Node7 -->
<g id="edge6" class="edge">
<title>Node6&#45;&gt;Node7</title>
<path fill="none" stroke="midnightblue" d="M405.71,-10C414.26,-10 423.09,-10 431.74,-10"/>
<polygon fill="midnightblue" stroke="midnightblue" points="431.79,-13.5 441.79,-10 431.79,-6.5 431.79,-13.5"/>
</g>
</g>
</svg>
